# https://github.com/mikedh/trimesh
v 0.32278236 0.00071653 0.03174415
v 0.32067752 0.00071653 0.03960148
v 0.32278236 -0.03791701 0.03174415
v 0.15226396 0.00071653 0.03174415
v 0.32067752 -0.05938695 0.03960148
v 0.31212659 0.00071653 0.07150489
v 0.32275605 -0.06051333 0.03174415
v 0.15226396 -0.03236065 0.03174415
v 0.09172348 0.00071653 0.03656738
v 0.32154576 -0.06503947 0.03627057
v 0.31149515 -0.05374131 0.07385879
v 0.31557329 -0.05938695 0.05861408
v 0.31149515 0.00071653 0.07385879
v 0.32212460 -0.06571942 0.03174415
v 0.09172348 -0.00288927 0.03656738
v 0.15236921 -0.03799943 0.03174415
v 0.05399422 0.00071653 0.04439173
v 0.32062490 -0.06798592 0.03941185
v 0.31699406 -0.06503947 0.05321783
v 0.31141623 -0.05938695 0.07385879
v 0.31481028 -0.05938695 0.06144206
v 0.06217678 0.00071653 0.07385879
v 0.32101955 -0.06846669 0.03627057
v 0.32109848 -0.06849417 0.03174415
v 0.09172348 -0.00854178 0.03692191
v 0.05399422 -0.01801988 0.04459785
v 0.05399422 -0.01424925 0.04443708
v 0.05399422 -0.00854178 0.04439173
v 0.15371103 -0.04261485 0.03174415
v 0.05399422 0.00071653 0.05450403
v 0.31557329 -0.06503947 0.05814412
v 0.31533649 -0.06842548 0.05713001
v 0.31591532 -0.06896807 0.05321783
v 0.31083739 -0.06234714 0.07385879
v 0.05399422 -0.00605550 0.07385879
v 0.31657308 -0.06924967 0.04757012
v 0.31854637 -0.06944884 0.03627057
v 0.31770443 -0.06944884 0.03181011
v 0.31770443 -0.06944198 0.03174415
v 0.09735393 -0.01419430 0.03675289
v 0.15615792 -0.04580168 0.03174415
v 0.05399422 -0.02048556 0.04705482
v 0.15994663 -0.04749813 0.03174415
v 0.15410570 -0.06944884 0.05476787
v 0.31028486 -0.06449001 0.07385879
v 0.30894304 -0.06729223 0.07385879
v 0.30783799 -0.06857658 0.07385879
v 0.30694343 -0.06944884 0.07385879
v 0.31431037 -0.06944884 0.05321783
v 0.05399422 -0.01841137 0.07385879
v 0.31581007 -0.06944884 0.04757012
v 0.31765182 -0.06944884 0.03174415
v 0.15260599 -0.06944884 0.05849453
v 0.15350055 -0.06944884 0.05579435
v 0.16002556 -0.04752560 0.03174415
v 0.15852586 -0.06944884 0.05327967
v 0.26279441 -0.06944884 0.07385879
v 0.15307958 -0.06944884 0.05970240
v 0.15500025 -0.06944884 0.06292201
v 0.15389521 -0.05762870 0.07385879
v 0.25929511 -0.06944884 0.03174415
v 0.16010449 -0.04754620 0.03174415
v 0.15952566 -0.05842540 0.07385879
v 0.15952566 -0.06944884 0.06429065
f 1 2 5
f 1 5 3
f 1 3 7
f 1 7 14
f 1 14 24
f 1 24 39
f 1 39 52
f 1 52 61
f 1 61 62
f 1 62 55
f 1 55 43
f 1 43 41
f 1 41 29
f 1 29 16
f 1 16 8
f 1 8 4
f 1 4 9
f 1 9 17
f 1 17 30
f 1 30 22
f 1 22 13
f 1 13 6
f 1 6 2
f 2 6 5
f 3 5 7
f 4 8 15
f 4 15 9
f 5 10 7
f 5 6 11
f 5 11 12
f 5 12 10
f 6 13 11
f 7 10 14
f 8 16 15
f 9 15 28
f 9 28 17
f 10 18 14
f 10 12 19
f 10 19 18
f 11 13 22
f 11 22 35
f 11 35 50
f 11 50 60
f 11 60 63
f 11 63 57
f 11 57 48
f 11 48 47
f 11 47 46
f 11 46 45
f 11 45 34
f 11 34 20
f 11 20 19
f 11 19 21
f 11 21 12
f 12 21 19
f 14 18 23
f 14 23 24
f 15 25 26
f 15 26 27
f 15 27 28
f 15 16 29
f 15 29 25
f 17 28 27
f 17 27 26
f 17 26 42
f 17 42 50
f 17 50 35
f 17 35 30
f 18 19 31
f 18 31 32
f 18 32 33
f 18 33 23
f 19 20 31
f 20 34 32
f 20 32 31
f 22 30 35
f 23 33 36
f 23 36 37
f 23 37 24
f 24 37 38
f 24 38 39
f 25 40 26
f 25 29 41
f 25 41 40
f 26 40 41
f 26 41 43
f 26 43 44
f 26 44 42
f 32 34 45
f 32 45 46
f 32 46 47
f 32 47 48
f 32 48 33
f 33 48 49
f 33 49 36
f 36 49 51
f 36 51 37
f 37 51 49
f 37 49 48
f 37 48 57
f 37 57 64
f 37 64 59
f 37 59 58
f 37 58 53
f 37 53 54
f 37 54 44
f 37 44 56
f 37 56 61
f 37 61 52
f 37 52 38
f 38 52 39
f 42 53 50
f 42 44 54
f 42 54 53
f 43 55 56
f 43 56 44
f 50 53 58
f 50 58 59
f 50 59 60
f 55 62 56
f 56 62 61
f 57 63 64
f 59 64 60
f 60 64 63

