# https://github.com/mikedh/trimesh
v 0.02953233 -0.10316210 -0.01456150
v 0.03407494 -0.10316210 -0.01444032
v 0.03518259 -0.10419218 -0.01405085
v 0.02953233 -0.10422040 -0.01418067
v 0.02388206 -0.10421570 -0.01416336
v 0.02388206 -0.10316210 -0.01452687
v 0.03518259 -0.10316210 -0.01438839
v 0.03989945 -0.10316210 -0.01384313
v 0.04083286 -0.10400874 -0.01344499
v 0.04609732 -0.13682098 0.01594766
v -0.01112720 -0.11923896 -0.00112881
v -0.04955898 -0.11915900 -0.00104227
v -0.04390872 -0.11589942 -0.00332720
v -0.04955898 -0.11589942 -0.00282521
v -0.04390872 -0.11025040 -0.00523133
v -0.04390872 -0.10460139 -0.00524863
v -0.04390872 -0.10316210 -0.00524863
v 0.04609732 -0.10316210 -0.01283048
v 0.04609732 -0.10320913 -0.01282182
v 0.04609732 -0.10350546 -0.01275259
v 0.04609732 -0.10356661 -0.01273527
v 0.04609732 -0.13891408 0.01908079
v -0.01001955 -0.13682098 0.01588707
v -0.03825845 -0.13682098 0.01594766
v -0.04390872 -0.13659521 0.01604286
v -0.04729390 -0.13613896 0.01625924
v -0.05249613 -0.11889090 -0.00066144
v -0.04955898 -0.11025040 -0.00404557
v -0.04955898 -0.10460139 -0.00406288
v -0.04955898 -0.10316210 -0.00406288
v 0.04609732 -0.10316210 0.05877298
v 0.04609732 -0.13906930 0.01932314
v -0.03825845 -0.13906930 0.01932314
v -0.04390872 -0.13884352 0.01932314
v -0.04932252 -0.13758766 0.01919331
v -0.05329265 -0.13689623 0.02098492
v -0.05807172 -0.13575797 0.02771856
v -0.06372200 -0.13575797 0.03901344
v -0.08067280 -0.13575797 0.07291538
v -0.05265792 -0.11589942 -0.00114613
v -0.05275749 -0.11025040 -0.00153560
v -0.05275749 -0.10316210 -0.00153560
v 0.04609732 -0.12895188 0.07385879
v 0.00966927 -0.10316210 0.07385879
v 0.04609732 -0.14016994 0.02497490
v -0.03260818 -0.15120926 0.07385879
v -0.04390872 -0.14016994 0.02497490
v -0.04955898 -0.13996297 0.02497490
v -0.05520925 -0.13895641 0.03061802
v -0.05519681 -0.13735719 0.02549421
v -0.05879356 -0.13671280 0.03061802
v -0.06444383 -0.13671280 0.04191289
v -0.07574438 -0.13671280 0.06451996
v -0.08090927 -0.13606370 0.07385879
v -0.08104616 -0.13483607 0.07385879
v -0.07537100 -0.10316210 0.05273174
v 0.04609732 -0.14016994 0.07385879
v -0.07832059 -0.10316210 0.07385879
v -0.02120808 -0.15042847 0.07385879
v -0.02858828 -0.15094115 0.07385879
v -0.04790374 -0.14851880 0.07385879
v -0.05520925 -0.14001942 0.03626112
v -0.06085953 -0.13895641 0.04191289
v -0.06088441 -0.13740422 0.03678043
v -0.07783522 -0.13740422 0.07069103
v -0.07782277 -0.13836375 0.07385879
v -0.08104616 -0.13457266 0.07385879
v -0.07723784 -0.10316210 0.05895474
v -0.07896776 -0.10460139 0.07385879
v -0.07216007 -0.14001942 0.07016307
v -0.07216007 -0.13895641 0.06451996
f 1 2 3
f 1 3 4
f 1 4 5
f 1 5 6
f 1 6 17
f 1 17 30
f 1 30 42
f 1 42 56
f 1 56 68
f 1 68 58
f 1 58 44
f 1 44 31
f 1 31 18
f 1 18 8
f 1 8 7
f 1 7 2
f 2 7 3
f 3 7 8
f 3 8 9
f 3 9 10
f 3 10 4
f 4 10 11
f 4 11 5
f 5 11 12
f 5 12 13
f 5 13 14
f 5 14 6
f 6 14 15
f 6 15 16
f 6 16 17
f 8 18 19
f 8 19 20
f 8 20 21
f 8 21 9
f 9 21 10
f 10 21 20
f 10 20 19
f 10 19 18
f 10 18 31
f 10 31 43
f 10 43 57
f 10 57 45
f 10 45 32
f 10 32 22
f 10 22 23
f 10 23 11
f 11 23 24
f 11 24 12
f 12 24 25
f 12 25 26
f 12 26 27
f 12 27 14
f 12 14 13
f 14 28 15
f 14 27 28
f 15 28 29
f 15 29 16
f 16 29 30
f 16 30 17
f 22 32 33
f 22 33 23
f 23 33 24
f 24 33 34
f 24 34 25
f 25 34 26
f 26 34 35
f 26 35 27
f 27 36 37
f 27 37 38
f 27 38 39
f 27 39 40
f 27 40 28
f 27 35 36
f 28 40 41
f 28 41 29
f 29 41 42
f 29 42 30
f 31 44 43
f 32 45 46
f 32 46 33
f 33 46 47
f 33 47 48
f 33 48 34
f 34 48 35
f 35 48 36
f 36 48 49
f 36 49 50
f 36 50 51
f 36 51 37
f 37 51 52
f 37 52 38
f 38 52 39
f 39 52 53
f 39 53 54
f 39 54 55
f 39 55 56
f 39 56 40
f 40 56 41
f 41 56 42
f 43 44 58
f 43 58 69
f 43 69 67
f 43 67 55
f 43 55 54
f 43 54 66
f 43 66 61
f 43 61 46
f 43 46 60
f 43 60 59
f 43 59 57
f 45 57 59
f 45 59 60
f 45 60 46
f 46 61 48
f 46 48 47
f 48 62 49
f 48 61 62
f 49 62 63
f 49 63 64
f 49 64 50
f 50 64 51
f 51 64 52
f 52 64 65
f 52 65 53
f 53 65 54
f 54 65 66
f 55 67 68
f 55 68 56
f 58 68 69
f 61 66 70
f 61 70 62
f 62 70 63
f 63 70 71
f 63 71 66
f 63 66 64
f 64 66 65
f 66 71 70
f 67 69 68

