# https://github.com/mikedh/trimesh
v 0.29229777 0.01399401 0.14543101
v 0.28686207 0.01399401 0.16425247
v 0.29229777 -0.03115003 0.14543101
v -0.18232619 0.01399401 0.14543101
v 0.28477141 0.01399401 0.16707822
v 0.28686207 -0.01984590 0.16425247
v 0.29225130 -0.05941034 0.14543101
v -0.18232619 -0.05488144 0.14543101
v -0.18214035 0.01399401 0.14599897
v 0.28477141 -0.01984590 0.16707822
v 0.28193741 0.01399401 0.16933038
v 0.28686207 -0.02549797 0.16414000
v 0.29206545 -0.05941034 0.14599897
v 0.29002127 -0.06542472 0.14543101
v 0.28686207 -0.03115003 0.16395162
v -0.18227975 -0.06038858 0.14543101
v -0.18214035 -0.05941034 0.14599897
v -0.16462534 -0.13792329 0.17415243
v -0.16114093 0.01399401 0.17415243
v 0.28676915 -0.03448330 0.16372106
v 0.28193741 -0.01984590 0.16933038
v 0.28161220 -0.02401249 0.16923760
v 0.27812779 0.01399401 0.16960592
v 0.27501506 -0.09328649 0.15152113
v 0.27571192 -0.09660163 0.14757071
v 0.27599069 -0.09687338 0.14543101
v -0.16629787 -0.14243407 0.16227585
v -0.16778455 -0.13848486 0.16622909
v -0.16648371 -0.13848486 0.17094710
v -0.18009617 -0.06544283 0.14543101
v -0.15519420 -0.14243407 0.15120622
v -0.16086220 -0.14243407 0.15662716
v -0.16462534 -0.13848486 0.17415243
v 0.14897211 0.01399401 0.17415243
v 0.28379578 -0.03115003 0.16637248
v 0.28384226 -0.03653035 0.16489353
v 0.27115896 -0.09712699 0.15315472
v 0.27812779 -0.01984590 0.16960592
v 0.17452449 -0.13647405 0.17415243
v 0.16927464 -0.08763443 0.17415243
v 0.17480325 -0.13283281 0.17415243
v 0.17489616 -0.13524218 0.17415243
v 0.27283148 -0.09763423 0.14938425
v 0.18785819 -0.13940876 0.14543101
v -0.16267409 -0.14353912 0.16046512
v -0.16253472 -0.14506082 0.16622909
v -0.16662308 -0.14288696 0.16622909
v -0.16611206 -0.14228915 0.17034821
v -0.16606558 -0.09687338 0.14543101
v -0.15124521 -0.13848486 0.14988192
v -0.15124521 -0.14277826 0.15096161
v 0.02855068 -0.17107480 0.14543101
v -0.15124521 -0.14495212 0.15492890
v -0.15700609 -0.14353912 0.15481925
v -0.16225596 -0.14333985 0.17415243
v 0.17313072 -0.13719866 0.17415243
v 0.17610409 -0.13701751 0.17136323
v 0.17642930 -0.13902833 0.16622909
v 0.18209729 -0.13962615 0.15492890
v 0.18813694 -0.13817691 0.14956700
v 0.08077046 -0.17107480 0.16618129
v 0.08286111 -0.17107480 0.16057759
v 0.08374383 -0.17107480 0.15492890
v 0.08365091 -0.17107480 0.15400385
v 0.08295403 -0.17107480 0.14928021
v 0.08146735 -0.17107480 0.14543101
v -0.15691317 -0.14542313 0.16057759
v 0.02618128 -0.17107480 0.15492890
v 0.02632065 -0.17107480 0.15589331
v 0.02706399 -0.17107480 0.16057759
v -0.15691317 -0.14564053 0.17187777
v -0.15691317 -0.14540503 0.17415243
v -0.16062991 -0.14415505 0.17415243
v -0.16290638 -0.14361158 0.17209147
v 0.02706399 -0.17107480 0.14928021
v -0.08155687 -0.13768779 0.14543101
v -0.07793308 -0.13940876 0.14543101
v -0.05846681 -0.14772381 0.14543101
v -0.04387872 -0.15236142 0.14543101
v 0.17076133 -0.13821314 0.17415243
v 0.17076133 -0.13946311 0.17187777
v 0.07742542 -0.17107480 0.17187777
v 0.02915464 -0.17107480 0.16618129
v 0.02938694 -0.17107480 0.16659179
v 0.03254614 -0.17107480 0.17187777
v 0.03477617 -0.17107480 0.17415243
v 0.07533477 -0.17107480 0.17415243
v 0.07612458 -0.17107480 0.17329768
f 1 2 6
f 1 6 3
f 1 3 7
f 1 7 14
f 1 14 26
f 1 26 44
f 1 44 66
f 1 66 52
f 1 52 79
f 1 79 78
f 1 78 77
f 1 77 76
f 1 76 49
f 1 49 30
f 1 30 16
f 1 16 8
f 1 8 4
f 1 4 9
f 1 9 19
f 1 19 34
f 1 34 23
f 1 23 11
f 1 11 5
f 1 5 2
f 2 5 10
f 2 10 6
f 3 6 7
f 4 8 17
f 4 17 9
f 5 11 21
f 5 21 10
f 6 10 12
f 6 12 7
f 7 13 14
f 7 12 15
f 7 15 13
f 8 16 17
f 9 17 33
f 9 33 18
f 9 18 19
f 10 20 15
f 10 15 12
f 10 21 22
f 10 22 20
f 11 23 38
f 11 38 21
f 13 15 20
f 13 20 24
f 13 24 14
f 14 24 25
f 14 25 26
f 16 27 28
f 16 28 29
f 16 29 17
f 16 30 31
f 16 31 32
f 16 32 27
f 17 29 33
f 18 33 55
f 18 55 73
f 18 73 72
f 18 72 86
f 18 86 87
f 18 87 80
f 18 80 56
f 18 56 39
f 18 39 42
f 18 42 41
f 18 41 40
f 18 40 34
f 18 34 19
f 20 22 35
f 20 35 36
f 20 36 37
f 20 37 24
f 21 38 39
f 21 39 22
f 22 37 36
f 22 36 35
f 22 39 37
f 23 34 40
f 23 40 41
f 23 41 42
f 23 42 38
f 24 37 25
f 25 37 43
f 25 43 44
f 25 44 26
f 27 45 46
f 27 46 47
f 27 47 28
f 27 32 45
f 28 47 48
f 28 48 29
f 29 48 33
f 30 49 31
f 31 50 51
f 31 51 52
f 31 52 53
f 31 53 54
f 31 54 32
f 31 49 50
f 32 54 45
f 33 48 55
f 37 39 56
f 37 56 57
f 37 57 58
f 37 58 43
f 38 42 39
f 43 58 59
f 43 59 60
f 43 60 44
f 44 60 59
f 44 59 61
f 44 61 62
f 44 62 63
f 44 63 64
f 44 64 65
f 44 65 66
f 45 54 67
f 45 67 46
f 46 68 69
f 46 69 70
f 46 70 71
f 46 71 72
f 46 72 73
f 46 73 74
f 46 74 48
f 46 48 47
f 46 67 52
f 46 52 75
f 46 75 68
f 48 74 55
f 49 76 50
f 50 76 77
f 50 77 78
f 50 78 79
f 50 79 51
f 51 79 52
f 52 67 53
f 52 66 65
f 52 65 64
f 52 64 63
f 52 63 62
f 52 62 61
f 52 61 82
f 52 82 88
f 52 88 87
f 52 87 86
f 52 86 85
f 52 85 84
f 52 84 83
f 52 83 70
f 52 70 69
f 52 69 68
f 52 68 75
f 53 67 54
f 55 74 73
f 56 80 81
f 56 81 57
f 57 81 58
f 58 81 82
f 58 82 59
f 59 82 61
f 70 83 71
f 71 83 84
f 71 84 85
f 71 85 72
f 72 85 86
f 80 87 81
f 81 87 88
f 81 88 82

