# https://github.com/mikedh/trimesh
v 0.31968526 0.06880676 0.03685035
v 0.31588732 0.06880676 0.05348531
v 0.32067725 0.06840686 0.03685035
v 0.26297146 0.06880676 0.03685035
v 0.31532046 0.06829355 0.05712964
v 0.32062057 0.06786032 0.03941152
v 0.32096067 0.06825356 0.03685035
v 0.30727113 0.06880676 0.07385517
v 0.09736493 0.01460651 0.03685035
v 0.10867367 0.01971861 0.03689382
v 0.10300513 0.01971861 0.03698438
v 0.10300513 0.02427751 0.03808565
v 0.11040258 0.02841651 0.03883915
v 0.15952051 0.06880676 0.05324259
v 0.31557555 0.06491436 0.05814396
v 0.30894334 0.06716049 0.07385517
v 0.31027547 0.06436116 0.07385517
v 0.31140917 0.05926239 0.07385517
v 0.32138580 0.06491436 0.03685035
v 0.31699268 0.06491436 0.05322086
v 0.26308483 0.06880676 0.07385517
v 0.09685476 0.01404664 0.03685035
v 0.03186489 0.00665509 0.04457010
v 0.09727990 0.01984524 0.03781396
v 0.05383050 0.01715923 0.04462806
v 0.15422043 0.06880676 0.05482204
v 0.31149419 0.05361043 0.07385517
v 0.32067725 0.05926239 0.03959990
v 0.32141416 0.05926239 0.03685035
v 0.31557555 0.05926239 0.05861490
v 0.15952051 0.06880676 0.06433136
v 0.15583596 0.05750282 0.07385517
v 0.09172472 0.00729494 0.03685035
v 0.09172472 0.00841467 0.03692280
v 0.03186489 0.00516212 0.04449764
v 0.03186489 0.00824804 0.04604087
v 0.05008926 0.01614614 0.04504466
v 0.15260490 0.06880676 0.05853521
v 0.03186489 0.00941443 0.04720373
v 0.31149419 0.00071653 0.07385517
v 0.31344985 0.00071653 0.06656650
v 0.32067725 0.00071653 0.03959990
v 0.32141416 0.00071653 0.03685035
v 0.15796167 0.06880676 0.06386767
v 0.15422043 0.05718956 0.07385517
v 0.09084610 0.00276270 0.03685035
v 0.03186489 0.00276270 0.04439259
v 0.15492899 0.06880676 0.06294753
v 0.04847373 0.01735251 0.05100745
v 0.05743003 0.01948533 0.07385517
v 0.03186489 0.00600858 0.07385517
v 0.03469916 0.00763486 0.07385517
v 0.03614464 0.00840801 0.07385517
v 0.04719830 0.01416661 0.07385517
v 0.03186489 0.00071653 0.07385517
v 0.09084610 0.00071653 0.03685035
v 0.03186489 0.00071653 0.04439259
f 1 2 3
f 1 3 7
f 1 7 19
f 1 19 29
f 1 29 43
f 1 43 56
f 1 56 46
f 1 46 33
f 1 33 22
f 1 22 9
f 1 9 4
f 1 4 14
f 1 14 26
f 1 26 38
f 1 38 48
f 1 48 44
f 1 44 31
f 1 31 21
f 1 21 8
f 1 8 2
f 2 5 6
f 2 6 7
f 2 7 3
f 2 8 5
f 4 9 10
f 4 10 11
f 4 11 12
f 4 12 13
f 4 13 14
f 5 15 6
f 5 8 16
f 5 16 17
f 5 17 18
f 5 18 15
f 6 19 7
f 6 15 20
f 6 20 19
f 8 21 32
f 8 32 45
f 8 45 50
f 8 50 54
f 8 54 53
f 8 53 52
f 8 52 51
f 8 51 55
f 8 55 40
f 8 40 27
f 8 27 18
f 8 18 17
f 8 17 16
f 9 22 23
f 9 23 11
f 9 11 10
f 11 23 24
f 11 24 12
f 12 24 23
f 12 23 25
f 12 25 13
f 13 25 14
f 14 25 26
f 15 18 20
f 18 27 20
f 19 28 29
f 19 20 30
f 19 30 28
f 20 27 30
f 21 31 32
f 22 33 34
f 22 34 23
f 23 35 47
f 23 47 57
f 23 57 55
f 23 55 51
f 23 51 39
f 23 39 36
f 23 36 37
f 23 37 25
f 23 34 33
f 23 33 35
f 25 37 26
f 26 37 39
f 26 39 38
f 27 40 41
f 27 41 28
f 27 28 30
f 28 42 43
f 28 43 29
f 28 41 42
f 31 44 45
f 31 45 32
f 33 46 47
f 33 47 35
f 36 39 37
f 38 39 49
f 38 49 50
f 38 50 48
f 39 51 52
f 39 52 53
f 39 53 54
f 39 54 50
f 39 50 49
f 40 55 57
f 40 57 56
f 40 56 43
f 40 43 42
f 40 42 41
f 44 48 45
f 45 48 50
f 46 56 57
f 46 57 47

