# https://github.com/mikedh/trimesh
v 0.08654209 0.16253369 0.15493128
v 0.08580571 0.16253369 0.14977790
v 0.08566544 0.16253369 0.16113391
v 0.18209676 0.13997535 0.14977790
v 0.02370394 0.16253369 0.14977790
v 0.08342122 0.16253369 0.16623263
v 0.18209676 0.13950056 0.15493128
v 0.18788265 0.13810665 0.14977790
v -0.03261195 0.15195451 0.14977790
v -0.15124001 0.13836839 0.14988720
v -0.15124001 0.14266580 0.15096378
v -0.15124001 0.14483884 0.15493128
v -0.15692068 0.14529536 0.16058196
v -0.15692068 0.14553885 0.16623263
v 0.02335328 0.16253369 0.15493128
v 0.08051075 0.16253369 0.17182320
v 0.17645114 0.13919013 0.16623263
v 0.08033542 0.16253369 0.17215655
v 0.18805797 0.13801534 0.14977790
v -0.04818122 0.14876494 0.14977790
v -0.15124001 0.13271967 0.15000742
v -0.15565831 0.13271967 0.15084902
v -0.15572844 0.13836839 0.15078891
v -0.15520245 0.14231883 0.15120970
v -0.07812754 0.13801534 0.14977790
v -0.08044188 0.13271967 0.14977790
v -0.07062342 0.10036131 0.14977790
v -0.15702588 0.14341450 0.15482198
v -0.16267149 0.14341450 0.16047266
v -0.16256630 0.14494841 0.16623263
v -0.15692068 0.14551450 0.17188331
v 0.02426499 0.16253369 0.16111751
v 0.17077047 0.13934230 0.17188331
v 0.17617063 0.13712665 0.17157728
v 0.17978242 0.13603707 0.16948970
v 0.18055387 0.13694404 0.16623263
v 0.07518073 0.16253369 0.17759410
v 0.18644494 0.13725447 0.15493128
v 0.19030220 0.13424141 0.14977790
v -0.15124001 0.10036131 0.15102936
v -0.15737653 0.10036131 0.15514441
v -0.15849865 0.13271967 0.15334100
v -0.15856879 0.13836839 0.15327542
v -0.16084807 0.14231883 0.15663085
v 0.18220196 0.10036131 0.14977790
v -0.16628329 0.14231883 0.16228153
v -0.16663394 0.14277536 0.16623263
v -0.16610795 0.14217275 0.17035315
v -0.16291695 0.14349971 0.17209644
v -0.15692068 0.14493014 0.17753399
v -0.15124001 0.14553885 0.17753399
v 0.03187430 0.16253369 0.17513491
v 0.02955995 0.16253369 0.17216202
v 0.02552737 0.16253369 0.16456585
v 0.17077047 0.13709621 0.17594918
v 0.17410173 0.13618925 0.17505294
v 0.07504047 0.16253369 0.17773619
v 0.07500540 0.16253369 0.17776898
v 0.06932472 0.16253369 0.18255621
v 0.06893899 0.16253369 0.18276387
v 0.18090452 0.13271967 0.17038047
v 0.18535790 0.13635360 0.15851077
v 0.19037232 0.13271967 0.14977790
v 0.18174610 0.12707705 0.17107451
v -0.15800772 0.10036131 0.15571275
v -0.16414427 0.13271967 0.15899168
v -0.16421440 0.13836839 0.15892610
v 0.18181624 0.10036131 0.17122206
v -0.16673914 0.13836839 0.16175144
v -0.16779112 0.13836839 0.16623263
v -0.16645862 0.13836839 0.17095428
v -0.16018182 0.14186231 0.18107523
v -0.16123380 0.14275709 0.17753399
v -0.15639469 0.14248927 0.18304805
v -0.15124001 0.14343275 0.18317920
v 0.04646173 0.16253369 0.18434322
v 0.04158756 0.16253369 0.18300433
v 0.04095638 0.16253369 0.18275841
v 0.03485491 0.16253369 0.17771979
v 0.15947924 0.13705360 0.18148509
v 0.16298583 0.13617099 0.18066536
v 0.17473292 0.13271967 0.17530979
v 0.17753820 0.13271967 0.17320581
v 0.06343364 0.16253369 0.18434869
v 0.05982185 0.15807802 0.19152953
v 0.10863363 0.13739447 0.20416978
v 0.11305194 0.13670665 0.20369433
v 0.11992486 0.13760143 0.19926232
v 0.18181624 0.12142833 0.17116195
v 0.18181624 0.11577353 0.17122206
v 0.17792392 0.12707705 0.17389985
v -0.16186499 0.10036131 0.16094263
v -0.16666902 0.13271967 0.16181702
v 0.17792392 0.10036131 0.17404740
v -0.16768592 0.13271967 0.16623263
v -0.16642354 0.13271967 0.17085591
v -0.16484559 0.13836839 0.17377963
v -0.16267149 0.13836839 0.17753399
v -0.16039222 0.13836839 0.18138673
v -0.15415047 0.14123535 0.18602640
v 0.04684746 0.16253369 0.18440880
v 0.14818800 0.13688317 0.18697183
v 0.15144913 0.13597620 0.18620674
v 0.16617683 0.13271967 0.17952321
v 0.17077047 0.13271967 0.17730447
v 0.17508359 0.12707705 0.17540269
v 0.05775296 0.16253369 0.18491157
v 0.05603473 0.15824846 0.19175359
v 0.06076863 0.15261192 0.19742066
v 0.10298802 0.13749795 0.20427908
v 0.10298802 0.13271967 0.20560158
v 0.10863363 0.13271967 0.20542123
v 0.11392858 0.13271967 0.20409327
v 0.12837575 0.13456403 0.19728403
v 0.13991245 0.13575099 0.19174812
v 0.17792392 0.12142833 0.17398729
v 0.17792392 0.11577353 0.17404740
v -0.16246110 0.10036131 0.16236351
v -0.16403907 0.10036131 0.16623263
v 0.17508359 0.10036131 0.17540269
v -0.16365334 0.10036131 0.16776826
v -0.16256630 0.10036131 0.17188331
v -0.16253124 0.13271967 0.17753399
v -0.15979609 0.10036131 0.18043037
v -0.16032208 0.13271967 0.18129382
v -0.15692068 0.13271967 0.18406997
v -0.15639469 0.13820404 0.18456181
v -0.15415047 0.13997535 0.18602640
v 0.00129681 0.13271967 0.20556878
v -0.00434881 0.13692577 0.20380363
v 0.00129681 0.13747360 0.20426268
v 0.04362139 0.15252061 0.19732776
v 0.05400091 0.15824846 0.19175359
v 0.05210735 0.16253369 0.18490610
v 0.16337155 0.13271967 0.18085116
v 0.14296317 0.12707705 0.19051853
v 0.17196271 0.10036131 0.17687274
v 0.12844588 0.13080228 0.19732229
v 0.05778803 0.15261192 0.19742066
v 0.05778803 0.13753447 0.20427908
v 0.10298802 0.10036131 0.20560158
v 0.10453092 0.10036131 0.20556332
v 0.10863363 0.12707705 0.20544856
v 0.00694242 0.13271967 0.20560158
v 0.11399872 0.12707705 0.20412606
v 0.11676893 0.13271967 0.20278170
v 0.13689677 0.13271967 0.19331654
v -0.15692068 0.10036131 0.18269283
v -0.15124001 0.10036131 0.18476948
v 0.00129681 0.10036131 0.20556878
v 0.00283971 0.10036131 0.20557971
v 0.00694242 0.13749795 0.20427908
v 0.12848094 0.12707705 0.19733322
v 0.12848094 0.10036131 0.19733322
v 0.00694242 0.10036131 0.20560158
v 0.10863363 0.10036131 0.20544856
v 0.11399872 0.10036131 0.20412606
v 0.12637698 0.10036131 0.19832237
f 1 2 5
f 1 5 15
f 1 15 32
f 1 32 54
f 1 54 53
f 1 53 52
f 1 52 79
f 1 79 78
f 1 78 77
f 1 77 76
f 1 76 101
f 1 101 134
f 1 134 107
f 1 107 84
f 1 84 60
f 1 60 59
f 1 59 58
f 1 58 57
f 1 57 37
f 1 37 18
f 1 18 16
f 1 16 6
f 1 6 3
f 1 3 4
f 1 4 2
f 2 4 8
f 2 8 19
f 2 19 39
f 2 39 63
f 2 63 45
f 2 45 27
f 2 27 26
f 2 26 25
f 2 25 20
f 2 20 9
f 2 9 5
f 3 6 7
f 3 7 4
f 4 7 8
f 5 9 10
f 5 10 11
f 5 11 12
f 5 12 13
f 5 13 14
f 5 14 15
f 6 16 7
f 7 17 8
f 7 16 18
f 7 18 17
f 8 17 19
f 9 20 10
f 10 21 22
f 10 22 23
f 10 23 24
f 10 24 11
f 10 20 25
f 10 25 26
f 10 26 27
f 10 27 21
f 11 24 12
f 12 24 28
f 12 28 13
f 13 28 29
f 13 29 30
f 13 30 14
f 14 30 31
f 14 31 15
f 15 31 32
f 17 33 34
f 17 34 35
f 17 35 36
f 17 36 19
f 17 18 33
f 18 37 33
f 19 38 39
f 19 36 38
f 21 40 22
f 21 27 40
f 22 40 41
f 22 41 42
f 22 42 43
f 22 43 23
f 23 43 24
f 24 43 44
f 24 44 28
f 27 45 68
f 27 68 94
f 27 94 120
f 27 120 137
f 27 137 154
f 27 154 158
f 27 158 157
f 27 157 156
f 27 156 142
f 27 142 141
f 27 141 155
f 27 155 151
f 27 151 150
f 27 150 149
f 27 149 148
f 27 148 124
f 27 124 122
f 27 122 121
f 27 121 119
f 27 119 118
f 27 118 92
f 27 92 65
f 27 65 41
f 27 41 40
f 28 44 29
f 29 46 30
f 29 44 46
f 30 46 47
f 30 47 48
f 30 48 49
f 30 49 50
f 30 50 31
f 31 50 51
f 31 51 52
f 31 52 53
f 31 53 54
f 31 54 32
f 33 55 56
f 33 56 34
f 33 37 57
f 33 57 58
f 33 58 59
f 33 59 60
f 33 60 55
f 34 56 35
f 35 61 62
f 35 62 38
f 35 38 36
f 35 56 61
f 38 62 39
f 39 62 61
f 39 61 64
f 39 64 63
f 41 65 42
f 42 65 66
f 42 66 67
f 42 67 43
f 43 67 44
f 44 67 46
f 45 63 68
f 46 67 69
f 46 69 70
f 46 70 47
f 47 70 48
f 48 70 71
f 48 71 72
f 48 72 73
f 48 73 49
f 49 73 50
f 50 73 72
f 50 72 74
f 50 74 75
f 50 75 51
f 51 75 76
f 51 76 77
f 51 77 78
f 51 78 79
f 51 79 52
f 55 80 81
f 55 81 56
f 55 60 80
f 56 82 83
f 56 83 61
f 56 81 82
f 60 84 85
f 60 85 86
f 60 86 87
f 60 87 88
f 60 88 80
f 61 83 64
f 63 64 89
f 63 89 90
f 63 90 68
f 64 83 82
f 64 82 91
f 64 91 89
f 65 92 93
f 65 93 66
f 66 93 69
f 66 69 67
f 68 90 117
f 68 117 94
f 69 93 70
f 70 95 96
f 70 96 71
f 70 93 95
f 71 96 97
f 71 97 72
f 72 97 98
f 72 98 99
f 72 99 100
f 72 100 74
f 74 100 75
f 75 100 101
f 75 101 76
f 80 88 87
f 80 87 102
f 80 102 81
f 81 102 87
f 81 87 103
f 81 103 104
f 81 104 105
f 81 105 82
f 82 105 106
f 82 106 91
f 84 107 108
f 84 108 85
f 85 108 109
f 85 109 86
f 86 110 111
f 86 111 112
f 86 112 87
f 86 109 110
f 87 112 113
f 87 113 114
f 87 114 115
f 87 115 103
f 89 91 116
f 89 116 117
f 89 117 90
f 91 106 116
f 92 118 93
f 93 118 119
f 93 119 95
f 94 117 106
f 94 106 120
f 95 119 121
f 95 121 122
f 95 122 96
f 96 123 98
f 96 98 97
f 96 122 124
f 96 124 123
f 98 123 125
f 98 125 99
f 99 125 126
f 99 126 127
f 99 127 100
f 100 127 128
f 100 128 150
f 100 150 129
f 100 129 130
f 100 130 131
f 100 131 132
f 100 132 133
f 100 133 101
f 101 133 134
f 103 115 104
f 104 106 105
f 104 115 135
f 104 135 106
f 106 136 137
f 106 137 120
f 106 117 116
f 106 135 138
f 106 138 136
f 107 134 133
f 107 133 108
f 108 133 139
f 108 139 109
f 109 139 140
f 109 140 110
f 110 140 111
f 111 141 142
f 111 142 143
f 111 143 112
f 111 140 144
f 111 144 155
f 111 155 141
f 112 143 145
f 112 145 113
f 113 145 146
f 113 146 114
f 114 146 147
f 114 147 135
f 114 135 115
f 123 124 125
f 124 148 126
f 124 126 125
f 126 148 128
f 126 128 127
f 128 148 149
f 128 149 150
f 129 150 151
f 129 151 144
f 129 144 131
f 129 131 130
f 131 144 152
f 131 152 139
f 131 139 132
f 132 139 133
f 135 147 138
f 136 138 153
f 136 153 137
f 137 153 154
f 138 147 146
f 138 146 145
f 138 145 153
f 139 152 140
f 140 152 144
f 142 156 143
f 143 156 157
f 143 157 145
f 144 151 155
f 145 157 158
f 145 158 153
f 153 158 154

