# https://github.com/mikedh/trimesh
v 0.21719432 0.03101549 0.16059575
v 0.14936981 0.06345118 0.15943258
v 0.14936981 0.01401822 0.15943258
v 0.21719432 0.01401822 0.15593457
v 0.21719432 0.06345118 0.15560345
v 0.14936981 0.06345118 0.14476133
v 0.15006027 0.01399885 0.15671568
v 0.21600594 0.01399885 0.15563741
v 0.14936981 0.01399885 0.14740181
v 0.21719432 0.01399885 0.15412614
v 0.21719432 0.06345118 0.14846311
v 0.14936981 0.06340761 0.10973033
v 0.14936981 0.01399885 0.10614742
v 0.21719432 0.01399885 0.14845461
v 0.21719432 0.03666995 0.14842914
v 0.20829800 0.05361397 0.07385879
v 0.20769385 0.05660095 0.07385879
v 0.20470628 0.05724967 0.07385879
v 0.19905645 0.05774346 0.07385879
v 0.14936981 0.06037705 0.08147459
v 0.14936981 0.04904392 0.07510686
v 0.15610181 0.01399885 0.07385879
v 0.21719432 0.02536587 0.14842914
v 0.20370377 0.01399885 0.07385879
v 0.20813866 0.04902456 0.07385879
v 0.20825152 0.05073832 0.07385879
v 0.19340661 0.05774830 0.07385879
v 0.16147280 0.05775315 0.07385879
v 0.15950763 0.05773378 0.07385879
v 0.15581632 0.05750625 0.07385879
v 0.14936981 0.05854225 0.07721246
v 0.14936981 0.05314921 0.07438519
v 0.14971504 0.05314921 0.07385879
v 0.15015986 0.04984755 0.07385879
v 0.15420968 0.05718673 0.07385879
v 0.14936981 0.05749657 0.07637192
f 1 2 3
f 1 3 4
f 1 4 10
f 1 10 14
f 1 14 23
f 1 23 15
f 1 15 11
f 1 11 5
f 1 5 2
f 2 5 11
f 2 11 6
f 2 6 12
f 2 12 20
f 2 20 31
f 2 31 36
f 2 36 32
f 2 32 21
f 2 21 13
f 2 13 9
f 2 9 3
f 3 7 8
f 3 8 4
f 3 9 7
f 4 8 10
f 6 11 12
f 7 9 13
f 7 13 22
f 7 22 24
f 7 24 14
f 7 14 10
f 7 10 8
f 11 15 16
f 11 16 17
f 11 17 18
f 11 18 19
f 11 19 12
f 12 19 20
f 13 21 22
f 14 24 25
f 14 25 26
f 14 26 16
f 14 16 23
f 15 23 16
f 16 26 25
f 16 25 24
f 16 24 22
f 16 22 34
f 16 34 33
f 16 33 35
f 16 35 30
f 16 30 29
f 16 29 28
f 16 28 27
f 16 27 19
f 16 19 18
f 16 18 17
f 19 27 20
f 20 27 28
f 20 28 29
f 20 29 30
f 20 30 31
f 21 32 33
f 21 33 34
f 21 34 22
f 30 35 31
f 31 35 36
f 32 36 33
f 33 36 35

