# https://github.com/mikedh/trimesh
v 0.02955661 -0.09894463 -0.01605825
v 0.02955661 -0.10316209 -0.01455303
v 0.02393116 -0.10316209 -0.01452662
v 0.02393116 -0.09894463 -0.01598783
v 0.00132616 -0.06945214 -0.01260769
v 0.08039207 -0.09894463 -0.01605825
v 0.08039207 -0.10316209 -0.01455303
v -0.04388385 -0.10316209 -0.00524884
v -0.00424768 -0.08199561 -0.01217637
v -0.00429929 -0.07634593 -0.01217637
v -0.00429929 -0.06945214 -0.01217637
v -0.00708621 -0.08199561 -0.01173625
v 0.10862252 -0.06945214 -0.01260769
v 0.08601752 -0.09894463 -0.01598783
v 0.08488210 -0.10316209 -0.01454423
v -0.18513934 -0.10316209 0.01835933
v -0.00708621 -0.07634593 -0.01174505
v -0.00491860 -0.06945214 -0.01208834
v 0.11300934 -0.06945214 -0.01227319
v 0.08601752 -0.10316209 -0.01452662
v 0.11424797 -0.06945214 -0.01217637
v 0.11424797 -0.07634593 -0.01217637
v 0.11419636 -0.08199561 -0.01217637
v 0.11703489 -0.08199561 -0.01173625
v 0.15383253 -0.10316209 -0.00524884
v -0.19040352 -0.10316209 0.01971491
v -0.18973259 -0.06945214 0.02160744
v -0.04388385 -0.06945214 -0.00524884
v -0.00708621 -0.06945214 -0.01174505
v 0.11641557 -0.06945214 -0.01184187
v 0.11703489 -0.07634593 -0.01174505
v 0.29508802 -0.10316209 0.01835933
v -0.19050674 -0.10316209 0.01993497
v -0.20774433 -0.06945214 0.03180067
v -0.20733145 -0.06945214 0.03102606
v -0.20702180 -0.06945214 0.03061234
v -0.19091962 -0.06945214 0.02199475
v 0.11703489 -0.06945214 -0.01174505
v 0.29839104 -0.06945214 0.02107929
v 0.30035220 -0.10316209 0.01971491
v 0.15383253 -0.06945214 -0.00524884
v -0.19190020 -0.10316209 0.02496997
v -0.20867331 -0.06945214 0.03477590
v 0.29968127 -0.06945214 0.02144899
v 0.31691889 -0.06945214 0.03061234
v 0.31769301 -0.06945214 0.03180067
v 0.30184888 -0.10316209 0.02496997
v -0.19190020 -0.10316209 0.02506680
v -0.20862171 -0.06945214 0.03626352
v 0.31857040 -0.06945214 0.03626352
v 0.30035220 -0.10316209 0.03020743
v 0.31578345 -0.06945214 0.04756587
v 0.31428680 -0.06945214 0.05321704
v -0.19040352 -0.10316209 0.03020743
v -0.20433812 -0.06945214 0.05321704
v -0.20557675 -0.06945214 0.04884222
v 0.30695824 -0.06945214 0.07385879
v 0.28796588 -0.09745962 0.07385879
v 0.27914063 -0.10316209 0.06294375
v -0.19685473 -0.06945214 0.07385879
v -0.19979647 -0.06945214 0.06585736
v -0.20227373 -0.06945214 0.05902665
v -0.16934681 -0.10316209 0.06227476
v -0.17801720 -0.09745962 0.07385879
v 0.28652083 -0.09795132 0.07385879
v 0.28378551 -0.09886544 0.07385879
v 0.27444416 -0.10316209 0.06450178
v -0.16795332 -0.10316209 0.06333986
v -0.17383683 -0.09886544 0.07385879
v 0.18841096 -0.10316209 0.07385879
v 0.27248300 -0.10316209 0.06474825
v -0.16253432 -0.10316209 0.06474825
v -0.07830745 -0.10316209 0.07385879
f 1 2 3
f 1 3 4
f 1 4 5
f 1 5 13
f 1 13 6
f 1 6 7
f 1 7 2
f 2 7 15
f 2 15 20
f 2 20 25
f 2 25 32
f 2 32 40
f 2 40 47
f 2 47 51
f 2 51 59
f 2 59 67
f 2 67 71
f 2 71 70
f 2 70 73
f 2 73 72
f 2 72 68
f 2 68 63
f 2 63 54
f 2 54 48
f 2 48 42
f 2 42 33
f 2 33 26
f 2 26 16
f 2 16 8
f 2 8 3
f 3 8 4
f 4 9 10
f 4 10 11
f 4 11 5
f 4 8 12
f 4 12 9
f 5 11 18
f 5 18 29
f 5 29 28
f 5 28 27
f 5 27 37
f 5 37 36
f 5 36 35
f 5 35 34
f 5 34 43
f 5 43 49
f 5 49 56
f 5 56 55
f 5 55 62
f 5 62 61
f 5 61 60
f 5 60 57
f 5 57 53
f 5 53 52
f 5 52 50
f 5 50 46
f 5 46 45
f 5 45 44
f 5 44 39
f 5 39 41
f 5 41 38
f 5 38 30
f 5 30 21
f 5 21 19
f 5 19 13
f 6 13 14
f 6 14 15
f 6 15 7
f 8 16 12
f 9 12 17
f 9 17 10
f 10 17 18
f 10 18 11
f 12 16 17
f 13 19 14
f 14 20 15
f 14 19 21
f 14 21 22
f 14 22 23
f 14 23 24
f 14 24 25
f 14 25 20
f 16 26 27
f 16 27 28
f 16 28 29
f 16 29 17
f 17 29 18
f 21 30 22
f 22 30 31
f 22 31 23
f 23 31 24
f 24 31 32
f 24 32 25
f 26 33 34
f 26 34 35
f 26 35 36
f 26 36 37
f 26 37 27
f 30 38 31
f 31 38 32
f 32 39 40
f 32 38 41
f 32 41 39
f 33 42 43
f 33 43 34
f 39 44 40
f 40 44 45
f 40 45 46
f 40 46 47
f 42 48 43
f 43 48 49
f 46 50 47
f 47 50 52
f 47 52 53
f 47 53 51
f 48 54 55
f 48 55 56
f 48 56 49
f 51 53 57
f 51 57 58
f 51 58 59
f 54 60 61
f 54 61 62
f 54 62 55
f 54 63 64
f 54 64 60
f 57 60 64
f 57 64 69
f 57 69 73
f 57 73 70
f 57 70 66
f 57 66 65
f 57 65 58
f 58 65 59
f 59 65 66
f 59 66 67
f 63 68 69
f 63 69 64
f 66 70 71
f 66 71 67
f 68 72 69
f 69 72 73

