# https://github.com/mikedh/trimesh
v 0.08772017 -0.20065268 0.15493589
v 0.08772017 -0.20630205 0.15493589
v 0.08717227 -0.20065268 0.14927895
v 0.08715304 -0.19500823 0.14927895
v 0.08711459 -0.18935886 0.14927895
v 0.08768172 -0.19500823 0.15493589
v 0.08711459 -0.18935886 0.16058289
v 0.08715304 -0.19500823 0.16058289
v 0.08717227 -0.20065268 0.16058289
v 0.08771056 -0.21195142 0.15493589
v 0.08717227 -0.21195142 0.14927895
v 0.08717227 -0.21195142 0.16058289
v 0.08533632 -0.22143113 0.13884990
v 0.08560547 -0.18935886 0.14363196
v 0.08295247 -0.17107480 0.14927895
v 0.08367340 -0.17107480 0.15400135
v 0.08377913 -0.17107480 0.15493589
v 0.08759521 -0.18935886 0.15493589
v 0.08287558 -0.17107480 0.16058289
v 0.08559585 -0.18935886 0.16621995
v 0.08744141 -0.21760573 0.15493589
v 0.08695119 -0.21760573 0.14927895
v 0.08611492 -0.22143113 0.14363196
v 0.08686468 -0.21760573 0.16058289
v 0.08559585 -0.21195142 0.16621995
v 0.08533632 -0.21760573 0.16621995
v 0.08473075 -0.22143113 0.13789548
v 0.08210660 -0.18935886 0.13677204
v 0.08389448 -0.18935886 0.13959555
v 0.08367340 -0.18577994 0.14000316
v 0.08099157 -0.17107480 0.14414893
v 0.08077049 -0.17107480 0.16618017
v 0.08366379 -0.18577994 0.16985868
v 0.08389448 -0.18935886 0.17025635
v 0.08642251 -0.22143113 0.15493589
v 0.08660514 -0.22143113 0.14927895
v 0.08352922 -0.22097267 0.16962007
v 0.08382719 -0.22143113 0.16795977
v 0.08444238 -0.22143113 0.16559360
v 0.08548051 -0.22143113 0.16059283
v 0.08389448 -0.21195142 0.17025635
v 0.08378875 -0.21760573 0.17007740
v 0.08033793 -0.22143113 0.13221866
v 0.07928059 -0.18935886 0.13311343
v 0.08051096 -0.17107480 0.14314480
v 0.08080894 -0.17107480 0.14371149
v 0.07871346 -0.18536092 0.13379942
v 0.07743502 -0.17107480 0.13798496
v 0.08056863 -0.17107480 0.16656791
v 0.07746386 -0.17107480 0.17187688
v 0.07871346 -0.18536092 0.17606242
v 0.07928059 -0.18935886 0.17673847
v 0.08210660 -0.18935886 0.17307985
v 0.08305821 -0.22143113 0.17007740
v 0.08340426 -0.22143113 0.16920251
v 0.08201047 -0.21760573 0.17290090
v 0.07974197 -0.22143113 0.17501852
v 0.08210660 -0.21195142 0.17307985
v 0.07770417 -0.22143113 0.12928580
v 0.07666604 -0.18935886 0.13028993
v 0.07474358 -0.17107480 0.13505210
v 0.07474358 -0.17107480 0.17482963
v 0.07666604 -0.18935886 0.17956197
v 0.07928059 -0.21195142 0.17673847
v 0.07918446 -0.21760573 0.17662911
v 0.07882880 -0.22143113 0.17622149
v 0.06878397 -0.22143113 0.12106385
v 0.07384003 -0.18935886 0.12826178
v 0.07320562 -0.18546937 0.12867934
v 0.07158114 -0.17107480 0.13246721
v 0.07160998 -0.17107480 0.17739463
v 0.07319601 -0.18546937 0.18118249
v 0.07666604 -0.21195142 0.17956197
v 0.07384003 -0.18935886 0.18159012
v 0.07646419 -0.21760573 0.17946255
v 0.07293647 -0.22124381 0.18097372
v 0.07310950 -0.22143113 0.18075500
v 0.06478526 -0.22143113 0.11829006
v 0.06629439 -0.18649967 0.12383764
v 0.06907234 -0.17107480 0.13055836
v 0.06907234 -0.17107480 0.17930348
v 0.06629439 -0.18650461 0.18601426
v 0.07384003 -0.21195142 0.18159012
v 0.06913001 -0.18935886 0.18442356
v 0.07363817 -0.21760573 0.18144098
v 0.06573687 -0.21877899 0.18589496
v 0.02301027 -0.22143113 0.21085905
v 0.02302949 -0.22143113 0.11214597
v 0.02168377 -0.21195142 0.11218574
v 0.02148192 -0.20820981 0.11231498
v 0.06343954 -0.18601656 0.12356921
v 0.06343954 -0.17107480 0.12769509
v 0.06343954 -0.17107480 0.18213692
v 0.01824258 -0.21760573 0.21297669
v 0.06913001 -0.21195142 0.18442356
v 0.06629439 -0.21501272 0.18601426
v 0.06854366 -0.21717685 0.18455280
v 0.01824258 -0.22143113 0.21328488
v 0.02178951 -0.22143113 0.11201672
v 0.01824258 -0.21195142 0.11182783
v 0.01824258 -0.20712036 0.11218574
v 0.01824258 -0.20429568 0.11295126
v 0.05778752 -0.18527219 0.12307211
v 0.05778752 -0.17107480 0.12719800
v 0.05778752 -0.17107480 0.18265390
v 0.01681995 -0.20742601 0.20991458
v 0.01852133 -0.21170001 0.21096842
v 0.01260016 -0.21195142 0.21230064
v 0.01260016 -0.21760573 0.21320535
v 0.01260016 -0.22143113 0.21338429
v 0.01824258 -0.22143113 0.11182783
v 0.01260016 -0.21195142 0.11182783
v 0.01260016 -0.20671614 0.11218574
v 0.01260016 -0.20389146 0.11264307
v 0.05213549 -0.17107480 0.12719800
v 0.05213549 -0.17107480 0.18264396
v 0.01260016 -0.20713517 0.21010347
v 0.00938005 -0.20817039 0.20929818
v 0.00727496 -0.21248383 0.20986487
v 0.00694814 -0.21760573 0.21103801
v 0.00694814 -0.22143113 0.21128657
v 0.00876486 -0.22143113 0.21198249
v 0.00694814 -0.22143113 0.11182783
v 0.00694814 -0.21760573 0.11183777
v -0.00387529 -0.22143113 0.11195707
v 0.00875525 -0.20767249 0.11231498
v 0.00859184 -0.19720685 0.11787250
v 0.04647386 -0.17107480 0.12770504
v 0.04649308 -0.17107480 0.18214686
v 0.01260016 -0.20431047 0.20776712
v 0.00946656 -0.20254566 0.20388978
v 0.00408368 -0.21471695 0.20868178
v 0.00402600 -0.21760573 0.20885080
v 0.00400678 -0.22143113 0.20893033
v -0.00593232 -0.22143113 0.11250388
v -0.00671092 -0.22060787 0.11301091
v -0.01047893 -0.22143113 0.11511859
v 0.00712116 -0.19543711 0.12156094
v 0.00940888 -0.19210467 0.12363880
v 0.04084106 -0.17107480 0.13054842
v 0.04642579 -0.17107480 0.18212698
v 0.01260016 -0.19599910 0.19932646
v 0.01260016 -0.19866110 0.20214996
v 0.00941850 -0.19701460 0.19823285
v 0.00809200 -0.19598430 0.19447481
v 0.00403562 -0.19742869 0.18781374
v -0.00992142 -0.22143113 0.11475075
v 0.00399717 -0.19723150 0.18318082
v 0.00399717 -0.19723150 0.12668102
v 0.00403562 -0.19742869 0.12324112
v 0.00640985 -0.19441175 0.12668102
v 0.02702821 -0.17107480 0.14927895
v 0.02911407 -0.17107480 0.14369160
v 0.02941205 -0.17107480 0.14312492
v 0.03253604 -0.17107480 0.13798496
v 0.03519864 -0.17107480 0.13509186
v 0.03838031 -0.17107480 0.13244732
v 0.04084106 -0.17107480 0.17938301
v 0.03814962 -0.17107480 0.17730516
v 0.03552546 -0.17107480 0.17494893
v 0.01282125 -0.19311526 0.19422627
v 0.00940888 -0.19210467 0.18657101
v 0.00676551 -0.19492444 0.18907637
v 0.03253604 -0.17107480 0.17187688
v 0.02937360 -0.17107480 0.16658779
v 0.00640985 -0.19441175 0.18318082
v 0.02618232 -0.17107480 0.15493589
v 0.02915252 -0.17107480 0.16618017
v 0.02902756 -0.17107480 0.16585209
v 0.02703782 -0.17107480 0.16058289
v 0.02629767 -0.17107480 0.15590025
f 1 2 11
f 1 11 3
f 1 3 4
f 1 4 5
f 1 5 6
f 1 6 7
f 1 7 8
f 1 8 9
f 1 9 12
f 1 12 2
f 2 10 11
f 2 12 10
f 3 11 13
f 3 13 4
f 4 13 5
f 5 13 14
f 5 14 15
f 5 15 16
f 5 16 17
f 5 17 18
f 5 18 6
f 6 18 7
f 7 18 17
f 7 17 19
f 7 19 20
f 7 20 8
f 8 20 9
f 9 20 25
f 9 25 12
f 10 21 22
f 10 22 11
f 10 12 21
f 11 22 23
f 11 23 13
f 12 24 21
f 12 25 26
f 12 26 24
f 13 27 28
f 13 28 29
f 13 29 14
f 13 23 36
f 13 36 35
f 13 35 40
f 13 40 39
f 13 39 38
f 13 38 55
f 13 55 54
f 13 54 57
f 13 57 66
f 13 66 77
f 13 77 87
f 13 87 98
f 13 98 110
f 13 110 122
f 13 122 121
f 13 121 134
f 13 134 137
f 13 137 147
f 13 147 135
f 13 135 125
f 13 125 123
f 13 123 111
f 13 111 99
f 13 99 88
f 13 88 78
f 13 78 67
f 13 67 59
f 13 59 43
f 13 43 27
f 14 30 15
f 14 29 30
f 15 30 31
f 15 31 46
f 15 46 45
f 15 45 48
f 15 48 61
f 15 61 70
f 15 70 80
f 15 80 92
f 15 92 104
f 15 104 115
f 15 115 128
f 15 128 140
f 15 140 157
f 15 157 156
f 15 156 155
f 15 155 154
f 15 154 153
f 15 153 152
f 15 152 167
f 15 167 171
f 15 171 170
f 15 170 169
f 15 169 168
f 15 168 165
f 15 165 164
f 15 164 160
f 15 160 159
f 15 159 158
f 15 158 141
f 15 141 129
f 15 129 116
f 15 116 105
f 15 105 93
f 15 93 81
f 15 81 71
f 15 71 62
f 15 62 50
f 15 50 49
f 15 49 32
f 15 32 19
f 15 19 17
f 15 17 16
f 19 32 33
f 19 33 20
f 20 33 34
f 20 34 41
f 20 41 25
f 21 35 36
f 21 36 22
f 21 24 35
f 22 36 23
f 24 26 37
f 24 37 38
f 24 38 39
f 24 39 40
f 24 40 35
f 25 41 42
f 25 42 26
f 26 42 37
f 27 43 44
f 27 44 28
f 28 44 30
f 28 30 29
f 30 45 46
f 30 46 31
f 30 44 47
f 30 47 48
f 30 48 45
f 32 49 33
f 33 49 50
f 33 50 51
f 33 51 52
f 33 52 53
f 33 53 34
f 34 53 58
f 34 58 41
f 37 54 55
f 37 55 38
f 37 42 56
f 37 56 57
f 37 57 54
f 41 58 56
f 41 56 42
f 43 59 44
f 44 59 60
f 44 60 47
f 47 60 61
f 47 61 48
f 50 62 51
f 51 62 63
f 51 63 52
f 52 63 73
f 52 73 64
f 52 64 58
f 52 58 53
f 56 58 65
f 56 65 57
f 57 65 66
f 58 64 65
f 59 67 60
f 60 67 68
f 60 68 69
f 60 69 61
f 61 69 70
f 62 71 72
f 62 72 63
f 63 72 74
f 63 74 83
f 63 83 73
f 64 73 65
f 65 73 75
f 65 75 66
f 66 75 76
f 66 76 77
f 67 78 68
f 68 78 79
f 68 79 69
f 69 79 80
f 69 80 70
f 71 81 72
f 72 82 74
f 72 81 82
f 73 83 75
f 74 82 84
f 74 84 95
f 74 95 83
f 75 83 85
f 75 85 76
f 76 85 86
f 76 86 87
f 76 87 77
f 78 88 89
f 78 89 90
f 78 90 79
f 79 91 92
f 79 92 80
f 79 90 91
f 81 93 82
f 82 93 94
f 82 94 87
f 82 87 84
f 83 95 96
f 83 96 97
f 83 97 85
f 84 87 95
f 85 97 87
f 85 87 86
f 87 94 98
f 87 97 96
f 87 96 95
f 88 99 89
f 89 99 100
f 89 100 90
f 90 100 101
f 90 101 91
f 91 101 102
f 91 102 103
f 91 103 92
f 92 103 102
f 92 102 104
f 93 105 106
f 93 106 107
f 93 107 94
f 94 107 108
f 94 108 109
f 94 109 98
f 98 109 110
f 99 111 100
f 100 111 123
f 100 123 112
f 100 112 113
f 100 113 101
f 101 113 114
f 101 114 102
f 102 114 104
f 104 114 115
f 105 116 117
f 105 117 106
f 106 117 108
f 106 108 107
f 108 117 118
f 108 118 119
f 108 119 120
f 108 120 109
f 109 120 121
f 109 121 122
f 109 122 110
f 112 123 124
f 112 124 125
f 112 125 113
f 113 126 114
f 113 125 126
f 114 126 127
f 114 127 128
f 114 128 115
f 116 129 130
f 116 130 117
f 117 130 118
f 118 130 131
f 118 131 132
f 118 132 119
f 119 132 120
f 120 132 133
f 120 133 121
f 121 133 134
f 123 125 124
f 125 135 126
f 126 135 136
f 126 136 127
f 127 136 137
f 127 137 138
f 127 138 139
f 127 139 140
f 127 140 128
f 129 141 142
f 129 142 143
f 129 143 130
f 130 143 131
f 131 143 144
f 131 144 132
f 132 144 145
f 132 145 146
f 132 146 137
f 132 137 133
f 133 137 134
f 135 147 136
f 136 147 137
f 137 146 148
f 137 148 149
f 137 149 150
f 137 150 138
f 138 150 139
f 139 150 151
f 139 151 152
f 139 152 153
f 139 153 154
f 139 154 155
f 139 155 156
f 139 156 157
f 139 157 140
f 141 158 142
f 142 144 143
f 142 158 159
f 142 159 160
f 142 160 144
f 144 160 161
f 144 161 145
f 145 162 163
f 145 163 146
f 145 161 164
f 145 164 165
f 145 165 162
f 146 163 166
f 146 166 148
f 148 166 167
f 148 167 149
f 149 167 151
f 149 151 150
f 151 167 152
f 160 164 161
f 162 165 168
f 162 168 169
f 162 169 170
f 162 170 163
f 163 170 171
f 163 171 166
f 166 171 167

