# https://github.com/mikedh/trimesh
v 0.23044164 0.04796698 0.07385879
v 0.23062430 0.04231908 0.07385879
v 0.23050518 0.04231908 0.11536944
v 0.23036223 0.04796698 0.11536944
v 0.23099759 0.05361488 0.07385879
v 0.23313398 0.03824005 0.07385879
v 0.23050518 0.04231908 0.12101984
v 0.23036223 0.04796698 0.12101984
v 0.23097376 0.05361488 0.11536944
v 0.23350727 0.05727318 0.07385879
v 0.27274873 0.01399402 0.12101984
v 0.26933366 0.01399402 0.13380343
v 0.26822178 0.01399402 0.13797104
v 0.26612508 0.01399402 0.14738598
v 0.23321342 0.03816160 0.11536944
v 0.23321342 0.03816160 0.12101984
v 0.28539239 0.01399402 0.07385879
v 0.28487617 0.01399402 0.07576625
v 0.23056872 0.04231908 0.12667024
v 0.23041781 0.04796698 0.12667024
v 0.23097376 0.05361488 0.12101984
v 0.23368993 0.05723753 0.12101984
v 0.26031154 0.08684621 0.07582383
v 0.26031154 0.08684621 0.07385879
v 0.27451185 0.01399402 0.14739318
v 0.26611715 0.01400828 0.14739318
v 0.23859808 0.04236901 0.14739318
v 0.23415057 0.03860374 0.13109699
v 0.23327694 0.03816160 0.12667024
v 0.31149778 0.01399402 0.07385879
v 0.23205386 0.04796698 0.13797104
v 0.23052108 0.04796698 0.13232064
v 0.23266542 0.04189121 0.13271653
v 0.23107701 0.05361488 0.12667024
v 0.23374552 0.05723753 0.12667024
v 0.26035125 0.08684621 0.08147423
v 0.28933164 0.08684621 0.07385879
v 0.29134096 0.01399402 0.14739318
v 0.23718442 0.04796698 0.14739318
v 0.23499242 0.04438713 0.14169959
v 0.23386464 0.04333885 0.13797104
v 0.31149778 0.05361488 0.07385879
v 0.31098156 0.01399402 0.07578784
v 0.23847896 0.05309431 0.14739318
v 0.23861398 0.05352931 0.14739318
v 0.23507184 0.05134003 0.14162761
v 0.23397584 0.05230275 0.13797104
v 0.23291956 0.05393579 0.13247900
v 0.23446825 0.05697367 0.13070110
v 0.26186023 0.08684621 0.08726140
v 0.28933164 0.08684621 0.08147423
v 0.30624810 0.07001661 0.07385879
v 0.29213517 0.01399402 0.14599677
v 0.29134096 0.02861295 0.14739318
v 0.30387346 0.05361488 0.10231234
v 0.30386551 0.01399402 0.10234833
v 0.30971878 0.01399402 0.08050251
v 0.31141836 0.05926278 0.07385879
v 0.30970288 0.05926278 0.08039454
v 0.29884615 0.06491068 0.12101984
v 0.29801225 0.06491068 0.12413656
v 0.29802019 0.05926278 0.12415096
v 0.25000281 0.05916295 0.14739318
v 0.26195554 0.08684621 0.08754931
v 0.28781471 0.08684621 0.08745574
v 0.29838552 0.06827660 0.12101984
v 0.30894839 0.06716414 0.07385879
v 0.29291349 0.01399402 0.14320397
v 0.29213517 0.03101616 0.14599677
v 0.29207956 0.05926278 0.14599677
v 0.29130920 0.03426798 0.14739318
v 0.29801225 0.01399402 0.12418694
v 0.31029059 0.06436158 0.07385879
v 0.30953610 0.06270714 0.07976832
v 0.29798842 0.06781308 0.12402859
v 0.29429539 0.06491068 0.13797104
v 0.29292142 0.05926278 0.14316797
v 0.29581232 0.01399402 0.13239262
v 0.25024108 0.05923426 0.14739318
v 0.26973871 0.06771324 0.14069908
v 0.26686369 0.08684621 0.09094675
v 0.25557015 0.06081738 0.14739318
v 0.28470939 0.08684621 0.08985986
v 0.28945871 0.06878292 0.14268571
v 0.29269905 0.06826234 0.14177157
v 0.29327881 0.06880431 0.13797104
v 0.30944080 0.06614437 0.07385879
v 0.29291349 0.06491068 0.14271450
v 0.28994317 0.06531003 0.14551451
v 0.28848978 0.06379822 0.14739318
v 0.29018144 0.05926278 0.14739318
v 0.27349527 0.06825520 0.14143326
v 0.27815722 0.06873300 0.14211707
v 0.28381193 0.06898972 0.14280088
v 0.27050113 0.08684621 0.09105472
v 0.27192276 0.06414765 0.14739318
v 0.28381193 0.08684621 0.09027734
v 0.27815722 0.08684621 0.09108351
v 0.28381193 0.06687889 0.14562968
v 0.28381193 0.06453986 0.14739318
v 0.27415446 0.06453986 0.14739318
v 0.27251047 0.08684621 0.09108351
f 1 2 3
f 1 3 4
f 1 4 5
f 1 5 10
f 1 10 24
f 1 24 37
f 1 37 52
f 1 52 67
f 1 67 87
f 1 87 73
f 1 73 58
f 1 58 42
f 1 42 30
f 1 30 17
f 1 17 6
f 1 6 2
f 2 6 3
f 3 7 8
f 3 8 4
f 3 6 7
f 4 8 21
f 4 21 9
f 4 9 5
f 5 9 10
f 6 11 12
f 6 12 13
f 6 13 14
f 6 14 15
f 6 15 16
f 6 16 7
f 6 17 18
f 6 18 11
f 7 19 20
f 7 20 8
f 7 16 29
f 7 29 19
f 8 20 21
f 9 21 10
f 10 21 22
f 10 22 23
f 10 23 24
f 11 18 17
f 11 17 30
f 11 30 43
f 11 43 57
f 11 57 56
f 11 56 72
f 11 72 78
f 11 78 68
f 11 68 53
f 11 53 38
f 11 38 25
f 11 25 14
f 11 14 13
f 11 13 12
f 14 25 26
f 14 26 27
f 14 27 28
f 14 28 29
f 14 29 16
f 14 16 15
f 19 31 32
f 19 32 20
f 19 29 28
f 19 28 33
f 19 33 31
f 20 32 34
f 20 34 21
f 21 34 35
f 21 35 22
f 22 35 36
f 22 36 23
f 23 36 50
f 23 50 64
f 23 64 81
f 23 81 95
f 23 95 102
f 23 102 98
f 23 98 97
f 23 97 83
f 23 83 65
f 23 65 51
f 23 51 37
f 23 37 24
f 25 38 54
f 25 54 71
f 25 71 91
f 25 91 90
f 25 90 100
f 25 100 101
f 25 101 96
f 25 96 82
f 25 82 79
f 25 79 63
f 25 63 45
f 25 45 44
f 25 44 39
f 25 39 27
f 25 27 26
f 27 39 31
f 27 31 40
f 27 40 41
f 27 41 28
f 28 41 33
f 30 42 43
f 31 34 32
f 31 33 41
f 31 41 40
f 31 39 44
f 31 44 45
f 31 45 46
f 31 46 47
f 31 47 48
f 31 48 34
f 34 48 49
f 34 49 35
f 35 49 50
f 35 50 36
f 37 51 52
f 38 53 69
f 38 69 54
f 42 55 56
f 42 56 57
f 42 57 43
f 42 58 59
f 42 59 60
f 42 60 61
f 42 61 62
f 42 62 55
f 45 49 48
f 45 48 47
f 45 47 46
f 45 63 64
f 45 64 49
f 49 64 50
f 51 65 66
f 51 66 67
f 51 67 52
f 53 68 69
f 54 70 71
f 54 69 70
f 55 62 56
f 56 62 72
f 58 73 74
f 58 74 75
f 58 75 59
f 59 75 60
f 60 75 61
f 61 75 76
f 61 76 77
f 61 77 62
f 62 78 72
f 62 77 78
f 63 79 64
f 64 80 81
f 64 79 82
f 64 82 80
f 65 83 84
f 65 84 85
f 65 85 86
f 65 86 66
f 66 75 67
f 66 86 75
f 67 75 87
f 68 77 69
f 68 78 77
f 69 77 70
f 70 77 88
f 70 88 85
f 70 85 89
f 70 89 90
f 70 90 91
f 70 91 71
f 73 87 75
f 73 75 74
f 75 86 85
f 75 85 88
f 75 88 76
f 76 88 77
f 80 92 81
f 80 82 92
f 81 92 93
f 81 93 94
f 81 94 95
f 82 96 92
f 83 97 84
f 84 97 98
f 84 98 94
f 84 94 99
f 84 99 90
f 84 90 89
f 84 89 85
f 90 99 100
f 92 96 93
f 93 96 101
f 93 101 94
f 94 98 102
f 94 102 95
f 94 101 99
f 99 101 100

