# https://github.com/mikedh/trimesh
v 0.10072573 0.08752060 0.07385879
v 0.10072573 0.10035522 0.07385879
v 0.10101240 0.08684753 0.07385879
v 0.09803543 0.08684753 0.07661859
v 0.09814569 0.10035522 0.07651542
v 0.19656208 0.10035522 0.07385879
v 0.28931121 0.08684753 0.07385879
v 0.09527898 0.08684753 0.07981686
v 0.09737388 0.10035522 0.07743105
v 0.19841442 0.10035522 0.07624459
v 0.28379831 0.09874197 0.07385879
v 0.28931121 0.08948295 0.07385879
v 0.28931121 0.08684753 0.08148048
v 0.09338254 0.08684753 0.08251218
v 0.09532308 0.10035522 0.07988134
v 0.20002418 0.10035522 0.08131283
v 0.28379831 0.09899850 0.09277760
v 0.28794401 0.09733500 0.07385879
v 0.28931121 0.08752060 0.08148048
v 0.28928915 0.09317095 0.07385879
v 0.28928915 0.09317095 0.08148048
v 0.28915686 0.08684753 0.08211240
v 0.28893632 0.09317095 0.08712904
v 0.28765734 0.09452239 0.09842617
v 0.28706194 0.09524042 0.10284959
v 0.09362510 0.10035522 0.08270562
v 0.09486000 0.10035522 0.08064222
v 0.09111122 0.08684753 0.08645844
v 0.20004624 0.10035522 0.08148048
v 0.27815308 0.09904478 0.10973619
v 0.27250787 0.09904478 0.13233044
v 0.27815308 0.09893767 0.11538475
v 0.28379831 0.09865866 0.09842617
v 0.28820863 0.09747384 0.09277760
v 0.28816452 0.09742757 0.08712904
v 0.19411435 0.10035522 0.13181459
v 0.28882607 0.09461627 0.07385879
v 0.28781170 0.08684753 0.08745145
v 0.28765734 0.09713401 0.09842617
v 0.28126238 0.09543876 0.12494088
v 0.27043502 0.08684753 0.15313211
v 0.28706194 0.09655746 0.10284959
v 0.09294150 0.10035522 0.08390498
v 0.08928093 0.08684753 0.08996622
v 0.08919273 0.10035522 0.09072710
v 0.09111122 0.10035522 0.08712904
v 0.26686266 0.09904214 0.14927613
v 0.27250787 0.09886495 0.13797900
v 0.18183160 0.10035522 0.17121267
v 0.28247521 0.09741302 0.11538475
v 0.27815308 0.09848279 0.12103331
v 0.27665357 0.09734029 0.13797900
v 0.28179160 0.09695813 0.12103331
v 0.28126238 0.09640407 0.12494088
v 0.27548484 0.09567282 0.14694190
v 0.27109657 0.09317095 0.15340293
v 0.27001604 0.08684753 0.15333845
v 0.27594792 0.09675317 0.14362757
v 0.08773733 0.08684753 0.09325477
v 0.06407593 0.10035522 0.15559530
v 0.26686266 0.09751748 0.15371244
v 0.27100836 0.09700970 0.15314501
v 0.27272839 0.09735351 0.14900531
v 0.27250787 0.09827782 0.14362757
v 0.17898693 0.10035522 0.17327607
v 0.17790641 0.10035522 0.17403695
v 0.17587766 0.10035522 0.17502997
v 0.16059589 0.10035522 0.18222608
v 0.15256909 0.10035522 0.18600468
v 0.14092583 0.10035522 0.19148560
v 0.12639382 0.10035522 0.19832061
v 0.11402286 0.10035522 0.20412393
v 0.27548484 0.09622820 0.14694190
v 0.26686266 0.09317095 0.15510524
v 0.26686266 0.08684753 0.15487311
v 0.08634807 0.08684753 0.09752343
v 0.06407593 0.10031555 0.15562109
v 0.06407593 0.10035522 0.20560700
v 0.10866431 0.10035522 0.20545225
v 0.11402286 0.08684753 0.20412393
v 0.08610550 0.08684753 0.09842617
v 0.06407593 0.08684753 0.19410354
v 0.06407593 0.08684753 0.20560700
v 0.10301910 0.10035522 0.20560700
v 0.10866431 0.08684753 0.20545225
v 0.10301910 0.08684753 0.20560700
f 1 2 6
f 1 6 11
f 1 11 18
f 1 18 37
f 1 37 20
f 1 20 12
f 1 12 7
f 1 7 3
f 1 3 4
f 1 4 2
f 2 4 5
f 2 5 9
f 2 9 15
f 2 15 27
f 2 27 26
f 2 26 43
f 2 43 46
f 2 46 45
f 2 45 60
f 2 60 78
f 2 78 84
f 2 84 79
f 2 79 72
f 2 72 71
f 2 71 70
f 2 70 69
f 2 69 68
f 2 68 67
f 2 67 66
f 2 66 65
f 2 65 49
f 2 49 36
f 2 36 29
f 2 29 16
f 2 16 10
f 2 10 6
f 3 7 13
f 3 13 22
f 3 22 38
f 3 38 41
f 3 41 57
f 3 57 75
f 3 75 80
f 3 80 85
f 3 85 86
f 3 86 83
f 3 83 82
f 3 82 81
f 3 81 76
f 3 76 59
f 3 59 44
f 3 44 28
f 3 28 14
f 3 14 8
f 3 8 4
f 4 8 5
f 5 8 9
f 6 10 11
f 7 12 19
f 7 19 13
f 8 14 15
f 8 15 9
f 10 16 17
f 10 17 11
f 11 17 18
f 12 20 21
f 12 21 19
f 13 19 23
f 13 23 24
f 13 24 25
f 13 25 22
f 14 26 27
f 14 27 15
f 14 28 26
f 16 29 17
f 17 30 31
f 17 31 32
f 17 32 33
f 17 33 34
f 17 34 35
f 17 35 18
f 17 29 36
f 17 36 30
f 18 35 37
f 19 21 23
f 20 37 35
f 20 35 34
f 20 34 21
f 21 34 23
f 22 25 38
f 23 34 39
f 23 39 24
f 24 39 42
f 24 42 25
f 25 40 41
f 25 41 38
f 25 42 54
f 25 54 40
f 26 28 43
f 28 44 45
f 28 45 46
f 28 46 43
f 30 36 31
f 31 47 48
f 31 48 32
f 31 36 49
f 31 49 47
f 32 48 33
f 33 50 39
f 33 39 34
f 33 48 51
f 33 51 52
f 33 52 50
f 39 50 52
f 39 52 53
f 39 53 42
f 40 54 73
f 40 73 55
f 40 55 41
f 41 56 57
f 41 55 56
f 42 53 58
f 42 58 54
f 44 59 45
f 45 59 60
f 47 61 62
f 47 62 63
f 47 63 64
f 47 64 48
f 47 49 65
f 47 65 66
f 47 66 67
f 47 67 68
f 47 68 69
f 47 69 70
f 47 70 71
f 47 71 72
f 47 72 61
f 48 64 52
f 48 52 51
f 52 64 63
f 52 63 58
f 52 58 53
f 54 58 73
f 55 73 56
f 56 62 74
f 56 74 75
f 56 75 57
f 56 73 62
f 58 63 73
f 59 76 77
f 59 77 60
f 60 77 82
f 60 82 83
f 60 83 78
f 61 72 62
f 62 72 74
f 62 73 63
f 72 79 85
f 72 85 80
f 72 80 74
f 74 80 75
f 76 81 77
f 77 81 82
f 78 83 86
f 78 86 84
f 79 84 86
f 79 86 85

