# https://github.com/mikedh/trimesh
v 0.21719432 0.08684392 0.15560121
v 0.14936981 0.08684392 0.18750611
v 0.21719432 0.06345118 0.15560121
v 0.21719432 0.08684392 0.14831470
v 0.14936981 0.08186767 0.18750611
v 0.14936981 0.08684392 0.07385879
v 0.21719432 0.06345118 0.14845932
v 0.15154077 0.07838223 0.18623793
v 0.14936981 0.07720973 0.18662729
v 0.14936981 0.07457161 0.18493637
v 0.14936981 0.07227241 0.18320096
v 0.14936981 0.07166326 0.18253349
v 0.14936981 0.06794423 0.17763874
v 0.14936981 0.06345118 0.15943915
v 0.19154768 0.08684392 0.09203613
v 0.17943142 0.08684392 0.07385879
v 0.14936981 0.07679295 0.07385879
v 0.14936981 0.06345118 0.14476600
v 0.14936981 0.07420978 0.08147904
v 0.14936981 0.07580593 0.07602806
v 0.16839733 0.07924557 0.07385879
v 0.17082721 0.07962343 0.07385879
v 0.17518243 0.08123562 0.07385879
v 0.18079243 0.08294857 0.07690689
v 0.18569204 0.08319360 0.08301421
v 0.19056510 0.08482640 0.08997811
v 0.18935016 0.08684392 0.08774210
v 0.17937831 0.08668820 0.07385879
v 0.18146960 0.08684392 0.07615043
v 0.16006531 0.07814407 0.07385879
v 0.17635754 0.08207148 0.07385879
v 0.18460324 0.08684392 0.08002173
f 1 2 5
f 1 5 3
f 1 3 7
f 1 7 4
f 1 4 15
f 1 15 27
f 1 27 32
f 1 32 29
f 1 29 16
f 1 16 6
f 1 6 2
f 2 6 17
f 2 17 20
f 2 20 19
f 2 19 18
f 2 18 14
f 2 14 13
f 2 13 12
f 2 12 11
f 2 11 10
f 2 10 9
f 2 9 5
f 3 5 8
f 3 8 9
f 3 9 10
f 3 10 11
f 3 11 12
f 3 12 13
f 3 13 14
f 3 14 18
f 3 18 7
f 4 7 15
f 5 9 8
f 6 16 28
f 6 28 31
f 6 31 23
f 6 23 22
f 6 22 21
f 6 21 30
f 6 30 17
f 7 18 19
f 7 19 20
f 7 20 21
f 7 21 22
f 7 22 23
f 7 23 24
f 7 24 25
f 7 25 26
f 7 26 15
f 15 26 27
f 16 29 28
f 17 30 20
f 20 30 21
f 23 31 24
f 24 31 28
f 24 28 29
f 24 29 32
f 24 32 25
f 25 32 26
f 26 32 27

