# https://github.com/mikedh/trimesh
v 0.14316072 0.01399401 0.20578291
v 0.14271996 0.01399401 0.21143346
v 0.14498128 0.00988059 0.20578291
v 0.14157014 0.01399401 0.18608352
v 0.14549869 0.00605976 0.21450735
v 0.14475131 0.00914052 0.21143346
v 0.14120603 0.01399401 0.21575370
v 0.14576698 0.00705800 0.20578291
v 0.14574782 0.00704079 0.20250560
v 0.14607360 0.00275526 0.20216980
v 0.15166941 -0.13405460 0.18608352
v -0.04410692 0.01399401 0.18608352
v 0.14285410 0.00812507 0.21594743
v 0.14569033 0.00275526 0.21483992
v 0.14603528 0.00275526 0.21143346
v 0.14641855 0.00275526 0.20578291
v 0.14114854 0.01399401 0.21578276
v 0.15166941 -0.13574127 0.18608352
v -0.04410692 -0.05085686 0.18608352
v 0.02955833 0.00275526 0.21882759
v 0.02955833 0.00840044 0.21858866
v -0.00238755 0.01399401 0.20387465
v 0.14254748 0.00275526 0.21676434
v 0.13689419 0.01399401 0.21768134
v 0.14254748 -0.00288993 0.21675142
v 0.14567117 -0.00288993 0.21482701
v 0.15153526 -0.13615433 0.18608352
v 0.14549869 -0.00617723 0.21449121
v 0.15143944 -0.13608549 0.18620944
v -0.04408775 -0.06505589 0.18608352
v -0.00365235 -0.13283262 0.20400057
v 0.02955833 -0.00288993 0.21882436
v 0.03521162 -0.00288993 0.21905684
v 0.03521162 0.00275526 0.21905684
v 0.03521162 0.00840044 0.21904070
v 0.03513497 0.01399401 0.21893092
v 0.02923255 0.01399401 0.21689027
v 0.13689419 0.00840044 0.21810432
v 0.13689419 -0.00288993 0.21810432
v 0.13124091 0.01399401 0.21810432
v 0.14273912 -0.00824254 0.21581505
v 0.13689419 -0.00855234 0.21795257
v 0.13689419 -0.01419753 0.21753927
v 0.14820078 -0.13699768 0.18697469
v 0.14820078 -0.13753121 0.18608352
v 0.14107188 -0.01419753 0.21561486
v 0.13990289 -0.13587896 0.19175020
v 0.11307372 -0.13682556 0.20369383
v -0.04406859 -0.07070109 0.18608352
v -0.02996411 -0.13587896 0.19175020
v -0.00313493 -0.13682556 0.20369383
v 0.00129188 -0.13283262 0.20532441
v 0.02955833 -0.00855234 0.21857574
v 0.03521162 -0.01419753 0.21893092
v 0.03521162 -0.00855234 0.21903747
v 0.04084575 -0.01419753 0.21905684
v 0.04084575 -0.00855234 0.21906653
v 0.04084575 0.00840044 0.21906653
v 0.04084575 0.01399401 0.21906007
v 0.03521162 0.01399401 0.21893414
v 0.06909304 0.01399401 0.21906007
v 0.08038045 0.00275526 0.21905039
v 0.08038045 -0.00288993 0.21905039
v 0.13124091 -0.01419753 0.21810432
v 0.13124091 -0.01984272 0.21779758
v 0.10864690 -0.13283262 0.20532441
v 0.13124091 -0.13777216 0.19378763
v 0.12461027 -0.13691162 0.19817567
v 0.11993432 -0.13772053 0.19927027
v 0.07233170 -0.15916539 0.18608352
v 0.10864690 -0.13751400 0.20417171
v 0.05995195 -0.15820156 0.19156939
v 0.06909304 -0.15916539 0.18724914
v 0.07281079 -0.15873510 0.18654202
v -0.04171145 -0.13405460 0.18608352
v -0.04150065 -0.13608549 0.18620944
v 0.00129188 -0.13751400 0.20417171
v -0.03826199 -0.13699768 0.18697469
v -0.01467148 -0.13691162 0.19817567
v -0.00999553 -0.13772053 0.19927027
v 0.03708966 -0.15876952 0.18660660
v 0.04084575 -0.15918260 0.18728144
v 0.04994850 -0.15821877 0.19157584
v 0.00694517 -0.13283262 0.20560533
v 0.04084575 -0.01984272 0.21893414
v 0.04649904 -0.01984272 0.21904070
v 0.05215233 -0.01984272 0.21905684
v 0.04649904 -0.01419753 0.21906653
v 0.04644155 0.01399401 0.21906653
v 0.06343975 0.01399401 0.21906653
v 0.06909304 0.00840044 0.21906653
v 0.07474633 0.00275526 0.21906653
v 0.07474633 -0.00288993 0.21906653
v 0.06909304 -0.01419753 0.21906007
v 0.12558761 -0.01984272 0.21810432
v 0.11993432 -0.02550513 0.21777498
v 0.10299362 -0.13283262 0.20560533
v 0.06907387 -0.15993988 0.18608352
v 0.10299362 -0.13761726 0.20428149
v 0.05023596 -0.15293501 0.19762353
v 0.06343975 -0.15493148 0.19427519
v 0.05619587 -0.15835647 0.19174697
v 0.05782478 -0.16183308 0.18608352
v 0.06343975 -0.16111021 0.18608352
v 0.06677423 -0.16047340 0.18608352
v -0.04159647 -0.13615433 0.18608352
v 0.04895199 -0.15293501 0.19762353
v 0.00694517 -0.13761726 0.20428149
v -0.03956512 -0.13716978 0.18608352
v 0.03680221 -0.15892443 0.18608352
v 0.04086491 -0.15997430 0.18608352
v 0.04649904 -0.16111021 0.18608352
v 0.04835792 -0.16140280 0.18608352
v 0.05209484 -0.16181587 0.18608352
v 0.05370459 -0.15835647 0.19174697
v 0.05215233 -0.02550513 0.21881145
v 0.04649904 -0.02550513 0.21857897
v 0.05215233 -0.13765168 0.20428149
v 0.05778646 -0.01984272 0.21905684
v 0.06343975 -0.01419753 0.21906653
v 0.06909304 -0.00855234 0.21906653
v 0.06343975 -0.01984272 0.21904070
v 0.11428103 -0.02550513 0.21792674
v 0.05778646 -0.02550513 0.21881145
v 0.05778646 -0.13765168 0.20428149
f 1 2 3
f 1 3 4
f 1 4 12
f 1 12 22
f 1 22 37
f 1 37 36
f 1 36 60
f 1 60 59
f 1 59 89
f 1 89 90
f 1 90 61
f 1 61 40
f 1 40 24
f 1 24 17
f 1 17 7
f 1 7 2
f 2 5 6
f 2 6 3
f 2 7 5
f 3 5 8
f 3 8 9
f 3 9 4
f 3 6 5
f 4 9 10
f 4 10 11
f 4 11 18
f 4 18 27
f 4 27 45
f 4 45 70
f 4 70 98
f 4 98 105
f 4 105 104
f 4 104 103
f 4 103 114
f 4 114 113
f 4 113 112
f 4 112 111
f 4 111 110
f 4 110 109
f 4 109 106
f 4 106 75
f 4 75 49
f 4 49 30
f 4 30 19
f 4 19 12
f 5 13 14
f 5 14 15
f 5 15 16
f 5 16 8
f 5 7 13
f 7 17 13
f 8 16 9
f 9 16 10
f 10 16 11
f 11 16 15
f 11 15 14
f 11 14 18
f 12 19 20
f 12 20 21
f 12 21 22
f 13 23 14
f 13 17 24
f 13 24 23
f 14 23 25
f 14 25 26
f 14 26 18
f 18 26 28
f 18 28 29
f 18 29 27
f 19 30 31
f 19 31 32
f 19 32 20
f 20 32 33
f 20 33 34
f 20 34 35
f 20 35 36
f 20 36 21
f 21 36 37
f 21 37 22
f 23 24 38
f 23 38 39
f 23 39 25
f 24 40 38
f 25 41 28
f 25 28 26
f 25 39 42
f 25 42 43
f 25 43 41
f 27 29 44
f 27 44 45
f 28 41 29
f 29 41 46
f 29 46 47
f 29 47 48
f 29 48 44
f 30 49 31
f 31 49 50
f 31 50 51
f 31 51 52
f 31 52 53
f 31 53 32
f 32 53 54
f 32 54 55
f 32 55 33
f 33 55 56
f 33 56 57
f 33 57 58
f 33 58 34
f 34 58 59
f 34 59 35
f 35 60 36
f 35 59 60
f 38 40 61
f 38 61 62
f 38 62 63
f 38 63 39
f 39 63 64
f 39 64 42
f 41 43 46
f 42 64 65
f 42 65 43
f 43 47 46
f 43 65 66
f 43 66 48
f 43 48 47
f 44 67 45
f 44 48 68
f 44 68 69
f 44 69 67
f 45 67 70
f 48 69 68
f 48 66 71
f 48 71 72
f 48 72 73
f 48 73 74
f 48 74 70
f 48 70 69
f 49 75 76
f 49 76 50
f 50 76 51
f 51 77 52
f 51 76 78
f 51 78 79
f 51 79 80
f 51 80 81
f 51 81 82
f 51 82 83
f 51 83 77
f 52 77 84
f 52 84 85
f 52 85 54
f 52 54 53
f 54 85 56
f 54 56 55
f 56 85 86
f 56 86 87
f 56 87 88
f 56 88 57
f 57 88 120
f 57 120 121
f 57 121 93
f 57 93 92
f 57 92 91
f 57 91 90
f 57 90 89
f 57 89 58
f 58 89 59
f 61 90 91
f 61 91 92
f 61 92 62
f 62 92 93
f 62 93 63
f 63 93 94
f 63 94 64
f 64 94 95
f 64 95 65
f 65 95 96
f 65 96 66
f 66 97 71
f 66 96 97
f 67 69 70
f 70 74 73
f 70 73 98
f 71 97 99
f 71 99 100
f 71 100 101
f 71 101 72
f 72 101 100
f 72 100 102
f 72 102 103
f 72 103 104
f 72 104 105
f 72 105 73
f 73 105 98
f 75 106 76
f 76 106 78
f 77 83 107
f 77 107 108
f 77 108 84
f 78 106 109
f 78 109 80
f 78 80 79
f 80 109 81
f 81 110 111
f 81 111 82
f 81 109 110
f 82 111 83
f 83 111 112
f 83 112 113
f 83 113 114
f 83 114 115
f 83 115 107
f 84 116 117
f 84 117 85
f 84 108 118
f 84 118 125
f 84 125 97
f 84 97 124
f 84 124 116
f 85 117 116
f 85 116 86
f 86 116 87
f 87 116 124
f 87 124 119
f 87 119 120
f 87 120 88
f 93 121 94
f 94 121 120
f 94 120 119
f 94 119 122
f 94 122 95
f 95 123 96
f 95 122 124
f 95 124 123
f 96 123 97
f 97 125 99
f 97 123 124
f 99 125 100
f 100 107 115
f 100 115 102
f 100 125 118
f 100 118 107
f 102 115 103
f 103 115 114
f 107 118 108
f 119 124 122

