# https://github.com/mikedh/trimesh
v 0.09506125 -0.24701044 0.20908379
v 0.01825293 -0.22144230 0.21327918
v 0.01825293 -0.22326323 0.21342852
v 0.01825293 -0.22891376 0.21345568
v 0.09506125 -0.24734208 0.20908379
v 0.09506125 -0.23612239 0.20685712
v 0.02301281 -0.22144230 0.21084884
v 0.01259750 -0.22144230 0.21337422
v 0.09506125 -0.23456428 0.20647694
v 0.09506125 -0.23102878 0.20543150
v 0.09506125 -0.22972097 0.20490199
v 0.09506125 -0.22840064 0.20012277
v 0.01259750 -0.22326323 0.21345568
v 0.01259750 -0.22891376 0.21352357
v 0.01825293 -0.23456428 0.21345568
v 0.09506125 -0.24906291 0.20874436
v 0.01825293 -0.24021479 0.21323845
v 0.07311426 -0.22144230 0.18076155
v 0.00876997 -0.22144230 0.21197575
v 0.00694207 -0.22326323 0.21139193
v 0.00694207 -0.23456428 0.21190787
v 0.08548015 -0.22144230 0.16057210
v 0.08444965 -0.22144230 0.16559570
v 0.08382400 -0.22144230 0.16795815
v 0.08340690 -0.22144230 0.16919369
v 0.08306340 -0.22144230 0.17007621
v 0.07973884 -0.22144230 0.17501835
v 0.07883103 -0.22144230 0.17622673
v 0.09506125 -0.22206804 0.11504742
v 0.00694207 -0.24021479 0.21190787
v 0.01259750 -0.23456428 0.21349641
v 0.01259750 -0.24021479 0.21333349
v 0.01259750 -0.24585906 0.21118827
v 0.01259750 -0.24933197 0.20890728
v 0.09506125 -0.25185374 0.20577093
v 0.00694207 -0.22144230 0.21128332
v -0.00153493 -0.24868120 0.20860859
v 0.08641249 -0.22144230 0.15492395
v 0.09506125 -0.22472123 0.11219619
v 0.01825293 -0.22144230 0.11182960
v 0.02178604 -0.22144230 0.11201968
v 0.02302508 -0.22144230 0.11214188
v 0.06478447 -0.22144230 0.11829240
v 0.06874695 -0.22144230 0.12104859
v 0.06878375 -0.22144230 0.12107574
v 0.07770240 -0.22144230 0.12929001
v 0.08033996 -0.22144230 0.13222271
v 0.08473181 -0.22144230 0.13789802
v 0.08534520 -0.22144230 0.13886201
v 0.08610580 -0.22144230 0.14364121
v 0.08659651 -0.22144230 0.14927579
v -0.00153493 -0.24869371 0.20860859
v 0.00694207 -0.24919431 0.20882582
v 0.00129891 -0.24888144 0.20867647
v 0.00694207 -0.25199141 0.20577093
v 0.01259750 -0.25212907 0.20577093
v 0.09506125 -0.25284869 0.20460329
v 0.00399781 -0.22144230 0.20893444
v -0.00727623 -0.24821188 0.20306905
v 0.09506125 -0.25775456 0.07693595
v 0.00694207 -0.22144230 0.11182960
v 0.08604446 -0.25762316 0.07674586
v -0.01231828 -0.25423160 0.07853807
v -0.00727623 -0.24923186 0.20306905
v -0.00435651 -0.25331799 0.20226798
v 0.00129891 -0.25430043 0.20286539
v 0.00129891 -0.25167228 0.20577093
v 0.09506125 -0.25430043 0.20286539
v -0.00733757 -0.23157320 0.19754309
v -0.01047812 -0.22144230 0.11511531
v -0.01565510 -0.22347598 0.11538686
v -0.01884471 -0.22555347 0.11880834
v -0.00764427 -0.23456428 0.19809975
v -0.00788962 -0.24021479 0.19884651
v -0.00779148 -0.24614065 0.20031285
v 0.09506125 -0.26074566 0.07579545
v -0.00387807 -0.22144230 0.11196538
v -0.01326289 -0.25423160 0.07853807
v 0.09506125 -0.26280437 0.07502155
v 0.08604446 -0.26280437 0.07481789
v -0.01025730 -0.25674084 0.07704457
v -0.03026598 -0.27410542 0.07959710
v -0.03022918 -0.27857327 0.07951563
v -0.00766880 -0.25127179 0.20017709
v -0.00744798 -0.25461331 0.19833058
v -0.00435651 -0.25490740 0.19944391
v -0.00295799 -0.26010113 0.18080228
v 0.00129891 -0.25506384 0.20004131
v 0.09506125 -0.25461331 0.20172490
v -0.00992607 -0.22144230 0.11474872
v -0.01565510 -0.22498403 0.11125936
v -0.01868523 -0.22577249 0.11210115
v -0.01890605 -0.22545336 0.11538686
v -0.02997155 -0.27096414 0.07905401
v -0.01916367 -0.22891376 0.11929712
v -0.00592678 -0.22144230 0.11250847
v -0.01534841 -0.25684097 0.07715318
v -0.01985066 -0.25851798 0.07754693
v -0.01702909 -0.25475097 0.07966499
v -0.01565510 -0.22756840 0.10843528
v -0.00999967 -0.22394529 0.11086562
v 0.09506125 -0.26617091 0.07487220
v 0.09506125 -0.26845489 0.07481789
v -0.00999967 -0.26280437 0.07481789
v -0.01565510 -0.26280437 0.07495366
v -0.03026598 -0.27410542 0.07785920
v -0.03022918 -0.27857327 0.07792709
v -0.02588640 -0.28349166 0.07993653
v -0.00672419 -0.25985083 0.18015057
v -0.00709222 -0.28255930 0.09556400
v -0.00332603 -0.28274075 0.09618856
v -0.00174348 -0.27695258 0.11827882
v 0.09506125 -0.25567081 0.19778748
v 0.00129891 -0.26016371 0.18101952
v -0.02499085 -0.26433746 0.07765554
v -0.02997155 -0.27096414 0.07832083
v -0.02155588 -0.26259786 0.07662367
v 0.09506125 -0.27410542 0.07481789
v -0.02131053 -0.27410542 0.07481789
v -0.02131053 -0.26845489 0.07503512
v -0.02695369 -0.27410542 0.07594480
v -0.02588640 -0.28349166 0.07753335
v -0.02744440 -0.28017519 0.07677302
v -0.02131053 -0.28394219 0.08066970
v -0.00487176 -0.28328517 0.09332375
v 0.00129891 -0.28381078 0.09278065
v 0.00129891 -0.27775353 0.11538686
v 0.01259750 -0.27018195 0.14364121
v 0.09506125 -0.27018195 0.14364121
v -0.02690462 -0.26883034 0.07708530
v 0.09506125 -0.27747195 0.07495366
v -0.02131053 -0.27975593 0.07504870
v -0.02131053 -0.28394219 0.07696310
v 0.00129891 -0.28521249 0.08148434
v 0.00129891 -0.28484329 0.08713250
v 0.00694207 -0.28498720 0.08713250
v 0.09506125 -0.28428637 0.09049967
v 0.09506125 -0.28381078 0.09278065
v 0.09506125 -0.28130154 0.10214899
v 0.09506125 -0.27975593 0.07504870
v 0.09506125 -0.28225268 0.07618920
v 0.09506125 -0.28394219 0.07696310
v 0.09506125 -0.28478698 0.07965141
v 0.01259750 -0.28536266 0.08148434
v 0.00694207 -0.28535640 0.08148434
v 0.09506125 -0.28498720 0.08713250
v 0.09506125 -0.28536266 0.08148434
f 1 2 3
f 1 3 4
f 1 4 15
f 1 15 5
f 1 5 16
f 1 16 35
f 1 35 57
f 1 57 68
f 1 68 89
f 1 89 113
f 1 113 129
f 1 129 139
f 1 139 138
f 1 138 137
f 1 137 146
f 1 146 147
f 1 147 143
f 1 143 142
f 1 142 141
f 1 141 140
f 1 140 131
f 1 131 118
f 1 118 103
f 1 103 102
f 1 102 79
f 1 79 76
f 1 76 60
f 1 60 39
f 1 39 29
f 1 29 12
f 1 12 11
f 1 11 10
f 1 10 9
f 1 9 6
f 1 6 2
f 2 7 18
f 2 18 28
f 2 28 27
f 2 27 26
f 2 26 25
f 2 25 24
f 2 24 23
f 2 23 22
f 2 22 38
f 2 38 51
f 2 51 50
f 2 50 49
f 2 49 48
f 2 48 47
f 2 47 46
f 2 46 45
f 2 45 44
f 2 44 43
f 2 43 42
f 2 42 41
f 2 41 40
f 2 40 61
f 2 61 77
f 2 77 96
f 2 96 90
f 2 90 70
f 2 70 58
f 2 58 36
f 2 36 19
f 2 19 8
f 2 8 3
f 2 6 9
f 2 9 10
f 2 10 11
f 2 11 12
f 2 12 7
f 3 8 13
f 3 13 14
f 3 14 4
f 4 14 15
f 5 15 17
f 5 17 16
f 7 12 18
f 8 19 20
f 8 20 21
f 8 21 13
f 12 22 23
f 12 23 24
f 12 24 25
f 12 25 26
f 12 26 27
f 12 27 28
f 12 28 18
f 12 29 22
f 13 21 14
f 14 21 30
f 14 30 31
f 14 31 15
f 15 31 32
f 15 32 17
f 16 17 32
f 16 32 33
f 16 33 34
f 16 34 35
f 19 36 20
f 20 36 37
f 20 37 21
f 21 37 52
f 21 52 30
f 22 29 38
f 29 39 40
f 29 40 41
f 29 41 42
f 29 42 43
f 29 43 44
f 29 44 45
f 29 45 46
f 29 46 47
f 29 47 48
f 29 48 49
f 29 49 50
f 29 50 51
f 29 51 38
f 30 32 31
f 30 52 32
f 32 52 33
f 33 53 34
f 33 52 54
f 33 54 53
f 34 53 55
f 34 55 56
f 34 56 35
f 35 56 57
f 36 58 37
f 37 58 59
f 37 59 64
f 37 64 52
f 39 60 40
f 40 60 62
f 40 62 63
f 40 63 78
f 40 78 61
f 52 64 65
f 52 65 66
f 52 66 67
f 52 67 54
f 53 54 67
f 53 67 55
f 55 67 66
f 55 66 56
f 56 66 68
f 56 68 57
f 58 69 59
f 58 70 71
f 58 71 72
f 58 72 69
f 59 69 73
f 59 73 74
f 59 74 75
f 59 75 64
f 60 76 62
f 61 78 77
f 62 76 79
f 62 79 80
f 62 80 81
f 62 81 63
f 63 81 78
f 64 75 82
f 64 82 83
f 64 83 84
f 64 84 85
f 64 85 65
f 65 85 86
f 65 86 66
f 66 86 87
f 66 87 88
f 66 88 89
f 66 89 68
f 69 72 73
f 70 90 91
f 70 91 92
f 70 92 71
f 71 92 93
f 71 93 72
f 72 93 94
f 72 94 82
f 72 82 95
f 72 95 73
f 73 95 82
f 73 82 74
f 74 82 75
f 77 78 96
f 78 81 97
f 78 97 98
f 78 98 99
f 78 99 100
f 78 100 91
f 78 91 101
f 78 101 96
f 79 102 80
f 80 102 103
f 80 103 118
f 80 118 119
f 80 119 104
f 80 104 81
f 81 104 105
f 81 105 97
f 82 94 116
f 82 116 106
f 82 106 107
f 82 107 83
f 83 107 122
f 83 122 108
f 83 108 85
f 83 85 84
f 85 109 86
f 85 108 109
f 86 109 87
f 87 109 110
f 87 110 111
f 87 111 112
f 87 112 88
f 88 113 89
f 88 112 114
f 88 114 113
f 90 96 91
f 91 100 92
f 91 96 101
f 92 100 99
f 92 99 98
f 92 98 115
f 92 115 116
f 92 116 93
f 93 116 94
f 97 105 98
f 98 105 117
f 98 117 115
f 104 119 105
f 105 119 120
f 105 120 117
f 106 116 121
f 106 121 107
f 107 121 123
f 107 123 122
f 108 122 133
f 108 133 124
f 108 124 110
f 108 110 109
f 110 124 125
f 110 125 111
f 111 125 126
f 111 126 112
f 112 126 127
f 112 127 114
f 113 114 128
f 113 128 129
f 114 127 128
f 115 117 130
f 115 130 116
f 116 130 121
f 117 120 130
f 118 131 119
f 119 131 132
f 119 132 121
f 119 121 120
f 120 121 130
f 121 132 123
f 122 123 132
f 122 132 133
f 124 134 135
f 124 135 125
f 124 133 134
f 125 135 126
f 126 135 136
f 126 136 137
f 126 137 138
f 126 138 139
f 126 139 127
f 127 139 128
f 128 139 129
f 131 140 132
f 132 140 141
f 132 141 133
f 133 141 142
f 133 142 143
f 133 143 144
f 133 144 145
f 133 145 134
f 134 145 136
f 134 136 135
f 136 145 144
f 136 144 147
f 136 147 146
f 136 146 137
f 143 147 144

