# https://github.com/mikedh/trimesh
v -0.06908471 0.08684621 0.07385879
v -0.06668670 0.08184663 0.07385879
v -0.08344930 0.05659103 0.07757291
v -0.08521255 0.05659103 0.07789532
v -0.08678772 0.05659103 0.07819193
v -0.08678772 0.06491972 0.07819193
v -0.08676421 0.07057091 0.07823062
v -0.08657611 0.07395036 0.07838538
v -0.08690526 0.07953935 0.08345361
v -0.07171783 0.08684621 0.07633487
v 0.14934630 0.08684621 0.07385879
v -0.06156153 0.07893810 0.07385879
v -0.03412541 0.05659103 0.07465836
v -0.08822183 0.05659103 0.08148048
v -0.08822183 0.06491972 0.08148048
v -0.08817480 0.07057091 0.08148048
v -0.08739897 0.07598514 0.08153206
v -0.08862149 0.07621617 0.08712905
v -0.08721089 0.07982073 0.08712905
v -0.08582381 0.08684621 0.10836919
v -0.08504797 0.08684621 0.10323648
v -0.08368440 0.08684621 0.09762660
v -0.08203870 0.08684621 0.09210701
v -0.08107479 0.08684621 0.08947617
v -0.07637280 0.08684621 0.08204792
v -0.07446849 0.08684621 0.07933970
v 0.14934630 0.08684621 0.18750068
v 0.14934630 0.07679373 0.07385879
v -0.05923404 0.07789553 0.07385879
v -0.03259726 0.05659103 0.07458098
v -0.08869203 0.05659103 0.08444662
v -0.08911520 0.07057091 0.08712905
v -0.09078440 0.08684621 0.14984358
v 0.14934630 0.08186736 0.18750068
v 0.14295160 0.08684621 0.19051841
v 0.14934630 0.05659103 0.07607695
v 0.14810028 0.07646200 0.07385879
v -0.04954794 0.07664860 0.07385879
v -0.04390555 0.07599404 0.07385879
v -0.03823965 0.07591999 0.07385879
v -0.03266779 0.07586964 0.07385879
v 0.13686251 0.07586964 0.07385879
v 0.14252841 0.07589037 0.07385879
v -0.08911520 0.05659103 0.08712905
v -0.09078440 0.05659103 0.12104622
v -0.09078440 0.05868209 0.12151049
v -0.09078440 0.08684621 0.15398329
v 0.14295160 0.08186736 0.19051841
v 0.12844595 0.07898549 0.19731473
v 0.11231812 0.05659103 0.20386604
v 0.14934630 0.07721135 0.18663662
v 0.12814032 0.08684621 0.19749529
v 0.14934630 0.05659103 0.15943840
v -0.09078440 0.05659103 0.15689784
v -0.09078440 0.07621617 0.15661412
v -0.08817480 0.08684621 0.17668071
v 0.14013040 0.08186736 0.19184672
v 0.12846946 0.08186736 0.19732763
v 0.11398732 0.08186736 0.20412397
v 0.11057838 0.05659103 0.20449795
v 0.14316319 0.05659103 0.18488274
v 0.14523206 0.05659103 0.18339967
v 0.14708934 0.05659103 0.18205846
v 0.14805325 0.05659103 0.17967264
v 0.14892313 0.05659103 0.17751897
v 0.14934630 0.07456939 0.18493433
v 0.11398732 0.08684621 0.20412397
v 0.14934630 0.06794376 0.17763503
v 0.14899365 0.05659103 0.17455283
v -0.09078440 0.06519517 0.15689784
v -0.08939731 0.05659103 0.16622184
v -0.08817480 0.08186736 0.17668071
v -0.09078440 0.07057091 0.15685915
v -0.08455427 0.08684621 0.17916969
v 0.10862706 0.08186736 0.20545228
v 0.10862706 0.05659103 0.20519436
v 0.14934630 0.07166383 0.18253562
v 0.14934630 0.07226804 0.18319333
v 0.10862706 0.08684621 0.20545228
v -0.08864500 0.05659103 0.16859476
v -0.08796321 0.05659103 0.17073554
v -0.08763407 0.07766155 0.17611327
v -0.08406056 0.08186736 0.17950499
v -0.08406056 0.08684621 0.17950499
v 0.10298467 0.05659103 0.20559414
v 0.10597043 0.05659103 0.20538780
v 0.10298467 0.08684621 0.20559414
v -0.08344930 0.05659103 0.17353403
v -0.08102778 0.07877520 0.18047221
v -0.08123937 0.08186736 0.18053669
v -0.08156850 0.08684621 0.18042063
v 0.00694649 0.08186736 0.20560704
v 0.00694649 0.05659103 0.20559414
v 0.00694649 0.08684621 0.20560704
v -0.08189764 0.05659103 0.17412725
v -0.06372445 0.07900622 0.18601761
v -0.08051056 0.05659103 0.17465600
v -0.00238696 0.05659103 0.20386604
v 0.00130410 0.05659103 0.20519436
v -0.07780691 0.08186736 0.18161998
v -0.08123937 0.08684621 0.18053669
v 0.00130410 0.08186736 0.20556835
v 0.00426635 0.05659103 0.20541359
v 0.00130410 0.08684621 0.20556835
v -0.00433829 0.08186736 0.20465271
v -0.00847605 0.08186736 0.20336309
v -0.06120888 0.08684621 0.18683008
v -0.06725094 0.08684621 0.18493433
v -0.07780691 0.08684621 0.18161998
v -0.00433829 0.08684621 0.20465271
v -0.00847605 0.08684621 0.20336309
f 1 2 3
f 1 3 4
f 1 4 5
f 1 5 6
f 1 6 7
f 1 7 8
f 1 8 9
f 1 9 10
f 1 10 26
f 1 26 25
f 1 25 24
f 1 24 23
f 1 23 22
f 1 22 21
f 1 21 20
f 1 20 33
f 1 33 47
f 1 47 56
f 1 56 74
f 1 74 84
f 1 84 91
f 1 91 101
f 1 101 109
f 1 109 108
f 1 108 107
f 1 107 111
f 1 111 110
f 1 110 104
f 1 104 94
f 1 94 87
f 1 87 79
f 1 79 67
f 1 67 52
f 1 52 35
f 1 35 27
f 1 27 11
f 1 11 28
f 1 28 37
f 1 37 43
f 1 43 42
f 1 42 41
f 1 41 40
f 1 40 39
f 1 39 38
f 1 38 29
f 1 29 12
f 1 12 2
f 2 12 3
f 3 12 13
f 3 13 30
f 3 30 36
f 3 36 53
f 3 53 69
f 3 69 65
f 3 65 64
f 3 64 63
f 3 63 62
f 3 62 61
f 3 61 50
f 3 50 60
f 3 60 76
f 3 76 86
f 3 86 85
f 3 85 93
f 3 93 103
f 3 103 99
f 3 99 98
f 3 98 97
f 3 97 95
f 3 95 88
f 3 88 81
f 3 81 80
f 3 80 71
f 3 71 54
f 3 54 45
f 3 45 44
f 3 44 31
f 3 31 14
f 3 14 5
f 3 5 4
f 5 14 15
f 5 15 6
f 6 15 7
f 7 15 16
f 7 16 8
f 8 16 17
f 8 17 9
f 9 17 18
f 9 18 19
f 9 19 20
f 9 20 21
f 9 21 22
f 9 22 23
f 9 23 24
f 9 24 25
f 9 25 26
f 9 26 10
f 11 27 34
f 11 34 51
f 11 51 66
f 11 66 78
f 11 78 77
f 11 77 68
f 11 68 53
f 11 53 36
f 11 36 28
f 12 29 30
f 12 30 13
f 14 31 15
f 15 31 32
f 15 32 16
f 16 32 18
f 16 18 17
f 18 32 33
f 18 33 19
f 19 33 20
f 27 35 48
f 27 48 34
f 28 36 37
f 29 38 30
f 30 38 39
f 30 39 40
f 30 40 41
f 30 41 42
f 30 42 43
f 30 43 36
f 31 44 32
f 32 44 45
f 32 45 46
f 32 46 33
f 33 46 45
f 33 45 54
f 33 54 70
f 33 70 73
f 33 73 55
f 33 55 47
f 34 48 49
f 34 49 50
f 34 50 51
f 35 52 48
f 36 43 37
f 47 55 56
f 48 52 57
f 48 57 49
f 49 57 58
f 49 58 59
f 49 59 50
f 50 59 60
f 50 61 51
f 51 61 62
f 51 62 63
f 51 63 64
f 51 64 65
f 51 65 66
f 52 67 59
f 52 59 58
f 52 58 57
f 53 68 69
f 54 71 72
f 54 72 56
f 54 56 70
f 55 73 56
f 56 72 74
f 56 73 70
f 59 67 79
f 59 79 75
f 59 75 76
f 59 76 60
f 65 69 68
f 65 68 77
f 65 77 78
f 65 78 66
f 71 80 72
f 72 80 81
f 72 81 82
f 72 82 83
f 72 83 74
f 74 83 84
f 75 79 87
f 75 87 85
f 75 85 86
f 75 86 76
f 81 88 83
f 81 83 82
f 83 88 89
f 83 89 90
f 83 90 91
f 83 91 84
f 85 92 93
f 85 87 94
f 85 94 92
f 88 95 89
f 89 96 90
f 89 95 97
f 89 97 98
f 89 98 99
f 89 99 96
f 90 96 100
f 90 100 109
f 90 109 101
f 90 101 91
f 92 94 104
f 92 104 102
f 92 102 93
f 93 102 103
f 96 99 105
f 96 105 106
f 96 106 100
f 99 103 102
f 99 102 105
f 100 107 108
f 100 108 109
f 100 106 107
f 102 104 110
f 102 110 105
f 105 110 111
f 105 111 106
f 106 111 107

