# https://github.com/mikedh/trimesh
v 0.09506125 -0.28535354 0.08148434
v 0.09506125 -0.28478664 0.07965141
v 0.11430312 -0.28535354 0.08148434
v 0.09506125 -0.28498781 0.08713250
v 0.09506125 -0.28394546 0.07696310
v 0.14255243 -0.28394546 0.07696310
v 0.11995185 -0.28529867 0.08148434
v 0.11430312 -0.28498781 0.08713250
v 0.09506125 -0.28380832 0.09278065
v 0.09506125 -0.27975785 0.07504870
v 0.14255243 -0.27975785 0.07504870
v 0.14820116 -0.27975785 0.07525236
v 0.14820116 -0.28372604 0.07716676
v 0.14820116 -0.28372604 0.08037100
v 0.11995185 -0.28493295 0.08713250
v 0.12560058 -0.28380832 0.09278065
v 0.09506125 -0.28282084 0.09647368
v 0.09506125 -0.27747204 0.07495366
v 0.14255243 -0.27410732 0.07481789
v 0.14820116 -0.27410732 0.07492651
v 0.15257200 -0.27975785 0.07704457
v 0.15176342 -0.28319572 0.07779132
v 0.12874442 -0.28273856 0.09618856
v 0.15176342 -0.28319572 0.07966499
v 0.12867091 -0.26009984 0.18080228
v 0.12846735 -0.27695086 0.11825167
v 0.12560058 -0.28282084 0.09647368
v 0.09506125 -0.27775549 0.11538686
v 0.09506125 -0.27410732 0.07481789
v 0.14255243 -0.26845679 0.07481789
v 0.14255243 -0.26280624 0.07526594
v 0.14868179 -0.26799962 0.07643359
v 0.15209703 -0.26958141 0.07750619
v 0.15282645 -0.27410732 0.07684091
v 0.15257200 -0.27975785 0.08046604
v 0.13026545 -0.25204464 0.20065229
v 0.12925332 -0.25481503 0.19913163
v 0.12560058 -0.25428473 0.20286539
v 0.12560058 -0.25506190 0.20004131
v 0.12560058 -0.27775549 0.11538686
v 0.12560058 -0.26016385 0.18101952
v 0.09506125 -0.26016385 0.18101952
v 0.09506125 -0.26845679 0.07481789
v 0.13689805 -0.26280624 0.07481789
v 0.13689805 -0.25715571 0.07658294
v 0.14204354 -0.25734772 0.07742473
v 0.14588287 -0.25935924 0.07795424
v 0.14706463 -0.26280624 0.07718034
v 0.15209703 -0.26958141 0.07995011
v 0.14072041 -0.22506286 0.11128651
v 0.14331577 -0.22891218 0.11538686
v 0.15282645 -0.27410732 0.08069686
v 0.13149245 -0.24585465 0.20012277
v 0.13196742 -0.25150518 0.19447462
v 0.12936640 -0.25052685 0.20400588
v 0.12518216 -0.25105715 0.20583882
v 0.12302784 -0.24892677 0.20869004
v 0.11995185 -0.24910049 0.20877151
v 0.11995185 -0.25189833 0.20577093
v 0.11430312 -0.25203549 0.20577093
v 0.10865439 -0.25211777 0.20577093
v 0.11995185 -0.25430302 0.20286539
v 0.09506125 -0.25506190 0.20004131
v 0.11995185 -0.25807004 0.18882647
v 0.09506125 -0.25807004 0.18882647
v 0.09506125 -0.26617098 0.07487220
v 0.09506125 -0.26280624 0.07502155
v 0.09506125 -0.26073987 0.07579545
v 0.09506125 -0.25775916 0.07693595
v 0.13365243 -0.25422987 0.07853807
v 0.13689805 -0.25421158 0.07849734
v 0.13982136 -0.25426644 0.07857880
v 0.11753743 -0.19721251 0.11788508
v 0.11724340 -0.19211056 0.12365543
v 0.14134805 -0.22439542 0.11538686
v 0.11823292 -0.19501812 0.18837841
v 0.13133979 -0.23456271 0.19447462
v 0.13244805 -0.24020411 0.19447462
v 0.13087612 -0.24020411 0.20012277
v 0.12952472 -0.24585465 0.20414166
v 0.12302784 -0.24835075 0.20869004
v 0.11430312 -0.22891218 0.21333349
v 0.11430312 -0.23456271 0.21331991
v 0.11430312 -0.24020411 0.21307552
v 0.11430312 -0.24585465 0.21098461
v 0.11430312 -0.24923765 0.20885298
v 0.10865439 -0.24585465 0.21121543
v 0.10865439 -0.24932908 0.20890728
v 0.09506125 -0.25284010 0.20460329
v 0.09506125 -0.25430302 0.20286539
v 0.09506125 -0.25185261 0.20577093
v 0.09506125 -0.22472457 0.11219619
v 0.10008235 -0.19764222 0.11811589
v 0.10300001 -0.19722163 0.11789866
v 0.10865439 -0.20376821 0.11260351
v 0.11430312 -0.19690163 0.11772215
v 0.11430312 -0.19407635 0.12072273
v 0.11430312 -0.19207399 0.12354681
v 0.11430312 -0.19196426 0.12668317
v 0.11729995 -0.19207399 0.12668317
v 0.11729995 -0.19207399 0.18317831
v 0.11724340 -0.19211056 0.18619247
v 0.11787104 -0.19691077 0.19254664
v 0.12930986 -0.23110657 0.19856138
v 0.12980180 -0.23498330 0.20031285
v 0.12886881 -0.24020411 0.20340848
v 0.11849302 -0.21761112 0.21049583
v 0.11860611 -0.22326165 0.21086242
v 0.11430312 -0.22326165 0.21330633
v 0.10865439 -0.22891218 0.21352357
v 0.10865439 -0.23456271 0.21349641
v 0.10865439 -0.24020411 0.21334706
v 0.10300001 -0.24585465 0.21071307
v 0.09506125 -0.24905479 0.20874436
v 0.09506125 -0.22207303 0.11504742
v 0.09978266 -0.19653590 0.12103501
v 0.10307352 -0.19415865 0.12146949
v 0.10865439 -0.19690163 0.11770857
v 0.10865439 -0.19407635 0.12070916
v 0.10865439 -0.19207399 0.12353323
v 0.10865439 -0.19195512 0.12668317
v 0.11430312 -0.19196426 0.18317831
v 0.11385643 -0.19204656 0.18837841
v 0.11167383 -0.19211056 0.19218005
v 0.11254461 -0.19628903 0.19900944
v 0.11253330 -0.20177499 0.20465759
v 0.11796717 -0.21378923 0.20961330
v 0.12848432 -0.23714111 0.20301474
v 0.11430312 -0.21761112 0.21292617
v 0.10865439 -0.21761112 0.21338780
v 0.10865439 -0.22326165 0.21348284
v 0.10300001 -0.23456271 0.21266820
v 0.10300001 -0.24020411 0.21257316
v 0.09506125 -0.24733585 0.20908379
v 0.09952256 -0.19552099 0.12668317
v 0.09506125 -0.22840017 0.20012277
v 0.09952256 -0.19552099 0.18317831
v 0.10176735 -0.19269573 0.12668317
v 0.10500731 -0.19211056 0.12364185
v 0.10459454 -0.19207399 0.12668317
v 0.10865439 -0.19195512 0.18317831
v 0.10865439 -0.19200998 0.18882647
v 0.10865439 -0.19212885 0.19205786
v 0.10865439 -0.19283287 0.19488194
v 0.10865439 -0.19565815 0.19972903
v 0.10865439 -0.19822740 0.20255311
v 0.10865439 -0.20387794 0.20821484
v 0.11255026 -0.20742552 0.20993917
v 0.11438228 -0.21193315 0.21097104
v 0.10865439 -0.21196057 0.21283113
v 0.10300001 -0.21761112 0.21219299
v 0.10300001 -0.22326165 0.21255958
v 0.09506125 -0.24699754 0.20908379
v 0.09506125 -0.22972593 0.20490199
v 0.09960738 -0.19626160 0.18882647
v 0.10176735 -0.19269573 0.18317831
v 0.10459454 -0.19207399 0.18317831
v 0.10520522 -0.19212885 0.18882647
v 0.10582155 -0.19218370 0.19166412
v 0.10510909 -0.19647189 0.19883293
v 0.10517129 -0.20195785 0.20448109
v 0.10508082 -0.20760838 0.20976265
v 0.10865439 -0.20670319 0.21046868
v 0.10311875 -0.21221658 0.21059086
v 0.09979962 -0.21427383 0.20923314
v 0.09956214 -0.21761112 0.20983054
v 0.09506125 -0.23612621 0.20685712
v 0.09506125 -0.23102427 0.20543150
v 0.09985617 -0.19728564 0.19207144
v 0.10238368 -0.19343632 0.18882647
v 0.10358241 -0.19499983 0.19375503
v 0.09506125 -0.23456271 0.20647694
f 1 2 3
f 1 3 8
f 1 8 4
f 1 4 9
f 1 9 17
f 1 17 28
f 1 28 42
f 1 42 65
f 1 65 63
f 1 63 90
f 1 90 89
f 1 89 91
f 1 91 114
f 1 114 134
f 1 134 153
f 1 153 167
f 1 167 172
f 1 172 168
f 1 168 154
f 1 154 136
f 1 136 115
f 1 115 92
f 1 92 69
f 1 69 68
f 1 68 67
f 1 67 66
f 1 66 43
f 1 43 29
f 1 29 18
f 1 18 10
f 1 10 5
f 1 5 2
f 2 5 6
f 2 6 3
f 3 6 7
f 3 7 15
f 3 15 8
f 4 8 16
f 4 16 9
f 5 10 11
f 5 11 6
f 6 11 12
f 6 12 13
f 6 13 7
f 7 14 15
f 7 13 14
f 8 15 16
f 9 16 27
f 9 27 17
f 10 18 11
f 11 18 19
f 11 19 20
f 11 20 12
f 12 21 22
f 12 22 13
f 12 20 21
f 13 22 24
f 13 24 14
f 14 23 16
f 14 16 15
f 14 24 25
f 14 25 26
f 14 26 23
f 16 23 26
f 16 26 27
f 17 27 40
f 17 40 28
f 18 29 19
f 19 29 43
f 19 43 44
f 19 44 30
f 19 30 20
f 20 30 31
f 20 31 32
f 20 32 33
f 20 33 34
f 20 34 21
f 21 34 52
f 21 52 35
f 21 35 24
f 21 24 22
f 24 35 36
f 24 36 37
f 24 37 25
f 25 37 38
f 25 38 39
f 25 39 26
f 26 40 27
f 26 39 41
f 26 41 40
f 28 40 41
f 28 41 42
f 30 44 31
f 31 45 46
f 31 46 47
f 31 47 48
f 31 48 32
f 31 44 45
f 32 48 33
f 33 49 52
f 33 52 34
f 33 48 47
f 33 47 50
f 33 50 51
f 33 51 49
f 35 52 53
f 35 53 54
f 35 54 36
f 36 55 37
f 36 54 53
f 36 53 55
f 37 55 38
f 38 55 56
f 38 56 57
f 38 57 58
f 38 58 59
f 38 59 60
f 38 60 61
f 38 61 62
f 38 62 39
f 39 62 90
f 39 90 63
f 39 63 65
f 39 65 64
f 39 64 41
f 41 64 65
f 41 65 42
f 43 66 44
f 44 66 67
f 44 67 45
f 45 67 68
f 45 68 69
f 45 69 70
f 45 70 71
f 45 71 72
f 45 72 46
f 46 72 47
f 47 72 73
f 47 73 50
f 49 51 52
f 50 73 74
f 50 74 75
f 50 75 51
f 51 75 76
f 51 76 77
f 51 77 78
f 51 78 52
f 52 78 53
f 53 78 79
f 53 79 80
f 53 80 55
f 55 80 57
f 55 57 56
f 57 81 82
f 57 82 83
f 57 83 84
f 57 84 85
f 57 85 58
f 57 80 81
f 58 86 59
f 58 85 87
f 58 87 86
f 59 86 88
f 59 88 60
f 60 88 61
f 61 89 90
f 61 90 62
f 61 88 91
f 61 91 89
f 69 92 93
f 69 93 94
f 69 94 95
f 69 95 70
f 70 95 71
f 71 95 72
f 72 95 96
f 72 96 73
f 73 96 97
f 73 97 74
f 74 97 98
f 74 98 99
f 74 99 100
f 74 100 75
f 75 100 101
f 75 101 102
f 75 102 76
f 76 102 103
f 76 103 104
f 76 104 77
f 77 104 105
f 77 105 78
f 78 105 79
f 79 105 80
f 80 105 106
f 80 106 107
f 80 107 108
f 80 108 81
f 81 108 109
f 81 109 82
f 82 109 110
f 82 110 83
f 83 110 111
f 83 111 112
f 83 112 84
f 84 112 85
f 85 112 87
f 86 87 88
f 87 112 113
f 87 113 114
f 87 114 88
f 88 114 91
f 92 115 93
f 93 115 116
f 93 116 117
f 93 117 94
f 94 118 95
f 94 117 119
f 94 119 118
f 95 118 96
f 96 118 119
f 96 119 97
f 97 119 120
f 97 120 98
f 98 120 121
f 98 121 99
f 99 121 141
f 99 141 122
f 99 122 101
f 99 101 100
f 101 122 102
f 102 122 123
f 102 123 124
f 102 124 125
f 102 125 103
f 103 125 126
f 103 126 127
f 103 127 104
f 104 127 105
f 105 128 106
f 105 127 107
f 105 107 128
f 106 128 107
f 107 127 129
f 107 129 108
f 108 129 109
f 109 129 130
f 109 130 131
f 109 131 110
f 110 131 132
f 110 132 111
f 111 132 133
f 111 133 112
f 112 133 114
f 112 114 113
f 114 133 134
f 115 135 116
f 115 136 137
f 115 137 135
f 116 135 138
f 116 138 117
f 117 138 139
f 117 139 119
f 119 139 120
f 120 139 121
f 121 139 140
f 121 140 157
f 121 157 141
f 122 141 142
f 122 142 123
f 123 142 124
f 124 142 143
f 124 143 144
f 124 144 125
f 125 144 145
f 125 145 146
f 125 146 126
f 126 146 147
f 126 147 148
f 126 148 127
f 127 148 149
f 127 149 129
f 129 149 150
f 129 150 130
f 130 150 151
f 130 151 152
f 130 152 131
f 131 152 132
f 132 152 153
f 132 153 134
f 132 134 133
f 135 137 156
f 135 156 138
f 136 154 155
f 136 155 137
f 137 155 156
f 138 140 139
f 138 156 157
f 138 157 140
f 141 157 142
f 142 157 158
f 142 158 159
f 142 159 143
f 143 159 144
f 144 159 160
f 144 160 145
f 145 160 146
f 146 160 161
f 146 161 147
f 147 161 162
f 147 162 163
f 147 163 148
f 148 163 150
f 148 150 149
f 150 163 162
f 150 162 164
f 150 164 151
f 151 164 165
f 151 165 166
f 151 166 153
f 151 153 152
f 153 166 167
f 154 168 165
f 154 165 169
f 154 169 155
f 155 169 170
f 155 170 156
f 156 170 159
f 156 159 158
f 156 158 157
f 159 170 171
f 159 171 160
f 160 165 161
f 160 171 169
f 160 169 165
f 161 165 162
f 162 165 164
f 165 168 166
f 166 168 172
f 166 172 167
f 169 171 170

