# https://github.com/mikedh/trimesh
v -0.09066292 -0.09920540 0.07992776
v -0.09066292 -0.09920540 0.08147314
v -0.09066292 -0.09917267 0.07385879
v -0.08773035 -0.13284777 0.10871016
v -0.09066292 -0.09886177 0.10871016
v -0.09066292 -0.09231656 0.07385879
v -0.08090943 -0.13605492 0.07385879
v -0.08632530 -0.13574402 0.08422618
v -0.08674192 -0.13649673 0.08712591
v -0.08717487 -0.13724943 0.09277186
v -0.08764866 -0.13284777 0.09842122
v -0.08769766 -0.13284777 0.10407400
v -0.08720754 -0.13729852 0.09842122
v -0.08764049 -0.13364956 0.10871016
v -0.09066292 -0.09303654 0.10871016
v -0.09066292 -0.09231656 0.08147314
v -0.08913535 0.01397765 0.08712591
v -0.08912720 0.01397765 0.08705427
v -0.08831849 0.01397765 0.08147314
v -0.08713402 0.00329260 0.07385879
v -0.07782164 -0.13836211 0.07385879
v -0.08139956 -0.13670945 0.07582378
v -0.08348258 -0.13739670 0.08199509
v -0.08346625 -0.13875482 0.08712591
v -0.06645890 -0.15155072 0.10357251
v -0.08720754 -0.13729852 0.10871016
v -0.07086186 -0.14858901 0.10858052
v -0.08913535 0.01397765 0.10871016
v -0.08688896 0.01397765 0.07805828
v -0.08687263 0.01397765 0.07802417
v -0.08644785 0.00615612 0.07385879
v -0.07781347 -0.13895118 0.07582378
v -0.04791582 -0.14850718 0.07385879
v -0.05534939 -0.15225432 0.08700310
v -0.06091231 -0.15189433 0.09263541
v -0.06297901 -0.15243432 0.09842122
v -0.06453924 -0.15276158 0.10512472
v -0.06458825 -0.15284339 0.10871016
v -0.07060863 -0.14871990 0.10871016
v -0.00721908 0.01397765 0.10871016
v -0.08373582 0.01397765 0.07385879
v -0.08443016 0.01221044 0.07385879
v -0.03261574 -0.15120709 0.07385879
v -0.03261574 -0.15192705 0.07476282
v -0.04392130 -0.15238523 0.07960367
v -0.04788314 -0.15279430 0.08327439
v -0.05355226 -0.15279430 0.08880776
v -0.05905801 -0.15279430 0.09442983
v -0.05731806 -0.15248340 0.09066700
v -0.06359983 -0.15259795 0.10135848
v -0.06015262 -0.15289248 0.09842122
v -0.06167201 -0.15305611 0.10871016
v -0.00721908 0.01397765 0.07739305
v -0.00721908 -0.15317065 0.10871016
v -0.07087819 0.01397765 0.07385879
v -0.02122033 -0.15042166 0.07385879
v -0.02696296 -0.15168161 0.07494363
v -0.02112230 -0.15189433 0.07605917
v -0.02696296 -0.15284339 0.07776831
v -0.03261574 -0.15284339 0.07758750
v -0.03678181 -0.15274521 0.07786042
v -0.04392130 -0.15289248 0.08242835
v -0.04392130 -0.15317065 0.08712591
v -0.04968027 -0.15294156 0.08700310
v -0.05534939 -0.15294156 0.09263541
v -0.05521052 -0.15317065 0.09842122
v -0.06094499 -0.15310520 0.10871016
v -0.00721908 -0.03702590 0.07385879
v -0.05521052 -0.15317065 0.10871016
v -0.00721908 -0.15317065 0.09557266
v -0.01672751 -0.14898171 0.07385879
v -0.00721908 -0.14867082 0.07725659
v -0.00997195 -0.15195979 0.08154137
v -0.01910461 -0.15253249 0.07911583
v -0.02287041 -0.15274521 0.07810263
v -0.01566557 -0.15289248 0.08261598
v -0.02696296 -0.15312156 0.08147314
v -0.03261574 -0.15312156 0.08147314
v -0.01566557 -0.15317065 0.08712591
v -0.00721908 -0.14387645 0.07385879
v -0.01001279 -0.15317065 0.09277186
v -0.00721908 -0.15294156 0.08977661
v -0.00721908 -0.15074893 0.08157208
v -0.00721908 -0.15191070 0.08421595
v -0.00806046 -0.15240158 0.08516774
v -0.01182626 -0.15279430 0.08347225
v -0.00997195 -0.15294156 0.08708157
v -0.00721908 -0.15284339 0.08839156
v -0.00721908 -0.15227068 0.08559076
v -0.00721908 -0.15256521 0.08676771
f 1 2 5
f 1 5 15
f 1 15 16
f 1 16 6
f 1 6 3
f 1 3 4
f 1 4 2
f 2 4 5
f 3 6 20
f 3 20 31
f 3 31 42
f 3 42 41
f 3 41 55
f 3 55 68
f 3 68 80
f 3 80 71
f 3 71 56
f 3 56 43
f 3 43 33
f 3 33 21
f 3 21 7
f 3 7 8
f 3 8 9
f 3 9 10
f 3 10 11
f 3 11 12
f 3 12 4
f 4 12 10
f 4 10 13
f 4 13 14
f 4 14 26
f 4 26 39
f 4 39 38
f 4 38 52
f 4 52 67
f 4 67 69
f 4 69 54
f 4 54 40
f 4 40 28
f 4 28 15
f 4 15 5
f 6 16 28
f 6 28 17
f 6 17 18
f 6 18 19
f 6 19 20
f 7 21 22
f 7 22 8
f 8 22 23
f 8 23 9
f 9 23 24
f 9 24 10
f 10 24 25
f 10 25 13
f 10 12 11
f 13 26 14
f 13 25 27
f 13 27 26
f 15 28 16
f 17 28 40
f 17 40 53
f 17 53 55
f 17 55 41
f 17 41 30
f 17 30 29
f 17 29 19
f 17 19 18
f 19 29 20
f 20 29 30
f 20 30 31
f 21 32 23
f 21 23 22
f 21 33 34
f 21 34 35
f 21 35 32
f 23 32 24
f 24 32 36
f 24 36 25
f 25 36 37
f 25 37 38
f 25 38 27
f 26 27 39
f 27 38 39
f 30 41 42
f 30 42 31
f 32 35 36
f 33 43 44
f 33 44 45
f 33 45 34
f 34 45 46
f 34 46 47
f 34 47 48
f 34 48 49
f 34 49 35
f 35 49 48
f 35 48 36
f 36 48 50
f 36 50 37
f 37 50 48
f 37 48 51
f 37 51 52
f 37 52 38
f 40 54 70
f 40 70 82
f 40 82 88
f 40 88 90
f 40 90 89
f 40 89 84
f 40 84 83
f 40 83 72
f 40 72 80
f 40 80 68
f 40 68 53
f 43 56 57
f 43 57 44
f 44 57 58
f 44 58 59
f 44 59 60
f 44 60 61
f 44 61 45
f 45 61 46
f 46 61 62
f 46 62 63
f 46 63 64
f 46 64 47
f 47 64 65
f 47 65 48
f 48 65 51
f 51 65 66
f 51 66 67
f 51 67 52
f 53 68 55
f 54 69 66
f 54 66 63
f 54 63 79
f 54 79 81
f 54 81 70
f 56 58 57
f 56 71 72
f 56 72 58
f 58 72 73
f 58 73 74
f 58 74 75
f 58 75 59
f 59 75 76
f 59 76 77
f 59 77 60
f 60 62 61
f 60 77 78
f 60 78 62
f 62 78 63
f 63 66 65
f 63 65 64
f 63 78 77
f 63 77 79
f 66 69 67
f 70 81 82
f 71 80 72
f 72 83 73
f 73 84 85
f 73 85 86
f 73 86 74
f 73 83 84
f 74 86 75
f 75 86 76
f 76 86 79
f 76 79 77
f 79 86 87
f 79 87 82
f 79 82 81
f 82 87 88
f 84 89 85
f 85 89 90
f 85 90 86
f 86 88 87
f 86 90 88

