# https://github.com/mikedh/trimesh
v 0.05398297 0.00071084 0.05450403
v 0.05398297 -0.00605775 0.07385879
v 0.05398297 0.00071084 0.04439173
v 0.04633303 0.00071084 0.07385879
v 0.05398297 -0.01840615 0.07385879
v 0.05398297 -0.00854335 0.04439173
v -0.00303156 0.00071084 0.03174415
v 0.01485579 0.00071084 0.07385879
v 0.05292548 -0.01940153 0.07385879
v 0.05398297 -0.02048792 0.04705482
v 0.05398297 -0.01424830 0.04443708
v -0.00309906 -0.01536882 0.03174415
v -0.00308781 -0.01419143 0.03174415
v -0.00303156 -0.00288959 0.03174415
v -0.06092358 0.00071084 0.03174415
v -0.06093482 0.00071084 0.05360534
v -0.06093482 -0.03033365 0.07385879
v 0.04616428 -0.02390065 0.07385879
v 0.05047300 -0.02329205 0.05116487
v 0.05398297 -0.01801938 0.04459785
v 0.05047300 -0.02329205 0.04852652
v 0.04925801 -0.02260950 0.04475863
v -0.00374030 -0.01873605 0.03174415
v -0.06093482 -0.00315692 0.03174415
v -0.06093482 0.00071084 0.03174827
v -0.06093482 -0.04831307 0.07385879
v 0.04536554 -0.02433862 0.07385879
v 0.02107699 -0.03962198 0.05041459
v -0.01536145 -0.03286476 0.03174415
v -0.00653028 -0.02471402 0.03174415
v 0.02107699 -0.03962198 0.05034863
v 0.01002958 -0.04540656 0.04977973
v -0.00102907 -0.05117408 0.04930978
v 0.03816560 -0.02838271 0.04470092
v -0.06093482 -0.01934465 0.03174415
v -0.05402738 -0.05186231 0.05161009
v -0.04149499 -0.05667426 0.05057948
v -0.04882992 -0.05279512 0.07385879
v -0.06093482 -0.04760777 0.05327967
v 0.00128841 -0.04753952 0.07385879
v 0.01002958 -0.04540656 0.05099585
v 0.02701694 -0.03409904 0.04466381
v 0.01585704 -0.03979830 0.04463908
v 0.00469713 -0.04548619 0.04463083
v -0.00647403 -0.05108307 0.04463908
v -0.02712886 -0.03738095 0.03174415
v -0.00102907 -0.05117408 0.05078561
v -0.01737519 -0.05691884 0.04895937
v -0.00449404 -0.05174287 0.04748355
v -0.00271656 -0.04978054 0.04554189
v -0.06093482 -0.04532124 0.04472977
v -0.06082233 -0.01980537 0.03174415
v -0.05386988 -0.05174855 0.04757012
v -0.04149499 -0.05667426 0.04987455
v -0.03825502 -0.05708379 0.05113189
v -0.03825502 -0.05487689 0.07385879
v -0.04390247 -0.05403508 0.07385879
v -0.06093482 -0.04700486 0.04711253
v -0.00963525 -0.05276668 0.07385879
v -0.02130141 -0.05539449 0.04525744
v -0.03099882 -0.05628749 0.04481634
v -0.03476754 -0.05657757 0.04473389
v -0.03249506 -0.03768241 0.03174415
v -0.01737519 -0.05691884 0.05093401
v -0.02130141 -0.05715205 0.04808130
v -0.05812235 -0.02296215 0.03174415
v -0.05273365 -0.05107738 0.04464320
v -0.03551003 -0.05657757 0.04473389
v -0.03773752 -0.05698710 0.04782159
v -0.03260756 -0.05738525 0.05157711
v -0.03277631 -0.05723168 0.04705069
v -0.03260756 -0.05521248 0.07385879
v -0.01024275 -0.05297714 0.07385879
v -0.02696011 -0.05727718 0.04780510
v -0.03360880 -0.03767103 0.03174415
v -0.01117649 -0.05322740 0.07385879
v -0.01692519 -0.05443893 0.07385879
v -0.02130141 -0.05501340 0.07385879
v -0.02213390 -0.05508734 0.07385879
v -0.02130141 -0.05715205 0.05133801
v -0.04511746 -0.03206846 0.03174415
v -0.02696011 -0.05727718 0.05151527
v -0.02696011 -0.05534899 0.07385879
f 1 2 5
f 1 5 10
f 1 10 20
f 1 20 11
f 1 11 6
f 1 6 3
f 1 3 7
f 1 7 15
f 1 15 25
f 1 25 16
f 1 16 8
f 1 8 4
f 1 4 2
f 2 4 8
f 2 8 17
f 2 17 26
f 2 26 38
f 2 38 57
f 2 57 56
f 2 56 72
f 2 72 83
f 2 83 79
f 2 79 78
f 2 78 77
f 2 77 76
f 2 76 73
f 2 73 59
f 2 59 40
f 2 40 27
f 2 27 18
f 2 18 9
f 2 9 5
f 3 6 14
f 3 14 7
f 5 9 10
f 6 11 12
f 6 12 13
f 6 13 14
f 7 14 13
f 7 13 12
f 7 12 23
f 7 23 30
f 7 30 29
f 7 29 46
f 7 46 63
f 7 63 75
f 7 75 81
f 7 81 66
f 7 66 52
f 7 52 35
f 7 35 24
f 7 24 15
f 8 16 17
f 9 18 19
f 9 19 10
f 10 19 21
f 10 21 22
f 10 22 20
f 11 20 23
f 11 23 12
f 15 24 25
f 16 25 24
f 16 24 35
f 16 35 51
f 16 51 58
f 16 58 39
f 16 39 26
f 16 26 17
f 18 27 28
f 18 28 19
f 19 28 31
f 19 31 21
f 20 22 29
f 20 29 30
f 20 30 23
f 21 31 32
f 21 32 33
f 21 33 22
f 22 33 34
f 22 34 29
f 26 36 37
f 26 37 38
f 26 39 36
f 27 40 41
f 27 41 28
f 28 41 32
f 28 32 31
f 29 34 42
f 29 42 43
f 29 43 44
f 29 44 45
f 29 45 46
f 32 41 47
f 32 47 33
f 33 47 64
f 33 64 48
f 33 48 49
f 33 49 45
f 33 45 50
f 33 50 44
f 33 44 43
f 33 43 42
f 33 42 34
f 35 52 51
f 36 53 54
f 36 54 37
f 36 39 53
f 37 54 55
f 37 55 56
f 37 56 57
f 37 57 38
f 39 58 53
f 40 47 41
f 40 59 47
f 44 50 45
f 45 49 48
f 45 48 60
f 45 60 46
f 46 60 61
f 46 61 62
f 46 62 63
f 47 59 64
f 48 64 80
f 48 80 65
f 48 65 60
f 51 52 66
f 51 66 67
f 51 67 58
f 53 67 54
f 53 58 67
f 54 67 68
f 54 68 69
f 54 69 55
f 55 70 56
f 55 69 71
f 55 71 70
f 56 70 72
f 59 73 64
f 60 65 61
f 61 65 62
f 62 65 74
f 62 74 71
f 62 71 68
f 62 68 63
f 63 68 75
f 64 73 76
f 64 76 77
f 64 77 78
f 64 78 79
f 64 79 80
f 65 80 82
f 65 82 74
f 66 81 67
f 67 81 75
f 67 75 68
f 68 71 69
f 70 71 74
f 70 74 82
f 70 82 83
f 70 83 72
f 79 83 80
f 80 83 82

