# https://github.com/mikedh/trimesh
v -0.20211722 0.11011717 -0.00449848
v -0.20211722 0.10590840 -0.00235086
v -0.20776895 0.10597683 -0.00217445
v -0.20776895 0.11011717 -0.00403060
v -0.20776895 0.11576795 -0.00244290
v -0.20211722 0.11576795 -0.00277271
v -0.19646551 0.11576795 -0.00241989
v -0.19081378 0.11576795 -0.00202104
v -0.17952303 0.11527424 -0.00120036
v -0.17387130 0.11438458 -0.00083986
v -0.19646551 0.11011717 -0.00393089
v -0.17031047 0.10710602 -0.00058675
v -0.17387130 0.10679317 -0.00083219
v -0.17952303 0.10641189 -0.00118502
v -0.18517474 0.10612348 -0.00153784
v -0.08519256 0.06880676 0.02139562
v -0.18517474 0.06880676 0.02135728
v -0.18993941 0.06880676 0.02154135
v -0.21157054 0.10646077 -0.00139977
v -0.21207744 0.11011717 -0.00188299
v -0.21136779 0.11576795 -0.00120036
v -0.21063282 0.11861780 -0.00049470
v -0.20776895 0.11864712 -0.00057908
v -0.20211722 0.11866667 -0.00063277
v -0.19646551 0.11866667 -0.00060209
v -0.19081378 0.11865690 -0.00055607
v -0.18715157 0.11862756 -0.00050238
v -0.18522543 0.11626655 -0.00136909
v -0.16472211 0.11864223 0.00503541
v -0.17027246 0.11352915 -0.00059441
v -0.19081378 0.11011717 -0.00330962
v -0.18517474 0.11011717 -0.00264232
v -0.17387130 0.11011717 -0.00121569
v -0.16991764 0.11011717 -0.00065578
v -0.16709178 0.11011717 -0.00004985
v -0.08519256 0.09317457 0.02139562
v -0.08519256 0.06880676 0.06351188
v -0.20776895 0.06880676 0.02937248
v -0.20946699 0.06880676 0.03062270
v -0.21444709 0.11011717 0.00236622
v -0.21272369 0.11576795 0.00236622
v -0.21073419 0.11864712 0.00236622
v -0.20776895 0.11872044 0.00236622
v -0.20211722 0.11874489 0.00236622
v -0.19646551 0.11874489 0.00236622
v -0.19081378 0.11873022 0.00236622
v -0.16821959 0.11866667 0.00488200
v -0.16821959 0.11874489 0.00801905
v -0.16273261 0.11868134 0.00818012
v -0.15957727 0.11864223 0.01017434
v -0.16094586 0.11830983 0.00640834
v -0.16273261 0.11616391 0.00370848
v -0.08519256 0.09685540 0.02177146
v -0.08519256 0.09282751 0.07385879
v -0.08912089 0.06880676 0.06428656
v -0.20992319 0.06880676 0.03626785
v -0.21464984 0.11011717 0.00801905
v -0.21286309 0.11576795 0.00801905
v -0.21077222 0.11866667 0.00801905
v -0.20776895 0.11873999 0.00801905
v -0.20211722 0.11874489 0.00801905
v -0.16256786 0.11874489 0.01367188
v -0.13997367 0.11873511 0.04756584
v -0.14041719 0.11867645 0.04237322
v -0.13709712 0.11863245 0.04456686
v -0.08519256 0.10152855 0.03062270
v -0.08519256 0.09961726 0.02496987
v -0.15313989 0.06880676 0.07385879
v -0.08519256 0.10080998 0.07385879
v -0.20595684 0.06880676 0.05347945
v -0.21151985 0.11576795 0.01190777
v -0.19754263 0.06880676 0.07385879
v -0.21068351 0.11863735 0.01095669
v -0.17952303 0.11874489 0.03062270
v -0.18517474 0.11874489 0.02496987
v -0.20724939 0.11867156 0.01317333
v -0.15691615 0.11874489 0.05321867
v -0.14562540 0.11874489 0.04191301
v -0.14562540 0.11874489 0.05321867
v -0.14026513 0.11868134 0.05292721
v -0.13707177 0.11864223 0.05084863
v -0.13704643 0.11866178 0.04756584
v -0.08519256 0.10153344 0.03234846
v -0.08519256 0.10154321 0.05321867
v -0.14234334 0.11864223 0.05644777
v -0.14809643 0.11863735 0.06175544
v -0.15126444 0.11862756 0.06174777
v -0.17190714 0.09878626 0.07385879
v -0.17801506 0.09733445 0.07385879
v -0.20503178 0.11862756 0.01657116
v -0.15997011 0.11864223 0.05620999
v -0.16213702 0.11868134 0.05278915
v -0.15635859 0.11865690 0.05840363
v -0.15126444 0.11870089 0.05886383
v -0.14598021 0.11867645 0.05854936
v -0.08519256 0.10153833 0.03626785
v -0.15411563 0.11859824 0.06170175
v -0.17387130 0.09873737 0.07385879
v -0.17658312 0.09782816 0.07385879
v -0.19930404 0.11859824 0.02215496
f 1 2 3
f 1 3 4
f 1 4 5
f 1 5 6
f 1 6 7
f 1 7 8
f 1 8 9
f 1 9 10
f 1 10 11
f 1 11 12
f 1 12 13
f 1 13 14
f 1 14 15
f 1 15 16
f 1 16 2
f 2 17 18
f 2 18 3
f 2 16 17
f 3 19 4
f 3 18 19
f 4 19 20
f 4 20 21
f 4 21 5
f 5 21 22
f 5 22 6
f 6 22 23
f 6 23 24
f 6 24 25
f 6 25 26
f 6 26 27
f 6 27 7
f 7 27 8
f 8 27 28
f 8 28 9
f 9 28 27
f 9 27 10
f 10 29 30
f 10 30 11
f 10 27 29
f 11 31 12
f 11 30 31
f 12 31 32
f 12 32 33
f 12 33 34
f 12 34 35
f 12 35 16
f 12 16 13
f 13 16 14
f 14 16 15
f 16 36 53
f 16 53 67
f 16 67 66
f 16 66 83
f 16 83 96
f 16 96 84
f 16 84 69
f 16 69 54
f 16 54 37
f 16 37 55
f 16 55 68
f 16 68 72
f 16 72 70
f 16 70 56
f 16 56 39
f 16 39 38
f 16 38 18
f 16 18 17
f 16 35 36
f 18 38 19
f 19 38 39
f 19 39 40
f 19 40 20
f 20 40 21
f 21 40 41
f 21 41 22
f 22 41 42
f 22 42 43
f 22 43 23
f 23 43 44
f 23 44 24
f 24 44 45
f 24 45 25
f 25 45 26
f 26 45 46
f 26 46 47
f 26 47 27
f 27 47 29
f 29 47 48
f 29 48 49
f 29 49 50
f 29 50 51
f 29 51 52
f 29 52 30
f 30 35 34
f 30 34 33
f 30 33 32
f 30 32 31
f 30 52 53
f 30 53 35
f 35 53 36
f 37 54 55
f 39 56 40
f 40 57 41
f 40 56 57
f 41 57 58
f 41 58 42
f 42 59 43
f 42 58 59
f 43 59 60
f 43 60 44
f 44 60 61
f 44 61 75
f 44 75 74
f 44 74 77
f 44 77 79
f 44 79 78
f 44 78 62
f 44 62 48
f 44 48 45
f 45 48 46
f 46 48 47
f 48 62 49
f 49 62 63
f 49 63 64
f 49 64 50
f 50 64 65
f 50 65 66
f 50 66 51
f 51 66 67
f 51 67 53
f 51 53 52
f 54 68 55
f 54 69 88
f 54 88 98
f 54 98 99
f 54 99 89
f 54 89 72
f 54 72 68
f 56 70 57
f 57 71 58
f 57 70 72
f 57 72 71
f 58 71 73
f 58 73 59
f 59 73 60
f 60 74 75
f 60 75 61
f 60 73 76
f 60 76 77
f 60 77 74
f 62 78 63
f 63 78 79
f 63 79 80
f 63 80 81
f 63 81 82
f 63 82 65
f 63 65 64
f 65 82 66
f 66 82 83
f 69 84 81
f 69 81 85
f 69 85 86
f 69 86 87
f 69 87 88
f 71 72 73
f 72 89 73
f 73 90 76
f 73 89 90
f 76 90 91
f 76 91 92
f 76 92 77
f 77 92 93
f 77 93 94
f 77 94 79
f 79 95 80
f 79 94 95
f 80 95 85
f 80 85 81
f 81 84 82
f 82 84 96
f 82 96 83
f 85 95 86
f 86 95 94
f 86 94 87
f 87 94 97
f 87 97 98
f 87 98 88
f 89 99 97
f 89 97 100
f 89 100 90
f 90 100 91
f 91 97 93
f 91 93 92
f 91 100 97
f 93 97 94
f 97 99 98

