# https://github.com/mikedh/trimesh
v 0.02818484 0.12883010 0.07385879
v 0.09531502 0.10036131 0.07987078
v 0.09363256 0.10036131 0.08270215
v 0.09294275 0.10036131 0.08389860
v 0.09112569 0.10036131 0.08712382
v 0.08920768 0.10036131 0.09072062
v 0.02818484 0.11823876 0.12642846
v 0.02818484 0.14004231 0.07385879
v 0.10073254 0.10036131 0.07385879
v 0.10002591 0.10036131 0.07457963
v 0.09814155 0.10036131 0.07651179
v 0.08890484 0.10036131 0.09148605
v 0.02818484 0.11749615 0.13055288
v 0.02818484 0.16253369 0.14067444
v 0.02946352 0.16253369 0.13790253
v 0.02959811 0.16253369 0.13767215
v 0.03479691 0.16253369 0.13212834
v 0.03486421 0.16253369 0.13206889
v 0.04088742 0.16253369 0.12709728
v 0.04650684 0.16253369 0.12551440
v 0.05214308 0.16253369 0.12497191
v 0.13123554 0.14474753 0.07582811
v 0.13123554 0.14386493 0.07385879
v 0.19654866 0.10036131 0.07385879
v 0.08811408 0.10036131 0.09354455
v 0.02818484 0.11719180 0.14977790
v 0.08659987 0.10036131 0.09842697
v 0.08624655 0.10036131 0.09996527
v 0.08530438 0.10036131 0.10407483
v 0.04672556 0.11037439 0.14977790
v 0.02818484 0.16253369 0.14977790
v 0.05779615 0.16253369 0.12497191
v 0.14254168 0.14503972 0.07582811
v 0.14254168 0.14413884 0.07385879
v 0.19335198 0.12707705 0.07385879
v 0.19843301 0.10036131 0.07623684
v 0.08511931 0.10036131 0.10561313
v 0.08466504 0.10036131 0.10973012
v 0.08471552 0.10036131 0.11537055
v 0.08527073 0.10036131 0.12102584
v 0.08562404 0.10036131 0.12255670
v 0.08658304 0.10036131 0.12667370
v 0.08818138 0.10036131 0.13131832
v 0.08846740 0.10036131 0.13208375
v 0.08927498 0.10036131 0.13414225
v 0.09099109 0.10036131 0.13797684
v 0.09164725 0.10036131 0.13915101
v 0.09341383 0.10036131 0.14230191
v 0.09560103 0.10036131 0.14513328
v 0.09842757 0.10036131 0.14861117
v 0.09938657 0.10036131 0.14977790
v 0.08582594 0.16253369 0.14977790
v 0.06307907 0.16253369 0.12544752
v 0.15384781 0.14550232 0.08147596
v 0.18209632 0.13998752 0.07385879
v 0.06344922 0.16253369 0.12551440
v 0.06834517 0.16253369 0.12685205
v 0.19235933 0.13271967 0.07385879
v 0.19335198 0.13271967 0.07582811
v 0.19597662 0.12707705 0.07912765
v 0.19733942 0.12707705 0.08195157
v 0.20003136 0.10036131 0.08131247
v 0.18221410 0.10036131 0.14977790
v 0.08567452 0.16253369 0.14874493
v 0.18209632 0.13997535 0.14977790
v 0.18774939 0.13982317 0.14362470
v 0.17079019 0.14544145 0.12667370
v 0.17644326 0.14467450 0.12102584
v 0.17079019 0.14589189 0.11537055
v 0.17079019 0.14589797 0.10973012
v 0.17079019 0.14578841 0.10407483
v 0.16515395 0.14510667 0.08712382
v 0.06906863 0.16253369 0.12709728
v 0.18774939 0.13989013 0.08147596
v 0.18774939 0.13892839 0.07582811
v 0.18778304 0.13833796 0.07385879
v 0.19165270 0.13467359 0.07385879
v 0.19550554 0.13271967 0.08015318
v 0.19685150 0.13271967 0.08298454
v 0.19752449 0.13271967 0.08712382
v 0.20004818 0.10036131 0.08147596
v 0.18229822 0.10036131 0.14970358
v 0.19039085 0.13271967 0.14977790
v 0.08441267 0.16253369 0.14530420
v 0.17079019 0.14547189 0.09842697
v 0.18790081 0.13810665 0.14977790
v 0.19340246 0.13875796 0.13797684
v 0.19340246 0.13942143 0.13232155
v 0.19340246 0.13943361 0.12667370
v 0.19340246 0.13943361 0.09842697
v 0.17644326 0.14454667 0.10407483
v 0.16515395 0.14579449 0.09277911
v 0.07507502 0.16253369 0.13211348
v 0.07806980 0.16253369 0.13471446
v 0.19340246 0.13938491 0.09277911
v 0.19340246 0.13869708 0.08712382
v 0.19348658 0.13733360 0.08192185
v 0.19148445 0.13668230 0.07582811
v 0.19097972 0.13609186 0.07385879
v 0.19631312 0.13572664 0.08410668
v 0.19671690 0.13645099 0.08712382
v 0.19765909 0.13271967 0.10973012
v 0.19710388 0.13713273 0.09277911
v 0.19715433 0.13718143 0.09842697
v 0.19764225 0.13271967 0.11537055
v 0.19760860 0.13271967 0.12102584
v 0.19754131 0.13271967 0.13232155
v 0.19410909 0.10036131 0.13180879
v 0.18239917 0.10036131 0.14958468
v 0.19028991 0.13424141 0.14977790
v 0.19247711 0.10036131 0.13661690
v 0.19153493 0.13271967 0.14810583
v 0.19631312 0.13575708 0.14096426
v 0.08035794 0.16253369 0.13769445
v 0.18808589 0.13801534 0.14977790
v 0.19335198 0.13729708 0.14315653
v 0.19675055 0.13651186 0.13797684
v 0.19713753 0.13716925 0.13232155
v 0.19715433 0.13718143 0.12667370
v 0.19680104 0.13284750 0.13812547
v 0.19395767 0.10036131 0.13235871
v 0.19631312 0.13481360 0.14096426
v 0.19143398 0.13674925 0.14786803
f 1 2 3
f 1 3 4
f 1 4 5
f 1 5 6
f 1 6 7
f 1 7 13
f 1 13 26
f 1 26 31
f 1 31 14
f 1 14 8
f 1 8 23
f 1 23 34
f 1 34 55
f 1 55 76
f 1 76 99
f 1 99 77
f 1 77 58
f 1 58 35
f 1 35 24
f 1 24 9
f 1 9 10
f 1 10 11
f 1 11 2
f 2 11 10
f 2 10 9
f 2 9 24
f 2 24 36
f 2 36 62
f 2 62 81
f 2 81 108
f 2 108 121
f 2 121 111
f 2 111 109
f 2 109 82
f 2 82 63
f 2 63 51
f 2 51 50
f 2 50 49
f 2 49 48
f 2 48 47
f 2 47 46
f 2 46 45
f 2 45 44
f 2 44 43
f 2 43 42
f 2 42 41
f 2 41 40
f 2 40 39
f 2 39 38
f 2 38 37
f 2 37 29
f 2 29 28
f 2 28 27
f 2 27 25
f 2 25 12
f 2 12 6
f 2 6 5
f 2 5 4
f 2 4 3
f 6 12 13
f 6 13 7
f 8 14 15
f 8 15 16
f 8 16 17
f 8 17 18
f 8 18 19
f 8 19 20
f 8 20 21
f 8 21 22
f 8 22 23
f 12 25 13
f 13 25 27
f 13 27 28
f 13 28 29
f 13 29 30
f 13 30 26
f 14 31 52
f 14 52 64
f 14 64 84
f 14 84 114
f 14 114 94
f 14 94 93
f 14 93 73
f 14 73 57
f 14 57 56
f 14 56 53
f 14 53 32
f 14 32 21
f 14 21 20
f 14 20 19
f 14 19 18
f 14 18 17
f 14 17 16
f 14 16 15
f 21 32 33
f 21 33 22
f 22 33 23
f 23 33 34
f 24 35 36
f 26 30 51
f 26 51 63
f 26 63 83
f 26 83 110
f 26 110 115
f 26 115 86
f 26 86 65
f 26 65 52
f 26 52 31
f 29 37 30
f 30 37 38
f 30 38 39
f 30 39 40
f 30 40 41
f 30 41 42
f 30 42 43
f 30 43 44
f 30 44 45
f 30 45 46
f 30 46 47
f 30 47 48
f 30 48 49
f 30 49 50
f 30 50 51
f 32 53 33
f 33 54 55
f 33 55 34
f 33 53 56
f 33 56 57
f 33 57 54
f 35 58 59
f 35 59 60
f 35 60 36
f 36 61 62
f 36 60 61
f 52 65 66
f 52 66 67
f 52 67 68
f 52 68 69
f 52 69 70
f 52 70 71
f 52 71 64
f 54 72 55
f 54 57 73
f 54 73 72
f 55 74 75
f 55 75 76
f 55 72 74
f 58 77 59
f 59 77 78
f 59 78 60
f 60 78 61
f 61 79 80
f 61 80 62
f 61 78 79
f 62 80 81
f 63 82 83
f 64 71 85
f 64 85 84
f 65 86 66
f 66 86 87
f 66 87 88
f 66 88 68
f 66 68 67
f 68 88 89
f 68 89 90
f 68 90 91
f 68 91 70
f 68 70 69
f 70 91 71
f 71 91 85
f 72 92 85
f 72 85 74
f 72 73 93
f 72 93 94
f 72 94 92
f 74 85 91
f 74 91 95
f 74 95 96
f 74 96 75
f 75 96 97
f 75 97 76
f 76 97 98
f 76 98 99
f 77 99 100
f 77 100 78
f 78 100 79
f 79 101 80
f 79 100 101
f 80 102 81
f 80 101 103
f 80 103 104
f 80 104 102
f 81 102 105
f 81 105 106
f 81 106 107
f 81 107 108
f 82 109 83
f 83 109 111
f 83 111 112
f 83 112 113
f 83 113 110
f 84 85 114
f 85 92 114
f 86 115 87
f 87 116 117
f 87 117 118
f 87 118 88
f 87 115 116
f 88 118 119
f 88 119 89
f 89 119 104
f 89 104 90
f 90 104 95
f 90 95 91
f 92 94 114
f 95 104 103
f 95 103 96
f 96 103 101
f 96 101 97
f 97 101 100
f 97 100 98
f 98 100 99
f 102 104 119
f 102 119 105
f 105 119 118
f 105 118 106
f 106 118 107
f 107 118 117
f 107 117 120
f 107 120 108
f 108 120 122
f 108 122 121
f 110 113 123
f 110 123 115
f 111 121 122
f 111 122 112
f 112 122 113
f 113 122 120
f 113 120 117
f 113 117 116
f 113 116 123
f 115 123 116

