# https://github.com/mikedh/trimesh
v 0.08040566 0.09881980 -0.01606704
v 0.04949307 0.06881045 -0.01260768
v 0.07475405 0.09881980 -0.01579417
v 0.07475405 0.10406117 -0.01405128
v 0.08040566 0.10409076 -0.01418331
v 0.08605727 0.10408336 -0.01416571
v 0.08605727 0.09881980 -0.01598782
v 0.10866371 0.06881045 -0.01260768
v 0.04949307 0.06881045 0.03158942
v 0.04949307 0.09881980 -0.01300378
v 0.04949307 0.10314013 -0.01247564
v 0.06910244 0.10632861 -0.00892825
v 0.07475405 0.10650986 -0.00892825
v 0.04949307 0.10558882 -0.00892825
v 0.08040566 0.10653944 -0.00892825
v 0.08605727 0.10653205 -0.00892825
v 0.15384804 0.10659123 -0.00524883
v 0.11424396 0.08187135 -0.01217635
v 0.11425823 0.07621939 -0.01217635
v 0.11425823 0.06881045 -0.01217635
v 0.11040486 0.06881045 -0.01247564
v 0.04949307 0.07434404 0.05321705
v 0.15792976 0.06881045 0.06386801
v 0.04949307 0.10654315 -0.00327708
v 0.12558999 0.10659123 -0.00523122
v 0.15949965 0.10659123 -0.00405170
v 0.15949965 0.10446805 -0.00406050
v 0.15384804 0.06881045 -0.00524883
v 0.11708403 0.07621939 -0.01174504
v 0.11706976 0.08187135 -0.01173624
v 0.11514308 0.06881045 -0.01204432
v 0.04949307 0.07670025 0.05832247
v 0.15949965 0.06881045 0.06432573
v 0.12558999 0.07603815 0.07385879
v 0.04949307 0.10659123 0.01421339
v 0.11995265 0.10659123 -0.00383164
v 0.16269652 0.10659123 -0.00153420
v 0.19526463 0.09685197 0.02177469
v 0.19526463 0.09563133 0.02164265
v 0.19526463 0.09316785 0.02139619
v 0.19526463 0.06881045 0.02019025
v 0.15949965 0.06881045 -0.00406050
v 0.11708403 0.06881045 -0.01174504
v 0.04949307 0.07943376 0.05952840
v 0.11995265 0.07668916 0.07385879
v 0.11029068 0.07792090 0.07385879
v 0.10795012 0.07896029 0.07385879
v 0.16338156 0.06881045 0.06445777
v 0.13124160 0.07592348 0.07385879
v 0.04949307 0.10659123 0.05279453
v 0.19356630 0.10659123 0.07385879
v 0.19526463 0.10152741 0.03061235
v 0.19526463 0.09961507 0.02496998
v 0.19526463 0.06881045 0.06462502
v 0.04949307 0.08187135 0.06060230
v 0.10305491 0.08197862 0.07385879
v 0.17468479 0.06881045 0.06462502
v 0.13686467 0.07587169 0.07385879
v 0.04949307 0.10655424 0.05321705
v 0.10072862 0.10659123 0.07385879
v 0.19526463 0.10071364 0.07385879
v 0.19526463 0.10154591 0.05321705
v 0.19526463 0.10154591 0.05134212
v 0.19526463 0.10153851 0.03626352
v 0.19526463 0.09330471 0.07385879
v 0.17517003 0.08123883 0.07385879
v 0.17081714 0.07962610 0.07385879
v 0.16837667 0.07924881 0.07385879
v 0.14809653 0.07646353 0.07385879
v 0.14253055 0.07589389 0.07385879
v 0.04949307 0.09881980 0.06060230
v 0.10072862 0.08752329 0.07385879
v 0.04949307 0.10539278 0.05562891
v 0.04949307 0.10406857 0.05832247
f 1 2 3
f 1 3 4
f 1 4 5
f 1 5 6
f 1 6 7
f 1 7 8
f 1 8 2
f 2 9 22
f 2 22 32
f 2 32 44
f 2 44 55
f 2 55 71
f 2 71 74
f 2 74 73
f 2 73 59
f 2 59 50
f 2 50 35
f 2 35 24
f 2 24 14
f 2 14 11
f 2 11 10
f 2 10 3
f 2 8 21
f 2 21 20
f 2 20 31
f 2 31 43
f 2 43 28
f 2 28 42
f 2 42 41
f 2 41 54
f 2 54 57
f 2 57 48
f 2 48 33
f 2 33 23
f 2 23 9
f 3 10 11
f 3 11 4
f 4 12 13
f 4 13 5
f 4 11 14
f 4 14 12
f 5 15 16
f 5 16 6
f 5 13 15
f 6 16 17
f 6 17 7
f 7 18 19
f 7 19 20
f 7 20 21
f 7 21 8
f 7 17 18
f 9 23 22
f 12 14 24
f 12 24 13
f 13 24 15
f 15 24 25
f 15 25 17
f 15 17 16
f 17 25 36
f 17 36 35
f 17 35 50
f 17 50 60
f 17 60 51
f 17 51 37
f 17 37 26
f 17 26 27
f 17 27 42
f 17 42 28
f 17 28 43
f 17 43 29
f 17 29 30
f 17 30 18
f 18 30 29
f 18 29 31
f 18 31 19
f 19 31 20
f 22 23 33
f 22 33 34
f 22 34 32
f 24 35 36
f 24 36 25
f 26 37 38
f 26 38 39
f 26 39 40
f 26 40 41
f 26 41 27
f 27 41 42
f 29 43 31
f 32 34 45
f 32 45 46
f 32 46 47
f 32 47 44
f 33 48 34
f 34 48 49
f 34 49 58
f 34 58 70
f 34 70 69
f 34 69 68
f 34 68 67
f 34 67 66
f 34 66 65
f 34 65 61
f 34 61 51
f 34 51 60
f 34 60 72
f 34 72 56
f 34 56 47
f 34 47 46
f 34 46 45
f 37 51 52
f 37 52 53
f 37 53 38
f 38 53 52
f 38 52 64
f 38 64 63
f 38 63 62
f 38 62 61
f 38 61 65
f 38 65 54
f 38 54 41
f 38 41 40
f 38 40 39
f 44 47 55
f 47 56 55
f 48 57 49
f 49 57 58
f 50 59 60
f 51 61 62
f 51 62 63
f 51 63 64
f 51 64 52
f 54 65 66
f 54 66 67
f 54 67 68
f 54 68 69
f 54 69 70
f 54 70 58
f 54 58 57
f 55 56 72
f 55 72 60
f 55 60 71
f 59 73 60
f 60 73 74
f 60 74 71

