# https://github.com/mikedh/trimesh
v 0.20996266 -0.09917068 0.07385879
v 0.23296112 -0.09920392 0.07385879
v 0.20996266 -0.09917068 0.07568732
v 0.20996266 -0.09231188 0.07385879
v 0.25557197 -0.09920392 0.07385879
v 0.21036021 -0.09915960 0.10871016
v 0.20996266 -0.09915960 0.08673019
v 0.20996266 -0.09231188 0.08147314
v 0.23062550 -0.04244983 0.07385879
v 0.26120730 -0.09917068 0.07385879
v 0.27816293 -0.09915960 0.09277186
v 0.27816293 -0.09915960 0.10871016
v 0.20996266 -0.09909313 0.10871016
v 0.20996266 -0.09240052 0.10871016
v 0.23146036 -0.04244983 0.10871016
v 0.23372642 -0.03829466 0.10871016
v 0.23196724 -0.04025590 0.07385879
v 0.28380819 -0.09911529 0.09277186
v 0.28185025 -0.09890476 0.07385879
v 0.28380819 -0.09888259 0.09842122
v 0.28380819 -0.09836181 0.10407400
v 0.28407655 -0.09763050 0.10871016
v 0.23313009 -0.03837222 0.07385879
v 0.27606584 0.01399402 0.10871016
v 0.28380819 -0.09886043 0.07385879
v 0.28919505 -0.09755294 0.08712591
v 0.28869811 -0.09759726 0.09277186
v 0.28795269 -0.09736457 0.09842122
v 0.28726691 -0.09683271 0.10407400
v 0.28536860 -0.09697675 0.10871016
v 0.27881891 0.01399402 0.09835641
v 0.28026997 0.01399402 0.09294244
v 0.28538847 0.01399402 0.07385879
v 0.30215528 0.01399402 0.10871016
v 0.28652150 -0.09795183 0.07385879
v 0.28796263 -0.09745321 0.07385879
v 0.29200774 -0.09373018 0.08746024
v 0.28682960 -0.09636732 0.10764237
v 0.30894351 -0.06729221 0.07385879
v 0.30088312 -0.06497639 0.10871016
v 0.31148784 0.01399402 0.07385879
v 0.30387471 0.01399402 0.10230686
v 0.30215528 -0.05374081 0.10871016
v 0.31029519 -0.06448886 0.07385879
v 0.30952990 -0.06282679 0.07976401
v 0.30374549 -0.06256085 0.10185996
v 0.30114153 -0.06381295 0.10871016
v 0.31148784 -0.05374081 0.07385879
v 0.31098097 0.01399402 0.07578626
v 0.30971874 0.01399402 0.08049747
v 0.30387471 -0.05374081 0.10230686
v 0.30212546 -0.05813975 0.10871016
v 0.31085176 -0.06233925 0.07385879
v 0.31141828 -0.05939185 0.07385879
v 0.31090147 -0.05939185 0.07582378
v 0.30969886 -0.05939185 0.08039171
v 0.30385484 -0.05939185 0.10223522
v 0.30211552 -0.05939185 0.10871016
v 0.31097103 -0.05374081 0.07582378
v 0.31144809 -0.05741952 0.07385879
v 0.31097103 0.01399402 0.07582378
f 1 2 3
f 1 3 7
f 1 7 13
f 1 13 14
f 1 14 8
f 1 8 4
f 1 4 9
f 1 9 17
f 1 17 23
f 1 23 33
f 1 33 41
f 1 41 48
f 1 48 60
f 1 60 54
f 1 54 53
f 1 53 44
f 1 44 39
f 1 39 36
f 1 36 35
f 1 35 25
f 1 25 19
f 1 19 10
f 1 10 5
f 1 5 2
f 2 5 12
f 2 12 6
f 2 6 3
f 3 6 7
f 4 8 9
f 5 10 11
f 5 11 12
f 6 12 22
f 6 22 30
f 6 30 40
f 6 40 47
f 6 47 58
f 6 58 52
f 6 52 43
f 6 43 34
f 6 34 24
f 6 24 16
f 6 16 15
f 6 15 14
f 6 14 13
f 6 13 7
f 8 14 9
f 9 15 16
f 9 16 17
f 9 14 15
f 10 18 11
f 10 19 18
f 11 18 12
f 12 18 20
f 12 20 21
f 12 21 22
f 16 23 17
f 16 24 23
f 18 19 25
f 18 25 26
f 18 26 27
f 18 27 20
f 20 27 28
f 20 28 21
f 21 28 22
f 22 28 29
f 22 29 30
f 23 24 31
f 23 31 32
f 23 32 33
f 24 34 42
f 24 42 50
f 24 50 61
f 24 61 49
f 24 49 41
f 24 41 33
f 24 33 32
f 24 32 31
f 25 35 26
f 26 35 36
f 26 36 37
f 26 37 27
f 27 37 28
f 28 37 29
f 29 38 30
f 29 37 39
f 29 39 38
f 30 38 40
f 34 43 51
f 34 51 42
f 36 39 37
f 38 39 44
f 38 44 45
f 38 45 40
f 40 45 46
f 40 46 47
f 41 49 48
f 42 51 50
f 43 52 51
f 44 53 45
f 45 53 54
f 45 54 46
f 46 54 55
f 46 55 56
f 46 56 57
f 46 57 58
f 46 58 47
f 48 59 60
f 48 49 59
f 49 61 59
f 50 51 59
f 50 59 61
f 51 52 57
f 51 57 59
f 52 58 57
f 54 60 55
f 55 60 56
f 56 60 59
f 56 59 57

