# https://github.com/mikedh/trimesh
v 0.14899494 0.01399401 0.17415359
v 0.14891953 0.01399401 0.17753111
v 0.16927805 -0.08763443 0.17415359
v -0.08186043 0.01399401 0.17415359
v 0.14708476 0.01399401 0.18206016
v 0.17397809 -0.13283281 0.17499097
v 0.17480752 -0.13283281 0.17415359
v -0.08186043 -0.06504429 0.17415359
v -0.08055347 0.01399401 0.17465345
v 0.14344034 0.01399401 0.18490745
v 0.17078608 -0.13283281 0.17675097
v 0.17405350 -0.13631100 0.17504819
v 0.17490805 -0.13524218 0.17415359
v 0.14158043 0.01399401 0.18608351
v -0.08183530 -0.07069635 0.17415359
v -0.08050319 -0.07069635 0.17466513
v -0.08050319 -0.06504429 0.17466747
v -0.07768819 -0.07069635 0.17555506
v -0.07768819 0.01399401 0.17555506
v 0.16568388 -0.13283281 0.17929111
v 0.16296942 -0.13629288 0.18066804
v 0.17078608 -0.13721678 0.17594513
v 0.17078608 -0.13821314 0.17415359
v 0.17312354 -0.13719866 0.17415359
v 0.17455617 -0.13647405 0.17415359
v 0.15165914 -0.13404655 0.18608351
v -0.04408409 0.01399401 0.18608351
v -0.06461855 -0.13647405 0.17415359
v -0.06409072 -0.13631100 0.17504819
v -0.05303178 -0.13629288 0.18066804
v -0.04159583 -0.13616608 0.18608351
v -0.04172151 -0.13404655 0.18608351
v -0.07215872 -0.07069635 0.17728936
v -0.07215872 0.01399401 0.17728936
v 0.15950093 -0.13718055 0.18148906
v 0.15165914 -0.13573130 0.18608351
v 0.15153347 -0.13616608 0.18608351
v 0.06811387 -0.17053135 0.18133373
v 0.07472410 -0.17054945 0.17630367
v 0.07472410 -0.17107480 0.17484031
v 0.07535245 -0.17107480 0.17415359
v -0.05526871 0.01399401 0.18258454
v -0.04408409 -0.06504429 0.18608351
v -0.06084844 -0.13821314 0.17415359
v -0.06084844 -0.13721678 0.17594513
v -0.04956330 -0.13718055 0.18148906
v -0.03955999 -0.13716244 0.18608351
v -0.04405897 -0.07069635 0.18608351
v -0.05519330 -0.07069635 0.18260322
v -0.06019496 -0.07069635 0.18103709
v -0.04956330 -0.06504429 0.18436906
v -0.06303510 -0.06504429 0.18014833
v -0.06024523 0.01399401 0.18102541
v 0.14819066 -0.13752475 0.18608351
v 0.06343896 -0.17107480 0.18214541
v 0.06906896 -0.17107480 0.17931330
v 0.07160749 -0.17107480 0.17740031
v 0.03476112 -0.17107480 0.17415359
v 0.03554027 -0.17107480 0.17495710
v 0.03576648 -0.17035019 0.17710950
v 0.04086867 -0.17031395 0.18111183
v 0.04644841 -0.17107480 0.18213607
v 0.04649867 -0.17107480 0.18215125
v 0.03679697 -0.15891926 0.18608351
v 0.07233638 -0.15915475 0.18608351
v 0.06906896 -0.15993372 0.18608351
v 0.06678178 -0.16045909 0.18608351
v 0.05778382 -0.17107480 0.18265461
v 0.03815420 -0.17107480 0.17730804
v 0.04086867 -0.17107480 0.17938571
v 0.05212868 -0.17107480 0.18264877
v 0.04086867 -0.15996996 0.18608351
v 0.06343896 -0.16111124 0.18608351
v 0.05778382 -0.16674518 0.18433052
v 0.05212868 -0.16674518 0.18432585
v 0.04649867 -0.16109312 0.18608351
v 0.05783409 -0.16181775 0.18608351
v 0.05207841 -0.16181775 0.18608351
v 0.04833345 -0.16141921 0.18608351
f 1 2 3
f 1 3 7
f 1 7 13
f 1 13 25
f 1 25 24
f 1 24 23
f 1 23 41
f 1 41 58
f 1 58 44
f 1 44 28
f 1 28 15
f 1 15 8
f 1 8 4
f 1 4 9
f 1 9 19
f 1 19 34
f 1 34 53
f 1 53 42
f 1 42 27
f 1 27 14
f 1 14 10
f 1 10 5
f 1 5 2
f 2 5 3
f 3 6 7
f 3 5 6
f 4 8 9
f 5 10 6
f 6 11 12
f 6 12 13
f 6 13 7
f 6 10 14
f 6 14 11
f 8 15 16
f 8 16 17
f 8 17 9
f 9 17 18
f 9 18 19
f 11 20 21
f 11 21 12
f 11 14 20
f 12 22 23
f 12 23 24
f 12 24 25
f 12 25 13
f 12 21 22
f 14 26 20
f 14 27 43
f 14 43 48
f 14 48 32
f 14 32 31
f 14 31 47
f 14 47 64
f 14 64 72
f 14 72 76
f 14 76 79
f 14 79 78
f 14 78 77
f 14 77 73
f 14 73 67
f 14 67 66
f 14 66 65
f 14 65 54
f 14 54 37
f 14 37 36
f 14 36 26
f 15 28 29
f 15 29 30
f 15 30 31
f 15 31 16
f 16 18 17
f 16 31 32
f 16 32 18
f 18 33 34
f 18 34 19
f 18 32 33
f 20 26 21
f 21 35 22
f 21 26 36
f 21 36 37
f 21 37 35
f 22 35 38
f 22 38 23
f 23 38 39
f 23 39 40
f 23 40 41
f 27 42 43
f 28 44 29
f 29 44 45
f 29 45 30
f 30 46 31
f 30 45 46
f 31 46 47
f 32 48 49
f 32 49 50
f 32 50 33
f 33 50 51
f 33 51 52
f 33 52 53
f 33 53 34
f 35 37 54
f 35 54 38
f 38 55 56
f 38 56 57
f 38 57 39
f 38 54 55
f 39 57 40
f 40 57 56
f 40 56 55
f 40 55 68
f 40 68 71
f 40 71 63
f 40 63 62
f 40 62 70
f 40 70 69
f 40 69 59
f 40 59 58
f 40 58 41
f 42 51 43
f 42 53 51
f 43 51 49
f 43 49 48
f 44 58 59
f 44 59 60
f 44 60 61
f 44 61 45
f 45 61 46
f 46 61 47
f 47 61 62
f 47 62 63
f 47 63 64
f 49 51 50
f 51 53 52
f 54 65 55
f 55 65 66
f 55 66 67
f 55 67 68
f 59 69 60
f 60 69 61
f 61 69 70
f 61 70 62
f 63 71 72
f 63 72 64
f 67 73 74
f 67 74 68
f 68 74 75
f 68 75 71
f 71 75 76
f 71 76 72
f 73 77 74
f 74 77 78
f 74 78 75
f 75 78 79
f 75 79 76

