# https://github.com/mikedh/trimesh
v -0.20154694 -0.05373613 0.07385879
v -0.20148181 -0.05938770 0.07385879
v -0.19975587 -0.05938770 0.08039171
v -0.20102590 -0.05373613 0.07582378
v -0.20103675 0.01399402 0.07579990
v -0.20154694 0.01399402 0.07385879
v -0.20035289 -0.06448519 0.07385879
v -0.19959304 -0.06283405 0.07976401
v -0.19380730 -0.06255701 0.10185996
v -0.19217907 -0.05938770 0.10871016
v -0.19648850 -0.05373613 0.09277186
v -0.19317772 0.01399402 0.10513155
v -0.19317772 -0.05373613 0.10513155
v -0.09504837 0.01399402 0.07385879
v -0.19900687 -0.06728881 0.07385879
v -0.17688434 -0.09636668 0.10764237
v -0.19094158 -0.06497278 0.10871016
v -0.19221162 -0.05373613 0.10871016
v -0.19221162 0.01399402 0.10871016
v -0.09483127 0.01399402 0.08712591
v -0.09066292 -0.09231084 0.07385879
v -0.17802412 -0.09745266 0.07385879
v -0.18207304 -0.09372927 0.08746024
v -0.17732940 -0.09683210 0.10407400
v -0.17470248 -0.09738618 0.10871016
v -0.17541891 -0.09697617 0.10871016
v -0.17665638 -0.09540259 0.10871016
v -0.09483127 0.01399402 0.10871016
v -0.09066292 -0.09231084 0.08147314
v -0.09066292 -0.09918138 0.07385879
v -0.17531036 -0.09837243 0.07385879
v -0.17926159 -0.09755241 0.08712591
v -0.17875140 -0.09759673 0.09277186
v -0.17801326 -0.09736402 0.09842122
v -0.17413802 -0.09762997 0.10871016
v -0.09066292 -0.09304223 0.10871016
v -0.09066292 -0.09921462 0.07992776
v -0.11934190 -0.09920354 0.07385879
v -0.17386664 -0.09886001 0.07385879
v -0.17386664 -0.09911489 0.09277186
v -0.17386664 -0.09888217 0.09842122
v -0.17386664 -0.09836135 0.10407400
v -0.16923156 -0.09901516 0.10871016
v -0.09066292 -0.09886001 0.10871016
v -0.09066292 -0.09921462 0.08147314
v -0.14563274 -0.09920354 0.07385879
v -0.16822203 -0.09894867 0.07385879
v -0.15126650 -0.09917030 0.07385879
v -0.16822203 -0.09917030 0.09277186
v -0.16822203 -0.09917030 0.10871016
v -0.10042160 -0.09917030 0.10871016
v -0.14757579 -0.09919246 0.07385879
f 1 2 3
f 1 3 4
f 1 4 5
f 1 5 6
f 1 6 14
f 1 14 21
f 1 21 30
f 1 30 38
f 1 38 46
f 1 46 52
f 1 52 48
f 1 48 47
f 1 47 39
f 1 39 31
f 1 31 22
f 1 22 15
f 1 15 7
f 1 7 2
f 2 7 8
f 2 8 9
f 2 9 3
f 3 9 10
f 3 10 4
f 4 10 11
f 4 11 5
f 5 12 19
f 5 19 28
f 5 28 20
f 5 20 14
f 5 14 6
f 5 11 13
f 5 13 12
f 7 15 16
f 7 16 8
f 8 16 17
f 8 17 9
f 9 17 10
f 10 17 27
f 10 27 26
f 10 26 25
f 10 25 35
f 10 35 43
f 10 43 50
f 10 50 51
f 10 51 44
f 10 44 36
f 10 36 28
f 10 28 19
f 10 19 18
f 10 18 13
f 10 13 11
f 12 13 18
f 12 18 19
f 14 20 21
f 15 22 23
f 15 23 24
f 15 24 16
f 16 24 25
f 16 25 26
f 16 26 27
f 16 27 17
f 20 28 29
f 20 29 21
f 21 29 36
f 21 36 44
f 21 44 45
f 21 45 37
f 21 37 30
f 22 31 32
f 22 32 23
f 23 32 33
f 23 33 34
f 23 34 24
f 24 34 25
f 25 34 35
f 28 36 29
f 30 37 38
f 31 39 32
f 32 39 40
f 32 40 33
f 33 40 41
f 33 41 34
f 34 41 42
f 34 42 35
f 35 42 43
f 37 45 46
f 37 46 38
f 39 47 40
f 40 48 49
f 40 49 50
f 40 50 41
f 40 47 48
f 41 43 42
f 41 50 43
f 44 51 45
f 45 51 50
f 45 50 46
f 46 50 49
f 46 49 52
f 48 52 49

