# https://github.com/mikedh/trimesh
v -0.00721091 -0.15317065 0.09557266
v -0.00435274 -0.15317065 0.09842122
v -0.00721091 -0.15317065 0.10871016
v -0.00721091 -0.15294156 0.08977661
v -0.00424775 -0.15294156 0.09266611
v 0.00132860 -0.15305611 0.10871016
v 0.00027866 -0.15310520 0.10871016
v -0.00435274 -0.15317065 0.10871016
v 0.11196893 -0.14587274 0.09842122
v 0.11196893 -0.14602000 0.10407400
v -0.00721091 0.01397765 0.10871016
v -0.00721091 -0.15284339 0.08839156
v 0.11196893 -0.14605274 0.10871016
v 0.11196893 -0.14539821 0.09277186
v 0.11196893 0.01397765 0.10871016
v -0.00721091 0.01397765 0.07739305
v -0.00721091 -0.15256521 0.08676771
v 0.11196893 -0.14436735 0.08707815
v 0.11196893 0.01397765 0.07385879
v 0.01204965 0.01397765 0.07385879
v -0.00721091 -0.03702590 0.07385879
v -0.00721091 -0.15227068 0.08559076
v 0.11196893 -0.14379464 0.08420913
v 0.11196893 -0.14052204 0.07385879
v -0.00721091 -0.14387645 0.07385879
v -0.00721091 -0.15191070 0.08421595
v 0.11196893 -0.14225652 0.07898961
v -0.00721091 -0.15074893 0.08157208
v -0.00721091 -0.14867082 0.07725659
f 1 2 8
f 1 8 3
f 1 3 11
f 1 11 16
f 1 16 21
f 1 21 25
f 1 25 29
f 1 29 28
f 1 28 26
f 1 26 22
f 1 22 17
f 1 17 12
f 1 12 4
f 1 4 5
f 1 5 2
f 2 6 7
f 2 7 8
f 2 5 9
f 2 9 10
f 2 10 6
f 3 8 7
f 3 7 6
f 3 6 13
f 3 13 15
f 3 15 11
f 4 12 9
f 4 9 5
f 6 10 13
f 9 14 18
f 9 18 23
f 9 23 27
f 9 27 24
f 9 24 19
f 9 19 15
f 9 15 13
f 9 13 10
f 9 12 14
f 11 15 19
f 11 19 20
f 11 20 16
f 12 17 14
f 14 17 18
f 16 20 21
f 17 22 23
f 17 23 18
f 19 24 25
f 19 25 21
f 19 21 20
f 22 26 23
f 23 26 27
f 24 27 26
f 24 26 28
f 24 28 29
f 24 29 25

