# https://github.com/mikedh/trimesh
v 0.31993474 0.06880676 0.03250768
v 0.31940984 0.06880676 0.03061473
v 0.31982976 0.06880676 0.03626454
v 0.32103700 0.06834020 0.03626454
v 0.32108949 0.06837353 0.03061473
v 0.31867499 0.06880676 0.02964646
v 0.32072206 0.06790698 0.02760343
v 0.31967229 0.06880676 0.03685034
v 0.32066957 0.06840686 0.03685034
v 0.32093202 0.06825356 0.03685034
v 0.32150941 0.06491436 0.03626454
v 0.32234922 0.06491436 0.03061473
v 0.29983143 0.06880676 0.02131456
v 0.32145692 0.06491436 0.02654802
v 0.28807387 0.05361043 -0.00144929
v 0.28681414 0.05652972 -0.00055849
v -0.20962732 0.06880676 0.03685034
v 0.32135194 0.06491436 0.03685034
v 0.32303159 0.05926239 0.03061473
v 0.32140443 0.06392793 0.03685034
v 0.32219175 0.05926239 0.02558460
v 0.29510740 0.06880676 0.02040924
v 0.31862250 0.05926239 0.02276212
v 0.29090829 0.05361043 0.00047271
v 0.28376977 0.04796512 -0.00425725
v 0.28376977 0.05361043 -0.00257731
v 0.28928112 0.04796512 -0.00230136
v 0.28943859 0.06272156 0.00971962
v 0.11423014 0.06880676 -0.01218248
v 0.11512245 0.06880676 -0.01204692
v 0.11706455 0.06880676 -0.01175161
v 0.15380688 0.06880676 -0.00525456
v -0.20988977 0.06880676 0.03626454
v -0.21109701 0.06834020 0.03626454
v -0.21099203 0.06825356 0.03685034
v 0.32308408 0.05361043 0.03061473
v 0.32140443 0.00071653 0.03685034
v 0.32219175 0.00071653 0.02558460
v 0.29211553 0.04231315 -0.00024380
v 0.29206305 0.04796512 -0.00021475
v 0.28376977 0.04231315 -0.00429114
v 0.10861381 0.06880676 -0.01260367
v 0.28928112 0.04231315 -0.00231588
v -0.20946985 0.06880676 0.03061473
v -0.21114950 0.06837353 0.03061473
v -0.21240923 0.06491436 0.03061473
v -0.21141194 0.06546090 0.03685034
v 0.32308408 0.00071653 0.03061473
v -0.21146443 0.00071653 0.03685034
v 0.29211553 0.00071653 -0.00024380
v 0.29033091 0.00071653 -0.00156548
v 0.28376977 0.00071653 -0.00429114
v 0.10861381 0.00071653 -0.01260367
v 0.00132619 0.06880676 -0.01260367
v 0.28928112 0.00071653 -0.00231588
v -0.21078207 0.06790698 0.02760343
v -0.20773771 0.06880676 0.02937051
v -0.21309159 0.05926239 0.03061473
v -0.21156941 0.06491436 0.03626454
v -0.21151692 0.06491436 0.02654802
v -0.21225176 0.05926239 0.02558460
v -0.21146443 0.06025549 0.03685034
v -0.21314408 0.00071653 0.03061473
v 0.00132619 0.00071653 -0.01260367
v -0.03825056 0.01971861 -0.01060421
v -0.04386689 0.01971861 -0.01022659
v -0.00255801 0.06880676 -0.01231319
v -0.20553317 0.06235498 0.02199719
v -0.18989144 0.06880676 0.02153243
v -0.21314408 0.03666118 0.03061473
v -0.21162190 0.05926239 0.03626454
v -0.20868251 0.05926239 0.02276212
v -0.21225176 0.00071653 0.02558460
v -0.20873500 0.05361043 0.02276212
v -0.03825056 0.00071653 -0.01060421
v -0.04386689 0.01406664 -0.01023143
v -0.19645256 0.05361043 0.01937320
v -0.19645256 0.05926239 0.01945066
v -0.04386689 0.02537058 -0.01001842
v -0.00429014 0.06880676 -0.01218248
v -0.20212138 0.06308814 0.02153727
v -0.20212138 0.05926239 0.02090789
v -0.20584810 0.05926239 0.02191005
v -0.19645256 0.06418787 0.02083044
v -0.04386689 0.06880676 -0.00525456
v -0.20590059 0.05361043 0.02189069
v -0.20873500 0.00071653 0.02276212
v -0.04386689 0.00071653 -0.01023143
v -0.19645256 0.00071653 0.01937320
v -0.20007431 0.00071653 0.02033178
v -0.20212138 0.05361043 0.02087885
v -0.00712455 0.06880676 -0.01175161
v -0.20453588 0.00071653 0.02152274
v -0.20590059 0.00071653 0.02189069
f 1 2 6
f 1 6 13
f 1 13 22
f 1 22 32
f 1 32 31
f 1 31 30
f 1 30 29
f 1 29 42
f 1 42 54
f 1 54 67
f 1 67 80
f 1 80 92
f 1 92 85
f 1 85 69
f 1 69 57
f 1 57 44
f 1 44 33
f 1 33 17
f 1 17 8
f 1 8 3
f 1 3 4
f 1 4 5
f 1 5 2
f 2 5 7
f 2 7 6
f 3 8 4
f 4 8 9
f 4 9 10
f 4 10 11
f 4 11 12
f 4 12 5
f 5 12 7
f 6 7 13
f 7 12 14
f 7 14 15
f 7 15 16
f 7 16 13
f 8 17 35
f 8 35 47
f 8 47 62
f 8 62 49
f 8 49 37
f 8 37 20
f 8 20 18
f 8 18 10
f 8 10 9
f 10 18 11
f 11 19 12
f 11 18 20
f 11 20 19
f 12 19 21
f 12 21 14
f 13 16 22
f 14 21 23
f 14 23 24
f 14 24 15
f 15 25 26
f 15 26 16
f 15 24 27
f 15 27 25
f 16 28 22
f 16 26 29
f 16 29 30
f 16 30 31
f 16 31 32
f 16 32 28
f 17 33 34
f 17 34 35
f 19 36 21
f 19 20 36
f 20 37 48
f 20 48 36
f 21 36 48
f 21 48 38
f 21 38 50
f 21 50 39
f 21 39 40
f 21 40 23
f 22 28 32
f 23 40 27
f 23 27 24
f 25 27 41
f 25 41 42
f 25 42 29
f 25 29 26
f 27 40 39
f 27 39 43
f 27 43 41
f 33 44 45
f 33 45 34
f 34 45 46
f 34 46 47
f 34 47 35
f 37 49 63
f 37 63 73
f 37 73 87
f 37 87 94
f 37 94 93
f 37 93 90
f 37 90 89
f 37 89 88
f 37 88 75
f 37 75 64
f 37 64 53
f 37 53 52
f 37 52 55
f 37 55 51
f 37 51 50
f 37 50 38
f 37 38 48
f 39 50 51
f 39 51 43
f 41 43 55
f 41 55 52
f 41 52 53
f 41 53 42
f 42 53 64
f 42 64 54
f 43 51 55
f 44 56 45
f 44 57 56
f 45 56 46
f 46 58 59
f 46 59 47
f 46 56 60
f 46 60 61
f 46 61 58
f 47 59 62
f 49 62 70
f 49 70 63
f 54 64 75
f 54 75 65
f 54 65 66
f 54 66 67
f 56 68 60
f 56 57 69
f 56 69 68
f 58 70 71
f 58 71 62
f 58 62 59
f 58 61 70
f 60 68 72
f 60 72 61
f 61 73 63
f 61 63 70
f 61 72 74
f 61 74 87
f 61 87 73
f 62 71 70
f 65 75 88
f 65 88 76
f 65 76 66
f 66 76 77
f 66 77 78
f 66 78 79
f 66 79 80
f 66 80 67
f 68 81 78
f 68 78 82
f 68 82 83
f 68 83 72
f 68 69 81
f 69 84 81
f 69 85 84
f 72 83 86
f 72 86 74
f 74 86 94
f 74 94 87
f 76 88 89
f 76 89 77
f 77 89 90
f 77 90 91
f 77 91 82
f 77 82 78
f 78 81 85
f 78 85 92
f 78 92 79
f 79 92 80
f 81 84 85
f 82 91 86
f 82 86 83
f 86 93 94
f 86 91 93
f 90 93 91

