# https://github.com/mikedh/trimesh
v -0.06093483 0.00071653 0.05360422
v -0.06093483 -0.03034140 0.07385879
v -0.06093483 0.00071653 0.02131850
v -0.07225815 0.00071653 0.07385879
v -0.06093483 -0.04830857 0.07385879
v -0.06093483 -0.06944884 0.02131850
v -0.19647199 0.00071653 0.01937730
v -0.20155258 0.00071653 0.07385879
v -0.08912394 -0.06944884 0.06431279
v -0.08381986 -0.06944884 0.06313421
v -0.08034837 -0.06944884 0.05886785
v -0.06093483 -0.06944884 0.03172309
v -0.15284741 -0.06944884 0.07385879
v -0.18659387 -0.06944884 0.02131850
v -0.19647199 -0.05938695 0.01945730
v -0.19647199 -0.05374131 0.01937730
v -0.20007757 0.00071653 0.02033723
v -0.21025366 0.00071653 0.04140241
v -0.20155258 -0.05374131 0.07385879
v -0.19690407 -0.06944884 0.07385879
v -0.18975249 -0.06944884 0.02160647
v -0.19647199 -0.06431144 0.02083853
v -0.20211874 -0.06321253 0.02154248
v -0.20553064 -0.06247763 0.02200111
v -0.20211874 -0.05938695 0.02091320
v -0.20211874 -0.05374131 0.02088119
v -0.20211874 0.00071653 0.02088119
v -0.21314408 0.00071653 0.03061917
v -0.21314408 -0.05374131 0.03061917
v -0.20859986 -0.05938695 0.04756731
v -0.20563493 -0.05938695 0.05861719
v -0.20487509 -0.05938695 0.06143833
v -0.20705035 -0.06503947 0.05321491
v -0.20147809 -0.05938695 0.07385879
v -0.19900483 -0.06729223 0.07385879
v -0.20539655 -0.06842548 0.05712930
v -0.20599252 -0.06896807 0.05321491
v -0.19983919 -0.06944884 0.06585935
v -0.19094441 -0.06944884 0.02199045
v -0.20587333 -0.05938695 0.02191578
v -0.21079004 -0.06803400 0.02760605
v -0.21156477 -0.06503947 0.02655546
v -0.20870416 -0.05938695 0.02276373
v -0.20591802 -0.05374131 0.02189979
v -0.20454730 0.00071653 0.02153181
v -0.21225014 0.00071653 0.02559020
v -0.21225014 -0.05938695 0.02559020
v -0.21312918 -0.05938695 0.03061917
v -0.21073042 -0.06503947 0.03958387
v -0.21162438 -0.05938695 0.03627211
v -0.21068573 -0.06798592 0.03941322
v -0.20563493 -0.06503947 0.05814257
v -0.20034575 -0.06449001 0.07385879
v -0.19949650 -0.06626887 0.07385879
v -0.20663317 -0.06924967 0.04756731
v -0.20562003 -0.06944884 0.04884722
v -0.20438342 -0.06944884 0.05321491
v -0.20229754 -0.06944884 0.05902783
v -0.21110292 -0.06846669 0.03627211
v -0.20702056 -0.06944884 0.03061917
v -0.20776551 -0.06935269 0.03061917
v -0.21117740 -0.06850103 0.03061917
v -0.21244383 -0.06503947 0.03061917
v -0.20874885 -0.05374131 0.02276373
v -0.20591802 0.00071653 0.02189979
v -0.20772082 0.00071653 0.02244908
v -0.21098371 0.00071653 0.02456626
v -0.21160948 -0.06503947 0.03627211
v -0.20862966 -0.06944884 0.03627211
v -0.20736323 -0.06944884 0.03103514
v -0.20776551 -0.06944884 0.03180842
v -0.20865945 -0.06944884 0.03478421
v -0.20874885 0.00071653 0.02276373
f 1 2 5
f 1 5 12
f 1 12 6
f 1 6 3
f 1 3 7
f 1 7 17
f 1 17 27
f 1 27 45
f 1 45 65
f 1 65 66
f 1 66 73
f 1 73 67
f 1 67 46
f 1 46 28
f 1 28 18
f 1 18 8
f 1 8 4
f 1 4 2
f 2 4 8
f 2 8 19
f 2 19 34
f 2 34 53
f 2 53 54
f 2 54 35
f 2 35 20
f 2 20 13
f 2 13 5
f 3 6 16
f 3 16 7
f 5 9 10
f 5 10 11
f 5 11 12
f 5 13 9
f 6 12 11
f 6 11 10
f 6 10 9
f 6 9 13
f 6 13 20
f 6 20 38
f 6 38 58
f 6 58 57
f 6 57 56
f 6 56 69
f 6 69 72
f 6 72 71
f 6 71 70
f 6 70 60
f 6 60 39
f 6 39 21
f 6 21 14
f 6 14 15
f 6 15 16
f 7 16 17
f 8 18 19
f 14 21 15
f 15 21 22
f 15 22 23
f 15 23 24
f 15 24 25
f 15 25 16
f 16 25 26
f 16 26 17
f 17 26 27
f 18 28 29
f 18 29 19
f 19 29 30
f 19 30 31
f 19 31 32
f 19 32 33
f 19 33 34
f 20 35 36
f 20 36 37
f 20 37 38
f 21 39 24
f 21 24 23
f 21 23 22
f 24 40 25
f 24 39 41
f 24 41 42
f 24 42 43
f 24 43 40
f 25 40 26
f 26 40 44
f 26 44 45
f 26 45 27
f 28 46 47
f 28 47 29
f 29 47 48
f 29 48 49
f 29 49 50
f 29 50 30
f 30 50 49
f 30 49 31
f 31 49 32
f 32 49 33
f 33 49 51
f 33 51 52
f 33 52 34
f 34 52 36
f 34 36 53
f 35 54 36
f 36 52 51
f 36 51 37
f 36 54 53
f 37 55 56
f 37 56 57
f 37 57 58
f 37 58 38
f 37 51 59
f 37 59 55
f 39 60 61
f 39 61 41
f 40 43 44
f 41 61 62
f 41 62 63
f 41 63 42
f 42 63 47
f 42 47 43
f 43 47 64
f 43 64 44
f 44 65 45
f 44 64 66
f 44 66 65
f 46 67 47
f 47 63 48
f 47 67 64
f 48 63 68
f 48 68 49
f 49 68 51
f 51 68 59
f 55 59 69
f 55 69 56
f 59 68 63
f 59 63 62
f 59 62 69
f 60 70 61
f 61 70 71
f 61 71 62
f 62 71 72
f 62 72 69
f 64 73 66
f 64 67 73

