# https://github.com/mikedh/trimesh
v 0.27045000 0.08684621 0.15313565
v 0.27045000 0.08684621 0.15089597
v 0.27002901 0.08684621 0.15334439
v 0.28384194 0.03640733 0.16489719
v 0.28678890 0.03434642 0.16372082
v 0.28849465 0.06379822 0.14739513
v 0.26727803 0.08684621 0.14921731
v 0.26685704 0.08684621 0.15488607
v 0.28381291 0.03101616 0.16637363
v 0.27815854 0.03667119 0.16669762
v 0.28163536 0.02388497 0.16923737
v 0.28478554 0.01972036 0.16707815
v 0.28686148 0.03101616 0.16395348
v 0.29131095 0.03426798 0.14739513
v 0.29018587 0.05926278 0.14739513
v 0.24426129 0.04071457 0.14739295
v 0.28381291 0.06453986 0.14739513
v 0.26120991 0.08684621 0.14831709
v 0.26685704 0.08684621 0.14900204
v 0.27815854 0.03101616 0.16829801
v 0.26618926 0.08684621 0.15497305
v 0.27815854 0.02737925 0.16892207
v 0.27815854 0.02455530 0.16933087
v 0.27815854 0.01972036 0.16960702
v 0.28196198 0.01972036 0.16933087
v 0.28478554 0.01399402 0.16707815
v 0.28683970 0.01399402 0.16428834
v 0.28686148 0.01972036 0.16425355
v 0.28686148 0.02536826 0.16414048
v 0.29134724 0.02861295 0.14739513
v 0.23859966 0.04236901 0.14739513
v 0.23718425 0.04796698 0.14739513
v 0.23848352 0.05309431 0.14739513
v 0.23861418 0.05352931 0.14739513
v 0.25000278 0.05916295 0.14739513
v 0.25555554 0.06081738 0.14739513
v 0.27192346 0.06414765 0.14739513
v 0.27415184 0.06453986 0.14739513
v 0.29134724 0.01399402 0.14739513
v 0.27451475 0.01399402 0.14739513
v 0.26610940 0.01400828 0.14739513
v 0.22731268 0.08684621 0.14831709
v 0.26120991 0.08684621 0.15560798
v 0.23970296 0.02884827 0.16923737
v 0.24426129 0.02870565 0.16919605
v 0.24426129 0.02536826 0.16947221
v 0.27815854 0.01399402 0.16960702
v 0.23296707 0.01972036 0.16960702
v 0.28196198 0.01399402 0.16933087
v 0.28686148 0.01399402 0.16425355
v 0.21719432 0.01399402 0.14846278
v 0.21719432 0.02418448 0.14844103
v 0.21719432 0.08684621 0.14831926
v 0.26609489 0.01399402 0.14743427
v 0.22663764 0.08684621 0.15560798
v 0.21719432 0.08684621 0.15560581
v 0.22731268 0.03101616 0.16833280
v 0.23296707 0.02485481 0.16933087
v 0.23813512 0.02584605 0.16938523
v 0.23296707 0.01399402 0.16960702
v 0.22952652 0.02388497 0.16923737
v 0.22923618 0.01972036 0.16933087
v 0.21719432 0.01399402 0.15413154
v 0.21719432 0.03101616 0.16059397
v 0.21854440 0.03101616 0.16403829
v 0.21863151 0.03449617 0.16380779
v 0.22166557 0.03101616 0.16649757
v 0.22926522 0.01399402 0.16933087
v 0.22435121 0.01399402 0.16386216
v 0.21719432 0.01401541 0.15594067
v 0.21865329 0.02786417 0.16384476
v 0.22922893 0.01399402 0.16930260
v 0.22640537 0.01399402 0.16665413
v 0.22643440 0.01399402 0.16668892
f 1 2 7
f 1 7 19
f 1 19 18
f 1 18 42
f 1 42 53
f 1 53 56
f 1 56 55
f 1 55 43
f 1 43 21
f 1 21 8
f 1 8 3
f 1 3 4
f 1 4 5
f 1 5 6
f 1 6 2
f 2 6 7
f 3 8 4
f 4 9 5
f 4 8 10
f 4 10 11
f 4 11 9
f 5 12 13
f 5 13 14
f 5 14 15
f 5 15 6
f 5 9 11
f 5 11 12
f 6 15 16
f 6 16 17
f 6 17 18
f 6 18 19
f 6 19 7
f 8 20 10
f 8 21 20
f 10 20 11
f 11 20 22
f 11 22 23
f 11 23 24
f 11 24 25
f 11 25 12
f 12 26 27
f 12 27 28
f 12 28 29
f 12 29 13
f 12 25 49
f 12 49 26
f 13 29 14
f 14 30 16
f 14 16 15
f 14 29 30
f 16 31 32
f 16 32 33
f 16 33 34
f 16 34 35
f 16 35 36
f 16 36 37
f 16 37 38
f 16 38 17
f 16 30 39
f 16 39 40
f 16 40 41
f 16 41 31
f 17 38 42
f 17 42 18
f 20 21 43
f 20 43 44
f 20 44 45
f 20 45 22
f 22 45 23
f 23 45 44
f 23 44 46
f 23 46 24
f 24 47 49
f 24 49 25
f 24 46 48
f 24 48 60
f 24 60 47
f 26 49 47
f 26 47 60
f 26 60 68
f 26 68 72
f 26 72 74
f 26 74 73
f 26 73 69
f 26 69 63
f 26 63 51
f 26 51 54
f 26 54 40
f 26 40 39
f 26 39 50
f 26 50 27
f 27 50 28
f 28 50 39
f 28 39 30
f 28 30 29
f 31 51 32
f 31 41 51
f 32 51 52
f 32 52 53
f 32 53 33
f 33 53 34
f 34 53 35
f 35 53 36
f 36 53 37
f 37 53 38
f 38 53 42
f 40 54 41
f 41 54 51
f 43 55 44
f 44 55 56
f 44 56 57
f 44 57 58
f 44 58 59
f 44 59 46
f 46 59 48
f 48 59 58
f 48 58 61
f 48 61 62
f 48 62 60
f 51 63 70
f 51 70 64
f 51 64 56
f 51 56 53
f 51 53 52
f 56 64 65
f 56 65 66
f 56 66 67
f 56 67 57
f 57 67 62
f 57 62 61
f 57 61 58
f 60 62 68
f 62 67 68
f 63 69 70
f 64 70 71
f 64 71 65
f 65 71 67
f 65 67 66
f 67 71 68
f 68 71 72
f 69 73 70
f 70 73 74
f 70 74 71
f 71 74 72

