# https://github.com/mikedh/trimesh
v -0.03260798 0.15121097 0.07385879
v -0.04956054 0.14003820 0.03346857
v -0.05240794 0.13996559 0.03346857
v -0.04786001 0.14839560 0.07385879
v -0.01912239 0.14982346 0.07385879
v 0.04947880 0.14003820 0.03346857
v -0.05520260 0.13939284 0.03346857
v -0.05520260 0.13989300 0.03627196
v -0.06651310 0.13989300 0.05886913
v -0.07215517 0.13989300 0.07016969
v -0.07584624 0.13926377 0.07385879
v 0.04947880 0.14003820 0.07385879
v 0.04947880 0.07342107 0.03346857
v -0.05789181 0.13817473 0.03346857
v -0.06085786 0.13893302 0.04192224
v -0.06651310 0.13893302 0.05322280
v -0.07215517 0.13893302 0.06451941
v -0.07783678 0.13833607 0.07385879
v 0.04947880 0.12882510 0.07385879
v 0.04947880 0.07434877 0.05322280
v -0.08396659 0.06881482 0.06307620
v -0.08229243 0.06881482 0.05890472
v -0.08229243 0.06881482 0.05886913
v -0.08421706 0.06881482 0.05446436
v -0.08519256 0.06881482 0.05426666
v -0.08519256 0.07342107 0.03346857
v -0.05986918 0.13698081 0.03346857
v -0.06093695 0.13735190 0.03669504
v -0.07224745 0.13735190 0.05929617
v -0.07788951 0.13735190 0.07059673
v -0.08017007 0.13693242 0.07385879
v 0.04947880 0.08187526 0.06060494
v 0.00726877 0.08135091 0.07385879
v 0.04947880 0.07559108 0.05591549
v -0.00427901 0.07730129 0.07385879
v -0.01152933 0.07647039 0.07385879
v -0.01566860 0.07610738 0.07385879
v -0.08510028 0.06881482 0.06349928
v -0.08519256 0.06881482 0.06351509
v -0.08519256 0.10154256 0.03346857
v -0.06381071 0.13576270 0.03886184
v -0.06458847 0.13668234 0.04192224
v -0.07024372 0.13668234 0.05322280
v -0.07588578 0.13668234 0.06451941
v -0.08104009 0.13609344 0.07385879
v 0.04947880 0.07943097 0.05952945
v 0.00285266 0.07832579 0.07385879
v 0.04947880 0.07670433 0.05832348
v 0.00128396 0.07804345 0.07385879
v -0.01702638 0.07603477 0.07385879
v -0.02249708 0.07588149 0.07385879
v -0.02817869 0.07587343 0.07385879
v -0.03267389 0.07587343 0.07385879
v -0.03825004 0.07592183 0.07385879
v -0.04390529 0.07600251 0.07385879
v -0.04956054 0.07665593 0.07385879
v -0.05923642 0.07789824 0.07385879
v -0.06155652 0.07893889 0.07385879
v -0.06669765 0.08185106 0.07385879
v -0.08519256 0.09283023 0.07385879
v -0.08519256 0.10155063 0.05322280
v -0.08341293 0.12706650 0.07385879
v -0.08280654 0.13057563 0.07385879
v -0.08242425 0.13272145 0.07385879
v -0.08076326 0.13576270 0.07276352
v -0.08519256 0.10081653 0.07385879
f 1 2 3
f 1 3 4
f 1 4 11
f 1 11 18
f 1 18 31
f 1 31 45
f 1 45 64
f 1 64 63
f 1 63 62
f 1 62 66
f 1 66 60
f 1 60 59
f 1 59 58
f 1 58 57
f 1 57 56
f 1 56 55
f 1 55 54
f 1 54 53
f 1 53 52
f 1 52 51
f 1 51 50
f 1 50 37
f 1 37 36
f 1 36 35
f 1 35 49
f 1 49 47
f 1 47 33
f 1 33 19
f 1 19 12
f 1 12 5
f 1 5 6
f 1 6 2
f 2 6 13
f 2 13 26
f 2 26 40
f 2 40 27
f 2 27 14
f 2 14 7
f 2 7 3
f 3 7 4
f 4 7 8
f 4 8 9
f 4 9 10
f 4 10 11
f 5 12 6
f 6 12 19
f 6 19 32
f 6 32 46
f 6 46 48
f 6 48 34
f 6 34 20
f 6 20 13
f 7 14 15
f 7 15 8
f 8 15 9
f 9 15 16
f 9 16 17
f 9 17 11
f 9 11 10
f 11 17 18
f 13 20 21
f 13 21 22
f 13 22 23
f 13 23 24
f 13 24 25
f 13 25 26
f 14 27 28
f 14 28 15
f 15 28 29
f 15 29 16
f 16 29 17
f 17 29 30
f 17 30 18
f 18 30 31
f 19 33 32
f 20 34 35
f 20 35 36
f 20 36 37
f 20 37 38
f 20 38 21
f 21 38 39
f 21 39 25
f 21 25 24
f 21 24 23
f 21 23 22
f 25 39 60
f 25 60 66
f 25 66 61
f 25 61 40
f 25 40 26
f 27 40 41
f 27 41 42
f 27 42 28
f 28 42 43
f 28 43 29
f 29 31 30
f 29 43 31
f 31 43 44
f 31 44 45
f 32 33 46
f 33 47 48
f 33 48 46
f 34 48 35
f 35 48 49
f 37 50 39
f 37 39 38
f 39 51 52
f 39 52 53
f 39 53 54
f 39 54 55
f 39 55 56
f 39 56 57
f 39 57 58
f 39 58 59
f 39 59 60
f 39 50 51
f 40 61 62
f 40 62 63
f 40 63 64
f 40 64 45
f 40 45 65
f 40 65 41
f 41 65 43
f 41 43 42
f 43 65 45
f 43 45 44
f 47 49 48
f 61 66 62

