# https://github.com/mikedh/trimesh
v -0.08664649 0.10036131 0.07385879
v -0.08861467 0.10036131 0.07649693
v -0.08341635 0.12707705 0.07385879
v 0.00945870 0.10036131 0.07385879
v -0.09010817 0.10036131 0.08147596
v -0.08741059 0.12707705 0.08195157
v -0.08604445 0.12707705 0.07912765
v -0.08341635 0.13271967 0.07582811
v -0.08243225 0.13271967 0.07385879
v 0.02816802 0.12883010 0.07385879
v 0.01177421 0.10036131 0.07637803
v -0.08760742 0.13271967 0.13232155
v -0.08772321 0.13271967 0.11537055
v -0.08773477 0.13271967 0.10973012
v -0.08758426 0.13271967 0.08712382
v -0.08668121 0.10036131 0.11537055
v -0.08692434 0.13271967 0.08298454
v -0.08555820 0.13271967 0.08015318
v -0.08638020 0.13572664 0.08410668
v -0.08104296 0.13609186 0.07385879
v 0.02816802 0.14004231 0.07385879
v 0.02816802 0.11823876 0.12642846
v 0.02519259 0.10036131 0.10973012
v 0.02464844 0.10036131 0.10407483
v 0.02343280 0.10036131 0.09842697
v 0.02302759 0.10036131 0.09705216
v 0.02193930 0.10036131 0.09337362
v 0.02163828 0.10036131 0.09260076
v 0.02079312 0.10036131 0.09054227
v 0.02027213 0.10036131 0.08961334
v 0.01887125 0.10036131 0.08712382
v 0.01817659 0.10036131 0.08594223
v 0.01631261 0.10036131 0.08277646
v 0.01584951 0.10036131 0.08200359
v 0.01459913 0.10036131 0.07994510
v -0.08686647 0.13284750 0.13812547
v -0.08680857 0.13651186 0.13797684
v -0.08720222 0.13716925 0.13232155
v -0.08721379 0.13718143 0.12667370
v -0.08721379 0.13718143 0.09842697
v -0.08717905 0.13713273 0.09277911
v -0.08678542 0.13645099 0.08712382
v -0.08402996 0.10036131 0.13235871
v -0.08354370 0.13733360 0.08192185
v -0.08154079 0.13668230 0.07582811
v -0.08017464 0.13693795 0.07385879
v -0.00992210 0.15174757 0.08164689
v 0.02816802 0.16253369 0.14067444
v -0.01913783 0.14982408 0.07385879
v -0.02110601 0.15160756 0.07619968
v 0.02816802 0.11749615 0.13055288
v 0.02491473 0.10036131 0.11537055
v 0.02816802 0.11719180 0.14977790
v -0.08638020 0.13481360 0.14096426
v -0.08638020 0.13575708 0.14096426
v -0.08341635 0.13729708 0.14315653
v -0.08346266 0.13875796 0.13797684
v -0.07093576 0.14875885 0.10407483
v -0.06640893 0.15137017 0.12145686
v -0.08346266 0.13869708 0.08712382
v -0.06642052 0.15172322 0.10385932
v -0.08200388 0.10036131 0.13786537
v -0.07781282 0.13892839 0.07582811
v -0.07784755 0.13833796 0.07385879
v -0.01907994 0.15244147 0.07900874
v -0.01175135 0.15267887 0.08364593
v 0.02486842 0.16253369 0.14450904
v 0.02816802 0.16253369 0.14977790
v -0.02285422 0.15259365 0.07833249
v -0.02696424 0.15269713 0.07781229
v -0.03260251 0.15270930 0.07753733
v -0.03645784 0.15261800 0.07796835
v -0.04778067 0.15267887 0.08327436
v -0.04962150 0.15282496 0.08706437
v -0.05345367 0.15267887 0.08889993
v -0.05528292 0.15282496 0.09269737
v -0.05905720 0.15267887 0.09453292
v -0.03260251 0.15121799 0.07385879
v -0.03260251 0.15188756 0.07471340
v 0.02463687 0.10036131 0.11948754
v 0.01062804 0.10036131 0.14977790
v 0.01150793 0.10036131 0.14868548
v 0.01433285 0.10036131 0.14507383
v 0.01492330 0.10036131 0.14430839
v 0.01650943 0.10036131 0.14224990
v 0.01890598 0.10036131 0.13797684
v 0.01938066 0.10036131 0.13690672
v 0.02063104 0.10036131 0.13404564
v 0.02093205 0.10036131 0.13328020
v 0.02173090 0.10036131 0.13122171
v 0.02337491 0.10036131 0.12667370
v 0.02453267 0.10036131 0.12102584
v -0.08161025 0.13271967 0.14810583
v -0.08046407 0.13271967 0.14977790
v -0.08149448 0.13674925 0.14786803
v -0.07820645 0.13805187 0.14956239
v -0.06090961 0.15175973 0.13248504
v -0.06292410 0.15230756 0.12667370
v -0.06455653 0.15272756 0.11537055
v -0.06446391 0.15262408 0.11986654
v -0.06456811 0.15272756 0.10973012
v -0.06448706 0.15262408 0.10559827
v -0.06271570 0.15226495 0.09842697
v -0.06090961 0.15180843 0.09269737
v -0.07064632 0.10036131 0.14977790
v -0.07584464 0.13926317 0.07385879
v 0.02468318 0.16253369 0.14528190
v -0.05987920 0.15277018 0.09842697
v 0.02372224 0.16253369 0.14977790
v -0.04390219 0.15220408 0.07978161
v -0.04786171 0.14839364 0.07385879
v -0.05528292 0.15207017 0.08706437
v -0.07813699 0.13801534 0.14977790
v -0.05536396 0.15210060 0.13802143
v -0.05735530 0.15236843 0.13446923
v -0.05905720 0.15267887 0.13070151
v -0.06353770 0.15247191 0.12363426
v 0.02378013 0.16253369 0.14927256
v -0.05824677 0.14724320 0.07848111
v -0.04775752 0.15267887 0.14182630
v -0.04390219 0.15215539 0.14517043
v -0.03633048 0.15263625 0.14725866
v -0.03260251 0.15195451 0.14977790
v -0.04819746 0.14876494 0.14977790
v -0.05920770 0.14844233 0.14259174
f 1 2 3
f 1 3 9
f 1 9 20
f 1 20 46
f 1 46 64
f 1 64 106
f 1 106 111
f 1 111 78
f 1 78 49
f 1 49 21
f 1 21 10
f 1 10 4
f 1 4 11
f 1 11 35
f 1 35 34
f 1 34 33
f 1 33 32
f 1 32 31
f 1 31 30
f 1 30 29
f 1 29 28
f 1 28 27
f 1 27 26
f 1 26 25
f 1 25 24
f 1 24 23
f 1 23 52
f 1 52 80
f 1 80 92
f 1 92 91
f 1 91 90
f 1 90 89
f 1 89 88
f 1 88 87
f 1 87 86
f 1 86 85
f 1 85 84
f 1 84 83
f 1 83 82
f 1 82 81
f 1 81 105
f 1 105 62
f 1 62 43
f 1 43 16
f 1 16 5
f 1 5 2
f 2 5 6
f 2 6 7
f 2 7 3
f 3 8 9
f 3 7 8
f 4 10 11
f 5 12 13
f 5 13 14
f 5 14 15
f 5 15 6
f 5 16 12
f 6 15 17
f 6 17 18
f 6 18 7
f 7 18 8
f 8 18 19
f 8 19 9
f 9 19 20
f 10 21 48
f 10 48 68
f 10 68 53
f 10 53 51
f 10 51 22
f 10 22 23
f 10 23 24
f 10 24 25
f 10 25 26
f 10 26 27
f 10 27 28
f 10 28 29
f 10 29 30
f 10 30 31
f 10 31 32
f 10 32 33
f 10 33 34
f 10 34 35
f 10 35 11
f 12 16 36
f 12 36 37
f 12 37 38
f 12 38 13
f 13 38 39
f 13 39 14
f 14 40 15
f 14 39 40
f 15 40 41
f 15 41 42
f 15 42 17
f 16 43 36
f 17 42 19
f 17 19 18
f 19 42 44
f 19 44 45
f 19 45 20
f 20 45 46
f 21 47 48
f 21 49 50
f 21 50 47
f 22 51 23
f 23 51 53
f 23 53 52
f 36 54 55
f 36 55 37
f 36 43 54
f 37 55 56
f 37 56 57
f 37 57 38
f 38 58 39
f 38 57 59
f 38 59 58
f 39 58 40
f 40 58 41
f 41 60 42
f 41 58 61
f 41 61 60
f 42 60 44
f 43 62 54
f 44 60 63
f 44 63 64
f 44 64 46
f 44 46 45
f 47 65 66
f 47 66 48
f 47 50 65
f 48 67 107
f 48 107 118
f 48 118 109
f 48 109 68
f 48 66 65
f 48 65 69
f 48 69 70
f 48 70 71
f 48 71 72
f 48 72 73
f 48 73 74
f 48 74 75
f 48 75 76
f 48 76 77
f 48 77 67
f 49 78 79
f 49 79 50
f 50 79 69
f 50 69 65
f 52 53 80
f 53 81 82
f 53 82 83
f 53 83 84
f 53 84 85
f 53 85 86
f 53 86 87
f 53 87 88
f 53 88 89
f 53 89 90
f 53 90 91
f 53 91 92
f 53 92 80
f 53 68 109
f 53 109 123
f 53 123 124
f 53 124 113
f 53 113 94
f 53 94 105
f 53 105 81
f 54 62 93
f 54 93 55
f 55 93 94
f 55 94 95
f 55 95 56
f 56 95 96
f 56 96 97
f 56 97 57
f 57 97 98
f 57 98 59
f 58 59 99
f 58 99 61
f 59 98 100
f 59 100 99
f 60 61 63
f 61 99 101
f 61 101 102
f 61 102 103
f 61 103 104
f 61 104 63
f 62 94 93
f 62 105 94
f 63 104 64
f 64 104 106
f 67 77 108
f 67 108 102
f 67 102 101
f 67 101 107
f 69 79 70
f 70 79 71
f 71 79 72
f 72 79 110
f 72 110 73
f 73 110 111
f 73 111 112
f 73 112 75
f 73 75 74
f 75 112 77
f 75 77 76
f 77 112 104
f 77 104 103
f 77 103 102
f 77 102 108
f 78 111 79
f 79 111 110
f 94 113 95
f 95 113 96
f 96 113 97
f 97 114 115
f 97 115 116
f 97 116 98
f 97 113 114
f 98 116 117
f 98 117 100
f 99 100 109
f 99 109 101
f 100 117 116
f 100 116 109
f 101 109 118
f 101 118 107
f 104 112 106
f 106 112 119
f 106 119 111
f 109 116 115
f 109 115 120
f 109 120 121
f 109 121 122
f 109 122 123
f 111 119 112
f 113 124 125
f 113 125 114
f 114 125 124
f 114 124 120
f 114 120 115
f 120 124 121
f 121 124 122
f 122 124 123

