# https://github.com/mikedh/trimesh
v 0.08800485 0.24893446 0.20873088
v 0.01259214 0.24921048 0.20890839
v 0.01259214 0.24573518 0.21118867
v 0.01259214 0.24008311 0.21333241
v 0.01825330 0.24008311 0.21323683
v 0.01825330 0.23443733 0.21345529
v 0.08800485 0.24808759 0.20873088
v 0.08800485 0.25173227 0.20578153
v 0.00694256 0.24907246 0.20882646
v 0.01259214 0.25200201 0.20578153
v 0.00694256 0.25186399 0.20578153
v 0.00129297 0.24875254 0.20867626
v -0.00153182 0.24857062 0.20860799
v 0.00694256 0.24008311 0.21191235
v 0.01259214 0.23443733 0.21349626
v 0.01259214 0.22878527 0.21352357
v 0.01825330 0.22878527 0.21345529
v 0.01825330 0.22313320 0.21342799
v 0.01825330 0.22115718 0.21326413
v 0.08800485 0.23443733 0.20518074
v 0.08800485 0.25257913 0.20477111
v 0.00129297 0.25154407 0.20578153
v 0.08800485 0.25417250 0.20285949
v 0.00129297 0.25417250 0.20285949
v -0.00153182 0.24855180 0.20860799
v -0.00435661 0.25318761 0.20227235
v -0.00727402 0.24910384 0.20307796
v 0.00694256 0.23443733 0.21191235
v 0.01259214 0.22313320 0.21346895
v 0.01259214 0.22115718 0.21337337
v 0.01626206 0.22115718 0.21334607
v 0.02137910 0.22115718 0.21168023
v 0.08800485 0.23073620 0.20369241
v 0.08800485 0.23202219 0.20421127
v 0.08800485 0.25444224 0.20189003
v 0.00129297 0.25493782 0.20003303
v -0.00295579 0.25997512 0.18079400
v -0.00435661 0.25478099 0.19944589
v 0.00400199 0.22115718 0.20893569
v 0.00592378 0.22115718 0.21050595
v 0.00694256 0.22115718 0.21127059
v 0.00694256 0.22313320 0.21139348
v -0.00727402 0.24808759 0.20307796
v -0.00744767 0.25448616 0.19832623
v -0.00766764 0.25114886 0.20018324
v -0.03023125 0.27844940 0.07932823
v -0.03026598 0.27398295 0.07939650
v -0.00779499 0.24601746 0.20030612
v 0.02299988 0.22115718 0.21084731
v 0.08800485 0.22970113 0.20012861
v 0.07290842 0.22115718 0.18086227
v 0.08800485 0.25545849 0.19810777
v 0.00129297 0.25643082 0.19447570
v -0.00174021 0.27683093 0.11827055
v -0.00671833 0.25972419 0.18013858
v -0.00332626 0.28261474 0.09619140
v -0.00708879 0.28243281 0.09556329
v -0.00733191 0.23144506 0.19754793
v -0.01885104 0.22542915 0.11881672
v -0.01565579 0.22334650 0.11537582
v -0.01006409 0.22115718 0.11510273
v -0.00788761 0.24008311 0.19884510
v -0.00764449 0.23443733 0.19809411
v -0.02588987 0.28336122 0.07971055
v -0.03023125 0.27844940 0.07770336
v -0.03026598 0.27398295 0.07762143
v -0.02996498 0.27083385 0.07895956
v -0.01916362 0.22878527 0.11929463
v 0.07779392 0.22115718 0.17714828
v 0.07876639 0.22115718 0.17616515
v 0.08318881 0.22115718 0.16987049
v 0.08373293 0.22115718 0.16834119
v 0.08424232 0.22115718 0.16622476
v 0.08545790 0.22115718 0.16057185
v 0.08622199 0.22115718 0.15689882
v 0.08644195 0.22115718 0.15491893
v 0.08673138 0.22115718 0.15124590
v 0.08800485 0.22313947 0.12111066
v 0.08800485 0.27608444 0.12115162
v 0.00694256 0.27608444 0.12115162
v 0.00129297 0.26097253 0.17753060
v 0.00129297 0.28065753 0.10408364
v 0.00129297 0.28193725 0.09930460
v 0.00129297 0.28368117 0.09277780
v -0.00486600 0.28316049 0.09332398
v -0.02130537 0.28381916 0.08048885
v -0.01890893 0.22532879 0.11537582
v -0.01868896 0.22564245 0.11209876
v -0.01000620 0.22115718 0.11503446
v -0.02588987 0.28336122 0.07728007
v -0.02744119 0.28004904 0.07637888
v -0.02695496 0.27398295 0.07540942
v -0.02996498 0.27083385 0.07822222
v 0.08654614 0.22115718 0.14560663
v 0.08800485 0.22285718 0.11537582
v 0.08800485 0.28065753 0.10408364
v 0.08800485 0.28193725 0.09930460
v 0.08800485 0.28368117 0.09277780
v 0.08800485 0.28408890 0.09082522
v 0.00694256 0.28486049 0.08712488
v 0.00129297 0.28471621 0.08712488
v 0.00129297 0.28508635 0.08148562
v -0.02130537 0.28381916 0.07658370
v -0.01565579 0.22744282 0.10843938
v -0.01565579 0.22485830 0.11126584
v -0.00736664 0.22115718 0.11259032
v -0.02498686 0.26421574 0.07740296
v -0.01985824 0.25838175 0.07728007
v -0.01718395 0.25461162 0.07965593
v -0.02130537 0.27963502 0.07433072
v -0.02130537 0.27398295 0.07413956
v -0.02130537 0.26833089 0.07431706
v -0.02690865 0.26870727 0.07676120
v 0.08583995 0.22115718 0.14034969
v 0.06876384 0.22115718 0.12131547
v 0.06343841 0.22115718 0.11866652
v 0.02297673 0.22115718 0.11213973
v 0.08800485 0.22431254 0.11330035
v 0.08529582 0.22115718 0.13894329
v 0.08021352 0.22115718 0.13237553
v 0.08800485 0.28486049 0.08712488
v 0.08800485 0.28499225 0.08517231
v 0.01259214 0.28523690 0.08148562
v 0.00694256 0.28523060 0.08148562
v -0.01565579 0.27963502 0.07428976
v 0.08800485 0.28381916 0.07658370
v -0.01342142 0.25405958 0.07842704
v -0.00278214 0.22115718 0.11181202
v -0.02157164 0.26247181 0.07616041
v -0.01565579 0.26267882 0.07422149
v -0.01544740 0.25671310 0.07681582
v -0.01565579 0.27398295 0.07404398
v -0.01565579 0.26833089 0.07404398
v 0.01825330 0.22115718 0.11182568
v 0.08800485 0.25754115 0.07644715
v 0.08800485 0.22509669 0.11219434
v 0.08800485 0.28523690 0.08148562
v 0.08800485 0.27963502 0.07428976
v 0.08800485 0.27767780 0.07419418
v -0.01013355 0.25661274 0.07674755
v -0.01210164 0.25405958 0.07842704
v -0.01000620 0.26267882 0.07412590
v 0.08800485 0.27398295 0.07404398
v -0.01000620 0.26833089 0.07403033
v 0.08603676 0.25752860 0.07644715
v 0.08603676 0.26267882 0.07412590
v 0.08800485 0.26267882 0.07413956
v 0.08800485 0.26833089 0.07404398
v 0.08603676 0.26833089 0.07403033
f 1 2 3
f 1 3 4
f 1 4 5
f 1 5 6
f 1 6 17
f 1 17 7
f 1 7 20
f 1 20 34
f 1 34 33
f 1 33 50
f 1 50 78
f 1 78 95
f 1 95 118
f 1 118 136
f 1 136 135
f 1 135 147
f 1 147 148
f 1 148 143
f 1 143 139
f 1 139 138
f 1 138 126
f 1 126 137
f 1 137 122
f 1 122 121
f 1 121 99
f 1 99 98
f 1 98 97
f 1 97 96
f 1 96 79
f 1 79 52
f 1 52 35
f 1 35 23
f 1 23 21
f 1 21 8
f 1 8 2
f 2 9 3
f 2 8 10
f 2 10 11
f 2 11 9
f 3 9 12
f 3 12 13
f 3 13 4
f 4 14 15
f 4 15 6
f 4 6 5
f 4 13 14
f 6 15 16
f 6 16 17
f 7 17 18
f 7 18 19
f 7 19 20
f 8 21 10
f 9 11 22
f 9 22 12
f 10 21 23
f 10 23 24
f 10 24 11
f 11 24 22
f 12 22 13
f 13 25 28
f 13 28 14
f 13 22 24
f 13 24 26
f 13 26 27
f 13 27 43
f 13 43 25
f 14 28 16
f 14 16 15
f 16 29 18
f 16 18 17
f 16 28 29
f 18 29 30
f 18 30 31
f 18 31 19
f 19 31 30
f 19 30 41
f 19 41 40
f 19 40 39
f 19 39 61
f 19 61 89
f 19 89 106
f 19 106 128
f 19 128 134
f 19 134 117
f 19 117 116
f 19 116 115
f 19 115 120
f 19 120 119
f 19 119 114
f 19 114 94
f 19 94 77
f 19 77 76
f 19 76 75
f 19 75 74
f 19 74 73
f 19 73 72
f 19 72 71
f 19 71 70
f 19 70 69
f 19 69 51
f 19 51 49
f 19 49 32
f 19 32 33
f 19 33 34
f 19 34 20
f 23 35 24
f 24 35 36
f 24 36 37
f 24 37 38
f 24 38 26
f 25 39 40
f 25 40 41
f 25 41 42
f 25 42 28
f 25 43 39
f 26 38 44
f 26 44 27
f 27 44 45
f 27 45 46
f 27 46 47
f 27 47 48
f 27 48 43
f 28 42 29
f 29 42 30
f 30 42 41
f 32 49 33
f 33 49 51
f 33 51 50
f 35 52 36
f 36 52 53
f 36 53 54
f 36 54 37
f 37 55 38
f 37 54 56
f 37 56 57
f 37 57 55
f 38 55 44
f 39 43 58
f 39 58 59
f 39 59 60
f 39 60 61
f 43 48 62
f 43 62 63
f 43 63 58
f 44 55 64
f 44 64 46
f 44 46 45
f 46 64 90
f 46 90 65
f 46 65 66
f 46 66 47
f 47 66 93
f 47 93 67
f 47 67 59
f 47 59 68
f 47 68 63
f 47 63 62
f 47 62 48
f 50 51 69
f 50 69 70
f 50 70 71
f 50 71 72
f 50 72 73
f 50 73 74
f 50 74 75
f 50 75 76
f 50 76 77
f 50 77 78
f 52 79 80
f 52 80 53
f 53 81 54
f 53 80 81
f 54 82 83
f 54 83 84
f 54 84 56
f 54 81 82
f 55 57 64
f 56 84 85
f 56 85 57
f 57 85 86
f 57 86 64
f 58 63 59
f 59 67 87
f 59 87 60
f 59 63 68
f 60 87 88
f 60 88 61
f 61 88 89
f 64 86 103
f 64 103 90
f 65 90 91
f 65 91 92
f 65 92 66
f 66 92 93
f 67 93 87
f 77 94 95
f 77 95 78
f 79 96 82
f 79 82 80
f 80 82 81
f 82 96 97
f 82 97 83
f 83 97 98
f 83 98 84
f 84 98 99
f 84 99 100
f 84 100 101
f 84 101 85
f 85 101 86
f 86 101 102
f 86 102 103
f 87 93 88
f 88 104 105
f 88 105 106
f 88 106 89
f 88 93 107
f 88 107 108
f 88 108 109
f 88 109 104
f 90 103 110
f 90 110 91
f 91 110 92
f 92 110 111
f 92 111 112
f 92 112 113
f 92 113 93
f 93 113 107
f 94 114 95
f 95 115 116
f 95 116 117
f 95 117 118
f 95 114 119
f 95 119 120
f 95 120 115
f 99 121 100
f 100 122 123
f 100 123 124
f 100 124 102
f 100 102 101
f 100 121 122
f 102 124 103
f 103 125 110
f 103 124 123
f 103 123 137
f 103 137 126
f 103 126 138
f 103 138 125
f 104 109 127
f 104 127 105
f 105 127 106
f 106 127 128
f 107 113 129
f 107 129 108
f 108 129 130
f 108 130 131
f 108 131 109
f 109 131 127
f 110 125 132
f 110 132 111
f 111 132 133
f 111 133 130
f 111 130 112
f 112 130 129
f 112 129 113
f 117 134 135
f 117 135 136
f 117 136 118
f 122 137 123
f 125 138 139
f 125 139 132
f 127 131 140
f 127 140 141
f 127 141 128
f 128 141 134
f 130 133 142
f 130 142 140
f 130 140 131
f 132 139 143
f 132 143 149
f 132 149 144
f 132 144 133
f 133 144 142
f 134 141 135
f 135 141 145
f 135 145 146
f 135 146 147
f 140 142 146
f 140 146 145
f 140 145 141
f 142 144 149
f 142 149 146
f 143 148 149
f 146 149 148
f 146 148 147

