# https://github.com/mikedh/trimesh
v 0.04947880 0.14003790 0.03346461
v 0.04947880 0.07341604 0.03346461
v 0.04947880 0.14003790 0.02496530
v -0.04956054 0.14003790 0.03346461
v 0.04947880 0.06880676 0.03158827
v -0.08519256 0.07341604 0.03346461
v 0.04947880 0.13945912 0.02197866
v -0.04390529 0.14003790 0.02496530
v -0.04956054 0.14003790 0.03061373
v -0.05240794 0.13996817 0.03346461
v 0.04947880 0.06880676 -0.01260526
v -0.08519256 0.06880676 0.03158827
v -0.08519256 0.10153892 0.03346461
v 0.04947880 0.13894311 0.01931687
v -0.03825004 0.13894311 0.01931687
v -0.04956054 0.13983568 0.02496530
v -0.05520260 0.13939636 0.03346461
v 0.02953383 0.09882634 -0.01606219
v 0.03518908 0.09882634 -0.01580038
v 0.04947880 0.09882634 -0.01300282
v 0.00128396 0.06880676 -0.01260526
v -0.08519256 0.06880676 0.02138715
v -0.08519256 0.10153892 0.03061373
v -0.05986918 0.13697667 0.03346461
v 0.04947880 0.13775767 0.01753264
v -0.01001336 0.13669774 0.01588417
v -0.03825004 0.13669774 0.01593751
v -0.04390529 0.13871997 0.01931687
v -0.04932326 0.13745782 0.01918596
v -0.05329116 0.13676747 0.02097988
v -0.05518943 0.13728349 0.02544045
v -0.05520260 0.13889430 0.03061373
v -0.05789181 0.13817606 0.03346461
v 0.02953383 0.10409807 -0.01418100
v 0.03518908 0.10407019 -0.01405009
v 0.02389177 0.09882634 -0.01598947
v 0.02389177 0.10409110 -0.01416645
v 0.04083115 0.10388191 -0.01344888
v 0.04947880 0.10314973 -0.01247434
v -0.00431856 0.06880676 -0.01218344
v -0.08519256 0.09317109 0.02138715
v -0.04956054 0.06880676 -0.00406231
v -0.08519256 0.09962129 0.02496530
v -0.05892004 0.13664893 0.03061373
v 0.04947880 0.13669774 0.01593751
v -0.01113386 0.11910438 -0.00112900
v -0.04956054 0.11902768 -0.00104173
v -0.04390529 0.13646762 0.01603447
v -0.04729317 0.13601436 0.01625266
v -0.05248703 0.11876269 -0.00065870
v -0.08519256 0.09685991 0.02176533
v -0.08519256 0.09770366 0.02273986
v -0.05812909 0.13571452 0.02764164
v -0.00431856 0.07621927 -0.01218344
v -0.00430538 0.08187452 -0.01218344
v -0.04390529 0.11011594 -0.00523563
v -0.04956054 0.11577119 -0.00282595
v -0.04390529 0.11577119 -0.00333019
v -0.00713959 0.06880676 -0.01174708
v -0.05264522 0.11577119 -0.00115324
v -0.04956054 0.11011594 -0.00404776
v -0.04956054 0.10446766 -0.00406231
v -0.04779410 0.06880676 -0.00443564
v -0.00713959 0.07621927 -0.01174708
v -0.00712641 0.08187452 -0.01174223
v -0.04390529 0.10446766 -0.00525502
v -0.04390529 0.06880676 -0.00525502
f 1 2 5
f 1 5 11
f 1 11 20
f 1 20 39
f 1 39 45
f 1 45 25
f 1 25 14
f 1 14 7
f 1 7 3
f 1 3 8
f 1 8 9
f 1 9 4
f 1 4 10
f 1 10 17
f 1 17 33
f 1 33 24
f 1 24 13
f 1 13 6
f 1 6 2
f 2 6 12
f 2 12 5
f 3 7 8
f 4 9 10
f 5 12 22
f 5 22 42
f 5 42 63
f 5 63 67
f 5 67 59
f 5 59 40
f 5 40 21
f 5 21 11
f 6 13 23
f 6 23 43
f 6 43 52
f 6 52 51
f 6 51 41
f 6 41 22
f 6 22 12
f 7 14 15
f 7 15 8
f 8 15 16
f 8 16 9
f 9 16 10
f 10 16 17
f 11 18 19
f 11 19 20
f 11 21 18
f 13 24 23
f 14 25 26
f 14 26 15
f 15 26 27
f 15 27 28
f 15 28 16
f 16 28 29
f 16 29 30
f 16 30 31
f 16 31 32
f 16 32 17
f 17 32 33
f 18 34 35
f 18 35 19
f 18 21 36
f 18 36 37
f 18 37 34
f 19 35 38
f 19 38 39
f 19 39 20
f 21 40 36
f 22 41 62
f 22 62 42
f 23 24 43
f 24 33 31
f 24 31 44
f 24 44 43
f 25 45 26
f 26 46 27
f 26 45 46
f 27 46 47
f 27 47 48
f 27 48 28
f 28 48 49
f 28 49 29
f 29 49 50
f 29 50 30
f 30 51 52
f 30 52 43
f 30 43 53
f 30 53 44
f 30 44 31
f 30 50 51
f 31 33 32
f 34 45 35
f 34 37 46
f 34 46 45
f 35 45 38
f 36 40 54
f 36 54 55
f 36 55 56
f 36 56 57
f 36 57 37
f 37 57 58
f 37 58 47
f 37 47 46
f 38 45 39
f 40 59 64
f 40 64 54
f 41 51 60
f 41 60 61
f 41 61 62
f 42 62 63
f 43 44 53
f 47 58 57
f 47 57 50
f 47 50 49
f 47 49 48
f 50 57 61
f 50 61 60
f 50 60 51
f 54 64 55
f 55 64 65
f 55 65 56
f 56 65 66
f 56 66 61
f 56 61 57
f 59 67 66
f 59 66 64
f 61 66 62
f 62 66 63
f 63 66 67
f 64 66 65

