# https://github.com/mikedh/trimesh
v -0.15036740 0.08684621 0.07650041
v -0.15036740 0.08684621 0.07385879
v -0.15039992 0.08684621 0.08147648
v -0.09081874 0.05986180 0.12667069
v -0.09081874 0.05867802 0.12149667
v -0.09735577 0.03971620 0.07385879
v -0.17951838 0.08684621 0.07385879
v -0.15805354 0.08684621 0.14359207
v -0.09081874 0.05984041 0.12695055
v -0.09081874 0.05363628 0.12031579
v -0.09506834 0.03101616 0.07385879
v -0.09539358 0.03298436 0.07385879
v -0.09608738 0.03667119 0.07385879
v -0.19790442 0.06844775 0.07385879
v -0.18293325 0.08684621 0.08338773
v -0.10610431 0.05757269 0.14359207
v -0.09081874 0.05892049 0.13218601
v -0.16765852 0.08684621 0.14359207
v -0.09081874 0.04870863 0.12110077
v -0.09505751 0.01399402 0.07385879
v -0.09505751 0.02536826 0.07385879
v -0.19901018 0.06716414 0.07385879
v -0.18293325 0.08684621 0.08654812
v -0.10383857 0.05483431 0.14359207
v -0.09081874 0.05409980 0.13405630
v -0.17124684 0.08684621 0.13023381
v -0.18803927 0.06781308 0.12402907
v -0.18275978 0.06826234 0.14176956
v -0.18204429 0.06503904 0.14359207
v -0.09081874 0.04825223 0.12122363
v -0.09081874 0.04653362 0.12647957
v -0.09484070 0.01399402 0.08712832
v -0.20155777 0.01399402 0.07385879
v -0.20035445 0.06436158 0.07385879
v -0.18844037 0.06827660 0.12102568
v -0.18227195 0.08684621 0.08903956
v -0.09671616 0.04037227 0.14359207
v -0.09448294 0.03101616 0.14359207
v -0.09081874 0.05361488 0.13413139
v -0.09519844 0.03667119 0.14359207
v -0.17724181 0.08684621 0.10788585
v -0.19959559 0.06270714 0.07976318
v -0.20148189 0.05926278 0.07385879
v -0.18890653 0.06491068 0.12102568
v -0.18435339 0.06491068 0.13797436
v -0.18297661 0.06491068 0.14271153
v -0.17826084 0.08684621 0.10407700
v -0.18285735 0.05926278 0.14359207
v -0.09081874 0.04650509 0.12667069
v -0.09440706 0.01400115 0.14359207
v -0.09482985 0.01399402 0.13797436
v -0.20103742 0.01399402 0.07580417
v -0.20155777 0.05361488 0.07385879
v -0.20090734 0.06221509 0.07385879
v -0.09440706 0.02540391 0.14359207
v -0.09081874 0.04793133 0.13242492
v -0.20151443 0.05730171 0.07385879
v -0.19975821 0.05926278 0.08039116
v -0.18891737 0.05926278 0.12102568
v -0.18437507 0.05926278 0.13797436
v -0.18297661 0.05926278 0.14316886
v -0.18299828 0.01399402 0.14310743
v -0.18285735 0.01400828 0.14359207
v -0.09482985 0.01399402 0.13804262
v -0.09839648 0.01399402 0.14359207
v -0.19317782 0.01399402 0.10513501
v -0.19317782 0.05361488 0.10513501
v -0.18437507 0.01399402 0.13797436
v -0.18297661 0.01399402 0.14316886
v -0.18265138 0.01399402 0.14359207
f 1 2 7
f 1 7 15
f 1 15 23
f 1 23 36
f 1 36 47
f 1 47 41
f 1 41 26
f 1 26 18
f 1 18 8
f 1 8 3
f 1 3 4
f 1 4 2
f 2 4 5
f 2 5 6
f 2 6 13
f 2 13 12
f 2 12 11
f 2 11 21
f 2 21 20
f 2 20 33
f 2 33 53
f 2 53 57
f 2 57 43
f 2 43 54
f 2 54 34
f 2 34 22
f 2 22 14
f 2 14 7
f 3 8 4
f 4 9 17
f 4 17 25
f 4 25 39
f 4 39 56
f 4 56 49
f 4 49 31
f 4 31 30
f 4 30 19
f 4 19 10
f 4 10 5
f 4 8 9
f 5 10 11
f 5 11 12
f 5 12 13
f 5 13 6
f 7 14 15
f 8 16 17
f 8 17 9
f 8 18 29
f 8 29 48
f 8 48 63
f 8 63 70
f 8 70 65
f 8 65 50
f 8 50 55
f 8 55 38
f 8 38 40
f 8 40 37
f 8 37 24
f 8 24 16
f 10 19 20
f 10 20 21
f 10 21 11
f 14 22 15
f 15 22 23
f 16 24 17
f 17 24 25
f 18 26 27
f 18 27 28
f 18 28 29
f 19 30 20
f 20 30 31
f 20 31 32
f 20 32 51
f 20 51 64
f 20 64 65
f 20 65 70
f 20 70 69
f 20 69 62
f 20 62 68
f 20 68 66
f 20 66 52
f 20 52 33
f 22 34 27
f 22 27 35
f 22 35 23
f 23 35 27
f 23 27 36
f 24 37 25
f 25 38 39
f 25 37 40
f 25 40 38
f 26 41 27
f 27 34 42
f 27 42 43
f 27 43 44
f 27 44 45
f 27 45 46
f 27 46 28
f 27 41 47
f 27 47 36
f 28 46 29
f 29 46 48
f 31 49 32
f 32 49 50
f 32 50 51
f 33 52 53
f 34 54 42
f 38 55 39
f 39 55 50
f 39 50 56
f 42 54 43
f 43 57 58
f 43 58 44
f 44 59 60
f 44 60 45
f 44 58 53
f 44 53 59
f 45 60 61
f 45 61 48
f 45 48 46
f 48 61 62
f 48 62 63
f 49 56 50
f 50 64 51
f 50 65 64
f 52 66 67
f 52 67 53
f 53 58 57
f 53 67 59
f 59 67 60
f 60 67 66
f 60 66 68
f 60 68 62
f 60 62 61
f 62 69 63
f 63 69 70

