# https://github.com/mikedh/trimesh
v 0.21102491 -0.09917064 0.10871375
v 0.21102491 -0.09917064 0.14542461
v 0.21102491 -0.09231386 0.10871375
v 0.27816019 -0.09917064 0.10871375
v 0.26120908 -0.09917064 0.14542461
v 0.21102491 -0.09185969 0.14542461
v 0.23050083 -0.04244431 0.11537734
v 0.23145545 -0.04244431 0.10871375
v 0.28408415 -0.09763091 0.10871375
v 0.27816019 -0.09917064 0.10972731
v 0.26685648 -0.09917064 0.14362752
v 0.26685648 -0.09915956 0.14542461
v 0.26699922 0.01399402 0.14542461
v 0.23266878 -0.04202338 0.13271921
v 0.23057220 -0.04244431 0.12667741
v 0.23050083 -0.04244431 0.12102738
v 0.23321301 -0.03829036 0.11537734
v 0.23365017 -0.03829036 0.10972731
v 0.23373046 -0.03829036 0.10871375
v 0.28536885 -0.09697735 0.10871375
v 0.28280835 -0.09753121 0.11537734
v 0.27816019 -0.09876078 0.12102738
v 0.27816019 -0.09905987 0.11537734
v 0.27251279 -0.09917064 0.13232385
v 0.27251279 -0.09900448 0.13797389
v 0.27251279 -0.09861678 0.14362752
v 0.27261093 -0.09830662 0.14542461
v 0.29229205 0.01399402 0.14542461
v 0.26821257 0.01399402 0.13797389
v 0.26933669 0.01399402 0.13377231
v 0.27426143 0.01399402 0.11537734
v 0.27518928 0.01399402 0.11193053
v 0.27606360 0.01399402 0.10871375
v 0.28105078 -0.09620195 0.12974683
v 0.28143441 -0.09664504 0.12667741
v 0.28209461 -0.09723213 0.12102738
v 0.30087465 -0.06497533 0.10871375
v 0.29838552 -0.06839818 0.12102738
v 0.29798404 -0.06793294 0.12403570
v 0.27695576 -0.09748691 0.13797389
v 0.27625987 -0.09708812 0.14362752
v 0.27602790 -0.09687766 0.14542461
v 0.29290764 0.01399402 0.14320341
v 0.29229205 -0.03114557 0.14542461
v 0.30215045 0.01399402 0.10871375
v 0.29270243 -0.06838711 0.14176934
v 0.30114230 -0.06381223 0.10871375
v 0.30211475 -0.05939242 0.10871375
v 0.29884053 -0.06504179 0.12102738
v 0.29801082 -0.06504179 0.12413993
v 0.29429049 -0.06504179 0.13797389
v 0.29291657 -0.06504179 0.14271460
v 0.29004379 -0.06541842 0.14542461
v 0.29291657 0.01399402 0.14317106
v 0.29291657 -0.05939242 0.14317106
v 0.29224744 -0.05939242 0.14542461
v 0.30215937 -0.00164699 0.10871375
v 0.30186495 0.01399402 0.10979560
v 0.30215937 -0.05373197 0.10871375
v 0.30036613 -0.05939242 0.11537734
v 0.29885836 -0.05939242 0.12102738
v 0.29801972 -0.05939242 0.12415431
v 0.29429942 0.01399402 0.13803859
v 0.29885836 0.01399402 0.12102738
v 0.29801082 0.01399402 0.12419025
f 1 2 6
f 1 6 3
f 1 3 8
f 1 8 19
f 1 19 33
f 1 33 45
f 1 45 57
f 1 57 59
f 1 59 48
f 1 48 47
f 1 47 37
f 1 37 20
f 1 20 9
f 1 9 4
f 1 4 10
f 1 10 24
f 1 24 11
f 1 11 5
f 1 5 2
f 2 5 12
f 2 12 27
f 2 27 42
f 2 42 53
f 2 53 56
f 2 56 44
f 2 44 28
f 2 28 13
f 2 13 6
f 3 6 7
f 3 7 8
f 4 9 10
f 5 11 12
f 6 13 14
f 6 14 15
f 6 15 16
f 6 16 7
f 7 16 13
f 7 13 17
f 7 17 18
f 7 18 19
f 7 19 8
f 9 20 21
f 9 21 22
f 9 22 23
f 9 23 10
f 10 23 24
f 11 24 12
f 12 24 25
f 12 25 26
f 12 26 27
f 13 28 43
f 13 43 54
f 13 54 63
f 13 63 65
f 13 65 64
f 13 64 58
f 13 58 45
f 13 45 33
f 13 33 32
f 13 32 31
f 13 31 30
f 13 30 29
f 13 29 19
f 13 19 18
f 13 18 17
f 13 16 15
f 13 15 14
f 19 29 30
f 19 30 31
f 19 31 32
f 19 32 33
f 20 34 35
f 20 35 36
f 20 36 21
f 20 37 38
f 20 38 39
f 20 39 34
f 21 36 22
f 22 36 40
f 22 40 26
f 22 26 25
f 22 25 23
f 23 25 24
f 26 40 41
f 26 41 27
f 27 41 42
f 28 44 43
f 34 42 35
f 34 39 46
f 34 46 42
f 35 42 41
f 35 41 36
f 36 41 40
f 37 47 38
f 38 47 48
f 38 48 39
f 39 49 50
f 39 50 51
f 39 51 52
f 39 52 46
f 39 48 49
f 42 46 53
f 43 44 55
f 43 55 54
f 44 56 55
f 45 58 57
f 46 52 56
f 46 56 53
f 48 59 49
f 49 59 60
f 49 60 50
f 50 55 51
f 50 60 61
f 50 61 62
f 50 62 55
f 51 55 52
f 52 55 56
f 54 55 63
f 55 62 63
f 57 58 64
f 57 64 65
f 57 65 63
f 57 63 59
f 59 61 60
f 59 63 61
f 61 63 62

