# https://github.com/mikedh/trimesh
v -0.08230152 0.06880676 0.05890471
v -0.08230152 0.06880676 0.05886849
v -0.08399270 0.06880676 0.06307432
v -0.01270122 0.05650306 0.05049304
v -0.08423089 0.06880676 0.05446703
v -0.01270122 0.05650306 0.05010180
v -0.08511221 0.06880676 0.06349816
v -0.01567864 0.05449688 0.07385517
v -0.00436442 0.05171088 0.07385517
v 0.00128078 0.04934479 0.07385517
v -0.00091061 0.05112436 0.05162329
v -0.01567864 0.05680966 0.04894982
v -0.02153821 0.05709625 0.04715663
v -0.02356286 0.05647640 0.04471500
v -0.15306897 0.06880676 0.03685035
v -0.00091061 0.05112436 0.04908023
v -0.00441206 0.05180420 0.04734501
v -0.00631761 0.05100439 0.04462806
v -0.02132384 0.05526336 0.07385517
v -0.08913769 0.06880676 0.06428427
v 0.00554445 0.04659878 0.07385517
v -0.01979940 0.05576324 0.04499757
v -0.02696903 0.03572141 0.03685035
v -0.20961625 0.06880676 0.03685035
v -0.00255415 0.04978468 0.04531273
v 0.00523480 0.04609224 0.04757323
v 0.00432966 0.04532576 0.04464980
v -0.01186753 0.02897637 0.03685035
v -0.02318175 0.03454170 0.03685035
v -0.15314044 0.06880676 0.07385517
v 0.01781145 0.03097589 0.07385517
v 0.01642992 0.03540149 0.05179718
v 0.01407180 0.03807418 0.04757323
v 0.01135639 0.04086017 0.05193121
v -0.21102160 0.06825356 0.03685035
v -0.20601952 0.06880676 0.05317014
v 0.01123729 0.04073354 0.04757323
v 0.01011778 0.03977377 0.04462806
v -0.00584122 0.02387094 0.03685035
v -0.19753980 0.06880676 0.07385517
v 0.03184108 0.00600858 0.07385517
v 0.02140817 0.02872977 0.05085530
v 0.02140817 0.02872977 0.04914906
v 0.01631082 0.03525486 0.04757323
v 0.01559624 0.03416845 0.04464617
v -0.21142653 0.06546090 0.03685035
v -0.21066431 0.06786032 0.03941152
v -0.20540022 0.06829355 0.05712964
v -0.20594807 0.06880676 0.05348531
v -0.00000547 0.01815232 0.03685035
v -0.19789711 0.06844685 0.07385517
v 0.03184108 0.00071653 0.07385517
v 0.03184108 0.00941443 0.04720373
v 0.03184108 0.00824804 0.04604087
v 0.03184108 0.00665509 0.04457010
v -0.21145036 0.06491436 0.03685035
v -0.20704376 0.06491436 0.05322086
v -0.20561459 0.06491436 0.05814396
v -0.20147000 0.05926239 0.07385517
v -0.20089836 0.06222168 0.07385517
v -0.20035049 0.06436116 0.07385517
v -0.19899281 0.06716049 0.07385517
v 0.00042328 0.01719922 0.03685035
v 0.03184108 0.00071653 0.04439259
v -0.20154147 0.00071653 0.07385517
v 0.03184108 0.00516212 0.04449764
v 0.00137606 0.01406664 0.03685035
v -0.21147417 0.01505307 0.03685035
v -0.21073576 0.05926239 0.03959990
v -0.20563842 0.05926239 0.05861490
v -0.20487618 0.05926239 0.06144053
v -0.20154147 0.05361043 0.07385517
v 0.03184108 0.00276270 0.04439259
v 0.00259084 0.00071653 0.03685035
v -0.20156528 0.00071653 0.07377547
v 0.00254320 0.00276270 0.03685035
v -0.21147417 0.00071653 0.03685035
v -0.20254189 0.05361043 0.07017098
v 0.00259084 0.00097647 0.03685035
v 0.00256702 0.00196289 0.03685035
v -0.20254189 0.00071653 0.07017098
f 1 2 5
f 1 5 15
f 1 15 24
f 1 24 36
f 1 36 49
f 1 49 40
f 1 40 30
f 1 30 20
f 1 20 7
f 1 7 3
f 1 3 4
f 1 4 6
f 1 6 2
f 2 6 5
f 3 7 8
f 3 8 4
f 4 8 9
f 4 9 10
f 4 10 11
f 4 11 16
f 4 16 6
f 5 6 12
f 5 12 13
f 5 13 14
f 5 14 15
f 6 16 17
f 6 17 18
f 6 18 12
f 7 19 8
f 7 20 19
f 8 19 30
f 8 30 40
f 8 40 51
f 8 51 62
f 8 62 61
f 8 61 60
f 8 60 59
f 8 59 72
f 8 72 65
f 8 65 52
f 8 52 41
f 8 41 31
f 8 31 21
f 8 21 10
f 8 10 9
f 10 21 11
f 11 21 16
f 12 18 22
f 12 22 14
f 12 14 13
f 14 22 18
f 14 18 23
f 14 23 15
f 15 23 29
f 15 29 28
f 15 28 39
f 15 39 50
f 15 50 63
f 15 63 67
f 15 67 76
f 15 76 80
f 15 80 79
f 15 79 74
f 15 74 77
f 15 77 68
f 15 68 56
f 15 56 46
f 15 46 35
f 15 35 24
f 16 25 17
f 16 21 26
f 16 26 27
f 16 27 25
f 17 25 18
f 18 28 29
f 18 29 23
f 18 25 27
f 18 27 28
f 19 20 30
f 21 31 32
f 21 32 33
f 21 33 34
f 21 34 26
f 24 35 36
f 26 34 37
f 26 37 27
f 27 37 33
f 27 33 38
f 27 38 39
f 27 39 28
f 31 41 42
f 31 42 32
f 32 42 43
f 32 43 44
f 32 44 33
f 33 45 38
f 33 37 34
f 33 44 45
f 35 46 47
f 35 47 48
f 35 48 49
f 35 49 36
f 38 45 50
f 38 50 39
f 40 49 48
f 40 48 51
f 41 52 64
f 41 64 73
f 41 73 66
f 41 66 55
f 41 55 54
f 41 54 53
f 41 53 42
f 42 53 43
f 43 53 45
f 43 45 44
f 45 53 54
f 45 54 55
f 45 55 50
f 46 56 47
f 47 56 57
f 47 57 58
f 47 58 48
f 48 58 59
f 48 59 60
f 48 60 61
f 48 61 62
f 48 62 51
f 50 55 63
f 52 65 75
f 52 75 81
f 52 81 77
f 52 77 74
f 52 74 64
f 55 66 67
f 55 67 63
f 56 68 69
f 56 69 70
f 56 70 57
f 57 70 71
f 57 71 59
f 57 59 58
f 59 71 72
f 64 74 79
f 64 79 73
f 65 72 75
f 66 73 67
f 67 73 76
f 68 77 81
f 68 81 78
f 68 78 69
f 69 78 70
f 70 78 71
f 71 78 72
f 72 78 75
f 73 79 80
f 73 80 76
f 75 78 81

