# https://github.com/mikedh/trimesh
v 0.08040489 -0.10316610 -0.01456150
v 0.08040489 -0.10421795 -0.01418067
v 0.07476024 -0.10418986 -0.01405085
v 0.07476024 -0.10316610 -0.01438839
v 0.08492912 -0.10316610 -0.01454419
v 0.08604954 -0.10421395 -0.01416336
v 0.04611150 -0.13682144 0.01594766
v 0.12105205 -0.11923700 -0.00112881
v 0.04611150 -0.10356757 -0.01273527
v 0.04611150 -0.10350735 -0.01275259
v 0.04611150 -0.10321026 -0.01282182
v 0.04611150 -0.10316610 -0.01283048
v 0.08604954 -0.10316610 -0.01452687
v 0.15950092 -0.11590077 -0.00282521
v 0.15384209 -0.11590077 -0.00332720
v 0.15950092 -0.11916072 -0.00104227
v 0.04611150 -0.13891311 0.01908079
v 0.11994581 -0.13682144 0.01588707
v 0.14819743 -0.13682144 0.01594766
v 0.04611150 -0.10316610 0.05877298
v 0.15384209 -0.10316610 -0.00524863
v 0.15384209 -0.10459936 -0.00524863
v 0.15384209 -0.11024805 -0.00523133
v 0.15950092 -0.11024805 -0.00404557
v 0.16243671 -0.11889173 -0.00066144
v 0.15723171 -0.13613894 0.01625924
v 0.15384209 -0.13659662 0.01604286
v 0.04611150 -0.13906968 0.01932314
v 0.14819743 -0.13906968 0.01932314
v 0.15384209 -0.13884486 0.01932314
v 0.04611150 -0.12895261 0.07385879
v 0.10051573 -0.10316610 0.07385879
v 0.15806849 -0.10316610 -0.00436581
v 0.15950092 -0.10459936 -0.00406288
v 0.16269200 -0.11024805 -0.00153560
v 0.16259271 -0.11590077 -0.00114613
v 0.15927400 -0.13758825 0.01919331
v 0.19061741 -0.13575755 0.07291538
v 0.16801045 -0.13575755 0.02771856
v 0.16323093 -0.13689773 0.02098492
v 0.04611150 -0.14009343 0.02457677
v 0.15950092 -0.13996496 0.02497490
v 0.15384209 -0.14016972 0.02497490
v 0.04611150 -0.14016972 0.07385879
v 0.18843331 -0.10316610 0.07385879
v 0.15950092 -0.10316610 -0.00406288
v 0.16188359 -0.10316610 -0.00217608
v 0.16269200 -0.10316610 -0.00153560
v 0.18229227 -0.10316610 0.04662126
v 0.18712851 -0.10316610 0.05886819
v 0.18812128 -0.10316610 0.06178495
v 0.19097199 -0.13457321 0.07385879
v 0.19084434 -0.13606667 0.07385879
v 0.18568189 -0.13670903 0.06451996
v 0.18003724 -0.13670903 0.05321642
v 0.16873375 -0.13670903 0.03061802
v 0.16513139 -0.13735941 0.02549421
v 0.16514557 -0.13895727 0.03061802
v 0.04611150 -0.14016972 0.02497490
v 0.16514557 -0.14001716 0.03626112
v 0.14819743 -0.14388735 0.07385879
v 0.13689395 -0.14417640 0.07385879
v 0.18860349 -0.10359167 0.07385879
v 0.18890133 -0.10459936 0.07385879
v 0.18997920 -0.13697400 0.07385879
v 0.17647742 -0.13740357 0.04808396
v 0.17081859 -0.13740357 0.03678043
v 0.17080440 -0.13895727 0.04191289
v 0.17080440 -0.14001716 0.04756466
v 0.18209371 -0.14001716 0.07016307
v 0.18209371 -0.14011752 0.07385879
v 0.18775254 -0.13836310 0.07385879
v 0.18776672 -0.13740357 0.07069103
v 0.18209371 -0.13895727 0.06451996
v 0.18578116 -0.13932663 0.07385879
f 1 2 3
f 1 3 4
f 1 4 12
f 1 12 20
f 1 20 32
f 1 32 45
f 1 45 51
f 1 51 50
f 1 50 49
f 1 49 48
f 1 48 47
f 1 47 46
f 1 46 33
f 1 33 21
f 1 21 13
f 1 13 5
f 1 5 6
f 1 6 2
f 2 7 3
f 2 6 8
f 2 8 7
f 3 7 9
f 3 9 4
f 4 9 10
f 4 10 11
f 4 11 12
f 5 13 6
f 6 13 14
f 6 14 15
f 6 15 16
f 6 16 8
f 7 17 28
f 7 28 41
f 7 41 59
f 7 59 44
f 7 44 31
f 7 31 20
f 7 20 12
f 7 12 11
f 7 11 10
f 7 10 9
f 7 8 18
f 7 18 17
f 8 16 19
f 8 19 18
f 13 21 22
f 13 22 23
f 13 23 14
f 14 24 25
f 14 25 16
f 14 16 15
f 14 23 24
f 16 25 26
f 16 26 27
f 16 27 19
f 17 18 29
f 17 29 28
f 18 19 29
f 19 27 30
f 19 30 29
f 20 31 32
f 21 33 22
f 22 33 34
f 22 34 24
f 22 24 23
f 24 34 35
f 24 35 36
f 24 36 25
f 25 37 26
f 25 36 38
f 25 38 39
f 25 39 40
f 25 40 37
f 26 37 30
f 26 30 27
f 28 29 41
f 29 30 42
f 29 42 43
f 29 43 41
f 30 37 42
f 31 44 62
f 31 62 61
f 31 61 71
f 31 71 75
f 31 75 72
f 31 72 65
f 31 65 53
f 31 53 52
f 31 52 64
f 31 64 63
f 31 63 45
f 31 45 32
f 33 46 34
f 34 46 47
f 34 47 35
f 35 47 48
f 35 48 49
f 35 49 36
f 36 49 38
f 37 40 42
f 38 49 50
f 38 50 51
f 38 51 52
f 38 52 53
f 38 53 54
f 38 54 55
f 38 55 56
f 38 56 39
f 39 56 40
f 40 56 57
f 40 57 58
f 40 58 42
f 41 43 59
f 42 58 60
f 42 60 61
f 42 61 43
f 43 61 62
f 43 62 59
f 44 59 62
f 45 63 51
f 51 63 64
f 51 64 52
f 53 65 54
f 54 65 55
f 55 65 66
f 55 66 56
f 56 66 67
f 56 67 57
f 57 67 58
f 58 67 68
f 58 68 60
f 60 68 69
f 60 69 61
f 61 69 70
f 61 70 71
f 65 72 73
f 65 73 66
f 66 68 67
f 66 73 72
f 66 72 68
f 68 72 74
f 68 74 75
f 68 75 69
f 69 75 70
f 70 75 71
f 72 75 74

