# https://github.com/mikedh/trimesh
v -0.09081692 0.08684621 0.15398652
v -0.09081692 0.07621361 0.15661653
v -0.09081692 0.08684621 0.14984900
v -0.11357830 0.08684621 0.18129574
v -0.09081692 0.07056571 0.15687184
v -0.09081692 0.08348743 0.14885211
v -0.09411489 0.08684621 0.14846713
v -0.11402885 0.08684621 0.18154699
v -0.11357830 0.01399402 0.18129574
v -0.09081692 0.06491068 0.15690831
v -0.09081692 0.07644180 0.14752291
v -0.09477268 0.08684621 0.14841039
v -0.10609931 0.05757269 0.14359207
v -0.11737186 0.08684621 0.18338679
v -0.11737186 0.01399402 0.18338679
v -0.09087999 0.01399402 0.15671379
v -0.09081692 0.01400115 0.15690831
v -0.09081692 0.07056571 0.14708120
v -0.09519619 0.03667119 0.14359207
v -0.09671001 0.04037227 0.14359207
v -0.10383758 0.05483431 0.14359207
v -0.15804679 0.08684621 0.14359207
v -0.11804768 0.08684621 0.18355294
v -0.12302165 0.01399402 0.18476056
v -0.09081692 0.01399402 0.15602893
v -0.09081692 0.07001661 0.14707715
v -0.09440324 0.02540391 0.14359207
v -0.09448434 0.03101616 0.14359207
v -0.16766135 0.08684621 0.14359207
v -0.12302165 0.08684621 0.18476056
v -0.12309374 0.01399402 0.18476461
v -0.09081692 0.01399402 0.14704473
v -0.09081692 0.06491068 0.14704473
v -0.09440324 0.01400115 0.14359207
v -0.18205167 0.06503904 0.14359207
v -0.16403900 0.08684621 0.16622886
v -0.12369747 0.08684621 0.18478893
v -0.12867146 0.08684621 0.18499155
v -0.12867146 0.01399402 0.18499155
v -0.09440324 0.01399402 0.14362854
v -0.09840404 0.01399402 0.14359207
v -0.18285363 0.05926278 0.14359207
v -0.18215079 0.05926278 0.14599921
v -0.15978588 0.08684621 0.18042448
v -0.16257925 0.08684621 0.17187793
v -0.13433026 0.08684621 0.18499155
v -0.13997104 0.01399402 0.18499155
v -0.18264638 0.01399402 0.14359207
v -0.18285363 0.01400828 0.14359207
v -0.18215980 0.05361488 0.14599921
v -0.15977687 0.08402226 0.18040421
v -0.15747010 0.08684621 0.18225616
v -0.18215980 0.01399402 0.14599921
v -0.15127064 0.08684621 0.18473220
v -0.13997104 0.06491068 0.18499155
v -0.14562085 0.01399402 0.18487808
v -0.18216881 0.01399402 0.14596273
v -0.15853338 0.01399402 0.17842663
v -0.15850635 0.01399402 0.17846311
v -0.15568596 0.01399402 0.18161183
v -0.15698351 0.08684621 0.18262899
v -0.15127064 0.01399402 0.18382040
v -0.14562085 0.06491068 0.18487808
f 1 2 5
f 1 5 10
f 1 10 17
f 1 17 25
f 1 25 32
f 1 32 33
f 1 33 26
f 1 26 18
f 1 18 11
f 1 11 6
f 1 6 3
f 1 3 7
f 1 7 12
f 1 12 22
f 1 22 29
f 1 29 36
f 1 36 45
f 1 45 44
f 1 44 52
f 1 52 61
f 1 61 54
f 1 54 46
f 1 46 38
f 1 38 37
f 1 37 30
f 1 30 23
f 1 23 14
f 1 14 8
f 1 8 4
f 1 4 2
f 2 4 5
f 3 6 7
f 4 8 9
f 4 9 17
f 4 17 10
f 4 10 5
f 6 11 7
f 7 11 13
f 7 13 12
f 8 14 15
f 8 15 9
f 9 16 17
f 9 15 24
f 9 24 31
f 9 31 39
f 9 39 47
f 9 47 56
f 9 56 62
f 9 62 60
f 9 60 59
f 9 59 58
f 9 58 53
f 9 53 57
f 9 57 48
f 9 48 41
f 9 41 40
f 9 40 32
f 9 32 25
f 9 25 16
f 11 18 19
f 11 19 20
f 11 20 21
f 11 21 13
f 12 13 22
f 13 21 20
f 13 20 19
f 13 19 28
f 13 28 27
f 13 27 34
f 13 34 41
f 13 41 48
f 13 48 49
f 13 49 42
f 13 42 35
f 13 35 29
f 13 29 22
f 14 23 15
f 15 23 24
f 16 25 17
f 18 26 27
f 18 27 28
f 18 28 19
f 23 30 24
f 24 30 31
f 26 33 27
f 27 33 32
f 27 32 34
f 29 35 36
f 30 37 31
f 31 37 38
f 31 38 39
f 32 40 34
f 34 40 41
f 35 42 43
f 35 43 44
f 35 44 45
f 35 45 36
f 38 46 55
f 38 55 47
f 38 47 39
f 42 49 53
f 42 53 50
f 42 50 43
f 43 50 44
f 44 51 52
f 44 50 53
f 44 53 51
f 46 54 55
f 47 55 63
f 47 63 56
f 48 57 49
f 49 57 53
f 51 53 58
f 51 58 59
f 51 59 60
f 51 60 52
f 52 60 61
f 54 62 56
f 54 56 63
f 54 63 55
f 54 61 62
f 60 62 61

