# https://github.com/mikedh/trimesh
v -0.08373142 0.01399818 0.07385879
v -0.08685825 0.01399818 0.07802351
v -0.08678772 0.05658807 0.07819408
v -0.08288506 0.01815502 0.07385879
v 0.14690127 0.01399818 0.07385879
v -0.08688176 0.01399818 0.07806616
v -0.08521255 0.05658807 0.07789559
v -0.08227380 0.01991449 0.07385879
v -0.08257943 0.01919736 0.07385879
v -0.08688176 0.03101746 0.07819408
v -0.08822183 0.05658807 0.08147753
v 0.14683074 0.01428587 0.07385879
v 0.14934630 0.05314836 0.07438471
v 0.14934630 0.04904572 0.07510963
v 0.14835889 0.01399818 0.08147753
v -0.08829236 0.01399818 0.08142067
v -0.08831586 0.03101746 0.08147753
v -0.08344930 0.05658807 0.07756866
v -0.07752479 0.02934138 0.07385879
v -0.08869203 0.05658807 0.08444827
v 0.14175259 0.02460500 0.07385879
v 0.14934630 0.05658807 0.07607618
v 0.13589861 0.02998346 0.07385879
v 0.12374396 0.03482408 0.07385879
v 0.11998236 0.03613325 0.07385879
v -0.01564658 0.05449923 0.07385879
v -0.02128897 0.05526222 0.07385879
v -0.02695487 0.05548320 0.07385879
v 0.14934630 0.01399818 0.10615316
v -0.08831586 0.01399818 0.08147753
v -0.08911520 0.01399818 0.08706366
v -0.08911520 0.05658807 0.08713473
v -0.03823965 0.05517050 0.07385879
v -0.04813735 0.05389468 0.07385879
v -0.04954794 0.05371122 0.07385879
v -0.05523735 0.05291488 0.07385879
v -0.05580159 0.05271475 0.07385879
v -0.05822312 0.05119711 0.07385879
v -0.07195293 0.03656269 0.07385879
v -0.07646684 0.03101746 0.07385879
v -0.07693704 0.03027949 0.07385879
v -0.03412541 0.05658807 0.07466899
v -0.03767542 0.05523720 0.07385879
v 0.14934630 0.05658807 0.15942750
v -0.03259726 0.05556658 0.07385879
v -0.03259726 0.05658807 0.07458371
v 0.14934630 0.01399818 0.14740240
v -0.09078440 0.01399818 0.14703283
v -0.09078440 0.04824937 0.12123429
v -0.09078440 0.04870384 0.12110637
v -0.09078440 0.05364035 0.12032459
v -0.09078440 0.05658807 0.12104951
v 0.14934630 0.01401486 0.15942750
v 0.14899365 0.05658807 0.17455127
v 0.14904068 0.01399818 0.17193588
v -0.09078440 0.01399818 0.15689740
v -0.09078440 0.05658807 0.15689740
v 0.14892313 0.01399818 0.17752202
v 0.14892313 0.05658807 0.17752202
v -0.08939731 0.01399818 0.16622183
v -0.08939731 0.05658807 0.16622183
v 0.14271650 0.01399818 0.21142258
v 0.14708934 0.05658807 0.18205631
v 0.14121185 0.01399818 0.21574366
v -0.08798671 0.01399818 0.17068505
v -0.08864500 0.05658807 0.16859558
v 0.14316319 0.05658807 0.18488490
v 0.13491119 0.02327081 0.21514667
v 0.14022444 0.01758799 0.21496189
v 0.14118835 0.01406489 0.21574366
v 0.13688602 0.01406489 0.21767678
v 0.13688602 0.01399818 0.21767678
v -0.08796321 0.01399818 0.17074191
v -0.08796321 0.05658807 0.17074191
v 0.11231812 0.05658807 0.20387491
v 0.13124363 0.02450077 0.21588580
v 0.13683901 0.01956843 0.21598530
v 0.13124363 0.01971436 0.21780470
v 0.13124363 0.01406489 0.21810319
v 0.13124363 0.01399818 0.21810319
v -0.08351983 0.01399818 0.17349944
v -0.08344930 0.05658807 0.17352786
v 0.11057838 0.05658807 0.20450033
v 0.12614198 0.02593086 0.21636908
v 0.10862706 0.05658807 0.20519682
v 0.11993535 0.02536799 0.21777627
v 0.12557774 0.01971436 0.21810319
v 0.06908331 0.01406489 0.21905554
v 0.06908331 0.01399818 0.21905554
v -0.08344930 0.01399818 0.17352786
v -0.08055758 0.01399818 0.17465077
v -0.08051056 0.05658807 0.17466498
v 0.11993535 0.02947063 0.21585737
v 0.10298467 0.05658807 0.20559481
v 0.11429296 0.02536799 0.21793262
v 0.05777502 0.02536799 0.21879968
v 0.06344092 0.01971436 0.21904133
v 0.06344092 0.01406489 0.21906975
v 0.06344092 0.01399818 0.21906975
v 0.02923393 0.01399818 0.21688079
v -0.00238696 0.05658807 0.20387491
v 0.00694649 0.05658807 0.20559481
v 0.05213263 0.02536799 0.21879968
v 0.05777502 0.01971436 0.21905554
v 0.04649024 0.01406489 0.21906975
v 0.04641971 0.01399818 0.21906975
v 0.03511142 0.01399818 0.21892761
v 0.00130410 0.05658807 0.20519682
v 0.00426635 0.05658807 0.20541003
v 0.04649024 0.02536799 0.21858648
v 0.04082434 0.01971436 0.21892761
v 0.04649024 0.01971436 0.21904133
v 0.05213263 0.01971436 0.21905554
v 0.04082434 0.01406489 0.21905554
v 0.04075381 0.01399818 0.21905554
f 1 2 3
f 1 3 4
f 1 4 9
f 1 9 8
f 1 8 19
f 1 19 41
f 1 41 40
f 1 40 39
f 1 39 38
f 1 38 37
f 1 37 36
f 1 36 35
f 1 35 34
f 1 34 33
f 1 33 43
f 1 43 45
f 1 45 28
f 1 28 27
f 1 27 26
f 1 26 25
f 1 25 24
f 1 24 23
f 1 23 21
f 1 21 12
f 1 12 5
f 1 5 15
f 1 15 29
f 1 29 47
f 1 47 55
f 1 55 58
f 1 58 62
f 1 62 64
f 1 64 72
f 1 72 80
f 1 80 89
f 1 89 99
f 1 99 106
f 1 106 115
f 1 115 107
f 1 107 100
f 1 100 91
f 1 91 90
f 1 90 81
f 1 81 73
f 1 73 65
f 1 65 60
f 1 60 56
f 1 56 48
f 1 48 31
f 1 31 30
f 1 30 16
f 1 16 6
f 1 6 2
f 2 6 3
f 3 7 8
f 3 8 9
f 3 9 4
f 3 6 10
f 3 10 17
f 3 17 11
f 3 11 20
f 3 20 32
f 3 32 52
f 3 52 57
f 3 57 61
f 3 61 66
f 3 66 74
f 3 74 82
f 3 82 92
f 3 92 101
f 3 101 108
f 3 108 109
f 3 109 102
f 3 102 94
f 3 94 85
f 3 85 83
f 3 83 75
f 3 75 67
f 3 67 63
f 3 63 59
f 3 59 54
f 3 54 44
f 3 44 22
f 3 22 46
f 3 46 42
f 3 42 18
f 3 18 7
f 5 12 13
f 5 13 14
f 5 14 15
f 6 16 17
f 6 17 10
f 7 18 19
f 7 19 8
f 11 17 20
f 12 21 13
f 13 22 44
f 13 44 53
f 13 53 47
f 13 47 29
f 13 29 14
f 13 21 23
f 13 23 24
f 13 24 25
f 13 25 26
f 13 26 27
f 13 27 28
f 13 28 22
f 14 29 15
f 16 30 17
f 17 30 31
f 17 31 32
f 17 32 20
f 18 33 34
f 18 34 35
f 18 35 36
f 18 36 37
f 18 37 38
f 18 38 39
f 18 39 40
f 18 40 41
f 18 41 19
f 18 42 43
f 18 43 33
f 22 28 45
f 22 45 46
f 31 48 49
f 31 49 50
f 31 50 51
f 31 51 32
f 32 51 52
f 42 46 43
f 43 46 45
f 44 54 53
f 47 53 55
f 48 56 57
f 48 57 52
f 48 52 51
f 48 51 50
f 48 50 49
f 53 54 58
f 53 58 55
f 54 59 58
f 56 60 61
f 56 61 57
f 58 59 62
f 59 63 64
f 59 64 62
f 60 65 61
f 61 65 66
f 63 67 68
f 63 68 69
f 63 69 70
f 63 70 64
f 64 70 71
f 64 71 72
f 65 73 74
f 65 74 66
f 67 75 68
f 68 76 77
f 68 77 69
f 68 75 76
f 69 77 70
f 70 77 71
f 71 77 78
f 71 78 79
f 71 79 80
f 71 80 72
f 73 81 74
f 74 81 82
f 75 83 76
f 76 84 78
f 76 78 77
f 76 83 85
f 76 85 84
f 78 84 86
f 78 86 87
f 78 87 79
f 79 87 88
f 79 88 89
f 79 89 80
f 81 90 82
f 82 90 91
f 82 91 92
f 84 85 93
f 84 93 86
f 85 86 93
f 85 94 86
f 86 94 95
f 86 95 87
f 87 95 96
f 87 96 97
f 87 97 88
f 88 97 98
f 88 98 99
f 88 99 89
f 91 100 92
f 92 100 101
f 94 102 103
f 94 103 96
f 94 96 95
f 96 103 113
f 96 113 104
f 96 104 97
f 97 104 98
f 98 104 113
f 98 113 105
f 98 105 106
f 98 106 99
f 100 107 108
f 100 108 101
f 102 109 110
f 102 110 103
f 103 110 111
f 103 111 112
f 103 112 113
f 105 114 115
f 105 115 106
f 105 113 114
f 107 115 111
f 107 111 108
f 108 111 110
f 108 110 109
f 111 115 114
f 111 114 112
f 112 114 113

