# https://github.com/mikedh/trimesh
v 0.08786248 0.19487457 0.15493319
v 0.08779538 0.18922917 0.15493319
v 0.08722019 0.18922917 0.14928569
v 0.08653955 0.22115089 0.14561680
v 0.08769951 0.21182796 0.15493319
v 0.08735440 0.20052571 0.16058069
v 0.08737357 0.19487457 0.16058069
v 0.08655872 0.16254549 0.15493319
v 0.08723936 0.18922917 0.16058069
v 0.08565759 0.16254549 0.14874878
v 0.08561924 0.18922917 0.14362824
v 0.08584932 0.22115089 0.14035707
v 0.08673128 0.22115089 0.15126430
v 0.08741192 0.21747910 0.15493319
v 0.08716267 0.21182796 0.16058069
v 0.08726812 0.20617683 0.16058069
v 0.08558090 0.21182796 0.16622820
v 0.08562883 0.20617683 0.16622820
v 0.08566718 0.20052571 0.16622820
v 0.08567676 0.19487457 0.16622820
v 0.08567676 0.18922917 0.16622820
v 0.08572470 0.16254549 0.16079944
v 0.08566718 0.16254549 0.16113749
v 0.08439218 0.16254549 0.14530857
v 0.08392244 0.18922917 0.13973067
v 0.08529331 0.22115089 0.13894519
v 0.08644369 0.22115089 0.15493319
v 0.08622319 0.22115089 0.15691181
v 0.08676962 0.21747910 0.16058069
v 0.08525496 0.21747910 0.16622820
v 0.08379781 0.21747910 0.16995674
v 0.08391285 0.21182796 0.17012577
v 0.08391285 0.18922917 0.17012577
v 0.08343353 0.16254549 0.16622820
v 0.08034668 0.16254549 0.13770234
v 0.08204349 0.18922917 0.13690692
v 0.07922506 0.18922917 0.13316843
v 0.08021247 0.22115089 0.13236307
v 0.08546586 0.22115089 0.16058069
v 0.08424838 0.22115089 0.16622820
v 0.08373071 0.22115089 0.16834601
v 0.08352939 0.22081241 0.16953914
v 0.08191886 0.21747910 0.17278049
v 0.08204349 0.21182796 0.17294952
v 0.08204349 0.18922917 0.17294952
v 0.08034668 0.16254549 0.17214416
v 0.08051923 0.16254549 0.17181604
v 0.07806510 0.16254549 0.13471951
v 0.07652167 0.18922917 0.13034468
v 0.06876620 0.22115089 0.12131663
v 0.08318428 0.22115089 0.16987720
v 0.07877450 0.22115089 0.17617098
v 0.07909085 0.21747910 0.17653886
v 0.07922506 0.21182796 0.17667806
v 0.07922506 0.18922917 0.17667806
v 0.07506452 0.16254549 0.17773200
v 0.07506452 0.16254549 0.13212444
v 0.06905380 0.16254549 0.12710333
v 0.06344571 0.22115089 0.11867185
v 0.07779667 0.22115089 0.17715532
v 0.07632035 0.21747910 0.17936261
v 0.07651209 0.21182796 0.17951175
v 0.07651209 0.18922917 0.17951175
v 0.06933181 0.16254549 0.18255425
v 0.06832523 0.16254549 0.12685477
v 0.02147607 0.20808731 0.11230847
v 0.02167739 0.21182796 0.11218916
v 0.02298115 0.22115089 0.11213944
v 0.06344571 0.16254549 0.12552243
v 0.07290757 0.22115089 0.18086398
v 0.07284046 0.22107631 0.18094352
v 0.07349234 0.21747910 0.18139095
v 0.07368407 0.21182796 0.18154009
v 0.07368407 0.18922917 0.18154009
v 0.06909214 0.18922917 0.18426441
v 0.06896752 0.16254549 0.18276305
v 0.01824542 0.20699152 0.11218916
v 0.01824542 0.21182796 0.11182127
v 0.06306224 0.16254549 0.12546278
v 0.01824542 0.22115089 0.11182127
v 0.02300032 0.22115089 0.21084147
v 0.06909214 0.21747910 0.18403572
v 0.06909214 0.21182796 0.18427435
v 0.06909214 0.19487457 0.18427435
v 0.06344571 0.16254549 0.18434395
v 0.02138021 0.22115089 0.21168661
v 0.01824542 0.21747910 0.21296923
v 0.01259898 0.20376721 0.11264653
v 0.01259898 0.20658991 0.11218916
v 0.05778968 0.16254549 0.12497558
v 0.01259898 0.21182796 0.11182127
v -0.00277774 0.22115089 0.11180139
v 0.05778009 0.16254549 0.18491069
v 0.01852343 0.21157554 0.21096078
v 0.01682663 0.20730132 0.20991680
v 0.01824542 0.22115089 0.21326751
v 0.01259898 0.21747910 0.21319791
v 0.01259898 0.21182796 0.21230306
v 0.00859184 0.19707765 0.11787643
v 0.00875480 0.20754802 0.11230847
v 0.05213365 0.16254549 0.12498552
v 0.04648721 0.16254549 0.12552243
v 0.04086953 0.16254549 0.12710333
v -0.00736966 0.22115089 0.11258687
v 0.05213365 0.16254549 0.18490075
v 0.01259898 0.20700873 0.21010571
v 0.01627061 0.22115089 0.21334706
v 0.01259898 0.22115089 0.21337689
v 0.00694296 0.22115089 0.21126902
v 0.00694296 0.21747910 0.21104033
v 0.00726890 0.21235579 0.20985714
v 0.00937792 0.20804715 0.20930035
v 0.00711552 0.19531060 0.12155526
v -0.01007305 0.22115089 0.11509245
v 0.03485881 0.16254549 0.13207473
v 0.03479170 0.16254549 0.13213438
v 0.04687067 0.16254549 0.18440360
v 0.01259898 0.20418029 0.20776916
v 0.04161728 0.16254549 0.18300168
v 0.04648721 0.16254549 0.18434395
v 0.00592679 0.22115089 0.21050342
v 0.00402866 0.21747910 0.20885292
v 0.00407660 0.21459329 0.20868390
v 0.00946420 0.20241897 0.20389147
v 0.00403826 0.19730714 0.12323559
v 0.02958624 0.16254549 0.13768246
v 0.02488886 0.16254549 0.14452310
v 0.00399991 0.22115089 0.20893246
v 0.02338378 0.16254549 0.15493319
v 0.00399032 0.19710634 0.18318065
v 0.00403826 0.19730714 0.18781398
v 0.01259898 0.19853489 0.20215148
v 0.04097498 0.16254549 0.18275311
v 0.00809334 0.19585562 0.19447565
v 0.00941627 0.19688832 0.19823402
v 0.02468755 0.16254549 0.14529863
v 0.02378641 0.16254549 0.14928569
v 0.02370972 0.16254549 0.15001151
v 0.02427532 0.16254549 0.16111760
v 0.02554074 0.16254549 0.16455781
v 0.00677041 0.19479424 0.18907672
v 0.01259898 0.19586710 0.19932772
v 0.03486839 0.16254549 0.17772206
v 0.02958624 0.16254549 0.17215409
v 0.03188699 0.16254549 0.17512699
f 1 2 3
f 1 3 4
f 1 4 5
f 1 5 6
f 1 6 7
f 1 7 2
f 2 8 3
f 2 7 9
f 2 9 8
f 3 10 11
f 3 11 12
f 3 12 4
f 3 8 10
f 4 12 26
f 4 26 38
f 4 38 50
f 4 50 59
f 4 59 68
f 4 68 80
f 4 80 92
f 4 92 104
f 4 104 114
f 4 114 128
f 4 128 121
f 4 121 109
f 4 109 108
f 4 108 107
f 4 107 96
f 4 96 86
f 4 86 81
f 4 81 70
f 4 70 60
f 4 60 52
f 4 52 51
f 4 51 41
f 4 41 40
f 4 40 39
f 4 39 28
f 4 28 27
f 4 27 13
f 4 13 14
f 4 14 5
f 5 14 15
f 5 15 16
f 5 16 6
f 6 16 17
f 6 17 18
f 6 18 19
f 6 19 7
f 7 19 20
f 7 20 21
f 7 21 9
f 8 9 22
f 8 22 23
f 8 23 34
f 8 34 47
f 8 47 46
f 8 46 56
f 8 56 64
f 8 64 76
f 8 76 85
f 8 85 93
f 8 93 105
f 8 105 117
f 8 117 120
f 8 120 119
f 8 119 133
f 8 133 143
f 8 143 145
f 8 145 144
f 8 144 140
f 8 140 139
f 8 139 129
f 8 129 138
f 8 138 137
f 8 137 136
f 8 136 127
f 8 127 126
f 8 126 116
f 8 116 115
f 8 115 103
f 8 103 102
f 8 102 101
f 8 101 90
f 8 90 79
f 8 79 69
f 8 69 65
f 8 65 58
f 8 58 57
f 8 57 48
f 8 48 35
f 8 35 24
f 8 24 10
f 9 23 22
f 9 21 23
f 10 24 11
f 11 24 25
f 11 25 26
f 11 26 12
f 13 27 14
f 14 27 28
f 14 28 29
f 14 29 15
f 15 29 30
f 15 30 17
f 15 17 16
f 17 30 31
f 17 31 32
f 17 32 18
f 18 32 19
f 19 32 20
f 20 32 33
f 20 33 21
f 21 33 34
f 21 34 23
f 24 35 25
f 25 35 36
f 25 36 26
f 26 36 37
f 26 37 38
f 28 39 29
f 29 39 40
f 29 40 41
f 29 41 42
f 29 42 30
f 30 42 31
f 31 42 43
f 31 43 44
f 31 44 32
f 32 44 45
f 32 45 33
f 33 45 46
f 33 46 47
f 33 47 34
f 35 48 37
f 35 37 36
f 37 48 49
f 37 49 38
f 38 49 50
f 41 51 42
f 42 51 52
f 42 52 43
f 43 52 53
f 43 53 44
f 44 53 54
f 44 54 55
f 44 55 45
f 45 55 46
f 46 55 56
f 48 57 49
f 49 58 50
f 49 57 58
f 50 58 59
f 52 60 61
f 52 61 53
f 53 61 62
f 53 62 54
f 54 62 63
f 54 63 55
f 55 63 56
f 56 63 64
f 58 65 59
f 59 66 67
f 59 67 68
f 59 65 69
f 59 69 66
f 60 70 71
f 60 71 61
f 61 71 72
f 61 72 73
f 61 73 62
f 62 73 74
f 62 74 63
f 63 74 64
f 64 74 75
f 64 75 76
f 66 77 78
f 66 78 67
f 66 69 79
f 66 79 77
f 67 78 68
f 68 78 80
f 70 81 71
f 71 82 72
f 71 81 82
f 72 82 73
f 73 82 83
f 73 83 84
f 73 84 74
f 74 84 75
f 75 84 81
f 75 81 76
f 76 81 86
f 76 86 87
f 76 87 85
f 77 88 89
f 77 89 78
f 77 79 90
f 77 90 88
f 78 91 92
f 78 92 80
f 78 89 91
f 81 84 83
f 81 83 82
f 85 87 94
f 85 94 95
f 85 95 93
f 86 96 87
f 87 96 97
f 87 97 98
f 87 98 95
f 87 95 94
f 88 99 100
f 88 100 89
f 88 90 101
f 88 101 102
f 88 102 103
f 88 103 99
f 89 100 92
f 89 92 91
f 92 100 104
f 93 95 106
f 93 106 105
f 95 98 106
f 96 107 97
f 97 107 108
f 97 108 109
f 97 109 110
f 97 110 98
f 98 110 111
f 98 111 112
f 98 112 106
f 99 113 114
f 99 114 104
f 99 104 100
f 99 103 115
f 99 115 116
f 99 116 113
f 105 106 117
f 106 112 118
f 106 118 119
f 106 119 120
f 106 120 117
f 109 121 122
f 109 122 110
f 110 122 123
f 110 123 111
f 111 123 112
f 112 123 124
f 112 124 118
f 113 125 114
f 113 116 126
f 113 126 127
f 113 127 125
f 114 125 129
f 114 129 130
f 114 130 131
f 114 131 123
f 114 123 122
f 114 122 128
f 118 124 132
f 118 132 133
f 118 133 119
f 121 128 122
f 123 131 134
f 123 134 135
f 123 135 124
f 124 135 132
f 125 127 136
f 125 136 137
f 125 137 138
f 125 138 129
f 129 139 131
f 129 131 130
f 131 139 140
f 131 140 141
f 131 141 134
f 132 135 142
f 132 142 133
f 133 142 135
f 133 135 143
f 134 141 140
f 134 140 144
f 134 144 135
f 135 144 145
f 135 145 143

