# https://github.com/mikedh/trimesh
v 0.11196894 -0.14606090 0.10871016
v 0.11196894 -0.14601387 0.10407400
v 0.11430943 -0.14615497 0.09842122
v 0.11430943 -0.14617065 0.10407400
v 0.11430943 -0.14617065 0.10871016
v 0.11196894 0.01399401 0.10871016
v 0.11196894 -0.14587277 0.09842122
v 0.11430943 -0.14582574 0.09277186
v 0.11995923 -0.14590413 0.08712591
v 0.11995923 -0.14617065 0.09277186
v 0.16514798 -0.14617065 0.10871016
v 0.20537759 0.01399401 0.10871016
v 0.11196894 0.01399401 0.07385879
v 0.11196894 -0.14540244 0.09277186
v 0.11430943 -0.14518295 0.08712591
v 0.12560902 -0.14552786 0.08147314
v 0.13125881 -0.14584142 0.08147314
v 0.13690861 -0.14609226 0.08147314
v 0.12560902 -0.14613929 0.08712591
v 0.13125881 -0.14617065 0.08712591
v 0.16514798 -0.14617065 0.10407400
v 0.16978101 -0.14606090 0.10871016
v 0.20561739 0.01399401 0.09842122
v 0.20886915 -0.04812153 0.10871016
v 0.20994348 -0.04810586 0.09842122
v 0.20369896 0.01399401 0.07385879
v 0.11196894 -0.14051094 0.07385879
v 0.11196894 -0.14436770 0.08707815
v 0.11196894 -0.14378762 0.08420913
v 0.11196894 -0.14226687 0.07898961
v 0.12363303 -0.14298805 0.07385879
v 0.12560902 -0.14389737 0.07582378
v 0.13690861 -0.14512024 0.07582378
v 0.14255840 -0.14604523 0.08147314
v 0.15385799 -0.14615497 0.08712591
v 0.14820819 -0.14617065 0.08712591
v 0.15950778 -0.14617065 0.09277186
v 0.16514798 -0.14615497 0.09842122
v 0.17079778 -0.14601387 0.10871016
v 0.20568455 0.01399401 0.09284009
v 0.20996266 -0.09239571 0.10871016
v 0.20996266 -0.09231732 0.07385879
v 0.20959814 -0.04810586 0.09277186
v 0.20568455 0.01399401 0.09277186
v 0.20996266 -0.09231732 0.08147314
v 0.20848546 -0.05374987 0.07385879
v 0.13690861 -0.14416389 0.07385879
v 0.14820819 -0.14388169 0.07385879
v 0.14820819 -0.14477532 0.07582378
v 0.14820819 -0.14587277 0.08147314
v 0.15950778 -0.14588845 0.08712591
v 0.16514798 -0.14588845 0.09277186
v 0.17079778 -0.14587277 0.10407400
v 0.17544040 -0.14482236 0.10871016
v 0.20996266 -0.09909014 0.10871016
v 0.20996266 -0.09916853 0.07385879
v 0.18209737 -0.14010332 0.07385879
v 0.15950778 -0.14490075 0.08147314
v 0.17079778 -0.14482236 0.09277186
v 0.17079778 -0.14540244 0.09842122
v 0.17644757 -0.14410118 0.09842122
v 0.19340655 -0.13950756 0.09277186
v 0.19340655 -0.13955459 0.09842122
v 0.19340655 -0.13955459 0.10871016
v 0.19714750 -0.13731267 0.10871016
v 0.20996266 -0.09916853 0.08673019
v 0.19714750 -0.13731267 0.09842122
v 0.19711873 -0.13724995 0.09277186
v 0.19667748 -0.13649743 0.08712591
v 0.19626503 -0.13574489 0.08422618
v 0.19084544 -0.13605845 0.07385879
v 0.18579036 -0.13931943 0.07385879
v 0.18774716 -0.14000925 0.08147314
v 0.19340655 -0.13875502 0.08712591
v 0.19342573 -0.13739105 0.08199509
v 0.19133464 -0.13670124 0.07582378
v 0.18997255 -0.13696775 0.07385879
v 0.18774716 -0.13895884 0.07582378
v 0.18775675 -0.13836308 0.07385879
f 1 2 3
f 1 3 4
f 1 4 5
f 1 5 11
f 1 11 22
f 1 22 39
f 1 39 54
f 1 54 64
f 1 64 65
f 1 65 55
f 1 55 41
f 1 41 24
f 1 24 12
f 1 12 6
f 1 6 13
f 1 13 27
f 1 27 30
f 1 30 29
f 1 29 28
f 1 28 14
f 1 14 7
f 1 7 2
f 2 7 3
f 3 7 8
f 3 8 9
f 3 9 10
f 3 10 4
f 4 10 20
f 4 20 36
f 4 36 37
f 4 37 21
f 4 21 11
f 4 11 5
f 6 12 23
f 6 23 40
f 6 40 44
f 6 44 26
f 6 26 13
f 7 14 8
f 8 14 15
f 8 15 9
f 9 15 16
f 9 16 17
f 9 17 18
f 9 18 19
f 9 19 10
f 10 19 20
f 11 21 22
f 12 24 25
f 12 25 23
f 13 26 46
f 13 46 42
f 13 42 56
f 13 56 71
f 13 71 77
f 13 77 79
f 13 79 72
f 13 72 57
f 13 57 48
f 13 48 47
f 13 47 31
f 13 31 27
f 14 28 15
f 15 28 29
f 15 29 30
f 15 30 31
f 15 31 16
f 16 31 32
f 16 32 33
f 16 33 17
f 17 33 18
f 18 34 35
f 18 35 36
f 18 36 20
f 18 20 19
f 18 33 34
f 21 37 38
f 21 38 22
f 22 38 39
f 23 25 40
f 24 41 25
f 25 42 43
f 25 43 44
f 25 44 40
f 25 41 45
f 25 45 42
f 26 44 46
f 27 31 30
f 31 47 33
f 31 33 32
f 33 47 48
f 33 48 49
f 33 49 50
f 33 50 34
f 34 50 35
f 35 50 51
f 35 51 37
f 35 37 36
f 37 51 52
f 37 52 38
f 38 52 53
f 38 53 39
f 39 53 54
f 41 55 66
f 41 66 56
f 41 56 42
f 41 42 45
f 42 46 43
f 43 46 44
f 48 57 49
f 49 58 50
f 49 57 58
f 50 58 51
f 51 58 57
f 51 57 52
f 52 59 60
f 52 60 53
f 52 57 59
f 53 60 61
f 53 61 62
f 53 62 54
f 54 62 63
f 54 63 64
f 55 65 66
f 56 66 65
f 56 65 67
f 56 67 68
f 56 68 69
f 56 69 70
f 56 70 71
f 57 72 73
f 57 73 59
f 59 73 60
f 60 73 61
f 61 73 62
f 62 73 74
f 62 74 68
f 62 68 67
f 62 67 63
f 63 67 65
f 63 65 64
f 68 74 69
f 69 74 75
f 69 75 70
f 70 75 76
f 70 76 71
f 71 76 77
f 72 78 73
f 72 79 78
f 73 78 74
f 74 78 75
f 75 79 77
f 75 77 76
f 75 78 79

