# https://github.com/mikedh/trimesh
v 0.31206520 -0.11024755 -0.00449166
v 0.30641429 -0.11024755 -0.00392595
v 0.28025058 -0.10723530 -0.00058620
v 0.28381074 -0.10692316 -0.00083157
v 0.28946162 -0.10653875 -0.00118599
v 0.29511251 -0.10625121 -0.00153360
v 0.30076341 -0.10608515 -0.00184712
v 0.30641429 -0.10603902 -0.00210613
v 0.31206520 -0.10603902 -0.00235150
v 0.31771608 -0.10610822 -0.00217429
v 0.31771608 -0.11024755 -0.00403500
v 0.31771608 -0.11589684 -0.00244010
v 0.31206520 -0.11589684 -0.00277408
v 0.30641429 -0.11589684 -0.00241966
v 0.30076341 -0.11589684 -0.00201752
v 0.28946162 -0.11540326 -0.00119963
v 0.28381074 -0.11451297 -0.00083839
v 0.28021114 -0.11365650 -0.00059302
v 0.30076341 -0.11024755 -0.00331253
v 0.27985610 -0.11024755 -0.00065436
v 0.27703558 -0.11024755 -0.00004775
v 0.27251882 -0.11024755 0.00182660
v 0.26906714 -0.10682014 0.00456655
v 0.27251882 -0.10627889 0.00356463
v 0.27828805 -0.10620355 0.00200381
v 0.29511251 -0.11024755 -0.00263777
v 0.28946162 -0.11024755 -0.00192891
v 0.28381074 -0.11024755 -0.00121326
v 0.28381074 -0.10553929 0.00237186
v 0.29511251 -0.10486734 0.00237186
v 0.28946162 -0.10515488 0.00237186
v 0.30076341 -0.10470127 0.00237186
v 0.31206520 -0.10465514 0.00237186
v 0.31771608 -0.10472433 0.00237186
v 0.30641429 -0.10465514 0.00237186
v 0.32151293 -0.10659103 -0.00139728
v 0.32201588 -0.11024755 -0.00188121
v 0.32131568 -0.11589684 -0.00120644
v 0.32057605 -0.11874302 -0.00049078
v 0.31771608 -0.11877531 -0.00057938
v 0.31206520 -0.11879683 -0.00063391
v 0.30641429 -0.11879683 -0.00059984
v 0.30076341 -0.11878300 -0.00055213
v 0.29708490 -0.11875378 -0.00050441
v 0.29516183 -0.11639504 -0.00137002
v 0.27465887 -0.11877223 0.00503685
v 0.27267661 -0.11629202 0.00370776
v 0.26905727 -0.11467134 0.00455292
v 0.26875156 -0.11024755 0.00423939
v 0.25243004 -0.10316363 0.02233538
v 0.25326831 -0.10316363 0.02187190
v 0.27251882 -0.10489655 0.00802217
v 0.25979692 -0.10316363 0.01999074
v 0.26619732 -0.10316363 0.01867528
v 0.27251882 -0.10316363 0.01816410
v 0.28946162 -0.10316363 0.01816410
v 0.29511251 -0.10316363 0.01836176
v 0.31771608 -0.10466898 0.00802217
v 0.32248924 -0.10605286 0.00802217
v 0.32240050 -0.10610822 0.00237186
v 0.30036894 -0.10316363 0.01971810
v 0.30186795 -0.10316363 0.02497309
v 0.32438274 -0.11024755 0.00237186
v 0.32266677 -0.11589684 0.00237186
v 0.31771608 -0.11884911 0.00237186
v 0.32068453 -0.11877531 0.00237186
v 0.31206520 -0.11886910 0.00237186
v 0.30641429 -0.11886910 0.00237186
v 0.30076341 -0.11885680 0.00237186
v 0.27815985 -0.11879683 0.00488008
v 0.27815985 -0.11886910 0.00802217
v 0.27267661 -0.11881068 0.00817893
v 0.26953065 -0.11877223 0.01016915
v 0.27090146 -0.11843857 0.00640682
v 0.22472786 -0.10316363 0.05628495
v 0.24970815 -0.10316363 0.02542294
v 0.30035907 -0.10316363 0.03021446
v 0.32164113 -0.10651876 0.01211848
v 0.32457998 -0.11024755 0.00802217
v 0.32280484 -0.11589684 0.00802217
v 0.32071410 -0.11879222 0.00802217
v 0.31771608 -0.11886603 0.00802217
v 0.31206520 -0.11886910 0.00802217
v 0.27251882 -0.11886910 0.01367248
v 0.24991526 -0.11886141 0.04756752
v 0.25034919 -0.11880452 0.04237387
v 0.24703558 -0.11876147 0.04456174
v 0.22384029 -0.10316363 0.05886814
v 0.27913617 -0.10316363 0.06295081
v 0.32222297 -0.11024755 0.01277961
v 0.32145375 -0.11589684 0.01190718
v 0.32062535 -0.11876763 0.01095297
v 0.31719339 -0.11879837 0.01316811
v 0.27209476 -0.11881068 0.05278843
v 0.26686793 -0.11886910 0.05321783
v 0.27251882 -0.11886910 0.04756752
v 0.25556615 -0.11886910 0.04191721
v 0.25556615 -0.11886910 0.05321783
v 0.25020125 -0.11881068 0.05292475
v 0.24701584 -0.11877070 0.05085274
v 0.24698625 -0.11878761 0.04756752
v 0.22731169 -0.10316363 0.06295081
v 0.24850500 -0.11818947 0.05462189
v 0.27446162 -0.10316363 0.06450481
v 0.26405728 -0.11872764 0.06169670
v 0.27575353 -0.10774580 0.06203749
v 0.30924467 -0.11872764 0.02215817
v 0.31496460 -0.11875532 0.01656920
v 0.31872199 -0.11589684 0.01472893
v 0.26992512 -0.11877223 0.05621679
v 0.26631566 -0.11878453 0.05840466
v 0.26121703 -0.11883066 0.05886814
v 0.25592118 -0.11880606 0.05854779
v 0.25227225 -0.11877223 0.05644852
v 0.22743004 -0.10316363 0.06305986
v 0.25427423 -0.11806646 0.06021767
v 0.25804149 -0.11876301 0.06175804
v 0.27251882 -0.10316363 0.06474337
v 0.26121703 -0.11589684 0.06301215
v 0.26121703 -0.11875686 0.06174441
v 0.23313023 -0.10316363 0.06426626
v 0.25592118 -0.11606906 0.06250097
v 0.26884031 -0.10316363 0.06498874
v 0.26121703 -0.11024755 0.06425945
v 0.23861347 -0.10316363 0.06468203
v 0.26319929 -0.10316363 0.06511824
v 0.26121703 -0.10316363 0.06513187
v 0.25556615 -0.10316363 0.06509098
f 1 2 3
f 1 3 4
f 1 4 5
f 1 5 6
f 1 6 7
f 1 7 8
f 1 8 9
f 1 9 10
f 1 10 11
f 1 11 12
f 1 12 13
f 1 13 14
f 1 14 15
f 1 15 16
f 1 16 17
f 1 17 2
f 2 17 18
f 2 18 19
f 2 19 3
f 3 20 21
f 3 21 22
f 3 22 23
f 3 23 24
f 3 24 25
f 3 25 4
f 3 19 26
f 3 26 27
f 3 27 28
f 3 28 20
f 4 25 5
f 5 25 29
f 5 29 6
f 6 30 7
f 6 29 31
f 6 31 30
f 7 30 32
f 7 32 8
f 8 32 9
f 9 33 34
f 9 34 10
f 9 32 35
f 9 35 33
f 10 34 36
f 10 36 11
f 11 36 37
f 11 37 38
f 11 38 12
f 12 38 39
f 12 39 13
f 13 39 40
f 13 40 41
f 13 41 42
f 13 42 43
f 13 43 44
f 13 44 14
f 14 44 15
f 15 44 45
f 15 45 16
f 16 45 44
f 16 44 17
f 17 44 46
f 17 46 18
f 18 46 47
f 18 47 48
f 18 48 22
f 18 22 21
f 18 21 20
f 18 20 28
f 18 28 27
f 18 27 26
f 18 26 19
f 22 48 49
f 22 49 23
f 23 49 50
f 23 50 24
f 24 50 51
f 24 51 52
f 24 52 29
f 24 29 25
f 29 52 31
f 30 31 53
f 30 53 54
f 30 54 32
f 31 52 53
f 32 54 55
f 32 55 35
f 33 35 55
f 33 55 56
f 33 56 57
f 33 57 34
f 34 58 59
f 34 59 60
f 34 60 36
f 34 57 61
f 34 61 62
f 34 62 58
f 36 60 63
f 36 63 37
f 37 63 38
f 38 63 64
f 38 64 39
f 39 65 40
f 39 64 66
f 39 66 65
f 40 65 41
f 41 65 67
f 41 67 68
f 41 68 42
f 42 68 69
f 42 69 43
f 43 69 70
f 43 70 44
f 44 70 46
f 46 70 71
f 46 71 72
f 46 72 73
f 46 73 74
f 46 74 47
f 47 74 48
f 48 74 75
f 48 75 76
f 48 76 49
f 49 76 50
f 50 76 75
f 50 75 88
f 50 88 102
f 50 102 115
f 50 115 121
f 50 121 125
f 50 125 128
f 50 128 127
f 50 127 126
f 50 126 123
f 50 123 118
f 50 118 104
f 50 104 89
f 50 89 77
f 50 77 62
f 50 62 61
f 50 61 57
f 50 57 56
f 50 56 55
f 50 55 54
f 50 54 53
f 50 53 51
f 51 53 52
f 58 62 77
f 58 77 59
f 59 78 79
f 59 79 60
f 59 77 78
f 60 79 63
f 63 79 64
f 64 79 80
f 64 80 66
f 65 66 81
f 65 81 82
f 65 82 67
f 66 80 81
f 67 82 83
f 67 83 96
f 67 96 95
f 67 95 98
f 67 98 97
f 67 97 84
f 67 84 71
f 67 71 68
f 68 71 69
f 69 71 70
f 71 84 72
f 72 84 85
f 72 85 86
f 72 86 73
f 73 86 87
f 73 87 74
f 74 87 75
f 75 87 88
f 77 89 78
f 78 90 79
f 78 89 90
f 79 90 91
f 79 91 80
f 80 91 92
f 80 92 81
f 81 92 82
f 82 92 93
f 82 93 94
f 82 94 95
f 82 95 96
f 82 96 83
f 84 97 85
f 85 97 98
f 85 98 99
f 85 99 100
f 85 100 101
f 85 101 87
f 85 87 86
f 87 101 88
f 88 101 100
f 88 100 103
f 88 103 102
f 89 104 105
f 89 105 106
f 89 106 107
f 89 107 108
f 89 108 92
f 89 92 109
f 89 109 91
f 89 91 90
f 91 109 92
f 92 108 93
f 93 108 110
f 93 110 94
f 94 110 111
f 94 111 95
f 95 111 112
f 95 112 98
f 98 112 113
f 98 113 99
f 99 114 100
f 99 113 114
f 100 114 103
f 102 103 116
f 102 116 115
f 103 114 117
f 103 117 116
f 104 118 119
f 104 119 105
f 105 119 120
f 105 120 112
f 105 112 111
f 105 111 110
f 105 110 107
f 105 107 106
f 107 110 108
f 112 120 117
f 112 117 113
f 113 117 114
f 115 116 117
f 115 117 121
f 117 122 121
f 117 120 119
f 117 119 122
f 118 123 124
f 118 124 119
f 119 124 125
f 119 125 121
f 119 121 122
f 123 126 124
f 124 126 127
f 124 127 128
f 124 128 125

