# https://github.com/mikedh/trimesh
v -0.17950135 0.08684753 0.07385879
v -0.18291026 0.08684753 0.08338913
v -0.17950135 0.08752060 0.07385879
v 0.00941473 0.08684753 0.07385879
v -0.18291026 0.08684753 0.08654871
v -0.18291026 0.08752060 0.08338913
v -0.17942881 0.09317095 0.07385879
v 0.00948727 0.08703134 0.07385879
v 0.00958397 0.08684753 0.07397486
v -0.18291026 0.08752060 0.08654871
v -0.16402831 0.08684753 0.16622184
v -0.16405249 0.09881999 0.16622184
v -0.18271684 0.09201258 0.08369864
v -0.17800240 0.09733500 0.07385879
v 0.00946309 0.10035522 0.07385879
v 0.01105874 0.10035522 0.07561268
v 0.01175987 0.10035522 0.07638646
v 0.01219505 0.08684753 0.07686362
v -0.18271684 0.09201258 0.08580073
v -0.16405249 0.10035522 0.16622184
v -0.16257771 0.08684753 0.17187041
v -0.18206406 0.09360468 0.08746435
v -0.17925959 0.09742757 0.08712905
v -0.17657598 0.09782823 0.07385879
v -0.08663896 0.10035522 0.07385879
v 0.01458853 0.10035522 0.07994583
v 0.01495118 0.08684753 0.08006189
v -0.18102448 0.09317095 0.09277761
v -0.16257771 0.10035522 0.17187041
v -0.16248100 0.10035522 0.16235296
v -0.17386818 0.09874197 0.07385879
v -0.17386818 0.09899850 0.09277761
v -0.17875188 0.09747384 0.09277761
v -0.17800240 0.09724112 0.09842617
v -0.17732546 0.09671350 0.10407474
v -0.15977324 0.08684753 0.18042063
v -0.17190989 0.09878825 0.07385879
v -0.15800833 0.10035522 0.15569849
v 0.06405389 0.10035522 0.15559532
v 0.01654684 0.08684753 0.08257666
v -0.15977324 0.10035522 0.18042063
v -0.16187659 0.10035522 0.16093437
v -0.15745228 0.08684753 0.18225190
v -0.15692038 0.08752060 0.18269038
v -0.15899958 0.10035522 0.18103965
v 0.06405389 0.10035522 0.20559414
v 0.06405389 0.10031555 0.15562111
v 0.02128545 0.08684753 0.09072710
v -0.15696874 0.08684753 0.18262589
v -0.15692038 0.10035522 0.18269038
v -0.15126306 0.08684753 0.18472798
v -0.15126306 0.08752060 0.18476667
v 0.06405389 0.08684753 0.20559414
v 0.00692454 0.10035522 0.20560704
v 0.06405389 0.08684753 0.19410357
v -0.15126306 0.10035522 0.18476667
v 0.00126721 0.08684753 0.20556835
v 0.00692454 0.08684753 0.20560704
v 0.00281452 0.10035522 0.20558124
v 0.00126721 0.10035522 0.20556835
f 1 2 6
f 1 6 3
f 1 3 7
f 1 7 14
f 1 14 24
f 1 24 31
f 1 31 37
f 1 37 25
f 1 25 15
f 1 15 8
f 1 8 4
f 1 4 9
f 1 9 18
f 1 18 27
f 1 27 40
f 1 40 48
f 1 48 55
f 1 55 53
f 1 53 58
f 1 58 57
f 1 57 51
f 1 51 49
f 1 49 43
f 1 43 36
f 1 36 21
f 1 21 11
f 1 11 5
f 1 5 2
f 2 5 10
f 2 10 6
f 3 6 7
f 4 8 9
f 5 11 12
f 5 12 20
f 5 20 10
f 6 10 19
f 6 19 13
f 6 13 7
f 7 13 14
f 8 15 16
f 8 16 17
f 8 17 18
f 8 18 9
f 10 20 19
f 11 21 12
f 12 21 29
f 12 29 20
f 13 19 22
f 13 22 14
f 14 22 23
f 14 23 24
f 15 25 38
f 15 38 42
f 15 42 30
f 15 30 20
f 15 20 29
f 15 29 41
f 15 41 45
f 15 45 50
f 15 50 56
f 15 56 60
f 15 60 59
f 15 59 54
f 15 54 46
f 15 46 39
f 15 39 26
f 15 26 17
f 15 17 16
f 17 26 27
f 17 27 18
f 19 20 28
f 19 28 22
f 20 30 31
f 20 31 32
f 20 32 33
f 20 33 34
f 20 34 35
f 20 35 22
f 20 22 28
f 21 36 41
f 21 41 29
f 22 35 34
f 22 34 33
f 22 33 23
f 23 33 32
f 23 32 31
f 23 31 24
f 25 37 38
f 26 39 27
f 27 39 40
f 30 42 31
f 31 42 37
f 36 43 44
f 36 44 45
f 36 45 41
f 37 42 38
f 39 46 53
f 39 53 55
f 39 55 47
f 39 47 48
f 39 48 40
f 43 49 44
f 44 50 45
f 44 49 51
f 44 51 52
f 44 52 56
f 44 56 50
f 46 54 58
f 46 58 53
f 47 55 48
f 51 57 52
f 52 57 60
f 52 60 56
f 54 59 58
f 57 58 59
f 57 59 60

