# https://github.com/mikedh/trimesh
v 0.32308408 0.00071653 0.03061537
v 0.32274578 0.00071653 0.03174415
v 0.32308408 -0.03678376 0.03061537
v 0.32218192 0.00071653 0.02558358
v 0.32274578 -0.06050647 0.03174415
v -0.06089725 0.00071653 0.03174415
v 0.32304649 -0.05938695 0.03061537
v 0.32218192 -0.05938695 0.02558358
v 0.29210996 0.00071653 -0.00024395
v 0.32236987 -0.06503260 0.03061537
v 0.32210675 -0.06571942 0.03174415
v -0.06093483 0.00071653 0.02949526
v -0.06093483 -0.00315713 0.03174415
v 0.32146771 -0.06503260 0.02654305
v 0.31861088 -0.05938695 0.02276161
v 0.29207237 -0.04808192 -0.00020922
v 0.29210996 -0.04243627 -0.00024395
v 0.29030565 0.00071653 -0.00156810
v 0.32109181 -0.06850103 0.03061537
v 0.32067833 -0.06803400 0.02760237
v 0.32105423 -0.06849417 0.03174415
v -0.06093483 0.00071653 0.02131589
v -0.06093483 -0.01934544 0.03174415
v 0.28805025 -0.05374131 -0.00145088
v 0.29086949 -0.05374131 0.00047239
v 0.28925313 -0.04808192 -0.00229748
v 0.28925313 -0.04243627 -0.00231050
v 0.28925313 0.00071653 -0.00231050
v 0.31770872 -0.06944198 0.03174415
v 0.31770872 -0.06935269 0.03061537
v 0.29966554 -0.06944884 0.02144180
v 0.28680978 -0.05665342 -0.00055654
v -0.06093483 -0.06944884 0.02131589
v -0.05274023 0.00071653 -0.00153771
v -0.06093483 -0.06944884 0.03170942
v -0.06082207 -0.01980561 0.03174415
v 0.28380259 -0.05374131 -0.00257099
v 0.28380259 -0.04808192 -0.00425549
v 0.28380259 -0.04243627 -0.00429022
v 0.28380259 0.00071653 -0.00429022
v 0.31763353 -0.06944884 0.03174415
v 0.31691932 -0.06944884 0.03061537
v 0.29838749 -0.06944884 0.02107277
v 0.15385413 -0.06944884 -0.00524969
v 0.11709116 -0.06944884 -0.01174890
v 0.11427192 -0.06944884 -0.01218305
v -0.05274023 -0.06944884 -0.00153771
v -0.05146218 0.00071653 -0.00436403
v 0.25925634 -0.06944884 0.03174415
v -0.03360695 -0.03766975 0.03174415
v -0.04510946 -0.03207905 0.03174415
v -0.05811559 -0.02296497 0.03174415
v 0.10867101 -0.06944884 -0.01260851
v 0.10867101 0.00071653 -0.01260851
v -0.05146218 -0.01983995 -0.00436403
v -0.05138699 -0.02549933 -0.00436403
v -0.04864292 -0.01983995 -0.00797180
v -0.04856775 -0.02549933 -0.00783721
v -0.04954509 -0.06944884 -0.00406446
v -0.04864292 0.00071653 -0.00797614
v 0.00131411 -0.06944884 -0.01260851
v 0.00131411 0.00071653 -0.01260851
v -0.04864292 -0.01419430 -0.00797614
v -0.04386900 -0.01983995 -0.01022504
v -0.04386900 -0.02549933 -0.01001665
v -0.04514707 -0.06944884 -0.00499354
v -0.04691379 0.00071653 -0.00879235
v -0.00428678 -0.06944884 -0.01218305
v -0.03823051 -0.01983995 -0.01060275
v -0.03823051 0.00071653 -0.01060275
v -0.04386900 0.00071653 -0.01022504
v -0.04183915 0.00071653 -0.01036397
v -0.00710603 -0.06944884 -0.01174890
v -0.04386900 -0.06944884 -0.00524969
f 1 2 5
f 1 5 3
f 1 3 8
f 1 8 4
f 1 4 9
f 1 9 18
f 1 18 28
f 1 28 40
f 1 40 54
f 1 54 62
f 1 62 70
f 1 70 72
f 1 72 71
f 1 71 67
f 1 67 60
f 1 60 48
f 1 48 34
f 1 34 22
f 1 22 12
f 1 12 6
f 1 6 2
f 2 6 13
f 2 13 23
f 2 23 36
f 2 36 52
f 2 52 51
f 2 51 50
f 2 50 49
f 2 49 41
f 2 41 29
f 2 29 21
f 2 21 11
f 2 11 5
f 3 7 8
f 3 5 7
f 4 8 17
f 4 17 9
f 5 10 7
f 5 11 10
f 6 12 13
f 7 10 8
f 8 14 15
f 8 15 16
f 8 16 17
f 8 10 14
f 9 17 18
f 10 11 19
f 10 19 20
f 10 20 14
f 11 21 19
f 12 22 33
f 12 33 35
f 12 35 23
f 12 23 13
f 14 20 24
f 14 24 25
f 14 25 15
f 15 25 16
f 16 25 26
f 16 26 17
f 17 26 27
f 17 27 18
f 18 27 28
f 19 21 29
f 19 29 30
f 19 30 20
f 20 30 31
f 20 31 32
f 20 32 24
f 22 34 47
f 22 47 33
f 23 35 36
f 24 32 37
f 24 37 38
f 24 38 26
f 24 26 25
f 26 38 39
f 26 39 27
f 27 39 40
f 27 40 28
f 29 41 42
f 29 42 30
f 30 42 31
f 31 42 41
f 31 41 49
f 31 49 35
f 31 35 33
f 31 33 47
f 31 47 59
f 31 59 66
f 31 66 74
f 31 74 73
f 31 73 68
f 31 68 61
f 31 61 53
f 31 53 46
f 31 46 45
f 31 45 44
f 31 44 43
f 31 43 32
f 32 44 45
f 32 45 46
f 32 46 37
f 32 43 44
f 34 48 55
f 34 55 47
f 35 49 50
f 35 50 51
f 35 51 52
f 35 52 36
f 37 46 38
f 38 46 53
f 38 53 39
f 39 53 54
f 39 54 40
f 47 55 56
f 47 56 57
f 47 57 58
f 47 58 59
f 48 60 63
f 48 63 55
f 53 61 62
f 53 62 54
f 55 63 57
f 55 57 56
f 57 63 64
f 57 64 58
f 58 64 65
f 58 65 59
f 59 65 66
f 60 67 63
f 61 68 64
f 61 64 69
f 61 69 70
f 61 70 62
f 63 67 64
f 64 67 71
f 64 71 72
f 64 72 69
f 64 68 65
f 65 68 73
f 65 73 74
f 65 74 66
f 69 72 70

