# https://github.com/mikedh/trimesh
v -0.20212520 -0.11024755 -0.00449848
v -0.19082342 -0.11589684 -0.00201746
v -0.19647430 -0.11589684 -0.00241960
v -0.20212520 -0.11589684 -0.00277403
v -0.20777609 -0.11589684 -0.00244004
v -0.20777609 -0.11024755 -0.00403499
v -0.20777609 -0.10610822 -0.00217422
v -0.20212520 -0.10603902 -0.00235144
v -0.19647430 -0.10603902 -0.00210606
v -0.19082342 -0.10608515 -0.00184706
v -0.18517251 -0.10625121 -0.00153352
v -0.17952163 -0.10653875 -0.00118590
v -0.17387074 -0.10692316 -0.00083147
v -0.17031058 -0.10723530 -0.00058609
v -0.19647430 -0.11024755 -0.00392592
v -0.17387074 -0.11451297 -0.00083829
v -0.17952163 -0.11540326 -0.00119953
v -0.18522184 -0.11639504 -0.00136993
v -0.18714491 -0.11875378 -0.00050430
v -0.19082342 -0.11878300 -0.00055202
v -0.19647430 -0.11879683 -0.00059973
v -0.20212520 -0.11879683 -0.00063381
v -0.20777609 -0.11877531 -0.00057928
v -0.21063605 -0.11874302 -0.00049067
v -0.21137569 -0.11589684 -0.00120635
v -0.21207589 -0.11024755 -0.00188113
v -0.21157293 -0.10659103 -0.00139720
v -0.20777609 -0.10472433 0.00237205
v -0.20212520 -0.10465514 0.00237205
v -0.19647430 -0.10465514 0.00237205
v -0.19082342 -0.10470127 0.00237205
v -0.18517251 -0.10486734 0.00237205
v -0.17952163 -0.10515488 0.00237205
v -0.17387074 -0.10553929 0.00237205
v -0.16834806 -0.10620355 0.00200398
v -0.16257883 -0.10627889 0.00356484
v -0.15912715 -0.10682014 0.00456679
v -0.16257883 -0.11024755 0.00182676
v -0.16709559 -0.11024755 -0.00004763
v -0.16991611 -0.11024755 -0.00065425
v -0.17387074 -0.11024755 -0.00121316
v -0.17952163 -0.11024755 -0.00192885
v -0.18517251 -0.11024755 -0.00263771
v -0.19082342 -0.11024755 -0.00331249
v -0.17027114 -0.11365650 -0.00059291
v -0.16471887 -0.11877223 0.00503709
v -0.16821986 -0.11879683 0.00488033
v -0.19082342 -0.11885680 0.00237205
v -0.19647430 -0.11886910 0.00237205
v -0.20212520 -0.11886910 0.00237205
v -0.20777609 -0.11884911 0.00237205
v -0.21074453 -0.11877531 0.00237205
v -0.21272678 -0.11589684 0.00237205
v -0.21444275 -0.11024755 0.00237205
v -0.21246051 -0.10610822 0.00237205
v -0.21254925 -0.10605286 0.00802249
v -0.20777609 -0.10466898 0.00802249
v -0.19192795 -0.10316363 0.02497385
v -0.19052756 -0.10316363 0.01993683
v -0.19042895 -0.10316363 0.01971873
v -0.18517251 -0.10316363 0.01835552
v -0.17952163 -0.10316363 0.01816468
v -0.16257883 -0.10316363 0.01816468
v -0.15692794 -0.10316363 0.01862817
v -0.14332832 -0.10316363 0.02187257
v -0.16257883 -0.10489655 0.00802249
v -0.15881157 -0.11024755 0.00423963
v -0.14079380 -0.10316363 0.02439449
v -0.15911728 -0.11467134 0.00455316
v -0.16273661 -0.11629202 0.00370798
v -0.16096147 -0.11843857 0.00640711
v -0.15959066 -0.11877223 0.01016953
v -0.16273661 -0.11881068 0.00817926
v -0.16821986 -0.11886910 0.00802249
v -0.20212520 -0.11886910 0.00802249
v -0.20777609 -0.11886603 0.00802249
v -0.21077411 -0.11879222 0.00802249
v -0.21286485 -0.11589684 0.00802249
v -0.21463999 -0.11024755 0.00802249
v -0.21170113 -0.10651876 0.01211890
v -0.19041908 -0.10316363 0.03021534
v -0.19191809 -0.10316363 0.02506245
v -0.13956106 -0.10316363 0.02575087
v -0.11737169 -0.10316363 0.05401676
v -0.11390029 -0.10316363 0.05886974
v -0.13709558 -0.11876147 0.04456299
v -0.14040919 -0.11880452 0.04237506
v -0.13997527 -0.11886141 0.04756884
v -0.16257883 -0.11886910 0.01367294
v -0.16257883 -0.11886910 0.04756884
v -0.20725340 -0.11879837 0.01316856
v -0.21068536 -0.11876763 0.01095337
v -0.15692794 -0.11886910 0.05321929
v -0.16215477 -0.11881068 0.05278988
v -0.21151376 -0.11589684 0.01190760
v -0.21228298 -0.11024755 0.01278005
v -0.16934412 -0.10316363 0.06227092
v -0.11483718 -0.10316363 0.06099633
v -0.13707585 -0.11877070 0.05085414
v -0.13704626 -0.11878761 0.04756884
v -0.14026126 -0.11881068 0.05292620
v -0.14562615 -0.11886910 0.05321929
v -0.14562615 -0.11886910 0.04191839
v -0.20502461 -0.11875532 0.01656974
v -0.15998513 -0.11877223 0.05621151
v -0.20878199 -0.11589684 0.01472942
v -0.15127704 -0.11883066 0.05886974
v -0.15637566 -0.11878453 0.05840625
v -0.19930468 -0.11872764 0.02215885
v -0.16581354 -0.10774580 0.06203917
v -0.16798316 -0.10316363 0.06334103
v -0.11742102 -0.10316363 0.06301386
v -0.14433424 -0.11806646 0.06021930
v -0.13856501 -0.11818947 0.05461656
v -0.14233226 -0.11877223 0.05645007
v -0.14598119 -0.11880606 0.05854939
v -0.15411728 -0.11872764 0.06169837
v -0.14810150 -0.11876301 0.06175290
v -0.15127704 -0.11875686 0.06174609
v -0.16257883 -0.10316363 0.06474512
v -0.11749004 -0.10316363 0.06306157
v -0.15127704 -0.11589684 0.06301386
v -0.12103049 -0.10316363 0.06417939
v -0.14598119 -0.11606906 0.06250266
v -0.15127704 -0.11024755 0.06425437
v -0.15692794 -0.10316363 0.06499731
v -0.12666165 -0.10316363 0.06468378
v -0.14926521 -0.10316363 0.06512682
v -0.15127704 -0.10316363 0.06512682
v -0.13231254 -0.10316363 0.06482010
v -0.14361432 -0.10316363 0.06508592
f 1 2 3
f 1 3 4
f 1 4 5
f 1 5 6
f 1 6 7
f 1 7 8
f 1 8 9
f 1 9 10
f 1 10 11
f 1 11 12
f 1 12 13
f 1 13 14
f 1 14 15
f 1 15 16
f 1 16 17
f 1 17 2
f 2 18 19
f 2 19 3
f 2 17 18
f 3 19 4
f 4 19 20
f 4 20 21
f 4 21 22
f 4 22 23
f 4 23 24
f 4 24 5
f 5 24 25
f 5 25 6
f 6 25 26
f 6 26 27
f 6 27 7
f 7 27 28
f 7 28 8
f 8 29 30
f 8 30 31
f 8 31 9
f 8 28 29
f 9 31 10
f 10 31 32
f 10 32 11
f 11 32 33
f 11 33 34
f 11 34 12
f 12 34 35
f 12 35 13
f 13 35 14
f 14 35 36
f 14 36 37
f 14 37 38
f 14 38 39
f 14 39 40
f 14 40 41
f 14 41 42
f 14 42 43
f 14 43 44
f 14 44 15
f 15 44 45
f 15 45 16
f 16 45 46
f 16 46 19
f 16 19 17
f 17 19 18
f 19 46 47
f 19 47 20
f 20 47 48
f 20 48 21
f 21 49 22
f 21 48 49
f 22 49 50
f 22 50 51
f 22 51 23
f 23 51 24
f 24 51 52
f 24 52 53
f 24 53 25
f 25 53 54
f 25 54 26
f 26 54 27
f 27 54 55
f 27 55 28
f 28 55 56
f 28 56 57
f 28 57 58
f 28 58 59
f 28 59 60
f 28 60 61
f 28 61 29
f 29 61 62
f 29 62 63
f 29 63 30
f 30 63 31
f 31 63 64
f 31 64 32
f 32 64 65
f 32 65 66
f 32 66 33
f 33 66 34
f 34 66 36
f 34 36 35
f 36 66 65
f 36 65 37
f 37 67 38
f 37 65 68
f 37 68 67
f 38 45 39
f 38 67 69
f 38 69 45
f 39 45 40
f 40 45 41
f 41 45 42
f 42 45 43
f 43 45 44
f 45 69 70
f 45 70 46
f 46 70 71
f 46 71 72
f 46 72 73
f 46 73 74
f 46 74 47
f 47 74 48
f 48 74 49
f 49 74 89
f 49 89 103
f 49 103 102
f 49 102 93
f 49 93 90
f 49 90 75
f 49 75 50
f 50 75 76
f 50 76 51
f 51 76 77
f 51 77 52
f 52 77 78
f 52 78 53
f 53 78 79
f 53 79 54
f 54 79 55
f 55 79 56
f 56 79 80
f 56 80 81
f 56 81 57
f 57 81 82
f 57 82 58
f 58 82 81
f 58 81 97
f 58 97 111
f 58 111 120
f 58 120 126
f 58 126 129
f 58 129 128
f 58 128 131
f 58 131 130
f 58 130 127
f 58 127 123
f 58 123 121
f 58 121 112
f 58 112 98
f 58 98 85
f 58 85 84
f 58 84 83
f 58 83 68
f 58 68 65
f 58 65 64
f 58 64 63
f 58 63 62
f 58 62 61
f 58 61 60
f 58 60 59
f 67 68 83
f 67 83 69
f 69 83 84
f 69 84 85
f 69 85 71
f 69 71 70
f 71 85 86
f 71 86 72
f 72 86 87
f 72 87 73
f 73 87 88
f 73 88 89
f 73 89 74
f 75 90 76
f 76 91 92
f 76 92 77
f 76 90 93
f 76 93 94
f 76 94 91
f 77 92 78
f 78 92 95
f 78 95 79
f 79 95 96
f 79 96 80
f 80 96 97
f 80 97 81
f 85 98 99
f 85 99 100
f 85 100 86
f 86 100 88
f 86 88 87
f 88 100 99
f 88 99 101
f 88 101 102
f 88 102 103
f 88 103 89
f 91 104 92
f 91 94 105
f 91 105 104
f 92 104 97
f 92 97 106
f 92 106 95
f 93 107 108
f 93 108 94
f 93 102 107
f 94 108 105
f 95 106 97
f 95 97 96
f 97 104 109
f 97 109 110
f 97 110 111
f 98 112 113
f 98 113 114
f 98 114 99
f 99 114 115
f 99 115 101
f 101 115 116
f 101 116 102
f 102 116 107
f 104 105 109
f 105 108 117
f 105 117 109
f 107 116 118
f 107 118 119
f 107 119 117
f 107 117 108
f 109 117 110
f 110 117 111
f 111 117 120
f 112 121 113
f 113 121 118
f 113 118 114
f 114 118 115
f 115 118 116
f 117 119 122
f 117 122 120
f 118 121 123
f 118 123 124
f 118 124 122
f 118 122 119
f 120 122 125
f 120 125 126
f 122 124 127
f 122 127 125
f 123 127 124
f 125 128 129
f 125 129 126
f 125 127 130
f 125 130 131
f 125 131 128

