# https://github.com/mikedh/trimesh
v 0.31205873 0.11011717 -0.00449848
v 0.28024997 0.10710602 -0.00058675
v 0.30641340 0.11011717 -0.00393089
v 0.28380678 0.11438458 -0.00083986
v 0.28946477 0.11527424 -0.00120036
v 0.30075543 0.11576795 -0.00202104
v 0.30641340 0.11576795 -0.00241989
v 0.31205873 0.11576795 -0.00277271
v 0.31771672 0.11576795 -0.00244290
v 0.31771672 0.11011717 -0.00403060
v 0.31771672 0.10597683 -0.00217445
v 0.31205873 0.10590840 -0.00235086
v 0.24992215 0.06880676 0.01440054
v 0.23861883 0.06880676 0.01440054
v 0.23296085 0.06880676 0.01458462
v 0.27703492 0.11011717 -0.00004985
v 0.27985759 0.11011717 -0.00065578
v 0.28380678 0.11011717 -0.00121569
v 0.29511010 0.11011717 -0.00264232
v 0.30075543 0.11011717 -0.00330962
v 0.22167020 0.06880676 0.01601892
v 0.19527891 0.06880676 0.02018376
v 0.28021200 0.11352915 -0.00059441
v 0.27465526 0.11864223 0.00503541
v 0.29708470 0.11862756 -0.00050238
v 0.29516072 0.11626655 -0.00136909
v 0.31205873 0.11866667 -0.00063277
v 0.31771672 0.11864712 -0.00057908
v 0.32057736 0.11861780 -0.00049470
v 0.30075543 0.11865690 -0.00055607
v 0.30641340 0.11866667 -0.00060209
v 0.32131150 0.11576795 -0.00120036
v 0.32202034 0.11011717 -0.00188299
v 0.32151402 0.10646077 -0.00139977
v 0.29988203 0.06880676 0.02131892
v 0.29513541 0.06880676 0.02041385
v 0.26685813 0.06880676 0.01635640
v 0.25087147 0.06880676 0.01448490
v 0.19527891 0.09317457 0.02139562
v 0.19527891 0.09685540 0.02177146
v 0.19527891 0.06880676 0.06462404
v 0.27266802 0.11616391 0.00370848
v 0.27089594 0.11830983 0.00640834
v 0.26951625 0.11864223 0.01017434
v 0.27266802 0.11868134 0.00818012
v 0.27816145 0.11874489 0.00801905
v 0.27816145 0.11866667 0.00488200
v 0.31205873 0.11874489 0.00236622
v 0.30641340 0.11874489 0.00236622
v 0.31771672 0.11872044 0.00236622
v 0.32067862 0.11864712 0.00236622
v 0.32266588 0.11576795 0.00236622
v 0.30075543 0.11873022 0.00236622
v 0.32438732 0.11011717 0.00236622
v 0.31941286 0.06880676 0.03062270
v 0.31867871 0.06880676 0.02964860
v 0.19527891 0.09961236 0.02496987
v 0.19527891 0.09331144 0.07385879
v 0.26308614 0.06880676 0.07385879
v 0.19527891 0.10089308 0.02875120
v 0.19527891 0.10152366 0.03062270
v 0.24703620 0.11863245 0.04456686
v 0.25035250 0.11867645 0.04237322
v 0.27250346 0.11874489 0.01367188
v 0.24992215 0.11873511 0.04756584
v 0.31205873 0.11874489 0.00801905
v 0.31771672 0.11873999 0.00801905
v 0.32071659 0.11866667 0.00801905
v 0.32280511 0.11576795 0.00801905
v 0.32457719 0.11011717 0.00801905
v 0.31998244 0.06880676 0.03250953
v 0.19527891 0.10071221 0.07385879
v 0.30727413 0.06880676 0.07385879
v 0.19527891 0.10153833 0.03626785
v 0.24698556 0.11866178 0.04756584
v 0.25556748 0.11874489 0.04191301
v 0.24701087 0.11864223 0.05084863
v 0.25020063 0.11868134 0.05292721
v 0.25556748 0.11874489 0.05321867
v 0.30641340 0.11874489 0.01367188
v 0.31719775 0.11867156 0.01317333
v 0.32062800 0.11863735 0.01095669
v 0.28946477 0.11874489 0.03062270
v 0.26685813 0.11874489 0.05321867
v 0.32145074 0.11576795 0.01190777
v 0.31986854 0.06880676 0.03626785
v 0.31589402 0.06880676 0.05347945
v 0.25803573 0.11863735 0.06175544
v 0.25227648 0.11864223 0.05644777
v 0.19527891 0.10154321 0.05321867
v 0.28380678 0.09873737 0.07385879
v 0.26120014 0.11862756 0.06174777
v 0.28794584 0.09733445 0.07385879
v 0.19527891 0.10154321 0.05134718
v 0.25592189 0.11867645 0.05854936
v 0.26120014 0.11870089 0.05886383
v 0.31497000 0.11862756 0.01657116
v 0.27207310 0.11868134 0.05278915
v 0.26990864 0.11864223 0.05620999
v 0.26630119 0.11865690 0.05840363
v 0.28524976 0.09824855 0.07385879
v 0.26404813 0.11859824 0.06170175
v 0.30924873 0.11859824 0.02215496
f 1 2 3
f 1 3 4
f 1 4 5
f 1 5 6
f 1 6 7
f 1 7 8
f 1 8 9
f 1 9 10
f 1 10 11
f 1 11 12
f 1 12 13
f 1 13 14
f 1 14 15
f 1 15 2
f 2 16 17
f 2 17 18
f 2 18 19
f 2 19 20
f 2 20 3
f 2 15 21
f 2 21 22
f 2 22 16
f 3 20 23
f 3 23 4
f 4 23 24
f 4 24 25
f 4 25 5
f 5 25 26
f 5 26 6
f 6 26 25
f 6 25 7
f 7 25 8
f 8 27 28
f 8 28 29
f 8 29 9
f 8 25 30
f 8 30 31
f 8 31 27
f 9 29 32
f 9 32 10
f 10 32 33
f 10 33 34
f 10 34 11
f 11 34 35
f 11 35 36
f 11 36 37
f 11 37 38
f 11 38 13
f 11 13 12
f 13 38 37
f 13 37 36
f 13 36 35
f 13 35 56
f 13 56 55
f 13 55 71
f 13 71 86
f 13 86 87
f 13 87 73
f 13 73 59
f 13 59 41
f 13 41 22
f 13 22 21
f 13 21 15
f 13 15 14
f 16 23 17
f 16 22 39
f 16 39 40
f 16 40 23
f 17 23 18
f 18 23 19
f 19 23 20
f 22 41 58
f 22 58 72
f 22 72 90
f 22 90 94
f 22 94 74
f 22 74 61
f 22 61 60
f 22 60 57
f 22 57 40
f 22 40 39
f 23 42 24
f 23 40 42
f 24 42 43
f 24 43 44
f 24 44 45
f 24 45 46
f 24 46 47
f 24 47 25
f 25 47 30
f 27 48 28
f 27 31 49
f 27 49 48
f 28 50 29
f 28 48 50
f 29 51 52
f 29 52 32
f 29 50 51
f 30 53 49
f 30 49 31
f 30 47 53
f 32 52 54
f 32 54 33
f 33 54 34
f 34 54 55
f 34 55 56
f 34 56 35
f 40 57 43
f 40 43 42
f 41 59 58
f 43 57 60
f 43 60 61
f 43 61 44
f 44 61 62
f 44 62 63
f 44 63 45
f 45 64 46
f 45 63 65
f 45 65 64
f 46 64 76
f 46 76 79
f 46 79 84
f 46 84 83
f 46 83 80
f 46 80 66
f 46 66 48
f 46 48 49
f 46 49 53
f 46 53 47
f 48 66 67
f 48 67 50
f 50 67 68
f 50 68 51
f 51 68 69
f 51 69 52
f 52 69 70
f 52 70 54
f 54 70 71
f 54 71 55
f 58 59 73
f 58 73 93
f 58 93 101
f 58 101 91
f 58 91 72
f 61 74 75
f 61 75 62
f 62 75 65
f 62 65 63
f 64 65 76
f 65 75 77
f 65 77 78
f 65 78 79
f 65 79 76
f 66 80 67
f 67 81 82
f 67 82 68
f 67 80 83
f 67 83 84
f 67 84 81
f 68 82 69
f 69 82 85
f 69 85 70
f 70 86 71
f 70 85 73
f 70 73 87
f 70 87 86
f 72 88 89
f 72 89 77
f 72 77 90
f 72 91 92
f 72 92 88
f 73 85 82
f 73 82 93
f 74 94 75
f 75 94 90
f 75 90 77
f 77 89 78
f 78 89 95
f 78 95 79
f 79 95 96
f 79 96 84
f 81 97 82
f 81 84 98
f 81 98 99
f 81 99 97
f 82 97 93
f 84 96 100
f 84 100 98
f 88 95 89
f 88 92 96
f 88 96 95
f 91 101 102
f 91 102 92
f 92 102 96
f 93 102 101
f 93 97 103
f 93 103 102
f 96 102 100
f 97 99 103
f 98 100 99
f 99 100 102
f 99 102 103

