# https://github.com/mikedh/trimesh
v 0.15384386 0.10659860 -0.00525021
v 0.15384386 0.11012295 -0.00523473
v 0.15737018 0.10659860 -0.00450683
v 0.12559095 0.10659860 -0.00523473
v 0.12559095 0.11012295 -0.00522698
v 0.15384386 0.11577514 -0.00332980
v 0.15950008 0.11577514 -0.00282646
v 0.15950008 0.11012295 -0.00404220
v 0.12559095 0.11577514 -0.00339948
v 0.15950008 0.10659860 -0.00405770
v 0.11996294 0.10659860 -0.00383313
v 0.04947879 0.10659860 0.01421729
v 0.04947879 0.13669706 0.01594412
v 0.15950008 0.11903489 -0.00103767
v 0.12106316 0.11911207 -0.00112285
v 0.16243398 0.11876662 -0.00065824
v 0.16258914 0.11577514 -0.00115383
v 0.16270198 0.11012295 -0.00154101
v 0.16270198 0.10659860 -0.00154101
v 0.04947879 0.10659860 0.05279609
v 0.04947879 0.13894618 0.01932035
v 0.11996294 0.13669706 0.01588992
v 0.14820174 0.13669706 0.01594412
v 0.15384386 0.13647289 0.01604479
v 0.15722913 0.13601351 0.01626162
v 0.16333672 0.13677057 0.02098523
v 0.16809020 0.13576361 0.02756733
v 0.17374643 0.13576361 0.03885754
v 0.17940265 0.13576361 0.05015551
v 0.19070098 0.13576361 0.07275919
v 0.19164605 0.13467580 0.07385879
v 0.19236542 0.13272069 0.07385879
v 0.19335278 0.12707217 0.07385879
v 0.15927440 0.13746147 0.01918870
v 0.19357847 0.10659860 0.07385879
v 0.04947879 0.12882884 0.07385879
v 0.10073743 0.10659860 0.07385879
v 0.04947879 0.13946436 0.02198416
v 0.14820174 0.13894618 0.01932035
v 0.15384386 0.13871833 0.01932035
v 0.15950008 0.13983921 0.02497320
v 0.16519862 0.13731080 0.02539911
v 0.16888010 0.13668236 0.03061832
v 0.18017844 0.13668236 0.05321425
v 0.19098310 0.13609436 0.07385879
v 0.04947879 0.14004134 0.07385879
v 0.04947879 0.14004134 0.02497320
v 0.15384386 0.14004134 0.02497320
v 0.16514220 0.13989434 0.03626343
v 0.16514220 0.13893148 0.03061832
v 0.14254552 0.14413532 0.07385879
v 0.17088305 0.13735489 0.03668933
v 0.17653927 0.13735489 0.04799504
v 0.18783762 0.13735489 0.07059097
v 0.18582056 0.13668236 0.06451996
v 0.18778120 0.13833980 0.07385879
v 0.13124718 0.14386705 0.07385879
v 0.17645465 0.13989434 0.05886711
v 0.17645465 0.13893148 0.05321425
v 0.18209676 0.13998989 0.07385879
v 0.18209676 0.13989434 0.07016507
v 0.18209676 0.13893148 0.06451996
f 1 2 3
f 1 3 10
f 1 10 19
f 1 19 35
f 1 35 37
f 1 37 20
f 1 20 12
f 1 12 11
f 1 11 4
f 1 4 5
f 1 5 2
f 2 6 7
f 2 7 8
f 2 8 3
f 2 5 9
f 2 9 6
f 3 8 10
f 4 11 5
f 5 11 12
f 5 12 13
f 5 13 9
f 6 14 7
f 6 9 15
f 6 15 14
f 7 14 16
f 7 16 8
f 8 16 17
f 8 17 18
f 8 18 10
f 9 13 15
f 10 18 19
f 12 20 36
f 12 36 46
f 12 46 47
f 12 47 38
f 12 38 21
f 12 21 13
f 13 21 22
f 13 22 15
f 14 23 24
f 14 24 25
f 14 25 16
f 14 15 23
f 15 22 23
f 16 26 27
f 16 27 28
f 16 28 29
f 16 29 30
f 16 30 31
f 16 31 32
f 16 32 33
f 16 33 17
f 16 25 34
f 16 34 26
f 17 33 18
f 18 33 35
f 18 35 19
f 20 37 36
f 21 38 39
f 21 39 22
f 22 39 23
f 23 39 40
f 23 40 24
f 24 40 25
f 25 40 34
f 26 41 42
f 26 42 43
f 26 43 27
f 26 34 41
f 27 43 28
f 28 43 29
f 29 43 44
f 29 44 45
f 29 45 30
f 30 45 31
f 31 45 56
f 31 56 60
f 31 60 51
f 31 51 57
f 31 57 46
f 31 46 36
f 31 36 37
f 31 37 35
f 31 35 33
f 31 33 32
f 34 40 41
f 38 47 48
f 38 48 39
f 39 48 41
f 39 41 40
f 41 49 50
f 41 50 42
f 41 48 51
f 41 51 49
f 42 52 43
f 42 50 52
f 43 52 53
f 43 53 54
f 43 54 44
f 44 54 55
f 44 55 45
f 45 55 54
f 45 54 56
f 46 57 47
f 47 57 51
f 47 51 48
f 49 58 59
f 49 59 50
f 49 51 58
f 50 59 52
f 51 60 61
f 51 61 58
f 52 59 53
f 53 59 54
f 54 59 56
f 56 59 62
f 56 62 61
f 56 61 60
f 58 61 59
f 59 61 62

