# https://github.com/mikedh/trimesh
v -0.16463324 -0.13849699 0.17415243
v -0.16268712 -0.13849699 0.17753128
v -0.16462218 -0.13791871 0.17415243
v -0.16228906 -0.14334194 0.17415243
v -0.16124412 -0.14287307 0.17753128
v -0.16020472 -0.14198223 0.18107534
v -0.16450609 -0.13283933 0.17415243
v -0.16040375 -0.13849699 0.18138949
v -0.16034294 -0.13283933 0.18129758
v -0.15977900 -0.08413974 0.18040516
v -0.16030977 0.01399401 0.17559286
v -0.16065254 -0.14415464 0.17415243
v -0.15692065 -0.14504548 0.17753128
v -0.15638988 -0.14260737 0.18304750
v -0.15415627 -0.14135707 0.18602726
v -0.16113908 0.01399401 0.17415243
v -0.15638988 -0.13832507 0.18456473
v -0.15692065 -0.13283933 0.18407023
v -0.15568220 0.01399401 0.18161289
v -0.15572090 0.01399401 0.18157449
v -0.15850739 0.01399401 0.17846441
v -0.15852950 0.01399401 0.17842951
v -0.16028212 0.01399401 0.17563940
v -0.15692065 -0.14540495 0.17415243
v -0.15127027 -0.14567064 0.17753128
v -0.15127027 -0.14354511 0.18318014
v -0.15127027 -0.14137270 0.18603773
v -0.15415627 -0.14009112 0.18602726
v -0.11134164 0.01399401 0.17415243
v -0.15127027 0.01399401 0.18382123
v -0.15464832 -0.14563939 0.17415243
v -0.15127027 -0.14567064 0.17415243
v -0.13996951 -0.14567064 0.17753128
v -0.13996951 -0.14354511 0.18318014
v -0.13432465 -0.14137270 0.18603890
v -0.15127027 -0.13948161 0.18603773
v -0.13996951 0.01399401 0.18499057
v -0.14003584 0.01399401 0.18498941
v -0.14561989 0.01399401 0.18488120
v -0.10826212 -0.12719731 0.17415243
v -0.11194427 0.01399401 0.17753128
v -0.10893112 -0.13154213 0.18013872
v -0.10861598 -0.12719731 0.17700420
v -0.13996951 -0.14567064 0.17415243
v -0.13432465 -0.14554561 0.17753128
v -0.13432465 -0.14348260 0.18318014
v -0.13116221 -0.14135707 0.18602726
v -0.11450408 -0.13571504 0.18602260
v -0.13432465 -0.13941908 0.18603890
v -0.11737351 -0.13463665 0.18602377
v -0.12867427 0.01399401 0.18499057
v -0.10815708 -0.13296436 0.17415243
v -0.11357525 0.01399401 0.18129758
v -0.10889240 -0.13530869 0.18037142
v -0.10862702 -0.13318317 0.17796644
v -0.13432465 -0.14554561 0.17415243
v -0.12867427 -0.14470165 0.17753128
v -0.12302389 -0.14226354 0.18231216
v -0.12903363 -0.14268553 0.18362809
v -0.10889240 -0.13568379 0.18037142
v -0.11450408 -0.13473042 0.18602260
v -0.11876675 -0.14170091 0.18127663
v -0.11225941 -0.13674655 0.18262515
v -0.12309024 0.01399401 0.18476717
v -0.10821790 -0.13412090 0.17415243
v -0.11737351 0.01399401 0.18338841
v -0.11171759 -0.13313628 0.18317781
v -0.12867427 -0.14470165 0.17415243
v -0.12302389 -0.14323253 0.17753128
v -0.11522282 -0.14110700 0.17753128
v -0.11172313 -0.13863765 0.17753128
v -0.10871548 -0.13602762 0.17753128
v -0.11743986 0.01399401 0.18340587
v -0.12302389 0.01399401 0.18476369
v -0.11804801 -0.14188845 0.17753128
v -0.10850539 -0.13637146 0.17415243
v -0.12302389 -0.14323253 0.17415243
v -0.11522282 -0.14110700 0.17415243
v -0.11172313 -0.13898149 0.17415243
v -0.11804801 -0.14188845 0.17415243
f 1 2 3
f 1 3 7
f 1 7 16
f 1 16 29
f 1 29 40
f 1 40 52
f 1 52 65
f 1 65 76
f 1 76 79
f 1 79 78
f 1 78 80
f 1 80 77
f 1 77 68
f 1 68 56
f 1 56 44
f 1 44 32
f 1 32 31
f 1 31 24
f 1 24 12
f 1 12 4
f 1 4 5
f 1 5 6
f 1 6 2
f 2 7 3
f 2 6 8
f 2 8 9
f 2 9 10
f 2 10 11
f 2 11 7
f 4 12 13
f 4 13 5
f 5 13 6
f 6 13 14
f 6 14 15
f 6 15 8
f 7 11 16
f 8 15 17
f 8 17 18
f 8 18 19
f 8 19 9
f 9 19 20
f 9 20 10
f 10 20 21
f 10 21 22
f 10 22 23
f 10 23 11
f 11 23 22
f 11 22 21
f 11 21 20
f 11 20 19
f 11 19 30
f 11 30 39
f 11 39 38
f 11 38 37
f 11 37 51
f 11 51 64
f 11 64 74
f 11 74 73
f 11 73 66
f 11 66 53
f 11 53 41
f 11 41 29
f 11 29 16
f 12 24 13
f 13 24 25
f 13 25 26
f 13 26 14
f 14 26 15
f 15 27 36
f 15 36 28
f 15 28 17
f 15 26 27
f 17 28 19
f 17 19 18
f 19 28 30
f 24 31 25
f 25 32 44
f 25 44 33
f 25 33 34
f 25 34 26
f 25 31 32
f 26 34 35
f 26 35 27
f 27 35 49
f 27 49 36
f 28 36 37
f 28 37 38
f 28 38 39
f 28 39 30
f 29 41 42
f 29 42 43
f 29 43 40
f 33 44 56
f 33 56 45
f 33 45 46
f 33 46 34
f 34 46 47
f 34 47 35
f 35 47 48
f 35 48 61
f 35 61 49
f 36 49 50
f 36 50 37
f 37 50 51
f 40 43 52
f 41 53 54
f 41 54 42
f 42 54 55
f 42 55 43
f 43 55 52
f 45 56 68
f 45 68 57
f 45 57 58
f 45 58 59
f 45 59 46
f 46 59 47
f 47 59 58
f 47 58 48
f 48 60 54
f 48 54 61
f 48 58 62
f 48 62 63
f 48 63 60
f 49 61 50
f 50 61 51
f 51 61 64
f 52 55 54
f 52 54 60
f 52 60 65
f 53 66 61
f 53 61 67
f 53 67 54
f 54 67 61
f 57 68 77
f 57 77 69
f 57 69 62
f 57 62 58
f 60 63 62
f 60 62 70
f 60 70 71
f 60 71 72
f 60 72 65
f 61 66 73
f 61 73 74
f 61 74 64
f 62 69 75
f 62 75 70
f 65 72 76
f 69 77 80
f 69 80 75
f 70 75 80
f 70 80 78
f 70 78 79
f 70 79 71
f 71 79 76
f 71 76 72

