# https://github.com/mikedh/trimesh
v 0.10865082 0.19182935 0.12668237
v 0.10459140 0.19194822 0.12668237
v 0.10500369 0.19198480 0.12365112
v 0.10865082 0.19194822 0.12354189
v 0.11430230 0.19194822 0.12354189
v 0.11430230 0.19183849 0.12668237
v 0.10865082 0.19182935 0.18317011
v 0.10176883 0.19256996 0.12668237
v 0.10459140 0.19194822 0.18317011
v 0.10307546 0.19403288 0.12146643
v 0.10865082 0.19395059 0.12071545
v 0.11724538 0.19198480 0.12365112
v 0.11430230 0.19395059 0.12071545
v 0.11730247 0.19194822 0.12668237
v 0.11430230 0.19183849 0.18317011
v 0.10865082 0.19188421 0.18882298
v 0.09952346 0.19539522 0.12668237
v 0.09978352 0.19641014 0.12102950
v 0.10176883 0.19256996 0.18317011
v 0.10520666 0.19200309 0.18882298
v 0.10008798 0.19751646 0.11812114
v 0.10299935 0.19709587 0.11788901
v 0.10865082 0.19677586 0.11771151
v 0.11753715 0.19708674 0.11788901
v 0.14080272 0.22485482 0.11102091
v 0.14141164 0.22421479 0.11537663
v 0.11430230 0.19677586 0.11772516
v 0.11730247 0.19194822 0.18317011
v 0.11724538 0.19198480 0.18618771
v 0.11385830 0.19192079 0.18837239
v 0.11167636 0.19198480 0.19218194
v 0.10865082 0.19200309 0.19205904
v 0.10582191 0.19205793 0.19166307
v 0.08800485 0.22286158 0.11537663
v 0.09952346 0.19539522 0.18317011
v 0.10238409 0.19331056 0.18882298
v 0.09960592 0.19613583 0.18882298
v 0.08800485 0.22431535 0.11330118
v 0.08800485 0.22509254 0.11219518
v 0.08800485 0.25754197 0.07644828
v 0.10865082 0.20364244 0.11260481
v 0.14013039 0.25387552 0.07823699
v 0.14588335 0.25923348 0.07775909
v 0.14337792 0.22878641 0.11537663
v 0.15209300 0.26945565 0.07725389
v 0.11823487 0.19489235 0.18837239
v 0.13690188 0.25369266 0.07800487
v 0.11787333 0.19678500 0.19255060
v 0.11254533 0.19616326 0.19900907
v 0.10865082 0.19270711 0.19488548
v 0.10511151 0.19634613 0.19883157
v 0.10358289 0.19487406 0.19375218
v 0.08800485 0.22314502 0.12111142
v 0.08800485 0.22970074 0.20012873
v 0.09985329 0.19715987 0.19207270
v 0.08800485 0.23073393 0.20369249
v 0.08800485 0.26268047 0.07414071
v 0.13690188 0.25702994 0.07577923
v 0.14222987 0.25722195 0.07698080
v 0.14254701 0.26268047 0.07468688
v 0.14701872 0.26268047 0.07693984
v 0.15209300 0.26945565 0.07973897
v 0.15279705 0.27398155 0.08035341
v 0.13244919 0.24007835 0.19447585
v 0.13133919 0.23443694 0.19447585
v 0.14819849 0.27398155 0.07429091
v 0.15279705 0.27398155 0.07650290
v 0.12930949 0.23098080 0.19855848
v 0.11796213 0.21366346 0.20961844
v 0.11253265 0.20164922 0.20466194
v 0.10865082 0.19810164 0.20255918
v 0.10865082 0.19553238 0.19973275
v 0.10517494 0.20183208 0.20448444
v 0.09979620 0.21414806 0.20923612
v 0.08800485 0.23202313 0.20421136
v 0.08800485 0.26833102 0.07404513
v 0.13690188 0.26268047 0.07412706
v 0.15254968 0.27963209 0.08014859
v 0.13149142 0.24572888 0.20012873
v 0.13087616 0.24007835 0.20012873
v 0.12980423 0.23485753 0.20031988
v 0.13690188 0.26833102 0.07404513
v 0.14254701 0.27398155 0.07414071
v 0.14254701 0.27963209 0.07433187
v 0.14819849 0.27963209 0.07457765
v 0.15254968 0.27963209 0.07672137
v 0.11849492 0.21748535 0.21049232
v 0.11430230 0.21748535 0.21292278
v 0.11437842 0.21180739 0.21098387
v 0.11255167 0.20729975 0.20993250
v 0.10865082 0.20375217 0.20821205
v 0.10507980 0.20748262 0.20975499
v 0.10311986 0.21209082 0.21060156
v 0.10299935 0.21748535 0.21218546
v 0.09956787 0.21748535 0.20983691
v 0.08800485 0.24807870 0.20873091
v 0.08800485 0.23443694 0.20518081
v 0.08800485 0.27398155 0.07404513
v 0.15176317 0.28306996 0.07945223
v 0.13196714 0.25137941 0.19447585
v 0.13026091 0.25191887 0.20066124
v 0.12936022 0.25040109 0.20400653
v 0.12952514 0.24572888 0.20414308
v 0.12886548 0.24007835 0.20340575
v 0.12848491 0.23701535 0.20300977
v 0.13690188 0.27398155 0.07404513
v 0.13690188 0.27963209 0.07429091
v 0.14254701 0.28381970 0.07658483
v 0.14819849 0.28360027 0.07678964
v 0.15176317 0.28306996 0.07755428
v 0.11860275 0.22313588 0.21086098
v 0.11430230 0.22313588 0.21331875
v 0.10865082 0.21748535 0.21338702
v 0.10865082 0.21183480 0.21282720
v 0.10865082 0.20657743 0.21046501
v 0.10299935 0.22313588 0.21255411
v 0.10299935 0.23443694 0.21267701
v 0.08800485 0.24892902 0.20873091
v 0.08800485 0.27767544 0.07419533
v 0.14819849 0.28360027 0.08005302
v 0.12867520 0.25997407 0.18079427
v 0.12925240 0.25468927 0.19913196
v 0.12559892 0.25415897 0.20285958
v 0.12518029 0.25093139 0.20583621
v 0.12302372 0.24880101 0.20868996
v 0.12302372 0.24822499 0.20868996
v 0.08800485 0.27963209 0.07429091
v 0.08800485 0.28381970 0.07658483
v 0.08800485 0.28474315 0.07977993
v 0.11430230 0.28522777 0.08147306
v 0.11995378 0.28517291 0.08147306
v 0.11430230 0.22878641 0.21333241
v 0.10865082 0.22878641 0.21352357
v 0.10865082 0.22313588 0.21348261
v 0.10865082 0.23443694 0.21349626
v 0.10299935 0.24007835 0.21258143
v 0.08800485 0.25172685 0.20578160
v 0.10865082 0.24007835 0.21334607
v 0.10865082 0.24572888 0.21121599
v 0.10865082 0.24920331 0.20890842
v 0.11995378 0.28480718 0.08712593
v 0.12559892 0.28368255 0.09277880
v 0.12874497 0.28261279 0.09619237
v 0.12846588 0.27682510 0.11824403
v 0.12559892 0.25493614 0.20003314
v 0.11995378 0.25417725 0.20285958
v 0.10865082 0.25199201 0.20578160
v 0.11430230 0.25190973 0.20578160
v 0.11995378 0.25177257 0.20578160
v 0.11995378 0.24897473 0.20877188
v 0.11430230 0.24572888 0.21098387
v 0.11430230 0.24007835 0.21308664
v 0.11430230 0.23443694 0.21331875
v 0.08800485 0.28522777 0.08147306
v 0.08800485 0.28499003 0.08517337
v 0.11430230 0.28486204 0.08712593
v 0.08800485 0.25417725 0.20285958
v 0.11430230 0.24911189 0.20885381
v 0.08800485 0.28409402 0.09082624
v 0.08800485 0.28368255 0.09277880
v 0.12559892 0.28269507 0.09647911
v 0.12559892 0.26003808 0.18101273
v 0.08800485 0.25444241 0.20189013
v 0.11995378 0.25794427 0.18882298
v 0.08800485 0.25695681 0.19252329
v 0.08800485 0.28486204 0.08712593
v 0.08800485 0.28269507 0.09647911
v 0.08800485 0.27511532 0.12477077
v 0.11430230 0.27608450 0.12115239
v 0.11995378 0.26248847 0.17187803
f 1 2 3
f 1 3 4
f 1 4 5
f 1 5 6
f 1 6 15
f 1 15 7
f 1 7 9
f 1 9 2
f 2 8 3
f 2 9 19
f 2 19 8
f 3 8 10
f 3 10 11
f 3 11 4
f 4 11 13
f 4 13 5
f 5 12 6
f 5 13 12
f 6 12 14
f 6 14 28
f 6 28 15
f 7 15 16
f 7 16 9
f 8 17 18
f 8 18 10
f 8 19 35
f 8 35 17
f 9 16 20
f 9 20 19
f 10 18 21
f 10 21 22
f 10 22 11
f 11 22 23
f 11 23 13
f 12 13 24
f 12 24 25
f 12 25 26
f 12 26 14
f 13 23 27
f 13 27 24
f 14 26 28
f 15 28 29
f 15 29 30
f 15 30 16
f 16 30 31
f 16 31 32
f 16 32 33
f 16 33 20
f 17 34 18
f 17 35 34
f 18 34 21
f 19 20 33
f 19 33 36
f 19 36 37
f 19 37 35
f 21 34 38
f 21 38 39
f 21 39 40
f 21 40 22
f 22 40 41
f 22 41 23
f 23 41 27
f 24 27 42
f 24 42 43
f 24 43 25
f 25 44 26
f 25 43 45
f 25 45 44
f 26 44 46
f 26 46 29
f 26 29 28
f 27 41 47
f 27 47 42
f 29 46 48
f 29 48 49
f 29 49 31
f 29 31 30
f 31 49 50
f 31 50 32
f 32 50 33
f 33 50 51
f 33 51 52
f 33 52 36
f 34 53 54
f 34 54 56
f 34 56 75
f 34 75 97
f 34 97 96
f 34 96 118
f 34 118 137
f 34 137 157
f 34 157 163
f 34 163 165
f 34 165 168
f 34 168 167
f 34 167 160
f 34 160 159
f 34 159 166
f 34 166 155
f 34 155 154
f 34 154 129
f 34 129 128
f 34 128 127
f 34 127 119
f 34 119 98
f 34 98 76
f 34 76 57
f 34 57 40
f 34 40 39
f 34 39 38
f 34 35 53
f 35 37 54
f 35 54 53
f 36 52 55
f 36 55 37
f 37 55 56
f 37 56 54
f 40 57 58
f 40 58 47
f 40 47 41
f 42 47 58
f 42 58 59
f 42 59 43
f 43 59 60
f 43 60 61
f 43 61 45
f 44 45 62
f 44 62 63
f 44 63 64
f 44 64 65
f 44 65 46
f 45 61 60
f 45 60 66
f 45 66 67
f 45 67 63
f 45 63 62
f 46 65 68
f 46 68 48
f 48 68 69
f 48 69 70
f 48 70 49
f 49 70 71
f 49 71 72
f 49 72 50
f 50 72 51
f 51 72 71
f 51 71 73
f 51 73 74
f 51 74 55
f 51 55 52
f 55 74 56
f 56 74 75
f 57 76 77
f 57 77 58
f 58 60 59
f 58 77 60
f 60 77 66
f 63 67 86
f 63 86 78
f 63 78 79
f 63 79 64
f 64 79 80
f 64 80 81
f 64 81 65
f 65 81 68
f 66 77 82
f 66 82 83
f 66 83 84
f 66 84 85
f 66 85 67
f 67 85 86
f 68 81 69
f 69 81 87
f 69 87 88
f 69 88 89
f 69 89 90
f 69 90 70
f 70 90 91
f 70 91 71
f 71 91 73
f 73 91 92
f 73 92 74
f 74 92 93
f 74 93 94
f 74 94 95
f 74 95 96
f 74 96 97
f 74 97 75
f 76 82 77
f 76 98 106
f 76 106 82
f 78 86 110
f 78 110 99
f 78 99 100
f 78 100 79
f 79 100 101
f 79 101 102
f 79 102 103
f 79 103 80
f 80 103 81
f 81 103 104
f 81 104 105
f 81 105 87
f 82 106 83
f 83 106 84
f 84 107 108
f 84 108 85
f 84 106 107
f 85 108 109
f 85 109 110
f 85 110 86
f 87 111 88
f 87 105 104
f 87 104 103
f 87 103 111
f 88 112 113
f 88 113 114
f 88 114 89
f 88 111 112
f 89 114 90
f 90 114 115
f 90 115 91
f 91 115 92
f 92 115 114
f 92 114 93
f 93 114 94
f 94 114 113
f 94 113 116
f 94 116 96
f 94 96 95
f 96 116 117
f 96 117 118
f 98 119 106
f 99 110 109
f 99 109 120
f 99 120 121
f 99 121 122
f 99 122 101
f 99 101 100
f 101 122 102
f 102 122 123
f 102 123 124
f 102 124 125
f 102 125 103
f 103 125 126
f 103 126 111
f 106 119 107
f 107 119 127
f 107 127 128
f 107 128 108
f 108 128 129
f 108 129 130
f 108 130 131
f 108 131 109
f 109 131 120
f 111 126 112
f 112 132 133
f 112 133 134
f 112 134 113
f 112 126 132
f 113 134 116
f 116 134 117
f 117 134 133
f 117 133 135
f 117 135 136
f 117 136 118
f 118 136 138
f 118 138 139
f 118 139 140
f 118 140 137
f 120 131 141
f 120 141 142
f 120 142 143
f 120 143 144
f 120 144 121
f 121 145 123
f 121 123 122
f 121 144 145
f 123 145 146
f 123 146 147
f 123 147 148
f 123 148 149
f 123 149 150
f 123 150 125
f 123 125 124
f 125 150 151
f 125 151 152
f 125 152 153
f 125 153 132
f 125 132 126
f 129 154 130
f 130 154 155
f 130 155 156
f 130 156 141
f 130 141 131
f 132 153 133
f 133 153 135
f 135 138 136
f 135 153 138
f 137 140 147
f 137 147 157
f 138 153 152
f 138 152 151
f 138 151 139
f 139 151 150
f 139 150 158
f 139 158 140
f 140 158 149
f 140 149 148
f 140 148 147
f 141 156 142
f 142 159 160
f 142 160 167
f 142 167 161
f 142 161 144
f 142 144 143
f 142 156 159
f 144 161 162
f 144 162 145
f 145 163 146
f 145 162 164
f 145 164 165
f 145 165 163
f 146 163 157
f 146 157 147
f 149 158 150
f 155 166 156
f 156 166 159
f 161 167 168
f 161 168 169
f 161 169 170
f 161 170 162
f 162 170 165
f 162 165 164
f 165 170 169
f 165 169 168

