# https://github.com/mikedh/trimesh
v 0.21070020 0.01399401 0.12109567
v 0.21070020 0.01399401 0.12102738
v 0.21066073 0.01399401 0.12673492
v 0.21101598 -0.09185535 0.14542461
v 0.21101598 -0.09230824 0.10871375
v 0.20931874 0.01399401 0.11544563
v 0.20592425 0.01399401 0.14542461
v 0.21101598 -0.09915594 0.14542461
v 0.21101598 -0.09915594 0.10871375
v 0.20884507 -0.04812433 0.10871375
v 0.20773991 0.01399401 0.11241215
v -0.18231215 0.01399401 0.14542461
v 0.19242516 -0.13714432 0.14542461
v 0.19629332 -0.13587623 0.14096783
v 0.19672748 -0.13663708 0.13797389
v 0.19712220 -0.13728924 0.13232385
v 0.19712220 -0.13730736 0.12667741
v 0.19712220 -0.13730736 0.10871375
v 0.20537163 0.01399401 0.10871375
v -0.18298318 0.01399401 0.14317106
v -0.18231215 -0.05941034 0.14542461
v 0.18784653 -0.13940876 0.14542461
v 0.19333300 -0.13741604 0.14316028
v 0.19337247 -0.13888341 0.13797389
v 0.19337247 -0.13953557 0.13232385
v 0.19337247 -0.13955368 0.12667741
v 0.19337247 -0.13955368 0.10871375
v -0.19221938 0.01399401 0.10871375
v -0.18298318 -0.05941034 0.14317106
v -0.18227267 -0.06038858 0.14542461
v -0.18294370 -0.06504429 0.14271460
v 0.18772812 -0.13993411 0.14362752
v 0.08147229 -0.17107480 0.14542461
v 0.17643941 -0.14482532 0.11537734
v 0.17643941 -0.14458982 0.10972731
v 0.17643941 -0.14453547 0.10871375
v -0.19221938 -0.05375828 0.10871375
v -0.18432517 -0.06504429 0.13797389
v -0.18807491 -0.06504429 0.12413993
v -0.18010179 -0.06544283 0.14542461
v -0.18274634 -0.06839567 0.14176934
v -0.18803544 -0.06794278 0.12403570
v 0.02850225 -0.17107480 0.14542461
v 0.08080128 -0.17107480 0.14369940
v 0.17079508 -0.14600284 0.10871375
v 0.17541318 -0.14482532 0.10871375
v -0.19217991 -0.05941034 0.10871375
v -0.18890380 -0.06504429 0.12102738
v -0.18006232 -0.06553341 0.14542461
v -0.17110239 -0.09620309 0.12974683
v -0.16605012 -0.09687338 0.14542461
v -0.18843017 -0.06841379 0.12102738
v -0.17662832 -0.09538789 0.10871375
v 0.02909432 -0.17107480 0.14368503
v -0.04388749 -0.15236142 0.14542461
v -0.04779512 -0.15279619 0.14182684
v -0.05537354 -0.15221649 0.13805296
v -0.05734709 -0.15247010 0.13447317
v -0.05904433 -0.15279619 0.13070648
v -0.06295197 -0.15243386 0.12667741
v -0.06358350 -0.15259690 0.12373738
v -0.06453080 -0.15275995 0.11997069
v -0.06460975 -0.15286865 0.11537734
v -0.06457028 -0.15286865 0.10972731
v -0.06457028 -0.15283243 0.10871375
v 0.08048551 -0.17107480 0.14313512
v 0.16976883 -0.14605718 0.10871375
v 0.07740678 -0.17107480 0.13797389
v 0.07472275 -0.17107480 0.13504464
v 0.07156508 -0.17107480 0.13245684
v 0.06907840 -0.17107480 0.13055552
v 0.06343406 -0.17107480 0.12769097
v 0.06331564 -0.17107480 0.12767659
v 0.05778971 -0.17107480 0.12719138
v -0.19091683 -0.06498994 0.10871375
v -0.17149711 -0.09663787 0.12667741
v -0.16628696 -0.09709076 0.14362752
v -0.06646488 -0.15185417 0.12152337
v -0.06089947 -0.15194475 0.13248559
v -0.08154279 -0.13768779 0.14542461
v -0.17540475 -0.09698206 0.10871375
v 0.02937062 -0.17107480 0.14311715
v -0.05845227 -0.14772381 0.14542461
v -0.05888646 -0.14839410 0.14362752
v -0.07791146 -0.13940876 0.14542461
v -0.17469424 -0.09738061 0.10871375
v -0.06093894 -0.15310415 0.10871375
v 0.04646154 -0.17107480 0.12769816
v 0.04081720 -0.17107480 0.13054474
v 0.03836999 -0.17107480 0.13243887
v 0.03517285 -0.17107480 0.13508418
v 0.03252829 -0.17107480 0.13797389
v 0.00134623 -0.15306791 0.10871375
v 0.05210589 -0.17107480 0.12719138
v -0.00433759 -0.15315849 0.10871375
v 0.00028052 -0.15310415 0.10871375
v -0.17212864 -0.09723568 0.12102738
v -0.05517619 -0.15315849 0.10871375
f 1 2 6
f 1 6 11
f 1 11 19
f 1 19 28
f 1 28 20
f 1 20 12
f 1 12 7
f 1 7 3
f 1 3 4
f 1 4 2
f 2 4 5
f 2 5 6
f 3 7 4
f 4 8 9
f 4 9 5
f 4 7 12
f 4 12 21
f 4 21 30
f 4 30 40
f 4 40 49
f 4 49 51
f 4 51 80
f 4 80 85
f 4 85 83
f 4 83 55
f 4 55 43
f 4 43 33
f 4 33 22
f 4 22 13
f 4 13 8
f 5 9 18
f 5 18 27
f 5 27 36
f 5 36 46
f 5 46 45
f 5 45 67
f 5 67 93
f 5 93 96
f 5 96 95
f 5 95 98
f 5 98 87
f 5 87 65
f 5 65 86
f 5 86 81
f 5 81 53
f 5 53 75
f 5 75 47
f 5 47 37
f 5 37 28
f 5 28 19
f 5 19 10
f 5 10 11
f 5 11 6
f 8 13 14
f 8 14 15
f 8 15 16
f 8 16 17
f 8 17 18
f 8 18 9
f 10 19 11
f 12 20 29
f 12 29 21
f 13 22 23
f 13 23 14
f 14 23 15
f 15 23 24
f 15 24 16
f 16 24 25
f 16 25 26
f 16 26 17
f 17 26 27
f 17 27 18
f 20 28 37
f 20 37 29
f 21 29 31
f 21 31 30
f 22 32 24
f 22 24 23
f 22 33 32
f 24 32 25
f 25 34 26
f 25 32 33
f 25 33 34
f 26 34 27
f 27 34 35
f 27 35 36
f 29 38 31
f 29 37 39
f 29 39 38
f 30 31 41
f 30 41 40
f 31 38 42
f 31 42 41
f 33 43 54
f 33 54 82
f 33 82 92
f 33 92 91
f 33 91 90
f 33 90 89
f 33 89 88
f 33 88 94
f 33 94 74
f 33 74 73
f 33 73 72
f 33 72 71
f 33 71 70
f 33 70 69
f 33 69 68
f 33 68 66
f 33 66 44
f 33 44 45
f 33 45 46
f 33 46 34
f 34 46 35
f 35 46 36
f 37 47 48
f 37 48 39
f 38 39 42
f 39 48 42
f 40 41 49
f 41 42 50
f 41 50 51
f 41 51 49
f 42 48 47
f 42 47 52
f 42 52 53
f 42 53 50
f 43 55 56
f 43 56 57
f 43 57 58
f 43 58 59
f 43 59 60
f 43 60 61
f 43 61 62
f 43 62 63
f 43 63 64
f 43 64 65
f 43 65 54
f 44 66 45
f 45 66 68
f 45 68 69
f 45 69 70
f 45 70 71
f 45 71 72
f 45 72 73
f 45 73 74
f 45 74 67
f 47 75 52
f 50 76 51
f 50 53 76
f 51 76 77
f 51 77 78
f 51 78 60
f 51 60 79
f 51 79 80
f 52 75 53
f 53 81 76
f 54 65 82
f 55 83 57
f 55 57 56
f 57 83 84
f 57 84 85
f 57 85 79
f 57 79 58
f 58 79 59
f 59 79 60
f 60 78 62
f 60 62 61
f 62 78 63
f 63 78 86
f 63 86 64
f 64 86 65
f 65 87 88
f 65 88 89
f 65 89 90
f 65 90 91
f 65 91 92
f 65 92 82
f 67 74 93
f 74 94 98
f 74 98 95
f 74 95 96
f 74 96 93
f 76 81 97
f 76 97 77
f 77 97 78
f 78 97 86
f 79 85 80
f 81 86 97
f 83 85 84
f 87 98 94
f 87 94 88

