# https://github.com/mikedh/trimesh
v -0.09919310 -0.06482206 0.07287742
v -0.10042007 -0.06347209 0.07382641
v -0.09877952 -0.06356444 0.07287742
v -0.09904146 -0.06708209 0.07287742
v -0.17024694 -0.06708209 0.12056820
v -0.17035723 -0.06470621 0.12053900
v -0.17068809 -0.06221447 0.12069230
v -0.17168070 -0.06109453 0.12136390
v -0.09919310 -0.06312285 0.07333732
v -0.17048131 -0.06057402 0.12094050
v -0.09795235 -0.06284076 0.07287742
v -0.09771798 -0.06889885 0.07287742
v -0.09872437 -0.06873766 0.07327892
v -0.16988849 -0.06871247 0.12086750
v -0.19055394 -0.07525413 0.14745403
v -0.19084345 -0.07380173 0.14745403
v -0.17168070 -0.06134471 0.12136390
v -0.19106403 -0.07183386 0.14745403
v -0.19087103 -0.07027904 0.14738833
v -0.19091238 -0.07025050 0.14745403
v -0.17048131 -0.05999474 0.12258300
v -0.16811009 -0.05889495 0.12258300
v -0.09729061 -0.06258890 0.07287742
v -0.09689082 -0.06910369 0.07287742
v -0.11701860 -0.07064844 0.08811978
v -0.18366086 -0.07544386 0.14270174
v -0.19033336 -0.07541196 0.14745403
v -0.19020929 -0.06975181 0.14745403
v -0.17048131 -0.05998299 0.12495549
v -0.16811009 -0.05887984 0.12495549
v -0.18870660 -0.06892739 0.14745403
v -0.16666254 -0.05878413 0.12258300
v -0.16515985 -0.05872033 0.12129820
v -0.09464367 -0.06187362 0.07287742
v -0.09443688 -0.06942104 0.07287742
v -0.11233131 -0.07065851 0.08571079
v -0.14803744 -0.07306126 0.11417342
v -0.18236497 -0.07544050 0.14263605
v -0.18457075 -0.07553621 0.14405954
v -0.18710740 -0.07564703 0.14631524
v -0.18924425 -0.07561681 0.14745403
v -0.18907882 -0.07557315 0.14708904
v -0.17048131 -0.05998299 0.14745403
v -0.16811009 -0.05887984 0.14745403
v -0.16733806 -0.05882611 0.14745403
v -0.16547693 -0.05869850 0.12258300
v -0.16335387 -0.05858600 0.12258300
v -0.16335387 -0.05867499 0.12121060
v -0.05022469 -0.05878245 0.07287742
v -0.05033498 -0.05878917 0.07287742
v -0.05165845 -0.05887984 0.07287742
v -0.06354211 -0.05969754 0.07287742
v -0.09227245 -0.06167549 0.07287742
v -0.09206566 -0.06929343 0.07287742
v -0.09680810 -0.06961413 0.07505281
v -0.11208316 -0.07065851 0.08571079
v -0.14734814 -0.07306126 0.11417342
v -0.18102771 -0.07541028 0.14266525
v -0.18473618 -0.07567390 0.14634444
v -0.18710740 -0.07573602 0.14745403
v -0.16547693 -0.05869850 0.14745403
v -0.16335387 -0.05858432 0.14745403
v -0.05022469 -0.06641550 0.07287742
v -0.05022469 -0.05878245 0.08695908
v -0.09184508 -0.06927832 0.07287742
v -0.09680810 -0.06962085 0.07742531
v -0.11198665 -0.07066523 0.08693718
v -0.09919310 -0.06978372 0.07742531
v -0.14705863 -0.07307973 0.11545091
v -0.14908519 -0.07322077 0.11782341
v -0.18095878 -0.07541532 0.14397194
v -0.18473618 -0.07567390 0.14745403
v -0.16201661 -0.05864981 0.14745403
v -0.05165845 -0.05888487 0.08930968
v -0.08947387 -0.06911545 0.07287742
v -0.05022469 -0.06641550 0.08693718
v -0.14705863 -0.07308141 0.11782341
v -0.12294665 -0.07142081 0.09644176
v -0.05022469 -0.05905614 0.08922938
v -0.18095878 -0.07541532 0.14745403
v -0.13622271 -0.06537280 0.14745403
v -0.11450952 -0.06346706 0.13334317
v -0.07862416 -0.06102401 0.10970583
v -0.05402966 -0.05918375 0.09168947
v -0.05022469 -0.06632987 0.08940458
v -0.05165845 -0.06651289 0.08930968
v -0.05640088 -0.06684031 0.09168947
v -0.12770287 -0.07174823 0.13921965
v -0.14515614 -0.07295044 0.14745403
v -0.05022469 -0.05943561 0.09014918
v -0.13549205 -0.06556925 0.14745403
v -0.10997387 -0.06370380 0.13082468
v -0.07404716 -0.06103744 0.10725303
v -0.05022469 -0.06611999 0.09108357
v -0.05402966 -0.06665225 0.09168947
v -0.07843116 -0.06833132 0.10832613
v -0.11219344 -0.07065851 0.13093417
v -0.08016821 -0.06847404 0.10832613
v -0.13483031 -0.07223012 0.14397194
v -0.13958653 -0.07256594 0.14634444
v -0.14432897 -0.07289335 0.14745403
v -0.11206937 -0.07066523 0.12970778
v -0.05163087 -0.05991750 0.09179167
v -0.05022469 -0.06022309 0.09129527
v -0.13480274 -0.06708209 0.14745403
v -0.13130105 -0.06637856 0.14513264
v -0.10263964 -0.06343012 0.12621839
v -0.06676807 -0.06090983 0.10260295
v -0.05022469 -0.06475322 0.09191577
v -0.05244426 -0.06609648 0.09314217
v -0.08129868 -0.06830110 0.11192502
v -0.07884474 -0.06831117 0.10960363
v -0.11449573 -0.07069881 0.13336507
v -0.13720153 -0.07227378 0.14634444
v -0.14195775 -0.07271201 0.14745403
v -0.05240290 -0.06060088 0.09316407
v -0.05022469 -0.06151598 0.09187197
v -0.13473381 -0.06803748 0.14745403
v -0.13427886 -0.06708209 0.14711824
v -0.06238408 -0.06162511 0.09998225
v -0.05520149 -0.06111132 0.09526646
v -0.05022469 -0.06366183 0.09201067
v -0.05216854 -0.06470621 0.09331737
v -0.05514634 -0.06594872 0.09530296
v -0.12406332 -0.07069881 0.14045335
v -0.12136124 -0.07084489 0.13829256
v -0.13480274 -0.07150980 0.14644664
v -0.13731182 -0.07179356 0.14745403
v -0.13958653 -0.07234598 0.14745403
v -0.05022469 -0.06232865 0.09209097
v -0.13463730 -0.06945798 0.14745403
v -0.13419615 -0.06945798 0.14716934
v -0.13244531 -0.06945798 0.14603054
v -0.12825432 -0.06708209 0.14319085
v -0.05815172 -0.06232865 0.09726666
v -0.05510499 -0.06470621 0.09532486
v -0.06227379 -0.06596551 0.10005525
v -0.13119077 -0.07071728 0.14520564
v -0.12840596 -0.07095907 0.14310325
v -0.13535418 -0.07116391 0.14745403
v -0.05926840 -0.06470621 0.09809156
v -0.06227379 -0.06470621 0.10005525
v -0.13478895 -0.07013129 0.14745403
v -0.12818538 -0.06945798 0.14324194
v -0.06945637 -0.06556589 0.10477834
v -0.12104416 -0.06708209 0.13848966
v -0.06945637 -0.06592689 0.10477834
f 1 2 3
f 1 3 11
f 1 11 23
f 1 23 34
f 1 34 53
f 1 53 52
f 1 52 51
f 1 51 50
f 1 50 49
f 1 49 63
f 1 63 75
f 1 75 65
f 1 65 54
f 1 54 35
f 1 35 24
f 1 24 12
f 1 12 4
f 1 4 5
f 1 5 6
f 1 6 7
f 1 7 8
f 1 8 2
f 2 9 3
f 2 8 10
f 2 10 9
f 3 9 11
f 4 12 13
f 4 13 14
f 4 14 5
f 5 14 15
f 5 15 16
f 5 16 17
f 5 17 6
f 6 17 7
f 7 17 8
f 8 17 18
f 8 18 19
f 8 19 20
f 8 20 21
f 8 21 10
f 9 10 11
f 10 21 22
f 10 22 23
f 10 23 11
f 12 24 25
f 12 25 13
f 13 25 14
f 14 26 27
f 14 27 15
f 14 25 26
f 15 27 41
f 15 41 60
f 15 60 72
f 15 72 80
f 15 80 89
f 15 89 101
f 15 101 115
f 15 115 129
f 15 129 128
f 15 128 140
f 15 140 143
f 15 143 131
f 15 131 118
f 15 118 105
f 15 105 91
f 15 91 81
f 15 81 73
f 15 73 62
f 15 62 61
f 15 61 45
f 15 45 44
f 15 44 43
f 15 43 31
f 15 31 28
f 15 28 20
f 15 20 18
f 15 18 16
f 16 18 17
f 18 20 19
f 20 28 21
f 21 29 30
f 21 30 22
f 21 28 31
f 21 31 29
f 22 30 32
f 22 32 33
f 22 33 34
f 22 34 23
f 24 35 36
f 24 36 25
f 25 36 37
f 25 37 26
f 26 37 38
f 26 38 39
f 26 39 40
f 26 40 41
f 26 41 42
f 26 42 27
f 27 42 41
f 29 43 44
f 29 44 30
f 29 31 43
f 30 44 45
f 30 45 46
f 30 46 32
f 32 46 33
f 33 46 47
f 33 47 48
f 33 48 49
f 33 49 50
f 33 50 51
f 33 51 52
f 33 52 53
f 33 53 34
f 35 54 55
f 35 55 56
f 35 56 36
f 36 56 57
f 36 57 37
f 37 57 38
f 38 58 59
f 38 59 39
f 38 57 58
f 39 59 60
f 39 60 40
f 40 60 41
f 45 61 46
f 46 61 62
f 46 62 47
f 47 62 49
f 47 49 48
f 49 62 64
f 49 64 79
f 49 79 90
f 49 90 104
f 49 104 117
f 49 117 130
f 49 130 122
f 49 122 109
f 49 109 94
f 49 94 85
f 49 85 76
f 49 76 63
f 54 65 66
f 54 66 67
f 54 67 68
f 54 68 55
f 55 68 67
f 55 67 56
f 56 67 69
f 56 69 59
f 56 59 58
f 56 58 57
f 59 70 71
f 59 71 80
f 59 80 72
f 59 72 60
f 59 69 70
f 62 73 74
f 62 74 64
f 63 66 75
f 63 76 80
f 63 80 71
f 63 71 77
f 63 77 78
f 63 78 66
f 64 74 79
f 65 75 66
f 66 78 67
f 67 78 70
f 67 70 69
f 70 78 77
f 70 77 71
f 73 81 82
f 73 82 83
f 73 83 84
f 73 84 79
f 73 79 74
f 76 85 86
f 76 86 87
f 76 87 88
f 76 88 89
f 76 89 80
f 79 84 90
f 81 91 82
f 82 92 93
f 82 93 83
f 82 91 92
f 83 93 84
f 84 93 90
f 85 94 95
f 85 95 86
f 86 95 96
f 86 96 97
f 86 97 98
f 86 98 88
f 86 88 87
f 88 99 100
f 88 100 101
f 88 101 89
f 88 98 102
f 88 102 97
f 88 97 99
f 90 103 104
f 90 93 103
f 91 105 106
f 91 106 107
f 91 107 92
f 92 107 93
f 93 108 103
f 93 107 108
f 94 109 110
f 94 110 111
f 94 111 112
f 94 112 95
f 95 112 96
f 96 112 97
f 97 102 98
f 97 112 113
f 97 113 99
f 99 114 100
f 99 113 114
f 100 114 115
f 100 115 101
f 103 116 104
f 103 108 116
f 104 116 117
f 105 118 119
f 105 119 106
f 106 119 120
f 106 120 107
f 107 120 121
f 107 121 108
f 108 121 116
f 109 122 123
f 109 123 124
f 109 124 110
f 110 124 111
f 111 113 112
f 111 124 125
f 111 125 126
f 111 126 113
f 113 126 114
f 114 126 127
f 114 127 128
f 114 128 129
f 114 129 115
f 116 121 130
f 116 130 117
f 118 131 132
f 118 132 119
f 119 132 133
f 119 133 134
f 119 134 135
f 119 135 120
f 120 135 121
f 121 135 130
f 122 130 123
f 123 130 124
f 124 130 136
f 124 136 137
f 124 137 138
f 124 138 125
f 125 138 139
f 125 139 126
f 126 139 127
f 127 140 128
f 127 139 140
f 130 141 136
f 130 135 142
f 130 142 141
f 131 143 138
f 131 138 132
f 132 138 133
f 133 138 144
f 133 144 145
f 133 145 135
f 133 135 146
f 133 146 134
f 134 146 135
f 135 145 142
f 136 141 137
f 137 141 147
f 137 147 138
f 138 143 140
f 138 140 139
f 138 147 144
f 141 142 145
f 141 145 147
f 144 147 145

