# https://github.com/mikedh/trimesh
v -0.05022468 -0.06641385 0.07287742
v -0.03737966 -0.06552829 0.07287742
v -0.05022468 -0.06641385 0.08693332
v -0.05022468 -0.05877214 0.07287742
v -0.03262747 -0.06519993 0.07287742
v -0.03737966 -0.06552829 0.07742456
v -0.04451579 -0.06601585 0.08455613
v -0.04926797 -0.06634420 0.08693332
v -0.05022468 -0.06632430 0.08939992
v -0.03262747 -0.06519993 0.07504737
v -0.05022468 -0.05877214 0.08696177
v -0.05003648 0.01134654 0.07287742
v -0.02787529 -0.06486163 0.07287742
v -0.04323756 -0.06590640 0.08579146
v -0.03025138 -0.06503078 0.07504737
v -0.04689188 -0.06616510 0.08693332
v -0.04555876 -0.06594620 0.08821335
v -0.05022468 -0.06611535 0.09108224
v -0.05022468 -0.05905074 0.08922925
v -0.05003648 0.01134654 0.07742456
v -0.04995806 0.01151569 0.07287742
v -0.02312310 -0.06448352 0.07287742
v -0.02280942 -0.06445368 0.07287742
v -0.02074701 -0.06423477 0.07287742
v -0.04975417 -0.06606560 0.09088718
v -0.02048823 -0.06419497 0.07287742
v -0.01840228 -0.06386662 0.07287742
v -0.01910021 -0.06366761 0.07400709
v -0.05022468 -0.06475218 0.09191527
v 0.00200232 -0.03502114 0.09529210
v -0.05022468 -0.05942885 0.09014355
v -0.04983259 0.01134654 0.07980175
v -0.04897782 0.01328682 0.07980175
v -0.04907193 0.01328682 0.07742456
v -0.05022468 -0.06021491 0.09129354
v -0.05022468 -0.06150843 0.09187463
v -0.05022468 -0.06232434 0.09209407
v -0.04907193 0.01328682 0.07287742
v -0.04817011 -0.06569744 0.09037517
v -0.01564193 -0.06232434 0.07287742
v 0.00358638 -0.03453358 0.09463786
v -0.05022468 -0.06365766 0.09200467
v -0.00245187 -0.00418564 0.11432995
v -0.00307138 -0.00418564 0.11432995
v -0.00320469 -0.00291202 0.11439091
v 0.00432352 -0.03295151 0.09534899
v 0.00455879 -0.01612581 0.10487401
v -0.04896214 0.01134654 0.08217894
v -0.04817795 0.01268981 0.08349554
v -0.04856220 0.01302812 0.08217894
v -0.00551805 0.03417218 0.09337003
v -0.00323606 0.00184415 0.11437465
v -0.00321253 0.00321727 0.11436652
v -0.03420370 0.01134654 0.09788060
v -0.03410175 0.01317737 0.09781152
v -0.03539566 0.01134654 0.09697848
v -0.03670526 0.01134654 0.09579192
v -0.04587243 0.01277936 0.08592962
v -0.00550237 0.03416223 0.09168771
v -0.00411435 0.03478909 0.09168771
v -0.04708008 0.01404303 0.07287742
v 0.00429216 -0.03503109 0.09168771
v 0.00427647 -0.03502114 0.09305713
v 0.00688782 -0.01624521 0.07287742
v 0.02440661 0.00184415 0.07527899
v 0.02586520 0.00039143 0.07600637
v 0.02837461 0.00031183 0.08019998
v 0.02882159 0.00013273 0.08217894
v 0.02894707 0.00013273 0.08455613
v 0.00467641 -0.03376742 0.09393080
v -0.00095407 -0.00291202 0.11412677
v -0.00213819 -0.00291202 0.11439091
v 0.02820993 0.00040138 0.08856688
v 0.01136554 -0.01600641 0.10005055
v 0.00908355 -0.01605616 0.10246431
v -0.03358419 0.01476939 0.09721417
v -0.00347131 0.03425178 0.09552779
v -0.00420845 0.03452043 0.09412179
v -0.00248324 0.00184415 0.11437465
v -0.00252245 0.00321727 0.11436652
v -0.00173826 0.03430153 0.09555623
v -0.02074701 0.01519725 0.10265530
v -0.02206444 0.01496839 0.10242774
v -0.02886337 0.01438134 0.09978641
v -0.03272942 0.01387388 0.09817318
v -0.03656411 0.01322712 0.09563750
v -0.03889315 0.01308782 0.09321561
v -0.00173826 0.03523684 0.09168771
v -0.00411435 0.03429158 0.09004196
v -0.00536121 0.03399307 0.09042800
v -0.04689188 0.01411268 0.07287742
v 0.02858634 0.00020238 0.08693332
v 0.00717013 -0.01499150 0.07287742
v 0.01668235 0.00043123 0.07375921
v 0.01668235 0.00127699 0.07375921
v 0.00427647 0.01734648 0.07287742
v 0.02581031 0.00321727 0.07605107
v 0.02595931 0.00184415 0.07592104
v 0.02708854 0.00184415 0.07742456
v 0.02791194 0.00184415 0.07867614
v 0.02856282 0.00184415 0.07986677
v 0.02962147 0.00184415 0.08217894
v 0.02988026 0.00184415 0.08455613
v 0.00431568 -0.00417569 0.10958776
v 0.00449605 -0.00291202 0.10972592
v 0.00448036 -0.00101154 0.10972186
v 0.00438626 0.00336652 0.10966497
v -0.00129127 0.00184415 0.11398048
v 0.02915880 0.00184415 0.08693332
v 0.02830403 0.00184415 0.08873349
v 0.02733164 0.00184415 0.08992005
v -0.02727931 0.01507785 0.10020090
v -0.00173826 0.03496819 0.09406084
v 0.00665257 0.01732658 0.10242368
v -0.00038161 0.03410252 0.09538150
v 0.00003401 0.03441098 0.09406084
v 0.00026142 0.03460003 0.09168771
v -0.00008362 0.03435128 0.09005009
v -0.00173826 0.03456023 0.08975751
v -0.04451579 0.01428183 0.07287742
v 0.00717798 -0.01479249 0.07287742
v 0.00715445 -0.00069314 0.07287742
v 0.01252615 0.00184415 0.07337724
v 0.00528808 0.01372463 0.07287742
v 0.00475483 0.01631166 0.07287742
v 0.00319429 0.01742608 0.07287742
v 0.02835893 0.00338642 0.08028532
v 0.02877455 0.00359538 0.08217894
v 0.02890786 0.00363518 0.08455613
v 0.02854713 0.00349588 0.08693332
v 0.02817857 0.00325707 0.08848968
v 0.02593578 0.00321727 0.09065150
v 0.00903651 0.01735643 0.10012369
v 0.00063783 0.01738628 0.07287742
v -0.00205193 0.01720718 0.07287742
v -0.03759139 0.01475944 0.07287742
v -0.03975576 0.01461019 0.07287742
f 1 2 6
f 1 6 3
f 1 3 9
f 1 9 18
f 1 18 29
f 1 29 42
f 1 42 37
f 1 37 36
f 1 36 35
f 1 35 31
f 1 31 19
f 1 19 11
f 1 11 4
f 1 4 12
f 1 12 21
f 1 21 38
f 1 38 61
f 1 61 91
f 1 91 120
f 1 120 137
f 1 137 136
f 1 136 135
f 1 135 134
f 1 134 126
f 1 126 96
f 1 96 125
f 1 125 124
f 1 124 122
f 1 122 121
f 1 121 93
f 1 93 64
f 1 64 40
f 1 40 27
f 1 27 26
f 1 26 24
f 1 24 23
f 1 23 22
f 1 22 13
f 1 13 5
f 1 5 2
f 2 5 10
f 2 10 6
f 3 7 8
f 3 8 9
f 3 6 10
f 3 10 7
f 4 11 20
f 4 20 12
f 5 13 15
f 5 15 10
f 7 14 8
f 7 10 15
f 7 15 14
f 8 14 16
f 8 16 9
f 9 16 14
f 9 14 17
f 9 17 18
f 11 19 20
f 12 20 21
f 13 22 15
f 14 15 22
f 14 22 23
f 14 23 24
f 14 24 17
f 17 25 18
f 17 24 26
f 17 26 27
f 17 27 28
f 17 28 25
f 18 25 30
f 18 30 29
f 19 31 20
f 20 32 33
f 20 33 34
f 20 34 21
f 20 31 35
f 20 35 36
f 20 36 37
f 20 37 32
f 21 34 38
f 25 28 39
f 25 39 30
f 27 40 28
f 28 40 41
f 28 41 30
f 28 30 39
f 29 30 43
f 29 43 44
f 29 44 45
f 29 45 42
f 30 41 46
f 30 46 47
f 30 47 43
f 32 48 49
f 32 49 50
f 32 50 33
f 32 37 48
f 33 50 51
f 33 51 34
f 34 51 38
f 37 42 45
f 37 45 52
f 37 52 53
f 37 53 54
f 37 54 55
f 37 55 56
f 37 56 57
f 37 57 58
f 37 58 49
f 37 49 48
f 38 51 59
f 38 59 60
f 38 60 61
f 40 62 63
f 40 63 41
f 40 64 65
f 40 65 66
f 40 66 67
f 40 67 68
f 40 68 69
f 40 69 62
f 41 63 70
f 41 70 46
f 43 71 72
f 43 72 45
f 43 45 44
f 43 47 71
f 45 72 79
f 45 79 52
f 46 70 73
f 46 73 74
f 46 74 75
f 46 75 47
f 47 75 71
f 49 58 76
f 49 76 51
f 49 51 50
f 51 76 77
f 51 77 78
f 51 78 60
f 51 60 59
f 52 79 80
f 52 80 53
f 53 80 81
f 53 81 77
f 53 77 82
f 53 82 83
f 53 83 84
f 53 84 55
f 53 55 54
f 55 84 85
f 55 85 76
f 55 76 86
f 55 86 56
f 56 86 57
f 57 86 87
f 57 87 58
f 58 87 86
f 58 86 76
f 60 78 88
f 60 88 89
f 60 89 90
f 60 90 91
f 60 91 61
f 62 69 63
f 63 69 92
f 63 92 73
f 63 73 70
f 64 93 94
f 64 94 65
f 65 94 95
f 65 95 96
f 65 96 97
f 65 97 98
f 65 98 66
f 66 98 99
f 66 99 100
f 66 100 67
f 67 100 101
f 67 101 102
f 67 102 68
f 68 102 103
f 68 103 69
f 69 103 92
f 71 104 105
f 71 105 106
f 71 106 107
f 71 107 108
f 71 108 80
f 71 80 72
f 71 75 104
f 72 80 79
f 73 92 103
f 73 103 109
f 73 109 110
f 73 110 111
f 73 111 75
f 73 75 74
f 75 111 105
f 75 105 104
f 76 112 77
f 76 85 112
f 77 81 113
f 77 113 78
f 77 112 83
f 77 83 82
f 78 113 88
f 80 108 107
f 80 107 114
f 80 114 115
f 80 115 81
f 81 115 113
f 83 112 84
f 84 112 85
f 88 113 116
f 88 116 117
f 88 117 118
f 88 118 119
f 88 119 89
f 89 119 91
f 89 91 90
f 91 119 120
f 93 121 94
f 94 121 95
f 95 121 122
f 95 122 123
f 95 123 124
f 95 124 125
f 95 125 96
f 96 126 119
f 96 119 118
f 96 118 97
f 97 127 100
f 97 100 99
f 97 99 98
f 97 118 127
f 100 127 101
f 101 127 102
f 102 127 128
f 102 128 103
f 103 128 129
f 103 129 130
f 103 130 131
f 103 131 109
f 105 111 106
f 106 111 107
f 107 111 132
f 107 132 114
f 109 131 110
f 110 131 111
f 111 131 132
f 113 115 116
f 114 133 115
f 114 132 131
f 114 131 133
f 115 133 131
f 115 131 116
f 116 131 130
f 116 130 129
f 116 129 117
f 117 129 128
f 117 128 127
f 117 127 118
f 119 126 134
f 119 134 135
f 119 135 136
f 119 136 137
f 119 137 120
f 122 124 123

