# https://github.com/mikedh/trimesh
v -0.03573729 -0.03535011 0.01337271
v -0.03573729 -0.03534102 0.00611905
v -0.02564044 -0.06232402 0.01337271
v -0.03573729 -0.02871107 0.01337271
v -0.03573729 -0.03516846 0.00468551
v -0.02549573 -0.06258741 0.01337271
v -0.03573729 -0.02871107 0.00849610
v -0.02927136 0.01372971 0.01337271
v -0.03573729 -0.03380614 0.00406564
v -0.02255547 -0.06380441 0.01172523
v -0.02403547 -0.06401330 0.01337271
v -0.03573729 -0.02876556 0.00611905
v -0.03152752 -0.00121039 0.00136677
v -0.02904771 0.01449261 0.01337271
v -0.03150122 -0.00138295 0.00007403
v -0.02074659 -0.06232402 0.01087132
v -0.03573729 -0.03142663 0.00369446
v -0.01271516 -0.00922991 -0.00480258
v -0.01122201 -0.01002913 -0.00499091
v -0.01041952 -0.01158218 -0.00479710
v -0.00868299 -0.01239049 -0.00488303
v -0.00776869 -0.01365290 -0.00462156
v -0.02074659 -0.06393156 0.01153507
v -0.02325929 -0.06410412 0.01309112
v -0.02324614 -0.06414953 0.01337271
v -0.03573729 -0.02952846 0.00431066
v -0.02816630 0.01519193 0.01337271
v -0.02692310 0.01510112 0.00908853
v -0.02919900 0.00317628 0.00000271
v -0.02967918 0.00184121 -0.00032458
v -0.03042246 -0.00056556 -0.00047818
v -0.03150122 -0.00201870 0.00007403
v -0.01836545 -0.06232402 0.01105051
v -0.01836545 -0.06384074 0.01163381
v 0.00063768 -0.02666759 -0.00087862
v 0.00301882 -0.02666759 -0.00078902
v -0.01309666 -0.00766778 -0.00492875
v -0.03040931 -0.00285425 -0.00047818
v -0.02787688 -0.00290875 -0.00130649
v -0.01503710 -0.00468884 -0.00478613
v -0.01123516 -0.00766778 -0.00529445
v -0.00886060 -0.01004730 -0.00529079
v -0.00634790 -0.01263570 -0.00489583
v -0.00704514 -0.01365290 -0.00462156
v -0.02074659 -0.06435842 0.01324837
v -0.02074659 -0.06436750 0.01337271
v -0.02794265 0.01523735 0.01337271
v -0.00173689 0.02757088 0.00561804
v -0.00410488 0.02727117 0.00540959
v -0.00547306 0.02693513 0.00510972
v -0.00410488 0.02777068 0.00374383
v -0.00410488 0.02777977 0.00136677
v -0.00555857 0.02700778 0.00136677
v -0.00547306 0.02693513 -0.00001374
v -0.02461431 0.01515561 0.00463431
v -0.02683759 0.00556488 -0.00000277
v -0.02773217 0.00406633 -0.00033190
v -0.02787688 0.00184121 -0.00106696
v -0.02787688 -0.00053831 -0.00130649
v -0.01836545 -0.06419494 0.01324837
v -0.01674732 -0.06368634 0.01185689
v 0.00776796 -0.01177290 -0.00494155
v 0.00539339 -0.02429716 -0.00111998
v 0.00516317 -0.02656769 -0.00027156
v 0.01014910 -0.01150952 -0.00477150
v 0.01135941 -0.01125522 -0.00459414
v -0.01361631 -0.00290875 -0.00527799
v -0.01524759 -0.00053831 -0.00493789
v -0.01519497 -0.00290875 -0.00491229
v -0.00648602 -0.01004730 -0.00530725
v -0.01361631 -0.00053831 -0.00530359
v -0.01123516 -0.00528826 -0.00530725
v 0.00776796 -0.01004730 -0.00530725
v -0.01836545 -0.06419494 0.01337271
v -0.02562070 0.01558247 0.01337271
v 0.00063768 0.01738981 0.01337271
v 0.01489825 0.01837068 0.01337271
v 0.01727939 0.01853416 0.01337271
v 0.00063768 0.02738015 0.00550285
v -0.00173689 0.02838826 0.00374383
v -0.02549573 0.01559155 0.01337271
v -0.02074659 0.01591850 0.01337271
v -0.00173689 0.02841551 0.00136677
v -0.00410488 0.02728933 -0.00033738
v -0.00635447 0.02550015 -0.00037396
v -0.00788051 0.02462827 -0.00005580
v -0.01024850 0.02224875 -0.00005031
v -0.01973362 0.01271251 -0.00002471
v -0.02210161 0.01033300 -0.00001740
v -0.01289276 0.00846208 -0.00481903
v -0.00874877 0.02312063 -0.00039589
v -0.01586590 0.01597300 -0.00037396
v -0.00986699 0.01250363 -0.00452465
v -0.01072210 0.01091425 -0.00481903
v -0.01365577 0.00646401 -0.00490498
v -0.01504368 0.00422072 -0.00478978
v -0.01523444 0.00184121 -0.00492692
v -0.01824704 -0.06418586 0.01337271
v -0.01557648 -0.06380441 0.01337271
v -0.01353080 -0.06239668 0.01337271
v -0.01428066 -0.06311417 0.01337271
v 0.00680103 -0.02570489 -0.00006677
v 0.01014910 -0.01004730 -0.00513720
v 0.00766272 -0.02418817 -0.00040869
v 0.02190355 -0.00991107 -0.00036298
v 0.01478642 -0.01704962 -0.00038676
v 0.01177381 -0.01004730 -0.00477150
v 0.01398394 -0.00702295 -0.00480258
v 0.02915881 -0.00053831 -0.00094810
v 0.02902067 -0.00271802 -0.00027705
v 0.02664611 -0.00515203 -0.00034653
v -0.01361631 0.00184121 -0.00529262
v -0.01123516 0.00659116 -0.00530725
v 0.01014910 -0.00766778 -0.00530725
v 0.01952898 0.01822537 0.01337271
v 0.00220318 0.02704411 0.00523406
v 0.00063768 0.02798865 0.00374383
v 0.01965396 0.01820720 0.01337271
v 0.00063768 0.02799773 0.00136677
v 0.00063768 0.02739832 -0.00043429
v -0.00173689 0.02759812 -0.00056412
v -0.00410488 0.02560914 -0.00107976
v -0.01140618 0.00914324 -0.00501469
v -0.00898557 0.01156817 -0.00489766
v -0.00886060 0.00897068 -0.00530725
v -0.01361631 0.00422072 -0.00515548
v 0.02324541 -0.01369831 0.00489212
v 0.02325856 -0.01374372 0.00611905
v 0.02325856 -0.01374372 0.01337271
v 0.00917560 -0.02332537 -0.00006128
v 0.01865414 -0.01379822 -0.00003568
v 0.02813268 -0.00426198 -0.00000825
v 0.03040201 -0.00179164 0.00010328
v 0.01252367 -0.00528826 -0.00529445
v 0.01262234 -0.00775860 -0.00500371
v 0.01423389 -0.00528826 -0.00492875
v 0.02915881 0.00184121 -0.00120958
v 0.03090191 0.00184121 -0.00046721
v 0.03066512 -0.00053831 -0.00020573
v 0.01252367 -0.00290875 -0.00530725
v 0.00238736 0.02717126 0.00374383
v 0.02093662 0.01758054 0.01337271
v 0.00238736 0.02717126 0.00136677
v 0.00220318 0.02704411 -0.00014539
v 0.00300567 0.02565455 -0.00057692
v 0.00924795 0.01277609 -0.00476418
v 0.00063768 0.02560914 -0.00117667
v -0.00173689 0.02560914 -0.00130649
v -0.00648602 0.01135019 -0.00505309
v 0.00776796 0.00897068 -0.00530725
v -0.00410488 0.01135019 -0.00512622
v -0.00173689 0.01135019 -0.00518839
v 0.00063768 0.01135019 -0.00523777
v 0.00301882 0.01135019 -0.00527617
v 0.00539339 0.01135019 -0.00529810
v 0.03042173 -0.00182797 0.00136677
v 0.02325856 -0.01307165 0.01337271
v 0.03042173 -0.00182797 0.00374383
v 0.03040201 -0.00179164 0.00500000
v 0.03066512 -0.00053831 0.00529257
v 0.03090191 0.00184121 0.00554124
v 0.03098084 -0.00053831 0.00136677
v 0.01477327 -0.00053831 -0.00494155
v 0.01461540 -0.00290875 -0.00494155
v 0.01460882 0.00184121 -0.00494155
v 0.01439176 0.00422072 -0.00494155
v 0.01402998 0.00659116 -0.00480807
v 0.02915881 0.00422072 -0.00089142
v 0.03145444 0.00184121 0.00136677
v 0.03063222 0.00422072 -0.00014905
v 0.01252367 0.00422072 -0.00530725
v 0.02100240 0.01754421 0.01337271
v 0.02100240 0.01754421 0.00611905
v 0.02094977 0.01746246 0.00477693
v 0.00903089 0.02209435 0.00010146
v 0.01164883 0.01990556 -0.00010882
v 0.00482113 0.02489165 -0.00026241
v 0.01165541 0.01046923 -0.00478064
v 0.01008333 0.01129570 -0.00495800
v 0.00776796 0.01135019 -0.00526519
v 0.00776796 0.01293957 -0.00489949
v 0.01427336 0.01771677 -0.00024048
v 0.02372559 0.01054189 -0.00021488
v 0.02634353 0.00835309 -0.00030081
v 0.02699473 0.00680913 -0.00070308
v 0.00539339 0.01296682 -0.00493241
v 0.00301882 0.01291232 -0.00491046
v 0.00063768 0.01284875 -0.00487206
v -0.00173689 0.01278518 -0.00482270
v 0.01014910 0.00897068 -0.00527617
v 0.02125893 0.01598208 0.01337271
v 0.03098084 -0.00053831 0.00374383
v 0.03145444 0.00184121 0.00374383
v 0.03063222 0.00422072 0.00524137
v 0.02101555 0.01747155 0.01337271
v 0.02124577 0.01610015 0.01337271
v 0.01252367 0.00659116 -0.00517377
v 0.01247763 0.00881628 -0.00488486
v 0.03035596 0.00541957 0.00016546
v 0.02915881 0.00598266 -0.00020208
v 0.03090849 0.00422072 0.00136677
v 0.03035596 0.00541957 0.00494332
v 0.03036254 0.00541957 0.00374383
v 0.03036254 0.00541957 0.00136677
v 0.02110106 0.01273068 -0.00006677
v 0.03090849 0.00422072 0.00374383
f 1 2 3
f 1 3 6
f 1 6 11
f 1 11 25
f 1 25 46
f 1 46 74
f 1 74 98
f 1 98 99
f 1 99 101
f 1 101 100
f 1 100 129
f 1 129 157
f 1 157 191
f 1 191 196
f 1 196 195
f 1 195 172
f 1 172 142
f 1 142 118
f 1 118 115
f 1 115 78
f 1 78 77
f 1 77 76
f 1 76 82
f 1 82 81
f 1 81 75
f 1 75 47
f 1 47 27
f 1 27 14
f 1 14 8
f 1 8 4
f 1 4 7
f 1 7 12
f 1 12 26
f 1 26 17
f 1 17 9
f 1 9 5
f 1 5 2
f 2 5 3
f 3 5 6
f 4 8 7
f 5 9 10
f 5 10 6
f 6 10 11
f 7 8 13
f 7 13 12
f 8 14 15
f 8 15 13
f 9 16 10
f 9 17 18
f 9 18 19
f 9 19 20
f 9 20 21
f 9 21 22
f 9 22 16
f 10 16 23
f 10 23 24
f 10 24 11
f 11 24 25
f 12 13 15
f 12 15 26
f 14 27 28
f 14 28 29
f 14 29 15
f 15 29 30
f 15 30 31
f 15 31 32
f 15 32 17
f 15 17 26
f 16 33 34
f 16 34 23
f 16 22 35
f 16 35 36
f 16 36 33
f 17 37 18
f 17 32 38
f 17 38 39
f 17 39 40
f 17 40 37
f 18 37 41
f 18 41 19
f 19 41 42
f 19 42 21
f 19 21 20
f 21 43 22
f 21 42 43
f 22 43 44
f 22 44 35
f 23 34 45
f 23 45 24
f 24 45 25
f 25 45 46
f 27 47 48
f 27 48 49
f 27 49 50
f 27 50 51
f 27 51 52
f 27 52 53
f 27 53 54
f 27 54 28
f 28 54 55
f 28 55 29
f 29 56 57
f 29 57 30
f 29 55 56
f 30 58 31
f 30 57 58
f 31 59 39
f 31 39 38
f 31 38 32
f 31 58 59
f 33 36 34
f 34 60 45
f 34 36 61
f 34 61 60
f 35 44 62
f 35 62 36
f 36 63 64
f 36 64 61
f 36 62 65
f 36 65 66
f 36 66 63
f 37 40 67
f 37 67 41
f 39 59 68
f 39 68 69
f 39 69 40
f 40 69 67
f 41 70 42
f 41 67 71
f 41 71 72
f 41 72 70
f 42 70 43
f 43 62 44
f 43 70 73
f 43 73 62
f 45 60 46
f 46 60 74
f 47 75 48
f 48 76 77
f 48 77 78
f 48 78 79
f 48 79 80
f 48 80 49
f 48 75 81
f 48 81 82
f 48 82 76
f 49 80 51
f 49 51 50
f 51 80 83
f 51 83 52
f 52 83 84
f 52 84 54
f 52 54 53
f 54 84 85
f 54 85 86
f 54 86 55
f 55 86 87
f 55 87 88
f 55 88 89
f 55 89 56
f 56 89 57
f 57 90 58
f 57 89 88
f 57 88 87
f 57 87 91
f 57 91 92
f 57 92 93
f 57 93 94
f 57 94 90
f 58 90 95
f 58 95 96
f 58 96 59
f 59 96 97
f 59 97 68
f 60 98 74
f 60 61 99
f 60 99 98
f 61 100 101
f 61 101 99
f 61 64 102
f 61 102 100
f 62 73 103
f 62 103 65
f 63 66 64
f 64 66 104
f 64 104 102
f 65 103 66
f 66 105 106
f 66 106 104
f 66 103 107
f 66 107 108
f 66 108 109
f 66 109 110
f 66 110 111
f 66 111 105
f 67 69 68
f 67 68 71
f 68 97 112
f 68 112 71
f 70 72 113
f 70 113 125
f 70 125 150
f 70 150 171
f 70 171 140
f 70 140 114
f 70 114 73
f 71 112 113
f 71 113 72
f 73 114 103
f 78 115 79
f 79 116 117
f 79 117 80
f 79 115 118
f 79 118 116
f 80 117 83
f 83 117 119
f 83 119 120
f 83 120 121
f 83 121 84
f 84 121 122
f 84 122 85
f 85 91 86
f 85 122 93
f 85 93 91
f 86 91 87
f 90 94 123
f 90 123 95
f 91 93 92
f 93 122 124
f 93 124 94
f 94 124 125
f 94 125 123
f 95 126 96
f 95 123 126
f 96 126 97
f 97 126 112
f 100 127 128
f 100 128 129
f 100 102 130
f 100 130 131
f 100 131 132
f 100 132 133
f 100 133 127
f 102 104 130
f 103 114 134
f 103 134 135
f 103 135 107
f 104 106 130
f 105 130 106
f 105 111 130
f 107 135 108
f 108 135 134
f 108 134 136
f 108 136 109
f 109 136 137
f 109 137 138
f 109 138 139
f 109 139 110
f 110 139 133
f 110 133 132
f 110 132 111
f 111 132 131
f 111 131 130
f 112 126 113
f 113 126 123
f 113 123 125
f 114 140 134
f 116 118 117
f 117 118 141
f 117 141 119
f 118 142 141
f 119 143 144
f 119 144 120
f 119 141 143
f 120 144 145
f 120 145 146
f 120 146 147
f 120 147 121
f 121 147 148
f 121 148 122
f 122 148 124
f 124 148 149
f 124 149 125
f 125 149 151
f 125 151 152
f 125 152 153
f 125 153 154
f 125 154 155
f 125 155 150
f 127 133 128
f 128 133 156
f 128 156 158
f 128 158 129
f 129 158 159
f 129 159 160
f 129 160 161
f 129 161 157
f 133 139 162
f 133 162 156
f 134 140 163
f 134 163 164
f 134 164 136
f 136 164 137
f 137 164 163
f 137 163 165
f 137 165 166
f 137 166 167
f 137 167 168
f 137 168 138
f 138 169 139
f 138 168 170
f 138 170 169
f 139 169 162
f 140 171 163
f 141 142 143
f 142 172 173
f 142 173 143
f 143 173 174
f 143 174 144
f 144 175 176
f 144 176 177
f 144 177 145
f 144 174 175
f 145 177 146
f 146 178 179
f 146 179 180
f 146 180 181
f 146 181 147
f 146 177 182
f 146 182 183
f 146 183 184
f 146 184 185
f 146 185 178
f 147 181 148
f 148 181 186
f 148 186 187
f 148 187 188
f 148 188 189
f 148 189 149
f 149 189 151
f 150 155 190
f 150 190 171
f 151 189 188
f 151 188 152
f 152 188 187
f 152 187 153
f 153 187 154
f 154 187 186
f 154 186 155
f 155 186 180
f 155 180 190
f 156 162 192
f 156 192 158
f 157 161 191
f 158 192 159
f 159 192 160
f 160 192 193
f 160 193 161
f 161 193 194
f 161 194 172
f 161 172 195
f 161 195 196
f 161 196 191
f 162 169 193
f 162 193 192
f 163 171 165
f 165 171 166
f 166 171 197
f 166 197 167
f 167 197 198
f 167 198 168
f 168 199 170
f 168 198 178
f 168 178 185
f 168 185 200
f 168 200 199
f 169 170 201
f 169 201 206
f 169 206 193
f 170 199 201
f 171 190 197
f 172 194 202
f 172 202 203
f 172 203 204
f 172 204 173
f 173 204 199
f 173 199 174
f 174 183 205
f 174 205 176
f 174 176 175
f 174 199 184
f 174 184 183
f 176 205 183
f 176 183 182
f 176 182 177
f 178 198 179
f 179 198 190
f 179 190 180
f 180 186 181
f 184 199 200
f 184 200 185
f 190 198 197
f 193 206 194
f 194 206 202
f 199 204 201
f 201 204 203
f 201 203 206
f 202 206 203

