# https://github.com/mikedh/trimesh
v 0.02325418 -0.01306724 0.02989144
v 0.02317333 -0.01187884 0.02989144
v 0.02324263 -0.01324491 0.03163884
v 0.02325418 -0.01373844 0.02989144
v 0.02325418 -0.01300802 0.01337271
v 0.02125004 0.01610593 0.02989144
v 0.02119806 0.01610593 0.03226790
v 0.02315599 -0.01243948 0.03236692
v 0.02324263 -0.01369106 0.03163884
v 0.02211638 -0.02179669 0.03702082
v 0.02325418 -0.01373844 0.01337271
v 0.02125004 0.01610593 0.01337271
v 0.02100746 0.01755097 0.02989144
v 0.02097858 0.01751148 0.03226790
v 0.02091506 0.01741278 0.03378231
v 0.02099591 0.01610593 0.03412014
v 0.02282678 -0.01241184 0.03464436
v 0.02169476 -0.02179669 0.03927496
v 0.02208750 -0.02179669 0.03691015
v 0.02209328 -0.01483208 0.01337271
v 0.02147529 -0.02179669 0.03487735
v 0.02100746 0.01755097 0.01337271
v 0.01965597 0.01821031 0.02989144
v 0.01965597 0.01817083 0.03226790
v 0.01980613 0.01789446 0.03460359
v 0.01921125 0.01790236 0.03702082
v 0.01874342 0.01759440 0.03939728
v 0.01848929 0.01732197 0.04063211
v 0.02068980 0.01610593 0.03530837
v 0.02079954 0.01372912 0.03565202
v 0.02205285 -0.01241184 0.03702082
v 0.02167166 -0.02179669 0.03939728
v 0.02202975 -0.01489131 0.01337271
v 0.02048766 -0.02179669 0.03368911
v 0.02035481 -0.01594547 0.01337271
v 0.01965597 0.01821031 0.01337271
v 0.01727641 0.01853802 0.03464436
v 0.01953468 0.01823006 0.01337271
v 0.01727641 0.01848274 0.03702082
v 0.01727641 0.01817478 0.03939728
v 0.01654290 0.01771284 0.04414438
v 0.01397275 0.01754702 0.05072042
v 0.01623679 0.01746805 0.04568791
v 0.02006604 0.01610593 0.03702082
v 0.01137949 0.01734171 0.05733141
v 0.00664925 0.01528865 0.06925448
v 0.00715751 -0.00069362 0.07287742
v 0.02026241 0.01372912 0.03702082
v 0.02103057 -0.02179669 0.04103401
v -0.00620152 -0.02179669 0.01337271
v 0.01490262 0.01837219 0.04177374
v 0.01727641 0.01853802 0.01337271
v -0.03455408 0.01496885 0.07287742
v -0.01144579 0.01655997 0.07287742
v -0.00066270 0.01730223 0.07287742
v 0.00301638 0.01755492 0.07029127
v 0.01252307 0.01815109 0.04889730
v 0.00440253 0.01740884 0.07221923
v 0.00677632 0.01743647 0.06726245
v 0.01490262 0.01821426 0.04414438
v 0.01430196 0.01773258 0.04889730
v 0.00909812 0.01741673 0.06231149
v 0.00475485 0.01631913 0.07287742
v 0.00528621 0.01372912 0.07287742
v 0.00718061 -0.01478865 0.07287742
v 0.01277719 -0.02179669 0.06078543
v 0.01282340 -0.02179669 0.06068058
v 0.01352225 -0.02179669 0.05900891
v 0.02056274 -0.02179669 0.04215817
v -0.02482214 -0.02179669 0.01337271
v 0.01014929 0.01804054 0.05365022
v -0.01373872 0.01640204 0.01337271
v -0.03455408 0.01496885 0.03464436
v -0.03563990 0.01489383 0.07287742
v 0.00064260 0.01738909 0.07287742
v 0.00319543 0.01743252 0.07287742
v 0.00539594 0.01770100 0.06553835
v 0.00428124 0.01734566 0.07287742
v 0.00716906 -0.01498212 0.07287742
v 0.01185887 -0.02179669 0.06273669
v -0.02557298 -0.02068725 0.01337271
v -0.02531308 -0.02179669 0.01372802
v -0.02324540 0.01574665 0.01337271
v -0.03025124 0.01526496 0.02276206
v -0.03454831 0.01496885 0.03226790
v -0.03574386 0.01488594 0.03702082
v -0.03574386 0.01488594 0.07287742
v 0.00688605 -0.01625343 0.07287742
v 0.01180689 -0.02179669 0.06283571
v -0.02639889 -0.01934092 0.01337271
v -0.02647975 -0.02179669 0.01470073
v -0.02561918 0.01558082 0.01337271
v -0.02787745 0.01541500 0.01562686
v -0.03263079 0.01509914 0.02751498
v -0.03432306 0.01496885 0.02989144
v -0.03574386 0.01486225 0.03226790
v -0.03574386 0.01488199 0.03464436
v -0.03574386 -0.02179669 0.07287742
v 0.00540172 -0.01679039 0.07287742
v 0.00972767 -0.02179669 0.06467047
v 0.01091745 -0.02179669 0.06402394
v -0.02710929 -0.01809329 0.01337271
v -0.02702266 -0.01898953 0.01371636
v -0.02653174 -0.02179669 0.01475898
v -0.02794099 0.01523733 0.01337271
v -0.02803340 0.01522154 0.01337271
v -0.02947153 0.01511888 0.01562686
v -0.03382057 0.01491752 0.02393864
v -0.03388411 0.01494516 0.02513852
v -0.03263079 0.01507545 0.02513852
v -0.03574386 0.01441610 0.03026422
v -0.03401695 0.01496885 0.02751498
v -0.01070651 -0.02179669 0.07287742
v -0.03574386 -0.02179669 0.04849540
v -0.00886986 -0.02179669 0.07215516
v 0.00440831 -0.02179669 0.06681395
v -0.02902680 -0.01793931 0.01689663
v -0.02734609 -0.01724048 0.01337271
v -0.02717860 -0.02179669 0.01587731
v -0.02816623 0.01519390 0.01337271
v -0.02922895 0.01503992 0.01401924
v -0.03152765 0.01498070 0.01897020
v -0.03401117 0.01372912 0.02354839
v -0.03574386 0.01333430 0.02798095
v -0.03574386 0.01358304 0.02841780
v -0.03574386 0.01428976 0.02989144
v -0.03574386 -0.01979101 0.03702082
v -0.02723058 -0.02179669 0.01599963
v -0.02909611 -0.01635608 0.01675101
v -0.02757713 -0.01478865 0.01337271
v -0.03177022 -0.01867762 0.02326298
v -0.03134283 -0.01765109 0.02167867
v -0.03187419 -0.01697990 0.02258732
v -0.03399384 -0.01858286 0.02821976
v -0.02904990 0.01449507 0.01337271
v -0.02926938 0.01372912 0.01337271
v -0.02941377 0.01372912 0.01365812
v -0.03171247 0.01372912 0.01859743
v -0.03415556 0.01135231 0.02325133
v -0.03501036 0.01135231 0.02513852
v -0.03574386 0.01135231 0.02694416
v -0.03574386 -0.01935276 0.03477833
v -0.03574386 -0.01864998 0.03294356
v -0.03144679 -0.01606392 0.02155636
v -0.03047071 0.01135231 0.01562686
v -0.02937912 0.01135231 0.01337271
v -0.03149300 -0.01478865 0.02146898
v -0.03299466 -0.01716546 0.02513852
v -0.03320836 -0.01478865 0.02513852
v -0.03211677 -0.01478865 0.02276206
v -0.03574386 -0.01717731 0.03194172
v -0.03364730 -0.01716546 0.02667623
v -0.02930404 0.01320006 0.01337271
v -0.03376859 -0.01478865 0.02644907
v -0.03412091 -0.01716546 0.02786446
f 1 2 3
f 1 3 9
f 1 9 4
f 1 4 11
f 1 11 5
f 1 5 2
f 2 6 3
f 2 5 6
f 3 7 8
f 3 8 9
f 3 6 7
f 4 9 10
f 4 10 11
f 5 11 20
f 5 20 33
f 5 33 35
f 5 35 50
f 5 50 70
f 5 70 81
f 5 81 90
f 5 90 102
f 5 102 118
f 5 118 130
f 5 130 146
f 5 146 153
f 5 153 136
f 5 136 135
f 5 135 120
f 5 120 106
f 5 106 105
f 5 105 92
f 5 92 83
f 5 83 72
f 5 72 52
f 5 52 38
f 5 38 36
f 5 36 22
f 5 22 12
f 5 12 6
f 6 13 14
f 6 14 7
f 6 12 22
f 6 22 13
f 7 14 15
f 7 15 16
f 7 16 8
f 8 16 17
f 8 17 9
f 9 17 10
f 10 17 18
f 10 18 32
f 10 32 49
f 10 49 69
f 10 69 68
f 10 68 67
f 10 67 66
f 10 66 80
f 10 80 89
f 10 89 101
f 10 101 100
f 10 100 116
f 10 116 115
f 10 115 113
f 10 113 98
f 10 98 114
f 10 114 128
f 10 128 119
f 10 119 104
f 10 104 91
f 10 91 82
f 10 82 70
f 10 70 50
f 10 50 34
f 10 34 21
f 10 21 19
f 10 19 11
f 11 19 21
f 11 21 20
f 13 23 24
f 13 24 14
f 13 22 36
f 13 36 23
f 14 24 15
f 15 25 26
f 15 26 27
f 15 27 28
f 15 28 29
f 15 29 16
f 15 24 25
f 16 29 30
f 16 30 17
f 17 30 31
f 17 31 32
f 17 32 18
f 20 21 33
f 21 34 35
f 21 35 33
f 23 37 24
f 23 36 38
f 23 38 37
f 24 37 39
f 24 39 26
f 24 26 25
f 26 39 40
f 26 40 41
f 26 41 27
f 27 41 42
f 27 42 43
f 27 43 28
f 28 44 29
f 28 43 45
f 28 45 46
f 28 46 47
f 28 47 44
f 29 44 30
f 30 44 48
f 30 48 31
f 31 49 32
f 31 48 47
f 31 47 49
f 34 50 35
f 37 51 39
f 37 38 52
f 37 52 73
f 37 73 53
f 37 53 54
f 37 54 55
f 37 55 56
f 37 56 51
f 39 51 71
f 39 71 57
f 39 57 58
f 39 58 59
f 39 59 60
f 39 60 40
f 40 60 59
f 40 59 61
f 40 61 41
f 41 61 59
f 41 59 62
f 41 62 42
f 42 45 43
f 42 62 45
f 44 47 48
f 45 62 63
f 45 63 46
f 46 63 64
f 46 64 47
f 47 64 63
f 47 63 78
f 47 78 76
f 47 76 75
f 47 75 55
f 47 55 54
f 47 54 53
f 47 53 74
f 47 74 87
f 47 87 98
f 47 98 113
f 47 113 99
f 47 99 88
f 47 88 79
f 47 79 65
f 47 65 66
f 47 66 67
f 47 67 68
f 47 68 69
f 47 69 49
f 51 56 71
f 52 72 73
f 53 73 74
f 55 75 56
f 56 75 76
f 56 76 77
f 56 77 71
f 57 71 77
f 57 77 58
f 58 77 76
f 58 76 78
f 58 78 59
f 59 78 62
f 62 78 63
f 65 79 80
f 65 80 66
f 70 82 81
f 72 83 84
f 72 84 73
f 73 84 85
f 73 85 86
f 73 86 74
f 74 86 87
f 79 88 89
f 79 89 80
f 81 82 91
f 81 91 90
f 83 92 84
f 84 92 93
f 84 93 94
f 84 94 85
f 85 95 96
f 85 96 97
f 85 97 86
f 85 94 95
f 86 97 96
f 86 96 111
f 86 111 126
f 86 126 125
f 86 125 124
f 86 124 141
f 86 141 151
f 86 151 143
f 86 143 142
f 86 142 127
f 86 127 114
f 86 114 98
f 86 98 87
f 88 99 100
f 88 100 101
f 88 101 89
f 90 91 103
f 90 103 102
f 91 104 103
f 92 105 93
f 93 105 106
f 93 106 107
f 93 107 108
f 93 108 109
f 93 109 110
f 93 110 95
f 93 95 94
f 95 110 96
f 96 110 112
f 96 112 109
f 96 109 108
f 96 108 111
f 99 113 115
f 99 115 116
f 99 116 100
f 102 103 117
f 102 117 118
f 103 104 119
f 103 119 117
f 106 120 121
f 106 121 107
f 107 121 122
f 107 122 108
f 108 122 123
f 108 123 124
f 108 124 125
f 108 125 126
f 108 126 111
f 109 112 110
f 114 127 128
f 117 129 130
f 117 130 118
f 117 119 131
f 117 131 132
f 117 132 133
f 117 133 129
f 119 128 134
f 119 134 131
f 120 135 121
f 121 135 136
f 121 136 137
f 121 137 138
f 121 138 123
f 121 123 122
f 123 138 139
f 123 139 140
f 123 140 141
f 123 141 124
f 127 142 128
f 128 142 143
f 128 143 134
f 129 133 144
f 129 144 130
f 130 145 146
f 130 144 147
f 130 147 145
f 131 134 132
f 132 134 148
f 132 148 133
f 133 148 149
f 133 149 150
f 133 150 144
f 134 143 151
f 134 151 152
f 134 152 148
f 136 153 137
f 137 153 139
f 137 139 138
f 139 147 150
f 139 150 149
f 139 149 140
f 139 153 145
f 139 145 147
f 140 149 154
f 140 154 141
f 141 154 151
f 144 150 147
f 145 153 146
f 148 152 154
f 148 154 149
f 151 155 152
f 151 154 155
f 152 155 154

