# https://github.com/mikedh/trimesh
v -0.07688611 -0.01004213 0.00249737
v -0.08016740 0.00184344 0.00301406
v -0.07806161 0.00184344 0.00264894
v -0.07688611 -0.00528790 0.00251115
v -0.07582601 -0.01004213 0.00249737
v -0.07448465 -0.02904791 0.00253870
v -0.07686448 -0.01241925 0.00250426
v -0.07680679 -0.01479079 0.00251115
v -0.08016740 -0.00053367 0.00304851
v -0.08254002 0.00184344 0.00355142
v -0.08016740 0.00422056 0.00331030
v -0.07678515 0.00311272 0.00253870
v -0.07687890 0.00184344 0.00253182
v -0.07397983 -0.02904791 0.00253870
v -0.07590533 -0.00766502 0.00250426
v -0.03574386 -0.03142503 0.00369610
v -0.07440532 -0.03035059 0.00254560
v -0.07664813 -0.01954502 0.00254560
v -0.08016740 -0.00766502 0.00315873
v -0.08491985 -0.00766502 0.00424034
v -0.08491985 -0.00053367 0.00413011
v -0.08491985 0.00184344 0.00409567
v -0.08016740 0.00671458 0.00434368
v -0.07778756 0.00659767 0.00384077
v -0.07765775 0.00403128 0.00283495
v -0.08671554 0.00358592 0.00473636
v -0.08494148 0.00431519 0.00452279
v -0.08574197 0.00516695 0.00503260
v -0.08415542 0.00561231 0.00481904
v -0.08254002 0.00600757 0.00459858
v -0.07551591 0.00403128 0.00279361
v -0.07638130 0.00311272 0.00253870
v -0.07623707 0.00184344 0.00253182
v -0.07403753 -0.03035059 0.00254560
v -0.07615053 -0.00053367 0.00252493
v -0.06423694 0.00571252 0.00475703
v -0.05754456 0.00547313 0.00727848
v -0.03574386 -0.02953224 0.00431612
v -0.03574386 -0.03380214 0.00406811
v -0.03738811 -0.03380214 0.00400611
v -0.03976794 -0.03380214 0.00391655
v -0.04214056 -0.03380214 0.00384765
v -0.06828987 0.00422056 0.00330340
v -0.06591004 0.00422056 0.00388210
v -0.07527792 -0.03125802 0.00273160
v -0.07567456 -0.02904791 0.00262138
v -0.07660486 -0.02080317 0.00255937
v -0.07778756 -0.02904791 0.00295895
v -0.07778756 -0.02667080 0.00291761
v -0.08016740 -0.02429368 0.00342052
v -0.08254002 -0.02667080 0.00399921
v -0.08491985 -0.01241925 0.00431612
v -0.08696795 0.00184344 0.00464680
v -0.07938133 0.00798942 0.00481904
v -0.07778756 0.00816757 0.00471569
v -0.07540773 0.00659767 0.00377188
v -0.08815786 0.00184344 0.00506016
v -0.09133097 0.00361375 0.00704425
v -0.08742228 0.00431519 0.00527372
v -0.08744391 0.00677025 0.00651377
v -0.08675160 0.00815087 0.00706491
v -0.08494148 0.00648076 0.00552173
v -0.07303511 0.00422056 0.00297273
v -0.07066249 0.00659767 0.00393033
v -0.07066249 0.00422056 0.00310362
v -0.07315771 -0.03125802 0.00275227
v -0.04452039 -0.03380214 0.00378565
v -0.04689301 -0.03380214 0.00373054
v -0.06018402 0.00766654 0.00738870
v -0.06104941 0.00676468 0.00655511
v -0.05877775 0.00596303 0.00700291
v -0.06591004 0.00618571 0.00446080
v -0.05877775 0.00714880 0.00771938
v -0.05878496 0.00899705 0.00893188
v -0.05715514 0.00822324 0.00935901
v -0.03574386 0.01333375 0.02798052
v -0.03574386 -0.03516606 0.00468813
v -0.03738811 -0.03522173 0.00461924
v -0.03976794 -0.03530524 0.00453658
v -0.04214056 -0.03538874 0.00446768
v -0.04452039 -0.03546668 0.00440567
v -0.04689301 -0.03555018 0.00435057
v -0.06817448 0.00679808 0.00427479
v -0.07303511 -0.03380214 0.00332407
v -0.07303511 -0.03617926 0.00395099
v -0.07540773 -0.03380214 0.00341364
v -0.07778756 -0.03142503 0.00313118
v -0.08254002 -0.03142503 0.00413011
v -0.08254002 -0.02904791 0.00404055
v -0.08491985 -0.01716791 0.00439190
v -0.08632611 -0.01954502 0.00481904
v -0.08143664 0.01017726 0.00729225
v -0.07778756 0.00935334 0.00577663
v -0.08491985 0.00851829 0.00678246
v -0.07540773 0.00939231 0.00565952
v -0.07540773 0.00820654 0.00469503
v -0.07066249 0.00807850 0.00477081
v -0.08967230 0.00184344 0.00586619
v -0.08626121 -0.02192214 0.00485348
v -0.08980211 0.00433190 0.00647933
v -0.09581660 0.00330756 0.00954502
v -0.08910258 0.00609664 0.00692024
v -0.08833815 0.00767767 0.00737492
v -0.08967230 0.00846262 0.00898010
v -0.08744391 0.00880777 0.00829807
v -0.06888843 0.00796159 0.00483970
v -0.05958545 0.01039994 0.00947613
v -0.06591004 0.00737149 0.00519794
v -0.06177057 0.00810076 0.00710624
v -0.06104941 0.00892468 0.00788473
v -0.06730188 0.00772777 0.00497059
v -0.05799890 0.00980983 0.00995148
v -0.03574386 0.01357871 0.02842143
v -0.03574386 -0.04154586 0.02034728
v -0.06646533 -0.03741513 0.00486726
v -0.06828987 -0.03747637 0.00477770
v -0.07066249 -0.03755431 0.00467436
v -0.07303511 -0.03763781 0.00457791
v -0.07540773 -0.03764895 0.00460547
v -0.07540773 -0.03617926 0.00409567
v -0.08428523 -0.03286132 0.00475703
v -0.07682842 -0.03753204 0.00475703
v -0.08463138 -0.03142503 0.00465369
v -0.08476841 -0.02904791 0.00461924
v -0.08491985 -0.02429368 0.00454346
v -0.08491985 -0.02192214 0.00448835
v -0.08491985 -0.01954502 0.00443324
v -0.07739093 0.01497046 0.03315430
v -0.08016740 0.01023293 0.00716136
v -0.08967230 0.00940344 0.01087464
v -0.09204492 0.00943685 0.01325141
v -0.07778756 0.01032200 0.00696157
v -0.07540773 0.01040551 0.00685135
v -0.07303511 0.01048901 0.00678934
v -0.07066249 0.01056695 0.00674112
v -0.07303511 0.00933107 0.00559751
v -0.07066249 0.00926427 0.00555618
v -0.08618188 -0.02429368 0.00489482
v -0.08613140 -0.02582461 0.00492237
v -0.08967230 -0.00053367 0.00595575
v -0.09152569 0.00184344 0.00692713
v -0.09557861 0.00775004 0.01209403
v -0.09512428 0.00488860 0.01000660
v -0.09442476 0.00184344 0.00860809
v -0.09588871 0.00184344 0.00948991
v -0.09707863 0.00184344 0.01052328
v -0.09821806 0.00340777 0.01181846
v -0.09676853 0.00414818 0.01090908
v -0.09613391 0.00616344 0.01159112
v -0.08980211 0.00677025 0.00776072
v -0.09278051 0.00729911 0.00998593
v -0.09119395 0.00805623 0.00946924
v -0.09399206 0.00823994 0.01157045
v -0.09200886 0.00857953 0.01081952
v -0.06817448 0.00884118 0.00552173
v -0.06353742 0.00977087 0.00756782
v -0.06479945 0.01012159 0.00735426
v -0.06115759 0.01066159 0.00916612
v -0.05878496 0.01087870 0.01079886
v -0.06572254 0.00918633 0.00642422
v -0.06638600 0.01038881 0.00706491
v -0.03574386 0.01429128 0.02988882
v -0.03574386 -0.04154586 0.07287742
v -0.08491985 -0.04154586 0.02209714
v -0.07540773 -0.03799967 0.00612109
v -0.08668669 -0.04154586 0.02260694
v -0.08735016 -0.04154586 0.02286184
v -0.08582130 -0.03142503 0.00503949
v -0.08892951 -0.03296152 0.00705802
v -0.09348003 -0.03508812 0.01186668
v -0.09204492 -0.03333451 0.00914545
v -0.08595832 -0.02904791 0.00498437
v -0.08605207 -0.02741121 0.00494992
v -0.07897027 0.01491479 0.03464237
v -0.07778035 0.01499829 0.03464237
v -0.07540773 0.01515974 0.03464237
v -0.07303511 0.01529891 0.03464237
v -0.07540773 0.01503726 0.03287185
v -0.07066249 0.01097334 0.00849786
v -0.09464110 0.00867417 0.01303095
v -0.09699930 0.00862406 0.01543528
v -0.09442476 0.00933664 0.01562819
v -0.06828987 0.01104571 0.00849786
v -0.06828987 0.01055581 0.00683068
v -0.08729247 -0.03142503 0.00582486
v -0.08729247 -0.02904791 0.00572152
v -0.08918912 -0.03142503 0.00690646
v -0.09037904 -0.03142503 0.00758849
v -0.08935499 -0.02667080 0.00681001
v -0.09103530 -0.01241925 0.00720958
v -0.09436706 -0.01004213 0.00903522
v -0.09442476 -0.00291079 0.00878721
v -0.09455456 0.00673128 0.01078507
v -0.09772046 0.00498880 0.01236959
v -0.09702815 0.00692612 0.01302407
v -0.09792960 0.00768324 0.01451902
v -0.09634304 0.00827334 0.01367854
v -0.09564352 -0.00708048 0.00966214
v -0.09582381 -0.00053367 0.00953125
v -0.09701372 -0.00053367 0.01059218
v -0.09826133 -0.00053367 0.01177712
v -0.09831181 0.00184344 0.01171512
v -0.09560025 -0.00866708 0.00969658
v -0.10051136 0.00325746 0.01428479
v -0.06115759 0.01139644 0.01087464
v -0.03574386 0.01441376 0.03026084
v -0.04570310 -0.04154586 0.07287742
v -0.03574386 0.01488695 0.07287742
v -0.08851123 -0.04154586 0.02390211
v -0.09593198 -0.03513266 0.01412634
v -0.09342955 -0.03285018 0.00955191
v -0.09506659 -0.03455369 0.01254182
v -0.07897027 0.01491479 0.03938903
v -0.09680459 0.00916406 0.01800495
v -0.09917721 0.00897478 0.02038173
v -0.10155704 0.00869643 0.02275850
v -0.10392966 0.00864076 0.02988882
v -0.10392966 0.00868530 0.03226560
v -0.07778035 0.01499829 0.03938903
v -0.07303511 0.01532675 0.03701914
v -0.07303511 0.01509850 0.03294763
v -0.03574386 0.01485912 0.03226560
v -0.09858586 0.00820097 0.01610354
v -0.09929981 0.00849602 0.01790851
v -0.06353742 0.01144097 0.01087464
v -0.09204492 -0.03142503 0.00855298
v -0.09204492 -0.02904791 0.00845653
v -0.10279744 0.00311829 0.01675801
v -0.10017241 0.00748282 0.01705425
v -0.10080703 0.00811746 0.01863876
v -0.09555698 -0.01004213 0.00973103
v -0.09547044 -0.01241925 0.00979303
v -0.09538390 -0.01479079 0.00985503
v -0.09658103 -0.01479079 0.01104687
v -0.09633583 -0.02192214 0.01128799
v -0.10030943 -0.00766502 0.01450525
v -0.10041039 -0.00469780 0.01439501
v -0.10055463 -0.00053367 0.01424346
v -0.10173733 -0.00053367 0.01551795
v -0.10284071 -0.00053367 0.01670979
v -0.10059068 0.00184344 0.01420212
v -0.09355936 -0.03142503 0.00946235
v -0.04819111 -0.03514379 0.07287742
v -0.07424666 -0.03025595 0.07147891
v -0.07519138 -0.03119678 0.07124468
v -0.07778756 -0.03142503 0.07085199
v -0.08428523 -0.03284462 0.06926748
v -0.08729247 -0.03347369 0.06751073
v -0.10043924 -0.03975884 0.05489661
v -0.07015768 -0.04154586 0.05748006
v -0.03574386 0.01488695 0.03701914
v -0.03575107 0.01488695 0.07287742
v -0.08920355 -0.04154586 0.02508705
v -0.10060511 -0.03513823 0.01887989
v -0.09836230 -0.03516606 0.01645488
v -0.09584544 -0.03296709 0.01181157
v -0.09474928 -0.03142503 0.01045440
v -0.09751854 -0.03450915 0.01487037
v -0.07739093 0.01497046 0.04084954
v -0.10392966 0.00868530 0.03938903
v -0.10392966 0.00867417 0.04176580
v -0.10392966 0.00862406 0.04414257
v -0.10155704 0.00884674 0.04889612
v -0.10155704 0.00866860 0.05127289
v -0.09917721 0.00897478 0.05364967
v -0.09680459 0.00917520 0.05602644
v -0.09442476 0.00933107 0.05840321
v -0.09204492 0.00944242 0.06077998
v -0.10158589 0.00829561 0.02047818
v -0.10315081 0.00812303 0.02275850
v -0.10394408 0.00817314 0.02536951
v -0.10557391 0.00815087 0.02988882
v -0.10392966 0.00843478 0.02751205
v -0.10570372 0.00819540 0.03226560
v -0.10579747 0.00819540 0.03464237
v -0.10586959 0.00819540 0.03701914
v -0.07540773 0.01515974 0.03938903
v -0.07303511 0.01529334 0.03938903
v -0.03574386 0.01488138 0.03464237
v -0.03574386 0.01487582 0.03369855
v -0.10177339 0.00184344 0.01550418
v -0.10285513 0.00184344 0.01669601
v -0.10368446 0.00184344 0.01800495
v -0.10476621 0.00184344 0.01995460
v -0.10522775 0.00323519 0.02133933
v -0.10317965 0.00403684 0.01812207
v -0.10287677 0.00564571 0.01899700
v -0.10154262 0.00656427 0.01802562
v -0.10239359 0.00723231 0.01974792
v -0.10286955 0.00792262 0.02133244
v -0.09528294 -0.01716791 0.00993082
v -0.09609064 -0.02904791 0.01155667
v -0.09735988 -0.02667080 0.01274161
v -0.09862913 -0.02192214 0.01375432
v -0.10116761 -0.01479079 0.01595886
v -0.10186714 -0.00302213 0.01584175
v -0.09965317 -0.02667080 0.01520794
v -0.10366283 -0.00053367 0.01800495
v -0.10273253 -0.00389058 0.01684068
v -0.09518919 -0.01954502 0.01001349
v -0.04838582 -0.03380214 0.07287742
v -0.07664813 -0.01716791 0.07149269
v -0.07660486 -0.01844832 0.07147891
v -0.07519138 -0.02906461 0.07141002
v -0.07778756 -0.02904791 0.07104489
v -0.08254002 -0.03142503 0.06987373
v -0.08463138 -0.03142503 0.06936393
v -0.08582130 -0.03142503 0.06900569
v -0.08910980 -0.03307286 0.06706293
v -0.09343676 -0.03286688 0.06450015
v -0.10136233 -0.03837266 0.05533063
v -0.10202579 -0.03904070 0.05409746
v -0.10275417 -0.03975884 0.05251295
v -0.07131154 -0.04154586 0.05668091
v -0.04472953 0.01426901 0.07287742
v -0.09002567 -0.04154586 0.02658201
v -0.10298494 -0.03515493 0.02341986
v -0.10258109 -0.03482090 0.02183535
v -0.10224936 -0.03393575 0.02027839
v -0.10099453 -0.03371864 0.01805318
v -0.09994885 -0.03445348 0.01729537
v -0.09038625 -0.04154586 0.02725715
v -0.09600410 -0.03142503 0.01164622
v -0.09816758 -0.03292255 0.01425034
v -0.08153039 0.01018840 0.06676670
v -0.04689301 0.01411871 0.07287742
v -0.10584074 0.00819540 0.03938903
v -0.10571814 0.00818427 0.04176580
v -0.10392966 0.00844592 0.04651934
v -0.10553785 0.00813417 0.04414257
v -0.10397293 0.00818984 0.04869633
v -0.10315802 0.00809520 0.05127289
v -0.10157867 0.00827334 0.05351877
v -0.09933586 0.00850716 0.05615733
v -0.09699930 0.00862406 0.05860300
v -0.09463389 0.00867417 0.06099355
v -0.08967230 0.00943128 0.06315676
v -0.10511958 0.00778901 0.02632022
v -0.10530708 0.00794489 0.02751205
v -0.10665565 0.00659767 0.02988882
v -0.10698738 0.00701520 0.03464237
v -0.10705229 0.00722118 0.03701914
v -0.10475179 -0.00053367 0.01995460
v -0.10532871 -0.00053367 0.02114643
v -0.10610757 -0.00053367 0.02275850
v -0.10708835 -0.00053367 0.02479770
v -0.10765807 -0.00053367 0.02598265
v -0.10609314 0.00184344 0.02275850
v -0.10763643 0.00184344 0.02603088
v -0.10754268 0.00312385 0.02621688
v -0.10319408 0.00650303 0.02047818
v -0.10439121 0.00410365 0.02047818
v -0.09719401 -0.03142503 0.01292073
v -0.10083588 -0.02429368 0.01631021
v -0.09948731 -0.03142503 0.01538706
v -0.10260994 -0.03142503 0.01945169
v -0.10067001 -0.02904791 0.01648934
v -0.10058347 -0.03142503 0.01657889
v -0.10268205 -0.00528790 0.01690268
v -0.05004449 0.01135190 0.07287742
v -0.07677794 -0.01241925 0.07152025
v -0.07672746 -0.01479079 0.07150646
v -0.08016740 0.00184344 0.07098978
v -0.08016740 -0.01004213 0.07080377
v -0.08491985 -0.01004213 0.06972216
v -0.08016740 -0.02667080 0.07054198
v -0.07778756 -0.02429368 0.07112067
v -0.08254002 -0.02904791 0.06996328
v -0.08476119 -0.02904791 0.06939837
v -0.08611698 -0.02567987 0.06910902
v -0.08595111 -0.02904791 0.06905391
v -0.08729247 -0.03142503 0.06834432
v -0.08945595 -0.03142503 0.06725583
v -0.09063866 -0.03142503 0.06659447
v -0.09204492 -0.03142503 0.06567132
v -0.09358100 -0.03142503 0.06461038
v -0.09476370 -0.03142503 0.06356322
v -0.10276138 -0.03745410 0.05486905
v -0.10293446 -0.03837266 0.05344299
v -0.10545131 -0.03388008 0.04645734
v -0.10588401 -0.03380214 0.04414257
v -0.10661238 -0.03380214 0.03938903
v -0.10679988 -0.03380214 0.03701914
v -0.10577583 -0.03547225 0.03701914
v -0.10275417 -0.03975884 0.05207893
v -0.09102087 -0.04154586 0.02958570
v -0.09070356 -0.04154586 0.03043996
v -0.09050164 -0.04154586 0.03074309
v -0.07162164 -0.04154586 0.05635023
v -0.10339600 -0.03535534 0.02513528
v -0.10517727 -0.03504915 0.02842143
v -0.10496092 -0.03472070 0.02683691
v -0.10301379 -0.03323431 0.02099487
v -0.10048251 -0.03286688 0.01668912
v -0.09097760 -0.04154586 0.02844209
v -0.08967230 0.00849045 0.06503751
v -0.08491985 0.00856283 0.06730406
v -0.08241021 0.00913623 0.06750384
v -0.04708773 0.01404633 0.07287742
v -0.08106885 0.00767210 0.06904702
v -0.10703066 0.00710983 0.03938903
v -0.10530708 0.00795602 0.04651934
v -0.10514121 0.00781128 0.04777318
v -0.10283349 0.00787808 0.05263695
v -0.10079261 0.00811746 0.05545463
v -0.09864355 0.00821767 0.05793475
v -0.09633583 0.00826221 0.06033908
v -0.09397763 0.00825107 0.06252295
v -0.09206656 0.00861850 0.06325321
v -0.10612199 0.00659767 0.02751205
v -0.10712441 0.00468262 0.02751205
v -0.10739124 0.00516695 0.02988882
v -0.10769412 0.00582942 0.03464237
v -0.10779508 0.00602983 0.03701914
v -0.10318686 -0.03142503 0.02064352
v -0.10752825 -0.00451409 0.02626510
v -0.10808355 -0.00053367 0.02751205
v -0.10803307 0.00184344 0.02751205
v -0.10847298 0.00184344 0.02988882
v -0.10770134 0.00349684 0.02751205
v -0.10260272 -0.00766502 0.01701980
v -0.10164358 -0.03142503 0.01800495
v -0.07679236 -0.01004213 0.07152025
v -0.04996516 0.01151891 0.07287742
v -0.07664813 0.00305148 0.07148580
v -0.07677073 -0.00528790 0.07150646
v -0.07678515 -0.00766502 0.07151336
v -0.07788131 0.00184344 0.07136868
v -0.08016740 0.00422056 0.07071421
v -0.08491985 0.00184344 0.06990817
v -0.08691747 0.00184344 0.06937081
v -0.08629727 -0.01954502 0.06919858
v -0.08491985 -0.01479079 0.06964638
v -0.08254002 -0.02429368 0.07003907
v -0.08491985 -0.01954502 0.06956371
v -0.08491985 -0.02192214 0.06951549
v -0.08623236 -0.02192214 0.06916414
v -0.08616025 -0.02429368 0.06912969
v -0.08810738 0.00184344 0.06896435
v -0.08729247 -0.02904791 0.06842699
v -0.08967230 0.00184344 0.06813765
v -0.09148963 0.00184344 0.06709049
v -0.09267955 0.00184344 0.06640157
v -0.09442476 0.00184344 0.06538886
v -0.09586708 0.00184344 0.06452771
v -0.09580217 -0.00053367 0.06448637
v -0.09562910 -0.00677986 0.06436237
v -0.09557861 -0.00836089 0.06432792
v -0.09552092 -0.01004213 0.06428658
v -0.09544159 -0.01241925 0.06422458
v -0.09535505 -0.01479079 0.06415569
v -0.09492957 -0.02667080 0.06374234
v -0.09485024 -0.02904791 0.06365278
v -0.09598967 -0.03142503 0.06237828
v -0.10280465 -0.03617926 0.05492417
v -0.10765085 -0.00053367 0.04803497
v -0.10752104 -0.00442502 0.04775940
v -0.10326619 -0.03617926 0.05364967
v -0.10540083 -0.03142503 0.04828987
v -0.10594170 -0.03142503 0.04651934
v -0.10527823 -0.03313967 0.04804186
v -0.10638882 -0.03142503 0.04414257
v -0.10709556 -0.03142503 0.03938903
v -0.10727585 -0.03142503 0.03701914
v -0.10710277 -0.03142503 0.03464237
v -0.10661959 -0.03380214 0.03464237
v -0.10567487 -0.03541657 0.03464237
v -0.10548016 -0.03529410 0.03226560
v -0.10529266 -0.03515493 0.02988882
v -0.10242243 -0.03971431 0.05049441
v -0.09102087 -0.04154586 0.02948236
v -0.10589122 -0.03380214 0.02988882
v -0.10545852 -0.03388008 0.02758094
v -0.10529266 -0.03313967 0.02593443
v -0.09128049 0.00810633 0.06458971
v -0.08665785 0.00815643 0.06698026
v -0.08497754 0.00651416 0.06856478
v -0.08254002 0.00729911 0.06885413
v -0.04908534 0.01328922 0.07287742
v -0.08254002 0.00610777 0.06945349
v -0.08023230 0.00676468 0.06969461
v -0.10699460 0.00650303 0.04185536
v -0.10656911 0.00659767 0.04414257
v -0.10773018 0.00592406 0.03938903
v -0.10610757 0.00659767 0.04651934
v -0.10754989 0.00312942 0.04782140
v -0.10544410 0.00645850 0.04869633
v -0.10478784 0.00715994 0.04935769
v -0.10431187 0.00645850 0.05112822
v -0.10314359 0.00646963 0.05351877
v -0.10284792 0.00559561 0.05500684
v -0.10237917 0.00717664 0.05422147
v -0.10023010 0.00757190 0.05703915
v -0.09792239 0.00767767 0.05951926
v -0.09556419 0.00772221 0.06192359
v -0.10792490 0.00398117 0.02988882
v -0.10845855 0.00422056 0.03464237
v -0.10865327 0.00422056 0.03701914
v -0.10415322 -0.03142503 0.02275850
v -0.10541525 -0.03142503 0.02564507
v -0.10747056 -0.00609512 0.02643734
v -0.10498256 -0.02904791 0.02427413
v -0.10851625 -0.00053367 0.02988882
v -0.10742008 -0.00766502 0.02667846
v -0.10759316 -0.01004213 0.02824230
v -0.10753547 -0.01174007 0.02852476
v -0.10923741 -0.00053367 0.03464237
v -0.10917972 0.00184344 0.03464237
v -0.07757843 0.00399788 0.07119645
v -0.07672746 -0.00053367 0.07149269
v -0.08422032 0.00566798 0.06923303
v -0.08580688 0.00518922 0.06901946
v -0.08497754 0.00432633 0.06950860
v -0.08254002 0.00422056 0.07013552
v -0.08667948 0.00360262 0.06928814
v -0.09130934 0.00358592 0.06698026
v -0.09580217 0.00330200 0.06447948
v -0.09705699 0.00184344 0.06349433
v -0.09699209 -0.00053367 0.06343233
v -0.09823970 -0.00053367 0.06224049
v -0.09648006 -0.01716791 0.06289497
v -0.09640074 -0.01954502 0.06281230
v -0.09631420 -0.02192214 0.06272963
v -0.10172291 -0.00053367 0.05849966
v -0.10282628 -0.00053367 0.05730783
v -0.10363398 -0.00053367 0.05602644
v -0.10474457 -0.00053367 0.05406302
v -0.10532150 -0.00053367 0.05287119
v -0.10609314 -0.00053367 0.05127289
v -0.10708114 -0.00053367 0.04921991
v -0.09808104 -0.00528790 0.06206827
v -0.09942961 -0.00053367 0.06096599
v -0.10607872 0.00184344 0.05127289
v -0.10706671 0.00184344 0.04918546
v -0.10762922 0.00184344 0.04799363
v -0.10806913 -0.00053367 0.04651934
v -0.10475179 0.00184344 0.05406302
v -0.10746335 -0.00601161 0.04757339
v -0.10610757 -0.02904791 0.04651934
v -0.10752825 -0.01171224 0.04549974
v -0.10747777 -0.01329327 0.04518973
v -0.10742729 -0.01479079 0.04485216
v -0.10802586 -0.00766502 0.04414257
v -0.10907154 -0.00291079 0.03938903
v -0.10755710 -0.02667080 0.03857610
v -0.10750662 -0.02801245 0.03827298
v -0.10743451 -0.02929843 0.03701914
v -0.10750662 -0.02804028 0.03575153
v -0.10674940 -0.03142503 0.03226560
v -0.10731191 -0.02891987 0.03483527
v -0.10638882 -0.03142503 0.02988882
v -0.10596334 -0.03142503 0.02751205
v -0.09286705 0.00736035 0.06410747
v -0.08907374 0.00600200 0.06709049
v -0.08824440 0.00758303 0.06660825
v -0.08738622 0.00671458 0.06752451
v -0.10759316 0.00565128 0.04112510
v -0.10734076 0.00508901 0.04414257
v -0.10850904 0.00422056 0.03938903
v -0.10710998 0.00463251 0.04651934
v -0.10522054 0.00322406 0.05268518
v -0.10519169 0.00557334 0.05023262
v -0.10770134 0.00344674 0.04651934
v -0.10846576 0.00184344 0.04414257
v -0.10802586 0.00184344 0.04651934
v -0.10435515 0.00409808 0.05354633
v -0.10279023 0.00310715 0.05726649
v -0.10231426 0.00469375 0.05659136
v -0.10155704 0.00658097 0.05602644
v -0.10315081 0.00402571 0.05589554
v -0.10072770 0.00598530 0.05760407
v -0.09820364 0.00337437 0.06220605
v -0.09769162 0.00496097 0.06164113
v -0.09610506 0.00614117 0.06244717
v -0.09514592 0.00488303 0.06403169
v -0.09456178 0.00674798 0.06327388
v -0.10935279 0.00184344 0.03701914
v -0.10835759 -0.00291079 0.02988882
v -0.10747777 -0.01332110 0.02882789
v -0.10891289 -0.00528790 0.03464237
v -0.10941770 -0.00053367 0.03701914
v -0.08740064 0.00432633 0.06875079
v -0.08978769 0.00431519 0.06752451
v -0.09674689 0.00413148 0.06312231
v -0.09066029 0.00517251 0.06660136
v -0.09438148 0.00414262 0.06489972
v -0.09355936 0.00577932 0.06454149
v -0.09829739 0.00184344 0.06230250
v -0.10175896 0.00184344 0.05851344
v -0.10284071 0.00184344 0.05732161
v -0.10366283 0.00184344 0.05602644
v -0.09948731 0.00184344 0.06100733
v -0.10851625 -0.00053367 0.04414257
v -0.10767249 -0.00766502 0.04614044
v -0.10791047 -0.00291079 0.04651934
v -0.10732633 -0.01004213 0.04696025
v -0.10923020 -0.00053367 0.03938903
v -0.10778066 -0.02429368 0.03701914
v -0.10755710 -0.02667080 0.03544152
v -0.10708114 -0.02667080 0.03226560
v -0.10761480 -0.02407657 0.03461482
v -0.10672056 -0.02667080 0.02988882
v -0.09206656 0.00658097 0.06500995
v -0.10791768 0.00389767 0.04414257
v -0.10917972 0.00184344 0.03938903
v -0.10882635 0.00184344 0.04176580
v -0.10049693 0.00324076 0.05973972
v -0.10140560 0.00396447 0.05823098
v -0.10786720 -0.01004213 0.02988882
v -0.10842249 -0.01241925 0.03464237
v -0.10749220 -0.01822564 0.03113576
f 1 2 3
f 1 3 4
f 1 4 13
f 1 13 33
f 1 33 35
f 1 35 15
f 1 15 5
f 1 5 14
f 1 14 6
f 1 6 7
f 1 7 2
f 2 7 8
f 2 8 9
f 2 9 10
f 2 10 11
f 2 11 12
f 2 12 3
f 3 12 13
f 3 13 4
f 5 15 16
f 5 16 14
f 6 14 34
f 6 34 17
f 6 17 8
f 6 8 7
f 8 17 18
f 8 18 9
f 9 19 10
f 9 18 19
f 10 20 21
f 10 21 22
f 10 22 11
f 10 19 20
f 11 23 24
f 11 24 25
f 11 25 12
f 11 22 26
f 11 26 27
f 11 27 28
f 11 28 29
f 11 29 30
f 11 30 23
f 12 31 32
f 12 32 33
f 12 33 13
f 12 25 31
f 14 16 34
f 15 35 16
f 16 36 37
f 16 37 38
f 16 38 76
f 16 76 113
f 16 113 162
f 16 162 206
f 16 206 222
f 16 222 280
f 16 280 279
f 16 279 251
f 16 251 208
f 16 208 163
f 16 163 114
f 16 114 77
f 16 77 39
f 16 39 40
f 16 40 41
f 16 41 42
f 16 42 34
f 16 35 33
f 16 33 32
f 16 32 43
f 16 43 44
f 16 44 36
f 17 34 45
f 17 45 46
f 17 46 47
f 17 47 18
f 18 47 48
f 18 48 49
f 18 49 50
f 18 50 19
f 19 50 20
f 20 51 52
f 20 52 53
f 20 53 21
f 20 50 51
f 21 53 22
f 22 53 26
f 23 54 24
f 23 30 54
f 24 55 56
f 24 56 25
f 24 54 55
f 25 56 31
f 26 53 57
f 26 57 58
f 26 58 59
f 26 59 28
f 26 28 27
f 28 59 60
f 28 60 61
f 28 61 62
f 28 62 29
f 29 62 54
f 29 54 30
f 31 63 32
f 31 56 64
f 31 64 63
f 32 63 65
f 32 65 43
f 34 66 45
f 34 42 67
f 34 67 68
f 34 68 66
f 36 69 70
f 36 70 71
f 36 71 37
f 36 44 72
f 36 72 69
f 37 71 73
f 37 73 74
f 37 74 75
f 37 75 76
f 37 76 38
f 39 77 78
f 39 78 79
f 39 79 80
f 39 80 81
f 39 81 40
f 40 81 41
f 41 81 82
f 41 82 42
f 42 82 67
f 43 65 64
f 43 64 83
f 43 83 72
f 43 72 44
f 45 66 84
f 45 84 85
f 45 85 86
f 45 86 87
f 45 87 46
f 46 87 48
f 46 48 47
f 48 87 88
f 48 88 89
f 48 89 51
f 48 51 49
f 49 51 50
f 51 89 127
f 51 127 90
f 51 90 52
f 52 90 53
f 53 90 91
f 53 91 57
f 54 92 93
f 54 93 55
f 54 62 61
f 54 61 94
f 54 94 92
f 55 93 95
f 55 95 96
f 55 96 56
f 56 96 97
f 56 97 64
f 57 98 58
f 57 91 99
f 57 99 98
f 58 100 59
f 58 98 101
f 58 101 100
f 59 100 102
f 59 102 60
f 60 102 103
f 60 103 61
f 61 103 104
f 61 104 105
f 61 105 92
f 61 92 94
f 63 64 65
f 64 97 106
f 64 106 83
f 66 68 84
f 67 82 85
f 67 85 68
f 68 85 84
f 69 107 74
f 69 74 73
f 69 73 71
f 69 71 70
f 69 72 108
f 69 108 109
f 69 109 110
f 69 110 107
f 72 83 111
f 72 111 108
f 74 107 112
f 74 112 75
f 75 112 76
f 76 112 107
f 76 107 113
f 77 114 115
f 77 115 116
f 77 116 117
f 77 117 118
f 77 118 78
f 78 118 79
f 79 118 80
f 80 118 81
f 81 118 82
f 82 118 85
f 83 106 111
f 85 118 119
f 85 119 120
f 85 120 86
f 86 120 87
f 87 121 88
f 87 120 122
f 87 122 121
f 88 121 123
f 88 123 89
f 89 123 124
f 89 124 125
f 89 125 126
f 89 126 127
f 90 127 91
f 91 127 99
f 92 128 129
f 92 129 93
f 92 105 104
f 92 104 130
f 92 130 131
f 92 131 128
f 93 129 132
f 93 132 133
f 93 133 95
f 95 133 134
f 95 134 135
f 95 135 136
f 95 136 96
f 96 136 137
f 96 137 97
f 97 137 106
f 98 99 138
f 98 138 139
f 98 139 140
f 98 140 141
f 98 141 101
f 99 127 126
f 99 126 125
f 99 125 124
f 99 124 138
f 100 101 102
f 101 142 143
f 101 143 102
f 101 141 144
f 101 144 145
f 101 145 146
f 101 146 147
f 101 147 148
f 101 148 149
f 101 149 142
f 102 143 150
f 102 150 103
f 103 150 143
f 103 143 151
f 103 151 152
f 103 152 104
f 104 152 153
f 104 153 154
f 104 154 130
f 106 137 155
f 106 155 111
f 107 110 156
f 107 156 157
f 107 157 158
f 107 158 159
f 107 159 113
f 108 160 109
f 108 111 160
f 109 160 110
f 110 157 156
f 110 160 157
f 111 155 161
f 111 161 160
f 113 159 162
f 114 163 207
f 114 207 250
f 114 250 314
f 114 314 389
f 114 389 388
f 114 388 387
f 114 387 386
f 114 386 471
f 114 471 395
f 114 395 322
f 114 322 316
f 114 316 253
f 114 253 209
f 114 209 167
f 114 167 166
f 114 166 164
f 114 164 165
f 114 165 119
f 114 119 118
f 114 118 116
f 114 116 115
f 116 118 117
f 119 165 164
f 119 164 166
f 119 166 167
f 119 167 122
f 119 122 120
f 121 168 123
f 121 122 169
f 121 169 168
f 122 167 170
f 122 170 171
f 122 171 169
f 123 168 172
f 123 172 173
f 123 173 139
f 123 139 124
f 124 139 138
f 128 174 175
f 128 175 176
f 128 176 177
f 128 177 178
f 128 178 129
f 128 131 174
f 129 178 179
f 129 179 132
f 130 154 153
f 130 153 180
f 130 180 131
f 131 180 181
f 131 181 182
f 131 182 174
f 132 179 133
f 133 179 134
f 134 179 135
f 135 137 136
f 135 179 183
f 135 183 184
f 135 184 137
f 137 184 155
f 139 173 185
f 139 185 186
f 139 186 187
f 139 187 188
f 139 188 189
f 139 189 190
f 139 190 140
f 140 190 141
f 141 190 191
f 141 191 192
f 141 192 144
f 142 193 143
f 142 149 194
f 142 194 195
f 142 195 196
f 142 196 197
f 142 197 153
f 142 153 152
f 142 152 151
f 142 151 193
f 143 193 151
f 144 192 198
f 144 198 199
f 144 199 145
f 145 199 146
f 146 200 201
f 146 201 202
f 146 202 147
f 146 199 198
f 146 198 203
f 146 203 200
f 147 194 149
f 147 149 148
f 147 202 204
f 147 204 194
f 153 197 180
f 155 184 161
f 157 160 161
f 157 161 158
f 158 205 159
f 158 161 184
f 158 184 205
f 159 205 162
f 162 205 206
f 163 208 252
f 163 252 315
f 163 315 326
f 163 326 399
f 163 399 479
f 163 479 424
f 163 424 360
f 163 360 301
f 163 301 243
f 163 243 207
f 167 209 210
f 167 210 170
f 168 185 172
f 168 169 185
f 169 171 211
f 169 211 185
f 170 210 212
f 170 212 211
f 170 211 171
f 172 185 173
f 174 213 219
f 174 219 175
f 174 182 214
f 174 214 215
f 174 215 216
f 174 216 217
f 174 217 218
f 174 218 260
f 174 260 213
f 175 219 220
f 175 220 176
f 176 220 177
f 177 221 178
f 177 220 222
f 177 222 221
f 178 221 183
f 178 183 179
f 180 197 181
f 181 223 224
f 181 224 182
f 181 197 223
f 182 224 214
f 183 221 225
f 183 225 205
f 183 205 184
f 185 211 187
f 185 187 186
f 187 211 188
f 188 190 189
f 188 211 226
f 188 226 227
f 188 227 191
f 188 191 190
f 191 227 226
f 191 226 203
f 191 203 192
f 192 203 198
f 194 196 195
f 194 204 228
f 194 228 196
f 196 223 197
f 196 228 229
f 196 229 230
f 196 230 223
f 200 203 231
f 200 231 201
f 201 231 232
f 201 232 233
f 201 233 234
f 201 234 235
f 201 235 236
f 201 236 237
f 201 237 238
f 201 238 202
f 202 238 239
f 202 239 240
f 202 240 241
f 202 241 228
f 202 228 204
f 203 226 242
f 203 242 231
f 205 225 222
f 205 222 206
f 207 243 244
f 207 244 245
f 207 245 246
f 207 246 247
f 207 247 248
f 207 248 249
f 207 249 250
f 208 251 220
f 208 220 252
f 209 253 254
f 209 254 255
f 209 255 210
f 210 255 212
f 211 242 226
f 211 212 256
f 211 256 257
f 211 257 242
f 212 255 258
f 212 258 256
f 213 259 219
f 213 260 261
f 213 261 262
f 213 262 263
f 213 263 264
f 213 264 265
f 213 265 266
f 213 266 267
f 213 267 268
f 213 268 259
f 214 224 215
f 215 224 269
f 215 269 216
f 216 269 270
f 216 270 271
f 216 271 272
f 216 272 273
f 216 273 217
f 217 273 272
f 217 272 274
f 217 274 218
f 218 274 275
f 218 275 276
f 218 276 260
f 219 259 277
f 219 277 220
f 220 277 278
f 220 278 252
f 220 251 279
f 220 279 280
f 220 280 222
f 221 222 225
f 223 230 224
f 224 230 269
f 228 241 281
f 228 281 282
f 228 282 283
f 228 283 284
f 228 284 285
f 228 285 286
f 228 286 287
f 228 287 288
f 228 288 229
f 229 288 289
f 229 289 230
f 230 289 290
f 230 290 269
f 231 242 232
f 232 242 233
f 233 291 292
f 233 292 235
f 233 235 234
f 233 242 291
f 235 292 293
f 235 293 297
f 235 297 294
f 235 294 236
f 236 295 296
f 236 296 239
f 236 239 237
f 236 294 297
f 236 297 295
f 237 239 238
f 239 296 240
f 240 298 282
f 240 282 281
f 240 281 241
f 240 296 299
f 240 299 298
f 242 257 300
f 242 300 291
f 243 301 302
f 243 302 244
f 244 302 303
f 244 303 304
f 244 304 305
f 244 305 246
f 244 246 245
f 246 305 306
f 246 306 247
f 247 306 307
f 247 307 308
f 247 308 309
f 247 309 248
f 248 309 249
f 249 309 310
f 249 310 311
f 249 311 312
f 249 312 313
f 249 313 314
f 249 314 250
f 252 278 259
f 252 259 315
f 253 316 254
f 254 317 318
f 254 318 319
f 254 319 320
f 254 320 321
f 254 321 255
f 254 316 322
f 254 322 317
f 255 321 258
f 256 323 257
f 256 258 321
f 256 321 324
f 256 324 323
f 257 323 300
f 259 278 277
f 259 268 325
f 259 325 326
f 259 326 315
f 260 276 327
f 260 327 261
f 261 327 328
f 261 328 262
f 262 329 264
f 262 264 263
f 262 328 330
f 262 330 329
f 264 329 331
f 264 331 332
f 264 332 333
f 264 333 334
f 264 334 265
f 265 334 266
f 266 334 267
f 267 334 335
f 267 335 268
f 268 335 336
f 268 336 337
f 268 337 325
f 269 290 270
f 270 290 338
f 270 338 339
f 270 339 271
f 271 339 272
f 272 339 340
f 272 340 341
f 272 341 342
f 272 342 274
f 274 342 275
f 275 342 276
f 276 342 327
f 282 298 283
f 283 298 343
f 283 343 284
f 284 343 344
f 284 344 345
f 284 345 346
f 284 346 347
f 284 347 348
f 284 348 285
f 285 348 349
f 285 349 350
f 285 350 351
f 285 351 352
f 285 352 286
f 286 352 287
f 287 290 289
f 287 289 288
f 287 352 351
f 287 351 290
f 290 351 350
f 290 350 338
f 291 300 292
f 292 300 323
f 292 323 353
f 292 353 293
f 293 353 355
f 293 355 297
f 295 297 354
f 295 354 299
f 295 299 296
f 297 355 357
f 297 357 354
f 298 299 356
f 298 356 343
f 299 354 357
f 299 357 358
f 299 358 359
f 299 359 356
f 301 360 361
f 301 361 362
f 301 362 302
f 302 362 363
f 302 363 364
f 302 364 365
f 302 365 366
f 302 366 367
f 302 367 305
f 302 305 303
f 303 305 304
f 305 367 366
f 305 366 368
f 305 368 306
f 306 368 307
f 307 369 370
f 307 370 371
f 307 371 308
f 307 368 369
f 308 371 372
f 308 372 309
f 309 373 374
f 309 374 310
f 309 372 373
f 310 374 375
f 310 375 376
f 310 376 377
f 310 377 378
f 310 378 311
f 311 378 312
f 312 378 313
f 313 378 379
f 313 379 380
f 313 380 381
f 313 381 382
f 313 382 383
f 313 383 384
f 313 384 385
f 313 385 471
f 313 471 386
f 313 386 387
f 313 387 388
f 313 388 389
f 313 389 314
f 317 390 391
f 317 391 392
f 317 392 318
f 317 322 390
f 318 392 393
f 318 393 319
f 319 393 320
f 320 394 321
f 320 393 394
f 321 394 324
f 322 395 390
f 323 324 394
f 323 394 353
f 325 337 396
f 325 396 397
f 325 397 398
f 325 398 326
f 326 398 397
f 326 397 400
f 326 400 399
f 327 342 328
f 328 342 401
f 328 401 330
f 329 330 402
f 329 402 331
f 330 401 402
f 331 402 403
f 331 403 332
f 332 404 333
f 332 403 404
f 333 405 334
f 333 404 405
f 334 406 335
f 334 405 406
f 335 406 407
f 335 407 336
f 336 407 408
f 336 408 409
f 336 409 337
f 337 409 396
f 338 350 410
f 338 410 339
f 339 410 340
f 340 410 411
f 340 411 412
f 340 412 413
f 340 413 341
f 341 413 414
f 341 414 342
f 342 414 401
f 343 356 415
f 343 415 344
f 344 415 345
f 345 415 346
f 346 415 347
f 347 415 416
f 347 416 417
f 347 417 349
f 347 349 348
f 349 417 418
f 349 418 350
f 350 418 419
f 350 419 420
f 350 420 411
f 350 411 410
f 353 394 355
f 355 394 358
f 355 358 357
f 356 359 421
f 356 421 422
f 356 422 394
f 356 394 393
f 356 393 415
f 358 394 422
f 358 422 421
f 358 421 359
f 360 423 361
f 360 424 425
f 360 425 426
f 360 426 427
f 360 427 423
f 361 423 428
f 361 428 363
f 361 363 362
f 363 429 430
f 363 430 365
f 363 365 364
f 363 428 425
f 363 425 429
f 365 430 431
f 365 431 432
f 365 432 433
f 365 433 368
f 365 368 434
f 365 434 366
f 366 434 368
f 368 433 435
f 368 435 436
f 368 436 369
f 369 436 437
f 369 437 438
f 369 438 370
f 370 438 439
f 370 439 440
f 370 440 372
f 370 372 371
f 372 440 373
f 373 440 439
f 373 439 441
f 373 441 374
f 374 441 442
f 374 442 443
f 374 443 444
f 374 444 445
f 374 445 446
f 374 446 447
f 374 447 375
f 375 447 448
f 375 448 376
f 376 448 449
f 376 449 450
f 376 450 451
f 376 451 452
f 376 452 453
f 376 453 377
f 377 453 454
f 377 454 378
f 378 455 456
f 378 456 457
f 378 457 458
f 378 458 459
f 378 459 460
f 378 460 461
f 378 461 379
f 378 454 455
f 379 461 380
f 380 461 460
f 380 460 462
f 380 462 381
f 381 462 382
f 382 462 463
f 382 463 383
f 383 463 464
f 383 464 465
f 383 465 466
f 383 466 467
f 383 467 384
f 384 467 385
f 385 467 468
f 385 468 469
f 385 469 391
f 385 391 470
f 385 470 395
f 385 395 471
f 390 395 391
f 391 469 466
f 391 466 472
f 391 472 473
f 391 473 392
f 391 395 470
f 392 473 474
f 392 474 393
f 393 474 415
f 396 409 475
f 396 475 476
f 396 476 397
f 397 476 477
f 397 477 478
f 397 478 400
f 399 400 479
f 400 478 480
f 400 480 481
f 400 481 479
f 401 482 483
f 401 483 402
f 401 414 484
f 401 484 482
f 402 483 485
f 402 485 403
f 403 485 486
f 403 486 487
f 403 487 488
f 403 488 404
f 404 488 489
f 404 489 490
f 404 490 491
f 404 491 492
f 404 492 493
f 404 493 405
f 405 493 406
f 406 494 407
f 406 493 494
f 407 495 408
f 407 494 495
f 408 475 409
f 408 495 475
f 411 420 412
f 412 420 496
f 412 496 497
f 412 497 413
f 413 497 414
f 414 497 498
f 414 498 484
f 415 474 499
f 415 499 416
f 416 500 501
f 416 501 417
f 416 499 502
f 416 502 500
f 417 503 419
f 417 419 418
f 417 501 504
f 417 504 505
f 417 505 506
f 417 506 503
f 419 503 507
f 419 507 508
f 419 508 420
f 420 508 496
f 423 427 428
f 424 479 425
f 425 509 429
f 425 428 510
f 425 510 426
f 425 479 509
f 426 510 428
f 426 428 427
f 429 481 480
f 429 480 511
f 429 511 512
f 429 512 513
f 429 513 514
f 429 514 515
f 429 515 430
f 429 509 479
f 429 479 481
f 430 515 431
f 431 439 432
f 431 515 439
f 432 437 436
f 432 436 435
f 432 435 433
f 432 439 437
f 437 439 438
f 439 516 441
f 439 515 516
f 441 516 517
f 441 517 442
f 442 517 443
f 443 517 444
f 444 517 445
f 445 517 518
f 445 518 446
f 446 518 447
f 447 518 448
f 448 518 519
f 448 519 449
f 449 519 520
f 449 520 450
f 450 520 521
f 450 521 451
f 451 521 522
f 451 522 452
f 452 522 453
f 453 522 523
f 453 523 454
f 454 523 522
f 454 522 455
f 455 524 525
f 455 525 526
f 455 526 527
f 455 527 528
f 455 528 529
f 455 529 530
f 455 530 456
f 455 522 531
f 455 531 520
f 455 520 532
f 455 532 524
f 456 533 534
f 456 534 535
f 456 535 536
f 456 536 457
f 456 530 537
f 456 537 533
f 457 536 538
f 457 538 459
f 457 459 458
f 459 538 460
f 460 538 539
f 460 539 540
f 460 540 541
f 460 541 462
f 462 541 542
f 462 542 543
f 462 543 544
f 462 544 545
f 462 545 546
f 462 546 463
f 463 546 464
f 464 546 547
f 464 547 548
f 464 548 465
f 465 549 466
f 465 548 550
f 465 550 549
f 466 549 551
f 466 551 472
f 466 469 468
f 466 468 467
f 472 552 473
f 472 551 552
f 473 552 474
f 474 552 500
f 474 500 499
f 475 495 553
f 475 553 554
f 475 554 555
f 475 555 476
f 476 556 512
f 476 512 477
f 476 555 556
f 477 512 511
f 477 511 478
f 478 511 480
f 482 484 483
f 483 484 557
f 483 557 558
f 483 558 485
f 484 498 559
f 484 559 557
f 485 558 560
f 485 560 486
f 486 561 562
f 486 562 488
f 486 488 487
f 486 560 563
f 486 563 564
f 486 564 565
f 486 565 535
f 486 535 534
f 486 534 533
f 486 533 537
f 486 537 561
f 488 562 489
f 489 562 561
f 489 561 566
f 489 566 490
f 490 566 491
f 491 567 568
f 491 568 569
f 491 569 492
f 491 566 570
f 491 570 567
f 492 569 493
f 493 569 568
f 493 568 567
f 493 567 571
f 493 571 494
f 494 572 573
f 494 573 495
f 494 571 572
f 495 573 572
f 495 572 574
f 495 574 517
f 495 517 575
f 495 575 576
f 495 576 553
f 496 508 497
f 497 508 498
f 498 508 577
f 498 577 559
f 499 500 502
f 500 552 501
f 501 552 504
f 503 506 578
f 503 578 507
f 504 552 505
f 505 552 506
f 506 579 578
f 506 552 551
f 506 551 579
f 507 580 548
f 507 548 581
f 507 581 508
f 507 578 580
f 508 581 577
f 512 556 582
f 512 582 515
f 512 515 513
f 513 515 514
f 515 582 516
f 516 582 583
f 516 583 517
f 517 574 584
f 517 584 572
f 517 572 518
f 517 583 585
f 517 585 586
f 517 586 587
f 517 587 575
f 518 572 588
f 518 588 520
f 518 520 519
f 520 531 522
f 520 522 521
f 520 588 532
f 524 532 588
f 524 588 525
f 525 589 590
f 525 590 591
f 525 591 526
f 525 588 592
f 525 592 589
f 526 591 527
f 527 591 537
f 527 537 528
f 528 537 529
f 529 537 530
f 535 565 536
f 536 593 540
f 536 540 594
f 536 594 595
f 536 595 538
f 536 565 593
f 537 591 567
f 537 567 561
f 538 595 594
f 538 594 596
f 538 596 539
f 539 596 594
f 539 594 540
f 540 593 541
f 541 593 542
f 542 593 543
f 543 593 544
f 544 593 597
f 544 597 546
f 544 546 545
f 546 597 581
f 546 581 598
f 546 598 547
f 547 598 548
f 548 599 550
f 548 598 581
f 548 580 599
f 549 550 600
f 549 600 602
f 549 602 551
f 550 599 601
f 550 601 600
f 551 602 579
f 553 587 603
f 553 603 554
f 553 576 575
f 553 575 587
f 554 603 585
f 554 585 583
f 554 583 582
f 554 582 556
f 554 556 555
f 557 559 604
f 557 604 558
f 558 604 563
f 558 563 560
f 559 577 605
f 559 605 604
f 561 567 570
f 561 570 566
f 563 604 605
f 563 605 606
f 563 606 564
f 564 606 593
f 564 593 565
f 567 607 608
f 567 608 571
f 567 591 590
f 567 590 589
f 567 589 592
f 567 592 588
f 567 588 607
f 571 608 572
f 572 584 574
f 572 608 607
f 572 607 588
f 577 581 605
f 578 609 610
f 578 610 580
f 578 579 609
f 579 602 609
f 580 610 599
f 581 597 605
f 585 603 587
f 585 587 586
f 593 606 597
f 597 606 605
f 599 610 601
f 600 601 610
f 600 610 611
f 600 611 602
f 602 611 609
f 609 611 610

