# https://github.com/mikedh/trimesh
v -0.16811220 -0.02164401 0.16299276
v -0.16811220 -0.02199403 0.15586000
v -0.17049188 -0.02202096 0.15586000
v -0.17049188 -0.02173555 0.16299276
v -0.17049188 -0.02251638 0.18200085
v -0.16811220 -0.02245715 0.18200085
v -0.16573974 -0.02187018 0.16299276
v -0.16811220 -0.02258639 0.15419396
v -0.17049188 -0.02260254 0.15419869
v -0.16593504 -0.02257562 0.15586000
v -0.16628223 -0.02277486 0.15435961
v -0.17523678 -0.02232252 0.15586000
v -0.17285710 -0.02187556 0.16299276
v -0.17285710 -0.02266716 0.15422709
v -0.17523678 -0.02273717 0.15427442
v -0.17761646 -0.02281256 0.15433595
v -0.18236859 -0.02296872 0.15449214
v -0.18474104 -0.02304950 0.15458680
v -0.18617319 -0.02309797 0.15464833
v -0.17041231 -0.02288256 0.18454725
v -0.17523678 -0.02203173 0.16299276
v -0.19075897 -0.02310874 0.16422810
v -0.17871589 -0.02311951 0.18302319
v -0.17713185 -0.02306566 0.18343024
v -0.17523678 -0.02300104 0.18372842
v -0.17285710 -0.02292026 0.18405974
v -0.16634733 -0.02292026 0.18369055
v -0.16597120 -0.02279640 0.18200085
v -0.16830026 -0.02286102 0.18444311
v -0.16453906 -0.02310335 0.17857882
v -0.16393871 -0.02269409 0.16536878
v -0.16384468 -0.02261870 0.16299276
v -0.16811220 -0.02430421 0.15370645
v -0.17049188 -0.02430421 0.15371118
v -0.17285710 -0.02430421 0.15373958
v -0.17523678 -0.02430421 0.15378691
v -0.16407614 -0.02278563 0.16106640
v -0.16474882 -0.02334029 0.15586000
v -0.16425696 -0.02486964 0.15438801
v -0.13551271 -0.06556433 0.14745404
v -0.17761646 -0.02247869 0.15586000
v -0.20138436 -0.02491272 0.15418922
v -0.17998891 -0.02289334 0.15440695
v -0.20138436 -0.02423421 0.15586000
v -0.19900467 -0.02366878 0.16299276
v -0.19075897 -0.02310874 0.16175270
v -0.17115732 -0.02315182 0.18545600
v -0.16957328 -0.02309797 0.18558379
v -0.16921886 -0.02309797 0.18558379
v -0.19080236 -0.02310335 0.16299276
v -0.19900467 -0.02448192 0.18200085
v -0.19662499 -0.02431498 0.18200085
v -0.19900467 -0.02484272 0.18437686
v -0.17285710 -0.02321644 0.18524775
v -0.16763481 -0.02337260 0.18527614
v -0.16552276 -0.02407804 0.18459458
v -0.16380851 -0.02478348 0.18391301
v -0.16477775 -0.02320567 0.18200085
v -0.16464755 -0.02315182 0.18016440
v -0.16340346 -0.02439576 0.18200085
v -0.16275248 -0.02369570 0.16536878
v -0.16265122 -0.02363108 0.16299276
v -0.13622879 -0.06537047 0.14745404
v -0.16202194 -0.05864456 0.14745404
v -0.16336006 -0.05857995 0.14745404
v -0.16549382 -0.05869303 0.14745404
v -0.16613033 -0.05873611 0.14745404
v -0.16811220 -0.05887612 0.14745404
v -0.20138436 -0.02667901 0.15370172
v -0.16188452 -0.02504196 0.16122259
v -0.13481110 -0.06707752 0.14745404
v -0.16173985 -0.02482118 0.16299276
v -0.16178325 -0.02488580 0.16536878
v -0.16213767 -0.02543507 0.17912313
v -0.16218107 -0.02550507 0.18070871
v -0.16221723 -0.02560200 0.18200085
v -0.20322879 -0.02512812 0.15435488
v -0.20359044 -0.02491272 0.15586000
v -0.20375680 -0.02432575 0.16299276
v -0.20138436 -0.02385725 0.16299276
v -0.20059595 -0.02540815 0.18566425
v -0.19900467 -0.02532737 0.18574945
v -0.17523678 -0.02575279 0.18769948
v -0.17285710 -0.02567201 0.18777521
v -0.17523678 -0.02821913 0.18999029
v -0.17523678 -0.02940922 0.19105997
v -0.19662499 -0.02649054 0.18701318
v -0.18950041 -0.02624283 0.18724037
v -0.17049188 -0.02582818 0.18774682
v -0.16830026 -0.02421805 0.18611390
v -0.17285710 -0.02836991 0.19000450
v -0.20138436 -0.02469732 0.18200085
v -0.20138436 -0.02513889 0.18449519
v -0.16628946 -0.02495580 0.18583938
v -0.16470542 -0.02562893 0.18549386
v -0.16303457 -0.02642053 0.18468450
v -0.16195685 -0.02720675 0.18387042
v -0.16921886 -0.05938770 0.14745404
v -0.18871200 -0.06892459 0.14745404
v -0.19021649 -0.06974850 0.14745404
v -0.19091809 -0.07024931 0.14745404
v -0.20375680 -0.02905381 0.15374905
v -0.20391593 -0.02653362 0.15411349
v -0.17049188 -0.05998005 0.14745404
v -0.13473877 -0.06803606 0.14745404
v -0.16226063 -0.02814374 0.18545600
v -0.16209427 -0.02972694 0.18565479
v -0.20523236 -0.02722290 0.15438328
v -0.20477667 -0.02568817 0.15586000
v -0.20532638 -0.02522505 0.16110426
v -0.20551444 -0.02509043 0.16299276
v -0.20375680 -0.02443884 0.16536878
v -0.20348195 -0.02516043 0.18200085
v -0.20543487 -0.02514966 0.16536878
v -0.20499366 -0.02545661 0.17665246
v -0.19972074 -0.02813836 0.18782728
v -0.19813671 -0.02776679 0.18803553
v -0.19662499 -0.02768063 0.18811600
v -0.20218000 -0.02566663 0.18536134
v -0.17761646 -0.02949000 0.19102211
v -0.19187286 -0.02751369 0.18827219
v -0.18236859 -0.02965155 0.19087065
v -0.17761646 -0.03090626 0.19221011
v -0.17523678 -0.03099781 0.19224798
v -0.19425254 -0.03006081 0.19048727
v -0.17049188 -0.02701288 0.18852777
v -0.17285710 -0.02956000 0.19081385
v -0.20312752 -0.02528967 0.18377575
v -0.16804710 -0.02665209 0.18745336
v -0.16559508 -0.02652285 0.18632689
v -0.16630393 -0.02970002 0.18821539
v -0.16560232 -0.02896765 0.18754329
v -0.16384468 -0.02721213 0.18589144
v -0.19106275 -0.07183251 0.14745404
v -0.20538425 -0.02905381 0.15423655
v -0.13464474 -0.06945771 0.14745404
v -0.16202194 -0.03143400 0.18573998
v -0.15978692 -0.06095474 0.18557906
v -0.16471988 -0.03063701 0.18786988
v -0.16683917 -0.03471348 0.19040208
v -0.16445949 -0.03222021 0.18803080
v -0.16437269 -0.03380880 0.18811126
v -0.20781456 -0.02905381 0.16088181
v -0.20756864 -0.02750292 0.16127466
v -0.20670067 -0.02612974 0.16299276
v -0.20492133 -0.02550507 0.17823804
v -0.20482730 -0.02554277 0.17962484
v -0.20466817 -0.02561816 0.18200085
v -0.19726873 -0.03064240 0.19014649
v -0.19323268 -0.03254331 0.19275442
v -0.19568469 -0.03015236 0.19040681
v -0.20313476 -0.02725521 0.18584885
v -0.20141329 -0.02897842 0.18746757
v -0.20392317 -0.02642591 0.18461351
v -0.20471881 -0.02812759 0.18544654
v -0.19187286 -0.03128322 0.19175101
v -0.19187286 -0.03247331 0.19280175
v -0.17761646 -0.03209636 0.19300054
v -0.17523678 -0.03218790 0.19292481
v -0.17381186 -0.03241946 0.19278755
v -0.17295836 -0.03154708 0.19200186
v -0.17130198 -0.02991542 0.19048254
v -0.17049911 -0.02909689 0.18972998
v -0.20556507 -0.02718520 0.18386095
v -0.16722253 -0.03313028 0.19019382
v -0.16971794 -0.03060470 0.19014175
v -0.16880657 -0.03218790 0.19053460
v -0.19085299 -0.07373343 0.14745404
v -0.20290330 -0.06707752 0.15431702
v -0.20301179 -0.06470273 0.15423182
v -0.20527575 -0.03380880 0.15431228
v -0.20534808 -0.03143400 0.15426022
v -0.20792305 -0.03143400 0.16076822
v -0.13479664 -0.07013084 0.14745404
v -0.15978692 -0.06118091 0.18557906
v -0.16317924 -0.03380880 0.18700372
v -0.16260782 -0.05044316 0.18753856
v -0.16626053 -0.05044316 0.19093691
v -0.16618096 -0.05281796 0.19101264
v -0.16491517 -0.05519276 0.18998083
v -0.16610140 -0.05519276 0.19102684
v -0.16922609 -0.03718521 0.19274969
v -0.16675238 -0.03618359 0.19047781
v -0.20853064 -0.03143400 0.16299276
v -0.20829918 -0.02905381 0.16299276
v -0.20769159 -0.02731983 0.16299276
v -0.20662834 -0.02624283 0.16536878
v -0.20590503 -0.02680287 0.18200085
v -0.19481672 -0.03316259 0.19247044
v -0.19411511 -0.03389496 0.19300054
v -0.19187286 -0.03931768 0.19523929
v -0.19187286 -0.03618359 0.19422168
v -0.19187286 -0.03380880 0.19336025
v -0.20385807 -0.02897304 0.18624643
v -0.20292500 -0.03221483 0.18812073
v -0.19897574 -0.03143400 0.18974417
v -0.20625945 -0.02903227 0.18446205
v -0.20537702 -0.02971078 0.18579678
v -0.20373511 -0.03142861 0.18737290
v -0.18950041 -0.03380880 0.19344545
v -0.18712073 -0.03380880 0.19351171
v -0.17998891 -0.03380880 0.19370577
v -0.18950041 -0.03241946 0.19283961
v -0.17761646 -0.03380880 0.19376730
v -0.17628557 -0.03727676 0.19511150
v -0.17523678 -0.03380880 0.19357798
v -0.17285710 -0.03618359 0.19378623
v -0.17295836 -0.03387341 0.19303367
v -0.17133815 -0.03470810 0.19282069
v -0.17222782 -0.03311951 0.19246097
v -0.17049911 -0.03141245 0.19088012
v -0.20709849 -0.02850992 0.18200085
v -0.20741674 -0.02993696 0.18347757
v -0.16975411 -0.03559663 0.19251303
v -0.17052804 -0.03387341 0.19210126
v -0.19084576 -0.07379805 0.14745404
v -0.20275141 -0.06861226 0.15447321
v -0.20539871 -0.06707752 0.16096227
v -0.20562294 -0.06470273 0.16072562
v -0.20733718 -0.04944693 0.16176216
v -0.20497920 -0.04265640 0.15462467
v -0.19079513 -0.07406730 0.14745404
v -0.19055644 -0.07525201 0.14745404
v -0.20503706 -0.04093858 0.15455367
v -0.20511663 -0.03856378 0.15445901
v -0.20519619 -0.03618359 0.15438328
v -0.20787242 -0.03380880 0.16081554
v -0.13558504 -0.07103014 0.14783269
v -0.13536805 -0.07116477 0.14745404
v -0.16014858 -0.06276411 0.18518621
v -0.16377958 -0.05994774 0.18845678
v -0.16095868 -0.06211253 0.18604764
v -0.16775054 -0.05519276 0.19221485
v -0.16513217 -0.05757294 0.18996190
v -0.16632562 -0.05757294 0.19074759
v -0.16428590 -0.03618359 0.18818699
v -0.16650646 -0.04331876 0.19070973
v -0.16797477 -0.03856378 0.19174628
v -0.16916099 -0.03856378 0.19279702
v -0.16759865 -0.05281796 0.19220065
v -0.17052804 -0.03630745 0.19302421
v -0.17285710 -0.03856378 0.19425481
v -0.17049188 -0.03856378 0.19336972
v -0.20767714 -0.03143400 0.18200085
v -0.20779286 -0.03618359 0.16089127
v -0.20842938 -0.03380880 0.16299276
v -0.20761927 -0.03380880 0.18200085
v -0.20748908 -0.02969463 0.18200085
v -0.20732994 -0.02785833 0.17375581
v -0.19652373 -0.03389496 0.19202079
v -0.19565576 -0.03474579 0.19279228
v -0.19815840 -0.03222560 0.19049200
v -0.19425254 -0.03618359 0.19371050
v -0.19306632 -0.03974310 0.19507363
v -0.19208261 -0.04073933 0.19535289
v -0.18950041 -0.04093858 0.19577413
v -0.18950041 -0.03884919 0.19540968
v -0.18950041 -0.03766448 0.19496004
v -0.18950041 -0.03618359 0.19438260
v -0.20042959 -0.03471887 0.19043994
v -0.19897574 -0.03387880 0.19080439
v -0.20579653 -0.03143400 0.18617070
v -0.20698276 -0.03143400 0.18497796
v -0.18116790 -0.03737369 0.19507363
v -0.18022037 -0.03639361 0.19471392
v -0.17957662 -0.03731984 0.19509256
v -0.17761646 -0.03607051 0.19465239
v -0.17589498 -0.03856378 0.19526295
v -0.17761646 -0.03726060 0.19511623
v -0.17761646 -0.03856378 0.19546174
v -0.17470876 -0.03856378 0.19487011
v -0.20748184 -0.03143400 0.18378995
v -0.19845496 -0.07578512 0.15416556
v -0.20251272 -0.07478889 0.15717580
v -0.19067216 -0.07536509 0.14755344
v -0.19328331 -0.07554280 0.14974959
v -0.19587275 -0.07567742 0.15195521
v -0.20513109 -0.06854764 0.16137878
v -0.20585440 -0.06707752 0.16299276
v -0.20628115 -0.06470273 0.16299276
v -0.20275141 -0.07566665 0.15875665
v -0.20734442 -0.04954924 0.16299276
v -0.20761203 -0.04569356 0.16299276
v -0.20738781 -0.04806836 0.16162491
v -0.20746737 -0.04569356 0.16141191
v -0.20754693 -0.04331876 0.16123679
v -0.20763373 -0.04093858 0.16109953
v -0.20771329 -0.03856378 0.16098594
v -0.19033222 -0.07540817 0.14745404
v -0.16084295 -0.06478889 0.18451885
v -0.14777278 -0.07306029 0.15475719
v -0.13732098 -0.07178943 0.14745404
v -0.16154456 -0.06651748 0.18385148
v -0.16330220 -0.06727138 0.18451885
v -0.16419187 -0.06838070 0.18360536
v -0.16173262 -0.06402960 0.18579205
v -0.16241253 -0.06561818 0.18543707
v -0.16339623 -0.06232254 0.18736343
v -0.16827856 -0.05741678 0.19191667
v -0.16583378 -0.05986697 0.18964005
v -0.16878487 -0.05281796 0.19299581
v -0.16893677 -0.05519276 0.19289642
v -0.16918269 -0.05651748 0.19274969
v -0.17049188 -0.04093858 0.19344071
v -0.17049188 -0.05281796 0.19376257
v -0.16910313 -0.04093858 0.19283488
v -0.17553333 -0.04093858 0.19540968
v -0.17434711 -0.04093858 0.19495531
v -0.17285710 -0.04093858 0.19437314
v -0.20745291 -0.03380880 0.18378049
v -0.20733718 -0.04944693 0.16429910
v -0.20732271 -0.03741138 0.18320305
v -0.19723980 -0.03563971 0.19241837
v -0.19794141 -0.03722829 0.19275442
v -0.19652373 -0.03633438 0.19298161
v -0.19662499 -0.03856378 0.19347385
v -0.19812224 -0.03856378 0.19286802
v -0.19662499 -0.04093858 0.19364898
v -0.19306632 -0.03981849 0.19507363
v -0.19175713 -0.04331876 0.19543808
v -0.18950041 -0.04331876 0.19580253
v -0.18712073 -0.04093858 0.19579780
v -0.18712073 -0.03876841 0.19542862
v -0.20595566 -0.03380880 0.18645468
v -0.20447288 -0.03380880 0.18764268
v -0.20327942 -0.03380880 0.18845204
v -0.20714189 -0.03380880 0.18496849
v -0.17761646 -0.04093858 0.19577413
v -0.18474104 -0.03869302 0.19543808
v -0.18236859 -0.03860686 0.19543808
v -0.17998891 -0.04093858 0.19580726
v -0.18236859 -0.04093858 0.19580726
v -0.19665392 -0.07600052 0.15341773
v -0.19914934 -0.07612977 0.15570381
v -0.20092867 -0.07584436 0.15639484
v -0.19187286 -0.07567742 0.14920528
v -0.19414404 -0.07582282 0.15114112
v -0.20275141 -0.07566665 0.15978373
v -0.20491410 -0.06818684 0.17313104
v -0.20512385 -0.06638824 0.18200085
v -0.20543487 -0.06470273 0.18200085
v -0.20565187 -0.06232793 0.18200085
v -0.20158688 -0.07609207 0.15807509
v -0.18925448 -0.07561818 0.14745404
v -0.14738943 -0.07307645 0.15348399
v -0.14197185 -0.07268873 0.14873197
v -0.13959217 -0.07234409 0.14745404
v -0.15022479 -0.07304953 0.15709060
v -0.15622825 -0.07370650 0.15823601
v -0.16399658 -0.06644209 0.18583938
v -0.16573974 -0.06808453 0.18527141
v -0.15640184 -0.07332955 0.16057416
v -0.15451401 -0.07322185 0.15975533
v -0.16699830 -0.06826223 0.18555066
v -0.16573974 -0.06849379 0.18408340
v -0.16326603 -0.06477812 0.18623696
v -0.16571081 -0.06476735 0.18745336
v -0.16669451 -0.05902152 0.19043521
v -0.16988430 -0.05810606 0.19241364
v -0.16897293 -0.06152017 0.19048727
v -0.17402162 -0.05404036 0.19508310
v -0.17049188 -0.05519276 0.19352118
v -0.17060761 -0.05741678 0.19297214
v -0.17146834 -0.05899998 0.19278755
v -0.17285710 -0.04331876 0.19443940
v -0.17306685 -0.05026545 0.19470918
v -0.17399992 -0.05094397 0.19509256
v -0.17280646 -0.05281796 0.19465239
v -0.17545377 -0.04331876 0.19542862
v -0.20736611 -0.03618359 0.18340657
v -0.20531192 -0.06232793 0.18437686
v -0.20495027 -0.06351802 0.18556960
v -0.20598459 -0.05757294 0.18200085
v -0.20073337 -0.03618359 0.19072866
v -0.19930846 -0.03856378 0.19212492
v -0.19820903 -0.04093858 0.19293901
v -0.19662499 -0.04569356 0.19352118
v -0.19425254 -0.04331876 0.19451986
v -0.19401385 -0.04073933 0.19468079
v -0.19808607 -0.04569356 0.19287748
v -0.19802820 -0.04806836 0.19284434
v -0.19797035 -0.05044316 0.19280648
v -0.19294335 -0.04331876 0.19503104
v -0.19143887 -0.05281796 0.19536235
v -0.19151844 -0.05044316 0.19539075
v -0.19159800 -0.04806836 0.19541442
v -0.19167756 -0.04569356 0.19543335
v -0.18950041 -0.04569356 0.19579780
v -0.18712073 -0.05044316 0.19580726
v -0.18712073 -0.04331876 0.19580726
v -0.20586163 -0.03618359 0.18644522
v -0.20461030 -0.03618359 0.18763322
v -0.20342408 -0.03618359 0.18870290
v -0.20192684 -0.03618359 0.18989090
v -0.17761646 -0.04331876 0.19579306
v -0.17537421 -0.04569356 0.19543808
v -0.17761646 -0.04806836 0.19580726
v -0.17761646 -0.04569356 0.19580253
v -0.19662499 -0.07648518 0.15586000
v -0.19900467 -0.07665750 0.15823601
v -0.19425254 -0.07628593 0.15348399
v -0.20133372 -0.07595744 0.16059309
v -0.20038619 -0.07071242 0.18338764
v -0.20174601 -0.07029778 0.18200085
v -0.20346025 -0.06910768 0.18200085
v -0.20464647 -0.06757833 0.18200085
v -0.20504429 -0.06617284 0.18352963
v -0.20512385 -0.06446578 0.18434372
v -0.18711349 -0.07573666 0.14745404
v -0.19187286 -0.07605976 0.15110798
v -0.14588495 -0.07299568 0.15110798
v -0.14909643 -0.07321646 0.15348399
v -0.14197185 -0.07271027 0.14745404
v -0.15622825 -0.07371189 0.15586000
v -0.15860793 -0.07362034 0.16061675
v -0.16098038 -0.07380882 0.16061675
v -0.18103771 -0.07540817 0.15952815
v -0.15860793 -0.07387344 0.15823601
v -0.16811220 -0.06448194 0.18857037
v -0.16573974 -0.06689443 0.18627009
v -0.16811220 -0.06567203 0.18784147
v -0.16943585 -0.06588205 0.18793614
v -0.17033275 -0.06686751 0.18707472
v -0.17285710 -0.06719061 0.18693745
v -0.17761646 -0.06735216 0.18709364
v -0.18474104 -0.06759987 0.18732084
v -0.16858235 -0.06830531 0.18561219
v -0.19425254 -0.06917769 0.18643575
v -0.19662499 -0.07044855 0.18493063
v -0.19662499 -0.07076089 0.18374262
v -0.18554392 -0.07541894 0.16182843
v -0.16648475 -0.06401883 0.18816332
v -0.17049188 -0.06200482 0.19086118
v -0.17060761 -0.05985620 0.19201132
v -0.17285710 -0.06069626 0.19250830
v -0.17399269 -0.05281796 0.19509730
v -0.17523678 -0.05281796 0.19541442
v -0.17523678 -0.05437962 0.19521563
v -0.17285710 -0.05757294 0.19368210
v -0.17285710 -0.05951155 0.19301474
v -0.17500532 -0.05026545 0.19537655
v -0.20463201 -0.06510660 0.18511521
v -0.20380744 -0.06446578 0.18608077
v -0.20228126 -0.06232793 0.18781781
v -0.20257058 -0.06109476 0.18794087
v -0.20437162 -0.04331876 0.18740603
v -0.20087804 -0.03856378 0.19093691
v -0.19939526 -0.04093858 0.19206813
v -0.19662499 -0.05044316 0.19338865
v -0.19262510 -0.05281796 0.19490324
v -0.19425254 -0.04806836 0.19439207
v -0.19791247 -0.05281796 0.19276388
v -0.19115679 -0.05472426 0.19525822
v -0.18950041 -0.05281796 0.19572680
v -0.19684922 -0.05531661 0.19311887
v -0.19425254 -0.05519276 0.19411281
v -0.18950041 -0.05044316 0.19575520
v -0.18950041 -0.04806836 0.19577886
v -0.18712073 -0.05281796 0.19580253
v -0.17761646 -0.05044316 0.19580726
v -0.20453074 -0.03856378 0.18755749
v -0.20206427 -0.03856378 0.18985304
v -0.17529464 -0.04806836 0.19543808
v -0.18712073 -0.07583897 0.14873197
v -0.17523678 -0.07502045 0.15823601
v -0.18712073 -0.07568819 0.16061675
v -0.19187286 -0.07597898 0.16061675
v -0.19662499 -0.07624824 0.16061675
v -0.19900467 -0.07635055 0.16061675
v -0.17413735 -0.07494506 0.14745404
v -0.15622825 -0.07371189 0.14745404
v -0.19900467 -0.07077704 0.18370476
v -0.19900467 -0.07022239 0.18489276
v -0.20129032 -0.06949540 0.18438632
v -0.20314199 -0.06880612 0.18379942
v -0.20388700 -0.06705598 0.18445732
v -0.18474104 -0.07567204 0.14745404
v -0.14434430 -0.07289336 0.14873197
v -0.14434430 -0.07289336 0.14745404
v -0.16336006 -0.07420192 0.15823601
v -0.18474827 -0.07552125 0.16073035
v -0.18236859 -0.07545125 0.15994465
v -0.17049188 -0.06319492 0.19017489
v -0.17433264 -0.06110552 0.19267869
v -0.17187340 -0.06349648 0.19030741
v -0.17345744 -0.06355571 0.19035948
v -0.18712073 -0.06521430 0.18969211
v -0.19187286 -0.06537585 0.18984357
v -0.19187286 -0.06784220 0.18754803
v -0.17998891 -0.06378188 0.19056774
v -0.19425254 -0.06792298 0.18762376
v -0.19662499 -0.06926385 0.18641208
v -0.17761646 -0.05281796 0.19572680
v -0.17523678 -0.05757294 0.19414121
v -0.17761646 -0.05474580 0.19535762
v -0.20304796 -0.06635593 0.18579678
v -0.20108780 -0.06232793 0.18850411
v -0.19731936 -0.05757294 0.19247990
v -0.19779674 -0.05618899 0.19268342
v -0.20018366 -0.05864995 0.19031215
v -0.20024153 -0.05706675 0.19036421
v -0.20117459 -0.05774526 0.18945546
v -0.20055255 -0.04806836 0.19065293
v -0.20079848 -0.04093858 0.19088012
v -0.19785462 -0.05460579 0.19272602
v -0.19662499 -0.05281796 0.19331292
v -0.19425254 -0.05281796 0.19425954
v -0.19187286 -0.05757294 0.19426428
v -0.18950041 -0.05628592 0.19504523
v -0.18950041 -0.05509583 0.19539549
v -0.19613314 -0.05757294 0.19298161
v -0.19425254 -0.05757294 0.19360638
v -0.18712073 -0.05506890 0.19543808
v -0.18474104 -0.05281796 0.19579780
v -0.18236859 -0.05281796 0.19577886
v -0.18236859 -0.07551049 0.14745404
v -0.17977915 -0.07533278 0.14745404
v -0.19900467 -0.06903229 0.18609497
v -0.20061042 -0.06860149 0.18574472
v -0.20219446 -0.06793913 0.18538500
v -0.17517168 -0.06016853 0.19312360
v -0.17591669 -0.06117014 0.19272129
v -0.17517168 -0.06210714 0.19181253
v -0.18950041 -0.06410499 0.19087065
v -0.19187286 -0.06419115 0.19091325
v -0.18474104 -0.06394344 0.19071920
v -0.19425254 -0.06673288 0.18866977
v -0.19662499 -0.06770758 0.18760009
v -0.17998891 -0.05482658 0.19538602
v -0.18474104 -0.05498813 0.19543335
v -0.18236859 -0.05491274 0.19540968
v -0.17761646 -0.05593589 0.19489851
v -0.18712073 -0.05625361 0.19502630
v -0.17998891 -0.05601667 0.19493164
v -0.20139159 -0.06712061 0.18615650
v -0.20139159 -0.06467580 0.18737763
v -0.20060318 -0.06386805 0.18812073
v -0.19648033 -0.05979158 0.19193086
v -0.19559066 -0.05889228 0.19275442
v -0.20030662 -0.05519276 0.19042574
v -0.19187286 -0.05994774 0.19341232
v -0.19309524 -0.06116476 0.19271182
v -0.18950041 -0.05757294 0.19456246
v -0.19403554 -0.05979158 0.19291535
v -0.19893957 -0.06699136 0.18728297
v -0.19662499 -0.06651748 0.18839051
v -0.17761646 -0.05757294 0.19425481
v -0.17761646 -0.05994774 0.19330346
v -0.17761646 -0.06122399 0.19275915
v -0.18950041 -0.06271026 0.19205866
v -0.18950041 -0.06152017 0.19293428
v -0.19187286 -0.06255410 0.19210126
v -0.19425254 -0.06516584 0.18985777
v -0.19425254 -0.06397575 0.19067186
v -0.18950041 -0.05994774 0.19363950
v -0.18712073 -0.05757294 0.19451039
v -0.18474104 -0.05757294 0.19444887
v -0.18236859 -0.05994774 0.19345019
v -0.19810777 -0.06614053 0.18806867
v -0.19718917 -0.06296336 0.19004710
v -0.19187286 -0.06136939 0.19283488
v -0.17998891 -0.05994774 0.19337919
v -0.17998891 -0.06128862 0.19280175
v -0.18236859 -0.06134246 0.19283961
v -0.18712073 -0.06145555 0.19290588
v -0.18712073 -0.05994774 0.19357798
f 1 2 3
f 1 3 4
f 1 4 5
f 1 5 6
f 1 6 7
f 1 7 2
f 2 8 9
f 2 9 3
f 2 7 10
f 2 10 11
f 2 11 8
f 3 12 13
f 3 13 4
f 3 9 14
f 3 14 15
f 3 15 16
f 3 16 17
f 3 17 18
f 3 18 19
f 3 19 12
f 4 13 5
f 5 20 6
f 5 13 21
f 5 21 22
f 5 22 23
f 5 23 24
f 5 24 25
f 5 25 26
f 5 26 20
f 6 27 28
f 6 28 7
f 6 20 29
f 6 29 27
f 7 28 30
f 7 30 31
f 7 31 32
f 7 32 10
f 8 33 34
f 8 34 9
f 8 11 33
f 9 34 35
f 9 35 36
f 9 36 14
f 10 32 37
f 10 37 38
f 10 38 11
f 11 38 39
f 11 39 40
f 11 40 33
f 12 41 21
f 12 21 13
f 12 19 41
f 14 36 42
f 14 42 15
f 15 42 16
f 16 43 17
f 16 42 43
f 17 42 18
f 17 43 42
f 18 42 19
f 19 42 44
f 19 44 45
f 19 45 46
f 19 46 41
f 20 47 48
f 20 48 49
f 20 49 29
f 20 26 47
f 21 41 46
f 21 46 50
f 21 50 22
f 22 50 45
f 22 45 51
f 22 51 52
f 22 52 23
f 23 52 51
f 23 51 53
f 23 53 24
f 24 53 25
f 25 54 26
f 25 53 54
f 26 54 47
f 27 29 49
f 27 49 55
f 27 55 56
f 27 56 57
f 27 57 58
f 27 58 28
f 28 58 30
f 30 58 59
f 30 59 60
f 30 60 61
f 30 61 31
f 31 61 32
f 32 61 62
f 32 62 37
f 33 40 63
f 33 63 64
f 33 64 65
f 33 65 34
f 34 65 66
f 34 66 35
f 35 66 67
f 35 67 68
f 35 68 69
f 35 69 36
f 36 69 42
f 37 62 38
f 38 62 70
f 38 70 40
f 38 40 39
f 40 71 105
f 40 105 136
f 40 136 174
f 40 174 229
f 40 229 292
f 40 292 347
f 40 347 413
f 40 413 479
f 40 479 471
f 40 471 470
f 40 470 517
f 40 517 516
f 40 516 477
f 40 477 409
f 40 409 344
f 40 344 289
f 40 289 223
f 40 223 222
f 40 222 216
f 40 216 168
f 40 168 134
f 40 134 101
f 40 101 100
f 40 100 99
f 40 99 104
f 40 104 98
f 40 98 68
f 40 68 67
f 40 67 66
f 40 66 65
f 40 65 64
f 40 64 63
f 40 70 72
f 40 72 73
f 40 73 74
f 40 74 75
f 40 75 76
f 40 76 71
f 42 69 77
f 42 77 44
f 44 77 78
f 44 78 79
f 44 79 80
f 44 80 45
f 45 80 51
f 45 50 46
f 47 54 53
f 47 53 81
f 47 81 82
f 47 82 48
f 48 83 84
f 48 84 85
f 48 85 86
f 48 86 49
f 48 82 87
f 48 87 88
f 48 88 83
f 49 89 90
f 49 90 55
f 49 86 91
f 49 91 89
f 51 80 92
f 51 92 53
f 53 92 93
f 53 93 81
f 55 94 95
f 55 95 56
f 55 90 94
f 56 95 57
f 57 96 97
f 57 97 76
f 57 76 60
f 57 60 58
f 57 95 96
f 58 60 59
f 60 76 75
f 60 75 61
f 61 75 62
f 62 75 74
f 62 74 73
f 62 73 72
f 62 72 70
f 68 98 69
f 69 99 100
f 69 100 101
f 69 101 102
f 69 102 103
f 69 103 77
f 69 98 104
f 69 104 99
f 71 76 97
f 71 97 106
f 71 106 107
f 71 107 105
f 77 103 108
f 77 108 109
f 77 109 78
f 78 109 110
f 78 110 111
f 78 111 79
f 79 112 113
f 79 113 92
f 79 92 80
f 79 111 114
f 79 114 115
f 79 115 112
f 81 116 117
f 81 117 118
f 81 118 82
f 81 93 119
f 81 119 116
f 82 118 87
f 83 120 84
f 83 88 121
f 83 121 122
f 83 122 120
f 84 120 85
f 85 120 86
f 86 120 123
f 86 123 124
f 86 124 91
f 87 118 125
f 87 125 121
f 87 121 88
f 89 126 90
f 89 91 127
f 89 127 126
f 90 126 94
f 91 124 127
f 92 113 128
f 92 128 93
f 93 128 119
f 94 126 129
f 94 129 95
f 95 129 130
f 95 130 131
f 95 131 132
f 95 132 133
f 95 133 106
f 95 106 96
f 96 106 97
f 101 134 135
f 101 135 102
f 102 135 108
f 102 108 103
f 105 107 137
f 105 137 138
f 105 138 136
f 106 133 139
f 106 139 140
f 106 140 141
f 106 141 107
f 107 142 137
f 107 141 142
f 108 135 143
f 108 143 144
f 108 144 109
f 109 144 145
f 109 145 110
f 110 145 111
f 111 145 114
f 112 115 146
f 112 146 113
f 113 146 147
f 113 147 148
f 113 148 128
f 114 145 115
f 115 145 146
f 116 149 150
f 116 150 151
f 116 151 117
f 116 119 152
f 116 152 153
f 116 153 149
f 117 151 125
f 117 125 118
f 119 128 154
f 119 154 155
f 119 155 152
f 120 122 156
f 120 156 157
f 120 157 123
f 121 125 122
f 122 125 156
f 123 158 124
f 123 157 158
f 124 159 160
f 124 160 127
f 124 158 159
f 125 151 150
f 125 150 157
f 125 157 156
f 126 127 161
f 126 161 162
f 126 162 163
f 126 163 129
f 127 160 161
f 128 148 164
f 128 164 154
f 129 131 130
f 129 163 131
f 131 165 139
f 131 139 132
f 131 163 166
f 131 166 167
f 131 167 165
f 132 139 133
f 134 168 169
f 134 169 170
f 134 170 171
f 134 171 172
f 134 172 135
f 135 172 173
f 135 173 143
f 136 138 175
f 136 175 174
f 137 142 176
f 137 176 138
f 138 176 177
f 138 177 178
f 138 178 179
f 138 179 180
f 138 180 181
f 138 181 175
f 139 165 182
f 139 182 140
f 140 183 141
f 140 182 183
f 141 183 142
f 142 183 176
f 143 173 184
f 143 184 185
f 143 185 144
f 144 185 186
f 144 186 145
f 145 186 187
f 145 187 188
f 145 188 146
f 146 188 147
f 147 188 148
f 148 188 164
f 149 153 189
f 149 189 150
f 150 189 190
f 150 190 191
f 150 191 192
f 150 192 193
f 150 193 157
f 152 155 153
f 153 155 194
f 153 194 195
f 153 195 196
f 153 196 189
f 154 164 155
f 155 164 197
f 155 197 198
f 155 198 199
f 155 199 194
f 157 193 200
f 157 200 201
f 157 201 202
f 157 202 203
f 157 203 158
f 158 204 159
f 158 203 204
f 159 204 205
f 159 205 206
f 159 206 160
f 160 207 208
f 160 208 209
f 160 209 210
f 160 210 161
f 160 206 205
f 160 205 207
f 161 210 211
f 161 211 162
f 162 211 163
f 163 211 166
f 164 188 212
f 164 212 213
f 164 213 197
f 165 167 214
f 165 214 182
f 166 211 167
f 167 211 210
f 167 210 215
f 167 215 214
f 168 216 169
f 169 217 218
f 169 218 219
f 169 219 220
f 169 220 221
f 169 221 170
f 169 216 222
f 169 222 223
f 169 223 217
f 170 221 224
f 170 224 225
f 170 225 226
f 170 226 171
f 171 226 227
f 171 227 172
f 172 227 173
f 173 227 184
f 174 228 229
f 174 175 230
f 174 230 228
f 175 231 232
f 175 232 230
f 175 181 233
f 175 233 234
f 175 234 235
f 175 235 231
f 176 183 236
f 176 236 177
f 177 236 237
f 177 237 178
f 178 237 238
f 178 238 179
f 179 238 239
f 179 239 240
f 179 240 181
f 179 181 180
f 181 240 233
f 182 214 241
f 182 241 242
f 182 242 243
f 182 243 239
f 182 239 238
f 182 238 183
f 183 238 237
f 183 237 236
f 184 244 185
f 184 227 245
f 184 245 246
f 184 246 247
f 184 247 244
f 185 244 248
f 185 248 249
f 185 249 186
f 186 249 188
f 186 188 187
f 188 249 212
f 189 250 251
f 189 251 190
f 189 196 252
f 189 252 250
f 190 253 191
f 190 251 253
f 191 253 254
f 191 254 255
f 191 255 256
f 191 256 257
f 191 257 192
f 192 257 193
f 193 257 258
f 193 258 259
f 193 259 200
f 194 199 195
f 195 260 261
f 195 261 196
f 195 199 262
f 195 262 260
f 196 261 252
f 197 213 263
f 197 263 198
f 198 263 262
f 198 262 199
f 200 259 201
f 201 259 202
f 202 204 203
f 202 259 264
f 202 264 265
f 202 265 204
f 204 265 266
f 204 266 267
f 204 267 205
f 205 268 207
f 205 267 269
f 205 269 270
f 205 270 268
f 207 268 271
f 207 271 242
f 207 242 241
f 207 241 209
f 207 209 208
f 209 241 214
f 209 214 215
f 209 215 210
f 212 249 248
f 212 248 213
f 213 248 244
f 213 244 272
f 213 272 263
f 217 273 274
f 217 274 218
f 217 223 275
f 217 275 276
f 217 276 277
f 217 277 273
f 218 278 279
f 218 279 280
f 218 280 219
f 218 274 281
f 218 281 278
f 219 280 220
f 220 282 283
f 220 283 246
f 220 246 284
f 220 284 221
f 220 280 282
f 221 284 285
f 221 285 286
f 221 286 287
f 221 287 288
f 221 288 224
f 223 289 275
f 224 288 225
f 225 288 245
f 225 245 227
f 225 227 226
f 228 230 290
f 228 290 229
f 229 291 292
f 229 290 293
f 229 293 294
f 229 294 295
f 229 295 291
f 230 232 296
f 230 296 297
f 230 297 290
f 231 298 296
f 231 296 232
f 231 235 299
f 231 299 300
f 231 300 298
f 233 235 234
f 233 240 301
f 233 301 302
f 233 302 303
f 233 303 235
f 235 303 299
f 239 243 304
f 239 304 305
f 239 305 306
f 239 306 240
f 240 306 301
f 242 271 307
f 242 307 243
f 243 307 308
f 243 308 309
f 243 309 304
f 244 247 310
f 244 310 272
f 245 288 246
f 246 288 287
f 246 287 286
f 246 286 285
f 246 285 284
f 246 283 311
f 246 311 247
f 247 311 312
f 247 312 310
f 250 252 261
f 250 261 313
f 250 313 251
f 251 313 314
f 251 314 315
f 251 315 253
f 253 315 314
f 253 314 254
f 254 316 317
f 254 317 318
f 254 318 319
f 254 319 255
f 254 314 316
f 255 320 256
f 255 319 320
f 256 321 322
f 256 322 323
f 256 323 257
f 256 320 321
f 257 323 269
f 257 269 266
f 257 266 264
f 257 264 258
f 258 264 259
f 260 314 261
f 260 262 314
f 261 314 313
f 262 263 324
f 262 324 325
f 262 325 326
f 262 326 314
f 263 272 327
f 263 327 324
f 264 266 265
f 266 269 267
f 268 270 328
f 268 328 307
f 268 307 271
f 269 323 329
f 269 329 330
f 269 330 270
f 270 331 328
f 270 330 329
f 270 329 322
f 270 322 332
f 270 332 331
f 272 310 327
f 273 333 334
f 273 334 335
f 273 335 274
f 273 277 333
f 274 335 281
f 275 289 336
f 275 336 276
f 276 336 337
f 276 337 277
f 277 337 333
f 278 281 279
f 279 338 339
f 279 339 340
f 279 340 341
f 279 341 280
f 279 281 338
f 280 341 342
f 280 342 311
f 280 311 282
f 281 335 343
f 281 343 338
f 282 311 283
f 289 344 336
f 290 297 293
f 291 345 346
f 291 346 347
f 291 347 292
f 291 295 348
f 291 348 349
f 291 349 345
f 293 297 294
f 294 297 350
f 294 350 351
f 294 351 295
f 295 352 353
f 295 353 348
f 295 351 354
f 295 354 355
f 295 355 352
f 296 298 356
f 296 356 297
f 297 356 357
f 297 357 350
f 298 300 358
f 298 358 356
f 299 303 359
f 299 359 360
f 299 360 358
f 299 358 300
f 301 306 305
f 301 305 302
f 302 305 361
f 302 361 362
f 302 362 303
f 303 362 361
f 303 361 363
f 303 363 364
f 303 364 359
f 304 309 365
f 304 365 305
f 305 365 366
f 305 366 367
f 305 367 368
f 305 368 361
f 307 369 367
f 307 367 308
f 307 328 369
f 308 367 365
f 308 365 309
f 310 312 370
f 310 370 371
f 310 371 372
f 310 372 327
f 311 342 373
f 311 373 312
f 312 373 342
f 312 342 371
f 312 371 370
f 314 326 374
f 314 374 375
f 314 375 317
f 314 317 316
f 317 375 376
f 317 376 318
f 318 377 378
f 318 378 379
f 318 379 319
f 318 376 380
f 318 380 381
f 318 381 382
f 318 382 377
f 319 379 383
f 319 383 384
f 319 384 385
f 319 385 386
f 319 386 387
f 319 387 320
f 320 387 388
f 320 388 321
f 321 388 459
f 321 459 389
f 321 389 390
f 321 390 332
f 321 332 322
f 322 329 323
f 324 327 391
f 324 391 392
f 324 392 393
f 324 393 325
f 325 393 394
f 325 394 374
f 325 374 326
f 327 372 391
f 328 331 395
f 328 395 396
f 328 396 369
f 331 397 398
f 331 398 395
f 331 332 390
f 331 390 389
f 331 389 460
f 331 460 397
f 333 399 400
f 333 400 334
f 333 337 401
f 333 401 399
f 334 400 343
f 334 343 335
f 336 344 337
f 337 344 401
f 338 343 402
f 338 402 403
f 338 403 404
f 338 404 405
f 338 405 406
f 338 406 340
f 338 340 339
f 340 407 341
f 340 406 407
f 341 407 408
f 341 408 342
f 342 408 371
f 343 400 402
f 344 409 410
f 344 410 401
f 345 411 346
f 345 349 412
f 345 412 411
f 346 411 413
f 346 413 347
f 348 353 349
f 349 414 412
f 349 353 415
f 349 415 416
f 349 416 417
f 349 417 418
f 349 418 414
f 350 357 419
f 350 419 420
f 350 420 351
f 351 420 354
f 352 415 353
f 352 355 415
f 354 416 415
f 354 415 355
f 354 420 421
f 354 421 422
f 354 422 423
f 354 423 424
f 354 424 425
f 354 425 426
f 354 426 427
f 354 427 428
f 354 428 429
f 354 429 430
f 354 430 431
f 354 431 416
f 356 358 360
f 356 360 357
f 357 360 432
f 357 432 433
f 357 433 419
f 359 364 434
f 359 434 360
f 360 434 435
f 360 435 433
f 360 433 432
f 361 436 437
f 361 437 438
f 361 438 439
f 361 439 363
f 361 368 436
f 363 439 364
f 364 439 440
f 364 440 435
f 364 435 434
f 365 367 366
f 367 369 396
f 367 396 441
f 367 441 436
f 367 436 368
f 371 408 372
f 372 408 407
f 372 407 442
f 372 442 443
f 372 443 444
f 372 444 445
f 372 445 446
f 372 446 391
f 374 394 375
f 375 394 447
f 375 447 448
f 375 448 376
f 376 448 381
f 376 381 380
f 377 382 449
f 377 449 450
f 377 450 451
f 377 451 378
f 378 451 450
f 378 450 383
f 378 383 379
f 381 448 382
f 382 448 452
f 382 452 449
f 383 450 384
f 384 453 454
f 384 454 385
f 384 450 455
f 384 455 456
f 384 456 453
f 385 454 386
f 386 454 387
f 387 454 457
f 387 457 458
f 387 458 388
f 388 458 459
f 389 459 460
f 391 446 461
f 391 461 392
f 392 461 462
f 392 462 447
f 392 447 393
f 393 447 394
f 395 398 463
f 395 463 396
f 396 463 441
f 397 460 463
f 397 463 398
f 399 401 464
f 399 464 400
f 400 414 465
f 400 465 417
f 400 417 466
f 400 466 467
f 400 467 468
f 400 468 469
f 400 469 402
f 400 464 470
f 400 470 471
f 400 471 414
f 401 410 409
f 401 409 464
f 402 469 403
f 403 469 472
f 403 472 473
f 403 473 474
f 403 474 475
f 403 475 404
f 404 475 405
f 405 475 406
f 406 475 407
f 407 475 476
f 407 476 442
f 409 477 464
f 411 478 413
f 411 412 478
f 412 414 478
f 413 478 479
f 414 471 479
f 414 479 478
f 414 418 480
f 414 480 465
f 416 431 481
f 416 481 482
f 416 482 417
f 417 482 466
f 417 465 480
f 417 480 418
f 419 421 420
f 419 433 435
f 419 435 483
f 419 483 421
f 421 483 484
f 421 484 485
f 421 485 422
f 422 485 486
f 422 486 425
f 422 425 424
f 422 424 423
f 425 486 426
f 426 487 488
f 426 488 489
f 426 489 428
f 426 428 427
f 426 486 490
f 426 490 487
f 428 489 491
f 428 491 492
f 428 492 429
f 429 492 473
f 429 473 472
f 429 472 430
f 430 472 469
f 430 469 468
f 430 468 431
f 431 468 467
f 431 467 466
f 431 466 481
f 435 440 484
f 435 484 483
f 436 441 437
f 437 441 463
f 437 463 460
f 437 460 493
f 437 493 438
f 438 494 439
f 438 493 495
f 438 495 494
f 439 494 440
f 440 494 484
f 442 476 496
f 442 496 443
f 443 496 444
f 444 496 497
f 444 497 498
f 444 498 499
f 444 499 500
f 444 500 445
f 445 500 501
f 445 501 502
f 445 502 446
f 446 502 503
f 446 503 504
f 446 504 462
f 446 462 461
f 447 504 505
f 447 505 452
f 447 452 448
f 447 462 504
f 449 452 506
f 449 506 507
f 449 507 450
f 450 507 455
f 452 505 506
f 453 508 509
f 453 509 510
f 453 510 454
f 453 456 511
f 453 511 512
f 453 512 508
f 454 510 459
f 454 459 457
f 455 505 499
f 455 499 456
f 455 507 506
f 455 506 505
f 456 499 511
f 457 459 458
f 459 510 513
f 459 513 514
f 459 514 460
f 460 514 515
f 460 515 493
f 464 477 516
f 464 516 517
f 464 517 470
f 466 482 481
f 473 518 519
f 473 519 474
f 473 492 518
f 474 519 520
f 474 520 475
f 475 520 476
f 476 520 496
f 484 494 521
f 484 521 522
f 484 522 523
f 484 523 485
f 485 523 486
f 486 523 490
f 487 490 526
f 487 526 488
f 488 524 525
f 488 525 491
f 488 491 489
f 488 526 524
f 490 523 526
f 491 527 492
f 491 525 527
f 492 528 518
f 492 527 528
f 493 529 495
f 493 515 530
f 493 530 531
f 493 531 529
f 494 495 532
f 494 532 521
f 495 529 533
f 495 533 534
f 495 534 532
f 496 520 535
f 496 535 536
f 496 536 497
f 497 536 498
f 498 536 537
f 498 537 538
f 498 538 539
f 498 539 511
f 498 511 499
f 499 505 504
f 499 504 503
f 499 503 540
f 499 540 501
f 499 501 500
f 501 540 502
f 502 540 503
f 508 541 509
f 508 512 542
f 508 542 541
f 509 541 543
f 509 543 533
f 509 533 513
f 509 513 510
f 511 539 512
f 512 539 544
f 512 544 542
f 513 533 530
f 513 530 514
f 514 530 515
f 518 545 519
f 518 528 546
f 518 546 545
f 519 545 535
f 519 535 520
f 521 532 547
f 521 547 548
f 521 548 549
f 521 549 522
f 522 549 524
f 522 524 523
f 523 524 526
f 524 549 525
f 525 549 550
f 525 550 551
f 525 551 552
f 525 552 553
f 525 553 527
f 527 553 528
f 528 553 554
f 528 554 546
f 529 531 533
f 530 533 531
f 532 534 547
f 533 543 555
f 533 555 556
f 533 556 557
f 533 557 534
f 534 557 558
f 534 558 547
f 535 545 559
f 535 559 536
f 536 559 537
f 537 559 560
f 537 560 538
f 538 542 539
f 538 560 542
f 539 542 544
f 541 561 555
f 541 555 543
f 541 542 561
f 542 546 554
f 542 554 552
f 542 552 561
f 542 560 559
f 542 559 546
f 545 546 559
f 547 558 562
f 547 562 548
f 548 562 549
f 549 562 558
f 549 558 563
f 549 563 550
f 550 564 551
f 550 563 564
f 551 564 565
f 551 565 555
f 551 555 561
f 551 561 552
f 552 554 553
f 555 565 564
f 555 564 566
f 555 566 557
f 555 557 556
f 557 566 558
f 558 566 563
f 563 566 564

