# https://github.com/mikedh/trimesh
v -0.03574386 -0.04154858 0.02034628
v -0.03574386 -0.04154858 0.07287742
v -0.03574386 -0.05698771 0.02120500
v -0.08491610 -0.04331407 0.02216656
v -0.08491610 -0.04154858 0.02209971
v -0.03574386 -0.06541675 0.07287742
v -0.04569879 -0.04154858 0.07287742
v -0.03574386 -0.06232783 0.02150324
v -0.08682884 -0.04494585 0.02330295
v -0.08749333 -0.04313670 0.02313327
v -0.08668600 -0.04154858 0.02260877
v -0.03574386 -0.06262253 0.02160608
v -0.06827902 -0.06765703 0.07287742
v -0.03574386 -0.06541675 0.02988991
v -0.07014828 -0.04154858 0.05748213
v -0.09794507 -0.06283810 0.07287742
v -0.08145082 -0.06831466 0.05952352
v -0.09098966 -0.06836650 0.06662469
v -0.09357310 -0.06851658 0.06883063
v -0.09615032 -0.06864210 0.07104685
v -0.09770908 -0.06889860 0.07287742
v -0.08889683 -0.04492947 0.02561688
v -0.08841865 -0.04381070 0.02402798
v -0.03574386 -0.06441530 0.02281446
v -0.04586647 -0.06595158 0.03096974
v -0.08849317 -0.04222804 0.02394057
v -0.08735049 -0.04154858 0.02286588
v -0.07676213 -0.06824098 0.07287742
v -0.06827902 -0.06765703 0.05365131
v -0.03976806 -0.06569235 0.02988991
v -0.03574386 -0.06541402 0.02751429
v -0.04299736 -0.06591610 0.03226554
v -0.07130338 -0.04154858 0.05668512
v -0.07161389 -0.04154858 0.05635088
v -0.09049906 -0.04154858 0.03073835
v -0.09070399 -0.04154858 0.03044011
v -0.09877723 -0.06356121 0.07287742
v -0.08016531 -0.06833375 0.05931784
v -0.09442389 -0.06941706 0.07266659
v -0.09687692 -0.06910326 0.07287742
v -0.09688934 -0.06902685 0.07255347
v -0.09439284 -0.06886040 0.07027040
v -0.09903806 -0.06708127 0.07287742
v -0.09087167 -0.04452562 0.02867639
v -0.09033138 -0.04331407 0.02738574
v -0.08901482 -0.04313670 0.02494841
v -0.03574386 -0.06524757 0.02513866
v -0.03738956 -0.06502927 0.02513866
v -0.04451885 -0.06594885 0.03081034
v -0.08920113 -0.04154858 0.02508210
v -0.08890304 -0.04154858 0.02456789
v -0.08851180 -0.04154858 0.02390457
v -0.09184046 -0.06927789 0.07287742
v -0.07303602 -0.06798448 0.05840770
v -0.07807869 -0.06833103 0.06078332
v -0.05877744 -0.06700214 0.04414881
v -0.03738956 -0.06552317 0.02751429
v -0.04689736 -0.06618352 0.03464631
v -0.09102071 -0.04154858 0.02958139
v -0.09918710 -0.06481916 0.07287742
v -0.09102071 -0.04154858 0.02948369
v -0.08254381 -0.06863119 0.06315895
v -0.09442389 -0.06942252 0.07287742
v -0.09091514 -0.04331407 0.02857355
v -0.09082820 -0.04154858 0.02814162
v -0.09038727 -0.04154858 0.02725719
v -0.09002708 -0.04154858 0.02658358
v -0.04310914 -0.06590792 0.03083605
v -0.09205160 -0.06929154 0.07287742
v -0.09205160 -0.06929154 0.07266659
v -0.08491610 -0.06880037 0.06553972
v -0.04451885 -0.06601161 0.03226554
v -0.09097724 -0.04154858 0.02844500
f 1 2 6
f 1 6 14
f 1 14 31
f 1 31 47
f 1 47 24
f 1 24 12
f 1 12 8
f 1 8 3
f 1 3 4
f 1 4 5
f 1 5 11
f 1 11 27
f 1 27 52
f 1 52 51
f 1 51 50
f 1 50 67
f 1 67 66
f 1 66 65
f 1 65 73
f 1 73 61
f 1 61 59
f 1 59 36
f 1 36 35
f 1 35 34
f 1 34 33
f 1 33 15
f 1 15 7
f 1 7 2
f 2 7 16
f 2 16 37
f 2 37 60
f 2 60 43
f 2 43 21
f 2 21 40
f 2 40 63
f 2 63 69
f 2 69 53
f 2 53 28
f 2 28 13
f 2 13 6
f 3 8 4
f 4 9 10
f 4 10 11
f 4 11 5
f 4 8 12
f 4 12 9
f 6 13 29
f 6 29 14
f 7 15 16
f 9 17 18
f 9 18 19
f 9 19 20
f 9 20 21
f 9 21 22
f 9 22 23
f 9 23 10
f 9 12 24
f 9 24 25
f 9 25 17
f 10 23 26
f 10 26 27
f 10 27 11
f 13 28 29
f 14 30 31
f 14 29 32
f 14 32 30
f 15 33 16
f 16 33 34
f 16 34 35
f 16 35 36
f 16 36 37
f 17 38 39
f 17 39 40
f 17 40 41
f 17 41 42
f 17 42 19
f 17 19 18
f 17 25 38
f 19 42 20
f 20 42 41
f 20 41 21
f 21 43 22
f 21 41 40
f 22 43 44
f 22 44 23
f 23 44 45
f 23 45 46
f 23 46 26
f 24 47 48
f 24 48 25
f 25 48 47
f 25 47 49
f 25 49 38
f 26 46 50
f 26 50 51
f 26 51 52
f 26 52 27
f 28 53 54
f 28 54 29
f 29 54 55
f 29 55 56
f 29 56 32
f 30 57 31
f 30 32 58
f 30 58 57
f 31 57 47
f 32 56 58
f 36 59 37
f 37 59 61
f 37 61 60
f 38 62 39
f 38 49 62
f 39 62 63
f 39 63 40
f 43 60 44
f 44 60 64
f 44 64 45
f 45 64 65
f 45 65 66
f 45 66 67
f 45 67 46
f 46 67 50
f 47 57 49
f 49 57 68
f 49 68 62
f 53 69 70
f 53 70 71
f 53 71 55
f 53 55 54
f 55 71 56
f 56 71 62
f 56 62 68
f 56 68 72
f 56 72 58
f 57 58 72
f 57 72 68
f 60 61 73
f 60 73 64
f 62 71 63
f 63 70 69
f 63 71 70
f 64 73 65

