# https://github.com/mikedh/trimesh
v -0.03573794 -0.03535754 0.01337271
v -0.02676005 -0.06358513 0.01438037
v -0.03573794 -0.06232554 0.02150393
v -0.03573794 -0.02871802 0.01337271
v -0.02564003 -0.06232554 0.01337271
v -0.02768450 -0.06396087 0.01573752
v -0.02932601 -0.06376019 0.01660539
v -0.03573794 -0.06262442 0.02160295
v -0.02549781 -0.06259026 0.01337271
v -0.02549781 -0.06384559 0.01390276
v -0.03573794 -0.02180096 0.04849540
v -0.02722820 -0.02180096 0.01599963
v -0.02718079 -0.02180096 0.01587731
v -0.02653486 -0.02180096 0.01475898
v -0.02648153 -0.02180096 0.01470073
v -0.02531410 -0.02180096 0.01372802
v -0.02482224 -0.02180096 0.01337271
v -0.03017342 -0.06418717 0.01802661
v -0.03189196 -0.06391390 0.01883042
v -0.03445792 -0.06403772 0.02105543
v -0.03573794 -0.06441347 0.02281448
v -0.02403409 -0.06401210 0.01337271
v -0.03573794 -0.02180096 0.07287742
v -0.00619683 -0.02180096 0.01337271
v -0.03266234 -0.06438785 0.02030988
v -0.02549781 -0.06444335 0.01562686
v -0.03515126 -0.06455437 0.02259314
v -0.03573794 -0.06524608 0.02513852
v -0.02324593 -0.06415301 0.01337271
v -0.03573794 -0.06541259 0.07287742
v -0.01070652 -0.02180096 0.07287742
v 0.02048795 -0.02180096 0.03368911
v 0.02057684 -0.03143361 0.03123694
v 0.02065981 -0.03380761 0.03117287
v 0.02249686 -0.05281671 0.03150487
v -0.00574645 -0.02905533 0.01337271
v -0.02787413 -0.06469527 0.01800913
v -0.03025046 -0.06493438 0.02038560
v -0.02074516 -0.06436650 0.01337271
v -0.03262679 -0.06515214 0.02276206
v -0.03500312 -0.06534428 0.02513852
v -0.03573794 -0.06541259 0.02751498
v -0.03500312 -0.06536563 0.07287742
v -0.01033318 -0.03052841 0.07287742
v -0.00725165 -0.02905533 0.07164842
v -0.00886946 -0.02180096 0.07215516
v 0.02147760 -0.02180096 0.03487735
v 0.02316058 -0.03143361 0.03368329
v 0.02196945 -0.03143361 0.03242516
v 0.02203464 -0.03618588 0.03215141
v 0.02358725 -0.04331643 0.03299015
v 0.02216501 -0.04331643 0.03180193
v 0.02224204 -0.04569044 0.03171456
v 0.02232501 -0.04806444 0.03163884
v 0.02241390 -0.05044271 0.03156895
v 0.02373540 -0.04806444 0.03282707
v 0.02380651 -0.05044271 0.03275717
v 0.02388355 -0.05281671 0.03269310
v 0.02250279 -0.05757326 0.03169708
v 0.02131167 -0.05757326 0.03075931
v -0.00574645 -0.02917916 0.01337271
v -0.02062071 -0.06435796 0.01337271
v -0.02074516 -0.06438358 0.01562686
v -0.02312148 -0.06454583 0.01562686
v -0.03500312 -0.06536563 0.02751498
v -0.02787413 -0.06487460 0.02038560
v -0.00790352 -0.06349973 0.06553835
v -0.02787413 -0.06487460 0.07266773
v -0.03025046 -0.06503686 0.07287742
v -0.01031540 -0.03143361 0.07287742
v 0.01178858 -0.05994726 0.06458893
v 0.01171747 -0.05281671 0.06454233
v -0.00188862 -0.02905533 0.06951659
v 0.00777076 -0.02905533 0.06566067
v 0.00777076 -0.02667706 0.06559659
v 0.00441071 -0.02180096 0.06681395
v 0.02208797 -0.02180096 0.03691015
v 0.02211760 -0.02180096 0.03702082
v 0.02330873 -0.03001604 0.03533750
v 0.02339169 -0.03143361 0.03487152
v 0.02321984 -0.03264196 0.03346196
v 0.02327317 -0.03422605 0.03338041
v 0.02333836 -0.03618588 0.03328721
v 0.02342133 -0.03856415 0.03318237
v 0.02350429 -0.04093816 0.03308335
v 0.02366429 -0.04569044 0.03290279
v 0.02479023 -0.05281671 0.03464436
v 0.02466578 -0.05519499 0.03464436
v 0.02379466 -0.05519499 0.03279795
v 0.02237834 -0.05994726 0.03186600
v 0.02119315 -0.05994726 0.03084668
v 0.02368207 -0.05757326 0.03288531
v -0.00579979 -0.03143361 0.01337271
v -0.01824439 -0.06418717 0.01337271
v -0.01599251 -0.06405480 0.01562686
v -0.00790352 -0.06349973 0.02038560
v -0.00648128 -0.06340152 0.06553835
v -0.00909464 -0.06358086 0.06791481
v 0.02203464 -0.06143742 0.03702082
v 0.01489973 -0.06192845 0.05365022
v 0.00777076 -0.06241947 0.06078543
v -0.02312148 -0.06454583 0.07266773
v -0.02787413 -0.06486179 0.07287742
v -0.01468878 -0.05994726 0.07287742
v -0.00272419 -0.06130079 0.06916129
v 0.00477220 -0.05994726 0.06690132
v 0.01014708 -0.05994726 0.06521217
v 0.01164636 -0.06133068 0.06451321
v 0.01297379 -0.05994726 0.06376183
v 0.01292045 -0.05519499 0.06373270
v 0.01290860 -0.05281671 0.06369776
v 0.01165228 -0.05044271 0.06451904
v 0.00983300 -0.02430306 0.06469960
v 0.00972633 -0.02180096 0.06467047
v 0.02330873 -0.03001604 0.03614712
v 0.02169686 -0.02180096 0.03927496
v 0.02432800 -0.04569044 0.03464436
v 0.02400800 -0.04093816 0.03464436
v 0.02448207 -0.04806444 0.03464436
v 0.02339169 -0.03143361 0.03645000
v 0.02469541 -0.05281671 0.03702082
v 0.02470726 -0.05519499 0.03702082
v 0.02468949 -0.05757326 0.03702082
v 0.02448207 -0.05757326 0.03464436
v 0.02352207 -0.05994726 0.03305423
v 0.02330873 -0.06119832 0.03332799
v 0.02096796 -0.06120685 0.03099230
v 0.01645234 -0.06130079 0.02851682
v 0.01670716 -0.05994726 0.02838868
v 0.01205525 -0.05994726 0.02595980
v 0.00735001 -0.05994726 0.02356004
v -0.01183838 -0.06232554 0.01414739
v -0.01302951 -0.06073291 0.01337271
v -0.01557769 -0.06381143 0.01337271
v -0.01222949 -0.06358513 0.01434543
v -0.00961613 -0.06355951 0.01667529
v -0.01361618 -0.06387120 0.01562686
v -0.00924872 -0.06358086 0.01800913
v 0.00777076 -0.06241947 0.02751498
v 0.00539443 -0.06258173 0.06316189
v 0.00777076 -0.06241520 0.06316189
v 0.01727606 -0.06176192 0.03226790
v 0.02203464 -0.06142888 0.03464436
v 0.02343318 -0.06124528 0.03702082
v 0.02203464 -0.06139045 0.03939728
v 0.01965238 -0.06159114 0.04414438
v 0.01727606 -0.06176192 0.04889730
v 0.01252341 -0.06206508 0.06078543
v 0.01252341 -0.06209070 0.05840897
v -0.01221764 -0.06356805 0.07154357
v -0.02074516 -0.06429818 0.07266773
v -0.02312148 -0.06449032 0.07287742
v -0.00941464 -0.06355951 0.06928943
v -0.01564287 -0.06232554 0.07287742
v -0.01167838 -0.06232554 0.07170666
v 0.00461219 -0.06134349 0.06684890
v 0.01247600 -0.06161248 0.06316189
v 0.01402861 -0.06139473 0.06236973
v 0.01014708 -0.06157832 0.06478697
v 0.01418861 -0.05994726 0.06257360
v 0.01410565 -0.05519499 0.06254447
v 0.01406417 -0.05281671 0.06250953
v 0.01102413 -0.02430306 0.06412878
v 0.01092339 -0.02192478 0.06402976
v 0.01091746 -0.02180096 0.06402394
v 0.02167315 -0.02180096 0.03939728
v 0.02304799 -0.03143361 0.03763824
v 0.02384799 -0.05281671 0.03939728
v 0.02412059 -0.05757326 0.03939728
v 0.02313095 -0.03380761 0.03791199
v 0.02324355 -0.03707400 0.03826147
v 0.02419763 -0.05994726 0.03702082
v 0.02404948 -0.05994726 0.03464436
v 0.02381837 -0.05994726 0.03939728
v 0.01965238 -0.06155698 0.03226790
v 0.02186871 -0.06129225 0.03243099
v 0.02340355 -0.06123674 0.03464436
v 0.01182414 -0.06139045 0.02607629
v 0.00711889 -0.06145877 0.02367653
v -0.01352729 -0.06240240 0.01337271
v -0.01347988 -0.06232554 0.01337271
v -0.01427989 -0.06311972 0.01337271
v 0.01014708 -0.06213767 0.06316189
v 0.02332651 -0.06120258 0.03939728
v 0.01489973 -0.06189429 0.05603251
v 0.01441973 -0.06154844 0.06078543
v 0.01656494 -0.06145877 0.05603251
v -0.01840439 -0.06386694 0.07287742
v -0.02074516 -0.06424268 0.07287742
v 0.01629827 -0.06132641 0.05777990
v 0.01519011 -0.05994726 0.06078543
v 0.01516048 -0.05757326 0.06078543
v 0.01390417 -0.04806444 0.06227654
v 0.01398120 -0.05044271 0.06239886
v 0.01181228 -0.02180096 0.06283571
v 0.01491158 -0.05281671 0.06078543
v 0.02106278 -0.02180096 0.04095829
v 0.02353985 -0.04569044 0.03897208
v 0.02361688 -0.05053238 0.03958367
v 0.02345095 -0.05757326 0.04113886
v 0.02336799 -0.05994726 0.04094082
v 0.02103314 -0.02180096 0.04103401
v 0.01279008 -0.02192478 0.06078543
v 0.01391009 -0.03380761 0.06006317
v 0.02323762 -0.06115134 0.04062628
v 0.01853237 -0.06119832 0.05263090
v 0.01642864 -0.05994726 0.05807114
v 0.01590123 -0.05994726 0.05925937
v 0.01591308 -0.05757326 0.05917200
v 0.01382120 -0.04569044 0.06214839
v 0.01375601 -0.04385870 0.06204355
v 0.01370268 -0.04227887 0.06194453
v 0.01277823 -0.02180096 0.06078543
v 0.01475158 -0.05044271 0.06078543
v 0.01690272 -0.05281671 0.05603251
v 0.01859756 -0.05994726 0.05278817
v 0.01722865 -0.05757326 0.05603251
v 0.01399305 -0.02180096 0.05788475
v 0.01415898 -0.04316699 0.06100676
v 0.01442565 -0.04569044 0.06078543
v 0.01575308 -0.05281671 0.05878174
f 1 2 3
f 1 3 8
f 1 8 21
f 1 21 28
f 1 28 42
f 1 42 30
f 1 30 23
f 1 23 11
f 1 11 4
f 1 4 17
f 1 17 24
f 1 24 36
f 1 36 61
f 1 61 93
f 1 93 133
f 1 133 181
f 1 181 180
f 1 180 182
f 1 182 134
f 1 134 94
f 1 94 62
f 1 62 39
f 1 39 29
f 1 29 22
f 1 22 9
f 1 9 5
f 1 5 2
f 2 6 7
f 2 7 8
f 2 8 3
f 2 5 9
f 2 9 10
f 2 10 6
f 4 11 12
f 4 12 13
f 4 13 14
f 4 14 15
f 4 15 16
f 4 16 17
f 6 18 7
f 6 10 18
f 7 18 19
f 7 19 8
f 8 20 21
f 8 19 20
f 9 22 10
f 10 22 18
f 11 23 31
f 11 31 46
f 11 46 76
f 11 76 114
f 11 114 165
f 11 165 195
f 11 195 213
f 11 213 218
f 11 218 202
f 11 202 197
f 11 197 166
f 11 166 116
f 11 116 78
f 11 78 77
f 11 77 47
f 11 47 32
f 11 32 24
f 11 24 17
f 11 17 16
f 11 16 15
f 11 15 14
f 11 14 13
f 11 13 12
f 18 25 19
f 18 22 26
f 18 26 25
f 19 25 20
f 20 25 27
f 20 27 21
f 21 27 28
f 22 29 26
f 23 30 43
f 23 43 69
f 23 69 103
f 23 103 152
f 23 152 189
f 23 189 188
f 23 188 154
f 23 154 104
f 23 104 70
f 23 70 44
f 23 44 31
f 24 32 33
f 24 33 34
f 24 34 35
f 24 35 36
f 25 28 27
f 25 26 37
f 25 37 38
f 25 38 28
f 26 29 39
f 26 39 37
f 28 38 40
f 28 40 41
f 28 41 42
f 30 42 65
f 30 65 43
f 31 44 45
f 31 45 46
f 32 47 48
f 32 48 49
f 32 49 33
f 33 49 50
f 33 50 51
f 33 51 52
f 33 52 53
f 33 53 54
f 33 54 55
f 33 55 35
f 33 35 34
f 35 55 56
f 35 56 57
f 35 57 58
f 35 58 59
f 35 59 60
f 35 60 61
f 35 61 36
f 37 39 38
f 38 39 40
f 39 62 63
f 39 63 64
f 39 64 41
f 39 41 40
f 41 64 42
f 42 64 66
f 42 66 65
f 43 65 96
f 43 96 67
f 43 67 68
f 43 68 102
f 43 102 69
f 44 70 71
f 44 71 72
f 44 72 45
f 45 72 73
f 45 73 46
f 46 73 74
f 46 74 75
f 46 75 76
f 47 77 48
f 48 77 78
f 48 78 79
f 48 79 80
f 48 80 81
f 48 81 49
f 49 81 82
f 49 82 83
f 49 83 84
f 49 84 85
f 49 85 50
f 50 85 51
f 51 86 53
f 51 53 52
f 51 85 87
f 51 87 86
f 53 86 54
f 54 86 55
f 55 86 56
f 56 86 87
f 56 87 58
f 56 58 57
f 58 87 88
f 58 88 89
f 58 89 59
f 59 90 91
f 59 91 60
f 59 89 92
f 59 92 90
f 60 91 93
f 60 93 61
f 62 94 95
f 62 95 63
f 63 66 64
f 63 95 96
f 63 96 66
f 65 66 96
f 67 97 98
f 67 98 68
f 67 96 99
f 67 99 100
f 67 100 101
f 67 101 97
f 68 98 102
f 69 102 103
f 70 104 105
f 70 105 106
f 70 106 107
f 70 107 71
f 71 107 108
f 71 108 109
f 71 109 72
f 72 109 110
f 72 110 111
f 72 111 112
f 72 112 74
f 72 74 73
f 74 112 113
f 74 113 75
f 75 113 76
f 76 113 114
f 78 115 79
f 78 116 115
f 79 115 117
f 79 117 80
f 80 117 118
f 80 118 81
f 81 118 117
f 81 117 119
f 81 119 87
f 81 87 82
f 82 87 84
f 82 84 83
f 84 87 85
f 87 119 115
f 87 115 120
f 87 120 121
f 87 121 122
f 87 122 123
f 87 123 88
f 88 123 124
f 88 124 92
f 88 92 89
f 90 92 125
f 90 125 126
f 90 126 127
f 90 127 91
f 91 127 128
f 91 128 129
f 91 129 93
f 92 124 125
f 93 129 130
f 93 130 131
f 93 131 132
f 93 132 133
f 94 134 135
f 94 135 136
f 94 136 137
f 94 137 138
f 94 138 95
f 95 138 139
f 95 139 96
f 96 139 99
f 97 101 98
f 98 101 140
f 98 140 141
f 98 141 102
f 99 139 142
f 99 142 143
f 99 143 144
f 99 144 145
f 99 145 146
f 99 146 147
f 99 147 100
f 100 147 148
f 100 148 149
f 100 149 101
f 101 149 141
f 101 141 140
f 102 150 151
f 102 151 189
f 102 189 152
f 102 152 103
f 102 141 153
f 102 153 150
f 104 154 155
f 104 155 105
f 105 156 107
f 105 107 106
f 105 155 156
f 107 156 108
f 108 157 158
f 108 158 109
f 108 156 150
f 108 150 159
f 108 159 157
f 109 158 160
f 109 160 110
f 110 160 111
f 111 160 161
f 111 161 162
f 111 162 163
f 111 163 112
f 112 163 113
f 113 163 114
f 114 163 164
f 114 164 165
f 115 119 117
f 115 116 166
f 115 166 120
f 120 167 121
f 120 166 167
f 121 168 169
f 121 169 122
f 121 167 170
f 121 170 171
f 121 171 168
f 122 169 123
f 123 172 173
f 123 173 124
f 123 169 174
f 123 174 172
f 124 173 125
f 125 173 126
f 126 143 175
f 126 175 176
f 126 176 127
f 126 173 177
f 126 177 143
f 127 176 136
f 127 136 135
f 127 135 128
f 128 178 129
f 128 135 178
f 129 178 130
f 130 178 179
f 130 179 131
f 131 179 132
f 132 135 180
f 132 180 181
f 132 181 133
f 132 179 178
f 132 178 135
f 134 182 135
f 135 182 180
f 136 176 175
f 136 175 138
f 136 138 137
f 138 175 142
f 138 142 139
f 141 149 148
f 141 148 183
f 141 183 153
f 142 175 143
f 143 177 144
f 144 184 145
f 144 177 172
f 144 172 184
f 145 184 146
f 146 184 185
f 146 185 148
f 146 148 147
f 148 186 158
f 148 158 157
f 148 157 183
f 148 185 187
f 148 187 186
f 150 155 154
f 150 154 188
f 150 188 189
f 150 189 151
f 150 153 183
f 150 183 159
f 150 156 155
f 157 159 183
f 158 186 190
f 158 190 191
f 158 191 160
f 160 191 192
f 160 192 161
f 161 192 162
f 162 193 194
f 162 194 195
f 162 195 163
f 162 192 196
f 162 196 193
f 163 195 164
f 164 195 165
f 166 197 171
f 166 171 170
f 166 170 167
f 168 171 198
f 168 198 199
f 168 199 200
f 168 200 169
f 169 200 201
f 169 201 174
f 171 197 202
f 171 202 203
f 171 203 204
f 171 204 198
f 172 174 205
f 172 205 184
f 172 177 173
f 174 201 205
f 184 205 185
f 185 205 187
f 186 187 190
f 187 205 190
f 190 205 206
f 190 206 207
f 190 207 208
f 190 208 191
f 191 208 209
f 191 209 192
f 192 209 196
f 193 210 195
f 193 195 194
f 193 196 210
f 195 210 211
f 195 211 212
f 195 212 203
f 195 203 213
f 196 209 214
f 196 214 212
f 196 212 211
f 196 211 210
f 198 200 199
f 198 204 215
f 198 215 200
f 200 207 216
f 200 216 201
f 200 215 217
f 200 217 207
f 201 216 206
f 201 206 205
f 202 218 203
f 203 218 213
f 203 212 219
f 203 219 220
f 203 220 204
f 204 220 215
f 206 216 207
f 207 217 209
f 207 209 208
f 209 221 214
f 209 217 221
f 212 214 220
f 212 220 219
f 214 221 220
f 215 221 217
f 215 220 221

