# https://github.com/mikedh/trimesh
v -0.09613719 0.00950133 0.00463786
v -0.09870566 0.00950133 0.00495032
v -0.09613719 0.01475000 0.00463786
v -0.09613719 0.00950133 0.03146169
v -0.09870566 0.01472123 0.00495032
v -0.09870566 0.00950133 0.03132515
v -0.09869836 0.01475000 0.00495294
v -0.09613719 0.01475000 0.03146169
v -0.09870566 0.01475000 0.00495557
v -0.09870566 0.01475000 0.03132515
f 1 2 5
f 1 5 3
f 1 3 8
f 1 8 4
f 1 4 6
f 1 6 2
f 2 6 10
f 2 10 9
f 2 9 5
f 3 5 7
f 3 7 9
f 3 9 10
f 3 10 8
f 4 8 10
f 4 10 6
f 5 9 7

