# https://github.com/mikedh/trimesh
v 0.00060409 -0.00300000 -0.01498783
v -0.00000241 -0.00300000 -0.01496290
v 0.00060409 0.00300000 -0.01498783
v 0.00300070 -0.00300000 -0.01469593
v -0.00000241 0.00300000 -0.01496290
v -0.00000241 -0.00300000 -0.00295519
v 0.00300070 0.00300000 -0.01469593
v 0.00531948 -0.00300000 -0.01402411
v -0.00000241 0.00300000 -0.00295519
v 0.00300070 -0.00300000 -0.00000240
v 0.00531948 0.00300000 -0.01402411
v 0.00749875 -0.00300000 -0.01298997
v 0.00300070 0.00300000 -0.00000240
v 0.01499990 -0.00300000 -0.00000240
v 0.00749875 0.00300000 -0.01298997
v 0.00948564 -0.00300000 -0.01161846
v 0.01499990 0.00300000 -0.00000240
v 0.01494997 -0.00300000 -0.00120816
v 0.00948564 0.00300000 -0.01161846
v 0.01122730 -0.00300000 -0.00994624
v 0.01494997 0.00300000 -0.00120816
v 0.01456376 -0.00300000 -0.00359034
v 0.01122730 0.00300000 -0.00994624
v 0.01267672 -0.00300000 -0.00801585
v 0.01456376 0.00300000 -0.00359034
v 0.01379866 -0.00300000 -0.00588011
v 0.01267672 0.00300000 -0.00801585
v 0.01379866 0.00300000 -0.00588011
f 1 2 5
f 1 5 3
f 1 3 7
f 1 7 4
f 1 4 8
f 1 8 12
f 1 12 16
f 1 16 20
f 1 20 24
f 1 24 26
f 1 26 22
f 1 22 18
f 1 18 14
f 1 14 10
f 1 10 6
f 1 6 2
f 2 6 9
f 2 9 5
f 3 5 9
f 3 9 13
f 3 13 17
f 3 17 21
f 3 21 25
f 3 25 28
f 3 28 27
f 3 27 23
f 3 23 19
f 3 19 15
f 3 15 11
f 3 11 7
f 4 7 11
f 4 11 8
f 6 10 13
f 6 13 9
f 8 11 15
f 8 15 12
f 10 14 17
f 10 17 13
f 12 15 19
f 12 19 16
f 14 18 21
f 14 21 17
f 16 19 23
f 16 23 20
f 18 22 25
f 18 25 21
f 20 23 27
f 20 27 24
f 22 26 28
f 22 28 25
f 24 27 28
f 24 28 26

