# https://github.com/mikedh/trimesh
v -0.10134187 0.01475000 -0.00353212
v -0.10134187 0.00950174 -0.00353212
v -0.10134187 0.01475000 -0.02346247
v -0.10286198 0.01475000 0.00003238
v -0.10286104 0.00950174 0.00004619
v -0.10134187 0.00950174 -0.02346247
v -0.10286104 0.00685598 0.00004619
v -0.10192942 0.00685598 -0.00309030
v -0.11094478 0.00950174 -0.02191839
v -0.11094385 0.01475000 -0.02191839
v -0.11094385 0.01475000 0.00003238
v -0.11094478 0.00950174 0.00004619
v -0.10192942 0.00685598 -0.02336582
v -0.11094478 0.00685598 -0.02191839
v -0.11094478 0.00685598 0.00004619
f 1 2 6
f 1 6 3
f 1 3 10
f 1 10 11
f 1 11 4
f 1 4 5
f 1 5 7
f 1 7 2
f 2 7 8
f 2 8 13
f 2 13 6
f 3 9 10
f 3 6 14
f 3 14 9
f 4 11 12
f 4 12 5
f 5 12 15
f 5 15 7
f 6 13 14
f 7 15 14
f 7 14 13
f 7 13 8
f 9 12 11
f 9 11 10
f 9 14 15
f 9 15 12

