# https://github.com/mikedh/trimesh
v -0.06635962 0.00275020 -0.02908187
v -0.09253298 0.00275020 -0.02487447
v -0.08626997 0.00480682 -0.02588305
v -0.06635962 0.00480682 -0.02908187
v -0.02268948 0.00275020 -0.02908187
v -0.09253298 0.00275020 -0.00725210
v -0.09253298 0.00480682 -0.02487447
v -0.02268948 0.00480682 -0.02908187
v -0.02268948 0.00275020 -0.00725210
v -0.09253298 0.00480682 -0.00725210
v -0.02268948 0.00480682 -0.00725210
f 1 2 3
f 1 3 4
f 1 4 8
f 1 8 5
f 1 5 9
f 1 9 6
f 1 6 2
f 2 6 10
f 2 10 7
f 2 7 3
f 3 7 10
f 3 10 11
f 3 11 8
f 3 8 4
f 5 8 11
f 5 11 9
f 6 9 11
f 6 11 10

