# https://github.com/mikedh/trimesh
v -0.00600281 0.00925000 -0.05543033
v -0.00600281 0.01475000 -0.05543033
v -0.00247296 0.00925000 -0.05506044
v -0.00931384 0.00925000 -0.05413385
v -0.00247296 0.01475000 -0.05506044
v -0.00931384 0.01475000 -0.05413385
v 0.00049530 0.00925000 -0.05310370
v -0.01165492 0.00925000 -0.05145767
v 0.00049530 0.01475000 -0.05310370
v -0.01165492 0.01475000 -0.05145767
v 0.01587635 0.00925000 -0.03653796
v -0.02137291 0.00925000 -0.03653796
v 0.01587635 0.01475000 -0.03653796
v -0.02137291 0.01475000 -0.03653796
f 1 2 5
f 1 5 3
f 1 3 7
f 1 7 11
f 1 11 12
f 1 12 8
f 1 8 4
f 1 4 6
f 1 6 2
f 2 6 10
f 2 10 14
f 2 14 13
f 2 13 9
f 2 9 5
f 3 5 9
f 3 9 7
f 4 8 10
f 4 10 6
f 7 9 13
f 7 13 11
f 8 12 14
f 8 14 10
f 11 13 14
f 11 14 12

