# https://github.com/mikedh/trimesh
v -0.02581807 0.01475000 0.03514704
v -0.05725752 0.01475000 0.03349566
v -0.02581807 0.00950133 0.03514704
v -0.02581807 0.01475000 -0.03514703
v -0.09000381 0.01475000 0.03177546
v -0.05725752 0.00950133 0.03349566
v -0.02581807 0.00950133 -0.03514703
v -0.02996476 0.01475000 -0.03492685
v -0.09000381 0.00950133 0.03177546
v -0.09000381 0.01475000 -0.02527311
v -0.02996476 0.00950133 -0.03492685
v -0.09000381 0.00950133 -0.02527311
f 1 2 6
f 1 6 3
f 1 3 7
f 1 7 4
f 1 4 8
f 1 8 10
f 1 10 5
f 1 5 2
f 2 5 9
f 2 9 6
f 3 6 9
f 3 9 12
f 3 12 11
f 3 11 7
f 4 7 11
f 4 11 8
f 5 10 12
f 5 12 9
f 8 11 12
f 8 12 10

