# https://github.com/mikedh/trimesh
v -0.02240463 0.00924989 -0.03590301
v -0.02849852 0.00685598 -0.03500510
v -0.02996077 0.00685598 -0.03492640
v -0.02240463 0.00950133 -0.03590301
v -0.02240463 0.00685598 -0.03532348
v -0.02996077 0.00950133 -0.03492640
v -0.04621348 0.00685598 -0.03231852
v -0.02240463 0.00950133 0.00063598
v -0.02240463 0.00685598 0.00063598
v -0.04621348 0.00950133 -0.03231852
v -0.09306159 0.00685598 -0.02478821
v -0.09305459 0.00950133 0.00063598
v -0.09305459 0.00685598 0.00063598
v -0.09388017 0.00950133 -0.02465585
v -0.09388017 0.00685598 -0.02465585
v -0.09388017 0.00950133 -0.00255859
v -0.09388017 0.00685598 -0.00255859
f 1 2 3
f 1 3 6
f 1 6 4
f 1 4 8
f 1 8 9
f 1 9 5
f 1 5 2
f 2 5 9
f 2 9 13
f 2 13 17
f 2 17 15
f 2 15 11
f 2 11 7
f 2 7 3
f 3 7 10
f 3 10 6
f 4 6 10
f 4 10 14
f 4 14 16
f 4 16 12
f 4 12 8
f 7 11 10
f 8 12 13
f 8 13 9
f 10 11 14
f 11 15 14
f 12 16 17
f 12 17 13
f 14 15 17
f 14 17 16

