# https://github.com/mikedh/trimesh
v -0.00228804 0.00300000 -0.00193683
v -0.00266382 0.00300000 0.00129621
v -0.00228804 -0.00300000 -0.00193683
v -0.01484322 0.00300000 -0.00193683
v -0.00266382 -0.00300000 0.00129621
v -0.01489423 0.00300000 0.00129621
v -0.01484322 -0.00300000 -0.00193683
v -0.01499876 0.00300000 -0.00000004
v -0.01489423 -0.00300000 0.00129621
v -0.01499876 -0.00300000 -0.00000004
f 1 2 5
f 1 5 3
f 1 3 7
f 1 7 4
f 1 4 8
f 1 8 6
f 1 6 2
f 2 6 9
f 2 9 5
f 3 5 9
f 3 9 10
f 3 10 7
f 4 7 10
f 4 10 8
f 6 8 10
f 6 10 9

