# https://github.com/mikedh/trimesh
v -0.12472637 0.00590000 0.10045351
v -0.12472637 0.01390000 0.10045351
v -0.09427290 0.00590000 0.10045351
v -0.14930977 0.00590000 0.13191918
v -0.09427290 0.01390000 0.10045351
v -0.14930977 0.01390000 0.13191918
v -0.13039946 0.00590000 0.14669294
v -0.15142029 0.00590000 0.13609837
v -0.13039946 0.01390000 0.14669294
v -0.15142029 0.01390000 0.13609837
v -0.13394514 0.00590000 0.14974906
v -0.15176924 0.00590000 0.14076952
v -0.13394514 0.01390000 0.14974906
v -0.15176924 0.01390000 0.14076952
v -0.13839132 0.00590000 0.15121998
v -0.15030031 0.00590000 0.14521706
v -0.13839132 0.01390000 0.15121998
v -0.15030031 0.01390000 0.14521706
v -0.14306261 0.00590000 0.15087213
v -0.14724427 0.00590000 0.14876514
v -0.14306261 0.01390000 0.15087213
v -0.14724427 0.01390000 0.14876514
f 1 2 5
f 1 5 3
f 1 3 7
f 1 7 11
f 1 11 15
f 1 15 19
f 1 19 20
f 1 20 16
f 1 16 12
f 1 12 8
f 1 8 4
f 1 4 6
f 1 6 2
f 2 6 10
f 2 10 14
f 2 14 18
f 2 18 22
f 2 22 21
f 2 21 17
f 2 17 13
f 2 13 9
f 2 9 5
f 3 5 9
f 3 9 7
f 4 8 10
f 4 10 6
f 7 9 13
f 7 13 11
f 8 12 14
f 8 14 10
f 11 13 17
f 11 17 15
f 12 16 18
f 12 18 14
f 15 17 21
f 15 21 19
f 16 20 22
f 16 22 18
f 19 21 22
f 19 22 20

