# https://github.com/mikedh/trimesh
v -0.09000381 0.01475000 0.03178311
v -0.09613694 0.01475000 0.03145990
v -0.09000381 0.00950133 0.03178311
v -0.09000381 0.01475000 0.00003659
v -0.09613694 0.00950133 0.03145990
v -0.09613694 0.01475000 0.00463929
v -0.09000381 0.00950133 0.00003659
v -0.09312981 0.01475000 0.00003659
v -0.09613694 0.00950133 0.00463929
v -0.09312981 0.00950133 0.00003659
f 1 2 5
f 1 5 3
f 1 3 7
f 1 7 4
f 1 4 8
f 1 8 6
f 1 6 2
f 2 6 9
f 2 9 5
f 3 5 9
f 3 9 10
f 3 10 7
f 4 7 10
f 4 10 8
f 6 8 10
f 6 10 9

