# https://github.com/mikedh/trimesh
v -0.00288787 -0.01249895 -0.05993029
v -0.00048131 -0.01252143 -0.03633597
v -0.00082175 -0.01252143 -0.03633597
v -0.01271367 -0.01249895 -0.05862797
v -0.00288787 0.01249787 -0.05993029
v 0.00700837 -0.01249895 -0.05957831
v 0.00051653 -0.01252143 -0.03604265
v 0.01671677 -0.01249895 -0.05761896
v -0.00204264 -0.01252143 -0.03597226
v -0.01271367 0.01249787 -0.05862797
v -0.02218729 -0.01249895 -0.05574174
v 0.00246525 0.01300000 -0.02687946
v 0.00700837 0.01249787 -0.05957831
v 0.00054001 -0.01252143 -0.03603092
v 0.02597908 -0.01249895 -0.05407571
v 0.01671677 0.01249787 -0.05761896
v -0.03121481 -0.01252143 -0.01829118
v -0.03106220 -0.01249895 -0.05133027
v -0.01648199 0.01300000 -0.02137686
v -0.02218729 0.01249787 -0.05574174
v 0.00346310 0.01300000 -0.02677387
v 0.03046349 -0.01252143 -0.01953484
v 0.02597908 0.01249787 -0.05407571
v 0.03452530 -0.01249895 -0.04906587
v -0.03184873 -0.01252143 -0.01754029
v -0.04604155 -0.01249895 -0.03845957
v -0.03908015 -0.01249895 -0.04551089
v -0.03106220 0.01249787 -0.05133027
v -0.03908015 0.01249787 -0.04551089
v -0.01725678 0.01300000 -0.02075503
v 0.02075509 0.01300000 -0.01725870
v 0.04213236 -0.01249895 -0.04270679
v 0.04858898 -0.01249895 -0.03519790
v 0.03116785 -0.01252143 -0.01871355
v 0.03452530 0.01249787 -0.04906587
v -0.03186047 -0.01252143 -0.01751682
v -0.05174686 -0.01249895 -0.03035232
v -0.04604155 0.01249787 -0.03845957
v -0.05174686 0.01249787 -0.03035232
v -0.02676562 0.01300000 -0.00346113
v 0.02137727 0.01300000 -0.01647262
v 0.04858898 0.01249787 -0.03519790
v 0.04213236 0.01249787 -0.04270679
v 0.05371906 -0.01249895 -0.02671521
v 0.03128525 -0.01252143 -0.01846717
v -0.03200135 -0.01252143 -0.01718831
v -0.05604344 -0.01249895 -0.02142379
v -0.05604344 0.01249787 -0.02142379
v -0.05880218 0.01249787 -0.01190862
v -0.05996437 0.01249787 -0.00206495
v -0.02688301 0.01300000 -0.00246385
v 0.02688301 0.01300000 0.00246385
v 0.05738172 0.01249787 -0.01750509
v 0.05371906 0.01249787 -0.02671521
v 0.05738172 -0.01249895 -0.01750509
v 0.03129699 -0.01252143 -0.01840850
v 0.05948306 -0.01249895 -0.00782567
v -0.03201308 -0.01252143 -0.01711791
v -0.05880218 -0.01249895 -0.01190862
v -0.05996437 -0.01249895 -0.00206495
v -0.05948306 0.01249787 0.00782566
v -0.05738172 0.01249787 0.01750509
v -0.02137727 0.01300000 0.01647262
v 0.02676562 0.01300000 0.00346112
v 0.05996437 0.01249787 0.00206494
v 0.05948306 0.01249787 -0.00782567
v 0.03146134 -0.01252143 -0.01712965
v 0.05996437 -0.01249895 0.00206494
v -0.03216570 -0.01252143 -0.01601505
v -0.03143786 -0.01252143 0.01796266
v -0.05948306 -0.01249895 0.00782566
v -0.05738172 -0.01249895 0.01750509
v -0.05371906 0.01249787 0.02671520
v -0.02075509 0.01300000 0.01725870
v -0.04858898 0.01249787 0.03519790
v 0.05174686 0.01249787 0.03035232
v 0.05604344 0.01249787 0.02142379
v 0.05880218 0.01249787 0.01190862
v 0.01725678 0.01300000 0.02075503
v 0.03211874 -0.01252143 0.01673073
v 0.05880218 -0.01249895 0.01190862
v 0.03211874 -0.01252143 0.01680113
v -0.03140264 -0.01252143 0.01812692
v -0.05371906 -0.01249895 0.02671520
v -0.04213236 0.01249787 0.04270678
v -0.03452530 0.01249787 0.04906587
v -0.02597908 0.01249787 0.05407570
v -0.00346310 0.01300000 0.02677387
v -0.04858898 -0.01249895 0.03519790
v 0.05174686 -0.01249895 0.03035232
v 0.04604155 0.01249787 0.03845957
v 0.05604344 -0.01249895 0.02142379
v 0.01648199 0.01300000 0.02137686
v 0.03908015 0.01249787 0.04551088
v 0.03202483 -0.01252143 0.01714138
v -0.03078046 -0.01252143 0.01924152
v -0.04213236 -0.01249895 0.04270678
v -0.03452530 -0.01249895 0.04906587
v -0.02597908 -0.01249895 0.05407570
v -0.01671677 0.01249787 0.05761896
v -0.00700837 0.01249787 0.05957831
v -0.00246525 0.01300000 0.02687946
v -0.03074524 -0.01252143 0.01928845
v 0.04604155 -0.01249895 0.03845957
v 0.03149655 -0.01252143 0.01802132
v 0.03201308 -0.01252143 0.01716484
v 0.01271367 0.01249787 0.05862797
v 0.02218729 0.01249787 0.05574174
v 0.03106220 0.01249787 0.05133027
v 0.03908015 -0.01249895 0.04551088
v -0.03054567 -0.01252143 0.01947617
v -0.00085697 -0.01252143 0.03583146
v -0.00083349 -0.01252143 0.03584319
v 0.00011739 -0.01252143 0.03628903
v -0.01671677 -0.01249895 0.05761896
v -0.00700837 -0.01249895 0.05957831
v 0.00288787 0.01249787 0.05993029
v 0.03106220 -0.01249895 0.05133027
v 0.03041654 -0.01252143 0.01872528
v 0.01271367 -0.01249895 0.05862797
v 0.02218729 -0.01249895 0.05574174
v 0.00119741 -0.01252143 0.03630076
v 0.00288787 -0.01249895 0.05993029
v 0.00152611 -0.01252143 0.03620690
f 1 2 3
f 1 3 4
f 1 4 10
f 1 10 5
f 1 5 13
f 1 13 6
f 1 6 2
f 2 7 14
f 2 14 22
f 2 22 34
f 2 34 45
f 2 45 56
f 2 56 67
f 2 67 80
f 2 80 82
f 2 82 95
f 2 95 106
f 2 106 105
f 2 105 119
f 2 119 124
f 2 124 122
f 2 122 114
f 2 114 113
f 2 113 112
f 2 112 111
f 2 111 103
f 2 103 96
f 2 96 83
f 2 83 70
f 2 70 69
f 2 69 58
f 2 58 46
f 2 46 36
f 2 36 25
f 2 25 17
f 2 17 9
f 2 9 3
f 2 6 8
f 2 8 7
f 3 9 4
f 4 9 11
f 4 11 20
f 4 20 10
f 5 10 12
f 5 12 13
f 6 13 16
f 6 16 8
f 7 8 15
f 7 15 14
f 8 16 23
f 8 23 15
f 9 17 18
f 9 18 11
f 10 19 12
f 10 20 19
f 11 18 28
f 11 28 20
f 12 21 13
f 12 19 30
f 12 30 40
f 12 40 51
f 12 51 63
f 12 63 74
f 12 74 88
f 12 88 102
f 12 102 93
f 12 93 79
f 12 79 64
f 12 64 52
f 12 52 41
f 12 41 31
f 12 31 21
f 13 21 16
f 14 15 22
f 15 23 35
f 15 35 24
f 15 24 22
f 16 21 23
f 17 25 26
f 17 26 27
f 17 27 18
f 18 27 29
f 18 29 28
f 19 20 28
f 19 28 29
f 19 29 30
f 21 31 23
f 22 24 32
f 22 32 33
f 22 33 34
f 23 31 35
f 24 35 43
f 24 43 32
f 25 36 37
f 25 37 26
f 26 37 39
f 26 39 38
f 26 38 29
f 26 29 27
f 29 38 30
f 30 38 39
f 30 39 40
f 31 41 42
f 31 42 43
f 31 43 35
f 32 43 42
f 32 42 33
f 33 42 54
f 33 54 44
f 33 44 34
f 34 44 45
f 36 46 47
f 36 47 37
f 37 47 48
f 37 48 39
f 39 48 40
f 40 48 49
f 40 49 50
f 40 50 51
f 41 52 53
f 41 53 54
f 41 54 42
f 44 54 53
f 44 53 55
f 44 55 45
f 45 55 57
f 45 57 56
f 46 58 59
f 46 59 47
f 47 59 49
f 47 49 48
f 49 59 60
f 49 60 50
f 50 60 71
f 50 71 61
f 50 61 51
f 51 61 62
f 51 62 63
f 52 64 65
f 52 65 66
f 52 66 53
f 53 66 57
f 53 57 55
f 56 57 67
f 57 66 65
f 57 65 68
f 57 68 67
f 58 69 59
f 59 69 60
f 60 69 70
f 60 70 71
f 61 71 72
f 61 72 62
f 62 72 84
f 62 84 73
f 62 73 63
f 63 73 75
f 63 75 74
f 64 76 77
f 64 77 78
f 64 78 65
f 64 79 76
f 65 78 81
f 65 81 68
f 67 68 80
f 68 81 82
f 68 82 80
f 70 83 71
f 71 83 72
f 72 83 84
f 73 84 89
f 73 89 75
f 74 75 85
f 74 85 86
f 74 86 87
f 74 87 88
f 75 89 97
f 75 97 85
f 76 90 92
f 76 92 77
f 76 79 91
f 76 91 104
f 76 104 90
f 77 92 81
f 77 81 78
f 79 93 94
f 79 94 91
f 81 92 95
f 81 95 82
f 83 96 84
f 84 96 89
f 85 97 98
f 85 98 86
f 86 98 99
f 86 99 87
f 87 99 115
f 87 115 100
f 87 100 88
f 88 100 101
f 88 101 102
f 89 96 103
f 89 103 97
f 90 104 105
f 90 105 106
f 90 106 95
f 90 95 92
f 91 94 110
f 91 110 104
f 93 107 108
f 93 108 109
f 93 109 94
f 93 102 107
f 94 109 118
f 94 118 110
f 97 103 111
f 97 111 98
f 98 111 99
f 99 111 112
f 99 112 113
f 99 113 114
f 99 114 115
f 100 115 116
f 100 116 101
f 101 116 123
f 101 123 117
f 101 117 102
f 102 117 107
f 104 110 105
f 105 110 118
f 105 118 119
f 107 117 123
f 107 123 120
f 107 120 121
f 107 121 108
f 108 121 118
f 108 118 109
f 114 116 115
f 114 122 123
f 114 123 116
f 118 121 124
f 118 124 119
f 120 123 122
f 120 122 124
f 120 124 121

