# https://github.com/mikedh/trimesh
v -0.02268436 0.00275020 -0.02908187
v -0.02268436 0.00275020 -0.00725210
v -0.02268436 0.00480682 -0.02908187
v 0.02153960 0.00275020 -0.02908187
v -0.02268436 0.00480682 -0.00725210
v 0.02969827 0.00275020 -0.00725210
v 0.02153960 0.00480682 -0.02908187
v 0.02441129 0.00480682 -0.02687881
v 0.02580611 0.00275020 -0.02580826
v 0.02969827 0.00480682 -0.00725210
v 0.02969827 0.00275020 -0.02073972
v 0.02580611 0.00480682 -0.02580826
v 0.02969827 0.00480682 -0.02073972
f 1 2 5
f 1 5 3
f 1 3 7
f 1 7 4
f 1 4 9
f 1 9 11
f 1 11 6
f 1 6 2
f 2 6 10
f 2 10 5
f 3 5 10
f 3 10 13
f 3 13 12
f 3 12 8
f 3 8 7
f 4 7 8
f 4 8 9
f 6 11 13
f 6 13 10
f 8 12 9
f 9 12 13
f 9 13 11

