# https://github.com/mikedh/trimesh
v -0.01489536 -0.00300000 0.00129755
v -0.01480497 -0.00300000 0.00240661
v -0.01489536 0.00300000 0.00129755
v -0.00266436 -0.00300000 0.00129755
v -0.01422768 -0.00300000 0.00475047
v -0.01480497 0.00300000 0.00240661
v -0.00266436 0.00300000 0.00129755
v -0.00000386 -0.00300000 0.00295511
v -0.01328157 -0.00300000 0.00697125
v -0.01422768 0.00300000 0.00475047
v -0.00000386 0.00300000 0.00295511
v -0.00000386 -0.00300000 0.01496340
v -0.01199141 -0.00300000 0.00901009
v -0.01328157 0.00300000 0.00697125
v -0.00000386 0.00300000 0.01496340
v -0.00180863 -0.00300000 0.01488982
v -0.01199141 0.00300000 0.00901009
v -0.01039074 -0.00300000 0.01081749
v -0.00180863 0.00300000 0.01488982
v -0.00417465 -0.00300000 0.01440686
v -0.01039074 0.00300000 0.01081749
v -0.00852037 -0.00300000 0.01234394
v -0.00417465 0.00300000 0.01440686
v -0.00643133 -0.00300000 0.01355066
v -0.00852037 0.00300000 0.01234394
v -0.00643133 0.00300000 0.01355066
f 1 2 6
f 1 6 3
f 1 3 7
f 1 7 4
f 1 4 8
f 1 8 12
f 1 12 16
f 1 16 20
f 1 20 24
f 1 24 22
f 1 22 18
f 1 18 13
f 1 13 9
f 1 9 5
f 1 5 2
f 2 5 10
f 2 10 6
f 3 6 10
f 3 10 14
f 3 14 17
f 3 17 21
f 3 21 25
f 3 25 26
f 3 26 23
f 3 23 19
f 3 19 15
f 3 15 11
f 3 11 7
f 4 7 11
f 4 11 8
f 5 9 14
f 5 14 10
f 8 11 15
f 8 15 12
f 9 13 17
f 9 17 14
f 12 15 19
f 12 19 16
f 13 18 21
f 13 21 17
f 16 19 23
f 16 23 20
f 18 22 25
f 18 25 21
f 20 23 26
f 20 26 24
f 22 24 26
f 22 26 25

