# https://github.com/mikedh/trimesh
v 0.03649724 0.00950133 0.00000628
v 0.03574349 0.00685598 0.00574256
v 0.03649724 0.00685598 0.00000628
v 0.03601210 0.00685598 -0.00370106
v 0.03595455 0.00950133 -0.00412572
v 0.03525561 0.00950133 0.00944317
v 0.03525561 0.00685598 0.00944317
v 0.03525561 0.00685598 -0.00944408
v 0.03525561 0.00950133 -0.00944408
v 0.03320267 0.00950133 0.01439753
v 0.03400849 0.00685598 0.01245623
v 0.03285731 0.00685598 -0.01523428
v 0.03160745 0.00950133 -0.01824734
v 0.03160745 0.00950133 0.01824643
v 0.03160745 0.00685598 0.01824643
v 0.03160745 0.00685598 -0.01824734
v 0.02696709 0.00950133 -0.02453635
v 0.02834577 0.00950133 0.02249977
v 0.02962303 0.00685598 0.02083484
v 0.02853489 0.00685598 -0.02240631
v 0.02674507 0.00924989 -0.02483294
v 0.02674507 0.00950133 -0.02483294
v 0.02580769 0.00950133 0.02580268
v 0.02580769 0.00685598 0.02580268
v 0.02580769 0.00685598 -0.02580359
v 0.02589813 0.00950133 -0.02574967
v 0.02155653 0.00950133 0.02907188
v 0.02121391 0.00685598 0.02933477
v 0.01825099 0.00685598 -0.03160727
v 0.01871146 0.00924989 -0.03348117
v 0.01871968 0.00943556 -0.03348117
v 0.01871968 0.00950133 -0.03348117
v 0.01825099 0.00950133 0.03160636
v 0.01825099 0.00685598 0.03160636
v 0.01373396 0.00685598 -0.03348117
v 0.00849881 0.00950133 -0.03348117
v 0.00944717 0.00950133 0.03525304
v 0.01289798 0.00685598 0.03382403
v 0.00849881 0.00685598 -0.03348117
v 0.00849881 0.00950133 0.03538112
v 0.00944717 0.00685598 0.03525304
v 0.00849881 0.00685598 0.03538112
f 1 2 3
f 1 3 4
f 1 4 5
f 1 5 9
f 1 9 13
f 1 13 17
f 1 17 22
f 1 22 26
f 1 26 32
f 1 32 36
f 1 36 40
f 1 40 37
f 1 37 33
f 1 33 27
f 1 27 23
f 1 23 18
f 1 18 14
f 1 14 10
f 1 10 6
f 1 6 2
f 2 7 11
f 2 11 15
f 2 15 19
f 2 19 24
f 2 24 28
f 2 28 34
f 2 34 38
f 2 38 41
f 2 41 42
f 2 42 39
f 2 39 35
f 2 35 29
f 2 29 25
f 2 25 20
f 2 20 16
f 2 16 12
f 2 12 8
f 2 8 4
f 2 4 3
f 2 6 7
f 4 8 9
f 4 9 5
f 6 10 11
f 6 11 7
f 8 12 9
f 9 12 13
f 10 14 11
f 11 14 15
f 12 16 13
f 13 16 17
f 14 18 19
f 14 19 15
f 16 20 17
f 17 21 22
f 17 20 21
f 18 23 24
f 18 24 19
f 20 25 21
f 21 26 22
f 21 25 26
f 23 27 24
f 24 27 28
f 25 29 30
f 25 30 31
f 25 31 26
f 26 31 32
f 27 33 28
f 28 33 34
f 29 35 30
f 30 35 39
f 30 39 36
f 30 36 32
f 30 32 31
f 33 37 38
f 33 38 34
f 36 39 42
f 36 42 40
f 37 40 42
f 37 42 41
f 37 41 38

