# https://github.com/mikedh/trimesh
v 0.03649998 0.01475000 -0.00000467
v 0.03525561 0.01475000 0.00944680
v 0.03649998 0.00950133 -0.00000467
v 0.03525561 0.01475000 -0.00944184
v 0.03525561 0.00950133 0.00944680
v 0.03160788 0.01475000 0.01824767
v 0.03525561 0.00950133 -0.00944184
v 0.03160788 0.01475000 -0.01824987
v 0.03160788 0.00950133 0.01824767
v 0.02834446 0.00950133 0.02250155
v 0.02580691 0.01475000 0.02580456
v 0.03160788 0.00950133 -0.01824987
v 0.02696589 0.00950133 -0.02453417
v 0.02674019 0.01475000 -0.02483444
v 0.02580691 0.00950133 0.02580456
v 0.01824917 0.01475000 0.03160985
v 0.02155530 0.00950133 0.02907183
v 0.02674019 0.00950133 -0.02483444
v 0.02589231 0.00950133 -0.02574956
v 0.01587633 0.01475000 -0.03653796
v 0.01824917 0.00950133 0.03160985
v 0.00944096 0.01475000 0.03525603
v 0.01587633 0.00950133 -0.03653796
v -0.02136947 0.01475000 -0.03653796
v 0.00944096 0.00950133 0.03525603
v 0.00000447 0.01475000 0.03650002
v -0.02136947 0.00950133 -0.03653796
v -0.02581627 0.01475000 -0.03514384
v 0.00000447 0.00950133 0.03650002
v -0.02581627 0.01475000 0.03514164
v -0.02581627 0.00950133 -0.03514384
v -0.02581627 0.00950133 0.03514164
f 1 2 5
f 1 5 3
f 1 3 7
f 1 7 4
f 1 4 8
f 1 8 14
f 1 14 20
f 1 20 24
f 1 24 28
f 1 28 30
f 1 30 26
f 1 26 22
f 1 22 16
f 1 16 11
f 1 11 6
f 1 6 2
f 2 6 9
f 2 9 5
f 3 5 9
f 3 9 10
f 3 10 15
f 3 15 17
f 3 17 21
f 3 21 25
f 3 25 29
f 3 29 32
f 3 32 31
f 3 31 27
f 3 27 23
f 3 23 19
f 3 19 18
f 3 18 13
f 3 13 12
f 3 12 7
f 4 7 12
f 4 12 8
f 6 10 9
f 6 11 10
f 8 12 13
f 8 13 14
f 10 11 15
f 11 16 17
f 11 17 15
f 13 18 14
f 14 18 19
f 14 19 20
f 16 21 17
f 16 22 25
f 16 25 21
f 19 23 20
f 20 23 27
f 20 27 24
f 22 26 29
f 22 29 25
f 24 27 31
f 24 31 28
f 26 30 32
f 26 32 29
f 28 31 32
f 28 32 30

