# https://github.com/mikedh/trimesh
v 0.00414437 0.01450000 0.02897285
v -0.02930843 0.01450000 0.05653412
v 0.00414437 0.00250000 0.02897285
v 0.00414437 0.01450000 -0.03611271
v -0.03410447 0.01450000 0.05893642
v -0.02930843 0.00250000 0.05653412
v 0.00414437 0.00250000 -0.03611271
v -0.01607384 0.01450000 -0.01914763
v -0.03410447 0.00250000 0.05893642
v -0.03946690 0.01450000 0.05900160
v -0.01607384 0.00250000 -0.01914763
v -0.01977350 0.01450000 -0.01530209
v -0.03946690 0.00250000 0.05900160
v -0.04432530 0.01450000 0.05672966
v -0.01977350 0.00250000 -0.01530209
v -0.02256383 0.01450000 -0.01074889
v -0.04432530 0.00250000 0.05672966
v -0.04770799 0.01450000 0.05256754
v -0.02256383 0.00250000 -0.01074889
v -0.04777035 0.01450000 0.04211101
v -0.04770799 0.00250000 0.05256754
v -0.04893947 0.01450000 0.04734393
v -0.04777035 0.00250000 0.04211101
v -0.04893947 0.00250000 0.04734393
f 1 2 6
f 1 6 3
f 1 3 7
f 1 7 4
f 1 4 8
f 1 8 12
f 1 12 16
f 1 16 20
f 1 20 22
f 1 22 18
f 1 18 14
f 1 14 10
f 1 10 5
f 1 5 2
f 2 5 9
f 2 9 6
f 3 6 9
f 3 9 13
f 3 13 17
f 3 17 21
f 3 21 24
f 3 24 23
f 3 23 19
f 3 19 15
f 3 15 11
f 3 11 7
f 4 7 11
f 4 11 8
f 5 10 13
f 5 13 9
f 8 11 15
f 8 15 12
f 10 14 17
f 10 17 13
f 12 15 19
f 12 19 16
f 14 18 21
f 14 21 17
f 16 19 23
f 16 23 20
f 18 22 24
f 18 24 21
f 20 23 24
f 20 24 22

