# https://github.com/mikedh/trimesh
v -0.00000905 0.00480682 -0.03649999
v -0.01623465 0.00685598 -0.03564956
v -0.00000905 0.00685598 -0.03649999
v 0.00298608 0.00480682 -0.03610637
v -0.02861612 0.00480682 -0.03500055
v -0.02996039 0.00685598 -0.03492946
v 0.00943623 0.00685598 -0.03525594
v 0.00770283 0.00480682 -0.03548501
v -0.02996039 0.00480682 -0.03492946
v -0.09253981 0.00685598 -0.02487703
v 0.01500199 0.00685598 -0.03295215
v 0.01223091 0.00480682 -0.03410141
v 0.00943623 0.00480682 -0.03525594
v -0.09253981 0.00480682 -0.02487703
v -0.09253981 0.00685598 -0.02305243
v 0.01824476 0.00685598 -0.03160937
v 0.01824476 0.00480682 -0.03160937
v -0.09253981 0.00480682 -0.02305243
v 0.02792588 0.00685598 -0.02305243
v 0.02302046 0.00685598 -0.02794700
v 0.02063851 0.00480682 -0.02977555
v 0.02792588 0.00480682 -0.02305243
v 0.02580334 0.00685598 -0.02581040
v 0.02441190 0.00480682 -0.02688067
v 0.02580334 0.00480682 -0.02581040
f 1 2 3
f 1 3 4
f 1 4 8
f 1 8 13
f 1 13 12
f 1 12 17
f 1 17 21
f 1 21 24
f 1 24 25
f 1 25 22
f 1 22 18
f 1 18 14
f 1 14 9
f 1 9 5
f 1 5 2
f 2 5 6
f 2 6 10
f 2 10 15
f 2 15 19
f 2 19 23
f 2 23 20
f 2 20 16
f 2 16 11
f 2 11 7
f 2 7 3
f 3 7 4
f 4 7 8
f 5 9 6
f 6 9 14
f 6 14 10
f 7 11 12
f 7 12 13
f 7 13 8
f 10 14 18
f 10 18 15
f 11 16 12
f 12 16 17
f 15 18 22
f 15 22 19
f 16 20 21
f 16 21 17
f 19 22 25
f 19 25 23
f 20 23 24
f 20 24 21
f 23 25 24

