# https://github.com/mikedh/trimesh
v -0.15294749 0.00275000 -0.01647806
v -0.15294749 0.01475000 -0.01647806
v -0.14788637 0.00275118 -0.01598222
v -0.14789529 0.00275000 -0.01598222
v -0.15294749 0.00275000 0.02848401
v -0.14788637 0.01475000 -0.01598222
v -0.15294749 0.01475000 0.02848401
v -0.14788637 0.00275000 -0.01514549
v -0.14788637 0.00275000 0.02874964
v -0.14788637 0.01475000 0.02874964
f 1 2 6
f 1 6 3
f 1 3 4
f 1 4 8
f 1 8 9
f 1 9 5
f 1 5 7
f 1 7 2
f 2 7 10
f 2 10 6
f 3 6 10
f 3 10 9
f 3 9 8
f 3 8 4
f 5 9 10
f 5 10 7

