# https://github.com/mikedh/trimesh
v -0.00000179 0.00275020 -0.03649999
v -0.00813334 0.00480682 -0.03607376
v -0.00000179 0.00480682 -0.03649999
v 0.00944627 0.00275020 -0.03525614
v -0.02995510 0.00275020 -0.03492938
v -0.02860415 0.00480682 -0.03500054
v 0.00944627 0.00480682 -0.03525614
v 0.01824898 0.00275020 -0.03161025
v -0.06636200 0.00275020 -0.02908187
v -0.02995510 0.00480682 -0.03492938
v 0.01824898 0.00480682 -0.03161025
v 0.02064111 0.00480682 -0.02977460
v 0.02153601 0.00275020 -0.02908187
v -0.06636200 0.00480682 -0.02908187
v 0.02153601 0.00480682 -0.02908187
f 1 2 3
f 1 3 7
f 1 7 4
f 1 4 8
f 1 8 13
f 1 13 9
f 1 9 5
f 1 5 6
f 1 6 2
f 2 6 10
f 2 10 14
f 2 14 15
f 2 15 12
f 2 12 11
f 2 11 7
f 2 7 3
f 4 7 11
f 4 11 8
f 5 9 14
f 5 14 10
f 5 10 6
f 8 11 12
f 8 12 13
f 9 13 15
f 9 15 14
f 12 15 13

