# https://github.com/mikedh/trimesh
v 0.00006981 -0.03484837 -0.02097734
v 0.00132238 -0.02135150 -0.02095680
v 0.00132238 -0.03384893 -0.02095680
v 0.00131827 -0.03484837 -0.02093216
v 0.00114989 -0.03884835 -0.01823812
v -0.00006571 -0.03834417 -0.01861595
v -0.00046406 -0.03880373 -0.01829973
v -0.00064476 -0.03884166 -0.01826687
v -0.00413962 -0.03484837 -0.02056255
v -0.00414372 -0.03384893 -0.02058308
v -0.00414372 -0.02135150 -0.02058308
v 0.00267761 -0.02105925 -0.01981923
v 0.00670223 -0.02135150 -0.01990136
v 0.00256673 -0.03484837 -0.02081717
v -0.00301026 -0.02105925 -0.01976995
v -0.00025051 -0.02105925 -0.01979459
v 0.00020123 -0.04378084 -0.00324024
v -0.00030390 -0.03870111 -0.01836954
v 0.00235728 -0.03784668 -0.01880486
v 0.00240656 -0.03834417 -0.01845578
v 0.00262011 -0.03870780 -0.01818063
v 0.00275974 -0.03880373 -0.01809439
v 0.00294044 -0.03884166 -0.01804100
v -0.00064065 -0.04378084 -0.00318274
v -0.00360574 -0.03884835 -0.01791369
v -0.00647226 -0.03884166 -0.01709234
v -0.00818477 -0.03484837 -0.01930999
v -0.00933056 -0.02135150 -0.01880896
v -0.00845582 -0.02105925 -0.01811903
v -0.00581928 -0.02105925 -0.01891985
v 0.00533058 -0.02105925 -0.01906358
v 0.00670223 -0.03384893 -0.01990136
v 0.00815603 -0.02105925 -0.01825866
v 0.01162213 -0.02135150 -0.01748659
v 0.01055027 -0.03484837 -0.01812724
v 0.00669402 -0.03484837 -0.01987672
v 0.00103490 -0.04378084 -0.00307596
v 0.00018891 -0.04385000 -0.00299383
v 0.00583160 -0.03884835 -0.01731821
v -0.00059137 -0.04385000 -0.00294044
v -0.00144147 -0.04378084 -0.00290759
v -0.00811907 -0.03884835 -0.01636955
v -0.00665295 -0.03880373 -0.01705127
v -0.00714166 -0.03834417 -0.01719090
v -0.00735932 -0.03784668 -0.01746195
v -0.00932235 -0.03484837 -0.01878843
v -0.00933056 -0.03384893 -0.01880896
v -0.01042296 -0.03484837 -0.01820116
v -0.01388085 -0.02135150 -0.01575354
v -0.01321966 -0.02105925 -0.01500200
v -0.01091166 -0.02105925 -0.01651329
v 0.01048867 -0.02105925 -0.01678844
v 0.01162213 -0.03384893 -0.01748659
v 0.01296915 -0.02105925 -0.01521966
v 0.01575354 -0.02135150 -0.01388085
v 0.01263240 -0.03484837 -0.01674326
v 0.01160981 -0.03484837 -0.01746605
v 0.00936342 -0.03815454 -0.01623813
v 0.00924843 -0.03834417 -0.01615600
v 0.00891167 -0.03870780 -0.01606154
v 0.00874740 -0.03880373 -0.01607797
v 0.00857081 -0.03884166 -0.01614368
v 0.00095688 -0.04385000 -0.00284188
v 0.00179876 -0.04378084 -0.00270636
v -0.00133059 -0.04385000 -0.00268582
v -0.00214784 -0.04378084 -0.00243531
v -0.00969196 -0.03884166 -0.01549481
v -0.00945376 -0.03870780 -0.01574943
v -0.00936342 -0.03834417 -0.01608618
v -0.00944966 -0.03784668 -0.01642294
v -0.00681722 -0.03870780 -0.01705538
v -0.00960161 -0.03882827 -0.01556462
v -0.01386853 -0.03484837 -0.01573711
v -0.01388085 -0.03384893 -0.01575354
v -0.01674326 -0.03484837 -0.01263240
v -0.01748659 -0.02135150 -0.01162213
v -0.01512520 -0.02105925 -0.01276792
v 0.01479255 -0.02105925 -0.01314985
v 0.01673094 -0.02105925 -0.01094863
v 0.01880897 -0.02135150 -0.00933056
v 0.01820117 -0.03484837 -0.01042296
v 0.01575354 -0.03384893 -0.01388085
v 0.01156464 -0.03884166 -0.01415190
v 0.01135930 -0.03870780 -0.01443527
v 0.01131413 -0.03834417 -0.01478023
v 0.01144144 -0.03784668 -0.01510467
v 0.01011495 -0.03884835 -0.01521555
v 0.01573711 -0.03484837 -0.01386853
v 0.00165913 -0.04385000 -0.00249691
v 0.00243531 -0.04378084 -0.00214784
v 0.00225051 -0.04385000 -0.00197946
v -0.00197946 -0.04385000 -0.00225051
v -0.00270636 -0.04378084 -0.00179876
v -0.01415190 -0.03884166 -0.01156464
v -0.01208209 -0.03884835 -0.01370837
v -0.01746606 -0.03484837 -0.01160981
v -0.01748659 -0.03384893 -0.01162213
v -0.01443527 -0.03870780 -0.01135930
v -0.01478023 -0.03834417 -0.01131413
v -0.01510467 -0.03784668 -0.01144144
v -0.01521555 -0.03884835 -0.01011495
v -0.01691164 -0.02105925 -0.01066937
v -0.01812724 -0.03484837 -0.01055027
v -0.01990136 -0.02135150 -0.00670223
v 0.01914161 -0.02105925 -0.00579053
v 0.02058309 -0.02135150 -0.00414372
v 0.01930999 -0.03484837 -0.00818478
v 0.01880897 -0.03384893 -0.00933056
v 0.01878843 -0.03484837 -0.00932235
v 0.01636955 -0.03884835 -0.00811907
v 0.01642294 -0.03784668 -0.00944966
v 0.01608618 -0.03834417 -0.00936342
v 0.01574943 -0.03870780 -0.00945376
v 0.01549481 -0.03884166 -0.00969196
v 0.01143733 -0.03880373 -0.01428742
v 0.01370837 -0.03884835 -0.01208209
v 0.00290759 -0.04378084 -0.00144147
v 0.00268582 -0.04385000 -0.00133059
v -0.00249691 -0.04385000 -0.00165913
v -0.00269404 -0.04385000 -0.00131416
v -0.00307596 -0.04378084 -0.00103490
v -0.01614368 -0.03884166 -0.00857081
v -0.01422993 -0.03882827 -0.01148250
v -0.01639830 -0.03784668 -0.00949894
v -0.01607797 -0.03880373 -0.00874740
v -0.01606154 -0.03870780 -0.00891167
v -0.01615600 -0.03834417 -0.00924843
v -0.01811082 -0.02105925 -0.00799176
v -0.01987672 -0.03484837 -0.00669402
v -0.01990136 -0.03384893 -0.00670223
v -0.02081717 -0.03484837 -0.00256673
v -0.02095680 -0.02135150 -0.00132238
v -0.01923607 -0.02105925 -0.00547431
v 0.01955640 -0.02105925 -0.00306364
v 0.01999582 -0.02105925 -0.00016427
v 0.02095680 -0.02135150 0.00132238
v 0.02097323 -0.03484837 0.00006981
v 0.02058309 -0.03384893 -0.00414372
v 0.02056255 -0.03484837 -0.00413962
v 0.01709234 -0.03884166 -0.00647226
v 0.01711698 -0.03851149 -0.00702256
v 0.01728536 -0.03815454 -0.00724433
v 0.01746195 -0.03784668 -0.00735932
v 0.01561391 -0.03880373 -0.00954822
v 0.01704717 -0.03875465 -0.00674741
v 0.01705538 -0.03881712 -0.00661189
v 0.00318274 -0.04378084 -0.00064066
v 0.00294044 -0.04385000 -0.00059137
v -0.00284188 -0.04385000 -0.00095688
v -0.00299383 -0.04385000 -0.00018891
v -0.00324023 -0.04378084 -0.00020123
v -0.01804100 -0.03884166 -0.00294044
v -0.01731821 -0.03884835 -0.00583160
v -0.01880486 -0.03784668 -0.00235728
v -0.01823813 -0.03884835 -0.00114989
v -0.02093216 -0.03484837 -0.00131827
v -0.02095680 -0.03384893 -0.00132238
v -0.01809439 -0.03880373 -0.00275974
v -0.01818063 -0.03870780 -0.00262011
v -0.02097323 -0.03484837 -0.00006982
v -0.02058309 -0.02135150 0.00414372
v -0.01999582 -0.02105925 0.00016427
v 0.01923607 -0.02105925 0.00547431
v 0.01990136 -0.02135150 0.00670223
v 0.02081717 -0.03484837 0.00256672
v 0.02095680 -0.03384893 0.00132238
v 0.02093216 -0.03484837 0.00131827
v 0.01823813 -0.03884835 0.00114989
v 0.01861595 -0.03834417 -0.00006571
v 0.01829973 -0.03880373 -0.00046406
v 0.01826687 -0.03884166 -0.00064476
v 0.01791369 -0.03884835 -0.00360574
v 0.00324023 -0.04378084 0.00020123
v 0.00299383 -0.04385000 0.00018891
v -0.00294044 -0.04385000 0.00059137
v -0.00318274 -0.04378084 0.00064065
v -0.01826687 -0.03884166 0.00064476
v -0.01826687 -0.03859849 -0.00252566
v -0.01845579 -0.03834417 -0.00240656
v -0.01829973 -0.03880373 0.00046406
v -0.01836544 -0.03870780 0.00031211
v -0.01861595 -0.03834417 0.00006571
v -0.02056255 -0.03484837 0.00413961
v -0.02058309 -0.03384893 0.00414372
v -0.01930999 -0.03484837 0.00818477
v -0.01880897 -0.02135150 0.00933056
v -0.01914161 -0.02105925 0.00579053
v -0.01955640 -0.02105925 0.00306364
v 0.01811082 -0.02105925 0.00799176
v 0.01990136 -0.03384893 0.00670223
v 0.01691164 -0.02105925 0.01066936
v 0.01748659 -0.02135150 0.01162213
v 0.01812724 -0.03484837 0.01055027
v 0.01880486 -0.03784668 0.00235728
v 0.01987672 -0.03484837 0.00669402
v 0.01804100 -0.03884166 0.00294044
v 0.01811903 -0.03877919 0.00271457
v 0.01836544 -0.03870780 -0.00031211
v 0.01851739 -0.03825940 0.00238603
v 0.01826687 -0.03859849 0.00252566
v 0.01806975 -0.03882381 0.00282134
v 0.00307596 -0.04378084 0.00103490
v 0.00284188 -0.04385000 0.00095687
v -0.00268582 -0.04385000 0.00133059
v -0.00290759 -0.04378084 0.00144147
v -0.01709234 -0.03884166 0.00647225
v -0.01791369 -0.03884835 0.00360574
v -0.01878843 -0.03484837 0.00932235
v -0.01880897 -0.03384893 0.00933056
v -0.01705127 -0.03880373 0.00665295
v -0.01719090 -0.03834417 0.00714166
v -0.01746195 -0.03784668 0.00735931
v -0.01820117 -0.03484837 0.01042296
v -0.01575354 -0.02135150 0.01388085
v -0.01673094 -0.02105925 0.01094862
v 0.01512520 -0.02105925 0.01276792
v 0.01748659 -0.03384893 0.01162213
v 0.01321966 -0.02105925 0.01500200
v 0.01388085 -0.02135150 0.01575353
v 0.01674326 -0.03484837 0.01263239
v 0.01746606 -0.03484837 0.01160981
v 0.01639830 -0.03784668 0.00949894
v 0.01615600 -0.03834417 0.00924842
v 0.01606154 -0.03870780 0.00891167
v 0.01607797 -0.03880373 0.00874740
v 0.01614368 -0.03884166 0.00857081
v 0.01731821 -0.03884835 0.00583160
v 0.00270636 -0.04378084 0.00179876
v 0.00249691 -0.04385000 0.00165913
v -0.00225051 -0.04385000 0.00197946
v -0.00243531 -0.04378084 0.00214783
v -0.01549481 -0.03884166 0.00969195
v -0.01636955 -0.03884835 0.00811906
v -0.01705538 -0.03870780 0.00681722
v -0.01728536 -0.03815454 0.00724433
v -0.01642294 -0.03784668 0.00944966
v -0.01608618 -0.03834417 0.00936341
v -0.01574943 -0.03870780 0.00945376
v -0.01573711 -0.03484837 0.01386853
v -0.01575354 -0.03384893 0.01388085
v -0.01479255 -0.02105925 0.01314985
v -0.01263240 -0.03484837 0.01674326
v -0.01162213 -0.02135150 0.01748659
v -0.01296915 -0.02105925 0.01521965
v 0.01091166 -0.02105925 0.01651328
v 0.00933056 -0.02135150 0.01880896
v 0.01042296 -0.03484837 0.01820116
v 0.01388085 -0.03384893 0.01575353
v 0.01386853 -0.03484837 0.01573711
v 0.01415190 -0.03884166 0.01156464
v 0.01422993 -0.03882827 0.01148250
v 0.01436956 -0.03875465 0.01138805
v 0.01450508 -0.03864534 0.01133466
v 0.01481719 -0.03829509 0.01131823
v 0.01510467 -0.03784668 0.01144143
v 0.01521555 -0.03884835 0.01011495
v 0.00214784 -0.04378084 0.00243531
v 0.00197946 -0.04385000 0.00225050
v -0.00165913 -0.04385000 0.00249691
v -0.00179876 -0.04378084 0.00270635
v -0.01156464 -0.03884166 0.01415190
v -0.01370837 -0.03884835 0.01208209
v -0.01561391 -0.03880373 0.00954822
v -0.01135930 -0.03870780 0.01443526
v -0.01131413 -0.03834417 0.01478023
v -0.01144144 -0.03784668 0.01510467
v -0.01011495 -0.03884835 0.01521555
v -0.01160981 -0.03484837 0.01746605
v -0.01162213 -0.03384893 0.01748659
v -0.01055027 -0.03484837 0.01812724
v -0.00670223 -0.02135150 0.01990136
v -0.00815603 -0.02105925 0.01825866
v -0.01048867 -0.02105925 0.01678844
v 0.00845582 -0.02105925 0.01811903
v 0.00414372 -0.02135150 0.02058308
v 0.00818477 -0.03484837 0.01930999
v 0.00933056 -0.03384893 0.01880896
v 0.00932235 -0.03484837 0.01878843
v 0.00811907 -0.03884835 0.01636955
v 0.00936752 -0.03829509 0.01612314
v 0.00960161 -0.03882827 0.01556462
v 0.00969196 -0.03884166 0.01549481
v 0.01208209 -0.03884835 0.01370837
v 0.01418886 -0.03883720 0.01152357
v 0.00144147 -0.04378084 0.00290759
v 0.00133059 -0.04385000 0.00268582
v -0.00131416 -0.04385000 0.00269403
v -0.00103490 -0.04378084 0.00307596
v -0.00857081 -0.03884166 0.01614368
v -0.01143733 -0.03880373 0.01428742
v -0.00884186 -0.03875465 0.01606565
v -0.00911701 -0.03851149 0.01609850
v -0.00936342 -0.03815454 0.01623813
v -0.00669402 -0.03484837 0.01987672
v -0.00670223 -0.03384893 0.01990136
v -0.00533058 -0.02105925 0.01906358
v -0.00256673 -0.03484837 0.02081717
v -0.00132238 -0.02135150 0.02095680
v -0.00267761 -0.02105925 0.01981923
v 0.00581928 -0.02105925 0.01891984
v 0.00414372 -0.03384893 0.02058308
v 0.00301026 -0.02105925 0.01976995
v -0.00006981 -0.03484837 0.02097733
v 0.00413962 -0.03484837 0.02056255
v 0.00647226 -0.03884166 0.01709234
v 0.00665295 -0.03880373 0.01705127
v 0.00714166 -0.03834417 0.01719090
v 0.00735932 -0.03784668 0.01746195
v 0.00681722 -0.03870780 0.01705538
v 0.00964678 -0.03883720 0.01552766
v 0.00949073 -0.03875465 0.01568783
v 0.00942091 -0.03864534 0.01581513
v 0.00064065 -0.04378084 0.00318274
v 0.00059137 -0.04385000 0.00294044
v -0.00095688 -0.04385000 0.00284188
v -0.00018891 -0.04385000 0.00299383
v -0.00020123 -0.04378084 0.00324023
v -0.00294044 -0.03884166 0.01804100
v -0.00583160 -0.03884835 0.01731821
v -0.00275974 -0.03880373 0.01809439
v -0.00262011 -0.03870780 0.01818063
v -0.00235728 -0.03784668 0.01880486
v -0.00114989 -0.03884835 0.01823812
v -0.00131827 -0.03484837 0.02093216
v -0.00132238 -0.03384893 0.02095680
v 0.00025051 -0.02105925 0.01979459
v -0.00002464 -0.03784668 0.01894859
v 0.00003696 -0.03825940 0.01866933
v 0.00020944 -0.03859849 0.01843936
v 0.00041068 -0.03877919 0.01831615
v 0.00052156 -0.03882381 0.01828330
v 0.00064476 -0.03884166 0.01826687
v 0.00360574 -0.03884835 0.01791369
v -0.00240656 -0.03834417 0.01845578
f 1 2 3
f 1 3 4
f 1 4 5
f 1 5 6
f 1 6 7
f 1 7 8
f 1 8 9
f 1 9 10
f 1 10 11
f 1 11 2
f 2 12 13
f 2 13 14
f 2 14 3
f 2 11 15
f 2 15 16
f 2 16 12
f 3 14 4
f 4 14 5
f 5 17 8
f 5 8 7
f 5 7 18
f 5 18 6
f 5 14 19
f 5 19 20
f 5 20 21
f 5 21 22
f 5 22 23
f 5 23 17
f 6 18 7
f 8 17 24
f 8 24 25
f 8 25 9
f 9 25 26
f 9 26 27
f 9 27 10
f 10 27 11
f 11 27 28
f 11 28 29
f 11 29 30
f 11 30 15
f 12 31 13
f 12 16 15
f 12 15 30
f 12 30 29
f 12 29 51
f 12 51 50
f 12 50 77
f 12 77 102
f 12 102 128
f 12 128 133
f 12 133 162
f 12 162 188
f 12 188 187
f 12 187 215
f 12 215 241
f 12 241 244
f 12 244 273
f 12 273 272
f 12 272 296
f 12 296 299
f 12 299 326
f 12 326 302
f 12 302 300
f 12 300 274
f 12 274 245
f 12 245 218
f 12 218 216
f 12 216 191
f 12 191 189
f 12 189 163
f 12 163 135
f 12 135 134
f 12 134 105
f 12 105 79
f 12 79 78
f 12 78 54
f 12 54 52
f 12 52 33
f 12 33 31
f 13 32 14
f 13 31 33
f 13 33 34
f 13 34 35
f 13 35 32
f 14 23 22
f 14 22 21
f 14 21 19
f 14 32 36
f 14 36 23
f 17 23 37
f 17 37 38
f 17 38 24
f 19 21 20
f 23 36 39
f 23 39 37
f 24 40 41
f 24 41 26
f 24 26 25
f 24 38 40
f 26 42 43
f 26 43 27
f 26 41 42
f 27 44 45
f 27 45 46
f 27 46 47
f 27 47 28
f 27 43 44
f 28 47 48
f 28 48 49
f 28 49 50
f 28 50 51
f 28 51 29
f 32 35 36
f 33 52 34
f 34 53 35
f 34 52 54
f 34 54 55
f 34 55 56
f 34 56 53
f 35 53 57
f 35 57 58
f 35 58 59
f 35 59 60
f 35 60 61
f 35 61 62
f 35 62 36
f 36 62 39
f 37 63 38
f 37 39 62
f 37 62 64
f 37 64 63
f 38 63 89
f 38 89 91
f 38 91 118
f 38 118 148
f 38 148 174
f 38 174 203
f 38 203 229
f 38 229 258
f 38 258 286
f 38 286 314
f 38 314 316
f 38 316 315
f 38 315 287
f 38 287 259
f 38 259 230
f 38 230 204
f 38 204 175
f 38 175 150
f 38 150 149
f 38 149 120
f 38 120 119
f 38 119 92
f 38 92 65
f 38 65 40
f 40 65 41
f 41 65 66
f 41 66 67
f 41 67 42
f 42 68 69
f 42 69 70
f 42 70 48
f 42 48 46
f 42 46 45
f 42 45 44
f 42 44 71
f 42 71 43
f 42 67 72
f 42 72 68
f 43 71 44
f 46 48 47
f 48 72 67
f 48 67 73
f 48 73 74
f 48 74 49
f 48 70 69
f 48 69 68
f 48 68 72
f 49 74 75
f 49 75 76
f 49 76 50
f 50 76 77
f 53 56 57
f 54 78 55
f 55 78 79
f 55 79 80
f 55 80 81
f 55 81 82
f 55 82 56
f 56 83 84
f 56 84 85
f 56 85 86
f 56 86 87
f 56 87 57
f 56 82 88
f 56 88 83
f 57 87 58
f 58 87 59
f 59 87 60
f 60 87 61
f 61 87 62
f 62 87 64
f 63 64 89
f 64 90 91
f 64 91 89
f 64 87 83
f 64 83 90
f 65 92 66
f 66 92 93
f 66 93 94
f 66 94 95
f 66 95 67
f 67 95 73
f 73 95 94
f 73 94 75
f 73 75 74
f 75 96 97
f 75 97 76
f 75 94 98
f 75 98 99
f 75 99 100
f 75 100 101
f 75 101 96
f 76 102 77
f 76 97 103
f 76 103 104
f 76 104 102
f 79 105 80
f 80 105 106
f 80 106 107
f 80 107 108
f 80 108 81
f 81 108 109
f 81 109 110
f 81 110 111
f 81 111 112
f 81 112 113
f 81 113 114
f 81 114 88
f 81 88 82
f 83 115 84
f 83 88 116
f 83 116 90
f 83 87 115
f 84 115 87
f 84 87 85
f 85 87 86
f 88 114 116
f 90 117 118
f 90 118 91
f 90 116 114
f 90 114 117
f 92 119 93
f 93 119 120
f 93 120 121
f 93 121 122
f 93 122 101
f 93 101 94
f 94 101 123
f 94 123 98
f 96 103 97
f 96 101 124
f 96 124 103
f 98 123 101
f 98 101 99
f 99 101 100
f 101 122 125
f 101 125 126
f 101 126 127
f 101 127 124
f 102 104 128
f 103 129 130
f 103 130 104
f 103 124 127
f 103 127 126
f 103 126 125
f 103 125 122
f 103 122 129
f 104 130 131
f 104 131 132
f 104 132 133
f 104 133 128
f 105 134 106
f 106 135 136
f 106 136 137
f 106 137 138
f 106 138 107
f 106 134 135
f 107 109 108
f 107 138 139
f 107 139 140
f 107 140 141
f 107 141 142
f 107 142 143
f 107 143 109
f 109 143 110
f 110 114 144
f 110 144 113
f 110 113 112
f 110 112 111
f 110 143 142
f 110 142 141
f 110 141 145
f 110 145 146
f 110 146 140
f 110 140 117
f 110 117 114
f 113 144 114
f 117 147 148
f 117 148 118
f 117 140 147
f 120 149 121
f 121 149 150
f 121 150 151
f 121 151 152
f 121 152 153
f 121 153 122
f 122 153 129
f 129 131 130
f 129 153 152
f 129 152 131
f 131 154 155
f 131 155 156
f 131 156 157
f 131 157 132
f 131 152 158
f 131 158 159
f 131 159 154
f 132 157 160
f 132 160 161
f 132 161 162
f 132 162 133
f 135 163 136
f 136 163 164
f 136 164 165
f 136 165 166
f 136 166 137
f 137 166 167
f 137 167 168
f 137 168 169
f 137 169 170
f 137 170 171
f 137 171 139
f 137 139 138
f 139 171 172
f 139 172 140
f 140 146 141
f 140 172 147
f 141 146 145
f 147 173 174
f 147 174 148
f 147 172 171
f 147 171 173
f 150 175 176
f 150 176 151
f 151 176 177
f 151 177 155
f 151 155 152
f 152 155 158
f 154 159 178
f 154 178 179
f 154 179 155
f 155 177 180
f 155 180 181
f 155 181 182
f 155 182 160
f 155 160 156
f 155 179 178
f 155 178 159
f 155 159 158
f 156 160 157
f 160 182 180
f 160 180 177
f 160 177 183
f 160 183 184
f 160 184 161
f 161 184 185
f 161 185 186
f 161 186 187
f 161 187 188
f 161 188 162
f 163 189 164
f 164 190 165
f 164 189 191
f 164 191 192
f 164 192 193
f 164 193 190
f 165 194 168
f 165 168 167
f 165 167 166
f 165 190 195
f 165 195 196
f 165 196 197
f 165 197 194
f 168 171 170
f 168 170 198
f 168 198 169
f 168 194 199
f 168 199 200
f 168 200 197
f 168 197 201
f 168 201 196
f 168 196 173
f 168 173 171
f 169 198 170
f 173 202 174
f 173 196 202
f 174 202 203
f 175 204 205
f 175 205 176
f 176 205 206
f 176 206 207
f 176 207 177
f 177 207 183
f 180 182 181
f 183 185 184
f 183 207 206
f 183 206 185
f 185 208 209
f 185 209 186
f 185 206 210
f 185 210 211
f 185 211 212
f 185 212 208
f 186 209 213
f 186 213 214
f 186 214 215
f 186 215 187
f 190 193 195
f 191 216 192
f 192 217 193
f 192 216 218
f 192 218 219
f 192 219 220
f 192 220 217
f 193 217 221
f 193 221 222
f 193 222 223
f 193 223 224
f 193 224 225
f 193 225 226
f 193 226 195
f 194 197 200
f 194 200 199
f 195 226 227
f 195 227 196
f 196 227 202
f 196 201 197
f 202 228 203
f 202 227 226
f 202 226 228
f 203 228 229
f 204 230 231
f 204 231 205
f 205 231 232
f 205 232 233
f 205 233 206
f 206 233 210
f 208 213 209
f 208 212 233
f 208 233 213
f 210 234 211
f 210 233 234
f 211 235 212
f 211 234 233
f 211 233 235
f 212 235 233
f 213 233 236
f 213 236 237
f 213 237 238
f 213 238 232
f 213 232 239
f 213 239 240
f 213 240 214
f 214 241 215
f 214 240 242
f 214 242 243
f 214 243 244
f 214 244 241
f 217 220 221
f 218 245 246
f 218 246 219
f 219 247 248
f 219 248 220
f 219 246 247
f 220 248 249
f 220 249 250
f 220 250 251
f 220 251 252
f 220 252 253
f 220 253 254
f 220 254 255
f 220 255 256
f 220 256 221
f 221 256 222
f 222 256 223
f 223 256 224
f 224 256 225
f 225 256 226
f 226 256 228
f 228 257 258
f 228 258 229
f 228 256 250
f 228 250 257
f 230 259 260
f 230 260 231
f 231 260 261
f 231 261 262
f 231 262 232
f 232 238 263
f 232 263 233
f 232 262 239
f 233 263 238
f 233 238 237
f 233 237 236
f 239 262 261
f 239 261 242
f 239 242 240
f 242 261 264
f 242 264 265
f 242 265 266
f 242 266 267
f 242 267 268
f 242 268 269
f 242 269 243
f 243 269 270
f 243 270 271
f 243 271 272
f 243 272 273
f 243 273 244
f 245 274 246
f 246 274 275
f 246 275 276
f 246 276 277
f 246 277 247
f 247 277 278
f 247 278 279
f 247 279 280
f 247 280 281
f 247 281 282
f 247 282 249
f 247 249 248
f 249 282 283
f 249 283 250
f 250 284 251
f 250 283 257
f 250 256 284
f 251 284 256
f 251 256 252
f 252 256 253
f 253 256 254
f 254 256 255
f 257 285 286
f 257 286 258
f 257 283 282
f 257 282 285
f 259 287 260
f 260 287 288
f 260 288 289
f 260 289 267
f 260 267 261
f 261 267 290
f 261 290 264
f 264 290 267
f 264 267 265
f 265 267 266
f 267 289 291
f 267 291 292
f 267 292 293
f 267 293 268
f 268 293 270
f 268 270 269
f 270 293 291
f 270 291 289
f 270 289 294
f 270 294 295
f 270 295 271
f 271 296 272
f 271 295 297
f 271 297 298
f 271 298 299
f 271 299 296
f 274 300 275
f 275 301 276
f 275 300 302
f 275 302 298
f 275 298 303
f 275 303 301
f 276 301 304
f 276 304 305
f 276 305 306
f 276 306 307
f 276 307 308
f 276 308 278
f 276 278 277
f 278 308 279
f 279 308 307
f 279 307 309
f 279 309 306
f 279 306 305
f 279 305 285
f 279 285 282
f 279 282 310
f 279 310 281
f 279 281 311
f 279 311 312
f 279 312 280
f 280 312 311
f 280 311 281
f 281 310 282
f 285 313 314
f 285 314 286
f 285 305 313
f 287 315 288
f 288 315 316
f 288 316 317
f 288 317 318
f 288 318 319
f 288 319 289
f 289 319 294
f 291 293 292
f 294 319 318
f 294 318 297
f 294 297 295
f 297 318 320
f 297 320 321
f 297 321 322
f 297 322 323
f 297 323 324
f 297 324 325
f 297 325 298
f 298 325 303
f 298 302 326
f 298 326 299
f 301 303 304
f 303 325 324
f 303 324 323
f 303 323 327
f 303 327 328
f 303 328 329
f 303 329 330
f 303 330 331
f 303 331 332
f 303 332 304
f 304 332 333
f 304 333 305
f 305 333 313
f 306 309 307
f 313 333 332
f 313 332 317
f 313 317 316
f 313 316 314
f 317 323 318
f 317 332 323
f 318 323 320
f 320 323 321
f 321 334 322
f 321 323 334
f 322 334 323
f 323 332 331
f 323 331 330
f 323 330 329
f 323 329 328
f 323 328 327

