# https://github.com/mikedh/trimesh
v 0.00849881 0.00950133 0.03537042
v 0.00199808 0.00950133 0.03623549
v 0.00621191 0.00685598 0.03567784
v 0.00849881 0.00685598 0.03537042
v 0.00849881 0.00950133 -0.03653082
v -0.00000447 0.00950133 0.03650002
v 0.00199808 0.00685598 0.03623549
v 0.00849881 0.00685598 -0.03537262
v 0.00849881 0.00924989 -0.03653082
v 0.00199808 0.00950133 -0.03653797
v -0.00000447 0.00685598 0.03650002
v -0.02240463 0.00950133 0.03532037
v 0.00596688 0.00685598 -0.03570864
v -0.00000447 0.00685598 -0.03649507
v 0.00199808 0.00924989 -0.03653797
v -0.01464247 0.00950133 -0.03653797
v -0.02240463 0.00685598 0.03532037
v -0.02240463 0.00950133 -0.03589452
v -0.02137007 0.00924989 -0.03653082
v -0.01464247 0.00942416 -0.03653797
v -0.00057620 0.00924989 -0.03653797
v -0.01464247 0.00685598 -0.03573009
v -0.02137007 0.00950133 -0.03653082
v -0.02240463 0.00685598 -0.03531542
v -0.02240463 0.00924989 -0.03589452
f 1 2 3
f 1 3 4
f 1 4 8
f 1 8 9
f 1 9 5
f 1 5 10
f 1 10 16
f 1 16 23
f 1 23 18
f 1 18 12
f 1 12 6
f 1 6 2
f 2 6 11
f 2 11 7
f 2 7 3
f 3 7 11
f 3 11 17
f 3 17 24
f 3 24 22
f 3 22 14
f 3 14 13
f 3 13 8
f 3 8 4
f 5 9 15
f 5 15 10
f 6 12 17
f 6 17 11
f 8 13 9
f 9 14 15
f 9 13 14
f 10 15 21
f 10 21 20
f 10 20 16
f 12 18 25
f 12 25 24
f 12 24 17
f 14 19 20
f 14 20 21
f 14 21 15
f 14 22 19
f 16 20 19
f 16 19 23
f 18 23 19
f 18 19 25
f 19 22 24
f 19 24 25

