# https://github.com/mikedh/trimesh
v -0.09870591 0.01475000 0.03132706
v -0.11094453 0.01475000 0.03068378
v -0.09870591 0.00950133 0.03132706
v -0.09870591 0.01475000 0.00495603
v -0.11094453 0.00950133 0.03068378
v -0.11094453 0.01475000 0.00003654
v -0.09870591 0.00950133 0.00494990
v -0.09870591 0.01472123 0.00494990
v -0.10286213 0.01475000 0.00003654
v -0.11094453 0.00950133 0.00003654
v -0.10286213 0.00950133 0.00003654
f 1 2 5
f 1 5 3
f 1 3 7
f 1 7 8
f 1 8 4
f 1 4 9
f 1 9 6
f 1 6 2
f 2 6 10
f 2 10 5
f 3 5 10
f 3 10 11
f 3 11 7
f 4 8 9
f 6 9 11
f 6 11 10
f 7 11 9
f 7 9 8

