# https://github.com/mikedh/trimesh
v -0.09253982 0.00480682 0.03164757
v -0.11094572 0.00480682 0.03068419
v -0.09253982 0.00275020 0.03164757
v -0.09253982 0.00480682 0.00478635
v -0.11094572 0.00275020 0.03068419
v -0.11094572 0.00480682 0.00468606
v -0.09253982 0.00275020 0.00468606
v -0.09253982 0.00463266 0.00468606
v -0.09255243 0.00480682 0.00468606
v -0.11094572 0.00275020 0.00468606
f 1 2 5
f 1 5 3
f 1 3 7
f 1 7 8
f 1 8 4
f 1 4 9
f 1 9 6
f 1 6 2
f 2 6 10
f 2 10 5
f 3 5 10
f 3 10 7
f 4 8 9
f 6 9 8
f 6 8 7
f 6 7 10

