# https://github.com/mikedh/trimesh
v 0.01913670 -0.01365380 0.01052459
v 0.01913670 -0.02004938 0.01052459
v 0.01913670 -0.01365380 -0.02264160
v 0.01388169 -0.01365380 0.01575019
v 0.01748575 -0.02074970 0.01161896
v 0.01913670 -0.02074970 0.00826061
v 0.01388169 -0.02074970 0.01575019
v 0.01913670 -0.01505007 -0.03046633
v 0.01835439 -0.01365380 -0.02340766
v 0.01271631 -0.01365380 0.01653677
v 0.00040965 -0.01503267 0.02830807
v 0.00084127 -0.01548069 0.02837646
v 0.00100313 -0.01610053 0.02840382
v 0.01691384 -0.02105925 0.01066822
v 0.01321807 -0.02105925 0.01500466
v 0.01913670 -0.02105925 0.00569569
v 0.00088983 -0.01662613 0.02838330
v 0.00084127 -0.01672545 0.02837646
v -0.01052660 -0.02104983 0.03369783
v 0.01913670 -0.02104983 -0.03046633
v 0.01896945 -0.01505007 -0.03058944
v 0.01833281 -0.01365380 -0.02342134
v 0.00932267 -0.01365380 0.01881442
v -0.00014067 -0.01485360 0.02822599
v -0.01052660 -0.01505007 0.03369783
v 0.00845942 -0.02105925 0.01811676
v 0.01913670 -0.02105925 -0.00580201
v -0.01135748 -0.02104983 0.03397142
v 0.01896945 -0.02104983 -0.03058944
v 0.01790118 -0.02105925 -0.00844901
v 0.01673040 -0.02105925 -0.01095238
v 0.01296989 -0.02105925 -0.01522042
v 0.01219836 -0.01505007 -0.03386571
v 0.01268394 -0.01365380 -0.02690279
v 0.00792529 -0.01365380 0.01942317
v -0.01135748 -0.01505007 0.03397142
v 0.00658726 -0.01365380 0.01988143
v 0.00301018 -0.02105925 0.01977200
v -0.01222072 -0.02104983 0.03385514
v -0.00268185 -0.02105925 0.01981303
v 0.00024779 -0.02105925 0.01979252
v 0.01048805 -0.02105925 -0.01678673
v 0.00815189 -0.02105925 -0.01825729
v 0.01219836 -0.02104983 -0.03386571
v 0.00488774 -0.01505007 -0.03566458
v 0.00635526 -0.01365380 -0.02905733
v 0.00638224 -0.01365380 -0.02905049
v 0.00799543 -0.01365380 -0.02850331
v -0.01222072 -0.01505007 0.03385514
v 0.00414319 -0.01365380 0.02058593
v -0.01492916 -0.01365380 0.02572946
v -0.01899181 -0.02104983 0.03057888
v -0.00815807 -0.02105925 0.01826040
v -0.00533633 -0.02105925 0.01906066
v 0.00268107 -0.02105925 -0.01981676
v 0.00488774 -0.02104983 -0.03566458
v -0.00262790 -0.01505007 -0.03590397
v -0.00024857 -0.01365380 -0.02974815
v -0.01899181 -0.01505007 0.03057888
v -0.01581938 -0.01365380 0.02512756
v -0.02493203 -0.02104983 0.02596201
v -0.01297067 -0.02105925 0.01522353
v -0.00301636 -0.02105925 -0.01976888
v -0.00262790 -0.02104983 -0.03590397
v -0.01003024 -0.01505007 -0.03457021
v -0.00685780 -0.01365380 -0.02894789
v -0.00516368 -0.01365380 -0.02915309
v -0.01835517 -0.01365380 0.02340393
v -0.02493203 -0.01505007 0.02596201
v -0.02978779 -0.02104983 0.02020974
v -0.01673119 -0.02105925 0.01094866
v -0.01479428 -0.02105925 0.01315107
v -0.00582191 -0.02105925 -0.01892075
v -0.01003024 -0.02104983 -0.03457021
v -0.01700095 -0.01505007 -0.03173169
v -0.01312174 -0.01365380 -0.02669076
v -0.01151934 -0.01365380 -0.02727214
v -0.01959069 -0.01365380 0.02219328
v -0.02310302 -0.01365380 0.01873235
v -0.02978779 -0.01505007 0.02020974
v -0.03333789 -0.02104983 0.01357514
v -0.01789657 -0.02105925 0.00845213
v -0.00845481 -0.02105925 -0.01812049
v -0.01700095 -0.02104983 -0.03173169
v -0.02322172 -0.01505007 -0.02750470
v -0.01873823 -0.01365380 -0.02310670
v -0.02402562 -0.01365380 0.01729599
v -0.02669629 -0.01365380 0.01312371
v -0.03333789 -0.01505007 0.01357514
v -0.03543126 -0.02104983 0.00635231
v -0.01913749 -0.02105925 0.00579145
v -0.01321885 -0.02105925 -0.01500154
v -0.02322172 -0.02104983 -0.02750470
v -0.02843357 -0.01505007 -0.02207390
v -0.02340516 -0.01365380 -0.01835304
v -0.02221280 -0.01365380 -0.01957053
v -0.02727358 -0.01365380 0.01151636
v -0.02894612 -0.01365380 0.00685162
v -0.03543126 -0.01505007 0.00635231
v -0.03598158 -0.02104983 -0.00115095
v -0.01999534 -0.02105925 0.00016229
v -0.01512339 -0.02105925 -0.01277177
v -0.02843357 -0.02104983 -0.02207390
v -0.03239911 -0.01505007 -0.01567868
v -0.02601109 -0.01365380 -0.01413973
v -0.02915654 -0.01365380 0.00513483
v -0.02974463 -0.01365380 0.00023753
v -0.03598158 -0.01505007 -0.00115095
v -0.01923460 -0.02105925 -0.00547370
v -0.01962846 -0.02105925 -0.00256679
v -0.03495108 -0.02104983 -0.00859949
v -0.01690923 -0.02105925 -0.01067195
v -0.03239911 -0.02104983 -0.01567868
v -0.03495108 -0.01505007 -0.00859949
v -0.02690670 -0.01365380 -0.01268285
v -0.02956658 -0.01365380 -0.00147242
v -0.02905403 -0.01365380 -0.00637656
v -0.02849831 -0.01365380 -0.00801811
f 1 2 6
f 1 6 16
f 1 16 27
f 1 27 20
f 1 20 8
f 1 8 3
f 1 3 9
f 1 9 22
f 1 22 34
f 1 34 48
f 1 48 47
f 1 47 46
f 1 46 58
f 1 58 67
f 1 67 66
f 1 66 77
f 1 77 76
f 1 76 86
f 1 86 96
f 1 96 95
f 1 95 105
f 1 105 115
f 1 115 118
f 1 118 117
f 1 117 116
f 1 116 107
f 1 107 106
f 1 106 98
f 1 98 97
f 1 97 88
f 1 88 87
f 1 87 79
f 1 79 78
f 1 78 68
f 1 68 60
f 1 60 51
f 1 51 50
f 1 50 37
f 1 37 35
f 1 35 23
f 1 23 10
f 1 10 4
f 1 4 7
f 1 7 2
f 2 5 6
f 2 7 5
f 3 8 9
f 4 10 11
f 4 11 12
f 4 12 13
f 4 13 7
f 5 14 6
f 5 7 15
f 5 15 14
f 6 14 16
f 7 13 17
f 7 17 18
f 7 18 19
f 7 19 15
f 8 20 29
f 8 29 21
f 8 21 9
f 9 21 22
f 10 23 24
f 10 24 11
f 11 24 25
f 11 25 12
f 12 25 13
f 13 25 19
f 13 19 17
f 14 15 26
f 14 26 38
f 14 38 41
f 14 41 40
f 14 40 54
f 14 54 53
f 14 53 62
f 14 62 72
f 14 72 71
f 14 71 82
f 14 82 91
f 14 91 101
f 14 101 110
f 14 110 109
f 14 109 112
f 14 112 102
f 14 102 92
f 14 92 83
f 14 83 73
f 14 73 63
f 14 63 55
f 14 55 43
f 14 43 42
f 14 42 32
f 14 32 31
f 14 31 30
f 14 30 27
f 14 27 16
f 15 19 26
f 17 19 18
f 19 25 36
f 19 36 28
f 19 28 26
f 20 27 30
f 20 30 31
f 20 31 32
f 20 32 29
f 21 29 44
f 21 44 33
f 21 33 34
f 21 34 22
f 23 35 25
f 23 25 24
f 25 35 37
f 25 37 36
f 26 28 38
f 28 36 49
f 28 49 39
f 28 39 40
f 28 40 41
f 28 41 38
f 29 32 42
f 29 42 43
f 29 43 44
f 33 44 56
f 33 56 45
f 33 45 46
f 33 46 47
f 33 47 48
f 33 48 34
f 36 37 50
f 36 50 51
f 36 51 49
f 39 49 59
f 39 59 52
f 39 52 53
f 39 53 54
f 39 54 40
f 43 55 44
f 44 55 56
f 45 56 64
f 45 64 57
f 45 57 58
f 45 58 46
f 49 51 59
f 51 60 59
f 52 59 69
f 52 69 61
f 52 61 62
f 52 62 53
f 55 63 64
f 55 64 56
f 57 64 74
f 57 74 65
f 57 65 66
f 57 66 67
f 57 67 58
f 59 60 68
f 59 68 69
f 61 69 80
f 61 80 70
f 61 70 71
f 61 71 72
f 61 72 62
f 63 73 74
f 63 74 64
f 65 74 84
f 65 84 75
f 65 75 76
f 65 76 77
f 65 77 66
f 68 78 69
f 69 78 79
f 69 79 80
f 70 80 89
f 70 89 81
f 70 81 71
f 71 81 82
f 73 83 74
f 74 83 84
f 75 85 86
f 75 86 76
f 75 84 93
f 75 93 85
f 79 87 80
f 80 87 88
f 80 88 89
f 81 89 99
f 81 99 90
f 81 90 91
f 81 91 82
f 83 92 84
f 84 92 93
f 85 94 95
f 85 95 96
f 85 96 86
f 85 93 103
f 85 103 94
f 88 97 89
f 89 97 98
f 89 98 99
f 90 99 108
f 90 108 100
f 90 100 101
f 90 101 91
f 92 102 103
f 92 103 93
f 94 104 95
f 94 103 113
f 94 113 104
f 95 104 105
f 98 106 99
f 99 106 107
f 99 107 108
f 100 109 110
f 100 110 101
f 100 108 114
f 100 114 111
f 100 111 109
f 102 112 103
f 103 112 113
f 104 113 111
f 104 111 114
f 104 114 115
f 104 115 105
f 107 116 108
f 108 116 117
f 108 117 114
f 109 111 113
f 109 113 112
f 114 117 118
f 114 118 115

