# https://github.com/mikedh/trimesh
v -0.15713412 0.00275000 -0.01941386
v -0.15713412 0.01470536 -0.01941386
v -0.15294749 0.00275000 -0.01647414
v -0.15713412 0.00275000 0.02826401
v -0.15713412 0.01475000 -0.01939980
v -0.15711076 0.01475000 -0.01939042
v -0.15294749 0.01475000 -0.01647414
v -0.15294749 0.00275000 0.02848437
v -0.15713412 0.01475000 0.02826401
v -0.15294749 0.01475000 0.02848437
f 1 2 7
f 1 7 3
f 1 3 8
f 1 8 4
f 1 4 9
f 1 9 5
f 1 5 2
f 2 5 6
f 2 6 7
f 3 7 10
f 3 10 8
f 4 8 10
f 4 10 9
f 5 9 10
f 5 10 7
f 5 7 6

