# https://github.com/mikedh/trimesh
v -0.09253982 0.00463266 0.00468605
v -0.09255232 0.00480682 0.00468605
v -0.09253982 0.00275020 0.00468605
v -0.09253982 0.00480682 0.00099137
v -0.09653087 0.00480682 0.00468605
v -0.09653087 0.00275020 0.00468605
v -0.09253982 0.00275020 0.00069316
v -0.09253982 0.00480682 0.00069316
v -0.09304930 0.00480682 0.00069863
v -0.09305008 0.00480239 0.00069316
v -0.09305008 0.00275020 0.00069316
f 1 2 5
f 1 5 6
f 1 6 3
f 1 3 7
f 1 7 8
f 1 8 4
f 1 4 2
f 2 4 8
f 2 8 9
f 2 9 5
f 3 6 11
f 3 11 7
f 5 9 10
f 5 10 11
f 5 11 6
f 7 11 10
f 7 10 8
f 8 10 9

