# https://github.com/mikedh/trimesh
v 0.03598238 -0.01505007 0.00112221
v 0.03598238 -0.02104983 0.00112221
v 0.03542998 -0.01505007 -0.00637484
v 0.02974605 -0.01365380 -0.00027077
v 0.02974770 -0.01365380 -0.00024469
v 0.02957126 -0.01365380 0.00145089
v 0.02905679 -0.01365380 0.00638109
v 0.03496168 -0.01505007 0.00857751
v 0.03496168 -0.02104983 0.00857751
v 0.01923729 -0.02105925 0.00547331
v 0.02000075 -0.02105925 -0.00017165
v 0.03542998 -0.02104983 -0.00637484
v 0.03333086 -0.01505007 -0.01360059
v 0.02894796 -0.01365380 -0.00685482
v 0.02690985 -0.01365380 0.01268341
v 0.03241405 -0.01505007 0.01565719
v 0.03241405 -0.02104983 0.01565719
v 0.01913670 -0.02105925 0.00569243
v 0.01955884 -0.02105925 -0.00307238
v 0.01914330 -0.02105925 -0.00579052
v 0.03333086 -0.02104983 -0.01360059
v 0.02977408 -0.01505007 -0.02023159
v 0.02669879 -0.01365380 -0.01312583
v 0.02638879 -0.01365380 0.01373728
v 0.02844997 -0.01505007 0.02205341
v 0.02844997 -0.02104983 0.02205341
v 0.02777885 -0.02104983 0.02261165
v 0.02693459 -0.02104983 0.02283077
v 0.02607713 -0.02104983 0.02266382
v 0.02537138 -0.02104983 0.02215254
v 0.02495090 -0.02104983 0.02138562
v 0.01913670 -0.02074970 0.00825927
v 0.01913670 -0.02105925 -0.00580617
v 0.02977408 -0.02104983 -0.02023159
v 0.02309089 -0.01365380 -0.01875513
v 0.02310738 -0.01365380 -0.01873427
v 0.02402749 -0.01365380 -0.01729955
v 0.02668560 -0.01365380 -0.01314670
v 0.02491957 -0.01505007 -0.02598089
v 0.02614309 -0.01365380 0.01375814
v 0.02693459 -0.01505007 0.02283077
v 0.02777885 -0.01505007 0.02261165
v 0.02607713 -0.01505007 0.02266382
v 0.02537138 -0.01505007 0.02215254
v 0.02495090 -0.01505007 0.02138562
v 0.01913670 -0.02004938 0.01052351
v 0.01913670 -0.02104983 -0.03046764
v 0.02491957 -0.02104983 -0.02598089
v 0.01957533 -0.01365380 -0.02221410
v 0.01913670 -0.01505007 -0.03046764
v 0.01913670 -0.01365380 -0.02264191
v 0.02576878 -0.01365380 0.01378423
v 0.02453042 -0.01365380 0.01345555
v 0.02439191 -0.01365380 0.01341381
v 0.02418249 -0.01365380 0.01329903
v 0.02049874 -0.01365380 0.01127478
v 0.01913670 -0.01365380 0.01052351
f 1 2 12
f 1 12 3
f 1 3 4
f 1 4 5
f 1 5 6
f 1 6 7
f 1 7 8
f 1 8 9
f 1 9 2
f 2 9 10
f 2 10 11
f 2 11 12
f 3 12 21
f 3 21 13
f 3 13 14
f 3 14 4
f 4 14 23
f 4 23 38
f 4 38 37
f 4 37 36
f 4 36 35
f 4 35 49
f 4 49 51
f 4 51 57
f 4 57 56
f 4 56 55
f 4 55 54
f 4 54 53
f 4 53 52
f 4 52 40
f 4 40 24
f 4 24 15
f 4 15 7
f 4 7 6
f 4 6 5
f 7 15 8
f 8 15 16
f 8 16 17
f 8 17 9
f 9 17 10
f 10 17 18
f 10 18 33
f 10 33 20
f 10 20 19
f 10 19 11
f 11 19 12
f 12 19 20
f 12 20 21
f 13 21 34
f 13 34 22
f 13 22 23
f 13 23 14
f 15 24 16
f 16 24 25
f 16 25 26
f 16 26 17
f 17 26 18
f 18 26 27
f 18 27 28
f 18 28 29
f 18 29 30
f 18 30 31
f 18 31 32
f 18 32 46
f 18 46 57
f 18 57 51
f 18 51 50
f 18 50 47
f 18 47 33
f 20 33 21
f 21 33 34
f 22 35 36
f 22 36 37
f 22 37 38
f 22 38 23
f 22 34 48
f 22 48 39
f 22 39 35
f 24 40 41
f 24 41 42
f 24 42 25
f 25 42 27
f 25 27 26
f 27 42 41
f 27 41 28
f 28 41 43
f 28 43 29
f 29 43 44
f 29 44 30
f 30 44 45
f 30 45 31
f 31 45 57
f 31 57 46
f 31 46 32
f 33 47 48
f 33 48 34
f 35 39 49
f 39 48 47
f 39 47 50
f 39 50 51
f 39 51 49
f 40 52 41
f 41 52 43
f 43 52 53
f 43 53 54
f 43 54 55
f 43 55 56
f 43 56 57
f 43 57 44
f 44 57 45

