# https://github.com/mikedh/trimesh
v -0.09254021 0.00480682 0.00069066
v -0.09304994 0.00480239 0.00069066
v -0.09254021 0.00275020 0.00069066
v -0.09254021 0.00480682 -0.02487399
v -0.09655171 0.00480682 -0.00463302
v -0.09304994 0.00275020 0.00069066
v -0.09254021 0.00275020 -0.02487399
v -0.09655171 0.00480682 -0.02423074
v -0.09655171 0.00275020 -0.00463302
v -0.09655171 0.00275020 -0.02423074
f 1 2 6
f 1 6 3
f 1 3 7
f 1 7 4
f 1 4 8
f 1 8 5
f 1 5 2
f 2 5 9
f 2 9 6
f 3 6 9
f 3 9 10
f 3 10 7
f 4 7 10
f 4 10 8
f 5 8 10
f 5 10 9

