# https://github.com/mikedh/trimesh
v 0.03212665 -0.01252154 0.01679875
v 0.03201965 -0.01252154 0.01716856
v 0.03139024 -0.01326293 0.01715434
v 0.03159795 -0.01326293 0.01620137
v 0.03126436 -0.01285674 -0.01735178
v 0.03146577 -0.01252154 -0.01713843
v 0.03151613 -0.01252154 0.01800775
v 0.03067901 -0.01364997 0.01726813
v 0.03103148 -0.01364997 0.01657829
v 0.03120771 -0.01285674 0.01801486
v 0.03037060 -0.01364997 -0.01749402
v 0.03074195 -0.01329196 -0.01817674
v 0.03128954 -0.01252154 -0.01846832
v 0.03130213 -0.01252154 -0.01840432
v 0.03149724 -0.01252154 0.01802908
v 0.03040837 -0.01364997 0.01750281
v 0.02638644 -0.01365307 0.01373360
v 0.02670115 -0.01365307 0.01310065
v 0.02690256 -0.01365307 0.01268817
v 0.02691515 -0.01365307 0.01265972
v 0.02905514 -0.01365307 0.00638007
v 0.02957125 -0.01365307 0.00145164
v 0.02974749 -0.01365307 -0.00024096
v 0.03042096 -0.01252154 0.01872603
v 0.00231156 -0.01285674 0.03550972
v 0.03023842 -0.01329196 0.01814287
v 0.03021325 -0.01364997 -0.01814830
v 0.02894814 -0.01365307 -0.00685487
v 0.03115107 -0.01252154 -0.01873857
v 0.03116366 -0.01252154 -0.01871723
v 0.02997407 -0.01344349 -0.01890925
v 0.00134857 -0.01329196 0.03562351
v 0.00163180 -0.01364997 0.03491233
v 0.00103386 -0.01364997 0.03520391
v 0.00659783 -0.01365307 0.01987813
v 0.00152480 -0.01252154 0.03620667
v 0.02308834 -0.01365307 -0.01875279
v 0.02978525 -0.01364997 -0.01866034
v 0.02669485 -0.01365307 -0.01312030
v 0.02668227 -0.01365307 -0.01314164
v 0.02402616 -0.01365307 -0.01729489
v 0.03046501 -0.01252154 -0.01954220
v 0.00016528 -0.01344349 -0.03533024
v 0.00054292 -0.01252154 -0.03603430
v 0.00119751 -0.01252154 0.03630623
v 0.00029745 -0.01344349 0.03550972
v 0.00036669 -0.01364997 0.03520391
v -0.01492794 -0.01365307 0.02572398
v 0.00414314 -0.01365307 0.02058219
v 0.00481661 -0.01365307 0.02039018
v 0.01835519 -0.01365307 -0.02340387
v 0.01833631 -0.01365307 -0.02341809
v 0.01413815 -0.01365307 -0.02600676
v 0.01268422 -0.01365307 -0.02690284
v 0.00001422 -0.01364997 -0.03505999
v -0.00073478 -0.01364997 -0.03523779
v -0.00081660 -0.01329018 -0.03573561
v -0.00048931 -0.01252154 -0.03634722
v 0.00012122 -0.01252154 0.03628490
v -0.00086066 -0.01252154 0.03583686
v -0.00070331 -0.01329018 0.03516124
v -0.02936658 -0.01344349 0.01921674
v -0.00031937 -0.01364997 0.03484121
v -0.01582170 -0.01365307 0.02512659
v -0.02927846 -0.01364997 0.01891805
v -0.02986381 -0.01364997 0.01859091
v 0.01266533 -0.01365307 -0.02690995
v 0.00799512 -0.01365307 -0.02850298
v 0.00637754 -0.01365307 -0.02905058
v 0.00635237 -0.01365307 -0.02905769
v -0.00023754 -0.01365307 -0.02974753
v -0.00515952 -0.01365307 -0.02915015
v -0.00685263 -0.01365307 -0.02894391
v -0.00116277 -0.01364997 -0.03516667
v -0.00178589 -0.01285020 -0.03588495
v -0.00082289 -0.01252154 -0.03634010
v -0.03051839 -0.01252154 0.01949410
v -0.03034846 -0.01329018 0.01881849
v -0.01835193 -0.01365307 0.02340555
v -0.02310396 -0.01365307 0.01873314
v -0.01957298 -0.01365307 0.02221078
v -0.03025404 -0.01364997 0.01805042
v -0.00687781 -0.01365307 -0.02893679
v -0.01151655 -0.01365307 -0.02727265
v -0.01312154 -0.01365307 -0.02669660
v -0.00147748 -0.01364997 -0.03501732
v -0.00205024 -0.01252154 -0.03597741
v -0.00220130 -0.01325485 -0.03510978
v -0.03092122 -0.01285020 -0.01824786
v -0.03054357 -0.01252154 0.01947988
v -0.03114780 -0.01285020 0.01824244
v -0.03074498 -0.01252154 0.01928786
v -0.03078275 -0.01252154 0.01923808
v -0.02402290 -0.01365307 0.01729657
v -0.03090863 -0.01325485 0.01739614
v -0.03036105 -0.01364997 0.01766638
v -0.02894487 -0.01365307 0.00685655
v -0.02727065 -0.01365307 0.01151474
v -0.02669159 -0.01365307 0.01312199
v -0.01873587 -0.01365307 -0.02310517
v -0.03020999 -0.01364997 -0.01762203
v -0.03119816 -0.01252154 -0.01831187
v -0.03050581 -0.01364997 -0.01743001
v -0.03123592 -0.01325485 -0.01743001
v -0.03140586 -0.01252154 0.01812153
v -0.03143733 -0.01252154 0.01795796
v -0.03036734 -0.01364997 0.01739614
v -0.03217374 -0.01252154 -0.01601478
v -0.03190309 -0.01285020 -0.01570897
v -0.03158839 -0.01325485 -0.01652682
v -0.03104710 -0.01364997 -0.01603611
v -0.02974422 -0.01365307 0.00024264
v -0.02915258 -0.01365307 0.00515685
v -0.02340608 -0.01365307 -0.01835454
v -0.03121704 -0.01252154 -0.01829053
v -0.03096528 -0.01364997 -0.01680418
v -0.03201010 -0.01252154 -0.01719532
v -0.03185904 -0.01252154 -0.01751535
v -0.03184645 -0.01252154 -0.01753669
v -0.02905187 -0.01365307 -0.00637838
v -0.02956799 -0.01365307 -0.00147129
v -0.02599924 -0.01365307 -0.01415861
v -0.02690559 -0.01365307 -0.01268649
v -0.02849799 -0.01365307 -0.00801408
f 1 2 3
f 1 3 4
f 1 4 5
f 1 5 6
f 1 6 14
f 1 14 13
f 1 13 30
f 1 30 29
f 1 29 42
f 1 42 44
f 1 44 58
f 1 58 76
f 1 76 87
f 1 87 102
f 1 102 115
f 1 115 119
f 1 119 118
f 1 118 117
f 1 117 108
f 1 108 106
f 1 106 105
f 1 105 93
f 1 93 92
f 1 92 90
f 1 90 77
f 1 77 60
f 1 60 59
f 1 59 45
f 1 45 36
f 1 36 24
f 1 24 15
f 1 15 7
f 1 7 2
f 2 7 3
f 3 8 9
f 3 9 4
f 3 7 10
f 3 10 8
f 4 9 11
f 4 11 5
f 5 11 12
f 5 12 13
f 5 13 14
f 5 14 6
f 7 15 10
f 8 10 16
f 8 16 17
f 8 17 9
f 9 17 18
f 9 18 19
f 9 19 20
f 9 20 21
f 9 21 22
f 9 22 23
f 9 23 11
f 10 15 24
f 10 24 25
f 10 25 26
f 10 26 16
f 11 27 12
f 11 23 28
f 11 28 27
f 12 29 30
f 12 30 13
f 12 27 31
f 12 31 29
f 16 26 32
f 16 32 33
f 16 33 17
f 17 33 34
f 17 34 35
f 17 35 50
f 17 50 49
f 17 49 48
f 17 48 64
f 17 64 79
f 17 79 81
f 17 81 80
f 17 80 94
f 17 94 99
f 17 99 98
f 17 98 97
f 17 97 113
f 17 113 112
f 17 112 121
f 17 121 120
f 17 120 124
f 17 124 123
f 17 123 122
f 17 122 114
f 17 114 100
f 17 100 85
f 17 85 84
f 17 84 83
f 17 83 73
f 17 73 72
f 17 72 71
f 17 71 70
f 17 70 69
f 17 69 68
f 17 68 67
f 17 67 54
f 17 54 53
f 17 53 52
f 17 52 51
f 17 51 37
f 17 37 41
f 17 41 40
f 17 40 39
f 17 39 28
f 17 28 23
f 17 23 22
f 17 22 21
f 17 21 20
f 17 20 19
f 17 19 18
f 24 36 25
f 25 36 32
f 25 32 26
f 27 37 38
f 27 38 31
f 27 28 39
f 27 39 40
f 27 40 41
f 27 41 37
f 29 31 42
f 31 38 43
f 31 43 44
f 31 44 42
f 32 36 45
f 32 45 46
f 32 46 34
f 32 34 33
f 34 46 47
f 34 47 48
f 34 48 49
f 34 49 50
f 34 50 35
f 37 51 38
f 38 51 52
f 38 52 53
f 38 53 54
f 38 54 55
f 38 55 43
f 43 55 56
f 43 56 57
f 43 57 58
f 43 58 44
f 45 59 46
f 46 59 60
f 46 60 61
f 46 61 62
f 46 62 63
f 46 63 47
f 47 63 48
f 48 63 65
f 48 65 66
f 48 66 64
f 54 67 55
f 55 67 68
f 55 68 69
f 55 69 70
f 55 70 56
f 56 70 71
f 56 71 72
f 56 72 73
f 56 73 74
f 56 74 57
f 57 75 76
f 57 76 58
f 57 74 75
f 60 77 62
f 60 62 61
f 62 77 78
f 62 78 66
f 62 66 65
f 62 65 63
f 64 66 79
f 66 80 81
f 66 81 79
f 66 78 82
f 66 82 80
f 73 83 74
f 74 83 84
f 74 84 85
f 74 85 86
f 74 86 75
f 75 87 76
f 75 86 88
f 75 88 89
f 75 89 87
f 77 90 78
f 78 91 82
f 78 90 92
f 78 92 93
f 78 93 91
f 80 82 94
f 82 91 95
f 82 95 96
f 82 96 97
f 82 97 98
f 82 98 99
f 82 99 94
f 85 100 101
f 85 101 86
f 86 101 88
f 87 89 102
f 88 101 89
f 89 101 103
f 89 103 104
f 89 104 102
f 91 105 106
f 91 106 95
f 91 93 105
f 95 107 96
f 95 106 108
f 95 108 109
f 95 109 110
f 95 110 111
f 95 111 107
f 96 107 112
f 96 112 113
f 96 113 97
f 100 114 103
f 100 103 101
f 102 104 115
f 103 114 116
f 103 116 104
f 104 116 110
f 104 110 117
f 104 117 118
f 104 118 119
f 104 119 115
f 107 111 112
f 108 117 110
f 108 110 109
f 110 116 111
f 111 116 120
f 111 120 121
f 111 121 112
f 114 122 116
f 116 122 123
f 116 123 124
f 116 124 120

