# https://github.com/mikedh/trimesh
v -0.11094573 0.01474915 0.03068560
v -0.12588667 0.01475973 0.01619547
v -0.12795498 0.01475973 0.01775571
v -0.13051865 0.01475973 0.01806982
v -0.14788588 0.01474915 0.02874946
v -0.11094573 0.00275000 0.03068560
v -0.11094573 0.01474915 -0.02191964
v -0.11101081 0.01475973 -0.00542129
v -0.11110844 0.01475973 -0.00338731
v -0.11200881 0.01475973 -0.00155931
v -0.11202327 0.01475973 -0.00153871
v -0.13290516 0.01475973 0.01705540
v -0.14788588 0.00275000 0.02874946
v -0.13742505 0.01475973 0.01352298
v -0.13876293 0.01475973 0.01192670
v -0.13933425 0.01475973 0.00992362
v -0.14788588 0.01474915 -0.01598250
v -0.11094573 0.00275000 -0.02191964
v -0.11628643 0.01475973 -0.01575078
v -0.11498108 0.01475973 -0.01592585
v -0.11372636 0.01475973 -0.01552936
v -0.11276091 0.01475973 -0.01463338
v -0.11227638 0.01475973 -0.01340785
v -0.14788588 0.00275000 -0.01514316
v -0.13903774 0.01475973 0.00785876
v -0.13793127 0.01475973 0.00609770
v -0.11738928 0.01475973 -0.01502988
v -0.14788588 0.00275118 -0.01598250
f 1 2 3
f 1 3 4
f 1 4 5
f 1 5 13
f 1 13 6
f 1 6 18
f 1 18 7
f 1 7 8
f 1 8 9
f 1 9 10
f 1 10 11
f 1 11 2
f 2 11 10
f 2 10 9
f 2 9 8
f 2 8 23
f 2 23 22
f 2 22 21
f 2 21 20
f 2 20 19
f 2 19 27
f 2 27 26
f 2 26 25
f 2 25 16
f 2 16 15
f 2 15 14
f 2 14 12
f 2 12 4
f 2 4 3
f 4 12 5
f 5 12 14
f 5 14 15
f 5 15 16
f 5 16 17
f 5 17 28
f 5 28 24
f 5 24 13
f 6 13 24
f 6 24 18
f 7 18 28
f 7 28 17
f 7 17 19
f 7 19 20
f 7 20 21
f 7 21 22
f 7 22 23
f 7 23 8
f 16 25 17
f 17 25 26
f 17 26 27
f 17 27 19
f 18 24 28

