# https://github.com/mikedh/trimesh
v -0.09254036 0.00685598 -0.00455845
v -0.09637781 0.00685598 -0.00455845
v -0.09254036 0.00480682 -0.00455845
v -0.09254036 0.00685598 -0.02487649
v -0.09637781 0.00480682 -0.00455845
v -0.11094572 0.00685598 -0.00464994
v -0.09254036 0.00480682 -0.02487649
v -0.10923959 0.00480682 -0.02219155
v -0.11094572 0.00685598 -0.02191709
v -0.11094572 0.00480682 -0.00464994
v -0.11094572 0.00480682 -0.02191709
f 1 2 5
f 1 5 3
f 1 3 7
f 1 7 4
f 1 4 9
f 1 9 6
f 1 6 2
f 2 6 10
f 2 10 5
f 3 5 10
f 3 10 11
f 3 11 8
f 3 8 7
f 4 7 8
f 4 8 9
f 6 9 11
f 6 11 10
f 8 11 9

