# https://github.com/mikedh/trimesh
v 0.03649998 0.00685598 0.00000643
v 0.03649998 0.00480682 0.00000643
v 0.03525510 0.00685598 -0.00944191
v 0.03525510 0.00685598 0.00943729
v 0.03628644 0.00480682 0.00162682
v 0.03525510 0.00480682 -0.00944191
v 0.03160675 0.00685598 -0.01824327
v 0.03525510 0.00480682 0.00943729
v 0.03303792 0.00685598 0.01479388
v 0.03160675 0.00480682 -0.01824327
v 0.02853542 0.00685598 -0.02240498
v 0.03160675 0.00480682 0.01824448
v 0.03160675 0.00685598 0.01824448
v 0.03006655 0.00480682 -0.02032995
v 0.02792661 0.00480682 -0.02304031
v 0.02792661 0.00685598 -0.02304031
v 0.02962584 0.00685598 0.02083243
v 0.02580940 0.00480682 0.02580433
v -0.00991525 0.00480682 -0.02304031
v -0.00991525 0.00685598 -0.02304031
v 0.02580940 0.00685598 0.02580433
v 0.02321967 0.00685598 0.02779192
v 0.01824920 0.00480682 0.03160390
v -0.00991525 0.00480682 0.03596961
v -0.00991525 0.00685598 0.03596961
v 0.01824920 0.00685598 0.03160390
v 0.01523694 0.00685598 0.03285125
v 0.00944866 0.00480682 0.03524685
v 0.00000296 0.00480682 0.03649419
v 0.00000296 0.00685598 0.03649419
v 0.00944866 0.00685598 0.03524685
v 0.00782667 0.00480682 0.03546251
f 1 2 6
f 1 6 3
f 1 3 7
f 1 7 11
f 1 11 16
f 1 16 20
f 1 20 25
f 1 25 30
f 1 30 31
f 1 31 27
f 1 27 26
f 1 26 22
f 1 22 21
f 1 21 17
f 1 17 13
f 1 13 9
f 1 9 4
f 1 4 5
f 1 5 2
f 2 5 8
f 2 8 12
f 2 12 18
f 2 18 23
f 2 23 28
f 2 28 32
f 2 32 29
f 2 29 24
f 2 24 19
f 2 19 15
f 2 15 14
f 2 14 10
f 2 10 6
f 3 6 10
f 3 10 7
f 4 8 5
f 4 9 8
f 7 10 11
f 8 9 12
f 9 13 12
f 10 14 11
f 11 14 15
f 11 15 16
f 12 13 17
f 12 17 18
f 15 19 20
f 15 20 16
f 17 21 18
f 18 21 22
f 18 22 23
f 19 24 25
f 19 25 20
f 22 26 23
f 23 26 27
f 23 27 28
f 24 29 30
f 24 30 25
f 27 31 28
f 28 31 32
f 29 32 30
f 30 32 31

