# https://github.com/mikedh/trimesh
v 0.00849882 0.00924989 -0.03653796
v 0.00849882 0.00685598 -0.03538089
v 0.00849882 0.00950133 -0.03653796
v 0.01374390 0.00924989 -0.03653796
v 0.00944720 0.00685598 -0.03525612
v 0.00849882 0.00685598 -0.03348117
v 0.00849882 0.00950133 -0.03348117
v 0.01374390 0.00950133 -0.03653796
v 0.01373209 0.00685598 -0.03348117
v 0.01157706 0.00685598 -0.03437433
v 0.01374390 0.00924989 -0.03348117
v 0.01374390 0.00950133 -0.03348117
f 1 2 6
f 1 6 7
f 1 7 3
f 1 3 8
f 1 8 4
f 1 4 2
f 2 5 10
f 2 10 9
f 2 9 6
f 2 4 5
f 3 7 12
f 3 12 8
f 4 9 10
f 4 10 5
f 4 8 12
f 4 12 11
f 4 11 9
f 6 9 11
f 6 11 12
f 6 12 7

