# https://github.com/mikedh/trimesh
v -0.00000241 -0.00300000 -0.01496212
v -0.00000241 0.00300000 -0.01496212
v -0.00000241 -0.00300000 -0.00295565
v -0.00180817 -0.00300000 -0.01488944
v -0.00000241 0.00300000 -0.00295565
v -0.00180817 0.00300000 -0.01488944
v -0.00228903 -0.00300000 -0.00193811
v -0.00417469 -0.00300000 -0.01440745
v -0.00228903 0.00300000 -0.00193811
v -0.00417469 0.00300000 -0.01440745
v -0.01484364 -0.00300000 -0.00193811
v -0.00643080 -0.00300000 -0.01355057
v -0.01484364 0.00300000 -0.00193811
v -0.00643080 0.00300000 -0.01355057
v -0.01480442 -0.00300000 -0.00240735
v -0.00851985 -0.00300000 -0.01234431
v -0.01480442 0.00300000 -0.00240735
v -0.00851985 0.00300000 -0.01234431
v -0.01422768 -0.00300000 -0.00475101
v -0.01038953 -0.00300000 -0.01081800
v -0.01422768 0.00300000 -0.00475101
v -0.01038953 0.00300000 -0.01081800
v -0.01328049 -0.00300000 -0.00697098
v -0.01199045 -0.00300000 -0.00900989
v -0.01328049 0.00300000 -0.00697098
v -0.01199045 0.00300000 -0.00900989
f 1 2 5
f 1 5 3
f 1 3 7
f 1 7 11
f 1 11 15
f 1 15 19
f 1 19 23
f 1 23 24
f 1 24 20
f 1 20 16
f 1 16 12
f 1 12 8
f 1 8 4
f 1 4 6
f 1 6 2
f 2 6 10
f 2 10 14
f 2 14 18
f 2 18 22
f 2 22 26
f 2 26 25
f 2 25 21
f 2 21 17
f 2 17 13
f 2 13 9
f 2 9 5
f 3 5 9
f 3 9 7
f 4 8 10
f 4 10 6
f 7 9 13
f 7 13 11
f 8 12 14
f 8 14 10
f 11 13 17
f 11 17 15
f 12 16 18
f 12 18 14
f 15 17 21
f 15 21 19
f 16 20 22
f 16 22 18
f 19 21 25
f 19 25 23
f 20 24 26
f 20 26 22
f 23 25 26
f 23 26 24

