# https://github.com/mikedh/trimesh
v -0.09796760 0.00685598 -0.02400299
v -0.10192779 0.00685598 -0.02336727
v -0.09796760 0.00950174 -0.02400299
v -0.09731238 0.00950174 -0.02410791
v -0.09796760 0.00685598 -0.00487178
v -0.10192779 0.00950174 -0.02336727
v -0.10192779 0.00685598 -0.00309013
v -0.09731238 0.01475000 -0.02410791
v -0.09731238 0.00950174 -0.00495202
v -0.10192779 0.00950174 -0.00309013
v -0.10134171 0.01475000 -0.02345985
v -0.09731238 0.01475000 -0.00495819
v -0.09731238 0.01470209 -0.00495202
v -0.10134171 0.01475000 -0.00353246
f 1 2 6
f 1 6 3
f 1 3 8
f 1 8 4
f 1 4 9
f 1 9 5
f 1 5 7
f 1 7 2
f 2 7 10
f 2 10 6
f 3 6 8
f 4 8 12
f 4 12 13
f 4 13 9
f 5 9 7
f 6 10 14
f 6 14 11
f 6 11 8
f 7 9 13
f 7 13 10
f 8 11 14
f 8 14 12
f 10 13 14
f 12 14 13

