# https://github.com/mikedh/trimesh
v -0.09254036 0.00685598 0.03165021
v -0.09803742 0.00685598 0.03135924
v -0.09254036 0.00480682 0.03165021
v -0.09254036 0.00685598 0.00068923
v -0.09803742 0.00480682 0.03135924
v -0.09803742 0.00685598 0.00487192
v -0.09254036 0.00480682 0.00068923
v -0.09305105 0.00685598 0.00068923
v -0.09803742 0.00480682 0.00487192
v -0.09305105 0.00480682 0.00068923
f 1 2 5
f 1 5 3
f 1 3 7
f 1 7 4
f 1 4 8
f 1 8 6
f 1 6 2
f 2 6 9
f 2 9 5
f 3 5 9
f 3 9 10
f 3 10 7
f 4 7 10
f 4 10 8
f 6 8 10
f 6 10 9

