# https://github.com/mikedh/trimesh
v -0.09253982 0.00275020 -0.00725211
v -0.09253982 0.00480682 -0.00725211
v -0.07571554 0.00275020 -0.00725211
v -0.09253982 0.00275020 0.03164439
v -0.09253982 0.00480682 0.03164439
v -0.07571554 0.00480682 -0.00725211
v 0.03553688 0.00275020 -0.00724782
v -0.07571554 0.00275020 0.03253073
v -0.08915475 0.00480682 0.03182422
v 0.03553688 0.00480682 -0.00724782
v 0.03649682 0.00275020 0.00000138
v -0.07571554 0.00480682 0.03253073
v -0.00001893 0.00275020 0.03649146
v 0.03649682 0.00480682 0.00000138
v 0.03549898 0.00480682 0.00759741
v 0.03524636 0.00275020 0.00945146
v -0.00001893 0.00480682 0.03649146
v 0.00416188 0.00275020 0.03595194
v 0.03524636 0.00480682 0.00945146
v 0.03160868 0.00275020 0.01824642
v 0.00416188 0.00480682 0.03595194
v 0.00944157 0.00275020 0.03525400
v 0.03160868 0.00480682 0.01824642
v 0.02579850 0.00275020 0.02580392
v 0.00944157 0.00480682 0.03525400
v 0.01824526 0.00275020 0.03160585
v 0.01117199 0.00480682 0.03453893
v 0.02579850 0.00480682 0.02580392
v 0.01973570 0.00480682 0.03047115
v 0.01824526 0.00480682 0.03160585
f 1 2 6
f 1 6 3
f 1 3 7
f 1 7 11
f 1 11 16
f 1 16 20
f 1 20 24
f 1 24 26
f 1 26 22
f 1 22 18
f 1 18 13
f 1 13 8
f 1 8 4
f 1 4 5
f 1 5 2
f 2 5 9
f 2 9 12
f 2 12 17
f 2 17 21
f 2 21 25
f 2 25 27
f 2 27 30
f 2 30 29
f 2 29 28
f 2 28 23
f 2 23 19
f 2 19 15
f 2 15 14
f 2 14 10
f 2 10 6
f 3 6 10
f 3 10 7
f 4 8 9
f 4 9 5
f 7 10 14
f 7 14 11
f 8 12 9
f 8 13 17
f 8 17 12
f 11 15 16
f 11 14 15
f 13 18 21
f 13 21 17
f 15 19 16
f 16 19 23
f 16 23 20
f 18 22 25
f 18 25 21
f 20 23 28
f 20 28 24
f 22 26 27
f 22 27 25
f 24 28 29
f 24 29 26
f 26 30 27
f 26 29 30

