# https://github.com/mikedh/trimesh
v -0.15713452 0.01475000 0.02826036
v -0.17862837 0.01475000 0.02996855
v -0.15713452 0.00275000 0.02826036
v -0.15713452 0.01475000 -0.01939867
v -0.17862837 0.00275000 0.02996855
v -0.18723930 0.01475000 0.02911152
v -0.15713452 0.00275000 -0.01941041
v -0.15713452 0.01470536 -0.01941041
v -0.16360690 0.01475000 -0.02512198
v -0.18723930 0.00275000 0.02911152
v -0.19525247 0.01475000 0.02583015
v -0.16360690 0.00275000 -0.02512198
v -0.17146547 0.01475000 -0.02875555
v -0.19525247 0.00275000 0.02583015
v -0.20199795 0.01475000 0.02039448
v -0.17146547 0.00275000 -0.02875555
v -0.18003518 0.01475000 -0.03000000
v -0.20199795 0.00275000 0.02039448
v -0.20690892 0.01475000 0.01326235
v -0.18003518 0.00275000 -0.03000000
v -0.18859974 0.01475000 -0.02873794
v -0.20690892 0.00275000 0.01326235
v -0.20957310 0.01475000 0.00502079
v -0.18859974 0.00275000 -0.02873794
v -0.19644800 0.01475000 -0.02508676
v -0.20957310 0.00275000 0.00502079
v -0.20977923 0.01475000 -0.00363168
v -0.19644800 0.00275000 -0.02508676
v -0.20293068 0.01475000 -0.01933997
v -0.20977923 0.00275000 -0.00363168
v -0.20749638 0.01475000 -0.01198478
v -0.20293068 0.00275000 -0.01933997
v -0.20749638 0.00275000 -0.01198478
f 1 2 5
f 1 5 3
f 1 3 7
f 1 7 8
f 1 8 4
f 1 4 9
f 1 9 13
f 1 13 17
f 1 17 21
f 1 21 25
f 1 25 29
f 1 29 31
f 1 31 27
f 1 27 23
f 1 23 19
f 1 19 15
f 1 15 11
f 1 11 6
f 1 6 2
f 2 6 10
f 2 10 5
f 3 5 10
f 3 10 14
f 3 14 18
f 3 18 22
f 3 22 26
f 3 26 30
f 3 30 33
f 3 33 32
f 3 32 28
f 3 28 24
f 3 24 20
f 3 20 16
f 3 16 12
f 3 12 7
f 4 8 9
f 6 11 14
f 6 14 10
f 7 12 9
f 7 9 8
f 9 12 16
f 9 16 13
f 11 15 18
f 11 18 14
f 13 16 20
f 13 20 17
f 15 19 22
f 15 22 18
f 17 20 24
f 17 24 21
f 19 23 26
f 19 26 22
f 21 24 28
f 21 28 25
f 23 27 30
f 23 30 26
f 25 28 32
f 25 32 29
f 27 31 33
f 27 33 30
f 29 32 33
f 29 33 31

