# https://github.com/mikedh/trimesh
v -0.10109532 0.00950133 0.03120183
v -0.11094476 0.00950133 0.03068342
v -0.10109532 0.00685598 0.03120183
v -0.10109532 0.00950133 0.00392130
v -0.11094476 0.00685598 0.03068342
v -0.11094476 0.00950133 0.00004848
v -0.10109532 0.00685598 0.00392130
v -0.10285983 0.00950133 0.00004848
v -0.11094476 0.00685598 0.00004848
v -0.10285983 0.00685598 0.00004848
f 1 2 5
f 1 5 3
f 1 3 7
f 1 7 4
f 1 4 8
f 1 8 6
f 1 6 2
f 2 6 9
f 2 9 5
f 3 5 9
f 3 9 10
f 3 10 7
f 4 7 10
f 4 10 8
f 6 8 10
f 6 10 9

