# https://github.com/mikedh/trimesh
v -0.11101136 0.02474902 -0.00542207
v -0.11110841 0.02474902 -0.00338850
v -0.11110841 0.01476090 -0.00338517
v -0.11101136 0.01476090 -0.00542207
v -0.11227575 0.02474902 -0.01340660
v -0.11200957 0.02474902 -0.00156128
v -0.11200957 0.01476090 -0.00156128
v -0.11227575 0.01476090 -0.01340660
v -0.11276099 0.02474902 -0.01463140
v -0.11202343 0.01476090 -0.00154131
v -0.12588181 0.02474902 0.01619839
v -0.11276099 0.01476090 -0.01463140
v -0.11372592 0.02474902 -0.01553004
v -0.12588181 0.01476090 0.01619839
v -0.12795031 0.02474902 0.01775602
v -0.11372592 0.01476090 -0.01553004
v -0.11498199 0.02474902 -0.01592610
v -0.12795031 0.01476090 0.01775602
v -0.13051791 0.02474902 0.01807221
v -0.11498199 0.01476090 -0.01592610
v -0.11628520 0.02474902 -0.01574970
v -0.13051791 0.01476090 0.01807221
v -0.13290250 0.02474902 0.01706041
v -0.11628520 0.01476090 -0.01574970
v -0.11738877 0.02474902 -0.01503080
v -0.13290527 0.01476090 0.01705708
v -0.13742491 0.02474902 0.01352578
v -0.13742491 0.01476090 0.01352578
v -0.11738877 0.01476090 -0.01503080
v -0.13790738 0.01476090 0.00607711
v -0.13792956 0.02474902 0.00610041
v -0.13876140 0.02474902 0.01192821
v -0.13876417 0.01476090 0.01192821
v -0.13792956 0.01476090 0.00610041
v -0.13903867 0.01476090 0.00786106
v -0.13903867 0.02474902 0.00786439
v -0.13933536 0.02474902 0.00992792
v -0.13933259 0.01476090 0.00992459
f 1 2 3
f 1 3 4
f 1 4 8
f 1 8 5
f 1 5 9
f 1 9 13
f 1 13 17
f 1 17 21
f 1 21 25
f 1 25 31
f 1 31 36
f 1 36 37
f 1 37 32
f 1 32 27
f 1 27 23
f 1 23 19
f 1 19 15
f 1 15 11
f 1 11 6
f 1 6 2
f 2 6 3
f 3 6 7
f 3 7 10
f 3 10 14
f 3 14 18
f 3 18 22
f 3 22 26
f 3 26 28
f 3 28 33
f 3 33 38
f 3 38 35
f 3 35 34
f 3 34 30
f 3 30 29
f 3 29 24
f 3 24 20
f 3 20 16
f 3 16 12
f 3 12 8
f 3 8 4
f 5 8 12
f 5 12 9
f 6 10 7
f 6 11 10
f 9 12 16
f 9 16 13
f 10 11 14
f 11 15 18
f 11 18 14
f 13 16 20
f 13 20 17
f 15 19 22
f 15 22 18
f 17 20 24
f 17 24 21
f 19 23 22
f 21 24 29
f 21 29 25
f 22 23 26
f 23 27 28
f 23 28 26
f 25 30 31
f 25 29 30
f 27 32 33
f 27 33 28
f 30 34 31
f 31 34 35
f 31 35 36
f 32 37 33
f 33 37 38
f 35 37 36
f 35 38 37

