# https://github.com/mikedh/trimesh
v 0.00300072 -0.00300000 -0.00000241
v -0.00000094 -0.00300000 0.00295573
v 0.00300072 0.00300000 -0.00000241
v 0.01499853 -0.00300000 -0.00000241
v -0.00000094 -0.00300000 0.01496289
v -0.00000094 0.00300000 0.00295573
v 0.01499853 0.00300000 -0.00000241
v 0.01499853 -0.00300000 0.00000053
v 0.00060409 -0.00300000 0.01498783
v -0.00000094 0.00300000 0.01496289
v 0.01499853 0.00300000 0.00000053
v 0.01495007 -0.00300000 0.00120814
v 0.00060409 0.00300000 0.01498783
v 0.00300072 -0.00300000 0.01469584
v 0.01495007 0.00300000 0.00120814
v 0.01456385 -0.00300000 0.00359109
v 0.00300072 0.00300000 0.01469584
v 0.00531951 -0.00300000 0.01402380
v 0.01456385 0.00300000 0.00359109
v 0.01379875 -0.00300000 0.00588012
v 0.00531951 0.00300000 0.01402380
v 0.00749880 -0.00300000 0.01298933
v 0.01379875 0.00300000 0.00588012
v 0.01267680 -0.00300000 0.00801655
v 0.00749880 0.00300000 0.01298933
v 0.00948571 -0.00300000 0.01161885
v 0.01267680 0.00300000 0.00801655
v 0.01122737 -0.00300000 0.00994609
v 0.00948571 0.00300000 0.01161885
v 0.01122737 0.00300000 0.00994609
f 1 2 6
f 1 6 3
f 1 3 7
f 1 7 4
f 1 4 8
f 1 8 12
f 1 12 16
f 1 16 20
f 1 20 24
f 1 24 28
f 1 28 26
f 1 26 22
f 1 22 18
f 1 18 14
f 1 14 9
f 1 9 5
f 1 5 2
f 2 5 10
f 2 10 6
f 3 6 10
f 3 10 13
f 3 13 17
f 3 17 21
f 3 21 25
f 3 25 29
f 3 29 30
f 3 30 27
f 3 27 23
f 3 23 19
f 3 19 15
f 3 15 11
f 3 11 7
f 4 7 11
f 4 11 8
f 5 9 13
f 5 13 10
f 8 11 15
f 8 15 12
f 9 14 17
f 9 17 13
f 12 15 19
f 12 19 16
f 14 18 21
f 14 21 17
f 16 19 23
f 16 23 20
f 18 22 25
f 18 25 21
f 20 23 27
f 20 27 24
f 22 26 29
f 22 29 25
f 24 27 30
f 24 30 28
f 26 28 30
f 26 30 29

