# https://github.com/mikedh/trimesh
v 0.03554525 0.00480682 -0.00725342
v 0.03554525 0.00275020 -0.00725342
v 0.03525622 0.00480682 -0.00944792
v 0.02969827 0.00480682 -0.00725342
v 0.02969827 0.00275020 -0.00725342
v 0.03525622 0.00275020 -0.00944792
v 0.03161045 0.00480682 -0.01824970
v 0.02969827 0.00480682 -0.02074129
v 0.02969827 0.00275020 -0.02074129
v 0.03161045 0.00275020 -0.01824970
v 0.03007087 0.00480682 -0.02033460
f 1 2 6
f 1 6 3
f 1 3 7
f 1 7 11
f 1 11 8
f 1 8 4
f 1 4 5
f 1 5 2
f 2 5 9
f 2 9 10
f 2 10 6
f 3 6 10
f 3 10 7
f 4 8 9
f 4 9 5
f 7 10 11
f 8 11 9
f 9 11 10

