# https://github.com/mikedh/trimesh
v 0.11220301 0.00250000 -0.12678592
v 0.11220301 0.01450000 -0.12678592
v 0.18999067 0.00250000 -0.12678592
v 0.00414437 0.00250000 -0.03612679
v 0.18999067 0.01450000 -0.12678592
v 0.00414437 0.01450000 -0.03612679
v 0.01607812 0.00250000 0.01914387
v 0.00414437 0.00250000 0.02897823
v 0.01607812 0.01450000 0.01914387
v 0.00414437 0.01450000 0.02897823
v 0.01591439 0.00250000 0.01928109
v 0.01591439 0.01450000 0.01928109
f 1 2 5
f 1 5 3
f 1 3 7
f 1 7 11
f 1 11 8
f 1 8 4
f 1 4 6
f 1 6 2
f 2 6 10
f 2 10 12
f 2 12 9
f 2 9 5
f 3 5 9
f 3 9 7
f 4 8 10
f 4 10 6
f 7 9 12
f 7 12 11
f 8 11 12
f 8 12 10

