# https://github.com/mikedh/trimesh
v 0.19889620 0.00250000 -0.19973430
v 0.19889620 0.01450000 -0.19973430
v 0.20964023 0.00250000 -0.19694646
v 0.18782534 0.00250000 -0.19911717
v 0.20964023 0.01450000 -0.19694646
v 0.18782534 0.01450000 -0.19911717
v 0.21902126 0.00250000 -0.19102386
v 0.17746379 0.00250000 -0.19515341
v 0.21902126 0.01450000 -0.19102386
v 0.17746379 0.01450000 -0.19515341
v 0.22614917 0.00250000 -0.18252528
v 0.16879902 0.00250000 -0.18822375
v 0.22614917 0.01450000 -0.18252528
v 0.16879902 0.01450000 -0.18822375
v 0.23035638 0.00250000 -0.17225822
v 0.16265163 0.00250000 -0.17898831
v 0.23035638 0.01450000 -0.17225822
v 0.16265163 0.01450000 -0.17898831
v 0.23066931 0.00250000 -0.16837122
v 0.15963357 0.00250000 -0.16837122
v 0.23066931 0.01450000 -0.16837122
v 0.15963357 0.01450000 -0.16837122
f 1 2 5
f 1 5 3
f 1 3 7
f 1 7 11
f 1 11 15
f 1 15 19
f 1 19 20
f 1 20 16
f 1 16 12
f 1 12 8
f 1 8 4
f 1 4 6
f 1 6 2
f 2 6 10
f 2 10 14
f 2 14 18
f 2 18 22
f 2 22 21
f 2 21 17
f 2 17 13
f 2 13 9
f 2 9 5
f 3 5 9
f 3 9 7
f 4 8 10
f 4 10 6
f 7 9 13
f 7 13 11
f 8 12 14
f 8 14 10
f 11 13 17
f 11 17 15
f 12 16 18
f 12 18 14
f 15 17 21
f 15 21 19
f 16 20 22
f 16 22 18
f 19 21 22
f 19 22 20

