# https://github.com/mikedh/trimesh
v -0.09000453 0.01475000 0.00003348
v -0.09313048 0.01475000 0.00003348
v -0.09000453 0.00950133 0.00003348
v -0.09000453 0.01475000 -0.02528389
v -0.09313048 0.00950133 0.00003348
v -0.09731154 0.01475000 -0.00495763
v -0.09731154 0.01470222 -0.00495020
v -0.09000453 0.00950133 -0.02528389
v -0.09731154 0.01475000 -0.02410922
v -0.09731154 0.00950133 -0.00495020
v -0.09731154 0.00950133 -0.02410922
f 1 2 5
f 1 5 3
f 1 3 8
f 1 8 4
f 1 4 9
f 1 9 6
f 1 6 2
f 2 6 7
f 2 7 10
f 2 10 5
f 3 5 10
f 3 10 11
f 3 11 8
f 4 8 11
f 4 11 9
f 6 9 11
f 6 11 10
f 6 10 7

