# https://github.com/mikedh/trimesh
v -0.01756128 0.04635085 -0.00132039
v -0.01756128 0.04712712 -0.00093381
v -0.01756128 0.04541419 -0.00120900
v -0.08102164 -0.01324228 0.03763227
v -0.08363742 0.01952785 0.03783539
v -0.08414681 0.04712712 0.03757330
v -0.01756128 0.04712712 0.04274952
v -0.01756128 0.04336767 -0.00090105
v -0.08070499 -0.01622546 0.03793367
v -0.08191652 -0.01324228 0.04016796
v -0.08314868 0.00537536 0.03856268
v -0.08322440 0.00761435 0.03840543
v -0.08332766 0.01059754 0.03822197
v -0.08343092 0.01357431 0.03806471
v -0.08353417 0.01655108 0.03794022
v -0.08417435 0.01952785 0.04016796
v -0.08489713 0.04712712 0.04016796
v -0.08452542 0.04712712 0.03883787
v -0.02631040 0.03610537 0.06258949
v -0.02498185 0.03443094 0.06103008
v -0.01756128 -0.00758385 0.06561660
v -0.08057420 0.04712712 0.06561660
v -0.01756128 -0.01401855 0.02190050
v -0.01982600 -0.01541712 0.02019039
v -0.02293740 -0.01544278 0.01737951
v -0.02499562 -0.01324228 0.01584630
v -0.02797624 -0.01324228 0.01502073
v -0.03095686 -0.01324228 0.01544662
v -0.08033327 -0.01786782 0.03837267
v -0.08129010 -0.01622546 0.04016796
v -0.03308391 -0.01622546 0.01730088
v -0.08162740 -0.01462160 0.06561660
v -0.08191652 -0.01324228 0.06561660
v -0.08787775 0.04712712 0.06103008
v -0.08783645 0.04712712 0.05804884
v -0.08762306 0.04712712 0.05506760
v -0.01756128 -0.01386457 0.06561660
v -0.08787775 0.04712712 0.06561660
v -0.01756128 -0.01562883 0.02270642
v -0.02197370 -0.01607791 0.01924687
v -0.02499562 -0.01594960 0.01680947
v -0.02797624 -0.01616772 0.01642289
v -0.03070216 -0.01652058 0.01682912
v -0.03258140 -0.01777159 0.01772022
v -0.07862613 -0.01807311 0.04016796
v -0.08044341 -0.01794481 0.04016796
v -0.08129010 -0.01622546 0.06561660
v -0.01769895 -0.01387741 0.06561660
v -0.01756128 -0.01657190 0.05208636
v -0.01756128 -0.01598167 0.02344027
v -0.02499562 -0.01728401 0.01931240
v -0.03152132 -0.01777159 0.01772022
v -0.03691122 -0.01815652 0.02527487
v -0.03989183 -0.01829765 0.02825611
v -0.07862613 -0.01807311 0.06561660
v -0.07946593 -0.01801538 0.06561660
v -0.03989183 -0.01841313 0.03123735
v -0.08044341 -0.01794481 0.06561660
v -0.01903437 -0.01397364 0.06561660
v -0.01756128 -0.01684776 0.05057936
v -0.02041111 -0.01406987 0.06561660
v -0.02976599 -0.01471783 0.06561660
v -0.07374562 -0.01774592 0.06561660
v -0.07564551 -0.01787424 0.06561660
v -0.01756128 -0.01648208 0.02517659
v -0.01756128 -0.01686059 0.02674256
v -0.02797624 -0.01759837 0.01931240
v -0.03106011 -0.01780367 0.01931240
v -0.03393748 -0.01798971 0.02229364
v -0.02956636 -0.01770743 0.01931240
v -0.03691122 -0.01821425 0.02825611
v -0.03691122 -0.01821425 0.03123735
v -0.03104635 -0.01781008 0.03718672
v -0.02797624 -0.01759837 0.04016796
v -0.02499562 -0.01738666 0.04314920
v -0.01756128 -0.01686701 0.04911168
v -0.01756128 -0.01687984 0.02825611
v -0.01903437 -0.01698249 0.02825611
v -0.03104635 -0.01781008 0.02229364
v -0.01903437 -0.01698249 0.04613044
v -0.01756128 -0.01687984 0.04759812
f 1 2 7
f 1 7 21
f 1 21 37
f 1 37 49
f 1 49 60
f 1 60 76
f 1 76 81
f 1 81 77
f 1 77 66
f 1 66 65
f 1 65 50
f 1 50 39
f 1 39 23
f 1 23 8
f 1 8 3
f 1 3 4
f 1 4 5
f 1 5 6
f 1 6 2
f 2 6 18
f 2 18 17
f 2 17 36
f 2 36 35
f 2 35 34
f 2 34 38
f 2 38 22
f 2 22 7
f 3 8 4
f 4 9 10
f 4 10 11
f 4 11 12
f 4 12 13
f 4 13 14
f 4 14 15
f 4 15 5
f 4 8 9
f 5 15 16
f 5 16 17
f 5 17 18
f 5 18 6
f 7 19 20
f 7 20 21
f 7 22 19
f 8 23 24
f 8 24 25
f 8 25 26
f 8 26 27
f 8 27 28
f 8 28 9
f 9 29 30
f 9 30 10
f 9 28 31
f 9 31 29
f 10 30 32
f 10 32 33
f 10 33 38
f 10 38 34
f 10 34 35
f 10 35 36
f 10 36 11
f 11 36 16
f 11 16 12
f 12 16 13
f 13 16 14
f 14 16 15
f 16 36 17
f 19 21 20
f 19 22 21
f 21 22 38
f 21 38 33
f 21 33 32
f 21 32 47
f 21 47 58
f 21 58 56
f 21 56 55
f 21 55 64
f 21 64 63
f 21 63 62
f 21 62 61
f 21 61 59
f 21 59 48
f 21 48 37
f 23 39 24
f 24 39 40
f 24 40 25
f 25 41 26
f 25 40 41
f 26 41 27
f 27 41 42
f 27 42 43
f 27 43 28
f 28 43 44
f 28 44 31
f 29 45 46
f 29 46 30
f 29 31 44
f 29 44 45
f 30 47 32
f 30 46 58
f 30 58 47
f 37 48 49
f 39 50 40
f 40 50 51
f 40 51 41
f 41 51 52
f 41 52 42
f 42 52 44
f 42 44 43
f 44 52 53
f 44 53 54
f 44 54 45
f 45 55 56
f 45 56 46
f 45 54 57
f 45 57 55
f 46 56 58
f 48 59 49
f 49 59 61
f 49 61 62
f 49 62 63
f 49 63 64
f 49 64 55
f 49 55 60
f 50 65 51
f 51 65 66
f 51 66 67
f 51 67 52
f 52 68 69
f 52 69 53
f 52 67 70
f 52 70 68
f 53 69 57
f 53 57 54
f 55 57 60
f 57 69 68
f 57 68 71
f 57 71 72
f 57 72 73
f 57 73 74
f 57 74 75
f 57 75 60
f 60 75 76
f 66 77 67
f 67 77 78
f 67 78 79
f 67 79 70
f 68 70 71
f 70 79 71
f 71 79 78
f 71 78 80
f 71 80 72
f 72 80 73
f 73 80 74
f 74 80 81
f 74 81 75
f 75 81 76
f 77 81 80
f 77 80 78

