# https://github.com/mikedh/trimesh
v 0.02490416 -0.02730687 0.02626893
v 0.02663098 -0.03048689 0.02608849
v 0.02490416 -0.02730687 0.02746097
v 0.02490416 -0.02150566 -0.00452711
v 0.02521487 -0.02218424 -0.00452711
v 0.02663098 -0.03048689 0.02773983
v 0.02653538 -0.02463246 -0.00452711
v 0.03009658 -0.02968856 -0.00608003
v 0.03013243 -0.03559621 0.02673918
v 0.02490416 -0.02516468 0.02825383
v 0.02565106 -0.02789232 0.02802417
v 0.02490416 -0.02086699 -0.00518327
v 0.02674451 -0.02431313 -0.00645186
v 0.03013243 -0.03559621 0.02679386
v 0.02946918 -0.03410600 0.02752658
v 0.02841756 -0.03133844 0.02853817
v 0.03286307 -0.02111980 -0.02117731
v 0.03553397 -0.02433974 -0.02131401
v 0.03841400 -0.02720043 -0.02130854
v 0.03516948 -0.03334758 -0.00655575
v 0.03469745 -0.03373344 -0.00452711
v 0.03320963 -0.03253594 -0.00452711
v 0.03671705 -0.03522366 -0.00452711
v 0.03565945 -0.03878954 0.02635095
v 0.02567496 -0.02516468 0.02892640
v 0.02490416 -0.01163296 0.03161121
v 0.02865059 -0.02814512 0.02973020
v 0.02490416 -0.01901753 -0.00667058
v 0.03008463 -0.01491942 -0.02099139
v 0.03163219 -0.03611513 0.02752658
v 0.03565945 -0.03878954 0.02743909
v 0.03163219 -0.03410600 0.02901389
v 0.03245079 -0.01920380 -0.02141790
v 0.03457197 -0.02214432 -0.02155460
v 0.03748785 -0.02527112 -0.02163662
v 0.04065468 -0.02817173 -0.02152727
v 0.04170033 -0.02984823 -0.02113356
v 0.03849765 -0.03590224 -0.00637531
v 0.03820486 -0.03606191 -0.00452711
v 0.04057103 -0.03728602 -0.00452711
v 0.04287146 -0.03829724 -0.00452711
v 0.04458633 -0.03869640 -0.00619486
v 0.04435928 -0.03876293 -0.00452711
v 0.04653423 -0.03933507 -0.00452711
v 0.03759540 -0.03914879 0.02592991
v 0.03163219 -0.03112556 0.02973567
v 0.03461379 -0.03410600 0.02973567
v 0.04057103 -0.03708644 0.02973567
v 0.02542400 -0.01181924 0.03161121
v 0.02490416 0.06172042 0.03161121
v 0.02490416 0.01489827 -0.02400976
v 0.03464367 -0.03719288 0.02835772
v 0.03759540 -0.03914879 0.02801324
v 0.03759540 -0.03708644 0.02950055
v 0.03461379 -0.01920380 -0.02202486
v 0.04057103 -0.02516468 -0.02212875
v 0.04355263 -0.02814512 -0.02199752
v 0.03759540 -0.02218424 -0.02212875
v 0.04355263 -0.03022078 -0.02138510
v 0.04808180 -0.03258917 -0.02084922
v 0.04653423 -0.03896251 -0.00647920
v 0.04951584 -0.03992051 -0.00452711
v 0.04057103 -0.03953465 0.02567291
v 0.04057103 -0.03953465 0.02824836
v 0.04355263 -0.03970762 0.02824836
v 0.04653423 -0.03972093 0.02824836
v 0.05546709 -0.03708644 0.02973567
v 0.05264085 -0.01341590 0.03161121
v 0.02567496 -0.01189907 0.03161121
v 0.04630718 0.06801394 0.03161121
v 0.03461379 0.09104581 0.02973020
v 0.02865059 0.08806537 0.02973567
v 0.02490416 0.08431321 0.02973567
v 0.02490416 0.01656146 -0.02413006
v 0.04653423 -0.02814512 -0.02213421
v 0.05249147 -0.03112556 -0.02186628
v 0.04653423 -0.03079292 -0.02152727
v 0.05006555 -0.03278875 -0.02112263
v 0.04951584 -0.03924193 -0.00674167
v 0.05249147 -0.04013340 -0.00452711
v 0.04355263 -0.03970762 0.02561823
v 0.05249147 -0.04013340 0.00440768
v 0.05546709 -0.04017332 0.00440768
v 0.04951584 -0.03965440 0.02824836
v 0.06142433 -0.03708644 0.02969739
v 0.05844870 -0.03708644 0.02973020
v 0.05559855 -0.01314979 0.03161121
v 0.04951584 0.06869252 0.03161121
v 0.03759540 0.09104581 0.02973567
v 0.05546709 0.09402625 0.02906857
v 0.03461379 0.09345411 0.02824290
v 0.03163219 0.09104581 0.02948961
v 0.02567496 0.08806537 0.02899748
v 0.02490416 0.08729365 0.02899748
v 0.02490416 0.01954190 -0.02418474
v 0.03975841 0.01118602 -0.02417927
v 0.03746394 0.01036108 -0.02413006
v 0.06142433 -0.02814512 -0.02213421
v 0.05546709 -0.03112556 -0.02183348
v 0.05249147 -0.03289519 -0.02125386
v 0.04925293 -0.03140497 -0.02152727
v 0.05249147 -0.03934837 -0.00681275
v 0.05546709 -0.04016001 -0.00452711
v 0.05546709 -0.04017332 -0.00154702
v 0.06142433 -0.03924193 0.02821009
v 0.05844870 -0.03934837 0.02823743
v 0.06738753 -0.03886938 0.02766875
v 0.06440593 -0.03910887 0.02810073
v 0.05546709 -0.03944151 0.02824836
v 0.06440593 -0.03708644 0.02958803
v 0.07036914 -0.03410600 0.02973567
v 0.08593443 -0.00709577 0.03161121
v 0.08291697 -0.00782758 0.03161121
v 0.08593443 0.06669669 0.03161121
v 0.06440593 0.09104581 0.02973020
v 0.06142433 0.09104581 0.02973567
v 0.05844870 0.09402625 0.02895374
v 0.05546709 0.09575597 0.02758126
v 0.05249147 0.09402625 0.02888812
v 0.03163219 0.09309486 0.02800230
v 0.05249147 0.09568944 0.02740082
v 0.04951584 0.09558300 0.02704539
v 0.04782487 0.09552978 0.02681573
v 0.02867449 0.09117886 0.02834679
v 0.02490416 0.08798554 0.02852723
v 0.02567496 0.09010112 0.02751018
v 0.02490416 0.03145035 -0.02418474
v 0.03759540 0.04129644 -0.02424488
v 0.03975841 0.01255649 -0.02417927
v 0.07334477 -0.01622337 -0.02213421
v 0.07036914 -0.02218424 -0.02208500
v 0.06738753 -0.02516468 -0.02209594
v 0.06440593 -0.02814512 -0.02194831
v 0.05546709 -0.03286858 -0.02122105
v 0.06142433 -0.03069978 -0.02152727
v 0.05546709 -0.03937499 -0.00681275
v 0.05844870 -0.03920201 -0.00670886
v 0.05844870 -0.03984068 -0.00452711
v 0.06738753 -0.03886938 0.02620331
v 0.06918606 -0.03866979 0.02713835
v 0.07334477 -0.03635463 0.02804605
v 0.06738753 -0.03708644 0.02915606
v 0.07334477 -0.03410600 0.02953335
v 0.07632637 -0.03112556 0.02966459
v 0.07930798 -0.02814512 0.02947320
v 0.08156061 -0.02814512 0.02798590
v 0.08411200 -0.02218424 0.02774530
v 0.08390287 -0.02404701 0.02720397
v 0.08593443 -0.00722883 0.02893734
v 0.08593443 0.06669669 0.03122845
v 0.07487441 0.08662837 0.02689776
v 0.07314759 0.08779926 0.02771249
v 0.07036914 0.08806537 0.02933104
v 0.06763849 0.09131192 0.02854364
v 0.06440593 0.09358716 0.02824290
v 0.05844870 0.09571605 0.02746643
v 0.05546709 0.09575597 0.02627440
v 0.04355263 0.09490441 0.00143306
v 0.03163219 0.09309486 0.02594632
v 0.02968429 0.09276222 0.02742816
v 0.05249147 0.09568944 0.02638376
v 0.04782487 0.09552978 0.02672825
v 0.02490416 0.08943584 0.02746643
v 0.02490416 0.08982170 0.02712195
v 0.02490416 0.03222207 -0.02417380
v 0.03759540 0.04270682 -0.02424488
v 0.07334477 -0.00132117 -0.02213421
v 0.07632637 -0.00728205 -0.02173505
v 0.07632637 -0.01026249 -0.02172958
v 0.07584238 -0.01622337 -0.02152727
v 0.07334477 -0.01920380 -0.02191003
v 0.07036914 -0.02516468 -0.02157648
v 0.06722621 -0.02810520 -0.02146711
v 0.06440593 -0.03015425 -0.02134135
v 0.05766595 -0.03274883 -0.02107888
v 0.06142433 -0.03890929 -0.00644092
v 0.06142433 -0.03922862 -0.00452711
v 0.06918606 -0.03866979 0.02653687
v 0.06322882 -0.03869640 -0.00618939
v 0.07519707 -0.03584902 0.02748284
v 0.07624869 -0.03407938 0.02832492
v 0.07930200 -0.03103242 0.02827570
v 0.08102882 -0.02998128 0.02740082
v 0.08390287 -0.02404701 0.02649859
v 0.08488877 -0.01324293 -0.00452711
v 0.08518753 -0.01026249 -0.00452711
v 0.08593443 -0.00713569 0.02839053
v 0.08593443 0.06620439 0.02862019
v 0.07746763 0.07680890 -0.00452711
v 0.07623077 0.07912405 -0.00452711
v 0.07487441 0.08662837 0.02667903
v 0.07201828 0.08972856 0.02721490
v 0.07036914 0.09039384 0.02784373
v 0.06681392 0.09306825 0.02774530
v 0.06039660 0.09560961 0.02713835
v 0.05844870 0.09571605 0.02634548
v 0.04951584 0.09534350 -0.00452711
v 0.04951584 0.09538341 -0.00154702
v 0.04653423 0.09531688 -0.00154702
v 0.04355263 0.09490441 -0.00154702
v 0.02968429 0.09276222 0.02635642
v 0.02490416 0.08982170 0.02648765
v 0.02490416 0.03443078 -0.02413553
v 0.03461379 0.04245402 -0.02418474
v 0.03759540 0.08210449 -0.02210688
v 0.04653423 0.08508493 -0.02213421
v 0.04951584 0.08508493 -0.02213421
v 0.05249147 0.08508493 -0.02212328
v 0.05844870 0.08210449 -0.02213421
v 0.06738753 0.07316318 -0.02213421
v 0.07036914 0.06422186 -0.02211781
v 0.08593443 0.02252234 -0.01883699
v 0.08593443 0.04039166 -0.01882605
v 0.08593443 0.03741122 -0.01883699
v 0.08593443 0.01954190 -0.01882605
v 0.07798149 -0.01026249 -0.02111716
v 0.07652953 -0.01324293 -0.02146711
v 0.07528669 -0.01920380 -0.02130307
v 0.07789784 -0.01224501 -0.02101874
v 0.07329697 -0.02197135 -0.02142884
v 0.07226924 -0.02416676 -0.02125933
v 0.06938324 -0.02708068 -0.02127027
v 0.06612080 -0.02976839 -0.02107342
v 0.05964971 -0.03249603 -0.02058676
v 0.06338418 -0.03874963 -0.00452711
v 0.06487797 -0.03812427 -0.00452711
v 0.06738753 -0.03700660 -0.00452711
v 0.07519707 -0.03584902 0.02631814
v 0.06931153 -0.03584902 -0.00632610
v 0.07830415 -0.03306816 0.02765235
v 0.08102882 -0.02998128 0.02637282
v 0.08111845 -0.02424660 -0.00452711
v 0.08211032 -0.02218424 -0.00452711
v 0.08383715 -0.01788655 -0.00611284
v 0.08427333 -0.01622337 -0.00452711
v 0.08402237 -0.01622337 -0.00634797
v 0.08593443 0.01564338 -0.01753559
v 0.08593443 0.01527082 -0.01720204
v 0.08593443 0.01398019 -0.01604281
v 0.08593443 0.01363424 -0.01570926
v 0.08593443 0.01098644 -0.01306820
v 0.08593443 0.00949622 -0.01158089
v 0.08593443 0.00813906 -0.01009358
v 0.08593443 0.00788625 -0.00953037
v 0.08593443 0.00698148 -0.00750719
v 0.08593443 0.05303191 -0.00750719
v 0.07796954 0.07509248 -0.00622767
v 0.07500586 0.08089369 -0.00622767
v 0.07409764 0.08251697 -0.00452711
v 0.07260385 0.08440635 -0.00452711
v 0.07201828 0.08972856 0.02649312
v 0.06681392 0.09306825 0.02607208
v 0.06039660 0.09560961 0.02653687
v 0.04653423 0.09527697 -0.00452711
v 0.05249147 0.09502417 -0.00452711
v 0.05249147 0.08826495 -0.01942753
v 0.04951584 0.08846454 -0.01942753
v 0.04653423 0.08841132 -0.01942753
v 0.04355263 0.09481127 -0.00452711
v 0.04057103 0.09429236 -0.00452711
v 0.03587455 0.09264247 -0.00616206
v 0.03427321 0.09193728 -0.00452711
v 0.03184730 0.09044706 -0.00452711
v 0.03759540 0.09341419 -0.00452711
v 0.03035948 0.08938262 -0.00452711
v 0.02705522 0.08668160 -0.00614018
v 0.02490416 0.08440635 -0.00452711
v 0.02490416 0.03614720 -0.02401523
v 0.02865059 0.07316318 -0.02195924
v 0.03163219 0.07614362 -0.02212875
v 0.03461379 0.07912405 -0.02213421
v 0.03150074 0.07925711 -0.02164209
v 0.03453612 0.08221094 -0.02162569
v 0.03759540 0.08460593 -0.02149446
v 0.04355263 0.08508493 -0.02206313
v 0.04653423 0.08730695 -0.02152727
v 0.04951584 0.08733357 -0.02152727
v 0.05546709 0.08508493 -0.02193737
v 0.05249147 0.08725373 -0.02151086
v 0.06142433 0.08210449 -0.02190456
v 0.06440593 0.07912405 -0.02198658
v 0.06738753 0.07614362 -0.02187175
v 0.07036914 0.06720230 -0.02206313
v 0.08593443 0.04279996 -0.01837767
v 0.07240069 0.06720230 -0.02145071
v 0.07210791 0.07018274 -0.02119372
v 0.08593443 0.01900968 -0.01872763
v 0.07492818 -0.02084038 -0.02102421
v 0.08593443 0.01713360 -0.01837767
v 0.07841768 -0.02741331 -0.00652294
v 0.07562130 -0.03043367 -0.00655575
v 0.07263970 -0.03322783 -0.00652841
v 0.06952664 -0.03596877 -0.00452711
v 0.07101446 -0.03502408 -0.00452711
v 0.07302809 -0.03353386 -0.00452711
v 0.07451590 -0.03233636 -0.00452711
v 0.07830415 -0.03306816 0.02618691
v 0.07752140 -0.02928940 -0.00452711
v 0.07872241 -0.02779917 -0.00452711
v 0.08021022 -0.02573682 -0.00452711
v 0.08101090 -0.02406032 -0.00628782
v 0.08593443 0.05179450 -0.01010452
v 0.07189280 0.07176610 -0.02096406
v 0.06892315 0.07770037 -0.02096952
v 0.08593443 0.05043733 -0.01159182
v 0.08593443 0.05010470 -0.01193084
v 0.08593443 0.04595337 -0.01605922
v 0.08593443 0.04558082 -0.01639277
v 0.08593443 0.04429018 -0.01754653
v 0.07235887 0.08414024 -0.00646280
v 0.07117578 0.08589657 -0.00452711
v 0.06968797 0.08737348 -0.00452711
v 0.06793128 0.08886370 -0.00452711
v 0.06644346 0.08988823 -0.00452711
v 0.06440593 0.09112564 -0.00452711
v 0.06239230 0.09226992 -0.00452711
v 0.06089851 0.09290858 -0.00452711
v 0.05844870 0.09378675 -0.00452711
v 0.05546709 0.09458508 -0.00452711
v 0.04057103 0.09338758 -0.00679088
v 0.04355263 0.08714729 -0.02145071
v 0.05546709 0.08698762 -0.02132494
v 0.03759540 0.09297511 -0.00649561
v 0.03227153 0.09015434 -0.00652841
v 0.04115659 0.08688118 -0.02122652
v 0.03917284 0.08650863 -0.02071800
v 0.03547422 0.08402049 -0.02128120
v 0.03240896 0.08127955 -0.02132494
v 0.03041923 0.08033486 -0.01993059
v 0.02490416 0.08410033 -0.00618393
v 0.02490416 0.06720230 -0.02000168
v 0.02590799 0.06720230 -0.02152727
v 0.02623065 0.07018274 -0.02152727
v 0.02667281 0.07316318 -0.02134682
v 0.02863266 0.07601056 -0.02149992
v 0.02961259 0.07833903 -0.02131401
v 0.05834712 0.08515146 -0.02149992
v 0.06418485 0.08195813 -0.02134135
v 0.06142433 0.08411363 -0.02129214
v 0.06613873 0.08086708 -0.02112810
v 0.06723218 0.07887125 -0.02131948
v 0.06932946 0.07614362 -0.02125933
v 0.07039901 0.07292368 -0.02143431
v 0.07036914 0.07018274 -0.02180066
v 0.07603359 -0.03084614 -0.00452711
v 0.06941909 0.08710737 -0.00646280
v 0.06625823 0.08978178 -0.00628782
v 0.06058183 0.09278883 -0.00633703
v 0.05844870 0.09316139 -0.00665965
v 0.05728354 0.08670821 -0.02107888
v 0.02701339 0.07493281 -0.02108435
v 0.02512524 0.07018274 -0.01942753
v 0.02490416 0.06907838 -0.01942753
v 0.06303762 0.08368785 -0.02101327
f 1 2 6
f 1 6 3
f 1 3 10
f 1 10 26
f 1 26 50
f 1 50 73
f 1 73 94
f 1 94 125
f 1 125 163
f 1 163 164
f 1 164 202
f 1 202 267
f 1 267 330
f 1 330 353
f 1 353 331
f 1 331 268
f 1 268 203
f 1 203 165
f 1 165 127
f 1 127 95
f 1 95 74
f 1 74 51
f 1 51 28
f 1 28 12
f 1 12 4
f 1 4 5
f 1 5 2
f 2 5 7
f 2 7 8
f 2 8 9
f 2 9 14
f 2 14 6
f 3 6 11
f 3 11 10
f 4 12 13
f 4 13 5
f 5 13 7
f 6 14 15
f 6 15 16
f 6 16 11
f 7 13 8
f 8 13 17
f 8 17 18
f 8 18 19
f 8 19 20
f 8 20 21
f 8 21 22
f 8 22 9
f 9 22 21
f 9 21 23
f 9 23 24
f 9 24 31
f 9 31 14
f 10 11 25
f 10 25 26
f 11 16 27
f 11 27 25
f 12 28 13
f 13 28 29
f 13 29 17
f 14 30 15
f 14 31 30
f 15 30 32
f 15 32 16
f 16 32 27
f 17 29 33
f 17 33 34
f 17 34 18
f 18 35 19
f 18 34 35
f 19 35 36
f 19 36 37
f 19 37 20
f 20 38 21
f 20 37 38
f 21 38 23
f 23 38 39
f 23 39 24
f 24 39 40
f 24 40 41
f 24 41 42
f 24 42 43
f 24 43 44
f 24 44 45
f 24 45 53
f 24 53 31
f 25 27 26
f 26 27 46
f 26 46 47
f 26 47 48
f 26 48 49
f 26 49 69
f 26 69 68
f 26 68 87
f 26 87 113
f 26 113 112
f 26 112 114
f 26 114 88
f 26 88 70
f 26 70 50
f 27 32 46
f 28 51 29
f 29 51 33
f 30 31 52
f 30 52 32
f 31 53 52
f 32 52 54
f 32 54 47
f 32 47 46
f 33 55 34
f 33 51 55
f 34 55 35
f 35 56 57
f 35 57 36
f 35 55 58
f 35 58 56
f 36 57 59
f 36 59 37
f 37 59 60
f 37 60 42
f 37 42 38
f 38 42 40
f 38 40 39
f 40 42 41
f 42 61 62
f 42 62 44
f 42 44 43
f 42 60 61
f 44 62 45
f 45 62 63
f 45 63 64
f 45 64 53
f 47 54 48
f 48 54 64
f 48 64 65
f 48 65 66
f 48 66 67
f 48 67 68
f 48 68 69
f 48 69 49
f 50 70 71
f 50 71 72
f 50 72 73
f 51 74 56
f 51 56 58
f 51 58 55
f 52 53 54
f 53 64 54
f 56 75 57
f 56 74 75
f 57 75 76
f 57 76 77
f 57 77 59
f 59 77 78
f 59 78 60
f 60 78 61
f 61 79 62
f 61 78 79
f 62 80 63
f 62 79 80
f 63 80 81
f 63 81 65
f 63 65 64
f 65 81 80
f 65 80 82
f 65 82 83
f 65 83 66
f 66 84 85
f 66 85 86
f 66 86 67
f 66 83 84
f 67 86 68
f 68 86 87
f 70 88 71
f 71 89 90
f 71 90 91
f 71 91 92
f 71 92 72
f 71 88 89
f 72 92 93
f 72 93 94
f 72 94 73
f 74 95 96
f 74 96 97
f 74 97 75
f 75 98 76
f 75 97 96
f 75 96 98
f 76 99 100
f 76 100 78
f 76 78 101
f 76 101 77
f 76 98 99
f 77 101 78
f 78 100 79
f 79 102 80
f 79 100 102
f 80 103 104
f 80 104 83
f 80 83 82
f 80 102 136
f 80 136 103
f 83 105 106
f 83 106 84
f 83 104 139
f 83 139 107
f 83 107 108
f 83 108 105
f 84 106 109
f 84 109 85
f 85 109 106
f 85 106 105
f 85 105 110
f 85 110 111
f 85 111 112
f 85 112 113
f 85 113 87
f 85 87 86
f 88 114 115
f 88 115 116
f 88 116 89
f 89 116 90
f 90 117 118
f 90 118 119
f 90 119 91
f 90 116 115
f 90 115 117
f 91 120 92
f 91 119 118
f 91 118 121
f 91 121 122
f 91 122 123
f 91 123 120
f 92 120 124
f 92 124 93
f 93 125 94
f 93 124 126
f 93 126 125
f 95 127 166
f 95 166 128
f 95 128 96
f 96 129 167
f 96 167 130
f 96 130 131
f 96 131 132
f 96 132 98
f 96 128 166
f 96 166 129
f 98 132 133
f 98 133 99
f 99 134 100
f 99 133 135
f 99 135 134
f 100 134 136
f 100 136 102
f 103 136 137
f 103 137 138
f 103 138 104
f 104 138 139
f 105 108 110
f 107 139 178
f 107 178 140
f 107 140 141
f 107 141 142
f 107 142 108
f 108 142 110
f 110 142 143
f 110 143 111
f 111 143 144
f 111 144 112
f 112 144 145
f 112 145 146
f 112 146 147
f 112 147 148
f 112 148 149
f 112 149 187
f 112 187 245
f 112 245 244
f 112 244 243
f 112 243 242
f 112 242 241
f 112 241 240
f 112 240 239
f 112 239 238
f 112 238 237
f 112 237 289
f 112 289 287
f 112 287 215
f 112 215 212
f 112 212 214
f 112 214 213
f 112 213 284
f 112 284 309
f 112 309 308
f 112 308 307
f 112 307 306
f 112 306 305
f 112 305 302
f 112 302 246
f 112 246 188
f 112 188 150
f 112 150 114
f 114 150 191
f 114 191 151
f 114 151 152
f 114 152 153
f 114 153 115
f 115 153 154
f 115 154 155
f 115 155 117
f 117 155 156
f 117 156 118
f 118 157 161
f 118 161 121
f 118 156 196
f 118 196 157
f 120 123 158
f 120 158 200
f 120 200 159
f 120 159 201
f 120 201 160
f 120 160 124
f 121 161 162
f 121 162 123
f 121 123 122
f 123 162 200
f 123 200 158
f 124 160 126
f 125 126 163
f 126 160 164
f 126 164 163
f 127 165 166
f 129 166 167
f 130 168 169
f 130 169 170
f 130 170 171
f 130 171 131
f 130 167 168
f 131 171 172
f 131 172 132
f 132 172 173
f 132 173 133
f 133 173 174
f 133 174 135
f 134 175 137
f 134 137 136
f 134 135 175
f 135 174 175
f 137 176 138
f 137 175 176
f 138 177 178
f 138 178 139
f 138 176 179
f 138 179 177
f 140 178 228
f 140 228 180
f 140 180 141
f 141 180 181
f 141 181 143
f 141 143 142
f 143 181 144
f 144 181 182
f 144 182 145
f 145 182 146
f 146 182 183
f 146 183 148
f 146 148 147
f 148 183 231
f 148 231 184
f 148 184 149
f 149 184 185
f 149 185 186
f 149 186 187
f 150 188 189
f 150 189 190
f 150 190 191
f 151 191 251
f 151 251 192
f 151 192 152
f 152 192 153
f 153 192 193
f 153 193 154
f 154 193 194
f 154 194 155
f 155 194 195
f 155 195 156
f 156 195 253
f 156 253 196
f 157 196 197
f 157 197 198
f 157 198 199
f 157 199 161
f 159 200 201
f 160 201 202
f 160 202 164
f 161 199 162
f 162 199 200
f 165 203 166
f 166 203 204
f 166 204 205
f 166 205 206
f 166 206 207
f 166 207 208
f 166 208 209
f 166 209 210
f 166 210 211
f 166 211 167
f 167 211 168
f 168 212 169
f 168 211 213
f 168 213 214
f 168 214 212
f 169 212 215
f 169 215 216
f 169 216 217
f 169 217 170
f 170 218 171
f 170 217 219
f 170 219 218
f 171 218 220
f 171 220 172
f 172 220 221
f 172 221 222
f 172 222 173
f 173 223 174
f 173 222 223
f 174 223 224
f 174 224 175
f 175 224 179
f 175 179 176
f 177 179 225
f 177 225 178
f 178 225 179
f 178 179 226
f 178 226 227
f 178 227 228
f 179 229 227
f 179 227 226
f 179 224 223
f 179 223 229
f 180 228 297
f 180 297 230
f 180 230 181
f 181 230 182
f 182 230 183
f 183 230 297
f 183 297 231
f 184 231 232
f 184 232 233
f 184 233 234
f 184 234 235
f 184 235 185
f 185 235 234
f 185 234 236
f 185 236 237
f 185 237 186
f 186 237 238
f 186 238 239
f 186 239 240
f 186 240 241
f 186 241 242
f 186 242 243
f 186 243 244
f 186 244 245
f 186 245 187
f 188 246 247
f 188 247 189
f 189 247 248
f 189 248 190
f 190 248 191
f 191 248 249
f 191 249 250
f 191 250 251
f 192 251 252
f 192 252 194
f 192 194 193
f 194 252 253
f 194 253 195
f 196 253 197
f 197 254 199
f 197 199 198
f 197 253 255
f 197 255 256
f 197 256 257
f 197 257 258
f 197 258 254
f 199 254 200
f 200 254 259
f 200 259 260
f 200 260 201
f 201 261 262
f 201 262 263
f 201 263 202
f 201 260 264
f 201 264 261
f 202 263 265
f 202 265 266
f 202 266 267
f 203 268 269
f 203 269 270
f 203 270 271
f 203 271 204
f 204 271 205
f 205 271 272
f 205 272 273
f 205 273 274
f 205 274 275
f 205 275 206
f 206 275 276
f 206 276 277
f 206 277 207
f 207 277 208
f 208 278 209
f 208 277 279
f 208 279 278
f 209 278 280
f 209 280 281
f 209 281 210
f 210 281 282
f 210 282 344
f 210 344 283
f 210 283 211
f 211 283 213
f 213 283 285
f 213 285 286
f 213 286 284
f 215 287 219
f 215 219 216
f 216 219 217
f 218 288 220
f 218 219 288
f 219 234 288
f 219 287 289
f 219 289 234
f 220 288 221
f 221 290 291
f 221 291 222
f 221 288 290
f 222 291 292
f 222 292 223
f 223 292 229
f 227 229 293
f 227 293 228
f 228 293 294
f 228 294 295
f 228 295 296
f 228 296 297
f 229 292 295
f 229 295 294
f 229 294 293
f 231 297 298
f 231 298 299
f 231 299 300
f 231 300 232
f 232 301 233
f 232 300 301
f 233 301 234
f 234 289 237
f 234 237 236
f 234 301 288
f 246 302 247
f 247 303 304
f 247 304 248
f 247 302 305
f 247 305 306
f 247 306 307
f 247 307 308
f 247 308 309
f 247 309 303
f 248 310 250
f 248 250 249
f 248 304 310
f 250 310 311
f 250 311 251
f 251 311 312
f 251 312 313
f 251 313 314
f 251 314 252
f 252 314 315
f 252 315 316
f 252 316 317
f 252 317 253
f 253 317 318
f 253 318 319
f 253 319 255
f 254 320 259
f 254 258 321
f 254 321 320
f 255 319 322
f 255 322 256
f 256 322 279
f 256 279 257
f 257 279 277
f 257 277 276
f 257 276 258
f 258 276 321
f 259 320 260
f 260 320 323
f 260 323 261
f 260 261 264
f 261 324 263
f 261 263 262
f 261 323 325
f 261 325 326
f 261 326 327
f 261 327 324
f 263 324 266
f 263 266 265
f 266 324 327
f 266 327 328
f 266 328 329
f 266 329 330
f 266 330 267
f 268 331 332
f 268 332 333
f 268 333 269
f 269 333 334
f 269 334 335
f 269 335 272
f 269 272 270
f 270 272 271
f 272 335 336
f 272 336 328
f 272 328 273
f 273 327 274
f 273 328 327
f 274 327 325
f 274 325 321
f 274 321 275
f 275 321 276
f 278 279 322
f 278 322 337
f 278 337 280
f 280 338 281
f 280 337 339
f 280 339 338
f 281 338 340
f 281 340 341
f 281 341 282
f 282 342 343
f 282 343 344
f 282 341 342
f 283 344 285
f 284 286 303
f 284 303 309
f 285 344 286
f 286 344 343
f 286 343 303
f 288 301 290
f 290 301 299
f 290 299 298
f 290 298 291
f 291 298 345
f 291 345 296
f 291 296 292
f 292 296 295
f 296 345 297
f 297 345 298
f 299 301 300
f 303 343 342
f 303 342 304
f 304 342 341
f 304 341 340
f 304 340 310
f 310 340 346
f 310 346 311
f 311 346 312
f 312 346 313
f 313 347 314
f 313 346 347
f 314 347 315
f 315 347 316
f 316 347 348
f 316 348 317
f 317 348 318
f 318 348 319
f 319 348 349
f 319 349 322
f 320 321 325
f 320 325 323
f 322 349 350
f 322 350 337
f 325 327 326
f 328 336 329
f 329 336 330
f 330 336 351
f 330 351 352
f 330 352 353
f 331 353 333
f 331 333 332
f 333 353 334
f 334 351 335
f 334 353 352
f 334 352 351
f 335 351 336
f 337 350 339
f 338 339 354
f 338 354 340
f 339 350 354
f 340 354 346
f 346 354 347
f 347 354 348
f 348 354 350
f 348 350 349

