# https://github.com/mikedh/trimesh
v 0.03461189 0.03144347 0.11175337
v 0.03461189 0.03442570 0.11171415
v 0.03163005 0.05826460 0.11172199
v 0.03163005 0.05529186 0.11173768
v 0.02865114 0.05826460 0.11173768
v 0.02489819 0.05826460 0.11173768
v 0.02489819 -0.00728761 0.11173768
v 0.02865114 -0.00728761 0.11173768
v 0.03461189 -0.00430538 0.11173768
v 0.03759079 -0.00728761 0.11162001
v 0.03759079 -0.00430538 0.11162001
v 0.03461189 0.04039018 0.11158863
v 0.03486697 0.05817912 0.11082769
v 0.03404894 0.06124683 0.11067079
v 0.03163005 0.06124683 0.11110225
v 0.03461189 0.04336291 0.11151018
v 0.03461189 0.04634515 0.11141605
v 0.03461189 0.04932739 0.11131406
v 0.03461189 0.05230962 0.11120423
v 0.03461189 0.05529186 0.11107872
v 0.02489819 0.06035406 0.11116501
v 0.02489819 -0.00794295 0.11153372
v 0.02489819 -0.00975699 0.11096889
v 0.03163005 -0.00728761 0.11172984
v 0.03461189 -0.00728761 0.11171415
v 0.03978392 -0.00728761 0.11087476
v 0.03759079 -0.00941507 0.11089045
v 0.03955230 -0.00915863 0.11063941
v 0.03973115 -0.00430538 0.11085122
v 0.03759079 -0.00132314 0.11154941
v 0.03700146 0.03144347 0.11098458
v 0.03690764 0.03442570 0.11094536
v 0.03602804 0.05911938 0.11012166
v 0.03659978 0.04336291 0.11074140
v 0.03649716 0.04634515 0.11064726
v 0.03639454 0.04932739 0.11054527
v 0.03629192 0.05230962 0.11043545
v 0.03618930 0.05529186 0.11030993
v 0.03612480 0.05713439 0.11023148
v 0.03553840 0.06124683 0.10971373
v 0.03343616 0.06283293 0.11033347
v 0.02489819 0.06104738 0.11096889
v 0.03163005 0.06283293 0.11034131
v 0.03670240 0.04039018 0.11081984
v 0.02489819 -0.01006091 0.11038054
v 0.03163005 -0.00959553 0.11096889
v 0.03461189 -0.00951954 0.11094536
v 0.04127045 -0.00728761 0.10885081
v 0.04212072 -0.00883572 0.10732892
v 0.02489819 -0.01083971 0.10870960
v 0.03163005 -0.01045030 0.10870960
v 0.03461189 -0.01026985 0.10870960
v 0.03759079 -0.01006091 0.10870960
v 0.05485144 -0.01954897 0.06699896
v 0.05485144 -0.01871319 0.06863852
v 0.03962853 -0.00132314 0.11078062
v 0.03679329 0.05817912 0.10896063
v 0.05485144 0.06127533 0.07736975
v 0.03919459 0.06043004 0.10443420
v 0.03666721 0.06124683 0.10822323
v 0.03952591 0.00165909 0.11069433
v 0.03942329 0.00463183 0.11060019
v 0.03932067 0.00761407 0.11049036
v 0.03921805 0.01059631 0.11037269
v 0.03829447 0.03740794 0.10884296
v 0.03713927 0.05529186 0.10870960
v 0.03913889 0.01291371 0.11027071
v 0.03906265 0.01489870 0.11017657
v 0.03983377 0.01377799 0.10899201
v 0.03632710 0.06288991 0.10764271
v 0.05485144 0.07492333 0.06878757
v 0.02489819 0.06208262 0.10929011
v 0.02959818 0.06277594 0.11025502
v 0.04214125 -0.00728761 0.10736030
v 0.04210606 -0.00508418 0.10730538
v 0.04137600 -0.00417241 0.10845857
v 0.05485144 -0.01847575 0.06906214
v 0.04519639 -0.00891170 0.10154733
v 0.05154122 -0.00728761 0.09036853
v 0.04844797 -0.00728761 0.09607952
v 0.05172300 -0.00430538 0.09059603
v 0.02489819 -0.01385044 0.06401795
v 0.04229078 -0.02049873 0.05805593
v 0.04398840 -0.02085015 0.06103694
v 0.04447805 -0.02077416 0.06320210
v 0.04652751 -0.02009033 0.06699896
v 0.05248825 -0.01971043 0.06699896
v 0.05485144 -0.01966294 0.06637923
v 0.04652751 -0.02057471 0.06458278
v 0.03930015 0.05826460 0.10462248
v 0.04802576 0.05984119 0.08934871
v 0.05485144 0.06309886 0.07625579
v 0.04218816 0.06286142 0.09850356
v 0.04787916 0.06182619 0.08916044
v 0.04559220 0.06124683 0.09327894
v 0.04818116 0.05529186 0.08962328
v 0.04953574 0.02549799 0.09083137
v 0.05120990 0.01059631 0.08970957
v 0.05299256 -0.00430538 0.08785036
v 0.05427677 -0.00498920 0.08413194
v 0.05485144 -0.00728761 0.08224135
v 0.04235822 0.06124683 0.09879381
v 0.03887501 0.06242453 0.10408119
v 0.03909784 0.03913650 0.10725047
v 0.03987482 0.01656078 0.10859193
v 0.03966958 0.02251575 0.10823891
v 0.05485144 0.07526524 0.06735198
v 0.05248825 0.07484735 0.06870912
v 0.02489819 0.06241504 0.10870960
v 0.04763874 0.07468589 0.06852085
v 0.04565084 0.07456243 0.06815214
v 0.04075441 0.07430599 0.06676362
v 0.03988654 0.07459092 0.06502208
v 0.04764753 -0.00430538 0.09764063
v 0.04443407 -0.00430538 0.10319473
v 0.04203863 -0.00309919 0.10718772
v 0.05398357 -0.00877873 0.08339453
v 0.05120404 -0.00890220 0.08981155
v 0.04822807 -0.00893069 0.09571866
v 0.05485144 -0.00747757 0.08209230
v 0.05420347 -0.00728761 0.08395935
v 0.04965888 -0.00132314 0.09381238
v 0.02489819 -0.01386943 0.06103694
v 0.04229078 -0.02049873 0.05209390
v 0.04378023 -0.02088813 0.05805593
v 0.04652751 -0.02099261 0.05805593
v 0.04652751 -0.02090713 0.06103694
v 0.04652751 -0.02075517 0.06309227
v 0.05248825 -0.02024230 0.06401795
v 0.05485144 -0.02004285 0.06401795
v 0.04815184 -0.02070768 0.06260589
v 0.04929238 -0.02048923 0.06376692
v 0.04578865 0.05249008 0.09409480
v 0.04945364 0.00165909 0.09381238
v 0.05485144 0.07534123 0.06699896
v 0.03861406 0.07471439 0.06303736
v 0.03658805 0.07443895 0.06103694
v 0.02489819 0.07075389 0.05507492
v 0.05248825 0.07521775 0.06699896
v 0.04950935 0.07501831 0.06699896
v 0.04659788 0.07480936 0.06709310
v 0.04187444 0.07466690 0.06561044
v 0.04075441 0.07477137 0.06402580
v 0.02489819 -0.01386943 0.04238208
v 0.04400013 -0.02085015 0.04911289
v 0.04378023 -0.02088813 0.05209390
v 0.02489819 -0.01385044 0.04017770
v 0.04652751 -0.02099261 0.05209390
v 0.04940966 -0.02079315 0.05805593
v 0.05248825 -0.02049873 0.06103694
v 0.05485144 -0.02031828 0.06103694
v 0.04950935 0.07537921 0.06401795
v 0.05485144 0.07556916 0.06463769
v 0.04354860 0.07497082 0.06401795
v 0.04950935 0.07563565 0.06103694
v 0.04056970 0.07501831 0.06103694
v 0.03807750 0.07479036 0.06103694
v 0.03628312 0.07460041 0.05805593
v 0.03628312 0.07462890 0.05507492
v 0.03628312 0.07459092 0.05209390
v 0.03659978 0.07442946 0.04911289
v 0.03761718 0.07420152 0.04613972
v 0.03759079 0.07348920 0.04315871
v 0.03597820 0.07195059 0.04152700
v 0.02489819 0.06172171 0.03161906
v 0.04448977 -0.02076466 0.04696342
v 0.04652751 -0.02090713 0.04911289
v 0.02489819 -0.01163750 0.03161906
v 0.02542302 -0.01181795 0.03161906
v 0.02567224 -0.01190343 0.03161906
v 0.04940966 -0.02079315 0.05209390
v 0.05485144 -0.02041325 0.05805593
v 0.05485144 0.07585409 0.06165668
v 0.05485144 0.07590158 0.06103694
v 0.05248825 0.07592057 0.05805593
v 0.04652751 0.07551218 0.05805593
v 0.04056970 0.07509429 0.05805593
v 0.03777258 0.07482836 0.05805593
v 0.03777258 0.07482836 0.05209390
v 0.03808923 0.07478087 0.04911289
v 0.03862872 0.07471439 0.04713601
v 0.03991880 0.07458142 0.04515128
v 0.04077494 0.07427749 0.04340190
v 0.04573880 0.07454343 0.04202907
v 0.03759079 0.07238748 0.04128381
v 0.04630468 0.06800910 0.03161906
v 0.04652751 -0.02006184 0.04315871
v 0.04652751 -0.02056521 0.04559844
v 0.04652751 -0.02075517 0.04708894
v 0.04812252 -0.02069818 0.04756747
v 0.05248825 -0.02048923 0.04911289
v 0.05485144 -0.02041325 0.05209390
v 0.05263485 -0.01341354 0.03161906
v 0.05485144 0.07603455 0.05805593
v 0.05248825 0.07592057 0.05209390
v 0.04652751 0.07551218 0.05209390
v 0.04056970 0.07509429 0.05209390
v 0.04056970 0.07500881 0.04911289
v 0.04652751 0.07542670 0.04911289
v 0.04652751 0.07517027 0.04613972
v 0.04077494 0.07477137 0.04613972
v 0.04190376 0.07466690 0.04456293
v 0.04772670 0.07467639 0.04164467
v 0.04950935 0.06870242 0.03161906
v 0.05485144 -0.01844725 0.04111907
v 0.05248825 -0.01968194 0.04315871
v 0.05485144 -0.01952998 0.04315871
v 0.05248825 -0.02023280 0.04613972
v 0.05485144 -0.02026130 0.04850100
v 0.05485144 -0.02030878 0.04911289
v 0.05485144 -0.02039426 0.05147417
v 0.05485144 -0.01322359 0.03161906
v 0.05485144 0.07602505 0.05209390
v 0.05485144 0.07593008 0.04973263
v 0.05485144 0.07590158 0.04911289
v 0.04950935 0.07562615 0.04911289
v 0.04950935 0.07536972 0.04613972
v 0.04665065 0.07480936 0.04308026
v 0.04354860 0.07472388 0.04410793
v 0.05248825 0.07520826 0.04315871
v 0.05485144 0.07533172 0.04315871
v 0.05248825 0.07483785 0.04145640
v 0.04950935 0.07473338 0.04156622
v 0.05485144 0.07491383 0.04137795
v 0.05007229 0.06846498 0.03161906
v 0.05485144 -0.02004285 0.04613972
v 0.05485144 0.06281393 0.03161906
v 0.05273161 0.06691688 0.03161906
v 0.05249412 0.06723031 0.03161906
f 1 2 3
f 1 3 4
f 1 4 5
f 1 5 6
f 1 6 7
f 1 7 8
f 1 8 9
f 1 9 10
f 1 10 11
f 1 11 2
f 2 12 3
f 2 11 12
f 3 13 14
f 3 14 15
f 3 15 5
f 3 5 4
f 3 12 16
f 3 16 17
f 3 17 18
f 3 18 19
f 3 19 20
f 3 20 13
f 5 15 6
f 6 15 21
f 6 21 42
f 6 42 72
f 6 72 109
f 6 109 138
f 6 138 165
f 6 165 168
f 6 168 147
f 6 147 144
f 6 144 123
f 6 123 82
f 6 82 50
f 6 50 45
f 6 45 23
f 6 23 22
f 6 22 7
f 7 22 8
f 8 22 23
f 8 23 24
f 8 24 9
f 9 24 25
f 9 25 10
f 10 26 11
f 10 25 27
f 10 27 28
f 10 28 26
f 11 26 29
f 11 29 30
f 11 30 31
f 11 31 12
f 12 31 32
f 12 32 16
f 13 33 14
f 13 20 34
f 13 34 35
f 13 35 36
f 13 36 37
f 13 37 38
f 13 38 39
f 13 39 33
f 14 33 40
f 14 40 41
f 14 41 15
f 15 42 21
f 15 41 43
f 15 43 42
f 16 32 17
f 17 32 18
f 18 32 44
f 18 44 19
f 19 44 34
f 19 34 20
f 23 45 46
f 23 46 25
f 23 25 24
f 25 46 47
f 25 47 27
f 26 48 29
f 26 28 49
f 26 49 48
f 27 47 50
f 27 50 51
f 27 51 52
f 27 52 53
f 27 53 54
f 27 54 28
f 28 54 55
f 28 55 49
f 29 48 56
f 29 56 44
f 29 44 32
f 29 32 31
f 29 31 30
f 33 39 57
f 33 57 58
f 33 58 59
f 33 59 60
f 33 60 40
f 34 44 56
f 34 56 61
f 34 61 35
f 35 61 62
f 35 62 36
f 36 62 63
f 36 63 37
f 37 63 64
f 37 64 38
f 38 64 39
f 39 65 66
f 39 66 57
f 39 64 67
f 39 67 68
f 39 68 69
f 39 69 65
f 40 60 70
f 40 70 41
f 41 70 71
f 41 71 43
f 42 43 73
f 42 73 72
f 43 71 73
f 45 50 46
f 46 50 47
f 48 74 75
f 48 75 76
f 48 76 56
f 48 49 74
f 49 55 77
f 49 77 78
f 49 78 79
f 49 79 80
f 49 80 81
f 49 81 74
f 50 82 83
f 50 83 84
f 50 84 85
f 50 85 86
f 50 86 51
f 51 86 52
f 52 86 87
f 52 87 54
f 52 54 53
f 54 88 130
f 54 130 151
f 54 151 172
f 54 172 192
f 54 192 211
f 54 211 210
f 54 210 209
f 54 209 226
f 54 226 207
f 54 207 205
f 54 205 212
f 54 212 227
f 54 227 224
f 54 224 221
f 54 221 215
f 54 215 214
f 54 214 213
f 54 213 194
f 54 194 174
f 54 174 173
f 54 173 153
f 54 153 135
f 54 135 107
f 54 107 71
f 54 71 92
f 54 92 58
f 54 58 101
f 54 101 120
f 54 120 77
f 54 77 55
f 54 87 89
f 54 89 88
f 56 76 61
f 57 90 91
f 57 91 58
f 57 66 90
f 58 92 93
f 58 93 94
f 58 94 95
f 58 95 59
f 58 91 96
f 58 96 97
f 58 97 98
f 58 98 81
f 58 81 99
f 58 99 100
f 58 100 101
f 59 95 102
f 59 102 93
f 59 93 60
f 60 93 103
f 60 103 70
f 61 76 62
f 62 76 63
f 63 76 64
f 64 76 67
f 65 104 66
f 65 69 105
f 65 105 106
f 65 106 104
f 66 104 90
f 67 76 68
f 68 76 69
f 69 76 105
f 70 103 71
f 71 107 108
f 71 108 73
f 71 103 93
f 71 93 92
f 72 73 109
f 73 108 110
f 73 110 111
f 73 111 112
f 73 112 113
f 73 113 109
f 74 81 75
f 75 81 114
f 75 114 115
f 75 115 76
f 76 115 116
f 76 116 105
f 77 117 118
f 77 118 119
f 77 119 78
f 77 120 117
f 78 119 79
f 79 121 99
f 79 99 81
f 79 81 80
f 79 119 118
f 79 118 117
f 79 117 121
f 81 122 114
f 81 98 122
f 82 123 83
f 83 124 146
f 83 146 125
f 83 125 84
f 83 123 144
f 83 144 124
f 84 125 126
f 84 126 127
f 84 127 85
f 85 127 128
f 85 128 89
f 85 89 86
f 86 89 87
f 88 89 129
f 88 129 130
f 89 128 131
f 89 131 132
f 89 132 129
f 90 133 91
f 90 104 133
f 91 133 96
f 93 102 95
f 93 95 94
f 96 133 97
f 97 134 98
f 97 133 134
f 98 134 122
f 99 121 101
f 99 101 100
f 101 121 117
f 101 117 120
f 104 106 122
f 104 122 134
f 104 134 133
f 105 116 115
f 105 115 106
f 106 115 122
f 107 135 110
f 107 110 108
f 109 113 136
f 109 136 137
f 109 137 138
f 110 135 139
f 110 139 140
f 110 140 141
f 110 141 142
f 110 142 113
f 110 113 111
f 111 113 112
f 113 142 143
f 113 143 136
f 114 122 115
f 124 145 146
f 124 144 147
f 124 147 145
f 125 146 148
f 125 148 126
f 126 148 171
f 126 171 149
f 126 149 150
f 126 150 127
f 127 131 128
f 127 150 131
f 129 132 131
f 129 131 151
f 129 151 130
f 131 150 151
f 135 152 139
f 135 153 152
f 136 143 154
f 136 154 155
f 136 155 156
f 136 156 157
f 136 157 137
f 137 157 158
f 137 158 138
f 138 158 159
f 138 159 160
f 138 160 161
f 138 161 162
f 138 162 163
f 138 163 164
f 138 164 165
f 139 152 140
f 140 152 141
f 141 152 142
f 142 152 154
f 142 154 143
f 145 166 167
f 145 167 148
f 145 148 146
f 145 147 166
f 147 168 169
f 147 169 170
f 147 170 166
f 148 167 171
f 149 171 192
f 149 192 172
f 149 172 150
f 150 172 151
f 152 153 173
f 152 173 155
f 152 155 154
f 155 173 174
f 155 174 175
f 155 175 176
f 155 176 156
f 156 176 177
f 156 177 157
f 157 177 178
f 157 178 158
f 158 178 159
f 159 178 179
f 159 179 160
f 160 179 180
f 160 180 161
f 161 180 181
f 161 181 162
f 162 181 163
f 163 181 182
f 163 182 183
f 163 183 184
f 163 184 185
f 163 185 164
f 164 185 165
f 165 185 186
f 165 186 204
f 165 204 225
f 165 225 229
f 165 229 228
f 165 228 227
f 165 227 212
f 165 212 193
f 165 193 170
f 165 170 169
f 165 169 168
f 166 187 188
f 166 188 189
f 166 189 167
f 166 170 187
f 167 189 190
f 167 190 191
f 167 191 192
f 167 192 171
f 170 193 187
f 174 194 175
f 175 194 195
f 175 195 196
f 175 196 176
f 176 196 197
f 176 197 177
f 177 197 179
f 177 179 178
f 179 197 180
f 180 197 198
f 180 198 181
f 181 198 199
f 181 199 200
f 181 200 201
f 181 201 182
f 182 201 202
f 182 202 203
f 182 203 184
f 182 184 183
f 184 203 204
f 184 204 185
f 185 204 186
f 187 193 205
f 187 205 206
f 187 206 188
f 188 206 207
f 188 207 208
f 188 208 189
f 189 208 190
f 190 208 209
f 190 209 191
f 191 209 210
f 191 210 211
f 191 211 192
f 193 212 205
f 194 213 195
f 195 213 214
f 195 214 215
f 195 215 216
f 195 216 199
f 195 199 196
f 196 199 198
f 196 198 197
f 199 216 217
f 199 217 200
f 200 217 218
f 200 218 219
f 200 219 202
f 200 202 201
f 202 219 218
f 202 218 203
f 203 218 220
f 203 220 221
f 203 221 222
f 203 222 223
f 203 223 204
f 204 224 225
f 204 223 222
f 204 222 224
f 205 207 206
f 207 226 208
f 208 226 209
f 215 221 217
f 215 217 216
f 217 221 220
f 217 220 218
f 221 224 222
f 224 228 229
f 224 229 225
f 224 227 228

