# https://github.com/mikedh/trimesh
v 0.16738867 0.03442580 0.02591694
v 0.16756897 0.03753733 0.02591694
v 0.16773029 0.03367173 0.02591694
v 0.08594040 0.01059720 0.02596884
v 0.16875515 0.03875178 0.02591694
v 0.16927707 0.03238584 0.02591694
v 0.08594040 -0.00132505 0.02602939
v 0.08594040 0.04932463 0.02621970
v 0.17168740 0.03236997 0.02591694
v 0.17238014 0.03237791 0.02591694
v 0.17408824 0.03240172 0.02591694
v 0.18062651 0.03305260 0.02591694
v 0.17115599 0.03941854 0.02591694
v 0.08594040 -0.00396826 0.02619375
v 0.12699193 0.00165948 0.02651381
v 0.08594040 0.06124688 0.02653976
v 0.08825584 0.06124688 0.02651381
v 0.09123554 0.06124688 0.02648786
v 0.09421524 0.06124688 0.02647056
v 0.09719493 0.06124688 0.02646191
v 0.17173485 0.03945029 0.02591694
v 0.18218277 0.03432261 0.02591694
v 0.16998879 0.01807439 0.05093378
v 0.13481126 -0.00301575 0.02934248
v 0.13295132 -0.00132505 0.02775081
v 0.12994315 -0.00122980 0.02716259
v 0.12892777 -0.00017410 0.02671277
v 0.12699193 -0.00044398 0.02666952
v 0.08594040 -0.00423020 0.02628890
v 0.12401222 -0.00210293 0.02698958
v 0.08594040 0.06321539 0.02668682
v 0.08825584 0.06338208 0.02666087
v 0.09123554 0.06353290 0.02663492
v 0.09421524 0.06361227 0.02661762
v 0.12103252 0.06384246 0.02661762
v 0.12103252 0.06124688 0.02646191
v 0.17922205 0.03979954 0.02591694
v 0.18281858 0.03492587 0.02591694
v 0.17024500 0.01801883 0.05292336
v 0.13507697 -0.00311100 0.03123691
v 0.13295132 -0.00350788 0.03123691
v 0.08594040 -0.01155659 0.04613283
v 0.13295132 -0.00316656 0.02893591
v 0.12699193 -0.00193624 0.02706744
v 0.08594040 -0.00457151 0.02651381
v 0.08594040 -0.00714329 0.02839959
v 0.08594040 -0.00619078 0.02764701
v 0.08594040 0.06470766 0.02713664
v 0.08825584 0.06487435 0.02705879
v 0.09123554 0.06502516 0.02698093
v 0.09421524 0.06510454 0.02693768
v 0.09719493 0.06512835 0.02692038
v 0.12401222 0.06535060 0.02680792
v 0.12401222 0.06385834 0.02663492
v 0.18236308 0.03948998 0.02591694
v 0.18075935 0.03979160 0.02591694
v 0.18287550 0.03666420 0.02591694
v 0.17048224 0.03144921 0.06884867
v 0.17037786 0.02942513 0.06869296
v 0.17052969 0.02549603 0.06610651
v 0.17107059 0.02549603 0.06401312
v 0.17030194 0.02387676 0.06562209
v 0.17113701 0.02251944 0.06103740
v 0.17053917 0.02063823 0.06103740
v 0.17089028 0.02001910 0.05805302
v 0.17024500 0.01801883 0.05381435
v 0.13515288 -0.00311100 0.03421263
v 0.13295132 -0.00350788 0.07294894
v 0.08594040 -0.01156452 0.06401312
v 0.12997162 -0.00326182 0.02866775
v 0.08594040 0.06589036 0.02829579
v 0.08594040 0.06620786 0.02863315
v 0.08825584 0.06628724 0.02854664
v 0.12699193 0.06911302 0.02872830
v 0.12699193 0.06720799 0.02731829
v 0.16834710 0.05191228 0.04911720
v 0.16837558 0.05209485 0.05209292
v 0.16836608 0.05199166 0.05507730
v 0.16824272 0.05165034 0.05805302
v 0.16950482 0.04932463 0.05805302
v 0.16857485 0.04953895 0.06118445
v 0.16917269 0.04634804 0.06401312
v 0.17025449 0.03929947 0.06858051
v 0.18288500 0.03741033 0.02591694
v 0.12997162 0.06720799 0.02799302
v 0.12997162 0.06906539 0.02899646
v 0.13163228 0.06888283 0.02947224
v 0.14561979 0.01655832 0.10618362
v 0.14656873 0.01357379 0.10463521
v 0.17043479 0.03442580 0.06885732
v 0.14644537 0.01198627 0.10440165
v 0.17019755 0.02102717 0.06252526
v 0.17050122 0.02273375 0.06371901
v 0.13478279 -0.00300781 0.07474822
v 0.13504850 -0.00311100 0.07294894
v 0.13515288 -0.00311100 0.06997322
v 0.08594040 -0.01131052 0.06479165
v 0.13295132 -0.00315863 0.07503368
v 0.08594040 0.06669205 0.03123691
v 0.11606003 0.06873201 0.02962794
v 0.11805282 0.06880345 0.02941168
v 0.12103252 0.06890664 0.02912622
v 0.12401222 0.06900983 0.02890131
v 0.12699193 0.06952577 0.03123691
v 0.12997162 0.06947814 0.03123691
v 0.13175565 0.06900983 0.03123691
v 0.13179361 0.06905745 0.03421263
v 0.13179361 0.06905745 0.06997322
v 0.13172717 0.06897808 0.07294894
v 0.13158484 0.06883520 0.07461846
v 0.16782518 0.05122172 0.06029347
v 0.14156778 0.05738921 0.10274943
v 0.14305762 0.05644464 0.10274943
v 0.14367444 0.05446025 0.10476496
v 0.16783467 0.04847531 0.06401312
v 0.17033041 0.03741033 0.06871892
v 0.14290579 0.05230916 0.10659884
v 0.14311456 0.04634804 0.10689295
v 0.14321895 0.04337145 0.10703136
v 0.14330435 0.04091874 0.10714381
v 0.14338027 0.03892641 0.10722167
v 0.14412994 0.01655832 0.10799155
v 0.14554387 0.01357379 0.10612307
v 0.14374087 0.01179577 0.10760228
v 0.14478471 0.01137508 0.10552620
v 0.14487012 0.01053370 0.10274943
v 0.13655733 0.00924781 0.10943616
v 0.13456453 0.00908905 0.11023199
v 0.14161522 0.00973200 0.10547429
v 0.13963192 0.00924781 0.10629608
v 0.13873990 0.00968437 0.10854517
v 0.08594040 0.00823180 0.10579436
v 0.13295132 0.00903349 0.11032714
v 0.12997162 0.00893030 0.11049150
v 0.12699193 0.00885887 0.11062991
v 0.08594040 0.06725562 0.04546675
v 0.12699193 0.06952577 0.07294894
v 0.12997162 0.06951783 0.03421263
v 0.08594040 0.06731913 0.04845112
v 0.12997162 0.06951783 0.06997322
v 0.12997162 0.06944639 0.07294894
v 0.12997162 0.06903364 0.07497313
v 0.13482075 0.05692090 0.11043960
v 0.13585510 0.05723046 0.10872683
v 0.13808513 0.05703996 0.10774934
v 0.13900561 0.05741302 0.10586356
v 0.14106483 0.05711140 0.10495527
v 0.14204225 0.05551594 0.10585491
v 0.14104585 0.05459518 0.10787044
v 0.14141594 0.05230916 0.10825106
v 0.13993559 0.05230916 0.10973892
v 0.14003997 0.04932463 0.10984272
v 0.14265906 0.01655832 0.10947941
v 0.14260212 0.01357379 0.10940156
v 0.14405402 0.01357379 0.10791370
v 0.14079913 0.01177196 0.11059531
v 0.14183348 0.01121632 0.10864032
v 0.13570327 0.01007332 0.11140844
v 0.13876838 0.01127983 0.11162470
v 0.13295132 0.01005744 0.11182366
v 0.08594040 0.00858105 0.10639988
v 0.12997162 0.00997013 0.11198801
v 0.12699193 0.00989075 0.11211777
v 0.12457211 0.00893030 0.11051745
v 0.08594040 0.00908112 0.10723897
v 0.12103252 0.06890664 0.07486932
v 0.12401222 0.06900983 0.07504233
v 0.12699193 0.06911302 0.07518073
v 0.08594040 0.06731913 0.06103740
v 0.08594040 0.06726356 0.06401312
v 0.11606003 0.06873201 0.07452331
v 0.11805282 0.06880345 0.07467036
v 0.13295132 0.05702408 0.11062126
v 0.13495360 0.05419831 0.11345858
v 0.13587408 0.05533338 0.11163335
v 0.13680406 0.05647639 0.10973892
v 0.13295132 0.05594457 0.11210912
v 0.14006844 0.05657958 0.10694485
v 0.13806615 0.05448406 0.11084617
v 0.13844573 0.05230916 0.11120948
v 0.14116922 0.01655832 0.11095862
v 0.14110279 0.01357379 0.11089807
v 0.13941366 0.01357379 0.11238593
v 0.13768657 0.01190690 0.11332882
v 0.13592153 0.01170846 0.11351048
v 0.13295132 0.01154177 0.11363158
v 0.12997162 0.01146239 0.11367484
v 0.12699193 0.01138301 0.11370944
v 0.12401222 0.01143858 0.11363158
v 0.08594040 0.00938275 0.10735142
v 0.12699193 0.05691296 0.11043095
v 0.12997162 0.05700821 0.11059531
v 0.08594040 0.06669205 0.07294894
v 0.08594040 0.06633486 0.07472227
v 0.08594040 0.06620786 0.07525859
v 0.12482832 0.05683358 0.11029254
v 0.12997162 0.05596045 0.11208317
v 0.13525727 0.05230916 0.11361428
v 0.13674712 0.05230916 0.11269734
v 0.13295132 0.05446025 0.11365753
v 0.13295132 0.05230916 0.11415926
v 0.12997162 0.05447612 0.11370079
v 0.13947059 0.01655832 0.11244649
v 0.13792381 0.01357379 0.11347588
v 0.13592153 0.01357379 0.11396895
v 0.13295132 0.01357379 0.11418521
v 0.12699193 0.01357379 0.11425441
v 0.12997162 0.01357379 0.11422846
v 0.12401222 0.01357379 0.11410735
v 0.12203841 0.01171639 0.11342397
v 0.08594040 0.01053370 0.10774934
v 0.12390784 0.05596839 0.11145169
v 0.12699193 0.05588107 0.11191881
v 0.08594040 0.05163447 0.10594141
v 0.12283553 0.05674627 0.10995518
v 0.12401222 0.05430149 0.11360563
v 0.12699193 0.05438881 0.11365753
v 0.13684201 0.04932463 0.11278385
v 0.13592153 0.01655832 0.11407275
v 0.13798075 0.01655832 0.11351913
v 0.12997162 0.05230916 0.11424576
v 0.12997162 0.04932463 0.11428901
v 0.13295132 0.04932463 0.11419386
v 0.12401222 0.05230916 0.11415926
v 0.12699193 0.05230916 0.11421116
v 0.13295132 0.01655832 0.11428901
v 0.12699193 0.01655832 0.11428036
v 0.12401222 0.01655832 0.11414196
v 0.12997162 0.01655832 0.11428901
v 0.08594040 0.01953491 0.10825971
v 0.08594040 0.01357379 0.10808670
v 0.08594040 0.01126395 0.10784449
v 0.12103252 0.05530957 0.11168525
v 0.12103252 0.05411099 0.11345858
v 0.08594040 0.05085659 0.10724762
v 0.12401222 0.04932463 0.11428036
v 0.12699193 0.04932463 0.11428901
v 0.12103252 0.05230916 0.11389109
v 0.12103252 0.04932463 0.11402950
v 0.08594040 0.04038692 0.10826836
v 0.11934339 0.05391255 0.11328557
v 0.08594040 0.04993583 0.10757633
v 0.08594040 0.04953895 0.10770609
v 0.08594040 0.04701480 0.10802615
v 0.08594040 0.04634804 0.10809535
f 1 2 5
f 1 5 13
f 1 13 21
f 1 21 37
f 1 37 56
f 1 56 55
f 1 55 84
f 1 84 57
f 1 57 38
f 1 38 22
f 1 22 12
f 1 12 11
f 1 11 10
f 1 10 9
f 1 9 6
f 1 6 3
f 1 3 4
f 1 4 2
f 2 4 5
f 3 6 4
f 4 7 14
f 4 14 29
f 4 29 45
f 4 45 47
f 4 47 46
f 4 46 42
f 4 42 69
f 4 69 97
f 4 97 132
f 4 132 161
f 4 161 165
f 4 165 190
f 4 190 211
f 4 211 232
f 4 232 231
f 4 231 230
f 4 230 240
f 4 240 245
f 4 245 244
f 4 244 243
f 4 243 242
f 4 242 235
f 4 235 214
f 4 214 195
f 4 195 194
f 4 194 193
f 4 193 170
f 4 170 169
f 4 169 139
f 4 139 136
f 4 136 99
f 4 99 72
f 4 72 71
f 4 71 48
f 4 48 31
f 4 31 16
f 4 16 8
f 4 8 5
f 4 6 9
f 4 9 10
f 4 10 11
f 4 11 12
f 4 12 7
f 5 8 13
f 7 12 15
f 7 15 14
f 8 16 17
f 8 17 18
f 8 18 19
f 8 19 20
f 8 20 21
f 8 21 13
f 12 22 23
f 12 23 24
f 12 24 25
f 12 25 26
f 12 26 27
f 12 27 28
f 12 28 15
f 14 15 28
f 14 28 30
f 14 30 29
f 16 31 32
f 16 32 33
f 16 33 17
f 17 33 18
f 18 33 34
f 18 34 19
f 19 34 20
f 20 35 36
f 20 36 37
f 20 37 21
f 20 34 35
f 22 38 23
f 23 38 39
f 23 39 40
f 23 40 24
f 24 40 41
f 24 41 42
f 24 42 43
f 24 43 25
f 25 43 44
f 25 44 26
f 26 44 27
f 27 44 28
f 28 44 30
f 29 30 45
f 30 44 46
f 30 46 47
f 30 47 45
f 31 48 49
f 31 49 50
f 31 50 32
f 32 50 51
f 32 51 33
f 33 51 34
f 34 51 52
f 34 52 53
f 34 53 35
f 35 53 54
f 35 54 36
f 36 54 55
f 36 55 56
f 36 56 37
f 38 57 58
f 38 58 59
f 38 59 60
f 38 60 61
f 38 61 62
f 38 62 63
f 38 63 64
f 38 64 65
f 38 65 66
f 38 66 39
f 39 66 96
f 39 96 67
f 39 67 40
f 40 67 41
f 41 67 96
f 41 96 68
f 41 68 69
f 41 69 42
f 42 46 43
f 43 70 44
f 43 46 70
f 44 70 46
f 48 71 49
f 49 71 50
f 50 71 72
f 50 72 73
f 50 73 74
f 50 74 75
f 50 75 51
f 51 75 52
f 52 75 53
f 53 75 55
f 53 55 54
f 55 76 77
f 55 77 78
f 55 78 79
f 55 79 80
f 55 80 81
f 55 81 82
f 55 82 83
f 55 83 84
f 55 75 85
f 55 85 86
f 55 86 87
f 55 87 76
f 57 84 58
f 58 88 89
f 58 89 59
f 58 84 90
f 58 90 88
f 59 62 60
f 59 89 91
f 59 91 62
f 60 62 61
f 62 92 93
f 62 93 63
f 62 91 92
f 63 93 64
f 64 66 65
f 64 93 92
f 64 92 91
f 64 91 66
f 66 91 94
f 66 94 95
f 66 95 96
f 68 96 95
f 68 95 94
f 68 94 69
f 69 94 98
f 69 98 97
f 72 99 100
f 72 100 101
f 72 101 102
f 72 102 103
f 72 103 74
f 72 74 73
f 74 103 104
f 74 104 105
f 74 105 86
f 74 86 75
f 75 86 85
f 76 87 106
f 76 106 77
f 77 106 107
f 77 107 108
f 77 108 78
f 78 108 109
f 78 109 110
f 78 110 79
f 79 111 81
f 79 81 80
f 79 110 112
f 79 112 113
f 79 113 111
f 81 111 114
f 81 114 115
f 81 115 82
f 82 115 114
f 82 114 83
f 83 116 84
f 83 114 117
f 83 117 116
f 84 116 90
f 86 105 87
f 87 105 106
f 88 118 119
f 88 119 120
f 88 120 121
f 88 121 122
f 88 122 123
f 88 123 89
f 88 90 116
f 88 116 118
f 89 123 91
f 91 123 124
f 91 124 125
f 91 125 126
f 91 126 94
f 94 127 128
f 94 128 98
f 94 126 129
f 94 129 130
f 94 130 131
f 94 131 127
f 97 98 128
f 97 128 133
f 97 133 134
f 97 134 135
f 97 135 132
f 99 136 100
f 100 136 104
f 100 104 101
f 101 104 102
f 102 104 103
f 104 137 140
f 104 140 138
f 104 138 105
f 104 136 139
f 104 139 169
f 104 169 137
f 105 138 107
f 105 107 106
f 107 138 140
f 107 140 108
f 108 140 141
f 108 141 109
f 109 141 110
f 110 141 142
f 110 142 143
f 110 143 144
f 110 144 145
f 110 145 146
f 110 146 147
f 110 147 112
f 111 113 114
f 112 147 113
f 113 147 148
f 113 148 114
f 114 148 149
f 114 149 117
f 116 117 118
f 117 149 150
f 117 150 118
f 118 150 119
f 119 150 120
f 120 150 121
f 121 150 151
f 121 151 152
f 121 152 153
f 121 153 122
f 122 153 154
f 122 154 155
f 122 155 123
f 123 155 124
f 124 154 156
f 124 156 157
f 124 157 125
f 124 155 154
f 125 157 129
f 125 129 126
f 127 158 128
f 127 131 159
f 127 159 158
f 128 158 160
f 128 160 133
f 129 157 131
f 129 131 130
f 131 157 159
f 132 135 161
f 133 160 134
f 134 160 162
f 134 162 163
f 134 163 135
f 135 163 164
f 135 164 165
f 135 165 161
f 137 166 167
f 137 167 168
f 137 168 141
f 137 141 140
f 137 169 170
f 137 170 171
f 137 171 172
f 137 172 166
f 141 168 142
f 142 173 143
f 142 168 173
f 143 174 175
f 143 175 176
f 143 176 145
f 143 145 144
f 143 173 177
f 143 177 174
f 145 178 147
f 145 147 146
f 145 176 178
f 147 178 148
f 148 178 149
f 149 178 179
f 149 179 180
f 149 180 151
f 149 151 150
f 151 180 152
f 152 180 181
f 152 181 153
f 153 181 182
f 153 182 154
f 154 182 156
f 156 159 157
f 156 182 183
f 156 183 184
f 156 184 159
f 158 159 184
f 158 184 185
f 158 185 160
f 160 186 162
f 160 185 186
f 162 186 163
f 163 186 187
f 163 187 188
f 163 188 189
f 163 189 165
f 163 165 164
f 165 189 190
f 166 191 167
f 166 172 191
f 167 191 192
f 167 192 168
f 168 192 173
f 170 193 171
f 171 193 194
f 171 194 195
f 171 195 196
f 171 196 172
f 172 196 191
f 173 192 197
f 173 197 177
f 174 198 199
f 174 199 179
f 174 179 175
f 174 177 200
f 174 200 201
f 174 201 198
f 175 179 176
f 176 179 178
f 177 197 202
f 177 202 200
f 179 199 180
f 180 199 203
f 180 203 181
f 181 203 183
f 181 183 182
f 183 203 204
f 183 204 184
f 184 205 185
f 184 204 205
f 185 205 206
f 185 206 186
f 186 206 187
f 187 206 188
f 188 207 189
f 188 206 208
f 188 208 207
f 189 207 209
f 189 209 210
f 189 210 211
f 189 211 190
f 191 196 212
f 191 212 213
f 191 213 192
f 192 213 197
f 195 214 215
f 195 215 196
f 196 215 212
f 197 213 216
f 197 216 217
f 197 217 202
f 198 218 199
f 198 201 219
f 198 219 220
f 198 220 218
f 199 218 203
f 200 202 221
f 200 221 201
f 201 221 222
f 201 222 223
f 201 223 219
f 202 217 224
f 202 224 225
f 202 225 221
f 203 220 204
f 203 218 220
f 204 220 219
f 204 219 205
f 205 219 226
f 205 226 206
f 206 226 208
f 207 227 228
f 207 228 209
f 207 208 226
f 207 226 229
f 207 229 227
f 209 228 230
f 209 230 231
f 209 231 232
f 209 232 211
f 209 211 210
f 212 215 233
f 212 233 234
f 212 234 216
f 212 216 213
f 214 235 215
f 215 235 233
f 216 234 224
f 216 224 217
f 219 223 226
f 221 225 236
f 221 236 237
f 221 237 222
f 222 226 223
f 222 237 229
f 222 229 226
f 224 234 238
f 224 238 239
f 224 239 236
f 224 236 225
f 227 236 228
f 227 229 237
f 227 237 236
f 228 236 239
f 228 239 230
f 230 239 240
f 233 235 241
f 233 241 234
f 234 241 238
f 235 242 241
f 238 241 243
f 238 243 244
f 238 244 245
f 238 245 239
f 239 245 240
f 241 242 243

