# https://github.com/mikedh/trimesh
v 0.02489819 -0.02731235 0.02627836
v 0.02489819 -0.02731235 0.02746254
v -0.01756128 -0.01688529 0.02972446
v -0.01756128 -0.01687800 0.02826087
v -0.01756128 -0.01685614 0.02674405
v 0.02489819 -0.02150496 -0.00452366
v 0.02489819 -0.01084473 0.10870538
v 0.01256267 -0.01177741 0.11023551
v -0.01756128 -0.01377392 0.10870538
v -0.01756128 -0.01684885 0.05057404
v -0.01756128 -0.01688529 0.04759363
v -0.01756128 -0.01647724 0.02518732
v -0.00929880 -0.00320842 -0.00665253
v -0.00621492 -0.00314284 -0.00947327
v -0.00653079 -0.00046139 -0.01246699
v 0.02489819 -0.02086374 -0.00517563
v -0.01756128 -0.01598175 0.02344431
v -0.01756128 -0.01563200 0.02271251
v 0.02489819 -0.01005778 0.11038186
v 0.02489819 -0.00975903 0.11096730
v 0.00778722 -0.01193771 0.11046170
v 0.00480725 -0.01203972 0.11058145
v 0.00183143 -0.01214174 0.11068789
v -0.00114855 -0.01224375 0.11078103
v -0.00412853 -0.01234576 0.11086086
v -0.00710850 -0.01244777 0.11091408
v -0.01008847 -0.01253521 0.11095400
v -0.01756128 -0.01327844 0.10982304
v -0.01042928 -0.00162724 -0.00781010
v -0.00820158 -0.00261821 -0.00863503
v -0.00736619 -0.00153980 -0.01069737
v -0.00957311 -0.00063626 -0.00992566
v -0.01155976 0.00043486 -0.00896767
v -0.00852991 0.00165172 -0.01192147
v -0.00703785 0.00165172 -0.01273310
v 0.01215121 0.01489139 -0.02396287
v -0.00412853 -0.00083300 -0.01291938
v 0.02489819 -0.01902025 -0.00666583
v -0.01756128 -0.01402167 0.02190088
v -0.01449818 0.00165172 -0.00252785
v -0.01393709 0.00165172 -0.00452366
v -0.01216241 -0.00062898 -0.00697186
v 0.02489819 -0.00794468 0.11153944
v -0.00114855 -0.01026181 0.11155274
v -0.01306845 -0.01260079 0.11096730
v -0.01604843 -0.01267365 0.11096730
v -0.00710850 -0.01026181 0.11168579
v -0.01008847 -0.01026181 0.11172571
v -0.01756128 -0.01271009 0.11096730
v -0.01234944 0.00152056 -0.00778349
v -0.01526707 0.04354213 -0.00775688
v -0.01449818 0.04266775 -0.00891445
v -0.01457299 0.04464969 -0.00900759
v -0.01163042 0.00241680 -0.00904750
v -0.01037525 0.00152056 -0.01017846
v -0.01145170 0.04336726 -0.01188156
v -0.00996379 0.04336726 -0.01271979
v 0.01208471 0.01654544 -0.02400278
v 0.00480725 -0.00006791 -0.01512808
v 0.00281644 0.00007053 -0.01500833
v 0.01374718 0.01654544 -0.02412253
v 0.01374718 0.01481124 -0.02400278
v 0.01672715 0.01482581 -0.02401609
v 0.02268710 0.01486953 -0.02401609
v 0.02489819 0.01489139 -0.02400278
v -0.01756128 0.04336726 -0.00089129
v -0.01741996 0.04336726 -0.00206216
v -0.01680485 0.04336726 -0.00452366
v 0.02489819 -0.00728160 0.11173902
v -0.01604843 -0.01026181 0.11173902
v -0.01756128 -0.01152967 0.11133985
v -0.01539591 0.04634746 -0.00750407
v -0.01457714 0.04634746 -0.00900759
v -0.01306845 0.04634746 -0.01045788
v -0.01151820 0.04634746 -0.01192147
v -0.01333029 0.04354213 -0.01012524
v -0.01002613 0.04634746 -0.01273310
v 0.01195171 0.03442665 -0.02398948
v 0.01374718 0.03144645 -0.02412253
v 0.01672715 0.03144645 -0.02417575
v 0.01970713 0.01952564 -0.02418906
v 0.01672715 0.01654544 -0.02413584
v 0.02268710 0.01654544 -0.02413584
v 0.02489819 0.01654544 -0.02412253
v -0.01756128 0.04541478 -0.00121062
v -0.01743243 0.04634746 -0.00230166
v -0.01756128 0.04634746 -0.00131706
v -0.01676329 0.04634746 -0.00452366
v 0.02489819 0.04712712 0.11173902
v -0.01756128 -0.01026181 0.11173902
v -0.01457299 0.04712712 -0.00900759
v -0.01384150 0.04712712 -0.00971277
v -0.00983910 0.04712712 -0.01262666
v -0.01213747 0.04712712 -0.01104332
v 0.01208055 0.03598597 -0.02394956
v 0.01374718 0.03442665 -0.02410923
v 0.01970713 0.03144645 -0.02418906
v 0.02489819 0.01952564 -0.02418906
v -0.01750725 0.04712712 -0.00135697
v -0.01756128 0.04712712 -0.00093120
v -0.01637261 0.04712712 -0.00452366
v -0.01518810 0.04712712 -0.00750407
v -0.01756128 0.04712712 0.11173902
v 0.02489819 0.04712712 -0.01671142
v -0.00808104 0.04712712 -0.01331854
v -0.00039628 0.04712712 -0.01503494
v 0.01577955 0.04712712 -0.01705736
v 0.02489819 0.04599770 -0.01846773
v 0.01374718 0.03604427 -0.02398948
v -0.00710850 0.04712712 -0.01354473
v 0.01970713 0.03610984 -0.02401609
v 0.01970713 0.03442665 -0.02413584
v 0.01672715 0.03608070 -0.02400278
v 0.02489819 0.03221882 -0.02417575
v 0.02489819 0.03144645 -0.02418906
v 0.01671053 0.04712712 -0.01705736
v 0.02489819 0.03615356 -0.02401609
v 0.02489819 0.03442665 -0.02413584
f 1 2 11
f 1 11 3
f 1 3 4
f 1 4 5
f 1 5 6
f 1 6 16
f 1 16 38
f 1 38 65
f 1 65 84
f 1 84 98
f 1 98 115
f 1 115 114
f 1 114 118
f 1 118 117
f 1 117 108
f 1 108 104
f 1 104 89
f 1 89 69
f 1 69 43
f 1 43 20
f 1 20 19
f 1 19 7
f 1 7 2
f 2 7 8
f 2 8 9
f 2 9 10
f 2 10 11
f 3 11 10
f 3 10 9
f 3 9 28
f 3 28 49
f 3 49 71
f 3 71 90
f 3 90 103
f 3 103 100
f 3 100 87
f 3 87 85
f 3 85 66
f 3 66 39
f 3 39 18
f 3 18 17
f 3 17 12
f 3 12 5
f 3 5 4
f 5 12 6
f 6 13 14
f 6 14 15
f 6 15 16
f 6 12 17
f 6 17 18
f 6 18 13
f 7 19 8
f 8 19 20
f 8 20 21
f 8 21 9
f 9 21 22
f 9 22 23
f 9 23 24
f 9 24 25
f 9 25 26
f 9 26 27
f 9 27 28
f 13 29 30
f 13 30 14
f 13 18 29
f 14 31 15
f 14 30 31
f 15 31 32
f 15 32 33
f 15 33 34
f 15 34 35
f 15 35 36
f 15 36 37
f 15 37 16
f 16 37 38
f 18 39 40
f 18 40 41
f 18 41 42
f 18 42 29
f 20 43 44
f 20 44 26
f 20 26 25
f 20 25 24
f 20 24 23
f 20 23 22
f 20 22 21
f 26 44 27
f 27 45 46
f 27 46 28
f 27 44 47
f 27 47 48
f 27 48 45
f 28 46 49
f 29 33 32
f 29 32 30
f 29 42 33
f 30 32 31
f 33 42 41
f 33 41 50
f 33 50 51
f 33 51 52
f 33 52 53
f 33 53 54
f 33 54 55
f 33 55 34
f 34 55 56
f 34 56 57
f 34 57 58
f 34 58 36
f 34 36 35
f 36 59 60
f 36 60 37
f 36 58 61
f 36 61 62
f 36 62 38
f 36 38 59
f 37 60 38
f 38 60 59
f 38 62 63
f 38 63 64
f 38 64 65
f 39 66 67
f 39 67 40
f 40 67 68
f 40 68 41
f 41 68 51
f 41 51 50
f 43 69 44
f 44 69 47
f 45 48 46
f 46 48 49
f 47 69 48
f 48 69 70
f 48 70 49
f 49 70 71
f 51 72 73
f 51 73 53
f 51 53 52
f 51 68 72
f 53 74 75
f 53 75 56
f 53 56 76
f 53 76 54
f 53 73 74
f 54 76 55
f 55 76 56
f 56 75 57
f 57 75 77
f 57 77 58
f 58 78 79
f 58 79 61
f 58 77 78
f 61 79 80
f 61 80 81
f 61 81 82
f 61 82 62
f 62 82 63
f 63 82 83
f 63 83 64
f 64 83 84
f 64 84 65
f 66 85 67
f 67 86 68
f 67 85 87
f 67 87 86
f 68 88 72
f 68 86 88
f 69 89 103
f 69 103 90
f 69 90 70
f 70 90 71
f 72 91 73
f 72 88 91
f 73 91 92
f 73 92 74
f 74 92 75
f 75 93 77
f 75 92 94
f 75 94 93
f 77 93 95
f 77 95 78
f 78 95 96
f 78 96 79
f 79 96 80
f 80 97 81
f 80 96 112
f 80 112 97
f 81 97 115
f 81 115 98
f 81 98 83
f 81 83 82
f 83 98 84
f 86 87 99
f 86 99 88
f 87 100 99
f 88 101 102
f 88 102 91
f 88 99 101
f 89 104 116
f 89 116 107
f 89 107 106
f 89 106 110
f 89 110 105
f 89 105 93
f 89 93 94
f 89 94 92
f 89 92 91
f 89 91 102
f 89 102 101
f 89 101 99
f 89 99 100
f 89 100 103
f 93 105 95
f 95 106 107
f 95 107 108
f 95 108 109
f 95 109 96
f 95 105 110
f 95 110 106
f 96 111 112
f 96 109 113
f 96 113 111
f 97 112 114
f 97 114 115
f 104 108 116
f 107 116 108
f 108 117 111
f 108 111 113
f 108 113 109
f 111 117 112
f 112 118 114
f 112 117 118

