# https://github.com/mikedh/trimesh
v -0.01756128 0.04712712 0.11173902
v -0.01756128 -0.00062908 0.11173902
v -0.01756128 0.04712712 0.10644324
v -0.06074929 0.04712712 0.11173902
v -0.01756128 -0.00062908 0.10514300
v -0.05776867 -0.00062908 0.11173902
v -0.07744903 -0.00062908 0.06561660
v -0.08057420 0.04712712 0.06561660
v -0.06372991 0.04712712 0.11148168
v -0.06074929 0.01953268 0.11173902
v -0.06074929 0.01655493 0.11173450
v -0.06074929 0.01357250 0.11171193
v -0.06074929 0.01059475 0.11165324
v -0.06074929 0.00761233 0.11158552
v -0.06074929 0.00463458 0.11149973
v -0.06074929 0.00165215 0.11140041
v -0.06074929 -0.00062908 0.11131012
v -0.08277697 -0.00062908 0.06561660
v -0.08787775 0.04712712 0.06561660
v -0.06596709 0.04712712 0.11074578
v -0.06312415 0.01357250 0.11093991
v -0.06302090 0.01059475 0.11088573
v -0.06291076 0.00761233 0.11081801
v -0.06279373 0.00463458 0.11073223
v -0.06266983 0.00165215 0.11063291
v -0.06256658 -0.00062908 0.11054261
v -0.08277697 -0.00062908 0.07961224
v -0.08787775 0.04712712 0.07891697
v -0.06875497 0.04712712 0.10781120
v -0.06415670 0.00165215 0.10885862
v -0.06422553 -0.00062908 0.10854259
v -0.08274255 -0.00062908 0.08189669
v -0.08785710 0.04712712 0.08013144
v -0.08116620 0.04712712 0.09193292
v -0.06525808 -0.00039534 0.10727395
v -0.06501715 -0.00062908 0.10755387
v -0.08250851 -0.00062908 0.08259647
v -0.08314180 0.00549471 0.08346330
v -0.08780891 0.04712712 0.08189669
v -0.08692093 0.04712712 0.08416308
v -0.08044341 -0.00062908 0.08680420
v -0.06784633 -0.00062908 0.10376601
v -0.06546459 -0.00062908 0.10696695
v -0.08173753 -0.00062908 0.08487641
v -0.08740278 0.04712712 0.08304795
f 1 2 5
f 1 5 3
f 1 3 8
f 1 8 19
f 1 19 28
f 1 28 33
f 1 33 39
f 1 39 45
f 1 45 40
f 1 40 34
f 1 34 29
f 1 29 20
f 1 20 9
f 1 9 4
f 1 4 10
f 1 10 6
f 1 6 2
f 2 6 17
f 2 17 26
f 2 26 31
f 2 31 36
f 2 36 43
f 2 43 42
f 2 42 41
f 2 41 44
f 2 44 37
f 2 37 32
f 2 32 27
f 2 27 18
f 2 18 7
f 2 7 5
f 3 5 7
f 3 7 8
f 4 9 10
f 6 10 11
f 6 11 12
f 6 12 13
f 6 13 14
f 6 14 15
f 6 15 16
f 6 16 17
f 7 18 19
f 7 19 8
f 9 20 21
f 9 21 13
f 9 13 12
f 9 12 11
f 9 11 10
f 13 21 14
f 14 21 15
f 15 21 22
f 15 22 16
f 16 22 23
f 16 23 17
f 17 23 24
f 17 24 25
f 17 25 26
f 18 27 28
f 18 28 19
f 20 25 24
f 20 24 23
f 20 23 22
f 20 22 21
f 20 29 25
f 25 29 26
f 26 30 31
f 26 29 30
f 27 32 28
f 28 32 33
f 29 34 35
f 29 35 36
f 29 36 31
f 29 31 30
f 32 37 38
f 32 38 39
f 32 39 33
f 34 40 41
f 34 41 42
f 34 42 43
f 34 43 35
f 35 43 36
f 37 44 38
f 38 40 45
f 38 45 39
f 38 44 40
f 40 44 41

