# https://github.com/mikedh/trimesh
v 0.18063112 0.05986115 0.01334795
v 0.17917605 0.05976756 0.00810393
v 0.17904470 0.05976756 0.00810393
v 0.17899417 0.05976756 0.01036889
v 0.17899417 0.05976756 0.01334795
v 0.17904470 0.05976756 0.01485938
v 0.18063112 0.05981956 0.01503462
v 0.18231860 0.05983515 0.01507843
v 0.18231860 0.05985075 0.01334795
v 0.18218724 0.05980396 0.01164813
v 0.17466938 0.05934118 -0.00452639
v 0.17466938 0.05946597 -0.00154733
v 0.16572676 0.05885760 0.01036889
v 0.16572676 0.05885760 0.01334795
v 0.13680724 0.05682449 0.01497767
v 0.13890900 0.05701169 0.01334795
v 0.10613960 0.05475499 0.01334795
v 0.09421611 0.05393343 0.01334795
v 0.09257916 0.05380863 0.01487253
v 0.18063112 0.05921638 0.01652415
v 0.09719698 0.05396983 0.01536319
v 0.14188987 0.05699609 0.01550338
v 0.14487075 0.05710008 0.01577939
v 0.14784151 0.05662690 0.01751425
v 0.18360190 0.05743287 0.01845177
v 0.18343012 0.05886800 0.01617367
v 0.18565314 0.05739647 0.01633139
v 0.18381408 0.05893560 0.01334795
v 0.18567334 0.05744846 0.01334795
v 0.18253080 0.05723007 0.00441078
v 0.17945899 0.05711568 -0.00400068
v 0.17793318 0.05799444 -0.00480677
v 0.17765025 0.05887320 -0.00154733
v 0.17466938 0.05872241 -0.00750545
v 0.17168851 0.05896680 -0.00750545
v 0.17168851 0.05924758 -0.00452639
v 0.14188987 0.05721448 -0.00452639
v 0.13890900 0.05701169 0.01036889
v 0.09421611 0.05386583 0.01505215
v 0.10613960 0.05475499 0.01036889
v 0.09421611 0.05393343 0.01036889
v 0.09250842 0.05381383 0.01334795
v 0.09102304 0.05370464 0.01334795
v 0.08825436 0.05349145 0.01334795
v 0.08595050 0.05330946 0.01334795
v 0.08595050 0.05286748 0.01566110
v 0.08595050 0.05273228 0.01633139
v 0.18063112 0.05772405 0.01878911
v 0.15029695 0.05671530 0.01769387
v 0.15227746 0.05678290 0.01782092
v 0.10017786 0.05348625 0.01714187
v 0.10017786 0.05406862 0.01565234
v 0.10315873 0.05359544 0.01740034
v 0.10613960 0.05370464 0.01762815
v 0.18378378 0.05533736 0.02003330
v 0.18528937 0.05698569 0.01798739
v 0.18063112 0.05617972 0.02027864
v 0.18291478 0.05437541 0.02119864
v 0.18652213 0.05529057 0.01633139
v 0.18638067 0.05529057 0.01334795
v 0.18530959 0.05704808 0.01126261
v 0.18222766 0.05691289 0.00262773
v 0.17912553 0.05670490 -0.00598525
v 0.17715512 0.05757846 -0.00750545
v 0.17466938 0.05750046 -0.00975727
v 0.17168851 0.05772405 -0.01007708
v 0.17650843 0.05707408 -0.00925784
v 0.15976501 0.05731847 -0.00966527
v 0.14487075 0.05684009 -0.00907822
v 0.14321358 0.05678810 -0.00900812
v 0.14123307 0.05671530 -0.00869707
v 0.14209197 0.05695969 -0.00762374
v 0.13890900 0.05689729 -0.00675193
v 0.13679713 0.05682449 -0.00630068
v 0.09256905 0.05380863 -0.00609040
v 0.09719698 0.05413622 -0.00452639
v 0.09251853 0.05381383 -0.00452639
v 0.09250842 0.05381383 0.01036889
v 0.09102304 0.05370464 -0.00452639
v 0.08825436 0.05349145 -0.00452639
v 0.08595050 0.05330426 0.01268204
v 0.08595050 0.05177553 0.01800930
v 0.17765025 0.05616412 0.02018226
v 0.10805949 0.05376703 0.01776396
v 0.16572676 0.05575334 0.01977483
v 0.11005010 0.05383463 0.01785596
v 0.08825436 0.05010640 0.02008588
v 0.11209125 0.05241510 0.01941997
v 0.08595050 0.05147394 0.01851749
v 0.18490540 0.05326786 0.02065978
v 0.18563293 0.05529057 0.01858758
v 0.17765025 0.05467179 0.02152721
v 0.18063112 0.05469259 0.02147902
v 0.18235902 0.03949369 0.02591256
v 0.18063112 0.05231110 0.02241655
v 0.18694653 0.05231110 0.01633139
v 0.18580471 0.05229030 0.01952511
v 0.18814899 0.03690421 0.01464471
v 0.18660297 0.05231110 0.01334795
v 0.18548136 0.05529057 0.01080699
v 0.18234892 0.05529057 0.00229039
v 0.17924679 0.05471859 -0.00630506
v 0.17630633 0.04863487 -0.01524223
v 0.17607393 0.05062118 -0.01487862
v 0.17633665 0.05400622 -0.01216242
v 0.17466938 0.05601333 -0.01124680
v 0.17168851 0.05636692 -0.01156661
v 0.16870763 0.05626812 -0.01146584
v 0.17466938 0.05452100 -0.01266623
v 0.15976501 0.05596133 -0.01115480
v 0.15380326 0.05712088 -0.00943746
v 0.11507212 0.05292987 -0.01110222
v 0.11209125 0.05419342 -0.00949441
v 0.10613960 0.05399582 -0.00925784
v 0.10108727 0.05383463 -0.00904317
v 0.09909666 0.05376703 -0.00886355
v 0.09719698 0.05369944 -0.00852183
v 0.09719698 0.05396983 -0.00703230
v 0.09421611 0.05386583 -0.00644088
v 0.08825436 0.05323146 -0.00750545
v 0.08595050 0.05303907 -0.00750545
v 0.13593823 0.05323666 0.02023921
v 0.15231788 0.05379823 0.02079997
v 0.15380326 0.05385023 0.02084816
v 0.15976501 0.05405822 0.02104093
v 0.16572676 0.05426101 0.02121616
v 0.16870763 0.05436501 0.02129940
v 0.17168851 0.05446900 0.02137826
v 0.08595050 0.05002321 0.02000702
v 0.08595050 0.04886886 0.02109350
v 0.11008042 0.05085517 0.02083502
v 0.18516811 0.05128155 0.02087883
v 0.16870763 0.05231110 0.02231579
v 0.17466938 0.05231110 0.02247350
v 0.17765025 0.05231110 0.02254360
v 0.12997648 0.05154154 0.02142207
v 0.13295736 0.05164033 0.02149655
v 0.09123524 0.04871807 0.02153159
v 0.13593823 0.05174433 0.02156226
v 0.13890900 0.05184832 0.02161921
v 0.14188987 0.05194712 0.02167179
v 0.15976501 0.05231110 0.02205731
v 0.16274589 0.05231110 0.02214931
v 0.18288446 0.03740859 0.02591256
v 0.18076249 0.03979528 0.02591256
v 0.18618868 0.04933164 0.01931045
v 0.18808836 0.03305639 0.01783406
v 0.18715874 0.04933164 0.01633139
v 0.18814899 0.03690421 0.01538510
v 0.18899778 0.02251647 0.01633139
v 0.18916956 0.01953701 0.01633139
v 0.18886643 0.01953701 0.01334795
v 0.18820961 0.01953701 0.01150356
v 0.18769428 0.03442913 0.01291424
v 0.18559251 0.05231110 0.01051346
v 0.18681518 0.04933164 0.01334795
v 0.17934783 0.05231110 -0.00658983
v 0.17813527 0.04933164 -0.01048451
v 0.17642759 0.04634698 -0.01547005
v 0.17496241 0.04634698 -0.01695957
v 0.17330525 0.04798490 -0.01799786
v 0.17724606 0.04634698 -0.01346794
v 0.17409341 0.05148954 -0.01552262
v 0.17168851 0.05332506 -0.01453252
v 0.17168851 0.05487978 -0.01303861
v 0.16870763 0.05179113 -0.01592567
v 0.16870763 0.05328346 -0.01444052
v 0.16572676 0.05169233 -0.01582490
v 0.15380326 0.05128155 -0.01541748
v 0.14487075 0.05097476 -0.01511081
v 0.11209125 0.04984642 -0.01398490
v 0.11507212 0.05144274 -0.01259613
v 0.08825436 0.05051719 -0.01167613
v 0.11805299 0.05303387 -0.01121175
v 0.17168851 0.05183272 -0.01589062
v 0.08595050 0.05043919 -0.01159289
v 0.08595050 0.05148954 -0.01044070
v 0.08595050 0.05179633 -0.01010336
v 0.09421611 0.05359024 -0.00793040
v 0.11209125 0.05092277 0.02090074
v 0.11805299 0.05113076 0.02108474
v 0.12103386 0.05123475 0.02117235
v 0.08595050 0.04853608 0.02140455
v 0.18340990 0.03740859 0.02526856
v 0.18484476 0.03740859 0.02331465
v 0.12401474 0.04933164 0.02228074
v 0.12997648 0.04933164 0.02243845
v 0.08825436 0.04634698 0.02248226
v 0.13295736 0.04933164 0.02251293
v 0.17922658 0.03980048 0.02591256
v 0.13593823 0.04933164 0.02257865
v 0.13890900 0.04933164 0.02263560
v 0.17115295 0.03941570 0.02591256
v 0.17173902 0.03945209 0.02591256
v 0.08825436 0.04861407 0.02146150
v 0.08595050 0.04685655 0.02217560
v 0.08595050 0.04634698 0.02240341
v 0.09421611 0.04881686 0.02159293
v 0.11805299 0.04933164 0.02210112
v 0.12103386 0.04933164 0.02219312
v 0.18287436 0.03666502 0.02591256
v 0.18486498 0.03442913 0.02345484
v 0.18566324 0.03740859 0.02182512
v 0.18844201 0.02251647 0.01856130
v 0.18801763 0.03503750 0.01736968
v 0.18796710 0.03769977 0.01635767
v 0.18850265 0.01953701 0.01850435
v 0.18837128 0.01758710 0.01817140
v 0.18865422 0.01706713 0.01633139
v 0.18852287 0.01717112 0.01334795
v 0.18819952 0.01772749 0.01152985
v 0.18512770 0.01795108 0.00285115
v 0.18554199 0.01946941 0.00417859
v 0.18629984 0.02549594 0.00738984
v 0.18512770 0.01843466 0.00285115
v 0.18357158 0.04933164 0.00441078
v 0.17745826 0.04336751 -0.01346794
v 0.17663978 0.04038805 -0.01577233
v 0.17652863 0.04336751 -0.01562776
v 0.17528576 0.04038805 -0.01726186
v 0.17514430 0.04336751 -0.01711729
v 0.17827674 0.03145486 -0.01346794
v 0.17847883 0.02847540 -0.01346794
v 0.17347703 0.04634698 -0.01808110
v 0.17168851 0.04634698 -0.01852358
v 0.17168851 0.04836968 -0.01819939
v 0.17168851 0.04986202 -0.01738015
v 0.16870763 0.05013240 -0.01741958
v 0.14255679 0.04789131 -0.01797596
v 0.14056617 0.04781851 -0.01792777
v 0.13593823 0.04917565 -0.01628929
v 0.12699561 0.04886886 -0.01598262
v 0.09421611 0.04774051 -0.01485671
v 0.08595050 0.04745453 -0.01457195
v 0.08595050 0.04861407 -0.01341538
v 0.08595050 0.04403828 0.02273636
v 0.09123524 0.04634698 0.02254798
v 0.09421611 0.04634698 0.02260931
v 0.16874805 0.03875013 0.02591256
v 0.08595050 0.04336751 0.02281960
v 0.18281373 0.03492830 0.02591256
v 0.18743156 0.02251647 0.02005083
v 0.18705769 0.01953701 0.01999388
v 0.18624931 0.01681234 0.01907387
v 0.18538032 0.01491442 0.01798739
v 0.18745176 0.01557999 0.01633139
v 0.18512770 0.01801868 0.02081750
v 0.18772459 0.01568399 0.01334795
v 0.18206598 0.01517441 -0.00281782
v 0.18240954 0.01716072 -0.00384735
v 0.18126772 0.01953701 -0.00750545
v 0.18463257 0.01946941 0.00168582
v 0.17965098 0.02576112 -0.01077803
v 0.18251059 0.01953701 -0.00411020
v 0.17694293 0.03145486 -0.01610091
v 0.17563942 0.03145486 -0.01759044
v 0.17365891 0.04336751 -0.01816434
v 0.17913564 0.02693107 -0.01196527
v 0.17997433 0.02251647 -0.01048451
v 0.17919626 0.02494476 -0.01215365
v 0.17928721 0.02251647 -0.01231137
v 0.17868092 0.02576112 -0.01327518
v 0.17704397 0.02847540 -0.01616662
v 0.17168851 0.04336751 -0.01861558
v 0.16870763 0.04634698 -0.01881710
v 0.16870763 0.04864007 -0.01836586
v 0.16572676 0.04855687 -0.01834834
v 0.16274589 0.04847368 -0.01832206
v 0.15976501 0.04839048 -0.01829139
v 0.15678414 0.04831249 -0.01825634
v 0.15380326 0.04822929 -0.01821253
v 0.15082239 0.04814089 -0.01815996
v 0.14784151 0.04805250 -0.01809425
v 0.10912047 0.04520823 -0.01818625
v 0.09421611 0.04465185 -0.01783139
v 0.09123524 0.04614419 -0.01624110
v 0.08825436 0.04604539 -0.01613596
v 0.08595050 0.04596219 -0.01605710
v 0.16757591 0.03753858 0.02591256
v 0.08595050 0.04105882 0.02283712
v 0.18360190 0.01953701 0.02176379
v 0.18557230 0.01953701 0.02108912
v 0.18217714 0.03432513 0.02591256
v 0.18360190 0.01785229 0.02097959
v 0.18360190 0.01635996 0.01961273
v 0.18360190 0.01478963 0.01812320
v 0.18360190 0.01391607 0.01633139
v 0.18595628 0.01454004 0.01633139
v 0.18622911 0.01428005 0.01334795
v 0.18576428 0.01452444 0.01036889
v 0.18533989 0.01484163 0.00813022
v 0.18501654 0.01518481 0.00614126
v 0.18025725 0.01420206 -0.00452639
v 0.17970150 0.01457644 -0.00699288
v 0.17912553 0.01507562 -0.00897746
v 0.18036840 0.01626116 -0.00779459
v 0.18178306 0.01632356 -0.00471477
v 0.17970150 0.01706193 -0.00986679
v 0.17985306 0.01946421 -0.01070794
v 0.17926699 0.02040537 -0.01224565
v 0.17571015 0.02847540 -0.01766053
v 0.17415405 0.03145486 -0.01836148
v 0.17379027 0.04038805 -0.01822129
v 0.17708439 0.02549594 -0.01615786
v 0.17168851 0.04038805 -0.01867254
v 0.16572676 0.04634698 -0.01879958
v 0.17168851 0.03145486 -0.01881273
v 0.17168851 0.02847540 -0.01883463
v 0.16870763 0.04336751 -0.01883463
v 0.13295736 0.04336751 -0.01883463
v 0.12997648 0.04336751 -0.01883025
v 0.08825436 0.04038805 -0.01883463
v 0.12699561 0.04336751 -0.01882149
v 0.12401474 0.04336751 -0.01880834
v 0.16274589 0.04634698 -0.01877329
v 0.15976501 0.04634698 -0.01874263
v 0.15678414 0.04634698 -0.01870758
v 0.11209125 0.04336751 -0.01868568
v 0.12103386 0.04553581 -0.01833520
v 0.11507212 0.04536942 -0.01827386
v 0.11209125 0.04529143 -0.01823444
v 0.08595050 0.04280074 -0.01837901
v 0.08595050 0.04428787 -0.01754662
v 0.08595050 0.04558781 -0.01639443
v 0.16739403 0.03442913 0.02591256
v 0.08595050 0.01655235 0.02283712
v 0.18063112 0.03306159 0.02591256
v 0.18063112 0.01953701 0.02218874
v 0.18063112 0.01763910 0.02117235
v 0.18063112 0.01615197 0.01971787
v 0.14927637 0.01208575 0.01781215
v 0.15082239 0.01214295 0.01770701
v 0.15380326 0.01224695 0.01749234
v 0.16475671 0.01204935 0.01495576
v 0.18360190 0.01334930 0.01334795
v 0.15678414 0.01235614 0.01724263
v 0.15976501 0.01187776 0.01547710
v 0.16274589 0.01197656 0.01517481
v 0.18360190 0.01362488 0.01036889
v 0.17765025 0.01306851 -0.00452639
v 0.17793318 0.01398887 -0.00779459
v 0.17713491 0.01451404 -0.00964336
v 0.17699345 0.01743111 -0.01254356
v 0.17897397 0.01841906 -0.01185137
v 0.17682167 0.02251647 -0.01568910
v 0.17572026 0.02549594 -0.01764739
v 0.17423488 0.02549594 -0.01837901
v 0.17422477 0.02847540 -0.01838339
v 0.12103386 0.04336751 -0.01878644
v 0.17168851 0.02549594 -0.01883025
v 0.16870763 0.02549594 -0.01883463
v 0.08595050 0.03740859 -0.01883463
v 0.08595050 0.03971728 -0.01883025
v 0.08595050 0.04038805 -0.01882587
v 0.11507212 0.04336751 -0.01872510
v 0.10912047 0.04336751 -0.01863749
v 0.16772748 0.03367516 0.02591256
v 0.08595050 0.01424365 0.02252169
v 0.16927349 0.03239082 0.02591256
v 0.17765025 0.01953701 0.02227636
v 0.17409341 0.03240642 0.02591256
v 0.17466938 0.01953701 0.02235960
v 0.14188987 0.01655235 0.02204855
v 0.16274589 0.01702553 0.02160607
v 0.16572676 0.01712952 0.02154912
v 0.16870763 0.01722832 0.02148778
v 0.17168851 0.01733231 0.02141769
v 0.17466938 0.01743631 0.02134321
v 0.17765025 0.01754030 0.02125998
v 0.13593823 0.01655235 0.02223255
v 0.14188987 0.01481563 0.02103216
v 0.14725544 0.01500282 0.02086131
v 0.14924606 0.01507042 0.02079559
v 0.13295736 0.01450884 0.02129940
v 0.09123524 0.01158138 0.02125121
v 0.09719698 0.01178937 0.02107598
v 0.14487075 0.01342729 0.01945940
v 0.10017786 0.01040103 0.01950759
v 0.10505840 0.00908029 0.01784720
v 0.10704902 0.00914269 0.01774644
v 0.15678414 0.01177377 0.01575310
v 0.10912047 0.00921549 0.01759749
v 0.11209125 0.00932468 0.01736530
v 0.11209125 0.00874231 0.01587577
v 0.17765025 0.01289692 0.01334795
v 0.18063112 0.01310491 0.01334795
v 0.12252936 0.00910629 0.01484186
v 0.17765025 0.01291772 -0.00154733
v 0.11507212 0.00884630 0.01561291
v 0.11805299 0.00895030 0.01531938
v 0.12103386 0.00905429 0.01500395
v 0.17466938 0.01270973 -0.00452639
v 0.17466938 0.01300091 -0.00750545
v 0.17466938 0.01418646 -0.01002012
v 0.17466938 0.01555399 -0.01150965
v 0.17466938 0.01704633 -0.01293347
v 0.17466938 0.01877265 -0.01442738
v 0.17466938 0.02026498 -0.01564090
v 0.17478052 0.02245928 -0.01716110
v 0.17643770 0.02072256 -0.01515462
v 0.17387111 0.02341603 -0.01823006
v 0.17168851 0.02306765 -0.01837901
v 0.14188987 0.02251647 -0.01873387
v 0.13890900 0.02251647 -0.01876891
v 0.13593823 0.02251647 -0.01879082
v 0.12997648 0.02251647 -0.01882587
v 0.12699561 0.02251647 -0.01883463
v 0.08595050 0.02184571 -0.01883463
v 0.08595050 0.01357289 0.02241655
v 0.17168851 0.03237522 0.02591256
v 0.16274589 0.01953701 0.02262684
v 0.16572676 0.01953701 0.02256988
v 0.16870763 0.01953701 0.02250417
v 0.17168851 0.01953701 0.02243407
v 0.11805299 0.01655235 0.02265312
v 0.12103386 0.01655235 0.02260055
v 0.08825436 0.01357289 0.02235522
v 0.13295736 0.01655235 0.02231579
v 0.09719698 0.01357289 0.02209236
v 0.11805299 0.01399927 0.02163236
v 0.12103386 0.01409806 0.02157978
v 0.12401474 0.01420206 0.02151845
v 0.12699561 0.01430605 0.02145274
v 0.08595050 0.01139939 0.02139578
v 0.12997648 0.01440485 0.02137826
v 0.09123524 0.01357289 0.02227198
v 0.09421611 0.01357289 0.02218436
v 0.10315873 0.01199216 0.02088759
v 0.13593823 0.01312051 0.01976606
v 0.08595050 0.01024504 0.02031369
v 0.08595050 0.00991225 0.01999388
v 0.09719698 0.01029704 0.01960835
v 0.08825436 0.00999025 0.01991502
v 0.08595050 0.00878911 0.01884168
v 0.08595050 0.00846152 0.01850435
v 0.08595050 0.00747877 0.01680015
v 0.08595050 0.00721358 0.01633139
v 0.17765025 0.01289692 0.01036889
v 0.10613960 0.00797274 0.01334795
v 0.12253946 0.00910109 -0.00555592
v 0.09123524 0.00694839 0.01334795
v 0.16501943 0.01202856 -0.00452639
v 0.16477692 0.01204935 -0.00624811
v 0.16274589 0.01197656 -0.00666869
v 0.16031066 0.01215855 -0.00864012
v 0.15833015 0.01208055 -0.00899936
v 0.17168851 0.01542920 -0.01161041
v 0.15678414 0.01202856 -0.00906946
v 0.17168851 0.01841386 -0.01458947
v 0.17168851 0.01990619 -0.01607462
v 0.17168851 0.02158052 -0.01756415
v 0.16100789 0.02106054 -0.01791900
v 0.15901727 0.02097734 -0.01797158
v 0.15678414 0.02090975 -0.01802415
v 0.15380326 0.02082135 -0.01808986
v 0.15082239 0.02074336 -0.01814244
v 0.14188987 0.02048337 -0.01828263
v 0.13890900 0.02040017 -0.01831768
v 0.15082239 0.02251647 -0.01859368
v 0.09421611 0.01737911 -0.01833081
v 0.09421611 0.01953701 -0.01878206
v 0.09123524 0.01953701 -0.01880396
v 0.08825436 0.01953701 -0.01881710
v 0.08595050 0.01953701 -0.01882587
v 0.08595050 0.01187256 0.02162359
v 0.12699561 0.01655235 0.02246912
v 0.12401474 0.01655235 0.02253922
v 0.08595050 0.00674040 0.01334795
v 0.08825436 0.00679240 0.01334795
v 0.12253946 0.00910109 -0.00602468
v 0.10613960 0.00797274 0.01036889
v 0.09123524 0.00702119 -0.00452639
v 0.09421611 0.00720318 -0.00452639
v 0.09719698 0.00739037 -0.00452639
v 0.10017786 0.00758276 -0.00452639
v 0.10315873 0.00778035 -0.00452639
v 0.10912047 0.00818593 -0.00452639
v 0.12103386 0.00904909 -0.00635326
v 0.15950229 0.01191416 -0.00759307
v 0.11805299 0.00895030 -0.00696221
v 0.11606238 0.00914269 -0.00882850
v 0.11408186 0.00907509 -0.00903879
v 0.16870763 0.01532521 -0.01171556
v 0.15380326 0.01193496 -0.00919651
v 0.14188987 0.01291252 -0.01114165
v 0.14487075 0.01748830 -0.01550948
v 0.16274589 0.01959421 -0.01637691
v 0.11677981 0.01802908 -0.01794529
v 0.11209125 0.01788869 -0.01805481
v 0.10912047 0.01781069 -0.01811177
v 0.08595050 0.01564239 -0.01753786
v 0.09123524 0.01729591 -0.01835272
v 0.08595050 0.01713472 -0.01837901
v 0.08595050 0.00697959 -0.00750545
v 0.09123524 0.00724478 -0.00750545
v 0.08825436 0.00708358 -0.00750545
v 0.11507212 0.00887750 -0.00770259
v 0.10017786 0.00862271 -0.00959517
v 0.13890900 0.01281372 -0.01125117
v 0.13295736 0.01260573 -0.01145708
v 0.08595050 0.00949627 -0.01158413
v 0.09421611 0.01425405 -0.01576357
v 0.12699561 0.01538240 -0.01463767
v 0.10315873 0.01008905 -0.01097080
v 0.09719698 0.00988626 -0.01119422
v 0.09421611 0.00978226 -0.01129936
v 0.13295736 0.01707752 -0.01591691
v 0.12401474 0.01677074 -0.01622357
v 0.08595050 0.01397327 -0.01604396
v 0.08595050 0.00788435 -0.00952946
v 0.08595050 0.00813914 -0.01009460
v 0.09719698 0.00852392 -0.00970470
v 0.08595050 0.01363528 -0.01571100
f 1 2 3
f 1 3 4
f 1 4 5
f 1 5 6
f 1 6 7
f 1 7 8
f 1 8 9
f 1 9 2
f 2 9 10
f 2 10 11
f 2 11 12
f 2 12 3
f 3 12 4
f 4 12 13
f 4 13 14
f 4 14 5
f 5 14 6
f 6 15 7
f 6 14 16
f 6 16 17
f 6 17 18
f 6 18 19
f 6 19 15
f 7 20 8
f 7 15 21
f 7 21 22
f 7 22 23
f 7 23 24
f 7 24 20
f 8 25 26
f 8 26 27
f 8 27 28
f 8 28 9
f 8 20 25
f 9 28 10
f 10 28 29
f 10 29 30
f 10 30 31
f 10 31 32
f 10 32 33
f 10 33 11
f 11 34 35
f 11 35 36
f 11 36 12
f 11 33 34
f 12 36 37
f 12 37 13
f 13 37 38
f 13 38 16
f 13 16 14
f 15 19 39
f 15 39 21
f 16 38 40
f 16 40 17
f 17 40 41
f 17 41 18
f 18 41 78
f 18 78 42
f 18 42 19
f 19 42 43
f 19 43 44
f 19 44 45
f 19 45 46
f 19 46 47
f 19 47 39
f 20 48 25
f 20 24 49
f 20 49 50
f 20 50 48
f 21 39 47
f 21 47 51
f 21 51 52
f 21 52 23
f 21 23 22
f 23 52 53
f 23 53 24
f 24 53 54
f 24 54 49
f 25 55 56
f 25 56 26
f 25 48 57
f 25 57 58
f 25 58 55
f 26 56 27
f 27 59 29
f 27 29 28
f 27 56 59
f 29 59 60
f 29 60 61
f 29 61 62
f 29 62 30
f 30 62 31
f 31 62 63
f 31 63 32
f 32 63 64
f 32 64 34
f 32 34 33
f 34 65 66
f 34 66 35
f 34 64 67
f 34 67 65
f 35 66 68
f 35 68 69
f 35 69 70
f 35 70 71
f 35 71 72
f 35 72 73
f 35 73 74
f 35 74 36
f 36 74 37
f 37 74 75
f 37 75 76
f 37 76 40
f 37 40 38
f 40 76 41
f 41 77 78
f 41 76 77
f 42 78 79
f 42 79 43
f 43 79 80
f 43 80 44
f 44 80 45
f 45 81 121
f 45 121 178
f 45 178 177
f 45 177 176
f 45 176 235
f 45 235 234
f 45 234 278
f 45 278 324
f 45 324 323
f 45 323 322
f 45 322 354
f 45 354 353
f 45 353 352
f 45 352 408
f 45 408 464
f 45 464 493
f 45 493 491
f 45 491 509
f 45 509 513
f 45 513 501
f 45 501 511
f 45 511 510
f 45 510 494
f 45 494 468
f 45 468 437
f 45 437 436
f 45 436 435
f 45 435 434
f 45 434 431
f 45 431 430
f 45 430 424
f 45 424 465
f 45 465 409
f 45 409 358
f 45 358 326
f 45 326 280
f 45 280 240
f 45 240 236
f 45 236 197
f 45 197 196
f 45 196 183
f 45 183 130
f 45 130 129
f 45 129 89
f 45 89 82
f 45 82 47
f 45 47 46
f 45 80 81
f 47 82 53
f 47 53 51
f 48 83 57
f 48 50 83
f 49 54 84
f 49 84 50
f 50 85 83
f 50 84 86
f 50 86 87
f 50 87 88
f 50 88 85
f 51 53 52
f 53 82 89
f 53 89 54
f 54 89 84
f 55 90 56
f 55 58 90
f 56 90 91
f 56 91 59
f 57 83 92
f 57 92 93
f 57 93 58
f 58 94 90
f 58 93 95
f 58 95 94
f 59 96 60
f 59 91 97
f 59 97 96
f 60 96 98
f 60 98 99
f 60 99 100
f 60 100 61
f 61 100 62
f 62 100 63
f 63 100 101
f 63 101 102
f 63 102 103
f 63 103 104
f 63 104 105
f 63 105 67
f 63 67 64
f 65 106 107
f 65 107 66
f 65 67 106
f 66 107 108
f 66 108 68
f 67 105 109
f 67 109 106
f 68 110 111
f 68 111 69
f 68 108 110
f 69 111 110
f 69 110 112
f 69 112 113
f 69 113 114
f 69 114 70
f 70 114 115
f 70 115 116
f 70 116 71
f 71 73 72
f 71 116 117
f 71 117 118
f 71 118 73
f 73 118 119
f 73 119 74
f 74 119 75
f 75 119 120
f 75 120 121
f 75 121 80
f 75 80 79
f 75 79 77
f 75 77 76
f 77 79 78
f 80 121 81
f 83 85 122
f 83 122 123
f 83 123 124
f 83 124 125
f 83 125 126
f 83 126 127
f 83 127 128
f 83 128 92
f 84 89 86
f 85 88 87
f 85 87 122
f 86 89 129
f 86 129 87
f 87 129 130
f 87 130 131
f 87 131 122
f 90 132 97
f 90 97 91
f 90 94 132
f 92 133 134
f 92 134 135
f 92 135 93
f 92 128 136
f 92 136 137
f 92 137 138
f 92 138 139
f 92 139 140
f 92 140 141
f 92 141 142
f 92 142 143
f 92 143 133
f 93 135 95
f 94 144 132
f 94 95 145
f 94 145 190
f 94 190 194
f 94 194 193
f 94 193 239
f 94 239 279
f 94 279 325
f 94 325 357
f 94 357 359
f 94 359 410
f 94 410 361
f 94 361 327
f 94 327 283
f 94 283 241
f 94 241 201
f 94 201 144
f 95 135 145
f 96 97 146
f 96 146 147
f 96 147 148
f 96 148 149
f 96 149 98
f 97 132 146
f 98 149 150
f 98 150 151
f 98 151 152
f 98 152 153
f 98 153 154
f 98 154 155
f 98 155 156
f 98 156 99
f 99 156 155
f 99 155 100
f 100 155 157
f 100 157 102
f 100 102 101
f 102 157 158
f 102 158 103
f 103 159 160
f 103 160 161
f 103 161 104
f 103 158 162
f 103 162 159
f 104 161 163
f 104 163 105
f 105 163 109
f 106 109 164
f 106 164 165
f 106 165 107
f 107 165 166
f 107 166 167
f 107 167 108
f 108 167 168
f 108 168 169
f 108 169 170
f 108 170 171
f 108 171 172
f 108 172 173
f 108 173 174
f 108 174 110
f 109 163 175
f 109 175 164
f 110 174 112
f 112 174 176
f 112 176 114
f 112 114 113
f 114 176 115
f 115 176 177
f 115 177 178
f 115 178 116
f 116 178 121
f 116 121 120
f 116 120 117
f 117 120 179
f 117 179 119
f 117 119 118
f 119 179 120
f 122 131 123
f 123 131 124
f 124 131 125
f 125 131 180
f 125 180 181
f 125 181 182
f 125 182 126
f 126 182 183
f 126 183 127
f 127 183 128
f 128 183 136
f 130 183 131
f 131 183 180
f 132 144 184
f 132 184 185
f 132 185 146
f 133 143 186
f 133 186 187
f 133 187 134
f 134 187 188
f 134 188 189
f 134 189 135
f 135 190 145
f 135 189 191
f 135 191 192
f 135 192 193
f 135 193 194
f 135 194 190
f 136 183 195
f 136 195 137
f 137 195 138
f 138 195 196
f 138 196 197
f 138 197 198
f 138 198 139
f 139 198 140
f 140 198 141
f 141 143 142
f 141 198 199
f 141 199 200
f 141 200 143
f 143 200 186
f 144 201 202
f 144 202 184
f 146 185 203
f 146 203 204
f 146 204 147
f 147 204 151
f 147 151 150
f 147 150 205
f 147 205 148
f 148 205 206
f 148 206 149
f 149 206 205
f 149 205 150
f 151 204 207
f 151 207 208
f 151 208 209
f 151 209 210
f 151 210 152
f 152 210 211
f 152 211 212
f 152 212 153
f 153 213 214
f 153 214 155
f 153 155 154
f 153 212 215
f 153 215 213
f 155 214 216
f 155 216 158
f 155 158 157
f 158 217 162
f 158 216 217
f 159 218 219
f 159 219 220
f 159 220 221
f 159 221 160
f 159 162 217
f 159 217 222
f 159 222 223
f 159 223 218
f 160 221 224
f 160 224 161
f 161 224 225
f 161 225 226
f 161 226 227
f 161 227 163
f 163 227 175
f 164 175 166
f 164 166 165
f 166 168 167
f 166 175 228
f 166 228 229
f 166 229 230
f 166 230 168
f 168 230 231
f 168 231 232
f 168 232 169
f 169 232 170
f 170 232 233
f 170 233 171
f 171 233 173
f 171 173 172
f 173 233 234
f 173 234 235
f 173 235 176
f 173 176 174
f 175 227 228
f 180 183 181
f 181 183 182
f 183 196 195
f 184 202 185
f 185 202 204
f 185 204 203
f 186 200 188
f 186 188 187
f 188 198 197
f 188 197 236
f 188 236 193
f 188 193 237
f 188 237 191
f 188 191 189
f 188 200 198
f 191 237 238
f 191 238 192
f 192 238 193
f 193 238 237
f 193 236 240
f 193 240 239
f 198 200 199
f 201 241 242
f 201 242 202
f 202 242 204
f 204 242 207
f 207 242 243
f 207 243 208
f 208 244 245
f 208 245 246
f 208 246 209
f 208 243 247
f 208 247 244
f 209 246 248
f 209 248 210
f 210 248 249
f 210 249 211
f 211 250 212
f 211 249 250
f 212 250 251
f 212 251 215
f 213 215 252
f 213 252 214
f 214 252 253
f 214 253 217
f 214 217 216
f 215 251 254
f 215 254 252
f 217 253 222
f 218 255 256
f 218 256 220
f 218 220 219
f 218 223 255
f 220 256 257
f 220 257 224
f 220 224 221
f 222 253 258
f 222 258 223
f 223 258 259
f 223 259 260
f 223 260 261
f 223 261 262
f 223 262 263
f 223 263 255
f 224 257 225
f 225 264 265
f 225 265 226
f 225 257 264
f 226 265 266
f 226 266 227
f 227 266 228
f 228 266 267
f 228 267 268
f 228 268 269
f 228 269 270
f 228 270 271
f 228 271 272
f 228 272 273
f 228 273 229
f 229 273 274
f 229 274 230
f 230 274 275
f 230 275 276
f 230 276 231
f 231 276 277
f 231 277 232
f 232 277 233
f 233 277 234
f 234 277 278
f 239 240 279
f 240 280 279
f 241 281 282
f 241 282 243
f 241 243 242
f 241 283 281
f 243 282 247
f 244 247 245
f 245 247 284
f 245 284 285
f 245 285 286
f 245 286 287
f 245 287 288
f 245 288 246
f 246 288 289
f 246 289 248
f 247 281 284
f 247 282 281
f 248 289 290
f 248 290 291
f 248 291 292
f 248 292 249
f 249 293 294
f 249 294 295
f 249 295 296
f 249 296 297
f 249 297 250
f 249 292 291
f 249 291 290
f 249 290 293
f 250 297 298
f 250 298 299
f 250 299 251
f 251 299 300
f 251 300 261
f 251 261 259
f 251 259 253
f 251 253 254
f 252 254 253
f 253 259 258
f 255 263 256
f 256 263 301
f 256 301 302
f 256 302 303
f 256 303 257
f 257 303 264
f 259 261 260
f 261 300 304
f 261 304 263
f 261 263 262
f 263 304 301
f 264 303 302
f 264 302 305
f 264 305 265
f 265 306 266
f 265 305 307
f 265 307 308
f 265 308 309
f 265 309 310
f 265 310 311
f 265 311 312
f 265 312 313
f 265 313 314
f 265 314 306
f 266 306 315
f 266 315 316
f 266 316 267
f 267 316 317
f 267 317 268
f 268 317 318
f 268 318 319
f 268 319 320
f 268 320 269
f 269 320 270
f 270 320 321
f 270 321 271
f 271 321 274
f 271 274 272
f 272 274 273
f 274 321 322
f 274 322 275
f 275 322 323
f 275 323 324
f 275 324 278
f 275 278 277
f 275 277 276
f 279 280 325
f 280 326 325
f 281 283 327
f 281 327 328
f 281 328 284
f 284 328 329
f 284 329 285
f 285 329 286
f 286 329 330
f 286 330 331
f 286 331 332
f 286 332 333
f 286 333 287
f 287 334 335
f 287 335 288
f 287 333 336
f 287 336 337
f 287 337 338
f 287 338 334
f 288 335 289
f 289 335 339
f 289 339 340
f 289 340 293
f 289 293 290
f 293 340 341
f 293 341 294
f 294 341 295
f 295 341 342
f 295 342 343
f 295 343 344
f 295 344 298
f 295 298 296
f 296 298 297
f 298 344 300
f 298 300 299
f 300 344 345
f 300 345 304
f 301 346 347
f 301 347 348
f 301 348 302
f 301 304 346
f 302 348 307
f 302 307 305
f 304 345 346
f 306 314 349
f 306 349 315
f 307 348 308
f 308 350 351
f 308 351 407
f 308 407 408
f 308 408 352
f 308 352 312
f 308 312 310
f 308 310 309
f 308 348 347
f 308 347 350
f 310 312 311
f 312 352 353
f 312 353 354
f 312 354 313
f 313 354 314
f 314 354 349
f 315 349 355
f 315 355 316
f 316 355 317
f 317 355 318
f 318 355 354
f 318 354 322
f 318 322 356
f 318 356 319
f 319 356 320
f 320 356 322
f 320 322 321
f 325 326 357
f 326 358 359
f 326 359 357
f 327 360 328
f 327 361 362
f 327 362 360
f 328 363 364
f 328 364 365
f 328 365 366
f 328 366 367
f 328 367 368
f 328 368 369
f 328 369 329
f 328 360 370
f 328 370 363
f 329 371 372
f 329 372 373
f 329 373 330
f 329 369 374
f 329 374 375
f 329 375 376
f 329 376 371
f 330 373 377
f 330 377 331
f 331 333 332
f 331 377 378
f 331 378 379
f 331 379 380
f 331 380 333
f 333 381 336
f 333 380 382
f 333 382 383
f 333 383 384
f 333 384 381
f 334 385 386
f 334 386 335
f 334 338 387
f 334 387 385
f 335 386 388
f 335 388 340
f 335 340 339
f 336 381 337
f 337 381 389
f 337 389 338
f 338 389 390
f 338 390 391
f 338 391 387
f 340 388 392
f 340 392 393
f 340 393 341
f 341 393 342
f 342 393 394
f 342 394 395
f 342 395 343
f 343 395 396
f 343 396 397
f 343 397 398
f 343 398 399
f 343 399 400
f 343 400 344
f 344 400 345
f 345 400 399
f 345 399 401
f 345 401 346
f 346 401 347
f 347 401 350
f 349 354 355
f 350 401 402
f 350 402 403
f 350 403 404
f 350 404 405
f 350 405 406
f 350 406 407
f 350 407 351
f 358 409 359
f 359 409 410
f 360 362 418
f 360 418 370
f 361 411 412
f 361 412 413
f 361 413 414
f 361 414 362
f 361 410 409
f 361 409 415
f 361 415 416
f 361 416 411
f 362 414 409
f 362 409 417
f 362 417 418
f 363 370 419
f 363 419 420
f 363 420 364
f 364 420 421
f 364 421 365
f 365 421 366
f 366 421 422
f 366 422 423
f 366 423 367
f 367 423 424
f 367 424 425
f 367 425 368
f 368 425 374
f 368 374 369
f 370 418 417
f 370 417 426
f 370 426 427
f 370 427 419
f 371 376 428
f 371 428 372
f 372 428 373
f 373 428 429
f 373 429 377
f 374 425 424
f 374 424 375
f 375 424 430
f 375 430 376
f 376 430 431
f 376 431 428
f 377 429 432
f 377 432 378
f 378 432 379
f 379 432 433
f 379 433 431
f 379 431 434
f 379 434 435
f 379 435 436
f 379 436 437
f 379 437 380
f 380 437 382
f 381 384 389
f 382 437 384
f 382 384 383
f 384 437 389
f 385 438 386
f 385 387 439
f 385 439 440
f 385 440 470
f 385 470 438
f 386 438 392
f 386 392 388
f 387 391 437
f 387 437 441
f 387 441 439
f 389 437 390
f 390 437 391
f 392 442 443
f 392 443 393
f 392 438 442
f 393 443 444
f 393 444 445
f 393 445 446
f 393 446 394
f 394 447 395
f 394 446 448
f 394 448 447
f 395 447 449
f 395 449 450
f 395 450 396
f 396 450 451
f 396 451 397
f 397 451 398
f 398 451 401
f 398 401 399
f 401 451 402
f 402 451 452
f 402 452 453
f 402 453 454
f 402 454 455
f 402 455 456
f 402 456 457
f 402 457 458
f 402 458 459
f 402 459 403
f 403 459 458
f 403 458 460
f 403 460 461
f 403 461 404
f 404 461 405
f 405 461 462
f 405 462 406
f 406 462 463
f 406 463 464
f 406 464 407
f 407 464 408
f 409 465 417
f 409 414 466
f 409 466 467
f 409 467 416
f 409 416 415
f 411 416 412
f 412 416 467
f 412 467 413
f 413 467 466
f 413 466 414
f 417 465 426
f 419 427 465
f 419 465 424
f 419 424 420
f 420 424 421
f 421 424 422
f 422 424 423
f 426 465 427
f 428 431 433
f 428 433 432
f 428 432 429
f 437 468 469
f 437 469 441
f 438 470 442
f 439 441 471
f 439 471 470
f 439 470 440
f 441 469 472
f 441 472 473
f 441 473 474
f 441 474 475
f 441 475 476
f 441 476 477
f 441 477 470
f 441 470 471
f 442 470 443
f 443 470 478
f 443 478 444
f 444 479 446
f 444 446 445
f 444 478 479
f 446 479 480
f 446 480 481
f 446 481 482
f 446 482 448
f 447 483 449
f 447 448 484
f 447 484 485
f 447 485 483
f 448 482 484
f 449 483 486
f 449 486 450
f 450 486 487
f 450 487 452
f 450 452 451
f 452 487 488
f 452 488 453
f 453 488 454
f 454 488 489
f 454 489 455
f 455 489 490
f 455 490 456
f 456 490 457
f 457 490 460
f 457 460 458
f 460 490 491
f 460 491 492
f 460 492 461
f 461 492 493
f 461 493 462
f 462 493 463
f 463 493 464
f 468 494 472
f 468 472 469
f 470 477 476
f 470 476 475
f 470 475 474
f 470 474 495
f 470 495 478
f 472 495 473
f 472 494 496
f 472 496 495
f 473 495 474
f 478 495 480
f 478 480 479
f 480 497 481
f 480 495 497
f 481 497 495
f 481 495 482
f 482 495 496
f 482 496 498
f 482 498 484
f 483 485 499
f 483 499 500
f 483 500 501
f 483 501 502
f 483 502 503
f 483 503 486
f 484 498 504
f 484 504 485
f 485 504 505
f 485 505 506
f 485 506 499
f 486 503 502
f 486 502 507
f 486 507 487
f 487 507 508
f 487 508 488
f 488 508 502
f 488 502 509
f 488 509 491
f 488 491 489
f 489 491 490
f 491 493 492
f 494 510 496
f 496 510 511
f 496 511 498
f 498 511 512
f 498 512 506
f 498 506 505
f 498 505 504
f 499 506 500
f 500 506 501
f 501 506 512
f 501 512 511
f 501 513 502
f 502 513 509
f 502 508 507

