# https://github.com/mikedh/trimesh
v 0.07930935 0.03442530 0.10827508
v 0.08593736 0.04038692 0.10826757
v 0.07633009 0.03442530 0.10827508
v 0.08228861 0.01953565 0.10827508
v 0.08593736 0.04634854 0.10809496
v 0.07334779 0.04634854 0.10812498
v 0.08593736 0.01953565 0.10826757
v 0.07334779 0.03442530 0.10825256
v 0.07633009 0.02847328 0.10826757
v 0.07930935 0.01953565 0.10827508
v 0.07633009 0.01357403 0.10823755
v 0.08593736 0.04702054 0.10802741
v 0.08593736 0.04953575 0.10770470
v 0.08228861 0.04920934 0.10774972
v 0.07633009 0.04896934 0.10774972
v 0.07334779 0.04887334 0.10774222
v 0.07037158 0.04634854 0.10807244
v 0.07930935 0.01357403 0.10820753
v 0.08228861 0.01357403 0.10816250
v 0.08526786 0.01357403 0.10810246
v 0.08593736 0.01357403 0.10808745
v 0.07037158 0.03442530 0.10807244
v 0.07334779 0.02847328 0.10824506
v 0.07037158 0.04336293 0.10807995
v 0.07334779 0.01357403 0.10822254
v 0.07334779 0.01059802 0.10798988
v 0.07633009 0.01059802 0.10798238
v 0.08593736 0.04993895 0.10756960
v 0.07037158 0.04868134 0.10768968
v 0.08593736 0.05085095 0.10724689
v 0.08410233 0.05078375 0.10719435
v 0.06812268 0.04830694 0.10750206
v 0.06780923 0.04634854 0.10760713
v 0.07930935 0.01059802 0.10792234
v 0.08526786 0.01059802 0.10778725
v 0.08593736 0.01127002 0.10783978
v 0.07037158 0.02847328 0.10802741
v 0.06787010 0.04336293 0.10760713
v 0.07037158 0.01357403 0.10781727
v 0.07027724 0.01067482 0.10755459
v 0.07120540 0.00887961 0.10738948
v 0.07334779 0.00874521 0.10747954
v 0.07633009 0.00877401 0.10744952
v 0.07930935 0.05057255 0.10701423
v 0.07633009 0.05046695 0.10687914
v 0.07334779 0.05037095 0.10672904
v 0.07037158 0.05017895 0.10647387
v 0.08593736 0.05162855 0.10594101
v 0.07633009 0.07547503 0.06905380
v 0.07334779 0.07541744 0.06906130
v 0.06739232 0.07529263 0.06905380
v 0.06441306 0.07521583 0.06902378
v 0.06143076 0.07512943 0.06896374
v 0.05845151 0.07503343 0.06889619
v 0.05547225 0.07493743 0.06881364
v 0.05485144 0.07491823 0.06879112
v 0.06631808 0.04634854 0.10696170
v 0.06850307 0.05101415 0.10462012
v 0.06731928 0.04935335 0.10584344
v 0.06541426 0.04842214 0.10507793
v 0.08593736 0.01054042 0.10774972
v 0.06833874 0.02847328 0.10753208
v 0.06873436 0.01357403 0.10732944
v 0.06881043 0.01171162 0.10727691
v 0.06922126 0.00972441 0.10705176
v 0.05485144 -0.00747884 0.08209003
v 0.05485144 -0.01847088 0.06906130
v 0.07334779 0.00743961 0.10573087
v 0.07930935 0.00887001 0.10738948
v 0.07633009 0.00755481 0.10573087
v 0.08593736 0.06620140 0.07526046
v 0.07826250 0.07521583 0.06885116
v 0.07633009 0.07662704 0.06699742
v 0.07334779 0.07651184 0.06699742
v 0.05485144 0.07526383 0.06735015
v 0.05485144 0.06309099 0.07625112
v 0.06517994 0.04634854 0.10546820
v 0.06524080 0.04336293 0.10540065
v 0.06638199 0.04336293 0.10689415
v 0.05485144 0.06127659 0.07736937
v 0.08593736 0.00938841 0.10735196
v 0.06760534 0.01357403 0.10573087
v 0.05485144 -0.00728684 0.08224013
v 0.06554816 0.03442530 0.10492783
v 0.05485144 -0.01872048 0.06863352
v 0.05547225 -0.01846128 0.06906130
v 0.05845151 -0.01839408 0.06906130
v 0.06143076 -0.01833648 0.06904629
v 0.06441306 -0.01825008 0.06900877
v 0.08593736 0.00908121 0.10723938
v 0.06739232 -0.01816368 0.06895623
v 0.07037158 -0.01807728 0.06888118
v 0.08593736 0.06633580 0.07472760
v 0.07859420 0.07566703 0.06699742
v 0.07783341 0.07764464 0.05969503
v 0.07633009 0.07715504 0.06401792
v 0.07334779 0.07702064 0.06401792
v 0.05485144 0.07534063 0.06699742
v 0.06574901 0.02847328 0.10456759
v 0.05485144 -0.01955569 0.06699742
v 0.08593736 0.00858201 0.10639882
v 0.07334779 -0.01798128 0.06879112
v 0.07633009 -0.01788528 0.06869355
v 0.08099222 -0.01772208 0.06850593
v 0.08297636 -0.01758768 0.06804812
v 0.08391365 -0.01777967 0.06606680
v 0.08593736 0.06669100 0.07294891
v 0.07783950 0.07765424 0.05805893
v 0.07770256 0.07764464 0.05969503
v 0.08593736 0.06726700 0.06401792
v 0.08593736 0.06731501 0.06103843
v 0.07655833 0.07748144 0.06082829
v 0.07334779 0.07726064 0.06103843
v 0.07037158 0.07704944 0.06103843
v 0.05485144 0.07590704 0.06103843
v 0.05485144 0.07562863 0.06401792
v 0.05485144 0.07557104 0.06463334
v 0.05485144 -0.01966128 0.06637450
v 0.06143076 -0.01916208 0.06699742
v 0.08593736 0.00822681 0.10579091
v 0.08454663 -0.01644528 0.06703494
v 0.05485144 -0.02004529 0.06401792
v 0.07930935 -0.01803888 0.06699742
v 0.08210601 -0.01784688 0.06703494
v 0.08228861 -0.01819248 0.06401792
v 0.08228861 -0.01844208 0.06103843
v 0.08412059 -0.01790448 0.06401792
v 0.07783950 0.07765424 0.05209243
v 0.07764473 0.07765424 0.05805893
v 0.06441306 0.07674223 0.05805893
v 0.08593736 0.06731501 0.04844499
v 0.05485144 0.07603184 0.05805893
v 0.08507310 -0.01622447 0.06401792
v 0.08539872 -0.01324846 0.06699742
v 0.08593736 -0.01130926 0.06479845
v 0.05485144 -0.02010288 0.06339501
v 0.07930935 -0.01839408 0.06401792
v 0.05485144 -0.02031409 0.06103843
v 0.07930935 -0.01865328 0.06103843
v 0.08228861 -0.01852848 0.05805893
v 0.08432144 -0.01802928 0.06103843
v 0.07783341 0.07764464 0.05046384
v 0.07764473 0.07765424 0.05209243
v 0.06441306 0.07674223 0.05209243
v 0.08593736 0.06725740 0.04546549
v 0.05485144 0.07603184 0.05209243
v 0.08520700 -0.01622447 0.06103843
v 0.08593736 -0.01155886 0.06401792
v 0.05485144 -0.02041008 0.05805893
v 0.05547225 -0.02037169 0.05805893
v 0.08228861 -0.01852848 0.05209243
v 0.08437926 -0.01806768 0.05805893
v 0.05485144 -0.02041968 0.05743601
v 0.06739232 -0.01955569 0.05507943
v 0.07858507 0.07564783 0.04315394
v 0.07633009 0.07660783 0.04315394
v 0.07633009 0.07715504 0.04613344
v 0.07770256 0.07764464 0.05046384
v 0.08593736 0.06669100 0.03161872
v 0.07037158 0.07704944 0.04911294
v 0.05485144 0.07593583 0.04973585
v 0.08523134 -0.01622447 0.05805893
v 0.08593736 -0.01154926 0.04613344
v 0.08523134 -0.01622447 0.05209243
v 0.08228861 -0.01844208 0.04911294
v 0.08431839 -0.01802928 0.04911294
v 0.08437926 -0.01806768 0.05209243
v 0.05485144 -0.02041968 0.05507943
v 0.05547225 -0.02037169 0.05209243
v 0.05485144 -0.02040048 0.05147702
v 0.07824728 0.07519663 0.04131521
v 0.07334779 0.07648304 0.04315394
v 0.07633009 0.07544623 0.04112759
v 0.07334779 0.07538864 0.04111258
v 0.07037158 0.07533103 0.04111258
v 0.06739232 0.07527343 0.04112759
v 0.06441306 0.07519663 0.04115761
v 0.06143076 0.07511023 0.04121014
v 0.05845151 0.07502383 0.04127769
v 0.07334779 0.07701104 0.04613344
v 0.07334779 0.07726064 0.04911294
v 0.07608664 0.06709420 0.03161872
v 0.08593736 -0.00709484 0.03161872
v 0.05485144 0.07589744 0.04911294
v 0.08520395 -0.01622447 0.04911294
v 0.08506701 -0.01622447 0.04613344
v 0.05485144 -0.02031409 0.04911294
v 0.07930935 -0.01839408 0.04613344
v 0.08228861 -0.01818288 0.04613344
v 0.08390756 -0.01777967 0.04412209
v 0.08411450 -0.01789488 0.04613344
v 0.05485144 -0.02041008 0.05209243
v 0.05547225 0.07492784 0.04136024
v 0.05485144 0.07490863 0.04138276
v 0.05485144 0.07533103 0.04315394
v 0.05485144 0.07561903 0.04613344
v 0.05485144 0.06281259 0.03161872
v 0.08453750 -0.01643568 0.04313893
v 0.08425449 -0.01559087 0.04130771
v 0.08289115 -0.01757808 0.04213326
v 0.08090396 -0.01772208 0.04166044
v 0.08292158 -0.00783404 0.03161872
v 0.05485144 -0.02003569 0.04613344
v 0.07930935 -0.01802928 0.04315394
v 0.08205428 -0.01783728 0.04313893
v 0.05485144 -0.01321966 0.03161872
v 0.07633009 -0.01787568 0.04148032
v 0.05560615 -0.01315246 0.03161872
v 0.06143076 -0.01914288 0.04315394
v 0.05485144 -0.01952689 0.04315394
v 0.07334779 -0.01797168 0.04137525
v 0.06739232 -0.01815408 0.04121765
v 0.06441306 -0.01824048 0.04116511
v 0.06143076 -0.01831728 0.04112759
v 0.05485144 -0.01845168 0.04111258
f 1 2 3
f 1 3 10
f 1 10 4
f 1 4 2
f 2 5 6
f 2 6 3
f 2 4 7
f 2 7 21
f 2 21 36
f 2 36 61
f 2 61 81
f 2 81 90
f 2 90 101
f 2 101 120
f 2 120 135
f 2 135 148
f 2 148 163
f 2 163 183
f 2 183 159
f 2 159 145
f 2 145 131
f 2 131 111
f 2 111 110
f 2 110 107
f 2 107 93
f 2 93 71
f 2 71 48
f 2 48 30
f 2 30 28
f 2 28 13
f 2 13 12
f 2 12 5
f 3 8 23
f 3 23 9
f 3 9 10
f 3 6 8
f 4 10 11
f 4 11 7
f 5 12 6
f 6 12 13
f 6 13 14
f 6 14 15
f 6 15 16
f 6 16 17
f 6 17 8
f 7 11 18
f 7 18 19
f 7 19 20
f 7 20 21
f 8 22 23
f 8 17 24
f 8 24 22
f 9 23 25
f 9 25 10
f 10 25 11
f 11 25 26
f 11 26 27
f 11 27 18
f 13 28 16
f 13 16 15
f 13 15 14
f 16 29 17
f 16 28 30
f 16 30 31
f 16 31 29
f 17 29 32
f 17 32 33
f 17 33 24
f 18 27 19
f 19 27 34
f 19 34 20
f 20 34 21
f 21 34 35
f 21 35 36
f 22 37 25
f 22 25 23
f 22 24 33
f 22 33 38
f 22 38 37
f 25 39 26
f 25 37 39
f 26 39 40
f 26 40 41
f 26 41 42
f 26 42 27
f 27 42 43
f 27 43 34
f 29 44 45
f 29 45 46
f 29 46 47
f 29 47 32
f 29 31 44
f 30 48 49
f 30 49 50
f 30 50 51
f 30 51 52
f 30 52 53
f 30 53 54
f 30 54 55
f 30 55 56
f 30 56 31
f 31 56 46
f 31 46 45
f 31 45 44
f 32 57 33
f 32 47 58
f 32 58 59
f 32 59 60
f 32 60 57
f 33 57 38
f 34 43 35
f 35 43 61
f 35 61 36
f 37 38 62
f 37 62 39
f 38 57 62
f 39 63 64
f 39 64 40
f 39 62 63
f 40 64 65
f 40 65 41
f 41 65 66
f 41 66 67
f 41 67 42
f 42 67 68
f 42 68 43
f 43 69 61
f 43 68 70
f 43 70 69
f 46 56 47
f 47 56 58
f 48 71 72
f 48 72 49
f 49 72 73
f 49 73 50
f 50 73 51
f 51 73 52
f 52 73 53
f 53 73 74
f 53 74 54
f 54 74 55
f 55 74 56
f 56 74 75
f 56 75 98
f 56 98 117
f 56 117 116
f 56 116 115
f 56 115 132
f 56 132 146
f 56 146 161
f 56 161 184
f 56 184 196
f 56 196 195
f 56 195 194
f 56 194 197
f 56 197 206
f 56 206 215
f 56 215 210
f 56 210 203
f 56 203 187
f 56 187 170
f 56 170 192
f 56 192 168
f 56 168 153
f 56 153 149
f 56 149 138
f 56 138 136
f 56 136 122
f 56 122 118
f 56 118 100
f 56 100 85
f 56 85 67
f 56 67 66
f 56 66 83
f 56 83 80
f 56 80 76
f 56 76 60
f 56 60 59
f 56 59 58
f 57 60 77
f 57 77 78
f 57 78 79
f 57 79 63
f 57 63 62
f 60 76 80
f 60 80 77
f 61 69 81
f 63 79 64
f 64 82 83
f 64 83 65
f 64 79 78
f 64 78 84
f 64 84 82
f 65 83 66
f 67 85 86
f 67 86 68
f 68 86 87
f 68 87 88
f 68 88 89
f 68 89 70
f 69 90 81
f 69 70 90
f 70 89 91
f 70 91 92
f 70 92 90
f 71 93 94
f 71 94 72
f 72 94 73
f 73 95 96
f 73 96 74
f 73 94 95
f 74 96 97
f 74 97 98
f 74 98 75
f 77 80 83
f 77 83 78
f 78 83 84
f 82 84 99
f 82 99 83
f 83 99 84
f 85 88 86
f 85 100 88
f 86 88 87
f 88 100 89
f 89 100 91
f 90 92 102
f 90 102 103
f 90 103 104
f 90 104 105
f 90 105 106
f 90 106 101
f 91 100 92
f 92 100 102
f 93 107 94
f 94 107 95
f 95 108 129
f 95 129 109
f 95 109 96
f 95 107 110
f 95 110 111
f 95 111 108
f 96 109 112
f 96 112 97
f 97 112 113
f 97 113 114
f 97 114 115
f 97 115 116
f 97 116 117
f 97 117 98
f 100 118 119
f 100 119 104
f 100 104 103
f 100 103 102
f 101 106 121
f 101 121 120
f 104 119 122
f 104 122 123
f 104 123 124
f 104 124 105
f 105 124 106
f 106 124 125
f 106 125 126
f 106 126 127
f 106 127 121
f 108 128 143
f 108 143 129
f 108 111 131
f 108 131 128
f 109 114 113
f 109 113 112
f 109 129 130
f 109 130 114
f 114 130 115
f 115 130 132
f 118 122 119
f 120 121 133
f 120 133 134
f 120 134 135
f 121 127 133
f 122 136 137
f 122 137 124
f 122 124 123
f 124 137 125
f 125 137 138
f 125 138 139
f 125 139 126
f 126 139 140
f 126 140 141
f 126 141 127
f 127 141 133
f 128 142 158
f 128 158 143
f 128 131 142
f 129 143 144
f 129 144 130
f 130 144 146
f 130 146 132
f 131 145 142
f 133 141 147
f 133 147 148
f 133 148 135
f 133 135 134
f 136 138 137
f 138 149 150
f 138 150 139
f 139 150 140
f 140 151 167
f 140 167 152
f 140 152 141
f 140 150 153
f 140 153 154
f 140 154 151
f 141 152 147
f 142 155 156
f 142 156 157
f 142 157 158
f 142 145 159
f 142 159 155
f 143 158 144
f 144 158 160
f 144 160 161
f 144 161 146
f 147 152 162
f 147 162 148
f 148 162 164
f 148 164 163
f 149 153 150
f 151 165 166
f 151 166 167
f 151 154 168
f 151 168 169
f 151 169 170
f 151 170 165
f 152 167 164
f 152 164 162
f 153 168 154
f 155 171 156
f 155 159 171
f 156 172 157
f 156 171 173
f 156 173 174
f 156 174 175
f 156 175 176
f 156 176 177
f 156 177 178
f 156 178 179
f 156 179 172
f 157 172 180
f 157 180 158
f 158 181 160
f 158 180 181
f 159 182 173
f 159 173 171
f 159 183 202
f 159 202 208
f 159 208 206
f 159 206 197
f 159 197 182
f 160 181 180
f 160 180 184
f 160 184 161
f 163 164 185
f 163 185 186
f 163 186 183
f 164 167 185
f 165 170 187
f 165 187 188
f 165 188 189
f 165 189 190
f 165 190 191
f 165 191 166
f 166 191 186
f 166 186 185
f 166 185 167
f 168 192 169
f 169 192 170
f 172 179 193
f 172 193 194
f 172 194 195
f 172 195 180
f 173 182 174
f 174 182 175
f 175 182 176
f 176 182 177
f 177 182 178
f 178 182 179
f 179 182 193
f 180 196 184
f 180 195 196
f 182 197 194
f 182 194 193
f 183 186 198
f 183 198 199
f 183 199 200
f 183 200 201
f 183 201 202
f 186 191 190
f 186 190 198
f 187 203 188
f 188 203 204
f 188 204 205
f 188 205 189
f 189 205 190
f 190 205 200
f 190 200 199
f 190 199 198
f 200 205 201
f 201 207 206
f 201 206 208
f 201 208 202
f 201 205 204
f 201 204 203
f 201 203 209
f 201 209 210
f 201 210 207
f 203 210 209
f 206 207 211
f 206 211 212
f 206 212 213
f 206 213 214
f 206 214 215
f 207 210 211
f 210 215 214
f 210 214 213
f 210 213 212
f 210 212 211

