# https://github.com/mikedh/trimesh
v 0.02488490 0.06419870 -0.02024733
v 0.02488490 0.06721442 -0.02000186
v 0.02488490 0.06300815 -0.02016981
v -0.10246298 0.04933515 -0.01603555
v -0.10246298 0.05231416 -0.01612599
v -0.10544063 0.09105168 -0.01585468
v -0.10246298 0.09105168 -0.01593220
v -0.09948532 0.09105168 -0.01598387
v -0.01010253 0.09700969 -0.01602263
v -0.00711159 0.09700969 -0.01602263
v -0.00413393 0.09700969 -0.01599679
v 0.00479903 0.09937505 -0.01553169
v 0.00693922 0.09909709 -0.01533789
v 0.02488490 0.06909203 -0.01942048
v -0.09650767 0.09105168 -0.01602263
v 0.02488490 0.06140851 -0.02005354
v -0.10246298 0.04764111 -0.01524746
v -0.10489562 0.04767782 -0.01519578
v -0.10570649 0.04907816 -0.01550585
v 0.02488490 0.06055886 -0.01992434
v 0.02488490 0.05827741 -0.01954968
v 0.01577913 0.04712712 -0.01705620
v -0.11006664 0.08932092 -0.01509242
v -0.10856451 0.09117231 -0.01537665
v -0.10766058 0.09267230 -0.01511826
v -0.10544063 0.09278768 -0.01524746
v -0.10246298 0.09288734 -0.01533789
v -0.09948532 0.09298174 -0.01541541
v -0.09650767 0.09307090 -0.01548001
v -0.09353002 0.09315481 -0.01553169
v -0.01605784 0.09700969 -0.01593220
v -0.01308018 0.09700969 -0.01598387
v -0.00711159 0.09911282 -0.01553169
v -0.00413393 0.09918100 -0.01554461
v -0.00115628 0.09924394 -0.01555752
v 0.00182138 0.09930687 -0.01555752
v 0.00479903 0.10047645 -0.01346456
v 0.00786974 0.09942226 -0.01332244
v 0.00934527 0.09867226 -0.01223720
v 0.02488490 0.08409718 -0.00617792
v -0.10246298 0.04743656 -0.01346456
v -0.10570649 0.04749950 -0.01373587
v -0.10687629 0.04791383 -0.01491155
v -0.10710228 0.04990158 -0.01511826
v 0.02488490 0.04712712 -0.01672029
v 0.01670964 0.04712712 -0.01705620
v -0.00041186 0.04712712 -0.01504074
v -0.10544063 0.04723202 -0.01048013
v -0.10835182 0.04933515 -0.01048013
v -0.11037238 0.08822478 -0.01328368
v -0.11039897 0.09117231 -0.01354207
v -0.11006664 0.09026497 -0.01509242
v -0.10760741 0.04907816 -0.01373587
v -0.10964125 0.09225272 -0.01460148
v -0.11005335 0.09263034 -0.01261186
v -0.10856451 0.09276670 -0.01354207
v -0.10544063 0.09307615 -0.01346456
v -0.06867193 0.09555165 -0.01498907
v -0.06670455 0.09561983 -0.01507950
v -0.06372689 0.09571424 -0.01519578
v -0.01903549 0.09874569 -0.01524746
v -0.06074924 0.09581389 -0.01529914
v -0.01605784 0.09884010 -0.01533789
v -0.05775829 0.09591354 -0.01537665
v -0.01308018 0.09893450 -0.01541541
v -0.05478064 0.09600270 -0.01545417
v -0.01010253 0.09902891 -0.01548001
v 0.00479903 0.10070722 -0.01048013
v 0.00777669 0.09991526 -0.01048013
v -0.02201315 0.09864604 -0.01513118
v -0.02445908 0.09856212 -0.01504074
v -0.02643975 0.09849394 -0.01479527
v -0.00413393 0.09997295 -0.01346456
v 0.00938515 0.09876143 -0.01048013
v 0.02488490 0.08982442 0.02649568
v 0.02488490 0.08440662 -0.00452421
v -0.10726178 0.04760439 -0.01292193
v 0.02488490 0.04712712 0.11173902
v -0.00711159 0.04712712 -0.01355499
v -0.08414509 0.04712712 0.03758067
v -0.08453058 0.04712712 0.03884679
v -0.08490279 0.04712712 0.04017751
v -0.08762788 0.04712712 0.05506085
v -0.08784057 0.04712712 0.05804527
v -0.08788045 0.04712712 0.06102969
v -0.10544063 0.04723202 0.10573141
v -0.10743460 0.04748901 -0.01048013
v -0.00809528 0.04712712 -0.01332244
v -0.00984997 0.04712712 -0.01262478
v -0.10835182 0.04933515 0.10573141
v -0.11090410 0.08806743 0.09976257
v -0.11089081 0.08806743 -0.00749572
v -0.11086422 0.08806743 -0.01048013
v -0.11089081 0.09105168 -0.01048013
v -0.11011980 0.09267230 -0.01048013
v -0.10841829 0.09290831 -0.01048013
v -0.09353002 0.09393628 -0.01048013
v -0.06912389 0.09558312 -0.01346456
v 0.00479903 0.10070722 0.10573141
v -0.00711159 0.09979988 -0.01346456
v -0.01010253 0.09961631 -0.01346456
v -0.01308018 0.09942226 -0.01346456
v -0.02201315 0.09882436 -0.01346456
v -0.02526996 0.09859884 -0.01367127
v -0.02673220 0.09851492 -0.01281858
v -0.04288331 0.09742402 -0.01048013
v 0.00777669 0.09991526 0.10274699
v 0.02488490 0.08982442 0.02712874
v -0.06074924 0.04712712 0.11173902
v 0.02488490 0.05827741 0.11173902
v -0.08788045 0.04712712 0.07891038
v -0.10544063 0.04733167 0.10870291
v -0.10743460 0.04748901 0.10573141
v -0.08785387 0.04712712 0.08012482
v -0.08780069 0.04712712 0.08188188
v -0.08740190 0.04712712 0.08303173
v -0.08692335 0.04712712 0.08415573
v -0.08115414 0.04712712 0.09193331
v -0.06875168 0.04712712 0.10781147
v -0.06596013 0.04712712 0.11074421
v -0.06372689 0.04712712 0.11148062
v -0.10728837 0.04758342 0.10870291
v -0.10799291 0.04933515 0.10870291
v -0.11085091 0.09105168 0.10573141
v -0.11089081 0.08806743 0.10274699
v -0.11089081 0.09105168 0.10274699
v -0.11011980 0.09267230 0.10573141
v -0.10841829 0.09290831 0.10573141
v -0.09353002 0.09393628 0.10573141
v -0.02673220 0.09851492 0.10728176
v -0.02499080 0.09857786 0.10750139
v -0.02201315 0.09867751 0.10782438
v -0.01903549 0.09878240 0.10808278
v -0.01605784 0.09888205 0.10828949
v -0.01308018 0.09898695 0.10843160
v -0.01010253 0.09909184 0.10853496
v -0.00711159 0.09919149 0.10859956
v -0.00413393 0.09929638 0.10862540
v 0.00182138 0.09950093 0.10865123
v 0.00479903 0.09960058 0.10863832
v 0.00777669 0.09912331 0.10795358
v 0.00777669 0.09982610 0.10573141
v -0.04288331 0.09742402 0.10573141
v 0.00938515 0.09876143 0.10274699
v 0.02488490 0.06242074 0.10870291
v 0.00934527 0.09867226 0.10573141
v 0.00929210 0.09856212 0.10725592
v -0.06074924 0.05231416 0.11173902
v -0.07862846 0.05231416 0.11171318
v -0.08160611 0.05231416 0.11167441
v -0.10246298 0.04933515 0.11124807
v -0.10544063 0.04763586 0.11047290
v 0.02488490 0.06036481 0.11115763
v 0.00479903 0.09700969 0.10971064
v 0.00182138 0.09700969 0.10985275
v -0.00115628 0.09700969 0.10990443
v -0.00413393 0.09700969 0.10994319
v -0.00711159 0.09700969 0.10996903
v 0.01672294 0.05827741 0.11173902
v -0.10707569 0.04773551 0.11033078
v -0.11037238 0.08866533 0.10788898
v -0.10728837 0.04933515 0.11052457
v -0.11035908 0.09105168 0.10787606
v -0.11004005 0.09262510 0.10743679
v -0.10841829 0.09272475 0.10775979
v -0.06896438 0.09557263 0.10741095
v -0.06670455 0.09565130 0.10766935
v -0.06372689 0.09575096 0.10796650
v -0.10544063 0.09282440 0.10809569
v -0.06074924 0.09585585 0.10819905
v -0.10246298 0.09292929 0.10830241
v -0.09948532 0.09303419 0.10844452
v -0.05478064 0.09606039 0.10849620
v -0.09650767 0.09313384 0.10853496
v -0.05180298 0.09616529 0.10857372
v -0.10246298 0.09105168 0.10973648
v -0.01605784 0.09700969 0.10972356
v -0.01308018 0.09700969 0.10986568
v -0.01010253 0.09700969 0.10994319
v 0.02488490 0.06105711 0.11096384
v 0.02488490 0.06209032 0.10929722
v -0.02798175 0.05529316 0.11173902
v -0.09353002 0.09105168 0.10996903
v -0.09650767 0.09105168 0.10994319
v -0.08458377 0.05231416 0.11160982
v -0.09650767 0.05231416 0.11129975
v -0.09948532 0.09105168 0.10986568
v -0.10544063 0.04933515 0.11108012
v 0.01076763 0.05827741 0.11172609
v -0.10727509 0.05145402 0.11049874
v -0.10841829 0.09105168 0.10898715
v -0.10544063 0.09105168 0.10952977
f 1 2 14
f 1 14 40
f 1 40 76
f 1 76 75
f 1 75 108
f 1 108 145
f 1 145 181
f 1 181 180
f 1 180 153
f 1 153 110
f 1 110 78
f 1 78 45
f 1 45 21
f 1 21 20
f 1 20 16
f 1 16 3
f 1 3 4
f 1 4 5
f 1 5 6
f 1 6 7
f 1 7 8
f 1 8 2
f 2 9 10
f 2 10 11
f 2 11 12
f 2 12 13
f 2 13 14
f 2 8 15
f 2 15 9
f 3 16 4
f 4 17 18
f 4 18 19
f 4 19 5
f 4 16 20
f 4 20 21
f 4 21 22
f 4 22 17
f 5 19 23
f 5 23 24
f 5 24 6
f 6 24 25
f 6 25 26
f 6 26 27
f 6 27 28
f 6 28 29
f 6 29 7
f 7 29 30
f 7 30 31
f 7 31 32
f 7 32 8
f 8 32 9
f 8 9 15
f 9 32 33
f 9 33 34
f 9 34 35
f 9 35 36
f 9 36 10
f 10 36 12
f 10 12 11
f 12 36 37
f 12 37 13
f 13 38 39
f 13 39 40
f 13 40 14
f 13 37 38
f 17 41 42
f 17 42 18
f 17 22 41
f 18 42 43
f 18 43 19
f 19 43 44
f 19 44 23
f 21 45 46
f 21 46 22
f 22 46 45
f 22 45 78
f 22 78 109
f 22 109 121
f 22 121 120
f 22 120 119
f 22 119 118
f 22 118 117
f 22 117 116
f 22 116 115
f 22 115 114
f 22 114 111
f 22 111 85
f 22 85 84
f 22 84 83
f 22 83 82
f 22 82 81
f 22 81 80
f 22 80 89
f 22 89 88
f 22 88 79
f 22 79 47
f 22 47 48
f 22 48 41
f 23 49 50
f 23 50 51
f 23 51 52
f 23 52 24
f 23 44 53
f 23 53 49
f 24 52 54
f 24 54 25
f 25 54 55
f 25 55 56
f 25 56 57
f 25 57 58
f 25 58 26
f 26 58 59
f 26 59 60
f 26 60 61
f 26 61 62
f 26 62 27
f 27 62 63
f 27 63 64
f 27 64 28
f 28 64 65
f 28 65 66
f 28 66 29
f 29 66 67
f 29 67 30
f 30 67 33
f 30 33 31
f 31 33 32
f 33 67 37
f 33 37 34
f 34 37 35
f 35 37 36
f 37 68 69
f 37 69 38
f 37 67 65
f 37 65 63
f 37 63 61
f 37 61 70
f 37 70 71
f 37 71 72
f 37 72 73
f 37 73 68
f 38 69 39
f 39 69 74
f 39 74 75
f 39 75 76
f 39 76 40
f 41 48 42
f 42 48 77
f 42 77 43
f 43 77 53
f 43 53 44
f 47 79 48
f 48 80 81
f 48 81 82
f 48 82 83
f 48 83 84
f 48 84 85
f 48 85 111
f 48 111 86
f 48 86 113
f 48 113 87
f 48 87 77
f 48 79 88
f 48 88 89
f 48 89 80
f 49 90 91
f 49 91 92
f 49 92 93
f 49 93 50
f 49 53 77
f 49 77 87
f 49 87 113
f 49 113 90
f 50 93 51
f 51 93 94
f 51 94 55
f 51 55 54
f 51 54 52
f 55 94 95
f 55 95 96
f 55 96 56
f 56 96 57
f 57 96 97
f 57 97 98
f 57 98 72
f 57 72 58
f 58 72 71
f 58 71 59
f 59 71 61
f 59 61 60
f 61 71 70
f 61 63 62
f 63 65 64
f 65 67 66
f 68 99 107
f 68 107 69
f 68 73 100
f 68 100 101
f 68 101 102
f 68 102 72
f 68 72 103
f 68 103 104
f 68 104 105
f 68 105 106
f 68 106 143
f 68 143 99
f 69 107 108
f 69 108 75
f 69 75 74
f 72 104 103
f 72 102 101
f 72 101 100
f 72 100 73
f 72 98 104
f 78 110 159
f 78 159 182
f 78 182 148
f 78 148 109
f 86 112 113
f 86 111 114
f 86 114 115
f 86 115 116
f 86 116 117
f 86 117 118
f 86 118 119
f 86 119 120
f 86 120 121
f 86 121 112
f 90 113 122
f 90 122 123
f 90 123 124
f 90 124 125
f 90 125 91
f 91 125 126
f 91 126 94
f 91 94 92
f 92 94 93
f 94 126 127
f 94 127 95
f 95 127 128
f 95 128 96
f 96 128 129
f 96 129 97
f 97 129 143
f 97 143 106
f 97 106 105
f 97 105 98
f 98 105 104
f 99 130 131
f 99 131 132
f 99 132 133
f 99 133 134
f 99 134 135
f 99 135 136
f 99 136 137
f 99 137 138
f 99 138 139
f 99 139 140
f 99 140 141
f 99 141 142
f 99 142 107
f 99 143 130
f 107 142 144
f 107 144 108
f 108 144 146
f 108 146 147
f 108 147 145
f 109 148 149
f 109 149 150
f 109 150 151
f 109 151 152
f 109 152 121
f 110 153 141
f 110 141 154
f 110 154 155
f 110 155 156
f 110 156 157
f 110 157 158
f 110 158 159
f 112 152 160
f 112 160 122
f 112 122 113
f 112 121 152
f 122 160 123
f 123 161 124
f 123 160 162
f 123 162 161
f 124 161 163
f 124 163 164
f 124 164 127
f 124 127 126
f 124 126 125
f 127 164 128
f 128 164 165
f 128 165 166
f 128 166 130
f 128 130 129
f 129 130 143
f 130 166 131
f 131 166 167
f 131 167 132
f 132 167 168
f 132 168 133
f 133 168 169
f 133 169 170
f 133 170 134
f 134 170 171
f 134 171 172
f 134 172 135
f 135 172 173
f 135 173 136
f 136 173 174
f 136 174 175
f 136 175 176
f 136 176 177
f 136 177 178
f 136 178 137
f 137 178 138
f 138 178 139
f 139 178 179
f 139 179 140
f 140 179 158
f 140 158 157
f 140 157 156
f 140 156 155
f 140 155 154
f 140 154 141
f 141 147 142
f 141 153 180
f 141 180 147
f 142 147 146
f 142 146 144
f 145 147 181
f 147 180 181
f 148 182 149
f 149 183 184
f 149 184 150
f 149 182 183
f 150 184 185
f 150 185 151
f 151 185 186
f 151 186 187
f 151 187 176
f 151 176 188
f 151 188 152
f 152 188 160
f 158 189 159
f 158 179 183
f 158 183 189
f 159 189 182
f 160 188 162
f 161 162 163
f 162 188 190
f 162 190 163
f 163 190 191
f 163 191 164
f 164 191 165
f 165 191 192
f 165 192 169
f 165 169 167
f 165 167 166
f 167 169 168
f 169 192 171
f 169 171 170
f 171 192 172
f 172 192 176
f 172 176 174
f 172 174 173
f 174 176 175
f 176 192 188
f 176 187 178
f 176 178 177
f 178 187 184
f 178 184 179
f 179 184 183
f 182 189 183
f 184 187 186
f 184 186 185
f 188 192 191
f 188 191 190

