# https://github.com/mikedh/trimesh
v -0.08278276 -0.00062908 0.06561660
v -0.08264230 -0.00270594 0.06561660
v -0.08278276 -0.00062908 0.07891697
v -0.07745191 -0.00062908 0.06561660
v -0.08253378 -0.00430970 0.06561660
v -0.08253378 -0.00430970 0.07891697
v -0.08277637 -0.00062908 0.07961224
v -0.01756766 -0.00062908 0.10514300
v -0.01756766 -0.00758555 0.06561660
v -0.08232947 -0.00729007 0.06561660
v -0.08232947 -0.00729007 0.07891697
v -0.08274446 -0.00062908 0.08189669
v -0.01756766 -0.00062908 0.11173902
v -0.01756766 -0.01386909 0.06561660
v -0.08192089 -0.01324740 0.06561660
v -0.08192089 -0.01324740 0.07891697
v -0.08228478 -0.00729007 0.08189669
v -0.08094410 -0.01324740 0.08472291
v -0.08250823 -0.00062908 0.08259647
v -0.01756766 -0.01026703 0.11173902
v -0.05776927 -0.00062908 0.11173902
v -0.01756766 -0.01387763 0.06846539
v -0.01903604 -0.01397840 0.06561660
v -0.08129522 -0.01622776 0.06561660
v -0.08129522 -0.01622776 0.07891697
v -0.08126331 -0.01622776 0.08189669
v -0.08184428 -0.01324740 0.08189669
v -0.08127608 -0.00729007 0.08487641
v -0.08173574 -0.00062908 0.08487641
v -0.08067596 -0.01622776 0.08429852
v -0.08000561 -0.01324740 0.08621277
v -0.05180638 -0.01026703 0.11173902
v -0.05478783 -0.01324740 0.11173450
v -0.05180638 -0.01324740 0.11171193
v -0.04883132 -0.01324740 0.11166227
v -0.04585626 -0.01324740 0.11159003
v -0.04287482 -0.01324740 0.11150877
v -0.01756766 -0.01152920 0.11134623
v -0.06075072 -0.00062908 0.11131012
v -0.05776927 -0.00729007 0.11173902
v -0.01756766 -0.01387763 0.10572992
v -0.02339010 -0.01427899 0.06561660
v -0.08044612 -0.01794596 0.06561660
v -0.08044612 -0.01794596 0.07891697
v -0.08043336 -0.01794084 0.08189669
v -0.08032482 -0.01786227 0.08375224
v -0.08021629 -0.00729007 0.08649268
v -0.08031844 -0.00430970 0.08663264
v -0.08042059 -0.00132934 0.08676808
v -0.08043974 -0.00062908 0.08680420
v -0.07728592 -0.01523374 0.08954012
v -0.07879260 -0.01324740 0.08785613
v -0.05776927 -0.01324740 0.11173450
v -0.05776927 -0.01561632 0.11096700
v -0.05478783 -0.01555142 0.11096700
v -0.05180638 -0.01547456 0.11094442
v -0.01756766 -0.01271622 0.11096700
v -0.06257023 -0.00062908 0.11054261
v -0.06067411 -0.01324740 0.11096700
v -0.01756766 -0.01383151 0.10720172
v -0.02977434 -0.01470598 0.10870964
v -0.03126825 -0.01481871 0.10870964
v -0.03393687 -0.01500316 0.10870964
v -0.03691193 -0.01520812 0.10870964
v -0.03125549 -0.01482042 0.10572992
v -0.05776927 -0.01664621 0.10572992
v -0.05776927 -0.01664621 0.06561660
v -0.07946933 -0.01801598 0.06561660
v -0.07862661 -0.01807576 0.07891697
v -0.07862661 -0.01807064 0.08189669
v -0.07848616 -0.01790838 0.08479966
v -0.07740084 -0.01780420 0.08678162
v -0.06100608 -0.01591350 0.10897149
v -0.06292774 -0.01541649 0.10814981
v -0.06565382 -0.01533792 0.10482698
v -0.06837351 -0.01509027 0.10149962
v -0.08018437 -0.00062908 0.08715183
v -0.06592196 -0.01324740 0.10518815
v -0.06502178 -0.00729007 0.10695341
v -0.06892894 -0.00132934 0.10224455
v -0.06481110 -0.01324740 0.10667801
v -0.06018252 -0.01534646 0.11071418
v -0.05776927 -0.01657106 0.10870964
v -0.04883132 -0.01537891 0.11089025
v -0.03166408 -0.01479138 0.11028076
v -0.01756766 -0.01327985 0.10982477
v -0.04585626 -0.01527814 0.11082253
v -0.04287482 -0.01517567 0.11073675
v -0.03989338 -0.01507319 0.11064194
v -0.03691193 -0.01497071 0.11052455
v -0.03393687 -0.01486995 0.11039363
v -0.06423013 -0.00062908 0.10854259
v -0.06216802 -0.01324740 0.11013629
v -0.01756766 -0.01377515 0.10870964
v -0.03989338 -0.01541307 0.10870964
v -0.05478783 -0.01640368 0.10870964
v -0.06075072 -0.01680676 0.10572992
v -0.06372578 -0.01705612 0.09977048
v -0.07374905 -0.01774613 0.08785613
v -0.04585626 -0.01582127 0.10870964
v -0.04883132 -0.01602452 0.10870964
v -0.05180638 -0.01622435 0.10870964
v -0.07374905 -0.01774613 0.06561660
v -0.07862661 -0.01807576 0.06561660
v -0.07564517 -0.01787593 0.08487641
v -0.07388312 -0.01773588 0.08961235
v -0.07429171 -0.01773588 0.08961235
v -0.06372578 -0.01690069 0.10275020
v -0.06332357 -0.01324740 0.10864643
v -0.06546867 -0.00062908 0.10696695
v -0.06512392 -0.00430970 0.10708885
v -0.06613264 -0.00136520 0.10600532
v -0.06501539 -0.00062908 0.10755387
v -0.07564517 -0.01787593 0.06561660
v -0.06518777 -0.00238314 0.10717915
f 1 2 3
f 1 3 7
f 1 7 12
f 1 12 19
f 1 19 29
f 1 29 50
f 1 50 77
f 1 77 110
f 1 110 113
f 1 113 92
f 1 92 58
f 1 58 39
f 1 39 21
f 1 21 13
f 1 13 8
f 1 8 4
f 1 4 9
f 1 9 14
f 1 14 23
f 1 23 42
f 1 42 67
f 1 67 103
f 1 103 114
f 1 114 104
f 1 104 68
f 1 68 43
f 1 43 24
f 1 24 15
f 1 15 10
f 1 10 5
f 1 5 2
f 2 5 6
f 2 6 3
f 3 6 7
f 4 8 9
f 5 10 11
f 5 11 6
f 6 11 7
f 7 11 12
f 8 13 20
f 8 20 38
f 8 38 57
f 8 57 86
f 8 86 94
f 8 94 60
f 8 60 41
f 8 41 22
f 8 22 14
f 8 14 9
f 10 15 16
f 10 16 11
f 11 16 12
f 12 16 17
f 12 17 18
f 12 18 19
f 13 21 40
f 13 40 32
f 13 32 20
f 14 22 23
f 15 24 25
f 15 25 16
f 16 25 26
f 16 26 27
f 16 27 17
f 17 27 18
f 18 28 29
f 18 29 19
f 18 27 30
f 18 30 31
f 18 31 28
f 20 32 53
f 20 53 33
f 20 33 34
f 20 34 35
f 20 35 36
f 20 36 37
f 20 37 38
f 21 39 40
f 22 41 42
f 22 42 23
f 24 43 44
f 24 44 25
f 25 44 45
f 25 45 26
f 26 45 46
f 26 46 30
f 26 30 27
f 28 31 29
f 29 31 47
f 29 47 48
f 29 48 49
f 29 49 50
f 30 46 51
f 30 51 31
f 31 51 52
f 31 52 47
f 32 40 53
f 33 53 54
f 33 54 55
f 33 55 34
f 34 56 35
f 34 55 56
f 35 56 36
f 36 56 37
f 37 56 57
f 37 57 38
f 39 58 59
f 39 59 53
f 39 53 40
f 41 60 61
f 41 61 62
f 41 62 63
f 41 63 64
f 41 64 65
f 41 65 42
f 42 65 66
f 42 66 67
f 43 68 44
f 44 68 69
f 44 69 70
f 44 70 45
f 45 70 46
f 46 70 71
f 46 71 72
f 46 72 73
f 46 73 74
f 46 74 75
f 46 75 76
f 46 76 51
f 47 52 48
f 48 77 49
f 48 52 78
f 48 78 79
f 48 79 80
f 48 80 77
f 49 77 50
f 51 76 81
f 51 81 78
f 51 78 52
f 53 59 82
f 53 82 54
f 54 83 55
f 54 82 83
f 55 83 56
f 56 84 57
f 56 83 84
f 57 85 86
f 57 84 87
f 57 87 88
f 57 88 89
f 57 89 90
f 57 90 91
f 57 91 85
f 58 92 93
f 58 93 59
f 59 93 82
f 60 94 85
f 60 85 61
f 61 85 62
f 62 85 63
f 63 85 64
f 64 85 95
f 64 95 66
f 64 66 65
f 66 96 83
f 66 83 97
f 66 97 98
f 66 98 99
f 66 99 103
f 66 103 67
f 66 95 100
f 66 100 101
f 66 101 102
f 66 102 96
f 68 104 69
f 69 104 114
f 69 114 105
f 69 105 70
f 70 105 99
f 70 99 106
f 70 106 107
f 70 107 71
f 71 107 72
f 72 107 97
f 72 97 108
f 72 108 73
f 73 108 97
f 73 97 83
f 73 83 82
f 73 82 74
f 74 82 93
f 74 93 75
f 75 93 76
f 76 93 109
f 76 109 81
f 77 80 110
f 78 81 79
f 79 111 110
f 79 110 112
f 79 112 80
f 79 81 109
f 79 109 111
f 80 112 110
f 83 96 85
f 83 85 91
f 83 91 90
f 83 90 89
f 83 89 88
f 83 88 87
f 83 87 84
f 85 94 86
f 85 96 102
f 85 102 101
f 85 101 100
f 85 100 95
f 92 113 93
f 93 113 109
f 97 107 106
f 97 106 98
f 98 106 99
f 99 105 114
f 99 114 103
f 109 113 115
f 109 115 111
f 110 111 115
f 110 115 113

