# https://github.com/mikedh/trimesh
v 0.04189174 -0.01153978 -0.05557397
v 0.04189174 -0.00850030 -0.05557397
v 0.11966588 -0.01153978 -0.05557397
v 0.01675292 -0.01153978 -0.03446119
v 0.11966588 -0.00850030 -0.05557397
v 0.01675292 -0.00850030 -0.03446119
v 0.02700996 -0.01153978 0.02218438
v 0.01675292 -0.01153978 0.02328826
v 0.02706033 -0.00850030 0.02213806
v 0.01675292 -0.00850030 0.02328826
v 0.02566990 -0.00850030 0.02328826
v 0.02566990 -0.01153978 0.02328826
f 1 2 5
f 1 5 3
f 1 3 7
f 1 7 12
f 1 12 8
f 1 8 4
f 1 4 6
f 1 6 2
f 2 6 10
f 2 10 11
f 2 11 9
f 2 9 5
f 3 5 7
f 4 8 10
f 4 10 6
f 5 9 7
f 7 9 11
f 7 11 12
f 8 12 11
f 8 11 10

