# https://github.com/mikedh/trimesh
v 0.02384403 -0.01153978 0.02328826
v 0.02384403 -0.01409330 0.02328826
v 0.02384403 -0.01153978 -0.04043239
v 0.01674285 -0.01153978 0.02328826
v 0.02297098 -0.01736533 0.02328826
v 0.02384403 -0.01409330 -0.04043239
v 0.01674285 -0.01153978 -0.03446949
v 0.01674285 -0.01736533 0.02328826
v 0.02297098 -0.01736533 -0.03969014
v 0.01674285 -0.01736533 -0.03446949
f 1 2 6
f 1 6 3
f 1 3 7
f 1 7 4
f 1 4 8
f 1 8 5
f 1 5 2
f 2 5 9
f 2 9 6
f 3 6 10
f 3 10 7
f 4 7 10
f 4 10 8
f 5 8 10
f 5 10 9
f 6 9 10

