# https://github.com/mikedh/trimesh
v -0.10135227 -0.00923333 0.03118835
v -0.10135227 -0.01475000 0.03118835
v -0.10135227 -0.00923333 -0.02346079
v -0.10185655 -0.00599055 0.03116161
v -0.11094572 -0.00923333 0.03068551
v -0.11094572 -0.01475000 0.03068551
v -0.10135227 -0.01475000 -0.02346079
v -0.11094572 -0.00599055 -0.02191482
v -0.10185655 -0.00599055 -0.02336985
v -0.11094572 -0.00599055 0.03068016
v -0.11094572 -0.01475000 -0.02190947
v -0.11094572 -0.00923333 -0.02191482
f 1 2 7
f 1 7 3
f 1 3 9
f 1 9 4
f 1 4 5
f 1 5 6
f 1 6 2
f 2 6 11
f 2 11 7
f 3 7 12
f 3 12 8
f 3 8 9
f 4 10 5
f 4 9 8
f 4 8 10
f 5 10 8
f 5 8 12
f 5 12 11
f 5 11 6
f 7 11 12

