# https://github.com/mikedh/trimesh
v -0.09213669 -0.00599055 0.00001180
v -0.09550264 -0.00599055 0.00001180
v -0.09213669 -0.00923297 0.00001180
v -0.09213669 -0.00599055 -0.02494124
v -0.09550264 -0.00923297 0.00001180
v -0.09797721 -0.00599055 -0.00249425
v -0.09213669 -0.00923297 -0.02494124
v -0.09797721 -0.00599055 -0.02400087
v -0.09797721 -0.00923297 -0.00249425
v -0.09797721 -0.00923297 -0.02400087
f 1 2 5
f 1 5 3
f 1 3 7
f 1 7 4
f 1 4 8
f 1 8 6
f 1 6 2
f 2 6 9
f 2 9 5
f 3 5 9
f 3 9 10
f 3 10 7
f 4 7 10
f 4 10 8
f 6 8 10
f 6 10 9

