# https://github.com/mikedh/trimesh
v -0.09646359 -0.01475000 0.00188016
v -0.09791509 -0.01475000 0.00247768
v -0.09646359 -0.01199594 0.00188016
v -0.06018341 -0.01475000 0.00188016
v -0.09791509 -0.01475000 0.03136545
v -0.09791509 -0.01199594 0.00247768
v -0.06018341 -0.01199594 0.00188016
v -0.06018341 -0.01475000 0.03334284
v -0.09791509 -0.01199594 0.03136545
v -0.06656559 -0.01199594 0.03301020
v -0.06018341 -0.01199594 0.03334284
f 1 2 6
f 1 6 3
f 1 3 7
f 1 7 4
f 1 4 8
f 1 8 5
f 1 5 2
f 2 5 9
f 2 9 6
f 3 6 9
f 3 9 10
f 3 10 11
f 3 11 7
f 4 7 11
f 4 11 8
f 5 8 10
f 5 10 9
f 8 11 10

