# https://github.com/mikedh/trimesh
v -0.09798542 -0.00599055 -0.00558851
v -0.09798542 -0.00599055 -0.00249617
v -0.09798542 -0.00275000 -0.00558851
v 0.03576280 -0.00599055 -0.00558851
v -0.09798542 -0.00291463 -0.00249617
v -0.09549739 -0.00599055 0.00001080
v -0.09798542 -0.00275000 -0.00250714
v 0.03576280 -0.00275000 -0.00558851
v 0.03650000 -0.00599055 -0.00000016
v -0.09549739 -0.00275000 0.00001080
v 0.03648683 -0.00599055 0.00001080
v 0.03650000 -0.00275000 -0.00000016
v 0.03648683 -0.00275000 0.00001080
f 1 2 5
f 1 5 7
f 1 7 3
f 1 3 8
f 1 8 4
f 1 4 9
f 1 9 11
f 1 11 6
f 1 6 2
f 2 6 10
f 2 10 5
f 3 7 10
f 3 10 13
f 3 13 12
f 3 12 8
f 4 8 12
f 4 12 9
f 5 10 7
f 6 11 13
f 6 13 10
f 9 12 13
f 9 13 11

