# https://github.com/mikedh/trimesh
v 0.01674285 -0.00850000 0.03064266
v -0.01832230 -0.00850000 0.05953162
v 0.01674285 -0.02050000 0.03064266
v 0.01674285 -0.00850000 -0.03447320
v -0.02311973 -0.00850000 0.06193038
v -0.01832230 -0.02050000 0.05953162
v 0.01674285 -0.02050000 -0.03447320
v -0.00508653 -0.00850000 -0.01615199
v -0.02311973 -0.02050000 0.06193038
v -0.02847935 -0.00850000 0.06200593
v -0.00508653 -0.02050000 -0.01615199
v -0.00878634 -0.00850000 -0.01230831
v -0.02847935 -0.02050000 0.06200593
v -0.03334104 -0.00850000 0.05972995
v -0.00878634 -0.02050000 -0.01230831
v -0.01158126 -0.00850000 -0.00775634
v -0.03334104 -0.02050000 0.05972995
v -0.03671959 -0.00850000 0.05555573
v -0.01158126 -0.02050000 -0.00775634
v -0.01636799 -0.00850000 0.00228255
v -0.03671959 -0.02050000 0.05555573
v -0.03795642 -0.00850000 0.05033324
v -0.01636799 -0.02050000 0.00228255
v -0.03678384 -0.00850000 0.04510131
v -0.03795642 -0.02050000 0.05033324
v -0.03678384 -0.02050000 0.04510131
f 1 2 6
f 1 6 3
f 1 3 7
f 1 7 4
f 1 4 8
f 1 8 12
f 1 12 16
f 1 16 20
f 1 20 24
f 1 24 22
f 1 22 18
f 1 18 14
f 1 14 10
f 1 10 5
f 1 5 2
f 2 5 9
f 2 9 6
f 3 6 9
f 3 9 13
f 3 13 17
f 3 17 21
f 3 21 25
f 3 25 26
f 3 26 23
f 3 23 19
f 3 19 15
f 3 15 11
f 3 11 7
f 4 7 11
f 4 11 8
f 5 10 13
f 5 13 9
f 8 11 15
f 8 15 12
f 10 14 17
f 10 17 13
f 12 15 19
f 12 19 16
f 14 18 21
f 14 21 17
f 16 19 23
f 16 23 20
f 18 22 25
f 18 25 21
f 20 23 26
f 20 26 24
f 22 24 26
f 22 26 25

