# https://github.com/mikedh/trimesh
v -0.11101136 -0.02475000 -0.00542206
v -0.11227575 -0.02475000 -0.01340659
v -0.11101136 -0.01476277 -0.00543205
v -0.11110841 -0.01476277 -0.00338849
v -0.11110841 -0.02475000 -0.00338849
v -0.11227575 -0.01476277 -0.01340992
v -0.11276099 -0.02475000 -0.01463139
v -0.11200957 -0.01476277 -0.00156126
v -0.11200957 -0.02475000 -0.00156126
v -0.11276376 -0.01476277 -0.01463472
v -0.11372592 -0.02475000 -0.01553003
v -0.12588181 -0.01476277 0.01619840
v -0.12588181 -0.02475000 0.01619840
v -0.11372592 -0.01476277 -0.01553003
v -0.11498199 -0.02475000 -0.01592942
v -0.12794753 -0.01476277 0.01775270
v -0.12795031 -0.02475000 0.01775603
v -0.11498199 -0.01476277 -0.01592609
v -0.11628520 -0.02475000 -0.01574969
v -0.11628797 -0.01476277 -0.01574969
v -0.13051513 -0.01476277 0.01806889
v -0.13051791 -0.02475000 0.01807222
v -0.11738877 -0.02475000 -0.01503079
v -0.11738877 -0.01476277 -0.01503079
v -0.13290250 -0.01476277 0.01706042
v -0.13290250 -0.02475000 0.01706042
v -0.11741650 -0.01476277 -0.01500416
v -0.13792956 -0.02475000 0.00610042
v -0.13741937 -0.01476277 0.01352913
v -0.13742492 -0.02475000 0.01352580
v -0.13792956 -0.01476277 0.00610042
v -0.13903868 -0.02475000 0.00786440
v -0.13876140 -0.01476277 0.01192823
v -0.13876140 -0.02475000 0.01192823
v -0.13903868 -0.01476277 0.00786440
v -0.13933537 -0.02475000 0.00992793
v -0.13933537 -0.01476277 0.00992793
f 1 2 3
f 1 3 4
f 1 4 5
f 1 5 9
f 1 9 13
f 1 13 17
f 1 17 22
f 1 22 26
f 1 26 30
f 1 30 34
f 1 34 36
f 1 36 32
f 1 32 28
f 1 28 23
f 1 23 19
f 1 19 15
f 1 15 11
f 1 11 7
f 1 7 2
f 2 6 3
f 2 7 6
f 3 6 10
f 3 10 14
f 3 14 18
f 3 18 20
f 3 20 24
f 3 24 27
f 3 27 31
f 3 31 35
f 3 35 37
f 3 37 33
f 3 33 29
f 3 29 25
f 3 25 21
f 3 21 16
f 3 16 12
f 3 12 8
f 3 8 4
f 4 8 9
f 4 9 5
f 6 7 10
f 7 11 10
f 8 12 13
f 8 13 9
f 10 11 14
f 11 15 14
f 12 16 17
f 12 17 13
f 14 15 18
f 15 19 20
f 15 20 18
f 16 21 22
f 16 22 17
f 19 23 20
f 20 23 24
f 21 25 22
f 22 25 26
f 23 27 24
f 23 28 27
f 25 29 30
f 25 30 26
f 27 28 31
f 28 32 35
f 28 35 31
f 29 33 30
f 30 33 34
f 32 36 37
f 32 37 35
f 33 37 36
f 33 36 34

