# https://github.com/mikedh/trimesh
v 0.08024608 -0.02050000 -0.08774222
v 0.08024608 -0.01736533 -0.08774222
v 0.15674047 -0.02050000 -0.08774222
v 0.01674285 -0.02050000 -0.03446584
v 0.04035443 -0.01736533 -0.05427874
v 0.15674047 -0.01736533 -0.08774222
v 0.15674047 -0.02050000 -0.08666626
v 0.01674285 -0.02050000 0.02328826
v 0.01674285 -0.01736533 -0.03446584
v 0.15674047 -0.01736533 -0.08666626
v 0.04616482 -0.02050000 0.00610549
v 0.02702067 -0.01736533 0.02217970
v 0.01674285 -0.01736533 0.02328826
v 0.02567771 -0.02050000 0.02328826
v 0.02688363 -0.02050000 0.02227752
v 0.02567771 -0.01736533 0.02328826
f 1 2 6
f 1 6 3
f 1 3 7
f 1 7 11
f 1 11 15
f 1 15 14
f 1 14 8
f 1 8 4
f 1 4 5
f 1 5 2
f 2 5 9
f 2 9 13
f 2 13 16
f 2 16 12
f 2 12 10
f 2 10 6
f 3 6 10
f 3 10 7
f 4 8 13
f 4 13 9
f 4 9 5
f 7 10 12
f 7 12 11
f 8 14 16
f 8 16 13
f 11 12 15
f 12 16 14
f 12 14 15

