# https://github.com/mikedh/trimesh
v -0.06135543 -0.00599055 0.02925116
v -0.06135543 -0.00599055 0.03328429
v -0.06135543 -0.00275000 0.02925116
v 0.02131593 -0.00599055 0.02925116
v -0.06135543 -0.00275000 0.03328429
v -0.00000138 -0.00599055 0.03649929
v 0.02131593 -0.00275000 0.02925116
v 0.02028810 -0.00599055 0.03004373
v -0.00000138 -0.00275000 0.03649929
v 0.00727434 -0.00599055 0.03554210
v 0.01824863 -0.00275000 0.03161044
v 0.01824863 -0.00599055 0.03161044
v 0.00944330 -0.00275000 0.03525615
v 0.00944330 -0.00599055 0.03525615
v 0.01622535 -0.00599055 0.03244842
v 0.01182268 -0.00599055 0.03427128
f 1 2 5
f 1 5 3
f 1 3 7
f 1 7 4
f 1 4 8
f 1 8 12
f 1 12 15
f 1 15 16
f 1 16 14
f 1 14 10
f 1 10 6
f 1 6 2
f 2 6 9
f 2 9 5
f 3 5 9
f 3 9 13
f 3 13 11
f 3 11 7
f 4 7 8
f 6 10 9
f 7 11 8
f 8 11 12
f 9 10 13
f 10 14 13
f 11 15 12
f 11 13 16
f 11 16 15
f 13 14 16

