# https://github.com/mikedh/trimesh
v -0.16630967 -0.00275000 0.02777902
v -0.17862924 -0.00275000 0.02996855
v -0.16630967 -0.01475000 0.02777902
v -0.16630967 -0.00275000 -0.02637229
v -0.17862924 -0.01475000 0.02996855
v -0.18724655 -0.00275000 0.02911152
v -0.16630967 -0.01475000 -0.02637229
v -0.17146303 -0.00275000 -0.02875553
v -0.18724655 -0.01475000 0.02911152
v -0.19525533 -0.00275000 0.02583016
v -0.17146303 -0.01475000 -0.02875553
v -0.18003354 -0.00275000 -0.02999999
v -0.19525533 -0.01475000 0.02583016
v -0.20199599 -0.00275000 0.02039448
v -0.18003354 -0.01475000 -0.02999999
v -0.18859979 -0.00275000 -0.02873792
v -0.20199599 -0.01475000 0.02039448
v -0.20690679 -0.00275000 0.01326236
v -0.18859979 -0.01475000 -0.02873792
v -0.19645111 -0.00275000 -0.02508674
v -0.20690679 -0.01475000 0.01326236
v -0.20957497 -0.00275000 0.00502080
v -0.19645111 -0.01475000 -0.02508674
v -0.20292793 -0.00275000 -0.01933995
v -0.20957497 -0.01475000 0.00502080
v -0.20977923 -0.00275000 -0.00363167
v -0.20292793 -0.01475000 -0.01933995
v -0.20749830 -0.00275000 -0.01198477
v -0.20977923 -0.01475000 -0.00363167
v -0.20749830 -0.01475000 -0.01198477
f 1 2 5
f 1 5 3
f 1 3 7
f 1 7 4
f 1 4 8
f 1 8 12
f 1 12 16
f 1 16 20
f 1 20 24
f 1 24 28
f 1 28 26
f 1 26 22
f 1 22 18
f 1 18 14
f 1 14 10
f 1 10 6
f 1 6 2
f 2 6 9
f 2 9 5
f 3 5 9
f 3 9 13
f 3 13 17
f 3 17 21
f 3 21 25
f 3 25 29
f 3 29 30
f 3 30 27
f 3 27 23
f 3 23 19
f 3 19 15
f 3 15 11
f 3 11 7
f 4 7 11
f 4 11 8
f 6 10 13
f 6 13 9
f 8 11 15
f 8 15 12
f 10 14 17
f 10 17 13
f 12 15 19
f 12 19 16
f 14 18 21
f 14 21 17
f 16 19 23
f 16 23 20
f 18 22 25
f 18 25 21
f 20 23 27
f 20 27 24
f 22 26 29
f 22 29 25
f 24 27 30
f 24 30 28
f 26 28 30
f 26 30 29

