# https://github.com/mikedh/trimesh
v -0.11094967 -0.00275118 0.03068292
v -0.14790069 -0.00275118 0.02874688
v -0.11094967 -0.01474749 0.03068292
v -0.11094967 -0.00275118 -0.02191963
v -0.14790069 -0.01474749 0.02874688
v -0.15131483 -0.00275118 0.02856666
v -0.15131483 -0.01474984 0.02856666
v -0.14790069 -0.01474984 0.02874173
v -0.13051778 -0.01476042 0.01806778
v -0.12795322 -0.01476042 0.01775369
v -0.12589051 -0.01476042 0.01619353
v -0.12587075 -0.01476042 0.01617293
v -0.11201264 -0.01476042 -0.00156034
v -0.11111168 -0.01476042 -0.00338825
v -0.11101685 -0.01476042 -0.00543242
v -0.11094967 -0.01474749 -0.02191963
v -0.15131483 -0.01470046 -0.01602398
v -0.15131483 -0.00275118 -0.01601883
v -0.13932976 -0.01476042 0.00992715
v -0.13876073 -0.01476042 0.01193013
v -0.13740930 -0.01476042 0.01352633
v -0.13290057 -0.01476042 0.01705342
v -0.15131483 -0.01474984 -0.01602398
v -0.11227739 -0.01476042 -0.01340827
v -0.11276738 -0.01476042 -0.01462859
v -0.11373157 -0.01476042 -0.01552968
v -0.11498816 -0.01476042 -0.01592615
v -0.13903734 -0.01476042 0.00785724
v -0.11629217 -0.01476042 -0.01574593
v -0.11739466 -0.01476042 -0.01503022
v -0.13792300 -0.01476042 0.00609627
f 1 2 5
f 1 5 3
f 1 3 16
f 1 16 4
f 1 4 18
f 1 18 6
f 1 6 2
f 2 6 7
f 2 7 5
f 3 5 7
f 3 7 8
f 3 8 9
f 3 9 10
f 3 10 11
f 3 11 12
f 3 12 13
f 3 13 14
f 3 14 15
f 3 15 16
f 4 16 23
f 4 23 17
f 4 17 18
f 6 18 17
f 6 17 23
f 6 23 7
f 7 19 20
f 7 20 21
f 7 21 22
f 7 22 9
f 7 9 8
f 7 23 19
f 9 22 21
f 9 21 20
f 9 20 19
f 9 19 28
f 9 28 31
f 9 31 30
f 9 30 29
f 9 29 27
f 9 27 26
f 9 26 25
f 9 25 24
f 9 24 15
f 9 15 14
f 9 14 13
f 9 13 12
f 9 12 11
f 9 11 10
f 15 24 16
f 16 24 25
f 16 25 26
f 16 26 27
f 16 27 23
f 19 23 28
f 23 27 29
f 23 29 30
f 23 30 31
f 23 31 28

