# https://github.com/mikedh/trimesh
v -0.00001590 -0.00923297 -0.03650000
v -0.02995893 -0.00923297 -0.03492795
v -0.00001590 -0.00599055 -0.03650000
v 0.00942787 -0.00923297 -0.03524951
v -0.02995893 -0.00599055 -0.03492795
v -0.09213669 -0.00923297 -0.02493833
v 0.00942787 -0.00599055 -0.03524951
v 0.00945305 -0.00923297 -0.03524236
v -0.09213669 -0.00599055 -0.02493833
v -0.09213669 -0.00923297 0.03166954
v 0.01471638 -0.00599055 -0.03307009
v 0.01471638 -0.00923297 -0.03307009
v -0.09213669 -0.00599055 0.03166954
v -0.08096786 -0.00599055 0.03225548
v -0.00001590 -0.00923297 0.03650000
v 0.01824206 -0.00599055 -0.03160523
v 0.01824206 -0.00923297 -0.03160523
v -0.00001590 -0.00599055 0.03650000
v 0.00942787 -0.00923297 0.03524951
v 0.02579707 -0.00599055 -0.02580296
v 0.02579707 -0.00923297 -0.02580296
v 0.00942787 -0.00599055 0.03524951
v 0.01471638 -0.00923297 0.03307009
v 0.01182030 -0.00599055 0.03427056
v 0.02627555 -0.00599055 -0.02531705
v 0.02674144 -0.00923297 -0.02483115
v 0.01471638 -0.00599055 0.03307009
v 0.01824206 -0.00923297 0.03160523
v 0.02917164 -0.00599055 -0.02152985
v 0.03160184 -0.00599055 -0.01824285
v 0.03160184 -0.00923297 -0.01824285
v 0.01824206 -0.00599055 0.03160523
v 0.02233435 -0.00923297 0.02846828
v 0.02407201 -0.00599055 0.02713919
v 0.03244548 -0.00599055 -0.01622063
v 0.03525343 -0.00923297 -0.00943941
v 0.02579707 -0.00923297 0.02580296
v 0.02579707 -0.00599055 0.02580296
v 0.03525343 -0.00599055 -0.00943941
v 0.03650000 -0.00923297 0.00000000
v 0.02737103 -0.00599055 0.02376645
v 0.03160184 -0.00923297 0.01824286
v 0.03650000 -0.00599055 0.00000000
v 0.03525343 -0.00923297 0.00943941
v 0.03026712 -0.00599055 0.01998639
v 0.03357873 -0.00923297 0.01349100
v 0.03160184 -0.00599055 0.01824286
v 0.03525343 -0.00599055 0.00943941
f 1 2 5
f 1 5 3
f 1 3 7
f 1 7 4
f 1 4 8
f 1 8 12
f 1 12 17
f 1 17 21
f 1 21 26
f 1 26 31
f 1 31 36
f 1 36 40
f 1 40 44
f 1 44 46
f 1 46 42
f 1 42 37
f 1 37 33
f 1 33 28
f 1 28 23
f 1 23 19
f 1 19 15
f 1 15 10
f 1 10 6
f 1 6 2
f 2 6 9
f 2 9 5
f 3 5 9
f 3 9 13
f 3 13 14
f 3 14 18
f 3 18 22
f 3 22 24
f 3 24 27
f 3 27 32
f 3 32 34
f 3 34 38
f 3 38 41
f 3 41 45
f 3 45 47
f 3 47 48
f 3 48 43
f 3 43 39
f 3 39 35
f 3 35 30
f 3 30 29
f 3 29 25
f 3 25 20
f 3 20 16
f 3 16 11
f 3 11 7
f 4 7 8
f 6 10 13
f 6 13 9
f 7 11 8
f 8 11 12
f 10 14 13
f 10 15 14
f 11 16 17
f 11 17 12
f 14 15 18
f 15 19 22
f 15 22 18
f 16 20 21
f 16 21 17
f 19 23 24
f 19 24 22
f 20 25 21
f 21 25 26
f 23 27 24
f 23 28 32
f 23 32 27
f 25 29 26
f 26 29 30
f 26 30 31
f 28 33 34
f 28 34 32
f 30 35 31
f 31 35 36
f 33 37 34
f 34 37 38
f 35 39 36
f 36 39 43
f 36 43 40
f 37 41 38
f 37 42 41
f 40 43 48
f 40 48 44
f 41 42 45
f 42 46 47
f 42 47 45
f 44 48 46
f 46 48 47

