# https://github.com/mikedh/trimesh
v 0.13700040 -0.01409306 -0.07011063
v 0.11588226 -0.01736533 -0.05238154
v 0.13700040 -0.01736533 -0.07011063
v 0.13700040 -0.01409306 -0.09602687
v 0.02705661 -0.01409306 0.02214369
v 0.02697848 -0.01736533 0.02221377
v 0.13700040 -0.01736533 -0.09602687
v 0.09009849 -0.01409306 -0.09602687
v 0.02688919 -0.01409306 0.02228385
v 0.02624180 -0.01409306 0.02282109
v 0.02629761 -0.01736533 0.02277437
v 0.09009849 -0.01736533 -0.09602687
v 0.02297139 -0.01409306 -0.03969789
v 0.02567255 -0.01409306 0.02328826
v 0.02567255 -0.01736533 0.02328826
v 0.02297139 -0.01736533 -0.03969789
v 0.02297139 -0.01409306 0.02328826
v 0.02297139 -0.01736533 0.02328826
f 1 2 3
f 1 3 7
f 1 7 4
f 1 4 8
f 1 8 13
f 1 13 17
f 1 17 14
f 1 14 10
f 1 10 9
f 1 9 5
f 1 5 2
f 2 5 6
f 2 6 11
f 2 11 15
f 2 15 18
f 2 18 16
f 2 16 12
f 2 12 7
f 2 7 3
f 4 7 12
f 4 12 8
f 5 9 6
f 6 9 10
f 6 10 11
f 8 12 16
f 8 16 13
f 10 14 15
f 10 15 11
f 13 16 18
f 13 18 17
f 14 17 18
f 14 18 15

