# https://github.com/mikedh/trimesh
v -0.10135184 -0.01475000 -0.00097581
v -0.10023725 -0.01475000 -0.00097581
v -0.10135223 -0.01475000 0.00216490
v -0.10185609 -0.00923333 0.00001516
v -0.10135184 -0.00923333 -0.00097581
v -0.10023725 -0.00923333 -0.00097581
v -0.09791509 -0.01475000 0.00248467
v -0.10135223 -0.01475000 0.03118169
v -0.10185609 -0.00923333 0.03115953
v -0.10185609 -0.00599055 0.00001516
v -0.10049651 -0.00599055 0.00001516
v -0.09800035 -0.00599055 0.00250367
v -0.09799958 -0.00599569 0.00250367
v -0.09791509 -0.00923333 0.00248467
v -0.09791509 -0.01475000 0.03136849
v -0.10185609 -0.00599055 0.03115953
v -0.09799958 -0.00599055 0.01841304
v -0.09791509 -0.00923333 0.03136849
v -0.09799958 -0.00599055 0.03136216
f 1 2 7
f 1 7 15
f 1 15 8
f 1 8 3
f 1 3 4
f 1 4 10
f 1 10 5
f 1 5 6
f 1 6 2
f 2 6 14
f 2 14 7
f 3 8 9
f 3 9 4
f 4 9 16
f 4 16 10
f 5 10 11
f 5 11 6
f 6 11 12
f 6 12 13
f 6 13 14
f 7 14 18
f 7 18 15
f 8 15 9
f 9 15 18
f 9 18 16
f 10 16 19
f 10 19 17
f 10 17 12
f 10 12 11
f 12 17 13
f 13 17 14
f 14 17 19
f 14 19 18
f 16 18 19

