# https://github.com/mikedh/trimesh
v 0.12319725 -0.01409274 -0.12377651
v 0.12319725 -0.01153978 -0.12377651
v 0.20095640 -0.01409274 -0.12377651
v 0.09381001 -0.01409274 -0.09912894
v 0.20095640 -0.01153978 -0.12377651
v 0.09068924 -0.01153978 -0.09650870
v 0.16586509 -0.01409274 -0.09432037
v 0.02387012 -0.01409274 -0.04044700
v 0.02387012 -0.01153978 -0.04044700
v 0.16586509 -0.01153978 -0.09432037
v 0.10627575 -0.01409274 -0.04431978
v 0.02387012 -0.01409274 0.02327387
v 0.02387012 -0.01153978 0.02327387
v 0.10627575 -0.01153978 -0.04431978
v 0.02697355 -0.01409274 0.02220850
v 0.02569056 -0.01409274 0.02327387
v 0.02569056 -0.01153978 0.02327387
v 0.02688686 -0.01153978 0.02228048
f 1 2 5
f 1 5 3
f 1 3 7
f 1 7 11
f 1 11 15
f 1 15 16
f 1 16 12
f 1 12 8
f 1 8 4
f 1 4 2
f 2 4 6
f 2 6 9
f 2 9 13
f 2 13 17
f 2 17 18
f 2 18 14
f 2 14 10
f 2 10 5
f 3 5 10
f 3 10 7
f 4 8 9
f 4 9 6
f 7 10 14
f 7 14 11
f 8 12 13
f 8 13 9
f 11 14 15
f 12 16 17
f 12 17 13
f 14 18 15
f 15 18 17
f 15 17 16

