# https://github.com/mikedh/trimesh
v -0.15131483 -0.00275000 0.02856993
v -0.16630396 -0.00275000 0.02777934
v -0.15131483 -0.01475000 0.02856993
v -0.15131483 -0.00275000 -0.01602020
v -0.16630396 -0.01475000 0.02777934
v -0.16630396 -0.00275000 -0.02637312
v -0.15131483 -0.01475000 -0.01602558
v -0.15131483 -0.01470067 -0.01602558
v -0.16360254 -0.00275000 -0.02512001
v -0.16630396 -0.01475000 -0.02637312
v -0.16360254 -0.01475000 -0.02512001
f 1 2 5
f 1 5 3
f 1 3 7
f 1 7 8
f 1 8 4
f 1 4 9
f 1 9 6
f 1 6 2
f 2 6 10
f 2 10 5
f 3 5 10
f 3 10 11
f 3 11 7
f 4 8 9
f 6 9 11
f 6 11 10
f 7 11 9
f 7 9 8

