# https://github.com/mikedh/trimesh
v -0.00041470 0.03484837 -0.02096918
v -0.00166702 0.02135150 -0.02093222
v -0.00166702 0.03384893 -0.02093222
v -0.00166702 0.03484837 -0.02090759
v -0.00033669 0.03784668 -0.01894904
v 0.00000821 0.03870781 -0.01837010
v 0.00016013 0.03880373 -0.01830440
v 0.00034490 0.03884166 -0.01827566
v 0.00379802 0.03484837 -0.02062838
v 0.00380213 0.03384893 -0.02064891
v 0.00380213 0.02135150 -0.02064891
v -0.00290703 0.03484837 -0.02077209
v -0.00111272 0.02105925 -0.01996732
v -0.00669273 0.02105925 -0.01884229
v -0.00702942 0.02135150 -0.01978666
v -0.00144941 0.03884835 -0.01821407
v -0.00023815 0.03834417 -0.01861235
v -0.00025457 0.04378084 -0.00323961
v 0.00058715 0.04378084 -0.00319444
v 0.00330941 0.03884835 -0.01797182
v 0.00618769 0.03884166 -0.01719579
v 0.00786293 0.03484837 -0.01944586
v 0.00902081 0.02135150 -0.01896136
v 0.00455352 0.02105925 -0.01947050
v 0.00180662 0.02105925 -0.01971275
v -0.00291934 0.03870781 -0.01813606
v -0.00270994 0.03834417 -0.01841526
v -0.00266477 0.03784668 -0.01876017
v -0.00702942 0.03384893 -0.01978666
v -0.00702121 0.03484837 -0.01976613
v -0.00323550 0.03884166 -0.01798824
v -0.00913578 0.02105925 -0.01756122
v -0.01191141 0.02135150 -0.01729023
v -0.01084797 0.03484837 -0.01795129
v -0.00312464 0.03882827 -0.01801699
v -0.00023815 0.04385000 -0.00298914
v 0.00015603 0.04385000 -0.00299325
v -0.00108398 0.04378084 -0.00305894
v -0.00100186 0.04385000 -0.00282490
v 0.00054199 0.04385000 -0.00294808
v 0.00139603 0.04378084 -0.00293166
v 0.00784650 0.03884835 -0.01650188
v 0.00637246 0.03880373 -0.01715884
v 0.00685697 0.03834417 -0.01730665
v 0.00707048 0.03784668 -0.01758175
v 0.00900849 0.03484837 -0.01894083
v 0.00902081 0.03384893 -0.01896136
v 0.00653670 0.03870781 -0.01716705
v 0.00728809 0.02105925 -0.01840295
v 0.01012121 0.03484837 -0.01837010
v 0.01361949 0.02135150 -0.01598042
v 0.00985432 0.02105925 -0.01740109
v -0.00883604 0.03884166 -0.01600095
v -0.00611789 0.03884835 -0.01722043
v -0.01173075 0.02105925 -0.01619393
v -0.01290506 0.03484837 -0.01653473
v -0.01191141 0.03384893 -0.01729023
v -0.01598043 0.02135150 -0.01361949
v -0.01189910 0.03484837 -0.01727381
v -0.00976810 0.03784668 -0.01623910
v -0.00951353 0.03834417 -0.01600095
v -0.00184358 0.04378084 -0.00267298
v -0.00169987 0.04385000 -0.00246769
v 0.00128517 0.04385000 -0.00270583
v 0.00194212 0.04385000 -0.00228292
v 0.00210636 0.04378084 -0.00247179
v 0.00943551 0.03884166 -0.01565195
v 0.00929180 0.03880373 -0.01577102
v 0.00919326 0.03870781 -0.01590241
v 0.00909882 0.03834417 -0.01623910
v 0.00917684 0.03784668 -0.01657990
v 0.01360718 0.03484837 -0.01596400
v 0.01361949 0.03384893 -0.01598042
v 0.01653473 0.03484837 -0.01290506
v 0.01729023 0.02135150 -0.01191141
v 0.01435857 0.02105925 -0.01391923
v 0.01217830 0.02105925 -0.01560678
v -0.00893869 0.03882827 -0.01595168
v -0.01036346 0.03884835 -0.01504837
v -0.01582030 0.02105925 -0.01223168
v -0.01179645 0.03884166 -0.01396029
v -0.01167327 0.03880373 -0.01409579
v -0.01155830 0.03834417 -0.01459261
v -0.01598043 0.03384893 -0.01361949
v -0.01596401 0.03484837 -0.01360718
v -0.01896136 0.02135150 -0.00902081
v -0.01837010 0.03484837 -0.01012121
v -0.00917273 0.03870781 -0.01591062
v -0.00247179 0.04378084 -0.00210636
v -0.00228292 0.04385000 -0.00194212
v 0.00246769 0.04385000 -0.00169987
v 0.00267298 0.04378084 -0.00184358
v 0.01396029 0.03884166 -0.01179644
v 0.01185393 0.03884835 -0.01390691
v 0.01409579 0.03880373 -0.01167327
v 0.01459261 0.03834417 -0.01155830
v 0.01472811 0.03815454 -0.01159115
v 0.01727381 0.03484837 -0.01189909
v 0.01729023 0.03384893 -0.01191141
v 0.01795129 0.03484837 -0.01084797
v 0.01978666 0.02135150 -0.00702942
v 0.01770082 0.02105925 -0.00930823
v -0.01159525 0.03870781 -0.01424360
v -0.01717937 0.02105925 -0.00983379
v -0.01390691 0.03884835 -0.01185393
v -0.01565195 0.03884166 -0.00943551
v -0.01896136 0.03384893 -0.00902081
v -0.01862467 0.02105925 -0.00727988
v -0.02064891 0.02135150 -0.00380213
v -0.01944586 0.03484837 -0.00786293
v -0.01894083 0.03484837 -0.00900849
v -0.01657990 0.03784668 -0.00917684
v -0.01623910 0.03834417 -0.00909882
v -0.01591063 0.03870111 -0.00918915
v -0.01577102 0.03880373 -0.00929180
v -0.00293166 0.04378084 -0.00139603
v -0.00270583 0.04385000 -0.00128517
v 0.00282490 0.04385000 -0.00100186
v 0.00305894 0.04378084 -0.00108397
v 0.01600096 0.03884166 -0.00883604
v 0.01504837 0.03884835 -0.01036346
v 0.01424360 0.03870781 -0.01159525
v 0.01623910 0.03784668 -0.00976810
v 0.01976613 0.03484837 -0.00702120
v 0.01978666 0.03384893 -0.00702942
v 0.01600096 0.03834417 -0.00951353
v 0.02077209 0.03484837 -0.00290702
v 0.02093222 0.02135150 -0.00166702
v 0.01960599 0.02105925 -0.00394173
v -0.01650188 0.03884835 -0.00784650
v -0.01992216 0.02105925 -0.00173682
v -0.02093223 0.02135150 0.00166702
v -0.02096918 0.03484837 0.00041470
v -0.02064891 0.03384893 -0.00380213
v -0.02062838 0.03484837 -0.00379802
v -0.01719580 0.03884166 -0.00618769
v -0.01715884 0.03880373 -0.00637246
v -0.01716705 0.03870781 -0.00653670
v -0.01730666 0.03834417 -0.00685697
v -0.01758176 0.03784668 -0.00707048
v -0.01601738 0.03859849 -0.00913988
v -0.00319444 0.04378084 -0.00058715
v -0.00294809 0.04385000 -0.00054199
v 0.00298914 0.04385000 -0.00023815
v 0.00323961 0.04378084 -0.00025457
v 0.01798824 0.03884166 -0.00323550
v 0.01722043 0.03884835 -0.00611789
v 0.01593116 0.03880373 -0.00900849
v 0.01591062 0.03870781 -0.00917273
v 0.02090759 0.03484837 -0.00166702
v 0.02093222 0.03384893 -0.00166702
v 0.01804573 0.03880373 -0.00305894
v 0.01813606 0.03870781 -0.00291934
v 0.01841527 0.03834417 -0.00270994
v 0.01876017 0.03784668 -0.00266477
v 0.01821407 0.03884835 -0.00144941
v 0.02096918 0.03484837 -0.00041470
v 0.02064891 0.02135150 0.00380213
v 0.01992215 0.02105925 0.00173683
v 0.01977024 0.02105925 -0.00101417
v -0.01977024 0.02105925 0.00101417
v -0.02093223 0.03384893 0.00166702
v -0.01960600 0.02105925 0.00394173
v -0.01978666 0.02135150 0.00702942
v -0.02077209 0.03484837 0.00290703
v -0.02090759 0.03484837 0.00166702
v -0.01894904 0.03784668 0.00033669
v -0.01837010 0.03870781 -0.00000821
v -0.01830441 0.03880373 -0.00016013
v -0.01827566 0.03884166 -0.00034490
v -0.01797182 0.03884835 -0.00330941
v -0.00323961 0.04378084 0.00025457
v -0.00298915 0.04385000 0.00023815
v 0.00299325 0.04385000 0.00015603
v 0.00319444 0.04378084 0.00058715
v 0.01827566 0.03884166 0.00034490
v 0.01894904 0.03784668 -0.00033669
v 0.01829209 0.03881712 0.00019709
v 0.01833725 0.03875465 0.00006980
v 0.01850149 0.03851149 -0.00015192
v 0.02062838 0.03484837 0.00379802
v 0.02064891 0.03384893 0.00380213
v 0.01944586 0.03484837 0.00786293
v 0.01896136 0.02135150 0.00902081
v 0.01862467 0.02105925 0.00727988
v -0.01770083 0.02105925 0.00930823
v -0.01978666 0.03384893 0.00702942
v -0.01729023 0.02135150 0.01191141
v -0.01795129 0.03484837 0.01084797
v -0.01976613 0.03484837 0.00702121
v -0.01798825 0.03884166 0.00323550
v -0.01804573 0.03880373 0.00305895
v -0.01813606 0.03870781 0.00291934
v -0.01841527 0.03834417 0.00270994
v -0.01876017 0.03784668 0.00266477
v -0.01821407 0.03884835 0.00144941
v -0.01861235 0.03834417 0.00023815
v -0.00305895 0.04378084 0.00108398
v -0.00282491 0.04385000 0.00100186
v 0.00294808 0.04385000 0.00054199
v 0.00293166 0.04378084 0.00139603
v 0.01719579 0.03884166 0.00618769
v 0.01797182 0.03884835 0.00330941
v 0.01894083 0.03484837 0.00900849
v 0.01896136 0.03384893 0.00902081
v 0.01715884 0.03880373 0.00637246
v 0.01716705 0.03870781 0.00653670
v 0.01730665 0.03834417 0.00685697
v 0.01758175 0.03784668 0.00707048
v 0.01650188 0.03884835 0.00784651
v 0.01837010 0.03484837 0.01012121
v 0.01598043 0.02135150 0.01361950
v 0.01582029 0.02105925 0.01223168
v 0.01717937 0.02105925 0.00983379
v -0.01435857 0.02105925 0.01391923
v -0.01729023 0.03384893 0.01191141
v -0.01361950 0.02135150 0.01598043
v -0.01653473 0.03484837 0.01290506
v -0.01727381 0.03484837 0.01189910
v -0.01623910 0.03784668 0.00976810
v -0.01600096 0.03834417 0.00951353
v -0.01600096 0.03884166 0.00883604
v -0.01722043 0.03884835 0.00611789
v -0.00267299 0.04378084 0.00184358
v -0.00246769 0.04385000 0.00169987
v 0.00270583 0.04385000 0.00128517
v 0.00228292 0.04385000 0.00194212
v 0.00247179 0.04378084 0.00210636
v 0.01565195 0.03884166 0.00943552
v 0.01657990 0.03784668 0.00917684
v 0.01572585 0.03882381 0.00933697
v 0.01580798 0.03877919 0.00925485
v 0.01601738 0.03859849 0.00913989
v 0.01596400 0.03484837 0.01360718
v 0.01598043 0.03384893 0.01361950
v 0.01290506 0.03484837 0.01653473
v 0.01191141 0.02135150 0.01729023
v 0.01173075 0.02105925 0.01619394
v -0.01217830 0.02105925 0.01560678
v -0.00985432 0.02105925 0.01740109
v -0.00902081 0.02135150 0.01896136
v -0.01012121 0.03484837 0.01837010
v -0.01361950 0.03384893 0.01598043
v -0.01360718 0.03484837 0.01596400
v -0.01396029 0.03884166 0.01179645
v -0.01406705 0.03881712 0.01169790
v -0.01472811 0.03815454 0.01159115
v -0.01504837 0.03884835 0.01036346
v -0.01593116 0.03880373 0.00900849
v -0.01591063 0.03870781 0.00917273
v -0.00210636 0.04378084 0.00247179
v -0.00194212 0.04385000 0.00228292
v 0.00169987 0.04385000 0.00246769
v 0.00184358 0.04378084 0.00267299
v 0.01179644 0.03884166 0.01396029
v 0.01390691 0.03884835 0.01185393
v 0.01167327 0.03880373 0.01409579
v 0.01155830 0.03834417 0.01459261
v 0.01036346 0.03884835 0.01504837
v 0.01189909 0.03484837 0.01727381
v 0.01191141 0.03384893 0.01729023
v 0.01084797 0.03484837 0.01795129
v 0.00702942 0.02135150 0.01978666
v 0.00669273 0.02105925 0.01884229
v 0.00913578 0.02105925 0.01756123
v -0.00728809 0.02105925 0.01840295
v -0.00455352 0.02105925 0.01947050
v -0.00380213 0.02135150 0.02064891
v -0.00786293 0.03484837 0.01944587
v -0.00902081 0.03384893 0.01896136
v -0.00900849 0.03484837 0.01894083
v -0.00917684 0.03784668 0.01657990
v -0.00909883 0.03834417 0.01623910
v -0.00919326 0.03870781 0.01590242
v -0.00929181 0.03880373 0.01577102
v -0.00943552 0.03884166 0.01565195
v -0.01185393 0.03884835 0.01390691
v -0.01444890 0.03851149 0.01155009
v -0.00139603 0.04378084 0.00293166
v -0.00128517 0.04385000 0.00270583
v 0.00100186 0.04385000 0.00282491
v 0.00108397 0.04378084 0.00305895
v 0.00883604 0.03884166 0.01600096
v 0.01159525 0.03870781 0.01424360
v 0.00893869 0.03882827 0.01595169
v 0.00910293 0.03875465 0.01591473
v 0.00925074 0.03864534 0.01591473
v 0.00954637 0.03829509 0.01601738
v 0.00976810 0.03784668 0.01623910
v 0.00702120 0.03484837 0.01976613
v 0.00702942 0.03384893 0.01978666
v 0.00290702 0.03484837 0.02077209
v 0.00166702 0.02135150 0.02093222
v 0.00111272 0.02105925 0.01996732
v -0.00180663 0.02105925 0.01971275
v -0.00380213 0.03384893 0.02064891
v 0.00041470 0.03484837 0.02096918
v -0.00690624 0.03825940 0.01734772
v -0.00707048 0.03784668 0.01758175
v -0.00784651 0.03884835 0.01650189
v -0.00379802 0.03484837 0.02062838
v -0.00618769 0.03884166 0.01719579
v -0.00630677 0.03882381 0.01716705
v -0.00642584 0.03877919 0.01715474
v -0.00058715 0.04378084 0.00319444
v -0.00054199 0.04385000 0.00294809
v 0.00023815 0.04385000 0.00298915
v 0.00025457 0.04378084 0.00323961
v 0.00323550 0.03884166 0.01798824
v 0.00611789 0.03884835 0.01722043
v 0.00297683 0.03875465 0.01809500
v 0.00269762 0.03829509 0.01845222
v 0.00144941 0.03884835 0.01821407
v 0.00166702 0.03484837 0.02090759
v 0.00166702 0.03384893 0.02093222
v 0.00033669 0.03784668 0.01894904
v -0.00000821 0.03870781 0.01837010
v -0.00016013 0.03880373 0.01830440
v -0.00034490 0.03884166 0.01827566
v -0.00665988 0.03859849 0.01719579
v -0.00330941 0.03884835 0.01797182
v 0.00318212 0.03883720 0.01800056
v 0.00312464 0.03882827 0.01801699
v 0.00023815 0.03834417 0.01861235
f 1 2 3
f 1 3 4
f 1 4 5
f 1 5 6
f 1 6 7
f 1 7 8
f 1 8 9
f 1 9 10
f 1 10 11
f 1 11 2
f 2 12 3
f 2 11 13
f 2 13 14
f 2 14 15
f 2 15 12
f 3 12 4
f 4 12 16
f 4 16 5
f 5 17 6
f 5 16 17
f 6 17 16
f 6 16 7
f 7 16 8
f 8 16 18
f 8 18 19
f 8 19 20
f 8 20 9
f 9 20 21
f 9 21 22
f 9 22 10
f 10 22 11
f 11 22 23
f 11 23 24
f 11 24 25
f 11 25 13
f 12 26 27
f 12 27 28
f 12 28 16
f 12 15 29
f 12 29 30
f 12 30 31
f 12 31 26
f 13 25 24
f 13 24 49
f 13 49 52
f 13 52 77
f 13 77 76
f 13 76 102
f 13 102 129
f 13 129 160
f 13 160 159
f 13 159 185
f 13 185 214
f 13 214 213
f 13 213 238
f 13 238 265
f 13 265 264
f 13 264 294
f 13 294 295
f 13 295 267
f 13 267 266
f 13 266 240
f 13 240 239
f 13 239 215
f 13 215 186
f 13 186 163
f 13 163 161
f 13 161 131
f 13 131 108
f 13 108 104
f 13 104 80
f 13 80 55
f 13 55 32
f 13 32 14
f 14 32 33
f 14 33 15
f 15 33 34
f 15 34 29
f 16 28 27
f 16 27 26
f 16 26 35
f 16 35 31
f 16 31 18
f 18 36 37
f 18 37 19
f 18 31 38
f 18 38 39
f 18 39 36
f 19 40 41
f 19 41 21
f 19 21 20
f 19 37 40
f 21 42 43
f 21 43 22
f 21 41 42
f 22 44 45
f 22 45 42
f 22 42 46
f 22 46 47
f 22 47 23
f 22 43 48
f 22 48 44
f 23 49 24
f 23 47 50
f 23 50 51
f 23 51 52
f 23 52 49
f 26 31 35
f 29 34 30
f 30 53 54
f 30 54 31
f 30 34 53
f 31 54 38
f 32 55 33
f 33 56 57
f 33 57 34
f 33 55 58
f 33 58 56
f 34 57 59
f 34 59 60
f 34 60 61
f 34 61 53
f 36 39 63
f 36 63 90
f 36 90 117
f 36 117 143
f 36 143 173
f 36 173 199
f 36 199 225
f 36 225 252
f 36 252 280
f 36 280 306
f 36 306 307
f 36 307 281
f 36 281 253
f 36 253 227
f 36 227 226
f 36 226 200
f 36 200 174
f 36 174 144
f 36 144 118
f 36 118 91
f 36 91 65
f 36 65 64
f 36 64 40
f 36 40 37
f 38 62 39
f 38 54 53
f 38 53 62
f 39 62 63
f 40 64 41
f 41 64 65
f 41 65 66
f 41 66 67
f 41 67 42
f 42 67 68
f 42 68 69
f 42 69 70
f 42 70 71
f 42 71 46
f 42 45 44
f 42 44 48
f 42 48 43
f 46 71 50
f 46 50 47
f 50 72 73
f 50 73 51
f 50 71 70
f 50 70 69
f 50 69 68
f 50 68 67
f 50 67 72
f 51 73 74
f 51 74 75
f 51 75 76
f 51 76 77
f 51 77 52
f 53 61 78
f 53 78 79
f 53 79 62
f 55 80 58
f 56 81 82
f 56 82 83
f 56 83 79
f 56 79 59
f 56 59 57
f 56 58 84
f 56 84 85
f 56 85 81
f 58 80 86
f 58 86 87
f 58 87 84
f 59 79 60
f 60 79 61
f 61 88 78
f 61 79 88
f 62 89 90
f 62 90 63
f 62 79 81
f 62 81 89
f 65 91 92
f 65 92 66
f 66 92 93
f 66 93 94
f 66 94 67
f 67 94 72
f 72 94 93
f 72 93 74
f 72 74 73
f 74 93 95
f 74 95 96
f 74 96 97
f 74 97 98
f 74 98 99
f 74 99 75
f 75 99 100
f 75 100 101
f 75 101 102
f 75 102 76
f 78 88 79
f 79 83 103
f 79 103 82
f 79 82 81
f 80 104 86
f 81 85 105
f 81 105 89
f 82 103 83
f 84 87 85
f 85 106 105
f 85 87 106
f 86 107 87
f 86 104 108
f 86 108 109
f 86 109 110
f 86 110 107
f 87 107 111
f 87 111 112
f 87 112 113
f 87 113 114
f 87 114 115
f 87 115 106
f 89 116 90
f 89 105 106
f 89 106 116
f 90 116 117
f 91 118 92
f 92 118 119
f 92 119 120
f 92 120 121
f 92 121 93
f 93 121 95
f 95 122 96
f 95 121 122
f 96 121 97
f 96 122 121
f 97 121 98
f 98 100 99
f 98 121 123
f 98 123 100
f 100 124 125
f 100 125 101
f 100 123 126
f 100 126 120
f 100 120 124
f 101 125 127
f 101 127 128
f 101 128 129
f 101 129 102
f 106 115 130
f 106 130 116
f 107 110 111
f 108 131 109
f 109 132 133
f 109 133 134
f 109 134 110
f 109 131 132
f 110 134 135
f 110 135 136
f 110 136 137
f 110 137 138
f 110 138 139
f 110 139 140
f 110 140 130
f 110 130 111
f 111 130 112
f 112 130 113
f 113 130 141
f 113 141 114
f 114 141 130
f 114 130 115
f 116 142 143
f 116 143 117
f 116 130 136
f 116 136 142
f 118 144 145
f 118 145 119
f 119 145 146
f 119 146 147
f 119 147 120
f 120 126 148
f 120 148 121
f 120 147 124
f 121 148 149
f 121 149 126
f 121 126 123
f 124 127 125
f 124 147 146
f 124 146 127
f 126 149 148
f 127 150 151
f 127 151 128
f 127 146 152
f 127 152 153
f 127 153 154
f 127 154 155
f 127 155 156
f 127 156 150
f 128 151 157
f 128 157 158
f 128 158 159
f 128 159 160
f 128 160 129
f 130 140 139
f 130 139 138
f 130 138 137
f 130 137 136
f 131 161 132
f 132 162 133
f 132 161 163
f 132 163 164
f 132 164 165
f 132 165 162
f 133 135 134
f 133 162 166
f 133 166 167
f 133 167 168
f 133 168 169
f 133 169 170
f 133 170 135
f 135 170 171
f 135 171 136
f 136 171 142
f 142 172 143
f 142 171 170
f 142 170 172
f 143 172 173
f 144 174 145
f 145 174 175
f 145 175 176
f 145 176 156
f 145 156 146
f 146 156 152
f 150 177 157
f 150 157 151
f 150 156 177
f 152 156 153
f 153 156 154
f 154 156 155
f 156 176 178
f 156 178 179
f 156 179 180
f 156 180 177
f 157 177 180
f 157 180 179
f 157 179 176
f 157 176 181
f 157 181 182
f 157 182 158
f 158 182 183
f 158 183 184
f 158 184 185
f 158 185 159
f 162 165 166
f 163 186 164
f 164 187 165
f 164 186 188
f 164 188 189
f 164 189 187
f 165 187 190
f 165 190 191
f 165 191 192
f 165 192 193
f 165 193 194
f 165 194 195
f 165 195 196
f 165 196 166
f 166 196 167
f 167 197 168
f 167 196 197
f 168 196 169
f 168 197 196
f 169 196 170
f 170 196 172
f 172 198 199
f 172 199 173
f 172 196 191
f 172 191 198
f 174 200 175
f 175 200 201
f 175 201 202
f 175 202 203
f 175 203 176
f 176 179 178
f 176 203 181
f 181 183 182
f 181 203 202
f 181 202 183
f 183 204 205
f 183 205 184
f 183 202 206
f 183 206 207
f 183 207 208
f 183 208 209
f 183 209 210
f 183 210 204
f 184 205 211
f 184 211 212
f 184 212 213
f 184 213 214
f 184 214 185
f 186 215 188
f 187 189 190
f 188 216 189
f 188 215 217
f 188 217 218
f 188 218 216
f 189 216 219
f 189 219 220
f 189 220 221
f 189 221 222
f 189 222 190
f 190 222 223
f 190 223 191
f 191 223 198
f 191 196 192
f 192 196 193
f 193 196 194
f 194 196 195
f 198 224 199
f 198 223 222
f 198 222 224
f 199 224 225
f 200 226 201
f 201 226 227
f 201 227 228
f 201 228 229
f 201 229 210
f 201 210 202
f 202 210 206
f 204 230 211
f 204 211 205
f 204 210 230
f 206 210 207
f 207 210 208
f 208 210 209
f 210 229 231
f 210 231 232
f 210 232 233
f 210 233 230
f 211 230 233
f 211 233 231
f 211 231 229
f 211 229 234
f 211 234 235
f 211 235 212
f 212 235 236
f 212 236 237
f 212 237 238
f 212 238 213
f 215 239 217
f 216 218 219
f 217 239 240
f 217 240 241
f 217 241 242
f 217 242 243
f 217 243 218
f 218 243 244
f 218 244 245
f 218 245 246
f 218 246 247
f 218 247 219
f 219 247 248
f 219 248 220
f 220 248 221
f 221 249 222
f 221 248 250
f 221 250 249
f 222 249 248
f 222 248 224
f 224 251 252
f 224 252 225
f 224 248 245
f 224 245 251
f 227 253 254
f 227 254 228
f 228 254 255
f 228 255 256
f 228 256 229
f 229 256 234
f 231 233 232
f 234 256 255
f 234 255 236
f 234 236 235
f 236 255 257
f 236 257 258
f 236 258 259
f 236 259 260
f 236 260 261
f 236 261 237
f 237 261 262
f 237 262 263
f 237 263 264
f 237 264 265
f 237 265 238
f 240 266 241
f 241 266 267
f 241 267 268
f 241 268 269
f 241 269 270
f 241 270 242
f 242 244 243
f 242 270 271
f 242 271 272
f 242 272 273
f 242 273 274
f 242 274 275
f 242 275 276
f 242 276 244
f 244 276 277
f 244 277 245
f 245 277 251
f 245 248 246
f 246 248 278
f 246 278 247
f 247 278 248
f 248 249 250
f 251 279 252
f 251 277 276
f 251 276 279
f 252 279 280
f 253 281 254
f 254 281 282
f 254 282 283
f 254 283 259
f 254 259 255
f 255 259 257
f 257 259 284
f 257 284 258
f 258 284 259
f 259 283 285
f 259 285 286
f 259 286 287
f 259 287 288
f 259 288 289
f 259 289 260
f 260 289 262
f 260 262 261
f 262 289 283
f 262 283 290
f 262 290 291
f 262 291 263
f 263 291 292
f 263 292 293
f 263 293 264
f 264 293 294
f 267 295 268
f 268 296 269
f 268 295 294
f 268 294 293
f 268 293 297
f 268 297 296
f 269 298 299
f 269 299 300
f 269 300 271
f 269 271 270
f 269 296 301
f 269 301 302
f 269 302 303
f 269 303 304
f 269 304 298
f 271 300 272
f 272 300 273
f 273 300 274
f 274 300 275
f 275 300 276
f 276 300 279
f 279 305 306
f 279 306 280
f 279 300 302
f 279 302 305
f 281 307 308
f 281 308 282
f 282 308 309
f 282 309 310
f 282 310 283
f 283 310 290
f 283 289 288
f 283 288 287
f 283 287 286
f 283 286 285
f 290 310 309
f 290 309 292
f 290 292 291
f 292 311 312
f 292 312 313
f 292 313 314
f 292 314 315
f 292 315 293
f 292 309 311
f 293 315 297
f 296 297 301
f 297 315 314
f 297 314 316
f 297 316 317
f 297 317 318
f 297 318 319
f 297 319 301
f 298 300 299
f 298 304 320
f 298 320 300
f 300 320 304
f 300 304 303
f 300 303 302
f 301 319 321
f 301 321 302
f 302 321 305
f 305 321 319
f 305 319 308
f 305 308 306
f 306 308 307
f 308 313 309
f 308 319 313
f 309 322 323
f 309 323 311
f 309 313 322
f 311 323 313
f 311 313 312
f 313 319 318
f 313 318 317
f 313 317 324
f 313 324 316
f 313 316 314
f 313 323 322
f 316 324 317

