# https://github.com/mikedh/trimesh
v 0.12317613 -0.01153978 -0.12379091
v 0.12317613 -0.00850030 -0.12379091
v 0.17519210 -0.01153978 -0.12379091
v 0.04190281 -0.01153978 -0.05557397
v 0.17519210 -0.00850030 -0.12379091
v 0.04190281 -0.00850030 -0.05557397
v 0.17519210 -0.01153978 -0.10216262
v 0.11966577 -0.01153978 -0.05557397
v 0.17519210 -0.00850030 -0.10216262
v 0.11966577 -0.00850030 -0.05557397
f 1 2 5
f 1 5 3
f 1 3 7
f 1 7 8
f 1 8 4
f 1 4 6
f 1 6 2
f 2 6 10
f 2 10 9
f 2 9 5
f 3 5 9
f 3 9 7
f 4 8 10
f 4 10 6
f 7 9 10
f 7 10 8

