# https://github.com/mikedh/trimesh
v -0.09798542 -0.00291463 -0.00249715
v -0.09798542 -0.00599055 -0.00249715
v -0.09798542 -0.00275000 -0.00250891
v -0.10049730 -0.00275000 0.00001080
v -0.10049730 -0.00599055 0.00001080
v -0.09798542 -0.00599055 -0.02400166
v -0.09798542 -0.00275000 -0.02400166
v -0.11094572 -0.00275000 0.00001080
v -0.11094572 -0.00599055 0.00001080
v -0.11094572 -0.00599055 -0.02191914
v -0.11094572 -0.00275000 -0.02191914
f 1 2 6
f 1 6 7
f 1 7 3
f 1 3 4
f 1 4 5
f 1 5 2
f 2 5 9
f 2 9 10
f 2 10 6
f 3 7 11
f 3 11 8
f 3 8 4
f 4 8 9
f 4 9 5
f 6 10 11
f 6 11 7
f 8 11 10
f 8 10 9

