# https://github.com/mikedh/trimesh
v 0.03186492 0.01252143 -0.01721434
v 0.03179628 0.01252143 -0.01750608
v 0.03119101 0.01329045 -0.01739223
v 0.03082911 0.01504109 -0.00318921
v 0.03174636 0.01252143 0.01667081
v 0.03176508 0.01252143 -0.01756301
v 0.03107246 0.01285020 -0.01836708
v 0.03047345 0.01365005 -0.01767686
v 0.03076048 0.01365005 -0.01707202
v 0.02934405 0.01504109 -0.00998474
v 0.03081663 0.01504109 -0.00296863
v 0.03089151 0.01344361 0.01750335
v 0.03165900 0.01252143 0.01773106
v 0.03109742 0.01252143 -0.01864460
v 0.03096639 0.01252143 -0.01875845
v 0.03021761 0.01325518 -0.01856633
v 0.03018641 0.01365005 -0.01795437
v 0.02208096 0.01504109 -0.02175418
v 0.02302940 0.01504109 -0.02054450
v 0.02637392 0.01504109 -0.01627506
v 0.02702909 0.01504109 -0.01489460
v 0.03075423 0.01504109 -0.00212897
v 0.03059200 0.01365005 0.01741796
v 0.03026753 0.01365005 0.01799434
v 0.03048592 0.01329218 0.01847821
v 0.03115358 0.01252143 0.01867745
v 0.00161452 0.01252143 -0.03590026
v 0.01667732 0.01504109 -0.02613036
v 0.02454567 0.01504109 0.01411626
v 0.02972467 0.01365005 0.01837859
v 0.00053504 0.01365005 0.03508634
v 0.00117774 0.01329218 0.03524289
v 0.02991187 0.01285686 0.01926805
v 0.03090399 0.01252143 0.01891938
v 0.00051008 0.01252143 -0.03633432
v 0.00089071 0.01325518 -0.03563698
v 0.01042507 0.01504109 -0.02919012
v -0.00139929 0.01504109 0.03029033
v -0.00145545 0.01504109 0.03031880
v -0.00223542 0.01504109 0.03067458
v -0.00237893 0.01504109 0.03073151
v 0.00019809 0.01365005 0.03520731
v 0.00059120 0.01285686 0.03602562
v 0.00158956 0.01252143 0.03569118
v 0.00012946 0.01252143 -0.03636279
v -0.00006398 0.01325518 -0.03577218
v 0.00034161 0.01365005 -0.03523138
v 0.00514623 0.01504109 -0.03042826
v -0.00344593 0.01504109 0.03080267
v -0.00057564 0.01365005 0.03517885
v -0.00024493 0.01326307 0.03576945
v 0.00043520 0.01252143 0.03629602
v 0.00046016 0.01252143 0.03628890
v -0.00082523 0.01252143 -0.03617066
v -0.00093754 0.01285020 -0.03589315
v -0.00041964 0.01365005 -0.03513888
v -0.00329618 0.01504109 -0.03081963
v -0.00176119 0.01504109 -0.03081251
v 0.00365492 0.01504109 -0.03077693
v -0.01022856 0.01504109 0.02925855
v -0.00117466 0.01326307 0.03549194
v -0.00090635 0.01252143 0.03623909
v -0.00053820 0.01252143 0.03633159
v -0.00085019 0.01252143 -0.03616355
v -0.01636849 0.01504109 -0.02632248
v -0.01008504 0.01504109 -0.02931109
v -0.01160755 0.01504109 0.02859679
v -0.01649952 0.01504109 0.02624148
v -0.00096874 0.01252143 0.03620351
v -0.03045165 0.01252143 -0.01926367
v -0.02182829 0.01504109 -0.02201034
v -0.03050157 0.01285020 -0.01898615
v -0.03017709 0.01365005 -0.01808957
v -0.02193436 0.01504109 0.02190088
v -0.03004606 0.01365005 0.01805126
v -0.03081979 0.01329218 0.01804415
v -0.03035805 0.01285686 0.01890515
v -0.03026445 0.01252143 0.01918267
v -0.03136265 0.01252143 -0.01836708
v -0.02618364 0.01504109 -0.01658815
v -0.03083851 0.01329045 -0.01806822
v -0.03044540 0.01365005 -0.01775513
v -0.02626476 0.01504109 0.01645734
v -0.03053276 0.01365005 0.01759586
v -0.03108810 0.01344361 0.01701948
v -0.03151240 0.01252143 0.01812954
v -0.03149992 0.01252143 0.01815088
v -0.03133769 0.01252143 0.01837859
v -0.03129402 0.01252143 0.01842128
v -0.03153112 0.01252143 -0.01807534
v -0.02855476 0.01504109 -0.01170675
v -0.03096954 0.01344361 -0.01700798
v -0.03065756 0.01365005 -0.01700798
v -0.02922241 0.01504109 -0.01032630
v -0.02927233 0.01504109 0.01018837
v -0.03077611 0.01365005 0.01697679
v -0.03188055 0.01252143 0.01714045
v -0.03080731 0.01504109 0.00339996
v -0.03176199 0.01252143 -0.01704356
v -0.03176824 0.01252143 -0.01701509
v -0.03079483 0.01504109 -0.00355212
v -0.02961552 0.01504109 0.00868695
v -0.03080731 0.01504109 0.00187008
f 1 2 3
f 1 3 4
f 1 4 5
f 1 5 13
f 1 13 26
f 1 26 34
f 1 34 44
f 1 44 53
f 1 53 52
f 1 52 63
f 1 63 62
f 1 62 69
f 1 69 78
f 1 78 89
f 1 89 88
f 1 88 87
f 1 87 86
f 1 86 97
f 1 97 100
f 1 100 99
f 1 99 90
f 1 90 79
f 1 79 70
f 1 70 64
f 1 64 54
f 1 54 45
f 1 45 35
f 1 35 27
f 1 27 15
f 1 15 14
f 1 14 6
f 1 6 2
f 2 6 7
f 2 7 3
f 3 7 8
f 3 8 9
f 3 9 4
f 4 9 10
f 4 10 21
f 4 21 20
f 4 20 19
f 4 19 18
f 4 18 28
f 4 28 37
f 4 37 48
f 4 48 59
f 4 59 58
f 4 58 57
f 4 57 66
f 4 66 65
f 4 65 71
f 4 71 80
f 4 80 91
f 4 91 94
f 4 94 101
f 4 101 103
f 4 103 98
f 4 98 102
f 4 102 95
f 4 95 83
f 4 83 74
f 4 74 68
f 4 68 67
f 4 67 60
f 4 60 49
f 4 49 41
f 4 41 40
f 4 40 39
f 4 39 38
f 4 38 29
f 4 29 22
f 4 22 11
f 4 11 5
f 5 12 13
f 5 11 12
f 6 14 7
f 7 14 15
f 7 15 16
f 7 16 8
f 8 16 17
f 8 17 18
f 8 18 19
f 8 19 20
f 8 20 21
f 8 21 9
f 9 21 10
f 11 22 12
f 12 23 24
f 12 24 25
f 12 25 26
f 12 26 13
f 12 22 23
f 15 27 28
f 15 28 16
f 16 28 17
f 17 28 18
f 22 29 23
f 23 29 24
f 24 30 25
f 24 29 30
f 25 30 31
f 25 31 32
f 25 32 33
f 25 33 34
f 25 34 26
f 27 35 36
f 27 36 28
f 28 36 37
f 29 38 30
f 30 38 31
f 31 38 39
f 31 39 40
f 31 40 41
f 31 41 42
f 31 42 43
f 31 43 32
f 32 43 33
f 33 43 44
f 33 44 34
f 35 45 46
f 35 46 36
f 36 46 47
f 36 47 37
f 37 47 48
f 41 49 42
f 42 49 50
f 42 50 51
f 42 51 43
f 43 51 52
f 43 52 53
f 43 53 44
f 45 54 46
f 46 55 56
f 46 56 47
f 46 54 55
f 47 56 57
f 47 57 58
f 47 58 59
f 47 59 48
f 49 60 50
f 50 61 51
f 50 60 61
f 51 62 63
f 51 63 52
f 51 61 62
f 54 64 55
f 55 64 65
f 55 65 66
f 55 66 56
f 56 66 57
f 60 67 61
f 61 67 68
f 61 68 62
f 62 68 69
f 64 70 65
f 65 70 72
f 65 72 73
f 65 73 71
f 68 74 75
f 68 75 76
f 68 76 77
f 68 77 78
f 68 78 69
f 70 79 72
f 71 73 80
f 72 79 81
f 72 81 73
f 73 81 82
f 73 82 80
f 74 83 84
f 74 84 75
f 75 84 76
f 76 84 85
f 76 85 86
f 76 86 87
f 76 87 88
f 76 88 89
f 76 89 77
f 77 89 78
f 79 90 81
f 80 82 91
f 81 90 92
f 81 92 82
f 82 92 93
f 82 93 94
f 82 94 91
f 83 95 84
f 84 96 85
f 84 95 96
f 85 97 86
f 85 96 98
f 85 98 97
f 90 99 92
f 92 99 100
f 92 100 101
f 92 101 93
f 93 101 94
f 95 102 96
f 96 102 98
f 97 98 103
f 97 103 101
f 97 101 100

