# https://github.com/mikedh/trimesh
v -0.08968927 -0.00599055 0.00466532
v -0.11094572 -0.00599055 0.00466812
v -0.08968927 -0.00275000 0.00466532
v -0.06135543 -0.00599055 0.00466532
v -0.11094572 -0.00275000 0.00466812
v -0.11094572 -0.00599055 0.03068326
v -0.06135543 -0.00275000 0.00466532
v -0.06135543 -0.00599055 0.03328282
v -0.11094572 -0.00275000 0.03068326
v -0.08968927 -0.00599055 0.03179816
v -0.06135543 -0.00275000 0.03328282
v -0.08098087 -0.00599055 0.03225476
v -0.08968927 -0.00275000 0.03179816
f 1 2 5
f 1 5 3
f 1 3 7
f 1 7 4
f 1 4 8
f 1 8 12
f 1 12 10
f 1 10 6
f 1 6 2
f 2 6 9
f 2 9 5
f 3 5 9
f 3 9 13
f 3 13 11
f 3 11 7
f 4 7 11
f 4 11 8
f 6 10 13
f 6 13 9
f 8 11 12
f 10 12 13
f 11 13 12

