# https://github.com/mikedh/trimesh
v -0.02599029 -0.01475000 -0.03513791
v -0.02996108 -0.01475000 -0.03492951
v -0.02599029 -0.01199594 -0.03513791
v -0.02599029 -0.01475000 -0.00428341
v -0.05703145 -0.01199594 -0.03058040
v -0.02996108 -0.01199594 -0.03492951
v -0.09791509 -0.01475000 -0.02401144
v -0.02599029 -0.01199594 -0.00428341
v -0.09791509 -0.01475000 -0.00428341
v -0.09791509 -0.01199594 -0.02401144
v -0.09791509 -0.01199594 -0.00428341
f 1 2 6
f 1 6 3
f 1 3 8
f 1 8 4
f 1 4 9
f 1 9 7
f 1 7 2
f 2 5 6
f 2 7 5
f 3 6 5
f 3 5 10
f 3 10 11
f 3 11 8
f 4 8 11
f 4 11 9
f 5 7 10
f 7 9 11
f 7 11 10

