# https://github.com/mikedh/trimesh
v 0.00716862 0.02074998 0.01971544
v 0.00716862 0.01814973 0.01971544
v 0.00716862 0.02105925 0.01859665
v 0.00714751 0.02104983 0.03380243
v 0.00714751 0.01505052 0.03380243
v 0.00716862 0.01504109 0.01739341
v 0.00669159 0.02105925 0.01884292
v 0.00627365 0.02104983 0.03525897
v 0.00687733 0.02104983 0.03462569
v 0.00716862 0.02105925 -0.01845030
v 0.00687733 0.01505052 0.03462569
v -0.00046390 0.01504109 0.02922170
v 0.00716862 0.01504109 -0.02995490
v 0.00111495 0.02105925 0.01996876
v 0.00546312 0.02104983 0.03558265
v 0.00627365 0.01505052 0.03525897
v 0.00716862 0.02104983 -0.03510559
v 0.00455549 0.02105925 -0.01947058
v -0.00073830 0.01504109 0.02962981
v 0.00365631 0.01504109 -0.03077817
v 0.00716862 0.01505052 -0.03510559
v -0.00455878 0.02105925 0.01946917
v -0.00205541 0.02104983 0.03594151
v 0.00546312 0.01505052 0.03558265
v -0.00238047 0.01504109 0.03073453
v -0.00224116 0.01504109 0.03067824
v -0.00146018 0.01504109 0.03031938
v -0.00140530 0.01504109 0.03028420
v 0.00202258 0.02104983 -0.03594293
v 0.00180728 0.02105925 -0.01970982
v -0.00176835 0.01504109 -0.03081335
v 0.00202258 0.01505052 -0.03594293
v -0.01648881 0.02104983 0.03200110
v -0.00948108 0.02104983 0.03472421
v -0.00986101 0.02105925 0.01740045
v -0.00205541 0.01505052 0.03594151
v -0.00345274 0.01504109 0.03080490
v -0.00549174 0.02104983 -0.03557703
v -0.00111824 0.02105925 -0.01996313
v -0.00330076 0.01504109 -0.03082039
v -0.00549174 0.01505052 -0.03557703
v -0.02277888 0.02104983 0.02787070
v -0.01648881 0.01505052 0.03200110
v -0.00948108 0.01505052 0.03472421
v -0.01218285 0.02105925 0.01560615
v -0.00494716 0.01504109 0.03046715
v -0.01276542 0.02104983 -0.03365608
v -0.00669909 0.02105925 -0.01884434
v -0.01008898 0.01504109 -0.02930755
v -0.01276542 0.01505052 -0.03365608
v -0.02807689 0.02104983 0.02253002
v -0.02277888 0.01505052 0.02787070
v -0.01436538 0.02105925 0.01391740
v -0.01649725 0.01504109 0.02623824
v -0.01161295 0.01504109 0.02859545
v -0.01023251 0.01504109 0.02925688
v -0.01948187 0.02104983 -0.03027154
v -0.01173537 0.02105925 -0.01619159
v -0.01637060 0.01504109 -0.02632409
v -0.01948187 0.01505052 -0.03027154
v -0.03214644 0.02104983 0.01619721
v -0.02807689 0.01505052 0.02253002
v -0.01770038 0.02105925 0.00930852
v -0.02193457 0.01504109 0.02190378
v -0.02534979 0.02104983 -0.02555712
v -0.01371527 0.02105925 -0.01427064
v -0.02182904 0.01504109 -0.02201074
v -0.02534979 0.01505052 -0.02555712
v -0.03214644 0.01505052 0.01619721
v -0.03481022 0.02104983 0.00916076
v -0.02626586 0.01504109 0.01645756
v -0.01960429 0.02105925 0.00393971
v -0.03010745 0.02104983 -0.01973093
v -0.01581758 0.02105925 -0.01223007
v -0.02522736 0.01504109 -0.01778183
v -0.03010745 0.01505052 -0.01973093
v -0.03481022 0.01505052 0.00916076
v -0.02927581 0.01504109 0.01018808
v -0.02692864 0.01504109 0.01507842
v -0.03595848 0.02104983 0.00172322
v -0.01976893 0.02105925 0.00101254
v -0.03355221 0.02104983 -0.01303926
v -0.01862490 0.02105925 -0.00727640
v -0.01718114 0.02105925 -0.00983064
v -0.02618565 0.01504109 -0.01658564
v -0.03355221 0.01505052 -0.01303926
v -0.03595848 0.01505052 0.00172322
v -0.03081244 0.01504109 0.00339790
v -0.01992091 0.02105925 -0.00173168
v -0.03553210 0.02104983 -0.00577764
v -0.01925391 0.02105925 -0.00458848
v -0.02855815 0.01504109 -0.01170937
v -0.02922515 0.01504109 -0.01033023
v -0.03553210 0.01505052 -0.00577764
v -0.03079555 0.01504109 -0.00354708
v -0.03044939 0.01504109 -0.00504585
f 1 2 6
f 1 6 13
f 1 13 21
f 1 21 17
f 1 17 10
f 1 10 3
f 1 3 4
f 1 4 5
f 1 5 2
f 2 5 6
f 3 7 8
f 3 8 9
f 3 9 4
f 3 10 18
f 3 18 30
f 3 30 39
f 3 39 48
f 3 48 58
f 3 58 66
f 3 66 74
f 3 74 84
f 3 84 83
f 3 83 91
f 3 91 89
f 3 89 81
f 3 81 72
f 3 72 63
f 3 63 53
f 3 53 45
f 3 45 35
f 3 35 22
f 3 22 14
f 3 14 7
f 4 9 11
f 4 11 5
f 5 11 6
f 6 11 12
f 6 12 19
f 6 19 28
f 6 28 27
f 6 27 26
f 6 26 25
f 6 25 37
f 6 37 46
f 6 46 56
f 6 56 55
f 6 55 54
f 6 54 64
f 6 64 71
f 6 71 79
f 6 79 78
f 6 78 88
f 6 88 95
f 6 95 96
f 6 96 93
f 6 93 92
f 6 92 85
f 6 85 75
f 6 75 67
f 6 67 59
f 6 59 49
f 6 49 40
f 6 40 31
f 6 31 20
f 6 20 13
f 7 14 15
f 7 15 8
f 8 15 24
f 8 24 16
f 8 16 11
f 8 11 9
f 10 17 18
f 11 16 19
f 11 19 12
f 13 20 21
f 14 22 23
f 14 23 15
f 15 23 36
f 15 36 24
f 16 24 25
f 16 25 26
f 16 26 27
f 16 27 28
f 16 28 19
f 17 21 32
f 17 32 29
f 17 29 18
f 18 29 30
f 20 31 32
f 20 32 21
f 22 33 34
f 22 34 23
f 22 35 33
f 23 34 44
f 23 44 36
f 24 36 37
f 24 37 25
f 29 32 41
f 29 41 38
f 29 38 39
f 29 39 30
f 31 40 32
f 32 40 41
f 33 42 52
f 33 52 43
f 33 43 44
f 33 44 34
f 33 35 42
f 35 45 42
f 36 44 37
f 37 44 46
f 38 47 48
f 38 48 39
f 38 41 50
f 38 50 47
f 40 49 41
f 41 49 50
f 42 51 62
f 42 62 52
f 42 45 53
f 42 53 51
f 43 52 54
f 43 54 55
f 43 55 56
f 43 56 44
f 44 56 46
f 47 57 48
f 47 50 60
f 47 60 57
f 48 57 58
f 49 59 50
f 50 59 60
f 51 61 69
f 51 69 62
f 51 53 63
f 51 63 61
f 52 62 64
f 52 64 54
f 57 65 58
f 57 60 68
f 57 68 65
f 58 65 66
f 59 67 60
f 60 67 68
f 61 63 70
f 61 70 77
f 61 77 69
f 62 69 71
f 62 71 64
f 63 72 70
f 65 73 74
f 65 74 66
f 65 68 76
f 65 76 73
f 67 75 76
f 67 76 68
f 69 77 78
f 69 78 79
f 69 79 71
f 70 72 80
f 70 80 87
f 70 87 77
f 72 81 80
f 73 82 83
f 73 83 84
f 73 84 74
f 73 76 86
f 73 86 82
f 75 85 76
f 76 85 86
f 77 87 88
f 77 88 78
f 80 81 89
f 80 89 90
f 80 90 94
f 80 94 87
f 82 86 94
f 82 94 90
f 82 90 83
f 83 90 91
f 85 92 86
f 86 92 93
f 86 93 94
f 87 94 95
f 87 95 88
f 89 91 90
f 93 96 94
f 94 96 95

