# https://github.com/mikedh/trimesh
v -0.05526203 -0.00599055 0.00466421
v -0.05526203 -0.00599055 0.01636133
v -0.05526203 -0.00275000 0.00466421
v 0.03588595 -0.00599055 0.00466421
v -0.05526203 -0.00275000 0.01636133
v 0.03238849 -0.00599055 0.01636133
v 0.03588595 -0.00275000 0.00466421
v 0.03559151 -0.00599055 0.00689599
v 0.03238849 -0.00275000 0.01636133
v 0.03259370 -0.00599055 0.01587237
v 0.03525247 -0.00275000 0.00944726
v 0.03525247 -0.00599055 0.00944726
f 1 2 5
f 1 5 3
f 1 3 7
f 1 7 4
f 1 4 8
f 1 8 12
f 1 12 10
f 1 10 6
f 1 6 2
f 2 6 9
f 2 9 5
f 3 5 9
f 3 9 11
f 3 11 7
f 4 7 8
f 6 10 9
f 7 11 8
f 8 11 12
f 9 10 11
f 10 12 11

