# https://github.com/mikedh/trimesh
v -0.09550241 -0.00599055 0.00001080
v -0.09791033 -0.00599055 0.00247917
v -0.09550241 -0.00275000 0.00001080
v 0.03648542 -0.00599055 0.00001080
v -0.09791033 -0.00599055 0.00466375
v -0.09791033 -0.00275000 0.00247917
v 0.03648542 -0.00275000 0.00001080
v 0.03620910 -0.00599055 0.00217125
v -0.09791033 -0.00275000 0.00466375
v 0.03588016 -0.00599055 0.00466375
v 0.03588016 -0.00275000 0.00466375
f 1 2 6
f 1 6 3
f 1 3 7
f 1 7 4
f 1 4 8
f 1 8 10
f 1 10 5
f 1 5 2
f 2 5 9
f 2 9 6
f 3 6 9
f 3 9 11
f 3 11 7
f 4 7 8
f 5 10 11
f 5 11 9
f 7 11 8
f 8 11 10

