# https://github.com/mikedh/trimesh
v 0.03650000 -0.00923297 -0.00000757
v 0.03525216 -0.00923297 0.00943749
v 0.03650000 -0.01475000 -0.00000757
v 0.03525216 -0.00923297 -0.00944549
v 0.03525216 -0.01475000 0.00943749
v 0.03160039 -0.00923297 0.01823906
v 0.03525216 -0.01475000 -0.00944549
v 0.03160039 -0.00923297 -0.01824706
v 0.03160039 -0.01475000 0.01823906
v 0.02580160 -0.00923297 0.02580370
v 0.03160039 -0.01475000 -0.01824706
v 0.02897625 -0.00923297 -0.02180773
v 0.02580160 -0.01475000 0.02580370
v 0.01824115 -0.00923297 0.03160945
v 0.02674360 -0.01475000 -0.02482500
v 0.02675582 -0.00923297 -0.02481785
v 0.01824115 -0.01475000 0.03160945
v 0.00944508 -0.00923297 0.03525591
v 0.02673747 -0.00923297 -0.02483930
v 0.01586780 -0.01475000 -0.03654374
v 0.00944508 -0.01475000 0.03525591
v 0.00510822 -0.00923297 0.03582791
v 0.01586780 -0.00925079 -0.03654374
v 0.02580160 -0.00923297 -0.02580454
v -0.02135948 -0.01475000 -0.03654374
v 0.00000675 -0.01475000 0.03650000
v 0.00000675 -0.00923297 0.03650000
v -0.02135948 -0.00925079 -0.03654374
v 0.00003122 -0.00923297 -0.03649369
v 0.00944508 -0.00923297 -0.03524961
v 0.00946955 -0.00923297 -0.03524246
v 0.01824115 -0.00923297 -0.03160314
v 0.01826561 -0.00923297 -0.03158884
v -0.02598382 -0.01475000 -0.03513521
v -0.02232594 -0.01475000 0.03532741
v -0.02232594 -0.00923297 0.03532741
v -0.02598382 -0.00923297 -0.03513521
v -0.02231982 -0.00923297 -0.03532825
v -0.00007277 -0.00923297 -0.03649369
v -0.02598382 -0.01475000 0.03513436
v -0.02598382 -0.00923297 0.03513436
f 1 2 5
f 1 5 3
f 1 3 7
f 1 7 4
f 1 4 8
f 1 8 12
f 1 12 16
f 1 16 19
f 1 19 24
f 1 24 33
f 1 33 32
f 1 32 31
f 1 31 30
f 1 30 29
f 1 29 39
f 1 39 38
f 1 38 37
f 1 37 41
f 1 41 36
f 1 36 27
f 1 27 22
f 1 22 18
f 1 18 14
f 1 14 10
f 1 10 6
f 1 6 2
f 2 6 9
f 2 9 5
f 3 5 9
f 3 9 13
f 3 13 17
f 3 17 21
f 3 21 26
f 3 26 35
f 3 35 40
f 3 40 34
f 3 34 25
f 3 25 20
f 3 20 15
f 3 15 11
f 3 11 7
f 4 7 11
f 4 11 8
f 6 10 13
f 6 13 9
f 8 11 12
f 10 14 17
f 10 17 13
f 11 15 16
f 11 16 12
f 14 18 21
f 14 21 17
f 15 19 16
f 15 20 19
f 18 22 21
f 19 20 23
f 19 23 24
f 20 25 28
f 20 28 23
f 21 22 26
f 22 27 26
f 23 28 39
f 23 39 29
f 23 29 30
f 23 30 31
f 23 31 32
f 23 32 33
f 23 33 24
f 25 34 37
f 25 37 28
f 26 27 36
f 26 36 35
f 28 37 38
f 28 38 39
f 34 40 41
f 34 41 37
f 35 36 41
f 35 41 40

