# https://github.com/mikedh/trimesh
v 0.05989469 0.01249895 0.00354640
v 0.03174137 0.01252143 0.01666340
v 0.03165929 0.01252143 0.01772028
v 0.05848761 0.01249895 0.01335186
v 0.05989469 -0.01249786 0.00354640
v 0.05966017 0.01249895 -0.00635300
v 0.03185862 0.01252143 -0.01723881
v 0.03185862 0.01252143 -0.01721533
v 0.03164756 0.01252143 0.01775551
v 0.05548584 0.01249895 0.02280502
v 0.05848761 -0.01249786 0.01335186
v 0.02508119 -0.01300000 0.00996986
v 0.02516327 -0.01300000 -0.00975848
v 0.05966017 -0.01249786 -0.00635300
v 0.05779579 0.01249895 -0.01607625
v 0.03178827 0.01252143 -0.01750890
v 0.03114336 0.01252143 0.01867147
v 0.05098318 0.01249895 0.03162406
v 0.05548584 -0.01249786 0.02280502
v 0.02469424 -0.01300000 0.01088582
v 0.02478805 -0.01300000 -0.01068618
v 0.05436017 -0.01249786 -0.02537675
v 0.05779579 -0.01249786 -0.01607625
v 0.05436017 0.01249895 -0.02537675
v 0.03176482 0.01252143 -0.01755587
v 0.03090885 0.01252143 0.01891807
v 0.04507345 0.01249895 0.03958586
v 0.05098318 -0.01249786 0.03162406
v 0.04507345 -0.01249786 0.03958586
v 0.01068208 -0.01300000 0.02478960
v 0.01089314 -0.01300000 -0.02469566
v 0.04317389 -0.01249786 -0.04165264
v 0.04944712 -0.01249786 -0.03397267
v 0.04944712 0.01249895 -0.03397267
v 0.03109646 0.01252143 -0.01864798
v 0.00158296 0.01252143 0.03568716
v 0.02978318 0.01249895 0.05208047
v 0.03794424 0.01249895 0.04646729
v 0.03794424 -0.01249786 0.04646729
v 0.02978318 -0.01249786 0.05208047
v 0.02080132 -0.01249786 0.05627275
v 0.00975575 -0.01300000 0.02516538
v 0.00996681 -0.01300000 -0.02508318
v 0.02730907 -0.01249786 -0.05341918
v 0.03572809 -0.01249786 -0.04819352
v 0.04317389 0.01249895 -0.04165264
v 0.03572809 0.01249895 -0.04819352
v 0.03096747 0.01252143 -0.01875367
v 0.00045730 0.01252143 0.03628606
v 0.02080132 0.01249895 0.05627275
v 0.01125663 -0.01249786 0.05892668
v -0.00996682 -0.01300000 0.02508318
v 0.00139535 -0.01249786 0.05998355
v -0.00975575 -0.01300000 -0.02516538
v -0.00139536 -0.01249786 -0.05998355
v 0.00847765 -0.01249786 -0.05939640
v 0.01813960 -0.01249786 -0.05718870
v 0.02730907 0.01249895 -0.05341918
v 0.00161814 0.01252143 -0.03589854
v -0.00053938 0.01252143 0.03632128
v 0.00139535 0.01249895 0.05998355
v 0.01125663 0.01249895 0.05892668
v -0.01089314 -0.01300000 0.02469566
v -0.00847766 -0.01249786 0.05939640
v -0.01813960 -0.01249786 0.05718870
v -0.02730907 -0.01249786 0.05341918
v -0.01068208 -0.01300000 -0.02478960
v -0.02080133 -0.01249786 -0.05627275
v -0.01125664 -0.01249786 -0.05892668
v -0.00139536 0.01249895 -0.05998355
v 0.00847765 0.01249895 -0.05939640
v 0.01813960 0.01249895 -0.05718870
v 0.00050420 0.01252143 -0.03633303
v -0.00056283 0.01252143 0.03632128
v -0.00847766 0.01249895 0.05939640
v -0.03572810 -0.01249786 0.04819352
v -0.04317389 -0.01249786 0.04165264
v -0.02478805 -0.01300000 0.01068618
v -0.01813960 0.01249895 0.05718870
v -0.02730907 0.01249895 0.05341918
v -0.04507345 -0.01249786 -0.03958586
v -0.03794425 -0.01249786 -0.04646729
v -0.02978319 -0.01249786 -0.05208047
v -0.02469425 -0.01300000 -0.01088582
v -0.02080133 0.01249895 -0.05627275
v -0.01125664 0.01249895 -0.05892668
v 0.00012898 0.01252143 -0.03635651
v 0.00015243 0.01252143 -0.03635651
v -0.00090288 0.01252143 0.03623908
v -0.03572810 0.01249895 0.04819352
v -0.04317389 0.01249895 0.04165264
v -0.04944712 -0.01249786 0.03397267
v -0.02516327 -0.01300000 0.00975848
v -0.05436017 -0.01249786 0.02537675
v -0.00193474 0.01252143 0.03564019
v -0.03026394 0.01252143 0.01917642
v -0.04507345 0.01249895 -0.03958586
v -0.05098318 -0.01249786 -0.03162406
v -0.03794425 0.01249895 -0.04646729
v -0.02978319 0.01249895 -0.05208047
v -0.02508119 -0.01300000 -0.00996986
v -0.05548584 -0.01249786 -0.02280502
v -0.00084425 0.01252143 -0.03616863
v -0.03128407 0.01252143 0.01841312
v -0.03133097 0.01252143 0.01837789
v -0.04944712 0.01249895 0.03397267
v -0.05779580 -0.01249786 0.01607625
v -0.05966017 -0.01249786 0.00635300
v -0.05989469 -0.01249786 -0.00354640
v -0.05436017 0.01249895 0.02537675
v -0.05098318 0.01249895 -0.03162406
v -0.03136615 0.01252143 -0.01836615
v -0.03045155 0.01252143 -0.01925862
v -0.05848761 -0.01249786 -0.01335186
v -0.05548584 0.01249895 -0.02280502
v -0.03149513 0.01252143 0.01814303
v -0.05779580 0.01249895 0.01607625
v -0.05966017 0.01249895 0.00635300
v -0.05989469 0.01249895 -0.00354640
v -0.03150686 0.01252143 0.01811954
v -0.03153031 0.01252143 -0.01807257
v -0.05848761 0.01249895 -0.01335186
v -0.03187035 0.01252143 0.01713312
v -0.03187035 0.01252143 0.01710964
v -0.03176482 0.01252143 -0.01701569
f 1 2 3
f 1 3 4
f 1 4 11
f 1 11 5
f 1 5 14
f 1 14 6
f 1 6 7
f 1 7 8
f 1 8 2
f 2 8 7
f 2 7 16
f 2 16 25
f 2 25 35
f 2 35 48
f 2 48 59
f 2 59 73
f 2 73 88
f 2 88 87
f 2 87 103
f 2 103 113
f 2 113 112
f 2 112 121
f 2 121 125
f 2 125 124
f 2 124 123
f 2 123 120
f 2 120 116
f 2 116 105
f 2 105 104
f 2 104 96
f 2 96 95
f 2 95 89
f 2 89 74
f 2 74 60
f 2 60 49
f 2 49 36
f 2 36 26
f 2 26 17
f 2 17 9
f 2 9 3
f 3 9 10
f 3 10 4
f 4 10 19
f 4 19 11
f 5 11 12
f 5 12 13
f 5 13 14
f 6 14 23
f 6 23 15
f 6 15 7
f 7 15 16
f 9 17 18
f 9 18 10
f 10 18 28
f 10 28 19
f 11 19 12
f 12 19 20
f 12 20 30
f 12 30 42
f 12 42 52
f 12 52 63
f 12 63 78
f 12 78 93
f 12 93 101
f 12 101 84
f 12 84 67
f 12 67 54
f 12 54 43
f 12 43 31
f 12 31 21
f 12 21 13
f 13 21 22
f 13 22 23
f 13 23 14
f 15 23 22
f 15 22 24
f 15 24 16
f 16 24 25
f 17 26 27
f 17 27 18
f 18 27 29
f 18 29 28
f 19 28 20
f 20 28 29
f 20 29 30
f 21 31 32
f 21 32 33
f 21 33 22
f 22 33 34
f 22 34 24
f 24 34 25
f 25 34 35
f 26 36 37
f 26 37 38
f 26 38 27
f 27 38 39
f 27 39 29
f 29 39 30
f 30 39 40
f 30 40 41
f 30 41 42
f 31 43 44
f 31 44 45
f 31 45 32
f 32 45 47
f 32 47 46
f 32 46 34
f 32 34 33
f 34 46 35
f 35 46 47
f 35 47 48
f 36 49 37
f 37 50 41
f 37 41 40
f 37 40 39
f 37 39 38
f 37 49 50
f 41 50 62
f 41 62 51
f 41 51 42
f 42 51 53
f 42 53 52
f 43 54 55
f 43 55 56
f 43 56 57
f 43 57 44
f 44 58 47
f 44 47 45
f 44 57 72
f 44 72 58
f 47 58 48
f 48 58 59
f 49 60 61
f 49 61 62
f 49 62 50
f 51 62 61
f 51 61 53
f 52 53 64
f 52 64 65
f 52 65 66
f 52 66 63
f 53 61 75
f 53 75 64
f 54 67 68
f 54 68 69
f 54 69 55
f 55 70 71
f 55 71 56
f 55 69 86
f 55 86 70
f 56 71 72
f 56 72 57
f 58 72 59
f 59 72 73
f 60 74 61
f 61 74 75
f 63 66 76
f 63 76 77
f 63 77 78
f 64 75 79
f 64 79 65
f 65 79 80
f 65 80 66
f 66 80 90
f 66 90 76
f 67 81 82
f 67 82 83
f 67 83 68
f 67 84 81
f 68 85 86
f 68 86 69
f 68 83 100
f 68 100 85
f 70 86 87
f 70 87 88
f 70 88 71
f 71 88 73
f 71 73 72
f 74 89 79
f 74 79 75
f 76 90 91
f 76 91 77
f 77 91 106
f 77 106 92
f 77 92 78
f 78 92 94
f 78 94 93
f 79 89 80
f 80 89 95
f 80 95 96
f 80 96 90
f 81 97 99
f 81 99 82
f 81 84 98
f 81 98 111
f 81 111 97
f 82 99 100
f 82 100 83
f 84 101 102
f 84 102 98
f 85 100 103
f 85 103 86
f 86 103 87
f 90 96 104
f 90 104 105
f 90 105 91
f 91 105 106
f 92 106 110
f 92 110 94
f 93 94 107
f 93 107 108
f 93 108 109
f 93 109 101
f 94 110 117
f 94 117 107
f 97 111 112
f 97 112 113
f 97 113 99
f 98 102 115
f 98 115 111
f 99 113 100
f 100 113 103
f 101 109 114
f 101 114 102
f 102 114 122
f 102 122 115
f 105 116 106
f 106 116 110
f 107 117 118
f 107 118 108
f 108 118 119
f 108 119 109
f 109 119 122
f 109 122 114
f 110 116 120
f 110 120 117
f 111 115 121
f 111 121 112
f 115 122 121
f 117 120 123
f 117 123 118
f 118 123 119
f 119 123 124
f 119 124 125
f 119 125 122
f 121 122 125

