# https://github.com/mikedh/trimesh
v -0.05526203 -0.00599055 0.01636373
v -0.05526203 -0.00599055 0.02925115
v -0.05526203 -0.00275000 0.01636373
v 0.03239177 -0.00599055 0.01636373
v -0.05526203 -0.00275000 0.02925115
v 0.02132350 -0.00599055 0.02925115
v 0.03239177 -0.00275000 0.01636373
v 0.03160240 -0.00599055 0.01825111
v 0.02132350 -0.00275000 0.02925115
v 0.02406911 -0.00599055 0.02714173
v 0.03160240 -0.00275000 0.01825111
v 0.03027250 -0.00599055 0.01998836
v 0.02580229 -0.00275000 0.02580820
v 0.02580229 -0.00599055 0.02580820
v 0.02737244 -0.00599055 0.02376690
f 1 2 5
f 1 5 3
f 1 3 7
f 1 7 4
f 1 4 8
f 1 8 12
f 1 12 15
f 1 15 14
f 1 14 10
f 1 10 6
f 1 6 2
f 2 6 9
f 2 9 5
f 3 5 9
f 3 9 13
f 3 13 11
f 3 11 7
f 4 7 11
f 4 11 8
f 6 10 9
f 8 11 12
f 9 10 13
f 10 14 13
f 11 13 15
f 11 15 12
f 13 14 15

