# https://github.com/mikedh/trimesh
v 0.15673085 -0.02050000 -0.12379091
v 0.12318849 -0.02050000 -0.12378364
v 0.15673085 -0.01736533 -0.12379091
v 0.20095759 -0.02050000 -0.12379091
v 0.08023820 -0.02050000 -0.08774657
v 0.12318849 -0.01736533 -0.12378364
v 0.20095759 -0.01736533 -0.12379091
v 0.15673085 -0.02050000 -0.08667479
v 0.08023820 -0.01736533 -0.08774657
v 0.15673085 -0.01736533 -0.08667479
f 1 2 6
f 1 6 3
f 1 3 7
f 1 7 4
f 1 4 8
f 1 8 5
f 1 5 2
f 2 5 9
f 2 9 6
f 3 6 9
f 3 9 10
f 3 10 7
f 4 7 10
f 4 10 8
f 5 8 10
f 5 10 9

