# https://github.com/mikedh/trimesh
v 0.16875758 -0.02050000 -0.16201967
v 0.12318755 -0.02050000 -0.12379465
v 0.16875758 -0.00850000 -0.16201967
v 0.24190734 -0.02050000 -0.16201967
v 0.12318755 -0.00850000 -0.12379465
v 0.20096305 -0.02050000 -0.12379465
v 0.24190734 -0.00850000 -0.16201967
v 0.24222194 -0.02050000 -0.15819904
v 0.20096305 -0.00850000 -0.12379465
v 0.21549279 -0.02050000 -0.12610724
v 0.24222194 -0.00850000 -0.15819904
v 0.23968185 -0.02050000 -0.14739574
v 0.21549279 -0.00850000 -0.12610724
v 0.22565313 -0.02050000 -0.13055279
v 0.23968185 -0.00850000 -0.14739574
v 0.23398414 -0.02050000 -0.13788346
v 0.22565313 -0.00850000 -0.13055279
v 0.23398414 -0.00850000 -0.13788346
f 1 2 5
f 1 5 3
f 1 3 7
f 1 7 4
f 1 4 8
f 1 8 12
f 1 12 16
f 1 16 14
f 1 14 10
f 1 10 6
f 1 6 2
f 2 6 9
f 2 9 5
f 3 5 9
f 3 9 13
f 3 13 17
f 3 17 18
f 3 18 15
f 3 15 11
f 3 11 7
f 4 7 11
f 4 11 8
f 6 10 13
f 6 13 9
f 8 11 15
f 8 15 12
f 10 14 17
f 10 17 13
f 12 15 18
f 12 18 16
f 14 16 18
f 14 18 17

