# https://github.com/mikedh/trimesh
v -0.02599192 -0.01199594 -0.03513791
v -0.02782239 -0.01199594 -0.03504160
v -0.02599192 -0.00923324 -0.03513791
v -0.02599192 -0.01199594 0.03513791
v -0.02996262 -0.00923324 -0.03492466
v -0.02996262 -0.01199594 -0.03492466
v -0.02599192 -0.00923324 0.03513791
v -0.09791509 -0.01199594 0.03135446
v -0.03022312 -0.00923324 -0.03488338
v -0.03022312 -0.01199594 -0.03488338
v -0.09791509 -0.00923324 0.03135446
v -0.09791509 -0.01199594 -0.02400081
v -0.03850245 -0.00923324 -0.03355574
v -0.03850245 -0.01199594 -0.03355574
v -0.09791509 -0.00923324 -0.02400081
v -0.06560740 -0.01199594 -0.02920133
f 1 2 3
f 1 3 7
f 1 7 4
f 1 4 8
f 1 8 12
f 1 12 16
f 1 16 14
f 1 14 10
f 1 10 6
f 1 6 2
f 2 5 3
f 2 6 5
f 3 5 9
f 3 9 13
f 3 13 15
f 3 15 11
f 3 11 7
f 4 7 11
f 4 11 8
f 5 6 10
f 5 10 9
f 8 11 15
f 8 15 12
f 9 10 14
f 9 14 13
f 12 15 16
f 13 14 16
f 13 16 15

