# https://github.com/mikedh/trimesh
v -0.06018007 -0.01475000 0.00188341
v -0.06018007 -0.01475000 0.03334415
v -0.06018007 -0.01199594 0.00188341
v -0.02599029 -0.01475000 0.00188341
v -0.05205686 -0.01199594 0.03377061
v -0.06018007 -0.01199594 0.03334415
v -0.02599029 -0.01475000 0.03513465
v -0.02599029 -0.01199594 0.00188341
v -0.03072298 -0.01199594 0.03488724
v -0.02599029 -0.01199594 0.03513465
f 1 2 6
f 1 6 3
f 1 3 8
f 1 8 4
f 1 4 7
f 1 7 2
f 2 5 6
f 2 7 5
f 3 6 5
f 3 5 9
f 3 9 10
f 3 10 8
f 4 8 10
f 4 10 7
f 5 7 9
f 7 10 9

