# https://github.com/mikedh/trimesh
v -0.00000357 -0.00599055 -0.03650000
v -0.00000357 -0.00275000 -0.03650000
v 0.00943589 -0.00599055 -0.03525337
v -0.02783754 -0.00599055 -0.03504157
v 0.00943589 -0.00275000 -0.03525337
v -0.02997156 -0.00275000 -0.03492961
v 0.01386105 -0.00599055 -0.03342579
v -0.02997156 -0.00599055 -0.03492961
v 0.01824693 -0.00275000 -0.03160729
v -0.09798542 -0.00275000 -0.02400045
v 0.01824693 -0.00599055 -0.03160729
v -0.09798542 -0.00599055 -0.02400045
v 0.02580111 -0.00275000 -0.02580685
v -0.09798542 -0.00275000 -0.00558851
v 0.02580111 -0.00599055 -0.02580685
v -0.09798542 -0.00599055 -0.00558851
v 0.03160095 -0.00275000 -0.01825145
v 0.02627243 -0.00599055 -0.02532273
v 0.03576426 -0.00275000 -0.00558851
v 0.03576426 -0.00599055 -0.00558851
v 0.03525367 -0.00275000 -0.00944942
v 0.03160095 -0.00599055 -0.01825145
v 0.03029173 -0.00599055 -0.02003062
v 0.02917890 -0.00599055 -0.02153443
v 0.03554169 -0.00599055 -0.00727691
v 0.03525367 -0.00599055 -0.00944942
f 1 2 5
f 1 5 3
f 1 3 7
f 1 7 11
f 1 11 15
f 1 15 18
f 1 18 24
f 1 24 23
f 1 23 22
f 1 22 26
f 1 26 25
f 1 25 20
f 1 20 16
f 1 16 12
f 1 12 8
f 1 8 4
f 1 4 2
f 2 4 6
f 2 6 10
f 2 10 14
f 2 14 19
f 2 19 21
f 2 21 17
f 2 17 13
f 2 13 9
f 2 9 5
f 3 5 7
f 4 8 6
f 5 9 7
f 6 8 12
f 6 12 10
f 7 9 11
f 9 13 15
f 9 15 11
f 10 12 16
f 10 16 14
f 13 17 18
f 13 18 15
f 14 16 20
f 14 20 19
f 17 21 26
f 17 26 22
f 17 22 23
f 17 23 24
f 17 24 18
f 19 20 25
f 19 25 21
f 21 25 26

