# https://github.com/mikedh/trimesh
v -0.09791547 -0.01475000 -0.02401296
v -0.10135190 -0.01475000 -0.02346032
v -0.09791547 -0.00923333 -0.02401296
v -0.09791547 -0.01475000 -0.00247863
v -0.10185610 -0.00923333 -0.02337566
v -0.10135190 -0.00923333 -0.02346032
v -0.10135190 -0.01475000 -0.00098061
v -0.09797835 -0.00599055 -0.02400120
v -0.09791547 -0.00923333 -0.00247863
v -0.10049626 -0.00923333 0.00001180
v -0.10023741 -0.01475000 -0.00098061
v -0.10185610 -0.00599055 -0.02337566
v -0.10185610 -0.00923333 0.00001180
v -0.09797835 -0.00599055 -0.00249744
v -0.10049626 -0.00599055 0.00001180
v -0.10185610 -0.00599055 0.00001180
f 1 2 6
f 1 6 3
f 1 3 9
f 1 9 4
f 1 4 11
f 1 11 7
f 1 7 2
f 2 5 12
f 2 12 6
f 2 7 13
f 2 13 5
f 3 6 8
f 3 8 14
f 3 14 9
f 4 9 15
f 4 15 10
f 4 10 11
f 5 13 16
f 5 16 12
f 6 12 8
f 7 11 10
f 7 10 13
f 8 12 16
f 8 16 15
f 8 15 14
f 9 14 15
f 10 15 16
f 10 16 13

