# https://github.com/mikedh/trimesh
v 0.20988093 -0.02050000 -0.19673589
v 0.20988093 -0.00850000 -0.19673589
v 0.22062465 -0.02050000 -0.19395248
v 0.19880773 -0.02050000 -0.19612076
v 0.22062465 -0.00850000 -0.19395248
v 0.19880773 -0.00850000 -0.19612076
v 0.23000034 -0.02050000 -0.18802880
v 0.18844363 -0.02050000 -0.19215805
v 0.23000034 -0.00850000 -0.18802880
v 0.18844363 -0.00850000 -0.19215805
v 0.23713417 -0.02050000 -0.17952902
v 0.17978418 -0.02050000 -0.18522839
v 0.23713417 -0.00850000 -0.17952902
v 0.17978418 -0.00850000 -0.18522839
v 0.24133854 -0.02050000 -0.16926539
v 0.17363877 -0.02050000 -0.17599453
v 0.24133854 -0.00850000 -0.16926539
v 0.17363877 -0.00850000 -0.17599453
v 0.24191871 -0.02050000 -0.16201967
v 0.16874680 -0.02050000 -0.16201967
v 0.24191871 -0.00850000 -0.16201967
v 0.16874680 -0.00850000 -0.16201967
f 1 2 5
f 1 5 3
f 1 3 7
f 1 7 11
f 1 11 15
f 1 15 19
f 1 19 20
f 1 20 16
f 1 16 12
f 1 12 8
f 1 8 4
f 1 4 6
f 1 6 2
f 2 6 10
f 2 10 14
f 2 14 18
f 2 18 22
f 2 22 21
f 2 21 17
f 2 17 13
f 2 13 9
f 2 9 5
f 3 5 9
f 3 9 7
f 4 8 10
f 4 10 6
f 7 9 13
f 7 13 11
f 8 12 14
f 8 14 10
f 11 13 17
f 11 17 15
f 12 16 18
f 12 18 14
f 15 17 21
f 15 21 19
f 16 20 22
f 16 22 18
f 19 21 22
f 19 22 20

