# https://github.com/mikedh/trimesh
v 0.13700040 -0.01736533 -0.09602687
v 0.13700040 -0.01409338 -0.09602687
v 0.16026727 -0.01736533 -0.09602687
v 0.13700040 -0.01736533 -0.07011091
v 0.13700040 -0.01409338 -0.07011091
v 0.16026727 -0.01409338 -0.09602687
v 0.16788282 -0.01736533 -0.09602434
v 0.16026727 -0.01736533 -0.08963160
v 0.16026727 -0.01409338 -0.08963160
v 0.16788282 -0.01409338 -0.09602434
f 1 2 6
f 1 6 3
f 1 3 7
f 1 7 8
f 1 8 4
f 1 4 5
f 1 5 2
f 2 5 9
f 2 9 10
f 2 10 6
f 3 6 10
f 3 10 7
f 4 8 9
f 4 9 5
f 7 10 9
f 7 9 8

