# https://github.com/mikedh/trimesh
v 0.03595727 0.02104983 -0.00175420
v 0.03595727 0.01505052 -0.00175420
v 0.03480471 0.02104983 -0.00918697
v 0.01960725 0.02105925 -0.00394915
v 0.01992569 0.02105925 0.00173410
v 0.03553457 0.02104983 0.00575906
v 0.03083415 0.01504109 -0.00319782
v 0.03480471 0.01505052 -0.00918697
v 0.03553457 0.01505052 0.00575906
v 0.01770229 0.02105925 -0.00930503
v 0.01868577 0.02105925 -0.00654659
v 0.03213607 0.02104983 -0.01622260
v 0.01925782 0.02105925 0.00459450
v 0.01862941 0.02105925 0.00727781
v 0.03521050 0.02104983 0.00656942
v 0.02934625 0.01504109 -0.00998659
v 0.03075525 0.01504109 -0.00213523
v 0.03213607 0.01505052 -0.01622260
v 0.03521050 0.01505052 0.00656942
v 0.02454720 0.01504109 0.01412025
v 0.02806124 0.02104983 -0.02254984
v 0.01608476 0.02105925 -0.01154291
v 0.01718378 0.02105925 0.00983232
v 0.01582268 0.02105925 0.01223120
v 0.01371482 0.02105925 0.01427588
v 0.01173659 0.02105925 0.01619176
v 0.03457363 0.02104983 0.00715975
v 0.02637890 0.01504109 -0.01628163
v 0.02806124 0.01505052 -0.02254984
v 0.03457363 0.01505052 0.00715975
v 0.02439785 0.01548056 0.01451738
v 0.01242982 0.01504109 0.01648156
v 0.02276059 0.02104983 -0.02788962
v 0.01436296 0.02105925 -0.01391495
v 0.00913840 0.02105925 0.01756025
v 0.00716862 0.02105925 0.01859600
v 0.00716862 0.02074998 0.01971763
v 0.02439785 0.01672531 0.01451738
v 0.02438094 0.01662634 0.01456568
v 0.02434149 0.01610028 0.01467301
v 0.02208427 0.01504109 -0.02175021
v 0.02276059 0.01505052 -0.02788962
v 0.00716862 0.01814973 0.01971763
v 0.00716862 0.01504109 0.01739925
v 0.01646801 0.02104983 -0.03201118
v 0.00985980 0.02105925 -0.01739789
v 0.01218183 0.02105925 -0.01560544
v 0.00716862 0.02105925 -0.01844974
v 0.01667936 0.01504109 -0.02612937
v 0.01646801 0.01505052 -0.03201118
v 0.00716862 0.01504109 -0.02995577
v 0.00945401 0.02104983 -0.03473206
v 0.00716862 0.02104983 -0.03510772
v 0.01180704 0.01504109 -0.02851752
v 0.00945401 0.01505052 -0.03473206
v 0.01043186 0.01504109 -0.02918834
v 0.00716862 0.01505052 -0.03510772
f 1 2 8
f 1 8 3
f 1 3 4
f 1 4 5
f 1 5 6
f 1 6 9
f 1 9 2
f 2 7 8
f 2 9 7
f 3 10 11
f 3 11 4
f 3 8 18
f 3 18 12
f 3 12 10
f 4 11 10
f 4 10 22
f 4 22 34
f 4 34 47
f 4 47 46
f 4 46 48
f 4 48 36
f 4 36 35
f 4 35 26
f 4 26 25
f 4 25 24
f 4 24 23
f 4 23 14
f 4 14 13
f 4 13 5
f 5 13 6
f 6 13 14
f 6 14 15
f 6 15 19
f 6 19 9
f 7 16 8
f 7 9 17
f 7 17 20
f 7 20 32
f 7 32 44
f 7 44 51
f 7 51 56
f 7 56 54
f 7 54 49
f 7 49 41
f 7 41 28
f 7 28 16
f 8 16 18
f 9 19 20
f 9 20 17
f 10 12 21
f 10 21 22
f 12 18 29
f 12 29 21
f 14 23 15
f 15 23 24
f 15 24 25
f 15 25 26
f 15 26 27
f 15 27 30
f 15 30 19
f 16 28 18
f 18 28 29
f 19 30 20
f 20 30 31
f 20 31 32
f 21 29 42
f 21 42 33
f 21 33 34
f 21 34 22
f 26 35 27
f 27 35 36
f 27 36 37
f 27 37 38
f 27 38 39
f 27 39 40
f 27 40 30
f 28 41 29
f 29 41 42
f 30 40 31
f 31 40 43
f 31 43 32
f 32 43 44
f 33 42 50
f 33 50 45
f 33 45 46
f 33 46 47
f 33 47 34
f 36 48 53
f 36 53 57
f 36 57 51
f 36 51 44
f 36 44 43
f 36 43 37
f 37 43 40
f 37 40 39
f 37 39 38
f 41 49 42
f 42 49 50
f 45 50 55
f 45 55 52
f 45 52 48
f 45 48 46
f 48 52 53
f 49 54 50
f 50 54 56
f 50 56 55
f 51 57 55
f 51 55 56
f 52 55 57
f 52 57 53

