# https://github.com/mikedh/trimesh
v -0.09213669 -0.00599055 0.03167132
v -0.09799914 -0.00599055 0.03136142
v -0.09213669 -0.00923297 0.03167132
v -0.09213669 -0.00599055 0.00001180
v -0.09799914 -0.00923297 0.03136142
v -0.09799914 -0.00599055 0.01841374
v -0.09213669 -0.00923297 0.00001180
v -0.09550289 -0.00599055 0.00001180
v -0.09799914 -0.00923297 0.00250031
v -0.09766229 -0.00599055 0.00241044
v -0.09799914 -0.00599499 0.00250031
v -0.09550289 -0.00923297 0.00001180
f 1 2 5
f 1 5 3
f 1 3 7
f 1 7 4
f 1 4 8
f 1 8 10
f 1 10 6
f 1 6 2
f 2 6 11
f 2 11 9
f 2 9 5
f 3 5 9
f 3 9 12
f 3 12 7
f 4 7 12
f 4 12 8
f 6 10 11
f 8 11 10
f 8 12 9
f 8 9 11

